<?xml version="1.0" encoding="UTF-8"?><svg xmlns="http://www.w3.org/2000/svg" xmlns:xlink="http://www.w3.org/1999/xlink" contentScriptType="text/ecmascript" width="750" zoomAndPan="magnify" style="stroke-dasharray:none; shape-rendering:auto; font-family:'Dialog'; text-rendering:auto; fill-opacity:1; color-interpolation:auto; color-rendering:auto; font-size:12; fill:black; stroke:black; image-rendering:auto; stroke-miterlimit:10; stroke-linecap:square; stroke-linejoin:miter; font-style:normal; stroke-width:1; stroke-dashoffset:0; font-weight:normal; stroke-opacity:1;" contentStyleType="text/css" viewBox="0 0 750 500" height="500" preserveAspectRatio="xMidYMid meet" version="1.0"><!--Generated by the Batik Graphics2D SVG Generator--><defs id="genericDefs"/><g><defs id="defs1"><clipPath clipPathUnits="userSpaceOnUse" id="clipPath1"><path d="M0 0 L750 0 L750 500 L0 500 L0 0 Z"/></clipPath><clipPath clipPathUnits="userSpaceOnUse" id="clipPath2"><path d="M262.082 222.918 L262.082 972.918 L-237.918 972.918 L-237.918 222.918 L262.082 222.918 Z"/></clipPath><clipPath clipPathUnits="userSpaceOnUse" id="clipPath3"><path d="M59 35 L59 450 L737 450 L737 35 Z"/></clipPath></defs><g style="fill:white; text-rendering:optimizeLegibility; font-size:11; font-family:'Liberation Sans'; stroke:white;"><rect x="0" width="750" height="500" y="0" style="clip-path:url(#clipPath1); stroke:none;"/></g><g style="font-weight:bold; font-size:20; text-rendering:optimizeLegibility;"><path style="clip-path:url(#clipPath1); stroke:none;" d="M189.3975 18.7676 Q188.3506 19.2988 187.2334 19.5723 Q186.1162 19.8457 184.8818 19.8457 Q181.2412 19.8457 179.1162 17.8066 Q176.9912 15.7676 176.9912 12.2832 Q176.9912 8.7988 179.1162 6.7598 Q181.2412 4.7207 184.8818 4.7207 Q186.1162 4.7207 187.2334 4.9941 Q188.3506 5.2676 189.3975 5.7988 L189.3975 8.8145 Q188.3506 8.1113 187.335 7.7754 Q186.3193 7.4395 185.1943 7.4395 Q183.1787 7.4395 182.0303 8.7285 Q180.8818 10.0176 180.8818 12.2832 Q180.8818 14.5488 182.0303 15.8379 Q183.1787 17.127 185.1943 17.127 Q186.3193 17.127 187.335 16.791 Q188.3506 16.4551 189.3975 15.752 L189.3975 18.7676 ZM200.4814 11.6113 Q200.0127 11.3926 199.5596 11.291 Q199.1064 11.1895 198.6533 11.1895 Q197.2939 11.1895 196.5674 12.0488 Q195.8408 12.9082 195.8408 14.5176 L195.8408 19.5645 L192.3564 19.5645 L192.3564 8.627 L195.8408 8.627 L195.8408 10.4238 Q196.5127 9.3457 197.3877 8.8535 Q198.2627 8.3613 199.4814 8.3613 Q199.6689 8.3613 199.8721 8.377 Q200.0752 8.3926 200.4658 8.4395 L200.4814 11.6113 ZM207.4229 10.8613 Q206.251 10.8613 205.6416 11.6973 Q205.0322 12.5332 205.0322 14.1113 Q205.0322 15.6738 205.6416 16.5098 Q206.251 17.3457 207.4229 17.3457 Q208.5635 17.3457 209.165 16.5098 Q209.7666 15.6738 209.7666 14.1113 Q209.7666 12.5332 209.165 11.6973 Q208.5635 10.8613 207.4229 10.8613 ZM207.4229 8.3613 Q210.2354 8.3613 211.8213 9.8848 Q213.4072 11.4082 213.4072 14.1113 Q213.4072 16.7988 211.8213 18.3223 Q210.2354 19.8457 207.4229 19.8457 Q204.5791 19.8457 202.9854 18.3223 Q201.3916 16.7988 201.3916 14.1113 Q201.3916 11.4082 202.9854 9.8848 Q204.5791 8.3613 207.4229 8.3613 ZM214.9756 8.627 L218.3818 8.627 L220.21 16.1582 L222.0537 8.627 L224.9756 8.627 L226.8193 16.0801 L228.6631 8.627 L232.0537 8.627 L229.1787 19.5645 L225.3506 19.5645 L223.5068 12.0488 L221.6787 19.5645 L217.8506 19.5645 L214.9756 8.627 ZM245.4209 12.9082 L245.4209 19.5645 L241.9053 19.5645 L241.9053 18.4863 L241.9053 14.4707 Q241.9053 13.0488 241.8428 12.5098 Q241.7803 11.9707 241.624 11.7207 Q241.4209 11.377 241.0693 11.1895 Q240.7178 11.002 240.2646 11.002 Q239.1709 11.002 238.5459 11.8457 Q237.9209 12.6895 237.9209 14.1895 L237.9209 19.5645 L234.4365 19.5645 L234.4365 8.627 L237.9209 8.627 L237.9209 10.2207 Q238.7178 9.2676 239.6084 8.8145 Q240.499 8.3613 241.5615 8.3613 Q243.4678 8.3613 244.4443 9.5254 Q245.4209 10.6895 245.4209 12.9082 ZM248.0654 12.3926 L254.2061 12.3926 L254.2061 15.2207 L248.0654 15.2207 L248.0654 12.3926 ZM262.1787 10.8613 Q261.0068 10.8613 260.3975 11.6973 Q259.7881 12.5332 259.7881 14.1113 Q259.7881 15.6738 260.3975 16.5098 Q261.0068 17.3457 262.1787 17.3457 Q263.3193 17.3457 263.9209 16.5098 Q264.5225 15.6738 264.5225 14.1113 Q264.5225 12.5332 263.9209 11.6973 Q263.3193 10.8613 262.1787 10.8613 ZM262.1787 8.3613 Q264.9912 8.3613 266.5771 9.8848 Q268.1631 11.4082 268.1631 14.1113 Q268.1631 16.7988 266.5771 18.3223 Q264.9912 19.8457 262.1787 19.8457 Q259.335 19.8457 257.7412 18.3223 Q256.1475 16.7988 256.1475 14.1113 Q256.1475 11.4082 257.7412 9.8848 Q259.335 8.3613 262.1787 8.3613 ZM277.9033 4.3613 L277.9033 6.6582 L275.9658 6.6582 Q275.2314 6.6582 274.9346 6.9316 Q274.6377 7.2051 274.6377 7.8613 L274.6377 8.627 L277.6377 8.627 L277.6377 11.127 L274.6377 11.127 L274.6377 19.5645 L271.1533 19.5645 L271.1533 11.127 L269.4033 11.127 L269.4033 8.627 L271.1533 8.627 L271.1533 7.8613 Q271.1533 6.0801 272.1455 5.2207 Q273.1377 4.3613 275.2314 4.3613 L277.9033 4.3613 ZM278.8076 12.3926 L284.9482 12.3926 L284.9482 15.2207 L278.8076 15.2207 L278.8076 12.3926 ZM291.5303 5.5176 L291.5303 8.627 L295.1396 8.627 L295.1396 11.127 L291.5303 11.127 L291.5303 15.7676 Q291.5303 16.5332 291.835 16.7988 Q292.1396 17.0645 293.0303 17.0645 L294.8271 17.0645 L294.8271 19.5645 L291.8271 19.5645 Q289.7646 19.5645 288.8975 18.6973 Q288.0303 17.8301 288.0303 15.7676 L288.0303 11.127 L286.2959 11.127 L286.2959 8.627 L288.0303 8.627 L288.0303 5.5176 L291.5303 5.5176 ZM308.2627 12.9082 L308.2627 19.5645 L304.7471 19.5645 L304.7471 18.4863 L304.7471 14.4863 Q304.7471 13.0488 304.6846 12.5098 Q304.6221 11.9707 304.4658 11.7207 Q304.2627 11.377 303.9111 11.1895 Q303.5596 11.002 303.1064 11.002 Q302.0127 11.002 301.3877 11.8457 Q300.7627 12.6895 300.7627 14.1895 L300.7627 19.5645 L297.2783 19.5645 L297.2783 4.3613 L300.7627 4.3613 L300.7627 10.2207 Q301.5596 9.2676 302.4502 8.8145 Q303.3408 8.3613 304.4033 8.3613 Q306.3096 8.3613 307.2861 9.5254 Q308.2627 10.6895 308.2627 12.9082 ZM316.7197 10.8613 Q315.5479 10.8613 314.9385 11.6973 Q314.3291 12.5332 314.3291 14.1113 Q314.3291 15.6738 314.9385 16.5098 Q315.5479 17.3457 316.7197 17.3457 Q317.8604 17.3457 318.4619 16.5098 Q319.0635 15.6738 319.0635 14.1113 Q319.0635 12.5332 318.4619 11.6973 Q317.8604 10.8613 316.7197 10.8613 ZM316.7197 8.3613 Q319.5322 8.3613 321.1182 9.8848 Q322.7041 11.4082 322.7041 14.1113 Q322.7041 16.7988 321.1182 18.3223 Q319.5322 19.8457 316.7197 19.8457 Q313.876 19.8457 312.2822 18.3223 Q310.6885 16.7988 310.6885 14.1113 Q310.6885 11.4082 312.2822 9.8848 Q313.876 8.3613 316.7197 8.3613 ZM333.3818 11.6113 Q332.9131 11.3926 332.46 11.291 Q332.0068 11.1895 331.5537 11.1895 Q330.1943 11.1895 329.4678 12.0488 Q328.7412 12.9082 328.7412 14.5176 L328.7412 19.5645 L325.2568 19.5645 L325.2568 8.627 L328.7412 8.627 L328.7412 10.4238 Q329.4131 9.3457 330.2881 8.8535 Q331.1631 8.3613 332.3818 8.3613 Q332.5693 8.3613 332.7725 8.377 Q332.9756 8.3926 333.3662 8.4395 L333.3818 11.6113 ZM346.1045 12.9082 L346.1045 19.5645 L342.5889 19.5645 L342.5889 18.4863 L342.5889 14.4707 Q342.5889 13.0488 342.5264 12.5098 Q342.4639 11.9707 342.3076 11.7207 Q342.1045 11.377 341.7529 11.1895 Q341.4014 11.002 340.9482 11.002 Q339.8545 11.002 339.2295 11.8457 Q338.6045 12.6895 338.6045 14.1895 L338.6045 19.5645 L335.1201 19.5645 L335.1201 8.627 L338.6045 8.627 L338.6045 10.2207 Q339.4014 9.2676 340.292 8.8145 Q341.1826 8.3613 342.2451 8.3613 Q344.1514 8.3613 345.1279 9.5254 Q346.1045 10.6895 346.1045 12.9082 ZM357.8896 8.9707 L357.8896 11.627 Q356.7803 11.1582 355.7334 10.9238 Q354.6865 10.6895 353.749 10.6895 Q352.7646 10.6895 352.2803 10.9395 Q351.7959 11.1895 351.7959 11.7051 Q351.7959 12.127 352.1631 12.3457 Q352.5303 12.5645 353.4678 12.6738 L354.0928 12.7676 Q356.7803 13.1113 357.7021 13.8926 Q358.624 14.6738 358.624 16.3457 Q358.624 18.0957 357.335 18.9707 Q356.0459 19.8457 353.499 19.8457 Q352.4053 19.8457 351.249 19.6738 Q350.0928 19.502 348.874 19.1582 L348.874 16.502 Q349.9209 17.0176 351.0146 17.2676 Q352.1084 17.5176 353.249 17.5176 Q354.2803 17.5176 354.7959 17.2363 Q355.3115 16.9551 355.3115 16.3926 Q355.3115 15.9238 354.9521 15.6973 Q354.5928 15.4707 353.5303 15.3457 L352.9209 15.2676 Q350.5771 14.9707 349.6396 14.1816 Q348.7021 13.3926 348.7021 11.7832 Q348.7021 10.0488 349.8975 9.2051 Q351.0928 8.3613 353.5459 8.3613 Q354.5146 8.3613 355.5771 8.5098 Q356.6396 8.6582 357.8896 8.9707 ZM376.7568 8.9707 L376.7568 11.627 Q375.6475 11.1582 374.6006 10.9238 Q373.5537 10.6895 372.6162 10.6895 Q371.6318 10.6895 371.1475 10.9395 Q370.6631 11.1895 370.6631 11.7051 Q370.6631 12.127 371.0303 12.3457 Q371.3975 12.5645 372.335 12.6738 L372.96 12.7676 Q375.6475 13.1113 376.5693 13.8926 Q377.4912 14.6738 377.4912 16.3457 Q377.4912 18.0957 376.2021 18.9707 Q374.9131 19.8457 372.3662 19.8457 Q371.2725 19.8457 370.1162 19.6738 Q368.96 19.502 367.7412 19.1582 L367.7412 16.502 Q368.7881 17.0176 369.8818 17.2676 Q370.9756 17.5176 372.1162 17.5176 Q373.1475 17.5176 373.6631 17.2363 Q374.1787 16.9551 374.1787 16.3926 Q374.1787 15.9238 373.8193 15.6973 Q373.46 15.4707 372.3975 15.3457 L371.7881 15.2676 Q369.4443 14.9707 368.5068 14.1816 Q367.5693 13.3926 367.5693 11.7832 Q367.5693 10.0488 368.7646 9.2051 Q369.96 8.3613 372.4131 8.3613 Q373.3818 8.3613 374.4443 8.5098 Q375.5068 8.6582 376.7568 8.9707 ZM383.9424 5.5176 L383.9424 8.627 L387.5518 8.627 L387.5518 11.127 L383.9424 11.127 L383.9424 15.7676 Q383.9424 16.5332 384.2471 16.7988 Q384.5518 17.0645 385.4424 17.0645 L387.2393 17.0645 L387.2393 19.5645 L384.2393 19.5645 Q382.1768 19.5645 381.3096 18.6973 Q380.4424 17.8301 380.4424 15.7676 L380.4424 11.127 L378.708 11.127 L378.708 8.627 L380.4424 8.627 L380.4424 5.5176 L383.9424 5.5176 ZM394.5811 14.6426 Q393.4873 14.6426 392.9404 15.0098 Q392.3936 15.377 392.3936 16.1113 Q392.3936 16.7676 392.8389 17.1426 Q393.2842 17.5176 394.0654 17.5176 Q395.0498 17.5176 395.7295 16.8145 Q396.4092 16.1113 396.4092 15.0488 L396.4092 14.6426 L394.5811 14.6426 ZM399.9248 13.3301 L399.9248 19.5645 L396.4092 19.5645 L396.4092 17.9395 Q395.7061 18.9395 394.8232 19.3926 Q393.9404 19.8457 392.6748 19.8457 Q390.9873 19.8457 389.9248 18.8535 Q388.8623 17.8613 388.8623 16.2832 Q388.8623 14.3613 390.1826 13.4629 Q391.5029 12.5645 394.3467 12.5645 L396.4092 12.5645 L396.4092 12.2832 Q396.4092 11.4551 395.7529 11.0723 Q395.0967 10.6895 393.7061 10.6895 Q392.5811 10.6895 391.6123 10.916 Q390.6436 11.1426 389.8154 11.5801 L389.8154 8.9238 Q390.9404 8.6426 392.0732 8.502 Q393.2061 8.3613 394.3467 8.3613 Q397.2998 8.3613 398.6123 9.5254 Q399.9248 10.6895 399.9248 13.3301 ZM411.3115 11.6113 Q410.8428 11.3926 410.3896 11.291 Q409.9365 11.1895 409.4834 11.1895 Q408.124 11.1895 407.3975 12.0488 Q406.6709 12.9082 406.6709 14.5176 L406.6709 19.5645 L403.1865 19.5645 L403.1865 8.627 L406.6709 8.627 L406.6709 10.4238 Q407.3428 9.3457 408.2178 8.8535 Q409.0928 8.3613 410.3115 8.3613 Q410.499 8.3613 410.7021 8.377 Q410.9053 8.3926 411.2959 8.4395 L411.3115 11.6113 ZM420.2373 4.3613 L420.2373 6.6582 L418.2998 6.6582 Q417.5654 6.6582 417.2686 6.9316 Q416.9717 7.2051 416.9717 7.8613 L416.9717 8.627 L419.9717 8.627 L419.9717 11.127 L416.9717 11.127 L416.9717 19.5645 L413.4873 19.5645 L413.4873 11.127 L411.7373 11.127 L411.7373 8.627 L413.4873 8.627 L413.4873 7.8613 Q413.4873 6.0801 414.4795 5.2207 Q415.4717 4.3613 417.5654 4.3613 L420.2373 4.3613 ZM421.751 8.627 L425.2354 8.627 L425.2354 19.5645 L421.751 19.5645 L421.751 8.627 ZM421.751 4.3613 L425.2354 4.3613 L425.2354 7.2207 L421.751 7.2207 L421.751 4.3613 ZM437.1377 8.9707 L437.1377 11.627 Q436.0283 11.1582 434.9814 10.9238 Q433.9346 10.6895 432.9971 10.6895 Q432.0127 10.6895 431.5283 10.9395 Q431.0439 11.1895 431.0439 11.7051 Q431.0439 12.127 431.4111 12.3457 Q431.7783 12.5645 432.7158 12.6738 L433.3408 12.7676 Q436.0283 13.1113 436.9502 13.8926 Q437.8721 14.6738 437.8721 16.3457 Q437.8721 18.0957 436.583 18.9707 Q435.2939 19.8457 432.7471 19.8457 Q431.6533 19.8457 430.4971 19.6738 Q429.3408 19.502 428.1221 19.1582 L428.1221 16.502 Q429.1689 17.0176 430.2627 17.2676 Q431.3564 17.5176 432.4971 17.5176 Q433.5283 17.5176 434.0439 17.2363 Q434.5596 16.9551 434.5596 16.3926 Q434.5596 15.9238 434.2002 15.6973 Q433.8408 15.4707 432.7783 15.3457 L432.1689 15.2676 Q429.8252 14.9707 428.8877 14.1816 Q427.9502 13.3926 427.9502 11.7832 Q427.9502 10.0488 429.1455 9.2051 Q430.3408 8.3613 432.7939 8.3613 Q433.7627 8.3613 434.8252 8.5098 Q435.8877 8.6582 437.1377 8.9707 ZM451.4951 12.9082 L451.4951 19.5645 L447.9795 19.5645 L447.9795 18.4863 L447.9795 14.4863 Q447.9795 13.0488 447.917 12.5098 Q447.8545 11.9707 447.6982 11.7207 Q447.4951 11.377 447.1436 11.1895 Q446.792 11.002 446.3389 11.002 Q445.2451 11.002 444.6201 11.8457 Q443.9951 12.6895 443.9951 14.1895 L443.9951 19.5645 L440.5107 19.5645 L440.5107 4.3613 L443.9951 4.3613 L443.9951 10.2207 Q444.792 9.2676 445.6826 8.8145 Q446.5732 8.3613 447.6357 8.3613 Q449.542 8.3613 450.5186 9.5254 Q451.4951 10.6895 451.4951 12.9082 ZM466.915 10.8613 Q465.7432 10.8613 465.1338 11.6973 Q464.5244 12.5332 464.5244 14.1113 Q464.5244 15.6738 465.1338 16.5098 Q465.7432 17.3457 466.915 17.3457 Q468.0557 17.3457 468.6572 16.5098 Q469.2588 15.6738 469.2588 14.1113 Q469.2588 12.5332 468.6572 11.6973 Q468.0557 10.8613 466.915 10.8613 ZM466.915 8.3613 Q469.7275 8.3613 471.3135 9.8848 Q472.8994 11.4082 472.8994 14.1113 Q472.8994 16.7988 471.3135 18.3223 Q469.7275 19.8457 466.915 19.8457 Q464.0713 19.8457 462.4775 18.3223 Q460.8838 16.7988 460.8838 14.1113 Q460.8838 11.4082 462.4775 9.8848 Q464.0713 8.3613 466.915 8.3613 ZM475.3271 15.2988 L475.3271 8.627 L478.8428 8.627 L478.8428 9.7207 Q478.8428 10.6113 478.835 11.9551 Q478.8271 13.2988 478.8271 13.7363 Q478.8271 15.0645 478.8975 15.6426 Q478.9678 16.2207 479.124 16.4863 Q479.3428 16.8301 479.6865 17.0176 Q480.0303 17.2051 480.4834 17.2051 Q481.5771 17.2051 482.2021 16.3613 Q482.8271 15.5176 482.8271 14.0332 L482.8271 8.627 L486.3271 8.627 L486.3271 19.5645 L482.8271 19.5645 L482.8271 17.9863 Q482.0303 18.9395 481.1475 19.3926 Q480.2646 19.8457 479.2021 19.8457 Q477.3115 19.8457 476.3193 18.6816 Q475.3271 17.5176 475.3271 15.2988 ZM493.5029 5.5176 L493.5029 8.627 L497.1123 8.627 L497.1123 11.127 L493.5029 11.127 L493.5029 15.7676 Q493.5029 16.5332 493.8076 16.7988 Q494.1123 17.0645 495.0029 17.0645 L496.7998 17.0645 L496.7998 19.5645 L493.7998 19.5645 Q491.7373 19.5645 490.8701 18.6973 Q490.0029 17.8301 490.0029 15.7676 L490.0029 11.127 L488.2686 11.127 L488.2686 8.627 L490.0029 8.627 L490.0029 5.5176 L493.5029 5.5176 ZM505.0635 17.3145 Q506.1885 17.3145 506.7822 16.4941 Q507.376 15.6738 507.376 14.1113 Q507.376 12.5488 506.7822 11.7285 Q506.1885 10.9082 505.0635 10.9082 Q503.9385 10.9082 503.3369 11.7285 Q502.7354 12.5488 502.7354 14.1113 Q502.7354 15.6582 503.3369 16.4863 Q503.9385 17.3145 505.0635 17.3145 ZM502.7354 10.2207 Q503.4697 9.2676 504.3447 8.8145 Q505.2197 8.3613 506.3604 8.3613 Q508.3916 8.3613 509.6885 9.9707 Q510.9854 11.5801 510.9854 14.1113 Q510.9854 16.627 509.6885 18.2363 Q508.3916 19.8457 506.3604 19.8457 Q505.2197 19.8457 504.3447 19.3926 Q503.4697 18.9395 502.7354 17.9863 L502.7354 19.5645 L499.251 19.5645 L499.251 4.3613 L502.7354 4.3613 L502.7354 10.2207 ZM521.6924 11.6113 Q521.2236 11.3926 520.7705 11.291 Q520.3174 11.1895 519.8643 11.1895 Q518.5049 11.1895 517.7783 12.0488 Q517.0518 12.9082 517.0518 14.5176 L517.0518 19.5645 L513.5674 19.5645 L513.5674 8.627 L517.0518 8.627 L517.0518 10.4238 Q517.7236 9.3457 518.5986 8.8535 Q519.4736 8.3613 520.6924 8.3613 Q520.8799 8.3613 521.083 8.377 Q521.2861 8.3926 521.6768 8.4395 L521.6924 11.6113 ZM534.3369 14.0645 L534.3369 15.0645 L526.165 15.0645 Q526.29 16.2988 527.0557 16.9082 Q527.8213 17.5176 529.1807 17.5176 Q530.29 17.5176 531.4463 17.1895 Q532.6025 16.8613 533.8213 16.2051 L533.8213 18.8926 Q532.5869 19.3613 531.3447 19.6035 Q530.1025 19.8457 528.8682 19.8457 Q525.8994 19.8457 524.251 18.3379 Q522.6025 16.8301 522.6025 14.1113 Q522.6025 11.4238 524.2197 9.8926 Q525.8369 8.3613 528.665 8.3613 Q531.2432 8.3613 532.79 9.916 Q534.3369 11.4707 534.3369 14.0645 ZM530.7432 12.9082 Q530.7432 11.9082 530.165 11.2988 Q529.5869 10.6895 528.6494 10.6895 Q527.6338 10.6895 527.001 11.2598 Q526.3682 11.8301 526.2119 12.9082 L530.7432 12.9082 ZM541.8857 14.6426 Q540.792 14.6426 540.2451 15.0098 Q539.6982 15.377 539.6982 16.1113 Q539.6982 16.7676 540.1436 17.1426 Q540.5889 17.5176 541.3701 17.5176 Q542.3545 17.5176 543.0342 16.8145 Q543.7139 16.1113 543.7139 15.0488 L543.7139 14.6426 L541.8857 14.6426 ZM547.2295 13.3301 L547.2295 19.5645 L543.7139 19.5645 L543.7139 17.9395 Q543.0107 18.9395 542.1279 19.3926 Q541.2451 19.8457 539.9795 19.8457 Q538.292 19.8457 537.2295 18.8535 Q536.167 17.8613 536.167 16.2832 Q536.167 14.3613 537.4873 13.4629 Q538.8076 12.5645 541.6514 12.5645 L543.7139 12.5645 L543.7139 12.2832 Q543.7139 11.4551 543.0576 11.0723 Q542.4014 10.6895 541.0107 10.6895 Q539.8857 10.6895 538.917 10.916 Q537.9482 11.1426 537.1201 11.5801 L537.1201 8.9238 Q538.2451 8.6426 539.3779 8.502 Q540.5107 8.3613 541.6514 8.3613 Q544.6045 8.3613 545.917 9.5254 Q547.2295 10.6895 547.2295 13.3301 ZM550.4912 4.3613 L553.9756 4.3613 L553.9756 12.6426 L558.0068 8.627 L562.0693 8.627 L556.7256 13.6426 L562.4912 19.5645 L558.2412 19.5645 L553.9756 15.002 L553.9756 19.5645 L550.4912 19.5645 L550.4912 4.3613 ZM572.3232 8.9707 L572.3232 11.627 Q571.2139 11.1582 570.167 10.9238 Q569.1201 10.6895 568.1826 10.6895 Q567.1982 10.6895 566.7139 10.9395 Q566.2295 11.1895 566.2295 11.7051 Q566.2295 12.127 566.5967 12.3457 Q566.9639 12.5645 567.9014 12.6738 L568.5264 12.7676 Q571.2139 13.1113 572.1357 13.8926 Q573.0576 14.6738 573.0576 16.3457 Q573.0576 18.0957 571.7686 18.9707 Q570.4795 19.8457 567.9326 19.8457 Q566.8389 19.8457 565.6826 19.6738 Q564.5264 19.502 563.3076 19.1582 L563.3076 16.502 Q564.3545 17.0176 565.4482 17.2676 Q566.542 17.5176 567.6826 17.5176 Q568.7139 17.5176 569.2295 17.2363 Q569.7451 16.9551 569.7451 16.3926 Q569.7451 15.9238 569.3857 15.6973 Q569.0264 15.4707 567.9639 15.3457 L567.3545 15.2676 Q565.0107 14.9707 564.0732 14.1816 Q563.1357 13.3926 563.1357 11.7832 Q563.1357 10.0488 564.3311 9.2051 Q565.5264 8.3613 567.9795 8.3613 Q568.9482 8.3613 570.0107 8.5098 Q571.0732 8.6582 572.3232 8.9707 Z"/></g><g style="fill:white; text-rendering:optimizeLegibility; stroke:white;"><rect x="59" width="678" height="415" y="35" style="clip-path:url(#clipPath1); stroke:none;"/><line y2="455" style="clip-path:url(#clipPath1); fill:none; stroke:gray;" x1="59" x2="737" y1="455"/><path style="fill:rgb(64,64,64); clip-path:url(#clipPath1); stroke:none;" d="M58.2533 469.1387 L60.1908 469.1387 L60.1908 462.4668 L58.0814 462.8887 L58.0814 461.8105 L60.1752 461.3887 L61.3627 461.3887 L61.3627 469.1387 L63.3002 469.1387 L63.3002 470.1387 L58.2533 470.1387 L58.2533 469.1387 ZM65.7162 469.9512 L65.7162 468.873 Q66.1693 469.0918 66.6224 469.2012 Q67.0756 469.3105 67.5287 469.3105 Q68.7006 469.3105 69.3178 468.5215 Q69.9349 467.7324 70.0131 466.123 Q69.6849 466.6387 69.1615 466.9043 Q68.6381 467.1699 67.9974 467.1699 Q66.6849 467.1699 65.9193 466.3809 Q65.1537 465.5918 65.1537 464.2012 Q65.1537 462.8574 65.9506 462.0449 Q66.7474 461.2324 68.0756 461.2324 Q69.5912 461.2324 70.3959 462.3965 Q71.2006 463.5605 71.2006 465.7793 Q71.2006 467.8418 70.2162 469.0762 Q69.2318 470.3105 67.5756 470.3105 Q67.1224 470.3105 66.6693 470.2246 Q66.2162 470.1387 65.7162 469.9512 ZM68.0756 466.248 Q68.8724 466.248 69.3412 465.7012 Q69.8099 465.1543 69.8099 464.2012 Q69.8099 463.2637 69.3412 462.7168 Q68.8724 462.1699 68.0756 462.1699 Q67.2787 462.1699 66.8178 462.7168 Q66.3568 463.2637 66.3568 464.2012 Q66.3568 465.1543 66.8178 465.7012 Q67.2787 466.248 68.0756 466.248 ZM73.351 469.9512 L73.351 468.873 Q73.8041 469.0918 74.2572 469.2012 Q74.7103 469.3105 75.1635 469.3105 Q76.3353 469.3105 76.9525 468.5215 Q77.5697 467.7324 77.6478 466.123 Q77.3197 466.6387 76.7963 466.9043 Q76.2728 467.1699 75.6322 467.1699 Q74.3197 467.1699 73.5541 466.3809 Q72.7885 465.5918 72.7885 464.2012 Q72.7885 462.8574 73.5853 462.0449 Q74.3822 461.2324 75.7103 461.2324 Q77.226 461.2324 78.0306 462.3965 Q78.8353 463.5605 78.8353 465.7793 Q78.8353 467.8418 77.851 469.0762 Q76.8666 470.3105 75.2103 470.3105 Q74.7572 470.3105 74.3041 470.2246 Q73.851 470.1387 73.351 469.9512 ZM75.7103 466.248 Q76.5072 466.248 76.976 465.7012 Q77.4447 465.1543 77.4447 464.2012 Q77.4447 463.2637 76.976 462.7168 Q76.5072 462.1699 75.7103 462.1699 Q74.9135 462.1699 74.4525 462.7168 Q73.9916 463.2637 73.9916 464.2012 Q73.9916 465.1543 74.4525 465.7012 Q74.9135 466.248 75.7103 466.248 ZM83.4857 465.9824 Q82.642 465.9824 82.1576 466.4355 Q81.6732 466.8887 81.6732 467.6699 Q81.6732 468.4668 82.1576 468.9199 Q82.642 469.373 83.4857 469.373 Q84.3295 469.373 84.8139 468.9199 Q85.2982 468.4668 85.2982 467.6699 Q85.2982 466.8887 84.8217 466.4355 Q84.3451 465.9824 83.4857 465.9824 ZM82.2982 465.4824 Q81.5482 465.2949 81.1185 464.7715 Q80.6889 464.248 80.6889 463.498 Q80.6889 462.4512 81.4389 461.8418 Q82.1889 461.2324 83.4857 461.2324 Q84.7982 461.2324 85.5404 461.8418 Q86.2826 462.4512 86.2826 463.498 Q86.2826 464.248 85.8607 464.7715 Q85.4389 465.2949 84.6732 465.4824 Q85.5326 465.6855 86.0092 466.2637 Q86.4857 466.8418 86.4857 467.6699 Q86.4857 468.9512 85.7123 469.6309 Q84.9389 470.3105 83.4857 470.3105 Q82.0482 470.3105 81.267 469.6309 Q80.4857 468.9512 80.4857 467.6699 Q80.4857 466.8418 80.9701 466.2637 Q81.4545 465.6855 82.2982 465.4824 ZM81.8764 463.6074 Q81.8764 464.2949 82.2982 464.6699 Q82.7201 465.0449 83.4857 465.0449 Q84.2514 465.0449 84.681 464.6699 Q85.1107 464.2949 85.1107 463.6074 Q85.1107 462.9355 84.681 462.5527 Q84.2514 462.1699 83.4857 462.1699 Q82.7201 462.1699 82.2982 462.5527 Q81.8764 462.9355 81.8764 463.6074 Z"/></g><g style="fill:gray; text-rendering:optimizeLegibility; stroke:gray;"><line y2="455" style="fill:none; clip-path:url(#clipPath1);" x1="72.0385" x2="72.0385" y1="457"/><path style="fill:rgb(64,64,64); clip-path:url(#clipPath1); stroke:none;" d="M101.6831 469.1387 L103.6206 469.1387 L103.6206 462.4668 L101.5112 462.8887 L101.5112 461.8105 L103.605 461.3887 L104.7925 461.3887 L104.7925 469.1387 L106.73 469.1387 L106.73 470.1387 L101.6831 470.1387 L101.6831 469.1387 ZM109.146 469.9512 L109.146 468.873 Q109.5991 469.0918 110.0523 469.2012 Q110.5054 469.3105 110.9585 469.3105 Q112.1304 469.3105 112.7476 468.5215 Q113.3648 467.7324 113.4429 466.123 Q113.1148 466.6387 112.5913 466.9043 Q112.0679 467.1699 111.4273 467.1699 Q110.1148 467.1699 109.3491 466.3809 Q108.5835 465.5918 108.5835 464.2012 Q108.5835 462.8574 109.3804 462.0449 Q110.1773 461.2324 111.5054 461.2324 Q113.021 461.2324 113.8257 462.3965 Q114.6304 463.5605 114.6304 465.7793 Q114.6304 467.8418 113.646 469.0762 Q112.6616 470.3105 111.0054 470.3105 Q110.5523 470.3105 110.0991 470.2246 Q109.646 470.1387 109.146 469.9512 ZM111.5054 466.248 Q112.3023 466.248 112.771 465.7012 Q113.2398 465.1543 113.2398 464.2012 Q113.2398 463.2637 112.771 462.7168 Q112.3023 462.1699 111.5054 462.1699 Q110.7085 462.1699 110.2476 462.7168 Q109.7866 463.2637 109.7866 464.2012 Q109.7866 465.1543 110.2476 465.7012 Q110.7085 466.248 111.5054 466.248 ZM116.7808 469.9512 L116.7808 468.873 Q117.2339 469.0918 117.687 469.2012 Q118.1401 469.3105 118.5933 469.3105 Q119.7651 469.3105 120.3823 468.5215 Q120.9995 467.7324 121.0776 466.123 Q120.7495 466.6387 120.2261 466.9043 Q119.7026 467.1699 119.062 467.1699 Q117.7495 467.1699 116.9839 466.3809 Q116.2183 465.5918 116.2183 464.2012 Q116.2183 462.8574 117.0151 462.0449 Q117.812 461.2324 119.1401 461.2324 Q120.6558 461.2324 121.4605 462.3965 Q122.2651 463.5605 122.2651 465.7793 Q122.2651 467.8418 121.2808 469.0762 Q120.2964 470.3105 118.6401 470.3105 Q118.187 470.3105 117.7339 470.2246 Q117.2808 470.1387 116.7808 469.9512 ZM119.1401 466.248 Q119.937 466.248 120.4058 465.7012 Q120.8745 465.1543 120.8745 464.2012 Q120.8745 463.2637 120.4058 462.7168 Q119.937 462.1699 119.1401 462.1699 Q118.3433 462.1699 117.8823 462.7168 Q117.4214 463.2637 117.4214 464.2012 Q117.4214 465.1543 117.8823 465.7012 Q118.3433 466.248 119.1401 466.248 ZM124.4155 469.9512 L124.4155 468.873 Q124.8687 469.0918 125.3218 469.2012 Q125.7749 469.3105 126.228 469.3105 Q127.3999 469.3105 128.0171 468.5215 Q128.6343 467.7324 128.7124 466.123 Q128.3843 466.6387 127.8608 466.9043 Q127.3374 467.1699 126.6968 467.1699 Q125.3843 467.1699 124.6187 466.3809 Q123.853 465.5918 123.853 464.2012 Q123.853 462.8574 124.6499 462.0449 Q125.4468 461.2324 126.7749 461.2324 Q128.2905 461.2324 129.0952 462.3965 Q129.8999 463.5605 129.8999 465.7793 Q129.8999 467.8418 128.9155 469.0762 Q127.9312 470.3105 126.2749 470.3105 Q125.8218 470.3105 125.3687 470.2246 Q124.9155 470.1387 124.4155 469.9512 ZM126.7749 466.248 Q127.5718 466.248 128.0405 465.7012 Q128.5093 465.1543 128.5093 464.2012 Q128.5093 463.2637 128.0405 462.7168 Q127.5718 462.1699 126.7749 462.1699 Q125.978 462.1699 125.5171 462.7168 Q125.0562 463.2637 125.0562 464.2012 Q125.0562 465.1543 125.5171 465.7012 Q125.978 466.248 126.7749 466.248 Z"/></g><g style="fill:gray; text-rendering:optimizeLegibility; stroke:gray;"><line y2="455" style="fill:none; clip-path:url(#clipPath1);" x1="115.4683" x2="115.4683" y1="457"/><path style="fill:rgb(64,64,64); clip-path:url(#clipPath1); stroke:none;" d="M145.9254 469.1387 L150.0661 469.1387 L150.0661 470.1387 L144.5036 470.1387 L144.5036 469.1387 Q145.1754 468.4512 146.3395 467.2715 Q147.5036 466.0918 147.8004 465.748 Q148.3786 465.123 148.6051 464.6777 Q148.8317 464.2324 148.8317 463.8105 Q148.8317 463.1074 148.3395 462.6699 Q147.8473 462.2324 147.0661 462.2324 Q146.5036 462.2324 145.8864 462.4199 Q145.2692 462.6074 144.5661 463.0137 L144.5661 461.8105 Q145.2848 461.5293 145.902 461.3809 Q146.5192 461.2324 147.0348 461.2324 Q148.3942 461.2324 149.2067 461.9121 Q150.0192 462.5918 150.0192 463.7324 Q150.0192 464.2637 149.8161 464.748 Q149.6129 465.2324 149.0817 465.8887 Q148.9254 466.0605 148.1442 466.873 Q147.3629 467.6855 145.9254 469.1387 ZM155.0758 462.1699 Q154.1696 462.1699 153.7086 463.0684 Q153.2477 463.9668 153.2477 465.7793 Q153.2477 467.5762 153.7086 468.4746 Q154.1696 469.373 155.0758 469.373 Q155.9977 469.373 156.4586 468.4746 Q156.9196 467.5762 156.9196 465.7793 Q156.9196 463.9668 156.4586 463.0684 Q155.9977 462.1699 155.0758 462.1699 ZM155.0758 461.2324 Q156.5446 461.2324 157.3258 462.3965 Q158.1071 463.5605 158.1071 465.7793 Q158.1071 467.9824 157.3258 469.1465 Q156.5446 470.3105 155.0758 470.3105 Q153.6071 470.3105 152.8336 469.1465 Q152.0602 467.9824 152.0602 465.7793 Q152.0602 463.5605 152.8336 462.3965 Q153.6071 461.2324 155.0758 461.2324 ZM162.7106 462.1699 Q161.8043 462.1699 161.3434 463.0684 Q160.8825 463.9668 160.8825 465.7793 Q160.8825 467.5762 161.3434 468.4746 Q161.8043 469.373 162.7106 469.373 Q163.6325 469.373 164.0934 468.4746 Q164.5543 467.5762 164.5543 465.7793 Q164.5543 463.9668 164.0934 463.0684 Q163.6325 462.1699 162.7106 462.1699 ZM162.7106 461.2324 Q164.1793 461.2324 164.9606 462.3965 Q165.7418 463.5605 165.7418 465.7793 Q165.7418 467.9824 164.9606 469.1465 Q164.1793 470.3105 162.7106 470.3105 Q161.2418 470.3105 160.4684 469.1465 Q159.695 467.9824 159.695 465.7793 Q159.695 463.5605 160.4684 462.3965 Q161.2418 461.2324 162.7106 461.2324 ZM170.3454 462.1699 Q169.4391 462.1699 168.9782 463.0684 Q168.5172 463.9668 168.5172 465.7793 Q168.5172 467.5762 168.9782 468.4746 Q169.4391 469.373 170.3454 469.373 Q171.2672 469.373 171.7282 468.4746 Q172.1891 467.5762 172.1891 465.7793 Q172.1891 463.9668 171.7282 463.0684 Q171.2672 462.1699 170.3454 462.1699 ZM170.3454 461.2324 Q171.8141 461.2324 172.5954 462.3965 Q173.3766 463.5605 173.3766 465.7793 Q173.3766 467.9824 172.5954 469.1465 Q171.8141 470.3105 170.3454 470.3105 Q168.8766 470.3105 168.1032 469.1465 Q167.3297 467.9824 167.3297 465.7793 Q167.3297 463.5605 168.1032 462.3965 Q168.8766 461.2324 170.3454 461.2324 Z"/></g><g style="fill:gray; text-rendering:optimizeLegibility; stroke:gray;"><line y2="455" style="fill:none; clip-path:url(#clipPath1);" x1="158.8981" x2="158.8981" y1="457"/><path style="fill:rgb(64,64,64); clip-path:url(#clipPath1); stroke:none;" d="M189.4742 469.1387 L193.6148 469.1387 L193.6148 470.1387 L188.0523 470.1387 L188.0523 469.1387 Q188.7242 468.4512 189.8883 467.2715 Q191.0523 466.0918 191.3492 465.748 Q191.9273 465.123 192.1539 464.6777 Q192.3805 464.2324 192.3805 463.8105 Q192.3805 463.1074 191.8883 462.6699 Q191.3961 462.2324 190.6148 462.2324 Q190.0523 462.2324 189.4352 462.4199 Q188.818 462.6074 188.1148 463.0137 L188.1148 461.8105 Q188.8336 461.5293 189.4508 461.3809 Q190.068 461.2324 190.5836 461.2324 Q191.943 461.2324 192.7555 461.9121 Q193.568 462.5918 193.568 463.7324 Q193.568 464.2637 193.3648 464.748 Q193.1617 465.2324 192.6305 465.8887 Q192.4742 466.0605 191.693 466.873 Q190.9117 467.6855 189.4742 469.1387 ZM198.6246 462.1699 Q197.7184 462.1699 197.2574 463.0684 Q196.7965 463.9668 196.7965 465.7793 Q196.7965 467.5762 197.2574 468.4746 Q197.7184 469.373 198.6246 469.373 Q199.5465 469.373 200.0074 468.4746 Q200.4684 467.5762 200.4684 465.7793 Q200.4684 463.9668 200.0074 463.0684 Q199.5465 462.1699 198.6246 462.1699 ZM198.6246 461.2324 Q200.0934 461.2324 200.8746 462.3965 Q201.6559 463.5605 201.6559 465.7793 Q201.6559 467.9824 200.8746 469.1465 Q200.0934 470.3105 198.6246 470.3105 Q197.1559 470.3105 196.3824 469.1465 Q195.609 467.9824 195.609 465.7793 Q195.609 463.5605 196.3824 462.3965 Q197.1559 461.2324 198.6246 461.2324 ZM206.2594 462.1699 Q205.3531 462.1699 204.8922 463.0684 Q204.4312 463.9668 204.4312 465.7793 Q204.4312 467.5762 204.8922 468.4746 Q205.3531 469.373 206.2594 469.373 Q207.1812 469.373 207.6422 468.4746 Q208.1031 467.5762 208.1031 465.7793 Q208.1031 463.9668 207.6422 463.0684 Q207.1812 462.1699 206.2594 462.1699 ZM206.2594 461.2324 Q207.7281 461.2324 208.5094 462.3965 Q209.2906 463.5605 209.2906 465.7793 Q209.2906 467.9824 208.5094 469.1465 Q207.7281 470.3105 206.2594 470.3105 Q204.7906 470.3105 204.0172 469.1465 Q203.2437 467.9824 203.2437 465.7793 Q203.2437 463.5605 204.0172 462.3965 Q204.7906 461.2324 206.2594 461.2324 ZM211.566 469.1387 L213.5035 469.1387 L213.5035 462.4668 L211.3941 462.8887 L211.3941 461.8105 L213.4879 461.3887 L214.6754 461.3887 L214.6754 469.1387 L216.6129 469.1387 L216.6129 470.1387 L211.566 470.1387 L211.566 469.1387 Z"/></g><g style="fill:gray; text-rendering:optimizeLegibility; stroke:gray;"><line y2="455" style="fill:none; clip-path:url(#clipPath1);" x1="202.4469" x2="202.4469" y1="457"/><path style="fill:rgb(64,64,64); clip-path:url(#clipPath1); stroke:none;" d="M232.904 469.1387 L237.0446 469.1387 L237.0446 470.1387 L231.4821 470.1387 L231.4821 469.1387 Q232.154 468.4512 233.3181 467.2715 Q234.4821 466.0918 234.779 465.748 Q235.3571 465.123 235.5837 464.6777 Q235.8103 464.2324 235.8103 463.8105 Q235.8103 463.1074 235.3181 462.6699 Q234.8259 462.2324 234.0446 462.2324 Q233.4821 462.2324 232.865 462.4199 Q232.2478 462.6074 231.5446 463.0137 L231.5446 461.8105 Q232.2634 461.5293 232.8806 461.3809 Q233.4978 461.2324 234.0134 461.2324 Q235.3728 461.2324 236.1853 461.9121 Q236.9978 462.5918 236.9978 463.7324 Q236.9978 464.2637 236.7946 464.748 Q236.5915 465.2324 236.0603 465.8887 Q235.904 466.0605 235.1228 466.873 Q234.3415 467.6855 232.904 469.1387 ZM242.0544 462.1699 Q241.1482 462.1699 240.6872 463.0684 Q240.2263 463.9668 240.2263 465.7793 Q240.2263 467.5762 240.6872 468.4746 Q241.1482 469.373 242.0544 469.373 Q242.9763 469.373 243.4372 468.4746 Q243.8982 467.5762 243.8982 465.7793 Q243.8982 463.9668 243.4372 463.0684 Q242.9763 462.1699 242.0544 462.1699 ZM242.0544 461.2324 Q243.5232 461.2324 244.3044 462.3965 Q245.0857 463.5605 245.0857 465.7793 Q245.0857 467.9824 244.3044 469.1465 Q243.5232 470.3105 242.0544 470.3105 Q240.5857 470.3105 239.8122 469.1465 Q239.0388 467.9824 239.0388 465.7793 Q239.0388 463.5605 239.8122 462.3965 Q240.5857 461.2324 242.0544 461.2324 ZM249.6892 462.1699 Q248.7829 462.1699 248.322 463.0684 Q247.8611 463.9668 247.8611 465.7793 Q247.8611 467.5762 248.322 468.4746 Q248.7829 469.373 249.6892 469.373 Q250.6111 469.373 251.072 468.4746 Q251.5329 467.5762 251.5329 465.7793 Q251.5329 463.9668 251.072 463.0684 Q250.6111 462.1699 249.6892 462.1699 ZM249.6892 461.2324 Q251.1579 461.2324 251.9392 462.3965 Q252.7204 463.5605 252.7204 465.7793 Q252.7204 467.9824 251.9392 469.1465 Q251.1579 470.3105 249.6892 470.3105 Q248.2204 470.3105 247.447 469.1465 Q246.6736 467.9824 246.6736 465.7793 Q246.6736 463.5605 247.447 462.3965 Q248.2204 461.2324 249.6892 461.2324 ZM255.8083 469.1387 L259.9489 469.1387 L259.9489 470.1387 L254.3864 470.1387 L254.3864 469.1387 Q255.0583 468.4512 256.2224 467.2715 Q257.3864 466.0918 257.6833 465.748 Q258.2614 465.123 258.488 464.6777 Q258.7146 464.2324 258.7146 463.8105 Q258.7146 463.1074 258.2224 462.6699 Q257.7302 462.2324 256.9489 462.2324 Q256.3864 462.2324 255.7693 462.4199 Q255.1521 462.6074 254.4489 463.0137 L254.4489 461.8105 Q255.1677 461.5293 255.7849 461.3809 Q256.4021 461.2324 256.9177 461.2324 Q258.2771 461.2324 259.0896 461.9121 Q259.9021 462.5918 259.9021 463.7324 Q259.9021 464.2637 259.6989 464.748 Q259.4958 465.2324 258.9646 465.8887 Q258.8083 466.0605 258.0271 466.873 Q257.2458 467.6855 255.8083 469.1387 Z"/></g><g style="fill:gray; text-rendering:optimizeLegibility; stroke:gray;"><line y2="455" style="fill:none; clip-path:url(#clipPath1);" x1="245.8767" x2="245.8767" y1="457"/><path style="fill:rgb(64,64,64); clip-path:url(#clipPath1); stroke:none;" d="M276.3338 469.1387 L280.4745 469.1387 L280.4745 470.1387 L274.912 470.1387 L274.912 469.1387 Q275.5838 468.4512 276.7479 467.2715 Q277.912 466.0918 278.2088 465.748 Q278.787 465.123 279.0135 464.6777 Q279.2401 464.2324 279.2401 463.8105 Q279.2401 463.1074 278.7479 462.6699 Q278.2557 462.2324 277.4745 462.2324 Q276.912 462.2324 276.2948 462.4199 Q275.6776 462.6074 274.9745 463.0137 L274.9745 461.8105 Q275.6932 461.5293 276.3104 461.3809 Q276.9276 461.2324 277.4432 461.2324 Q278.8026 461.2324 279.6151 461.9121 Q280.4276 462.5918 280.4276 463.7324 Q280.4276 464.2637 280.2245 464.748 Q280.0213 465.2324 279.4901 465.8887 Q279.3338 466.0605 278.5526 466.873 Q277.7713 467.6855 276.3338 469.1387 ZM285.4842 462.1699 Q284.578 462.1699 284.117 463.0684 Q283.6561 463.9668 283.6561 465.7793 Q283.6561 467.5762 284.117 468.4746 Q284.578 469.373 285.4842 469.373 Q286.4061 469.373 286.867 468.4746 Q287.328 467.5762 287.328 465.7793 Q287.328 463.9668 286.867 463.0684 Q286.4061 462.1699 285.4842 462.1699 ZM285.4842 461.2324 Q286.953 461.2324 287.7342 462.3965 Q288.5155 463.5605 288.5155 465.7793 Q288.5155 467.9824 287.7342 469.1465 Q286.953 470.3105 285.4842 470.3105 Q284.0155 470.3105 283.242 469.1465 Q282.4686 467.9824 282.4686 465.7793 Q282.4686 463.5605 283.242 462.3965 Q284.0155 461.2324 285.4842 461.2324 ZM293.119 462.1699 Q292.2127 462.1699 291.7518 463.0684 Q291.2909 463.9668 291.2909 465.7793 Q291.2909 467.5762 291.7518 468.4746 Q292.2127 469.373 293.119 469.373 Q294.0409 469.373 294.5018 468.4746 Q294.9627 467.5762 294.9627 465.7793 Q294.9627 463.9668 294.5018 463.0684 Q294.0409 462.1699 293.119 462.1699 ZM293.119 461.2324 Q294.5877 461.2324 295.369 462.3965 Q296.1502 463.5605 296.1502 465.7793 Q296.1502 467.9824 295.369 469.1465 Q294.5877 470.3105 293.119 470.3105 Q291.6502 470.3105 290.8768 469.1465 Q290.1034 467.9824 290.1034 465.7793 Q290.1034 463.5605 290.8768 462.3965 Q291.6502 461.2324 293.119 461.2324 ZM301.8163 465.4199 Q302.66 465.6074 303.1366 466.1777 Q303.6131 466.748 303.6131 467.5918 Q303.6131 468.8887 302.7225 469.5996 Q301.8319 470.3105 300.1913 470.3105 Q299.6444 470.3105 299.0584 470.2012 Q298.4725 470.0918 297.8631 469.873 L297.8631 468.7324 Q298.3475 469.0137 298.9334 469.1621 Q299.5194 469.3105 300.16 469.3105 Q301.2694 469.3105 301.8553 468.873 Q302.4413 468.4355 302.4413 467.5918 Q302.4413 466.8262 301.8944 466.3887 Q301.3475 465.9512 300.3944 465.9512 L299.3631 465.9512 L299.3631 464.9824 L300.4413 464.9824 Q301.3006 464.9824 301.7694 464.6309 Q302.2381 464.2793 302.2381 463.623 Q302.2381 462.9512 301.7616 462.5918 Q301.285 462.2324 300.3944 462.2324 Q299.8944 462.2324 299.3397 462.334 Q298.785 462.4355 298.1131 462.6543 L298.1131 461.6074 Q298.8006 461.4199 299.3866 461.3262 Q299.9725 461.2324 300.4881 461.2324 Q301.8475 461.2324 302.6288 461.8418 Q303.41 462.4512 303.41 463.498 Q303.41 464.2324 302.9959 464.7324 Q302.5819 465.2324 301.8163 465.4199 Z"/></g><g style="fill:gray; text-rendering:optimizeLegibility; stroke:gray;"><line y2="455" style="fill:none; clip-path:url(#clipPath1);" x1="289.3065" x2="289.3065" y1="457"/><path style="fill:rgb(64,64,64); clip-path:url(#clipPath1); stroke:none;" d="M319.7636 469.1387 L323.9043 469.1387 L323.9043 470.1387 L318.3418 470.1387 L318.3418 469.1387 Q319.0136 468.4512 320.1777 467.2715 Q321.3418 466.0918 321.6386 465.748 Q322.2168 465.123 322.4433 464.6777 Q322.6699 464.2324 322.6699 463.8105 Q322.6699 463.1074 322.1777 462.6699 Q321.6855 462.2324 320.9043 462.2324 Q320.3418 462.2324 319.7246 462.4199 Q319.1074 462.6074 318.4043 463.0137 L318.4043 461.8105 Q319.123 461.5293 319.7402 461.3809 Q320.3574 461.2324 320.873 461.2324 Q322.2324 461.2324 323.0449 461.9121 Q323.8574 462.5918 323.8574 463.7324 Q323.8574 464.2637 323.6543 464.748 Q323.4511 465.2324 322.9199 465.8887 Q322.7636 466.0605 321.9824 466.873 Q321.2011 467.6855 319.7636 469.1387 ZM328.914 462.1699 Q328.0078 462.1699 327.5468 463.0684 Q327.0859 463.9668 327.0859 465.7793 Q327.0859 467.5762 327.5468 468.4746 Q328.0078 469.373 328.914 469.373 Q329.8359 469.373 330.2968 468.4746 Q330.7578 467.5762 330.7578 465.7793 Q330.7578 463.9668 330.2968 463.0684 Q329.8359 462.1699 328.914 462.1699 ZM328.914 461.2324 Q330.3828 461.2324 331.164 462.3965 Q331.9453 463.5605 331.9453 465.7793 Q331.9453 467.9824 331.164 469.1465 Q330.3828 470.3105 328.914 470.3105 Q327.4453 470.3105 326.6718 469.1465 Q325.8984 467.9824 325.8984 465.7793 Q325.8984 463.5605 326.6718 462.3965 Q327.4453 461.2324 328.914 461.2324 ZM336.5488 462.1699 Q335.6425 462.1699 335.1816 463.0684 Q334.7207 463.9668 334.7207 465.7793 Q334.7207 467.5762 335.1816 468.4746 Q335.6425 469.373 336.5488 469.373 Q337.4707 469.373 337.9316 468.4746 Q338.3925 467.5762 338.3925 465.7793 Q338.3925 463.9668 337.9316 463.0684 Q337.4707 462.1699 336.5488 462.1699 ZM336.5488 461.2324 Q338.0175 461.2324 338.7988 462.3965 Q339.58 463.5605 339.58 465.7793 Q339.58 467.9824 338.7988 469.1465 Q338.0175 470.3105 336.5488 470.3105 Q335.08 470.3105 334.3066 469.1465 Q333.5332 467.9824 333.5332 465.7793 Q333.5332 463.5605 334.3066 462.3965 Q335.08 461.2324 336.5488 461.2324 ZM344.9023 462.4199 L341.9179 467.0918 L344.9023 467.0918 L344.9023 462.4199 ZM344.5898 461.3887 L346.0898 461.3887 L346.0898 467.0918 L347.3398 467.0918 L347.3398 468.0762 L346.0898 468.0762 L346.0898 470.1387 L344.9023 470.1387 L344.9023 468.0762 L340.9648 468.0762 L340.9648 466.9355 L344.5898 461.3887 Z"/></g><g style="fill:gray; text-rendering:optimizeLegibility; stroke:gray;"><line y2="455" style="fill:none; clip-path:url(#clipPath1);" x1="332.7363" x2="332.7363" y1="457"/><path style="fill:rgb(64,64,64); clip-path:url(#clipPath1); stroke:none;" d="M363.3124 469.1387 L367.4531 469.1387 L367.4531 470.1387 L361.8906 470.1387 L361.8906 469.1387 Q362.5624 468.4512 363.7265 467.2715 Q364.8906 466.0918 365.1874 465.748 Q365.7656 465.123 365.9921 464.6777 Q366.2187 464.2324 366.2187 463.8105 Q366.2187 463.1074 365.7265 462.6699 Q365.2343 462.2324 364.4531 462.2324 Q363.8906 462.2324 363.2734 462.4199 Q362.6562 462.6074 361.9531 463.0137 L361.9531 461.8105 Q362.6718 461.5293 363.289 461.3809 Q363.9062 461.2324 364.4218 461.2324 Q365.7812 461.2324 366.5937 461.9121 Q367.4062 462.5918 367.4062 463.7324 Q367.4062 464.2637 367.2031 464.748 Q366.9999 465.2324 366.4687 465.8887 Q366.3124 466.0605 365.5312 466.873 Q364.7499 467.6855 363.3124 469.1387 ZM372.4628 462.1699 Q371.5566 462.1699 371.0956 463.0684 Q370.6347 463.9668 370.6347 465.7793 Q370.6347 467.5762 371.0956 468.4746 Q371.5566 469.373 372.4628 469.373 Q373.3847 469.373 373.8456 468.4746 Q374.3066 467.5762 374.3066 465.7793 Q374.3066 463.9668 373.8456 463.0684 Q373.3847 462.1699 372.4628 462.1699 ZM372.4628 461.2324 Q373.9316 461.2324 374.7128 462.3965 Q375.4941 463.5605 375.4941 465.7793 Q375.4941 467.9824 374.7128 469.1465 Q373.9316 470.3105 372.4628 470.3105 Q370.9941 470.3105 370.2206 469.1465 Q369.4472 467.9824 369.4472 465.7793 Q369.4472 463.5605 370.2206 462.3965 Q370.9941 461.2324 372.4628 461.2324 ZM380.0976 462.1699 Q379.1913 462.1699 378.7304 463.0684 Q378.2695 463.9668 378.2695 465.7793 Q378.2695 467.5762 378.7304 468.4746 Q379.1913 469.373 380.0976 469.373 Q381.0195 469.373 381.4804 468.4746 Q381.9413 467.5762 381.9413 465.7793 Q381.9413 463.9668 381.4804 463.0684 Q381.0195 462.1699 380.0976 462.1699 ZM380.0976 461.2324 Q381.5663 461.2324 382.3476 462.3965 Q383.1288 463.5605 383.1288 465.7793 Q383.1288 467.9824 382.3476 469.1465 Q381.5663 470.3105 380.0976 470.3105 Q378.6288 470.3105 377.8554 469.1465 Q377.082 467.9824 377.082 465.7793 Q377.082 463.5605 377.8554 462.3965 Q378.6288 461.2324 380.0976 461.2324 ZM385.2167 461.3887 L389.8574 461.3887 L389.8574 462.3887 L386.2949 462.3887 L386.2949 464.5293 Q386.5605 464.4355 386.8183 464.3965 Q387.0761 464.3574 387.3261 464.3574 Q388.7949 464.3574 389.6542 465.1621 Q390.5136 465.9668 390.5136 467.3262 Q390.5136 468.748 389.6308 469.5293 Q388.748 470.3105 387.1542 470.3105 Q386.5917 470.3105 386.0214 470.2168 Q385.4511 470.123 384.8417 469.9355 L384.8417 468.748 Q385.373 469.0293 385.9355 469.1699 Q386.498 469.3105 387.123 469.3105 Q388.1386 469.3105 388.7324 468.7793 Q389.3261 468.248 389.3261 467.3262 Q389.3261 466.4199 388.7324 465.8887 Q388.1386 465.3574 387.123 465.3574 Q386.6542 465.3574 386.1777 465.459 Q385.7011 465.5605 385.2167 465.7793 L385.2167 461.3887 Z"/></g><g style="fill:gray; text-rendering:optimizeLegibility; stroke:gray;"><line y2="455" style="fill:none; clip-path:url(#clipPath1);" x1="376.2851" x2="376.2851" y1="457"/><path style="fill:rgb(64,64,64); clip-path:url(#clipPath1); stroke:none;" d="M406.7422 469.1387 L410.8829 469.1387 L410.8829 470.1387 L405.3204 470.1387 L405.3204 469.1387 Q405.9922 468.4512 407.1563 467.2715 Q408.3204 466.0918 408.6172 465.748 Q409.1954 465.123 409.4219 464.6777 Q409.6485 464.2324 409.6485 463.8105 Q409.6485 463.1074 409.1563 462.6699 Q408.6641 462.2324 407.8829 462.2324 Q407.3204 462.2324 406.7032 462.4199 Q406.086 462.6074 405.3829 463.0137 L405.3829 461.8105 Q406.1016 461.5293 406.7188 461.3809 Q407.336 461.2324 407.8516 461.2324 Q409.211 461.2324 410.0235 461.9121 Q410.836 462.5918 410.836 463.7324 Q410.836 464.2637 410.6329 464.748 Q410.4297 465.2324 409.8985 465.8887 Q409.7422 466.0605 408.961 466.873 Q408.1797 467.6855 406.7422 469.1387 ZM415.8926 462.1699 Q414.9864 462.1699 414.5255 463.0684 Q414.0645 463.9668 414.0645 465.7793 Q414.0645 467.5762 414.5255 468.4746 Q414.9864 469.373 415.8926 469.373 Q416.8145 469.373 417.2755 468.4746 Q417.7364 467.5762 417.7364 465.7793 Q417.7364 463.9668 417.2755 463.0684 Q416.8145 462.1699 415.8926 462.1699 ZM415.8926 461.2324 Q417.3614 461.2324 418.1426 462.3965 Q418.9239 463.5605 418.9239 465.7793 Q418.9239 467.9824 418.1426 469.1465 Q417.3614 470.3105 415.8926 470.3105 Q414.4239 470.3105 413.6505 469.1465 Q412.877 467.9824 412.877 465.7793 Q412.877 463.5605 413.6505 462.3965 Q414.4239 461.2324 415.8926 461.2324 ZM423.5274 462.1699 Q422.6212 462.1699 422.1602 463.0684 Q421.6993 463.9668 421.6993 465.7793 Q421.6993 467.5762 422.1602 468.4746 Q422.6212 469.373 423.5274 469.373 Q424.4493 469.373 424.9102 468.4746 Q425.3712 467.5762 425.3712 465.7793 Q425.3712 463.9668 424.9102 463.0684 Q424.4493 462.1699 423.5274 462.1699 ZM423.5274 461.2324 Q424.9962 461.2324 425.7774 462.3965 Q426.5587 463.5605 426.5587 465.7793 Q426.5587 467.9824 425.7774 469.1465 Q424.9962 470.3105 423.5274 470.3105 Q422.0587 470.3105 421.2852 469.1465 Q420.5118 467.9824 420.5118 465.7793 Q420.5118 463.5605 421.2852 462.3965 Q422.0587 461.2324 423.5274 461.2324 ZM431.3184 465.2949 Q430.5215 465.2949 430.0528 465.8418 Q429.584 466.3887 429.584 467.3262 Q429.584 468.2793 430.0528 468.8262 Q430.5215 469.373 431.3184 469.373 Q432.1153 469.373 432.5762 468.8262 Q433.0372 468.2793 433.0372 467.3262 Q433.0372 466.3887 432.5762 465.8418 Q432.1153 465.2949 431.3184 465.2949 ZM433.6622 461.5762 L433.6622 462.6543 Q433.209 462.4512 432.7559 462.3418 Q432.3028 462.2324 431.8653 462.2324 Q430.6934 462.2324 430.0762 463.0215 Q429.459 463.8105 429.3653 465.4043 Q429.709 464.9043 430.2325 464.6309 Q430.7559 464.3574 431.3809 464.3574 Q432.6934 464.3574 433.459 465.1543 Q434.2247 465.9512 434.2247 467.3262 Q434.2247 468.6855 433.4278 469.498 Q432.6309 470.3105 431.3184 470.3105 Q429.7872 470.3105 428.9903 469.1465 Q428.1934 467.9824 428.1934 465.7793 Q428.1934 463.7012 429.1778 462.4668 Q430.1622 461.2324 431.8184 461.2324 Q432.2559 461.2324 432.709 461.3184 Q433.1622 461.4043 433.6622 461.5762 Z"/></g><g style="fill:gray; text-rendering:optimizeLegibility; stroke:gray;"><line y2="455" style="fill:none; clip-path:url(#clipPath1);" x1="419.7149" x2="419.7149" y1="457"/><path style="fill:rgb(64,64,64); clip-path:url(#clipPath1); stroke:none;" d="M450.1721 469.1387 L454.3127 469.1387 L454.3127 470.1387 L448.7502 470.1387 L448.7502 469.1387 Q449.4221 468.4512 450.5861 467.2715 Q451.7502 466.0918 452.0471 465.748 Q452.6252 465.123 452.8517 464.6777 Q453.0783 464.2324 453.0783 463.8105 Q453.0783 463.1074 452.5861 462.6699 Q452.0939 462.2324 451.3127 462.2324 Q450.7502 462.2324 450.133 462.4199 Q449.5158 462.6074 448.8127 463.0137 L448.8127 461.8105 Q449.5314 461.5293 450.1486 461.3809 Q450.7658 461.2324 451.2814 461.2324 Q452.6408 461.2324 453.4533 461.9121 Q454.2658 462.5918 454.2658 463.7324 Q454.2658 464.2637 454.0627 464.748 Q453.8596 465.2324 453.3283 465.8887 Q453.1721 466.0605 452.3908 466.873 Q451.6096 467.6855 450.1721 469.1387 ZM459.3224 462.1699 Q458.4162 462.1699 457.9553 463.0684 Q457.4943 463.9668 457.4943 465.7793 Q457.4943 467.5762 457.9553 468.4746 Q458.4162 469.373 459.3224 469.373 Q460.2443 469.373 460.7053 468.4746 Q461.1662 467.5762 461.1662 465.7793 Q461.1662 463.9668 460.7053 463.0684 Q460.2443 462.1699 459.3224 462.1699 ZM459.3224 461.2324 Q460.7912 461.2324 461.5724 462.3965 Q462.3537 463.5605 462.3537 465.7793 Q462.3537 467.9824 461.5724 469.1465 Q460.7912 470.3105 459.3224 470.3105 Q457.8537 470.3105 457.0803 469.1465 Q456.3068 467.9824 456.3068 465.7793 Q456.3068 463.5605 457.0803 462.3965 Q457.8537 461.2324 459.3224 461.2324 ZM466.9572 462.1699 Q466.051 462.1699 465.59 463.0684 Q465.1291 463.9668 465.1291 465.7793 Q465.1291 467.5762 465.59 468.4746 Q466.051 469.373 466.9572 469.373 Q467.8791 469.373 468.34 468.4746 Q468.801 467.5762 468.801 465.7793 Q468.801 463.9668 468.34 463.0684 Q467.8791 462.1699 466.9572 462.1699 ZM466.9572 461.2324 Q468.426 461.2324 469.2072 462.3965 Q469.9885 463.5605 469.9885 465.7793 Q469.9885 467.9824 469.2072 469.1465 Q468.426 470.3105 466.9572 470.3105 Q465.4885 470.3105 464.715 469.1465 Q463.9416 467.9824 463.9416 465.7793 Q463.9416 463.5605 464.715 462.3965 Q465.4885 461.2324 466.9572 461.2324 ZM471.7639 461.3887 L477.3889 461.3887 L477.3889 461.8887 L474.217 470.1387 L472.9826 470.1387 L475.967 462.3887 L471.7639 462.3887 L471.7639 461.3887 Z"/></g><g style="fill:gray; text-rendering:optimizeLegibility; stroke:gray;"><line y2="455" style="fill:none; clip-path:url(#clipPath1);" x1="463.1447" x2="463.1447" y1="457"/><path style="fill:rgb(64,64,64); clip-path:url(#clipPath1); stroke:none;" d="M493.6019 469.1387 L497.7425 469.1387 L497.7425 470.1387 L492.18 470.1387 L492.18 469.1387 Q492.8519 468.4512 494.0159 467.2715 Q495.18 466.0918 495.4769 465.748 Q496.055 465.123 496.2816 464.6777 Q496.5081 464.2324 496.5081 463.8105 Q496.5081 463.1074 496.0159 462.6699 Q495.5237 462.2324 494.7425 462.2324 Q494.18 462.2324 493.5628 462.4199 Q492.9456 462.6074 492.2425 463.0137 L492.2425 461.8105 Q492.9612 461.5293 493.5784 461.3809 Q494.1956 461.2324 494.7112 461.2324 Q496.0706 461.2324 496.8831 461.9121 Q497.6956 462.5918 497.6956 463.7324 Q497.6956 464.2637 497.4925 464.748 Q497.2894 465.2324 496.7581 465.8887 Q496.6019 466.0605 495.8206 466.873 Q495.0394 467.6855 493.6019 469.1387 ZM502.7523 462.1699 Q501.846 462.1699 501.3851 463.0684 Q500.9241 463.9668 500.9241 465.7793 Q500.9241 467.5762 501.3851 468.4746 Q501.846 469.373 502.7523 469.373 Q503.6741 469.373 504.1351 468.4746 Q504.596 467.5762 504.596 465.7793 Q504.596 463.9668 504.1351 463.0684 Q503.6741 462.1699 502.7523 462.1699 ZM502.7523 461.2324 Q504.221 461.2324 505.0023 462.3965 Q505.7835 463.5605 505.7835 465.7793 Q505.7835 467.9824 505.0023 469.1465 Q504.221 470.3105 502.7523 470.3105 Q501.2835 470.3105 500.5101 469.1465 Q499.7366 467.9824 499.7366 465.7793 Q499.7366 463.5605 500.5101 462.3965 Q501.2835 461.2324 502.7523 461.2324 ZM510.387 462.1699 Q509.4808 462.1699 509.0198 463.0684 Q508.5589 463.9668 508.5589 465.7793 Q508.5589 467.5762 509.0198 468.4746 Q509.4808 469.373 510.387 469.373 Q511.3089 469.373 511.7698 468.4746 Q512.2308 467.5762 512.2308 465.7793 Q512.2308 463.9668 511.7698 463.0684 Q511.3089 462.1699 510.387 462.1699 ZM510.387 461.2324 Q511.8558 461.2324 512.637 462.3965 Q513.4183 463.5605 513.4183 465.7793 Q513.4183 467.9824 512.637 469.1465 Q511.8558 470.3105 510.387 470.3105 Q508.9183 470.3105 508.1448 469.1465 Q507.3714 467.9824 507.3714 465.7793 Q507.3714 463.5605 508.1448 462.3965 Q508.9183 461.2324 510.387 461.2324 ZM518.0218 465.9824 Q517.178 465.9824 516.6937 466.4355 Q516.2093 466.8887 516.2093 467.6699 Q516.2093 468.4668 516.6937 468.9199 Q517.178 469.373 518.0218 469.373 Q518.8655 469.373 519.3499 468.9199 Q519.8343 468.4668 519.8343 467.6699 Q519.8343 466.8887 519.3577 466.4355 Q518.8812 465.9824 518.0218 465.9824 ZM516.8343 465.4824 Q516.0843 465.2949 515.6546 464.7715 Q515.2249 464.248 515.2249 463.498 Q515.2249 462.4512 515.9749 461.8418 Q516.7249 461.2324 518.0218 461.2324 Q519.3343 461.2324 520.0765 461.8418 Q520.8187 462.4512 520.8187 463.498 Q520.8187 464.248 520.3968 464.7715 Q519.9749 465.2949 519.2093 465.4824 Q520.0687 465.6855 520.5452 466.2637 Q521.0218 466.8418 521.0218 467.6699 Q521.0218 468.9512 520.2484 469.6309 Q519.4749 470.3105 518.0218 470.3105 Q516.5843 470.3105 515.803 469.6309 Q515.0218 468.9512 515.0218 467.6699 Q515.0218 466.8418 515.5062 466.2637 Q515.9905 465.6855 516.8343 465.4824 ZM516.4124 463.6074 Q516.4124 464.2949 516.8343 464.6699 Q517.2562 465.0449 518.0218 465.0449 Q518.7874 465.0449 519.2171 464.6699 Q519.6468 464.2949 519.6468 463.6074 Q519.6468 462.9355 519.2171 462.5527 Q518.7874 462.1699 518.0218 462.1699 Q517.2562 462.1699 516.8343 462.5527 Q516.4124 462.9355 516.4124 463.6074 Z"/></g><g style="fill:gray; text-rendering:optimizeLegibility; stroke:gray;"><line y2="455" style="fill:none; clip-path:url(#clipPath1);" x1="506.5745" x2="506.5745" y1="457"/><path style="fill:rgb(64,64,64); clip-path:url(#clipPath1); stroke:none;" d="M537.1506 469.1387 L541.2913 469.1387 L541.2913 470.1387 L535.7288 470.1387 L535.7288 469.1387 Q536.4006 468.4512 537.5647 467.2715 Q538.7288 466.0918 539.0256 465.748 Q539.6038 465.123 539.8303 464.6777 Q540.0569 464.2324 540.0569 463.8105 Q540.0569 463.1074 539.5647 462.6699 Q539.0725 462.2324 538.2913 462.2324 Q537.7288 462.2324 537.1116 462.4199 Q536.4944 462.6074 535.7913 463.0137 L535.7913 461.8105 Q536.51 461.5293 537.1272 461.3809 Q537.7444 461.2324 538.26 461.2324 Q539.6194 461.2324 540.4319 461.9121 Q541.2444 462.5918 541.2444 463.7324 Q541.2444 464.2637 541.0413 464.748 Q540.8381 465.2324 540.3069 465.8887 Q540.1506 466.0605 539.3694 466.873 Q538.5881 467.6855 537.1506 469.1387 ZM546.301 462.1699 Q545.3948 462.1699 544.9338 463.0684 Q544.4729 463.9668 544.4729 465.7793 Q544.4729 467.5762 544.9338 468.4746 Q545.3948 469.373 546.301 469.373 Q547.2229 469.373 547.6838 468.4746 Q548.1448 467.5762 548.1448 465.7793 Q548.1448 463.9668 547.6838 463.0684 Q547.2229 462.1699 546.301 462.1699 ZM546.301 461.2324 Q547.7698 461.2324 548.551 462.3965 Q549.3323 463.5605 549.3323 465.7793 Q549.3323 467.9824 548.551 469.1465 Q547.7698 470.3105 546.301 470.3105 Q544.8323 470.3105 544.0588 469.1465 Q543.2854 467.9824 543.2854 465.7793 Q543.2854 463.5605 544.0588 462.3965 Q544.8323 461.2324 546.301 461.2324 ZM553.9358 462.1699 Q553.0295 462.1699 552.5686 463.0684 Q552.1077 463.9668 552.1077 465.7793 Q552.1077 467.5762 552.5686 468.4746 Q553.0295 469.373 553.9358 469.373 Q554.8577 469.373 555.3186 468.4746 Q555.7795 467.5762 555.7795 465.7793 Q555.7795 463.9668 555.3186 463.0684 Q554.8577 462.1699 553.9358 462.1699 ZM553.9358 461.2324 Q555.4045 461.2324 556.1858 462.3965 Q556.967 463.5605 556.967 465.7793 Q556.967 467.9824 556.1858 469.1465 Q555.4045 470.3105 553.9358 470.3105 Q552.467 470.3105 551.6936 469.1465 Q550.9202 467.9824 550.9202 465.7793 Q550.9202 463.5605 551.6936 462.3965 Q552.467 461.2324 553.9358 461.2324 ZM559.0706 469.9512 L559.0706 468.873 Q559.5237 469.0918 559.9768 469.2012 Q560.4299 469.3105 560.8831 469.3105 Q562.0549 469.3105 562.6721 468.5215 Q563.2893 467.7324 563.3674 466.123 Q563.0393 466.6387 562.5159 466.9043 Q561.9924 467.1699 561.3518 467.1699 Q560.0393 467.1699 559.2737 466.3809 Q558.5081 465.5918 558.5081 464.2012 Q558.5081 462.8574 559.3049 462.0449 Q560.1018 461.2324 561.4299 461.2324 Q562.9456 461.2324 563.7502 462.3965 Q564.5549 463.5605 564.5549 465.7793 Q564.5549 467.8418 563.5706 469.0762 Q562.5862 470.3105 560.9299 470.3105 Q560.4768 470.3105 560.0237 470.2246 Q559.5706 470.1387 559.0706 469.9512 ZM561.4299 466.248 Q562.2268 466.248 562.6956 465.7012 Q563.1643 465.1543 563.1643 464.2012 Q563.1643 463.2637 562.6956 462.7168 Q562.2268 462.1699 561.4299 462.1699 Q560.6331 462.1699 560.1721 462.7168 Q559.7112 463.2637 559.7112 464.2012 Q559.7112 465.1543 560.1721 465.7012 Q560.6331 466.248 561.4299 466.248 Z"/></g><g style="fill:gray; text-rendering:optimizeLegibility; stroke:gray;"><line y2="455" style="fill:none; clip-path:url(#clipPath1);" x1="550.1233" x2="550.1233" y1="457"/><path style="fill:rgb(64,64,64); clip-path:url(#clipPath1); stroke:none;" d="M580.5804 469.1387 L584.7211 469.1387 L584.7211 470.1387 L579.1586 470.1387 L579.1586 469.1387 Q579.8304 468.4512 580.9945 467.2715 Q582.1586 466.0918 582.4554 465.748 Q583.0336 465.123 583.2601 464.6777 Q583.4867 464.2324 583.4867 463.8105 Q583.4867 463.1074 582.9945 462.6699 Q582.5023 462.2324 581.7211 462.2324 Q581.1586 462.2324 580.5414 462.4199 Q579.9242 462.6074 579.2211 463.0137 L579.2211 461.8105 Q579.9398 461.5293 580.557 461.3809 Q581.1742 461.2324 581.6898 461.2324 Q583.0492 461.2324 583.8617 461.9121 Q584.6742 462.5918 584.6742 463.7324 Q584.6742 464.2637 584.4711 464.748 Q584.2679 465.2324 583.7367 465.8887 Q583.5804 466.0605 582.7992 466.873 Q582.0179 467.6855 580.5804 469.1387 ZM589.7308 462.1699 Q588.8246 462.1699 588.3636 463.0684 Q587.9027 463.9668 587.9027 465.7793 Q587.9027 467.5762 588.3636 468.4746 Q588.8246 469.373 589.7308 469.373 Q590.6527 469.373 591.1136 468.4746 Q591.5746 467.5762 591.5746 465.7793 Q591.5746 463.9668 591.1136 463.0684 Q590.6527 462.1699 589.7308 462.1699 ZM589.7308 461.2324 Q591.1996 461.2324 591.9808 462.3965 Q592.7621 463.5605 592.7621 465.7793 Q592.7621 467.9824 591.9808 469.1465 Q591.1996 470.3105 589.7308 470.3105 Q588.2621 470.3105 587.4886 469.1465 Q586.7152 467.9824 586.7152 465.7793 Q586.7152 463.5605 587.4886 462.3965 Q588.2621 461.2324 589.7308 461.2324 ZM595.0375 469.1387 L596.975 469.1387 L596.975 462.4668 L594.8656 462.8887 L594.8656 461.8105 L596.9594 461.3887 L598.1469 461.3887 L598.1469 469.1387 L600.0844 469.1387 L600.0844 470.1387 L595.0375 470.1387 L595.0375 469.1387 ZM605.0004 462.1699 Q604.0941 462.1699 603.6332 463.0684 Q603.1722 463.9668 603.1722 465.7793 Q603.1722 467.5762 603.6332 468.4746 Q604.0941 469.373 605.0004 469.373 Q605.9222 469.373 606.3832 468.4746 Q606.8441 467.5762 606.8441 465.7793 Q606.8441 463.9668 606.3832 463.0684 Q605.9222 462.1699 605.0004 462.1699 ZM605.0004 461.2324 Q606.4691 461.2324 607.2504 462.3965 Q608.0316 463.5605 608.0316 465.7793 Q608.0316 467.9824 607.2504 469.1465 Q606.4691 470.3105 605.0004 470.3105 Q603.5316 470.3105 602.7582 469.1465 Q601.9847 467.9824 601.9847 465.7793 Q601.9847 463.5605 602.7582 462.3965 Q603.5316 461.2324 605.0004 461.2324 Z"/></g><g style="fill:gray; text-rendering:optimizeLegibility; stroke:gray;"><line y2="455" style="fill:none; clip-path:url(#clipPath1);" x1="593.5531" x2="593.5531" y1="457"/><path style="fill:rgb(64,64,64); clip-path:url(#clipPath1); stroke:none;" d="M624.0103 469.1387 L628.1509 469.1387 L628.1509 470.1387 L622.5884 470.1387 L622.5884 469.1387 Q623.2603 468.4512 624.4243 467.2715 Q625.5884 466.0918 625.8853 465.748 Q626.4634 465.123 626.6899 464.6777 Q626.9165 464.2324 626.9165 463.8105 Q626.9165 463.1074 626.4243 462.6699 Q625.9321 462.2324 625.1509 462.2324 Q624.5884 462.2324 623.9712 462.4199 Q623.354 462.6074 622.6509 463.0137 L622.6509 461.8105 Q623.3696 461.5293 623.9868 461.3809 Q624.604 461.2324 625.1196 461.2324 Q626.479 461.2324 627.2915 461.9121 Q628.104 462.5918 628.104 463.7324 Q628.104 464.2637 627.9009 464.748 Q627.6978 465.2324 627.1665 465.8887 Q627.0103 466.0605 626.229 466.873 Q625.4478 467.6855 624.0103 469.1387 ZM633.1606 462.1699 Q632.2544 462.1699 631.7935 463.0684 Q631.3325 463.9668 631.3325 465.7793 Q631.3325 467.5762 631.7935 468.4746 Q632.2544 469.373 633.1606 469.373 Q634.0825 469.373 634.5435 468.4746 Q635.0044 467.5762 635.0044 465.7793 Q635.0044 463.9668 634.5435 463.0684 Q634.0825 462.1699 633.1606 462.1699 ZM633.1606 461.2324 Q634.6294 461.2324 635.4106 462.3965 Q636.1919 463.5605 636.1919 465.7793 Q636.1919 467.9824 635.4106 469.1465 Q634.6294 470.3105 633.1606 470.3105 Q631.6919 470.3105 630.9185 469.1465 Q630.145 467.9824 630.145 465.7793 Q630.145 463.5605 630.9185 462.3965 Q631.6919 461.2324 633.1606 461.2324 ZM638.4673 469.1387 L640.4048 469.1387 L640.4048 462.4668 L638.2954 462.8887 L638.2954 461.8105 L640.3892 461.3887 L641.5767 461.3887 L641.5767 469.1387 L643.5142 469.1387 L643.5142 470.1387 L638.4673 470.1387 L638.4673 469.1387 ZM646.1021 469.1387 L648.0396 469.1387 L648.0396 462.4668 L645.9302 462.8887 L645.9302 461.8105 L648.0239 461.3887 L649.2114 461.3887 L649.2114 469.1387 L651.1489 469.1387 L651.1489 470.1387 L646.1021 470.1387 L646.1021 469.1387 Z"/></g><g style="fill:gray; text-rendering:optimizeLegibility; stroke:gray;"><line y2="455" style="fill:none; clip-path:url(#clipPath1);" x1="636.9829" x2="636.9829" y1="457"/><path style="fill:rgb(64,64,64); clip-path:url(#clipPath1); stroke:none;" d="M667.4401 469.1387 L671.5807 469.1387 L671.5807 470.1387 L666.0182 470.1387 L666.0182 469.1387 Q666.6901 468.4512 667.8541 467.2715 Q669.0182 466.0918 669.3151 465.748 Q669.8932 465.123 670.1198 464.6777 Q670.3463 464.2324 670.3463 463.8105 Q670.3463 463.1074 669.8541 462.6699 Q669.3619 462.2324 668.5807 462.2324 Q668.0182 462.2324 667.401 462.4199 Q666.7838 462.6074 666.0807 463.0137 L666.0807 461.8105 Q666.7994 461.5293 667.4166 461.3809 Q668.0338 461.2324 668.5494 461.2324 Q669.9088 461.2324 670.7213 461.9121 Q671.5338 462.5918 671.5338 463.7324 Q671.5338 464.2637 671.3307 464.748 Q671.1276 465.2324 670.5963 465.8887 Q670.4401 466.0605 669.6588 466.873 Q668.8776 467.6855 667.4401 469.1387 ZM676.5905 462.1699 Q675.6842 462.1699 675.2233 463.0684 Q674.7623 463.9668 674.7623 465.7793 Q674.7623 467.5762 675.2233 468.4746 Q675.6842 469.373 676.5905 469.373 Q677.5123 469.373 677.9733 468.4746 Q678.4342 467.5762 678.4342 465.7793 Q678.4342 463.9668 677.9733 463.0684 Q677.5123 462.1699 676.5905 462.1699 ZM676.5905 461.2324 Q678.0592 461.2324 678.8405 462.3965 Q679.6217 463.5605 679.6217 465.7793 Q679.6217 467.9824 678.8405 469.1465 Q678.0592 470.3105 676.5905 470.3105 Q675.1217 470.3105 674.3483 469.1465 Q673.5748 467.9824 673.5748 465.7793 Q673.5748 463.5605 674.3483 462.3965 Q675.1217 461.2324 676.5905 461.2324 ZM681.8971 469.1387 L683.8346 469.1387 L683.8346 462.4668 L681.7252 462.8887 L681.7252 461.8105 L683.819 461.3887 L685.0065 461.3887 L685.0065 469.1387 L686.944 469.1387 L686.944 470.1387 L681.8971 470.1387 L681.8971 469.1387 ZM690.3444 469.1387 L694.485 469.1387 L694.485 470.1387 L688.9225 470.1387 L688.9225 469.1387 Q689.5944 468.4512 690.7584 467.2715 Q691.9225 466.0918 692.2194 465.748 Q692.7975 465.123 693.024 464.6777 Q693.2506 464.2324 693.2506 463.8105 Q693.2506 463.1074 692.7584 462.6699 Q692.2662 462.2324 691.485 462.2324 Q690.9225 462.2324 690.3053 462.4199 Q689.6881 462.6074 688.985 463.0137 L688.985 461.8105 Q689.7037 461.5293 690.3209 461.3809 Q690.9381 461.2324 691.4537 461.2324 Q692.8131 461.2324 693.6256 461.9121 Q694.4381 462.5918 694.4381 463.7324 Q694.4381 464.2637 694.235 464.748 Q694.0319 465.2324 693.5006 465.8887 Q693.3444 466.0605 692.5631 466.873 Q691.7819 467.6855 690.3444 469.1387 Z"/></g><g style="fill:gray; text-rendering:optimizeLegibility; stroke:gray;"><line y2="455" style="fill:none; clip-path:url(#clipPath1);" x1="680.4127" x2="680.4127" y1="457"/><path style="fill:rgb(64,64,64); clip-path:url(#clipPath1); stroke:none;" d="M710.9889 469.1387 L715.1295 469.1387 L715.1295 470.1387 L709.567 470.1387 L709.567 469.1387 Q710.2389 468.4512 711.403 467.2715 Q712.567 466.0918 712.8639 465.748 Q713.442 465.123 713.6686 464.6777 Q713.8951 464.2324 713.8951 463.8105 Q713.8951 463.1074 713.403 462.6699 Q712.9108 462.2324 712.1295 462.2324 Q711.567 462.2324 710.9498 462.4199 Q710.3326 462.6074 709.6295 463.0137 L709.6295 461.8105 Q710.3483 461.5293 710.9655 461.3809 Q711.5826 461.2324 712.0983 461.2324 Q713.4576 461.2324 714.2701 461.9121 Q715.0826 462.5918 715.0826 463.7324 Q715.0826 464.2637 714.8795 464.748 Q714.6764 465.2324 714.1451 465.8887 Q713.9889 466.0605 713.2076 466.873 Q712.4264 467.6855 710.9889 469.1387 ZM720.1393 462.1699 Q719.233 462.1699 718.7721 463.0684 Q718.3112 463.9668 718.3112 465.7793 Q718.3112 467.5762 718.7721 468.4746 Q719.233 469.373 720.1393 469.373 Q721.0612 469.373 721.5221 468.4746 Q721.983 467.5762 721.983 465.7793 Q721.983 463.9668 721.5221 463.0684 Q721.0612 462.1699 720.1393 462.1699 ZM720.1393 461.2324 Q721.608 461.2324 722.3893 462.3965 Q723.1705 463.5605 723.1705 465.7793 Q723.1705 467.9824 722.3893 469.1465 Q721.608 470.3105 720.1393 470.3105 Q718.6705 470.3105 717.8971 469.1465 Q717.1237 467.9824 717.1237 465.7793 Q717.1237 463.5605 717.8971 462.3965 Q718.6705 461.2324 720.1393 461.2324 ZM725.4459 469.1387 L727.3834 469.1387 L727.3834 462.4668 L725.274 462.8887 L725.274 461.8105 L727.3678 461.3887 L728.5553 461.3887 L728.5553 469.1387 L730.4928 469.1387 L730.4928 470.1387 L725.4459 470.1387 L725.4459 469.1387 ZM736.4713 465.4199 Q737.3151 465.6074 737.7916 466.1777 Q738.2682 466.748 738.2682 467.5918 Q738.2682 468.8887 737.3776 469.5996 Q736.4869 470.3105 734.8463 470.3105 Q734.2994 470.3105 733.7135 470.2012 Q733.1276 470.0918 732.5182 469.873 L732.5182 468.7324 Q733.0026 469.0137 733.5885 469.1621 Q734.1744 469.3105 734.8151 469.3105 Q735.9244 469.3105 736.5104 468.873 Q737.0963 468.4355 737.0963 467.5918 Q737.0963 466.8262 736.5494 466.3887 Q736.0026 465.9512 735.0494 465.9512 L734.0182 465.9512 L734.0182 464.9824 L735.0963 464.9824 Q735.9557 464.9824 736.4244 464.6309 Q736.8932 464.2793 736.8932 463.623 Q736.8932 462.9512 736.4166 462.5918 Q735.9401 462.2324 735.0494 462.2324 Q734.5494 462.2324 733.9948 462.334 Q733.4401 462.4355 732.7682 462.6543 L732.7682 461.6074 Q733.4557 461.4199 734.0416 461.3262 Q734.6276 461.2324 735.1432 461.2324 Q736.5026 461.2324 737.2838 461.8418 Q738.0651 462.4512 738.0651 463.498 Q738.0651 464.2324 737.651 464.7324 Q737.2369 465.2324 736.4713 465.4199 Z"/></g><g style="fill:gray; text-rendering:optimizeLegibility; stroke:gray;"><line y2="455" style="fill:none; clip-path:url(#clipPath1);" x1="723.9615" x2="723.9615" y1="457"/></g><g style="fill:rgb(64,64,64); text-rendering:optimizeLegibility; font-size:14; font-weight:bold; stroke:rgb(64,64,64);"><path style="clip-path:url(#clipPath1); stroke:none;" d="M379.8672 478.7607 L382.7422 478.7607 L385.0703 482.4014 L387.3984 478.7607 L390.2891 478.7607 L386.3984 484.667 L386.3984 488.9639 L383.7578 488.9639 L383.7578 484.667 L379.8672 478.7607 ZM398.958 485.1201 L398.958 485.8076 L393.2393 485.8076 Q393.333 486.667 393.8643 487.1045 Q394.3955 487.542 395.3486 487.542 Q396.1299 487.542 396.9424 487.3076 Q397.7549 487.0732 398.5986 486.6045 L398.5986 488.4951 Q397.7393 488.8232 396.8721 488.9951 Q396.0049 489.167 395.1299 489.167 Q393.0518 489.167 391.9033 488.1045 Q390.7549 487.042 390.7549 485.1357 Q390.7549 483.2764 391.8799 482.1982 Q393.0049 481.1201 394.9893 481.1201 Q396.8018 481.1201 397.8799 482.2061 Q398.958 483.292 398.958 485.1201 ZM396.4424 484.3076 Q396.4424 483.6045 396.0361 483.1748 Q395.6299 482.7451 394.9736 482.7451 Q394.2705 482.7451 393.8252 483.1436 Q393.3799 483.542 393.2705 484.3076 L396.4424 484.3076 ZM404.25 485.5107 Q403.4844 485.5107 403.0938 485.7764 Q402.7031 486.042 402.7031 486.542 Q402.7031 487.0107 403.0156 487.2764 Q403.3281 487.542 403.8906 487.542 Q404.5781 487.542 405.0469 487.042 Q405.5156 486.542 405.5156 485.792 L405.5156 485.5107 L404.25 485.5107 ZM407.9844 484.5889 L407.9844 488.9639 L405.5156 488.9639 L405.5156 487.8232 Q405.0312 488.5264 404.4141 488.8467 Q403.7969 489.167 402.9219 489.167 Q401.7188 489.167 400.9844 488.4717 Q400.25 487.7764 400.25 486.667 Q400.25 485.3232 401.1719 484.6904 Q402.0938 484.0576 404.0781 484.0576 L405.5156 484.0576 L405.5156 483.8701 Q405.5156 483.292 405.0625 483.0186 Q404.6094 482.7451 403.6406 482.7451 Q402.8438 482.7451 402.1719 482.9014 Q401.5 483.0576 400.9062 483.3857 L400.9062 481.5107 Q401.7031 481.3232 402.4922 481.2217 Q403.2812 481.1201 404.0781 481.1201 Q406.1562 481.1201 407.0703 481.9404 Q407.9844 482.7607 407.9844 484.5889 ZM415.9473 483.3857 Q415.6348 483.2451 415.3145 483.1748 Q414.9941 483.1045 414.666 483.1045 Q413.7285 483.1045 413.2207 483.7061 Q412.7129 484.3076 412.7129 485.4326 L412.7129 488.9639 L410.2598 488.9639 L410.2598 481.3076 L412.7129 481.3076 L412.7129 482.5576 Q413.1816 481.8076 413.791 481.4639 Q414.4004 481.1201 415.2598 481.1201 Q415.3848 481.1201 415.5254 481.1279 Q415.666 481.1357 415.9473 481.1826 L415.9473 483.3857 Z"/></g><g style="fill:gray; text-rendering:optimizeLegibility; font-size:14; font-weight:bold; stroke:gray;"><line y2="450" style="fill:none; clip-path:url(#clipPath1);" x1="54" x2="54" y1="35"/></g><g style="fill:rgb(64,64,64); text-rendering:optimizeLegibility; stroke:rgb(64,64,64);"><path style="clip-path:url(#clipPath1); stroke:none;" d="M44.1777 446.1855 Q43.2715 446.1855 42.8105 447.084 Q42.3496 447.9824 42.3496 449.7949 Q42.3496 451.5918 42.8105 452.4902 Q43.2715 453.3887 44.1777 453.3887 Q45.0996 453.3887 45.5605 452.4902 Q46.0215 451.5918 46.0215 449.7949 Q46.0215 447.9824 45.5605 447.084 Q45.0996 446.1855 44.1777 446.1855 ZM44.1777 445.248 Q45.6465 445.248 46.4277 446.4121 Q47.209 447.5762 47.209 449.7949 Q47.209 451.998 46.4277 453.1621 Q45.6465 454.3262 44.1777 454.3262 Q42.709 454.3262 41.9355 453.1621 Q41.1621 451.998 41.1621 449.7949 Q41.1621 447.5762 41.9355 446.4121 Q42.709 445.248 44.1777 445.248 Z"/></g><g style="fill:gray; text-rendering:optimizeLegibility; stroke:gray;"><line y2="450" style="fill:none; clip-path:url(#clipPath1);" x1="52" x2="54" y1="450"/><path style="fill:rgb(64,64,64); clip-path:url(#clipPath1); stroke:none;" d="M42.6621 425.8965 L46.8027 425.8965 L46.8027 426.8965 L41.2402 426.8965 L41.2402 425.8965 Q41.9121 425.209 43.0762 424.0293 Q44.2402 422.8496 44.5371 422.5059 Q45.1152 421.8809 45.3418 421.4355 Q45.5684 420.9902 45.5684 420.5684 Q45.5684 419.8652 45.0762 419.4277 Q44.584 418.9902 43.8027 418.9902 Q43.2402 418.9902 42.623 419.1777 Q42.0059 419.3652 41.3027 419.7715 L41.3027 418.5684 Q42.0215 418.2871 42.6387 418.1387 Q43.2559 417.9902 43.7715 417.9902 Q45.1309 417.9902 45.9434 418.6699 Q46.7559 419.3496 46.7559 420.4902 Q46.7559 421.0215 46.5527 421.5059 Q46.3496 421.9902 45.8184 422.6465 Q45.6621 422.8184 44.8809 423.6309 Q44.0996 424.4434 42.6621 425.8965 Z"/></g><g style="fill:gray; text-rendering:optimizeLegibility; stroke:gray;"><line y2="422.7422" style="fill:none; clip-path:url(#clipPath1);" x1="52" x2="54" y1="422.7422"/><path style="fill:rgb(64,64,64); clip-path:url(#clipPath1); stroke:none;" d="M44.8965 391.92 L41.9121 396.5918 L44.8965 396.5918 L44.8965 391.92 ZM44.584 390.8887 L46.084 390.8887 L46.084 396.5918 L47.334 396.5918 L47.334 397.5762 L46.084 397.5762 L46.084 399.6387 L44.8965 399.6387 L44.8965 397.5762 L40.959 397.5762 L40.959 396.4356 L44.584 390.8887 Z"/></g><g style="fill:gray; text-rendering:optimizeLegibility; stroke:gray;"><line y2="395.4844" style="fill:none; clip-path:url(#clipPath1);" x1="52" x2="54" y1="395.4844"/><path style="fill:rgb(64,64,64); clip-path:url(#clipPath1); stroke:none;" d="M44.334 367.5371 Q43.5371 367.5371 43.0684 368.084 Q42.5996 368.6309 42.5996 369.5684 Q42.5996 370.5215 43.0684 371.0684 Q43.5371 371.6153 44.334 371.6153 Q45.1309 371.6153 45.5918 371.0684 Q46.0527 370.5215 46.0527 369.5684 Q46.0527 368.6309 45.5918 368.084 Q45.1309 367.5371 44.334 367.5371 ZM46.6777 363.8184 L46.6777 364.8965 Q46.2246 364.6934 45.7715 364.584 Q45.3184 364.4746 44.8809 364.4746 Q43.709 364.4746 43.0918 365.2637 Q42.4746 366.0528 42.3809 367.6465 Q42.7246 367.1465 43.248 366.8731 Q43.7715 366.5996 44.3965 366.5996 Q45.709 366.5996 46.4746 367.3965 Q47.2402 368.1934 47.2402 369.5684 Q47.2402 370.9278 46.4434 371.7403 Q45.6465 372.5528 44.334 372.5528 Q42.8027 372.5528 42.0059 371.3887 Q41.209 370.2246 41.209 368.0215 Q41.209 365.9434 42.1934 364.709 Q43.1777 363.4746 44.834 363.4746 Q45.2715 363.4746 45.7246 363.5606 Q46.1777 363.6465 46.6777 363.8184 Z"/></g><g style="fill:gray; text-rendering:optimizeLegibility; stroke:gray;"><line y2="368.2266" style="fill:none; clip-path:url(#clipPath1);" x1="52" x2="54" y1="368.2266"/><path style="fill:rgb(64,64,64); clip-path:url(#clipPath1); stroke:none;" d="M44.1777 340.9669 Q43.334 340.9669 42.8496 341.42 Q42.3652 341.8731 42.3652 342.6544 Q42.3652 343.4512 42.8496 343.9044 Q43.334 344.3575 44.1777 344.3575 Q45.0215 344.3575 45.5059 343.9044 Q45.9902 343.4512 45.9902 342.6544 Q45.9902 341.8731 45.5137 341.42 Q45.0371 340.9669 44.1777 340.9669 ZM42.9902 340.4669 Q42.2402 340.2794 41.8105 339.7559 Q41.3809 339.2325 41.3809 338.4825 Q41.3809 337.4356 42.1309 336.8262 Q42.8809 336.2169 44.1777 336.2169 Q45.4902 336.2169 46.2324 336.8262 Q46.9746 337.4356 46.9746 338.4825 Q46.9746 339.2325 46.5527 339.7559 Q46.1309 340.2794 45.3652 340.4669 Q46.2246 340.67 46.7012 341.2481 Q47.1777 341.8262 47.1777 342.6544 Q47.1777 343.9356 46.4043 344.6153 Q45.6309 345.295 44.1777 345.295 Q42.7402 345.295 41.959 344.6153 Q41.1777 343.9356 41.1777 342.6544 Q41.1777 341.8262 41.6621 341.2481 Q42.1465 340.67 42.9902 340.4669 ZM42.5684 338.5919 Q42.5684 339.2794 42.9902 339.6544 Q43.4121 340.0294 44.1777 340.0294 Q44.9434 340.0294 45.373 339.6544 Q45.8027 339.2794 45.8027 338.5919 Q45.8027 337.92 45.373 337.5372 Q44.9434 337.1544 44.1777 337.1544 Q43.4121 337.1544 42.9902 337.5372 Q42.5684 337.92 42.5684 338.5919 Z"/></g><g style="fill:gray; text-rendering:optimizeLegibility; stroke:gray;"><line y2="340.9688" style="fill:none; clip-path:url(#clipPath1);" x1="52" x2="54" y1="340.9688"/><path style="fill:rgb(64,64,64); clip-path:url(#clipPath1); stroke:none;" d="M34.2148 316.8653 L36.1523 316.8653 L36.1523 310.1934 L34.043 310.6153 L34.043 309.5372 L36.1367 309.1153 L37.3242 309.1153 L37.3242 316.8653 L39.2617 316.8653 L39.2617 317.8653 L34.2148 317.8653 L34.2148 316.8653 ZM44.1777 309.8965 Q43.2715 309.8965 42.8105 310.795 Q42.3496 311.6934 42.3496 313.5059 Q42.3496 315.3028 42.8105 316.2012 Q43.2715 317.0997 44.1777 317.0997 Q45.0996 317.0997 45.5605 316.2012 Q46.0215 315.3028 46.0215 313.5059 Q46.0215 311.6934 45.5605 310.795 Q45.0996 309.8965 44.1777 309.8965 ZM44.1777 308.959 Q45.6465 308.959 46.4277 310.1231 Q47.209 311.2872 47.209 313.5059 Q47.209 315.709 46.4277 316.8731 Q45.6465 318.0372 44.1777 318.0372 Q42.709 318.0372 41.9355 316.8731 Q41.1621 315.709 41.1621 313.5059 Q41.1621 311.2872 41.9355 310.1231 Q42.709 308.959 44.1777 308.959 Z"/></g><g style="fill:gray; text-rendering:optimizeLegibility; stroke:gray;"><line y2="313.711" style="fill:none; clip-path:url(#clipPath1);" x1="52" x2="54" y1="313.711"/><path style="fill:rgb(64,64,64); clip-path:url(#clipPath1); stroke:none;" d="M34.2148 289.6075 L36.1523 289.6075 L36.1523 282.9356 L34.043 283.3575 L34.043 282.2794 L36.1367 281.8575 L37.3242 281.8575 L37.3242 289.6075 L39.2617 289.6075 L39.2617 290.6075 L34.2148 290.6075 L34.2148 289.6075 ZM42.6621 289.6075 L46.8027 289.6075 L46.8027 290.6075 L41.2402 290.6075 L41.2402 289.6075 Q41.9121 288.92 43.0762 287.7403 Q44.2402 286.5606 44.5371 286.2169 Q45.1152 285.5919 45.3418 285.1466 Q45.5684 284.7013 45.5684 284.2794 Q45.5684 283.5763 45.0762 283.1388 Q44.584 282.7013 43.8027 282.7013 Q43.2402 282.7013 42.623 282.8888 Q42.0059 283.0763 41.3027 283.4825 L41.3027 282.2794 Q42.0215 281.9981 42.6387 281.8497 Q43.2559 281.7013 43.7715 281.7013 Q45.1309 281.7013 45.9434 282.381 Q46.7559 283.0606 46.7559 284.2013 Q46.7559 284.7325 46.5527 285.2169 Q46.3496 285.7013 45.8184 286.3575 Q45.6621 286.5294 44.8809 287.3419 Q44.0996 288.1544 42.6621 289.6075 Z"/></g><g style="fill:gray; text-rendering:optimizeLegibility; stroke:gray;"><line y2="286.4532" style="fill:none; clip-path:url(#clipPath1);" x1="52" x2="54" y1="286.4532"/><path style="fill:rgb(64,64,64); clip-path:url(#clipPath1); stroke:none;" d="M34.2148 262.3497 L36.1523 262.3497 L36.1523 255.6778 L34.043 256.0997 L34.043 255.0216 L36.1367 254.5997 L37.3242 254.5997 L37.3242 262.3497 L39.2617 262.3497 L39.2617 263.3497 L34.2148 263.3497 L34.2148 262.3497 ZM44.8965 255.631 L41.9121 260.3028 L44.8965 260.3028 L44.8965 255.631 ZM44.584 254.5997 L46.084 254.5997 L46.084 260.3028 L47.334 260.3028 L47.334 261.2872 L46.084 261.2872 L46.084 263.3497 L44.8965 263.3497 L44.8965 261.2872 L40.959 261.2872 L40.959 260.1466 L44.584 254.5997 Z"/></g><g style="fill:gray; text-rendering:optimizeLegibility; stroke:gray;"><line y2="259.1954" style="fill:none; clip-path:url(#clipPath1);" x1="52" x2="54" y1="259.1954"/><path style="fill:rgb(64,64,64); clip-path:url(#clipPath1); stroke:none;" d="M34.2148 235.0919 L36.1523 235.0919 L36.1523 228.42 L34.043 228.8419 L34.043 227.7638 L36.1367 227.3419 L37.3242 227.3419 L37.3242 235.0919 L39.2617 235.0919 L39.2617 236.0919 L34.2148 236.0919 L34.2148 235.0919 ZM44.334 231.2482 Q43.5371 231.2482 43.0684 231.795 Q42.5996 232.3419 42.5996 233.2794 Q42.5996 234.2325 43.0684 234.7794 Q43.5371 235.3263 44.334 235.3263 Q45.1309 235.3263 45.5918 234.7794 Q46.0527 234.2325 46.0527 233.2794 Q46.0527 232.3419 45.5918 231.795 Q45.1309 231.2482 44.334 231.2482 ZM46.6777 227.5294 L46.6777 228.6075 Q46.2246 228.4044 45.7715 228.295 Q45.3184 228.1857 44.8809 228.1857 Q43.709 228.1857 43.0918 228.9747 Q42.4746 229.7638 42.3809 231.3575 Q42.7246 230.8575 43.248 230.5841 Q43.7715 230.3107 44.3965 230.3107 Q45.709 230.3107 46.4746 231.1075 Q47.2402 231.9044 47.2402 233.2794 Q47.2402 234.6388 46.4434 235.4513 Q45.6465 236.2638 44.334 236.2638 Q42.8027 236.2638 42.0059 235.0997 Q41.209 233.9357 41.209 231.7325 Q41.209 229.6544 42.1934 228.42 Q43.1777 227.1857 44.834 227.1857 Q45.2715 227.1857 45.7246 227.2716 Q46.1777 227.3575 46.6777 227.5294 Z"/></g><g style="fill:gray; text-rendering:optimizeLegibility; stroke:gray;"><line y2="231.9376" style="fill:none; clip-path:url(#clipPath1);" x1="52" x2="54" y1="231.9376"/><path style="fill:rgb(64,64,64); clip-path:url(#clipPath1); stroke:none;" d="M34.2148 207.8341 L36.1523 207.8341 L36.1523 201.1622 L34.043 201.5841 L34.043 200.506 L36.1367 200.0841 L37.3242 200.0841 L37.3242 207.8341 L39.2617 207.8341 L39.2617 208.8341 L34.2148 208.8341 L34.2148 207.8341 ZM44.1777 204.6779 Q43.334 204.6779 42.8496 205.131 Q42.3652 205.5841 42.3652 206.3654 Q42.3652 207.1622 42.8496 207.6154 Q43.334 208.0685 44.1777 208.0685 Q45.0215 208.0685 45.5059 207.6154 Q45.9902 207.1622 45.9902 206.3654 Q45.9902 205.5841 45.5137 205.131 Q45.0371 204.6779 44.1777 204.6779 ZM42.9902 204.1779 Q42.2402 203.9904 41.8105 203.4669 Q41.3809 202.9435 41.3809 202.1935 Q41.3809 201.1466 42.1309 200.5372 Q42.8809 199.9279 44.1777 199.9279 Q45.4902 199.9279 46.2324 200.5372 Q46.9746 201.1466 46.9746 202.1935 Q46.9746 202.9435 46.5527 203.4669 Q46.1309 203.9904 45.3652 204.1779 Q46.2246 204.381 46.7012 204.9591 Q47.1777 205.5372 47.1777 206.3654 Q47.1777 207.6466 46.4043 208.3263 Q45.6309 209.006 44.1777 209.006 Q42.7402 209.006 41.959 208.3263 Q41.1777 207.6466 41.1777 206.3654 Q41.1777 205.5372 41.6621 204.9591 Q42.1465 204.381 42.9902 204.1779 ZM42.5684 202.3029 Q42.5684 202.9904 42.9902 203.3654 Q43.4121 203.7404 44.1777 203.7404 Q44.9434 203.7404 45.373 203.3654 Q45.8027 202.9904 45.8027 202.3029 Q45.8027 201.631 45.373 201.2482 Q44.9434 200.8654 44.1777 200.8654 Q43.4121 200.8654 42.9902 201.2482 Q42.5684 201.631 42.5684 202.3029 Z"/></g><g style="fill:gray; text-rendering:optimizeLegibility; stroke:gray;"><line y2="204.6798" style="fill:none; clip-path:url(#clipPath1);" x1="52" x2="54" y1="204.6798"/><path style="fill:rgb(64,64,64); clip-path:url(#clipPath1); stroke:none;" d="M35.0273 180.5763 L39.168 180.5763 L39.168 181.5763 L33.6055 181.5763 L33.6055 180.5763 Q34.2773 179.8888 35.4414 178.7091 Q36.6055 177.5294 36.9023 177.1857 Q37.4805 176.5607 37.707 176.1154 Q37.9336 175.67 37.9336 175.2482 Q37.9336 174.545 37.4414 174.1075 Q36.9492 173.67 36.168 173.67 Q35.6055 173.67 34.9883 173.8575 Q34.3711 174.045 33.668 174.4513 L33.668 173.2482 Q34.3867 172.9669 35.0039 172.8185 Q35.6211 172.67 36.1367 172.67 Q37.4961 172.67 38.3086 173.3497 Q39.1211 174.0294 39.1211 175.17 Q39.1211 175.7013 38.918 176.1857 Q38.7148 176.67 38.1836 177.3263 Q38.0273 177.4982 37.2461 178.3107 Q36.4648 179.1232 35.0273 180.5763 ZM44.1777 173.6075 Q43.2715 173.6075 42.8105 174.506 Q42.3496 175.4044 42.3496 177.2169 Q42.3496 179.0138 42.8105 179.9122 Q43.2715 180.8107 44.1777 180.8107 Q45.0996 180.8107 45.5605 179.9122 Q46.0215 179.0138 46.0215 177.2169 Q46.0215 175.4044 45.5605 174.506 Q45.0996 173.6075 44.1777 173.6075 ZM44.1777 172.67 Q45.6465 172.67 46.4277 173.8341 Q47.209 174.9982 47.209 177.2169 Q47.209 179.42 46.4277 180.5841 Q45.6465 181.7482 44.1777 181.7482 Q42.709 181.7482 41.9355 180.5841 Q41.1621 179.42 41.1621 177.2169 Q41.1621 174.9982 41.9355 173.8341 Q42.709 172.67 44.1777 172.67 Z"/></g><g style="fill:gray; text-rendering:optimizeLegibility; stroke:gray;"><line y2="177.422" style="fill:none; clip-path:url(#clipPath1);" x1="52" x2="54" y1="177.422"/><path style="fill:rgb(64,64,64); clip-path:url(#clipPath1); stroke:none;" d="M35.0273 153.3185 L39.168 153.3185 L39.168 154.3185 L33.6055 154.3185 L33.6055 153.3185 Q34.2773 152.631 35.4414 151.4513 Q36.6055 150.2716 36.9023 149.9279 Q37.4805 149.3029 37.707 148.8576 Q37.9336 148.4122 37.9336 147.9904 Q37.9336 147.2872 37.4414 146.8497 Q36.9492 146.4122 36.168 146.4122 Q35.6055 146.4122 34.9883 146.5997 Q34.3711 146.7872 33.668 147.1935 L33.668 145.9904 Q34.3867 145.7091 35.0039 145.5607 Q35.6211 145.4122 36.1367 145.4122 Q37.4961 145.4122 38.3086 146.0919 Q39.1211 146.7716 39.1211 147.9122 Q39.1211 148.4435 38.918 148.9279 Q38.7148 149.4122 38.1836 150.0685 Q38.0273 150.2404 37.2461 151.0529 Q36.4648 151.8654 35.0273 153.3185 ZM42.6621 153.3185 L46.8027 153.3185 L46.8027 154.3185 L41.2402 154.3185 L41.2402 153.3185 Q41.9121 152.631 43.0762 151.4513 Q44.2402 150.2716 44.5371 149.9279 Q45.1152 149.3029 45.3418 148.8576 Q45.5684 148.4122 45.5684 147.9904 Q45.5684 147.2872 45.0762 146.8497 Q44.584 146.4122 43.8027 146.4122 Q43.2402 146.4122 42.623 146.5997 Q42.0059 146.7872 41.3027 147.1935 L41.3027 145.9904 Q42.0215 145.7091 42.6387 145.5607 Q43.2559 145.4122 43.7715 145.4122 Q45.1309 145.4122 45.9434 146.0919 Q46.7559 146.7716 46.7559 147.9122 Q46.7559 148.4435 46.5527 148.9279 Q46.3496 149.4122 45.8184 150.0685 Q45.6621 150.2404 44.8809 151.0529 Q44.0996 151.8654 42.6621 153.3185 Z"/></g><g style="fill:gray; text-rendering:optimizeLegibility; stroke:gray;"><line y2="150.1642" style="fill:none; clip-path:url(#clipPath1);" x1="52" x2="54" y1="150.1642"/><path style="fill:rgb(64,64,64); clip-path:url(#clipPath1); stroke:none;" d="M35.0273 126.0607 L39.168 126.0607 L39.168 127.0607 L33.6055 127.0607 L33.6055 126.0607 Q34.2773 125.3732 35.4414 124.1935 Q36.6055 123.0138 36.9023 122.6701 Q37.4805 122.0451 37.707 121.5998 Q37.9336 121.1544 37.9336 120.7326 Q37.9336 120.0294 37.4414 119.5919 Q36.9492 119.1544 36.168 119.1544 Q35.6055 119.1544 34.9883 119.3419 Q34.3711 119.5294 33.668 119.9357 L33.668 118.7326 Q34.3867 118.4513 35.0039 118.3029 Q35.6211 118.1544 36.1367 118.1544 Q37.4961 118.1544 38.3086 118.8341 Q39.1211 119.5138 39.1211 120.6544 Q39.1211 121.1857 38.918 121.6701 Q38.7148 122.1544 38.1836 122.8107 Q38.0273 122.9826 37.2461 123.7951 Q36.4648 124.6076 35.0273 126.0607 ZM44.8965 119.3419 L41.9121 124.0138 L44.8965 124.0138 L44.8965 119.3419 ZM44.584 118.3107 L46.084 118.3107 L46.084 124.0138 L47.334 124.0138 L47.334 124.9982 L46.084 124.9982 L46.084 127.0607 L44.8965 127.0607 L44.8965 124.9982 L40.959 124.9982 L40.959 123.8576 L44.584 118.3107 Z"/></g><g style="fill:gray; text-rendering:optimizeLegibility; stroke:gray;"><line y2="122.9064" style="fill:none; clip-path:url(#clipPath1);" x1="52" x2="54" y1="122.9064"/><path style="fill:rgb(64,64,64); clip-path:url(#clipPath1); stroke:none;" d="M35.0273 98.8029 L39.168 98.8029 L39.168 99.8029 L33.6055 99.8029 L33.6055 98.8029 Q34.2773 98.1154 35.4414 96.9357 Q36.6055 95.756 36.9023 95.4123 Q37.4805 94.7873 37.707 94.342 Q37.9336 93.8967 37.9336 93.4748 Q37.9336 92.7717 37.4414 92.3342 Q36.9492 91.8967 36.168 91.8967 Q35.6055 91.8967 34.9883 92.0842 Q34.3711 92.2717 33.668 92.6779 L33.668 91.4748 Q34.3867 91.1935 35.0039 91.0451 Q35.6211 90.8967 36.1367 90.8967 Q37.4961 90.8967 38.3086 91.5763 Q39.1211 92.256 39.1211 93.3967 Q39.1211 93.9279 38.918 94.4123 Q38.7148 94.8967 38.1836 95.5529 Q38.0273 95.7248 37.2461 96.5373 Q36.4648 97.3498 35.0273 98.8029 ZM44.334 94.9592 Q43.5371 94.9592 43.0684 95.506 Q42.5996 96.0529 42.5996 96.9904 Q42.5996 97.9435 43.0684 98.4904 Q43.5371 99.0373 44.334 99.0373 Q45.1309 99.0373 45.5918 98.4904 Q46.0527 97.9435 46.0527 96.9904 Q46.0527 96.0529 45.5918 95.506 Q45.1309 94.9592 44.334 94.9592 ZM46.6777 91.2404 L46.6777 92.3185 Q46.2246 92.1154 45.7715 92.006 Q45.3184 91.8967 44.8809 91.8967 Q43.709 91.8967 43.0918 92.6857 Q42.4746 93.4748 42.3809 95.0685 Q42.7246 94.5685 43.248 94.2951 Q43.7715 94.0217 44.3965 94.0217 Q45.709 94.0217 46.4746 94.8185 Q47.2402 95.6154 47.2402 96.9904 Q47.2402 98.3498 46.4434 99.1623 Q45.6465 99.9748 44.334 99.9748 Q42.8027 99.9748 42.0059 98.8107 Q41.209 97.6467 41.209 95.4435 Q41.209 93.3654 42.1934 92.131 Q43.1777 90.8967 44.834 90.8967 Q45.2715 90.8967 45.7246 90.9826 Q46.1777 91.0685 46.6777 91.2404 Z"/></g><g style="fill:gray; text-rendering:optimizeLegibility; stroke:gray;"><line y2="95.6486" style="fill:none; clip-path:url(#clipPath1);" x1="52" x2="54" y1="95.6486"/><path style="fill:rgb(64,64,64); clip-path:url(#clipPath1); stroke:none;" d="M35.0273 71.5451 L39.168 71.5451 L39.168 72.5451 L33.6055 72.5451 L33.6055 71.5451 Q34.2773 70.8576 35.4414 69.6779 Q36.6055 68.4982 36.9023 68.1545 Q37.4805 67.5295 37.707 67.0842 Q37.9336 66.6389 37.9336 66.217 Q37.9336 65.5139 37.4414 65.0764 Q36.9492 64.6389 36.168 64.6389 Q35.6055 64.6389 34.9883 64.8264 Q34.3711 65.0139 33.668 65.4201 L33.668 64.217 Q34.3867 63.9357 35.0039 63.7873 Q35.6211 63.6389 36.1367 63.6389 Q37.4961 63.6389 38.3086 64.3185 Q39.1211 64.9982 39.1211 66.1389 Q39.1211 66.6701 38.918 67.1545 Q38.7148 67.6389 38.1836 68.2951 Q38.0273 68.467 37.2461 69.2795 Q36.4648 70.092 35.0273 71.5451 ZM44.1777 68.3889 Q43.334 68.3889 42.8496 68.842 Q42.3652 69.2951 42.3652 70.0764 Q42.3652 70.8732 42.8496 71.3264 Q43.334 71.7795 44.1777 71.7795 Q45.0215 71.7795 45.5059 71.3264 Q45.9902 70.8732 45.9902 70.0764 Q45.9902 69.2951 45.5137 68.842 Q45.0371 68.3889 44.1777 68.3889 ZM42.9902 67.8889 Q42.2402 67.7014 41.8105 67.1779 Q41.3809 66.6545 41.3809 65.9045 Q41.3809 64.8576 42.1309 64.2482 Q42.8809 63.6389 44.1777 63.6389 Q45.4902 63.6389 46.2324 64.2482 Q46.9746 64.8576 46.9746 65.9045 Q46.9746 66.6545 46.5527 67.1779 Q46.1309 67.7014 45.3652 67.8889 Q46.2246 68.092 46.7012 68.6701 Q47.1777 69.2482 47.1777 70.0764 Q47.1777 71.3576 46.4043 72.0373 Q45.6309 72.717 44.1777 72.717 Q42.7402 72.717 41.959 72.0373 Q41.1777 71.3576 41.1777 70.0764 Q41.1777 69.2482 41.6621 68.6701 Q42.1465 68.092 42.9902 67.8889 ZM42.5684 66.0139 Q42.5684 66.7014 42.9902 67.0764 Q43.4121 67.4514 44.1777 67.4514 Q44.9434 67.4514 45.373 67.0764 Q45.8027 66.7014 45.8027 66.0139 Q45.8027 65.342 45.373 64.9592 Q44.9434 64.5764 44.1777 64.5764 Q43.4121 64.5764 42.9902 64.9592 Q42.5684 65.342 42.5684 66.0139 Z"/></g><g style="fill:gray; text-rendering:optimizeLegibility; stroke:gray;"><line y2="68.3908" style="fill:none; clip-path:url(#clipPath1);" x1="52" x2="54" y1="68.3908"/><path style="fill:rgb(64,64,64); clip-path:url(#clipPath1); stroke:none;" d="M37.6055 40.5686 Q38.4492 40.7561 38.9258 41.3264 Q39.4023 41.8967 39.4023 42.7404 Q39.4023 44.0373 38.5117 44.7482 Q37.6211 45.4592 35.9805 45.4592 Q35.4336 45.4592 34.8477 45.3498 Q34.2617 45.2404 33.6523 45.0217 L33.6523 43.8811 Q34.1367 44.1623 34.7227 44.3107 Q35.3086 44.4592 35.9492 44.4592 Q37.0586 44.4592 37.6445 44.0217 Q38.2305 43.5842 38.2305 42.7404 Q38.2305 41.9748 37.6836 41.5373 Q37.1367 41.0998 36.1836 41.0998 L35.1523 41.0998 L35.1523 40.1311 L36.2305 40.1311 Q37.0898 40.1311 37.5586 39.7795 Q38.0273 39.4279 38.0273 38.7717 Q38.0273 38.0998 37.5508 37.7404 Q37.0742 37.3811 36.1836 37.3811 Q35.6836 37.3811 35.1289 37.4826 Q34.5742 37.5842 33.9023 37.8029 L33.9023 36.7561 Q34.5898 36.5686 35.1758 36.4748 Q35.7617 36.3811 36.2773 36.3811 Q37.6367 36.3811 38.418 36.9904 Q39.1992 37.5998 39.1992 38.6467 Q39.1992 39.3811 38.7852 39.8811 Q38.3711 40.3811 37.6055 40.5686 ZM44.1777 37.3186 Q43.2715 37.3186 42.8105 38.217 Q42.3496 39.1154 42.3496 40.9279 Q42.3496 42.7248 42.8105 43.6232 Q43.2715 44.5217 44.1777 44.5217 Q45.0996 44.5217 45.5605 43.6232 Q46.0215 42.7248 46.0215 40.9279 Q46.0215 39.1154 45.5605 38.217 Q45.0996 37.3186 44.1777 37.3186 ZM44.1777 36.3811 Q45.6465 36.3811 46.4277 37.5451 Q47.209 38.7092 47.209 40.9279 Q47.209 43.1311 46.4277 44.2951 Q45.6465 45.4592 44.1777 45.4592 Q42.709 45.4592 41.9355 44.2951 Q41.1621 43.1311 41.1621 40.9279 Q41.1621 38.7092 41.9355 37.5451 Q42.709 36.3811 44.1777 36.3811 Z"/></g><g style="fill:gray; text-rendering:optimizeLegibility; stroke:gray;"><line y2="41.133" style="fill:none; clip-path:url(#clipPath1);" x1="52" x2="54" y1="41.133"/></g><g style="fill:rgb(64,64,64); text-rendering:optimizeLegibility; font-size:14; font-weight:bold; stroke:rgb(64,64,64);" transform="matrix(0,-1,1,0,-222.918,262.082)"><path style="clip-path:url(#clipPath2); stroke:none;" d="M-15.501 238.8623 Q-16.7041 238.8623 -17.3682 239.7529 Q-18.0322 240.6436 -18.0322 242.2529 Q-18.0322 243.8623 -17.3682 244.7529 Q-16.7041 245.6436 -15.501 245.6436 Q-14.2979 245.6436 -13.6338 244.7529 Q-12.9697 243.8623 -12.9697 242.2529 Q-12.9697 240.6436 -13.6338 239.7529 Q-14.2979 238.8623 -15.501 238.8623 ZM-15.501 236.9561 Q-13.0479 236.9561 -11.6494 238.3623 Q-10.251 239.7686 -10.251 242.2529 Q-10.251 244.7217 -11.6494 246.1357 Q-13.0479 247.5498 -15.501 247.5498 Q-17.9541 247.5498 -19.3525 246.1357 Q-20.751 244.7217 -20.751 242.2529 Q-20.751 239.7686 -19.3525 238.3623 Q-17.9541 236.9561 -15.501 236.9561 ZM-8.459 244.3623 L-8.459 239.6904 L-5.9902 239.6904 L-5.9902 240.4561 Q-5.9902 241.0811 -5.998 242.0186 Q-6.0059 242.9561 -6.0059 243.2686 Q-6.0059 244.1904 -5.959 244.5967 Q-5.9121 245.0029 -5.8027 245.1904 Q-5.6465 245.4248 -5.4043 245.5576 Q-5.1621 245.6904 -4.8496 245.6904 Q-4.084 245.6904 -3.6465 245.1045 Q-3.209 244.5186 -3.209 243.4717 L-3.209 239.6904 L-0.7559 239.6904 L-0.7559 247.3467 L-3.209 247.3467 L-3.209 246.2373 Q-3.7559 246.9092 -4.3809 247.2295 Q-5.0059 247.5498 -5.7402 247.5498 Q-7.0684 247.5498 -7.7637 246.7373 Q-8.459 245.9248 -8.459 244.3623 ZM4.2578 237.5186 L4.2578 239.6904 L6.7891 239.6904 L6.7891 241.4404 L4.2578 241.4404 L4.2578 244.6904 Q4.2578 245.2217 4.4688 245.4092 Q4.6797 245.5967 5.3203 245.5967 L6.5703 245.5967 L6.5703 247.3467 L4.4766 247.3467 Q3.0234 247.3467 2.4219 246.7451 Q1.8203 246.1436 1.8203 244.6904 L1.8203 241.4404 L0.6016 241.4404 L0.6016 239.6904 L1.8203 239.6904 L1.8203 237.5186 L4.2578 237.5186 ZM12.3564 245.7686 Q13.1377 245.7686 13.5518 245.1904 Q13.9658 244.6123 13.9658 243.5186 Q13.9658 242.4248 13.5518 241.8545 Q13.1377 241.2842 12.3564 241.2842 Q11.5752 241.2842 11.1533 241.8623 Q10.7314 242.4404 10.7314 243.5186 Q10.7314 244.6123 11.1533 245.1904 Q11.5752 245.7686 12.3564 245.7686 ZM10.7314 240.8154 Q11.2314 240.1436 11.8486 239.8232 Q12.4658 239.5029 13.2627 239.5029 Q14.6846 239.5029 15.5908 240.6279 Q16.4971 241.7529 16.4971 243.5186 Q16.4971 245.2998 15.5908 246.4248 Q14.6846 247.5498 13.2627 247.5498 Q12.4658 247.5498 11.8486 247.2295 Q11.2314 246.9092 10.7314 246.2373 L10.7314 247.3467 L8.2783 247.3467 L8.2783 236.7061 L10.7314 236.7061 L10.7314 240.8154 ZM23.9873 241.7686 Q23.6748 241.6279 23.3545 241.5576 Q23.0342 241.4873 22.7061 241.4873 Q21.7686 241.4873 21.2607 242.0889 Q20.7529 242.6904 20.7529 243.8154 L20.7529 247.3467 L18.2998 247.3467 L18.2998 239.6904 L20.7529 239.6904 L20.7529 240.9404 Q21.2217 240.1904 21.8311 239.8467 Q22.4404 239.5029 23.2998 239.5029 Q23.4248 239.5029 23.5654 239.5107 Q23.7061 239.5186 23.9873 239.5654 L23.9873 241.7686 ZM32.8447 243.5029 L32.8447 244.1904 L27.126 244.1904 Q27.2197 245.0498 27.751 245.4873 Q28.2822 245.9248 29.2354 245.9248 Q30.0166 245.9248 30.8291 245.6904 Q31.6416 245.4561 32.4854 244.9873 L32.4854 246.8779 Q31.626 247.2061 30.7588 247.3779 Q29.8916 247.5498 29.0166 247.5498 Q26.9385 247.5498 25.79 246.4873 Q24.6416 245.4248 24.6416 243.5186 Q24.6416 241.6592 25.7666 240.5811 Q26.8916 239.5029 28.876 239.5029 Q30.6885 239.5029 31.7666 240.5889 Q32.8447 241.6748 32.8447 243.5029 ZM30.3291 242.6904 Q30.3291 241.9873 29.9229 241.5576 Q29.5166 241.1279 28.8604 241.1279 Q28.1572 241.1279 27.7119 241.5264 Q27.2666 241.9248 27.1572 242.6904 L30.3291 242.6904 ZM38.1367 243.8936 Q37.3711 243.8936 36.9805 244.1592 Q36.5898 244.4248 36.5898 244.9248 Q36.5898 245.3936 36.9023 245.6592 Q37.2148 245.9248 37.7773 245.9248 Q38.4648 245.9248 38.9336 245.4248 Q39.4023 244.9248 39.4023 244.1748 L39.4023 243.8936 L38.1367 243.8936 ZM41.8711 242.9717 L41.8711 247.3467 L39.4023 247.3467 L39.4023 246.2061 Q38.918 246.9092 38.3008 247.2295 Q37.6836 247.5498 36.8086 247.5498 Q35.6055 247.5498 34.8711 246.8545 Q34.1367 246.1592 34.1367 245.0498 Q34.1367 243.7061 35.0586 243.0732 Q35.9805 242.4404 37.9648 242.4404 L39.4023 242.4404 L39.4023 242.2529 Q39.4023 241.6748 38.9492 241.4014 Q38.4961 241.1279 37.5273 241.1279 Q36.7305 241.1279 36.0586 241.2842 Q35.3867 241.4404 34.793 241.7686 L34.793 239.8936 Q35.5898 239.7061 36.3789 239.6045 Q37.168 239.5029 37.9648 239.5029 Q40.043 239.5029 40.957 240.3232 Q41.8711 241.1436 41.8711 242.9717 ZM44.1465 236.7061 L46.5996 236.7061 L46.5996 242.5029 L49.4121 239.6904 L52.2559 239.6904 L48.5215 243.2061 L52.5527 247.3467 L49.584 247.3467 L46.5996 244.1592 L46.5996 247.3467 L44.1465 247.3467 L44.1465 236.7061 ZM59.4414 239.9248 L59.4414 241.7842 Q58.6602 241.4561 57.9258 241.292 Q57.1914 241.1279 56.5508 241.1279 Q55.8477 241.1279 55.5117 241.3076 Q55.1758 241.4873 55.1758 241.8467 Q55.1758 242.1436 55.4258 242.2998 Q55.6758 242.4561 56.3477 242.5342 L56.7695 242.5811 Q58.6602 242.8311 59.3086 243.3779 Q59.957 243.9248 59.957 245.0967 Q59.957 246.3154 59.0508 246.9326 Q58.1445 247.5498 56.3633 247.5498 Q55.5977 247.5498 54.793 247.4248 Q53.9883 247.2998 53.1289 247.0654 L53.1289 245.2061 Q53.8633 245.5654 54.6289 245.7451 Q55.3945 245.9248 56.1914 245.9248 Q56.9102 245.9248 57.2695 245.7217 Q57.6289 245.5186 57.6289 245.1279 Q57.6289 244.7998 57.3789 244.6436 Q57.1289 244.4873 56.3945 244.3936 L55.957 244.3311 Q54.3164 244.1279 53.6602 243.5732 Q53.0039 243.0186 53.0039 241.8936 Q53.0039 240.6748 53.8398 240.0889 Q54.6758 239.5029 56.3945 239.5029 Q57.082 239.5029 57.8242 239.6045 Q58.5664 239.7061 59.4414 239.9248 Z"/></g><g style="font-size:14; stroke-linecap:butt; fill:silver; text-rendering:optimizeLegibility; stroke-linejoin:bevel; stroke-dasharray:2,2; stroke:silver; font-weight:bold; stroke-width:0.5; stroke-miterlimit:0;"><line y2="450" style="fill:none; clip-path:url(#clipPath3);" x1="72.0385" x2="72.0385" y1="35"/><line y2="450" style="fill:none; clip-path:url(#clipPath3);" x1="115.4683" x2="115.4683" y1="35"/><line y2="450" style="fill:none; clip-path:url(#clipPath3);" x1="158.8981" x2="158.8981" y1="35"/><line y2="450" style="fill:none; clip-path:url(#clipPath3);" x1="202.4469" x2="202.4469" y1="35"/><line y2="450" style="fill:none; clip-path:url(#clipPath3);" x1="245.8767" x2="245.8767" y1="35"/><line y2="450" style="fill:none; clip-path:url(#clipPath3);" x1="289.3065" x2="289.3065" y1="35"/><line y2="450" style="fill:none; clip-path:url(#clipPath3);" x1="332.7363" x2="332.7363" y1="35"/><line y2="450" style="fill:none; clip-path:url(#clipPath3);" x1="376.2851" x2="376.2851" y1="35"/><line y2="450" style="fill:none; clip-path:url(#clipPath3);" x1="419.7149" x2="419.7149" y1="35"/><line y2="450" style="fill:none; clip-path:url(#clipPath3);" x1="463.1447" x2="463.1447" y1="35"/><line y2="450" style="fill:none; clip-path:url(#clipPath3);" x1="506.5745" x2="506.5745" y1="35"/><line y2="450" style="fill:none; clip-path:url(#clipPath3);" x1="550.1233" x2="550.1233" y1="35"/><line y2="450" style="fill:none; clip-path:url(#clipPath3);" x1="593.5531" x2="593.5531" y1="35"/><line y2="450" style="fill:none; clip-path:url(#clipPath3);" x1="636.9829" x2="636.9829" y1="35"/><line y2="450" style="fill:none; clip-path:url(#clipPath3);" x1="680.4127" x2="680.4127" y1="35"/><line y2="450" style="fill:none; clip-path:url(#clipPath3);" x1="723.9615" x2="723.9615" y1="35"/><line y2="450" style="fill:none; clip-path:url(#clipPath3);" x1="59" x2="737" y1="450"/><line y2="422.7422" style="fill:none; clip-path:url(#clipPath3);" x1="59" x2="737" y1="422.7422"/><line y2="395.4844" style="fill:none; clip-path:url(#clipPath3);" x1="59" x2="737" y1="395.4844"/><line y2="368.2266" style="fill:none; clip-path:url(#clipPath3);" x1="59" x2="737" y1="368.2266"/><line y2="340.9688" style="fill:none; clip-path:url(#clipPath3);" x1="59" x2="737" y1="340.9688"/><line y2="313.711" style="fill:none; clip-path:url(#clipPath3);" x1="59" x2="737" y1="313.711"/><line y2="286.4532" style="fill:none; clip-path:url(#clipPath3);" x1="59" x2="737" y1="286.4532"/><line y2="259.1954" style="fill:none; clip-path:url(#clipPath3);" x1="59" x2="737" y1="259.1954"/><line y2="231.9376" style="fill:none; clip-path:url(#clipPath3);" x1="59" x2="737" y1="231.9376"/><line y2="204.6798" style="fill:none; clip-path:url(#clipPath3);" x1="59" x2="737" y1="204.6798"/><line y2="177.422" style="fill:none; clip-path:url(#clipPath3);" x1="59" x2="737" y1="177.422"/><line y2="150.1642" style="fill:none; clip-path:url(#clipPath3);" x1="59" x2="737" y1="150.1642"/><line y2="122.9064" style="fill:none; clip-path:url(#clipPath3);" x1="59" x2="737" y1="122.9064"/><line y2="95.6486" style="fill:none; clip-path:url(#clipPath3);" x1="59" x2="737" y1="95.6486"/><line y2="68.3908" style="fill:none; clip-path:url(#clipPath3);" x1="59" x2="737" y1="68.3908"/><line y2="41.133" style="fill:none; clip-path:url(#clipPath3);" x1="59" x2="737" y1="41.133"/></g><g style="fill:blue; text-rendering:optimizeLegibility; font-size:14; font-weight:bold; stroke-linejoin:bevel; stroke:blue;"><line y2="218.3087" style="fill:none; clip-path:url(#clipPath3);" x1="72.0385" x2="115.4683" y1="218.3087"/><line y2="204.6798" style="fill:none; clip-path:url(#clipPath3);" x1="115.4683" x2="158.8981" y1="218.3087"/><line y2="313.711" style="fill:none; clip-path:url(#clipPath3);" x1="158.8981" x2="202.4469" y1="204.6798"/><line y2="286.4532" style="fill:none; clip-path:url(#clipPath3);" x1="202.4469" x2="245.8767" y1="313.711"/><line y2="245.5665" style="fill:none; clip-path:url(#clipPath3);" x1="245.8767" x2="289.3065" y1="286.4532"/><line y2="231.9376" style="fill:none; clip-path:url(#clipPath3);" x1="289.3065" x2="332.7363" y1="245.5665"/><line y2="300.0821" style="fill:none; clip-path:url(#clipPath3);" x1="332.7363" x2="376.2851" y1="231.9376"/><line y2="368.2266" style="fill:none; clip-path:url(#clipPath3);" x1="376.2851" x2="419.7149" y1="300.0821"/><line y2="395.4844" style="fill:none; clip-path:url(#clipPath3);" x1="419.7149" x2="463.1447" y1="368.2266"/><line y2="395.4844" style="fill:none; clip-path:url(#clipPath3);" x1="463.1447" x2="506.5745" y1="395.4844"/><line y2="450" style="fill:none; clip-path:url(#clipPath3);" x1="506.5745" x2="550.1233" y1="395.4844"/><line y2="409.1133" style="fill:none; clip-path:url(#clipPath3);" x1="550.1233" x2="593.5531" y1="450"/><line y2="422.7422" style="fill:none; clip-path:url(#clipPath3);" x1="593.5531" x2="636.9829" y1="409.1133"/><line y2="368.2266" style="fill:none; clip-path:url(#clipPath3);" x1="636.9829" x2="680.4127" y1="422.7422"/><line y2="54.7619" style="fill:none; clip-path:url(#clipPath3);" x1="680.4127" x2="723.9615" y1="368.2266"/></g><g style="font-size:14; stroke-linecap:butt; fill:blue; text-rendering:optimizeLegibility; stroke-linejoin:bevel; stroke-dasharray:2,2; stroke:blue; font-weight:bold; stroke-width:0.5; stroke-miterlimit:0;"><line y2="450" style="fill:none; clip-path:url(#clipPath3);" x1="59" x2="737" y1="450"/></g><g style="text-rendering:optimizeLegibility; stroke-width:0.5; font-size:14; font-weight:bold; stroke-linejoin:round; stroke-linecap:round;"><rect x="59" width="678" height="415" y="35" style="fill:none; clip-path:url(#clipPath1);"/></g></g></svg>