<?xml version="1.0" encoding="UTF-8"?><svg xmlns="http://www.w3.org/2000/svg" xmlns:xlink="http://www.w3.org/1999/xlink" contentScriptType="text/ecmascript" width="750" zoomAndPan="magnify" style="stroke-dasharray:none; shape-rendering:auto; font-family:'Dialog'; text-rendering:auto; fill-opacity:1; color-interpolation:auto; color-rendering:auto; font-size:12; fill:black; stroke:black; image-rendering:auto; stroke-miterlimit:10; stroke-linecap:square; stroke-linejoin:miter; font-style:normal; stroke-width:1; stroke-dashoffset:0; font-weight:normal; stroke-opacity:1;" contentStyleType="text/css" viewBox="0 0 750 500" height="500" preserveAspectRatio="xMidYMid meet" version="1.0"><!--Generated by the Batik Graphics2D SVG Generator--><defs id="genericDefs"/><g><defs id="defs1"><clipPath clipPathUnits="userSpaceOnUse" id="clipPath1"><path d="M0 0 L750 0 L750 500 L0 500 L0 0 Z"/></clipPath><clipPath clipPathUnits="userSpaceOnUse" id="clipPath2"><path d="M264.4595 226.5405 L264.4595 976.5405 L-235.5405 976.5405 L-235.5405 226.5405 L264.4595 226.5405 Z"/></clipPath><clipPath clipPathUnits="userSpaceOnUse" id="clipPath3"><path d="M68 35 L68 456 L742 456 L742 35 Z"/></clipPath></defs><g style="fill:white; text-rendering:optimizeLegibility; font-size:11; font-family:'Liberation Sans'; stroke:white;"><rect x="0" width="750" height="500" y="0" style="clip-path:url(#clipPath1); stroke:none;"/></g><g style="text-rendering:optimizeLegibility; font-size:18; font-weight:bold; font-family:sans-serif;"><path style="clip-path:url(#clipPath1); stroke:none;" d="M273.0278 24.4355 Q273.5903 24.4355 274.1138 24.3496 Q274.6372 24.2637 275.0825 24.1152 Q275.5278 23.9668 275.8794 23.7793 Q276.231 23.5918 276.4653 23.3887 L276.4653 21.6855 L273.4341 21.6855 L273.4341 19.7637 L278.8403 19.7637 L278.8403 24.3105 Q278.4185 24.748 277.8169 25.1387 Q277.2153 25.5293 276.4731 25.8262 Q275.731 26.123 274.8403 26.2949 Q273.9497 26.4668 272.9653 26.4668 Q271.3247 26.4668 270.1372 25.9902 Q268.9497 25.5137 268.1841 24.6543 Q267.4185 23.7949 267.0513 22.6152 Q266.6841 21.4355 266.6841 20.0449 Q266.6841 18.5918 267.0747 17.4277 Q267.4653 16.2637 268.2466 15.4355 Q269.0278 14.6074 270.2231 14.1699 Q271.4185 13.7324 273.0278 13.7324 Q274.1997 13.7324 275.106 13.959 Q276.0122 14.1855 276.6919 14.6074 Q277.3716 15.0293 277.8325 15.623 Q278.2935 16.2168 278.5747 16.9512 L276.1841 17.6699 Q276.0278 17.2793 275.7622 16.9355 Q275.4966 16.5918 275.106 16.334 Q274.7153 16.0762 274.1997 15.9199 Q273.6841 15.7637 273.0278 15.7637 Q272.0591 15.7637 271.356 16.0684 Q270.6528 16.373 270.1919 16.9355 Q269.731 17.498 269.5122 18.2871 Q269.2935 19.0762 269.2935 20.0449 Q269.2935 21.0137 269.52 21.8184 Q269.7466 22.623 270.2075 23.209 Q270.6685 23.7949 271.3716 24.1152 Q272.0747 24.4355 273.0278 24.4355 ZM281.2007 26.2949 L281.2007 19.0137 Q281.2007 18.7168 281.2007 18.373 Q281.2007 18.0293 281.1851 17.7168 Q281.1694 17.4043 281.1616 17.1543 Q281.1538 16.9043 281.1382 16.7793 L283.4976 16.7793 Q283.5132 16.8887 283.5288 17.1465 Q283.5444 17.4043 283.5601 17.7168 Q283.5757 18.0293 283.5913 18.3262 Q283.6069 18.623 283.6069 18.8105 L283.6382 18.8105 Q283.8257 18.2949 284.0132 17.8887 Q284.2007 17.4824 284.4507 17.1934 Q284.7007 16.9043 285.0522 16.7559 Q285.4038 16.6074 285.9194 16.6074 Q286.1382 16.6074 286.3569 16.6465 Q286.5757 16.6855 286.6851 16.7324 L286.6851 18.7949 Q286.4507 18.748 286.2085 18.709 Q285.9663 18.6699 285.6226 18.6699 Q284.7007 18.6699 284.1929 19.4121 Q283.6851 20.1543 283.6851 21.623 L283.6851 26.2949 L281.2007 26.2949 ZM290.4087 26.4668 Q289.7212 26.4668 289.1821 26.2793 Q288.6431 26.0918 288.2681 25.7246 Q287.8931 25.3574 287.6899 24.8262 Q287.4868 24.2949 287.4868 23.6074 Q287.4868 22.7637 287.7759 22.1855 Q288.0649 21.6074 288.5806 21.2559 Q289.0962 20.9043 289.7759 20.7402 Q290.4556 20.5762 291.2368 20.5605 L293.2837 20.5293 L293.2837 20.0449 Q293.2837 19.5293 293.1899 19.1777 Q293.0962 18.8262 292.9243 18.6074 Q292.7524 18.3887 292.4946 18.2949 Q292.2368 18.2012 291.8931 18.2012 Q291.5806 18.2012 291.3462 18.2637 Q291.1118 18.3262 290.9321 18.4824 Q290.7524 18.6387 290.6431 18.8965 Q290.5337 19.1543 290.4868 19.5605 L287.9087 19.4355 Q288.0181 18.8105 288.2993 18.2949 Q288.5806 17.7793 289.0806 17.4043 Q289.5806 17.0293 290.2993 16.8184 Q291.0181 16.6074 292.0024 16.6074 Q292.8931 16.6074 293.5884 16.8262 Q294.2837 17.0449 294.7603 17.4824 Q295.2368 17.9199 295.4946 18.5527 Q295.7524 19.1855 295.7524 20.0137 L295.7524 23.4824 Q295.7524 23.8105 295.7837 24.0762 Q295.8149 24.3418 295.9009 24.5215 Q295.9868 24.7012 296.1353 24.7949 Q296.2837 24.8887 296.5337 24.8887 Q296.8149 24.8887 297.0806 24.8418 L297.0806 26.1699 Q296.8618 26.2168 296.6821 26.2637 Q296.5024 26.3105 296.3306 26.3418 Q296.1587 26.373 295.9634 26.3887 Q295.7681 26.4043 295.5024 26.4043 Q294.5649 26.4043 294.1196 25.9434 Q293.6743 25.4824 293.5962 24.5918 L293.5337 24.5918 Q293.0493 25.4824 292.2759 25.9746 Q291.5024 26.4668 290.4087 26.4668 ZM293.2837 21.8887 L292.0181 21.9043 Q291.6274 21.9199 291.2681 21.9746 Q290.9087 22.0293 290.6431 22.1777 Q290.3774 22.3262 290.2212 22.6152 Q290.0649 22.9043 290.0649 23.4043 Q290.0649 24.0918 290.3774 24.4199 Q290.6899 24.748 291.2056 24.748 Q291.6743 24.748 292.0649 24.5449 Q292.4556 24.3418 292.7212 24.0137 Q292.9868 23.6855 293.1353 23.2559 Q293.2837 22.8262 293.2837 22.373 L293.2837 21.8887 ZM297.5601 26.2949 L297.5601 24.5449 L302.3101 18.5762 L297.9194 18.5762 L297.9194 16.7793 L305.0288 16.7793 L305.0288 18.5449 L300.3101 24.498 L305.4663 24.498 L305.4663 26.2949 L297.5601 26.2949 ZM307.2163 15.0762 L307.2163 13.248 L309.7007 13.248 L309.7007 15.0762 L307.2163 15.0762 ZM307.2163 26.2949 L307.2163 16.7793 L309.7007 16.7793 L309.7007 26.2949 L307.2163 26.2949 ZM318.3892 26.2949 L318.3892 20.9668 Q318.3892 20.4043 318.3032 19.9434 Q318.2173 19.4824 318.0142 19.1543 Q317.811 18.8262 317.4829 18.6387 Q317.1548 18.4512 316.686 18.4512 Q316.2485 18.4512 315.8813 18.6543 Q315.5142 18.8574 315.2485 19.2168 Q314.9829 19.5762 314.8423 20.084 Q314.7017 20.5918 314.7017 21.2012 L314.7017 26.2949 L312.2173 26.2949 L312.2173 18.9043 Q312.2173 18.6074 312.2173 18.2793 Q312.2173 17.9512 312.2017 17.6543 Q312.186 17.3574 312.1782 17.1309 Q312.1704 16.9043 312.1548 16.7793 L314.5142 16.7793 Q314.5298 16.8887 314.5454 17.123 Q314.561 17.3574 314.5767 17.6387 Q314.5923 17.9199 314.6079 18.2012 Q314.6235 18.4824 314.6235 18.6699 L314.6548 18.6699 Q315.1548 17.5918 315.9126 17.0996 Q316.6704 16.6074 317.7173 16.6074 Q318.5767 16.6074 319.1704 16.8887 Q319.7642 17.1699 320.1392 17.6621 Q320.5142 18.1543 320.6782 18.8184 Q320.8423 19.4824 320.8423 20.2637 L320.8423 26.2949 L318.3892 26.2949 ZM327.1968 30.1074 Q326.2593 30.1074 325.5405 29.9199 Q324.8218 29.7324 324.3218 29.3965 Q323.8218 29.0605 323.5171 28.584 Q323.2124 28.1074 323.103 27.5449 L325.5718 27.2637 Q325.6968 27.8262 326.1343 28.1543 Q326.5718 28.4824 327.2749 28.4824 Q327.7124 28.4824 328.0796 28.3574 Q328.4468 28.2324 328.7046 27.9434 Q328.9624 27.6543 329.103 27.1699 Q329.2437 26.6855 329.2437 25.9668 Q329.2437 25.7168 329.2437 25.4668 Q329.2437 25.2168 329.2593 24.998 Q329.2593 24.7637 329.2593 24.5293 L329.2437 24.5293 Q328.8218 25.4512 328.0405 25.8652 Q327.2593 26.2793 326.1968 26.2793 Q325.2905 26.2793 324.6343 25.9199 Q323.978 25.5605 323.5483 24.9277 Q323.1187 24.2949 322.9077 23.4121 Q322.6968 22.5293 322.6968 21.4668 Q322.6968 20.3574 322.9155 19.4668 Q323.1343 18.5762 323.5874 17.9355 Q324.0405 17.2949 324.7358 16.9512 Q325.4312 16.6074 326.3687 16.6074 Q327.3218 16.6074 328.0718 17.0059 Q328.8218 17.4043 329.2437 18.3105 L329.2905 18.3105 Q329.2905 18.123 329.3062 17.8809 Q329.3218 17.6387 329.3374 17.4199 Q329.353 17.2012 329.3765 17.0215 Q329.3999 16.8418 329.4155 16.7793 L331.7593 16.7793 Q331.7437 17.1074 331.7202 17.6777 Q331.6968 18.248 331.6968 18.9824 L331.6968 25.998 Q331.6968 27.0449 331.3999 27.8105 Q331.103 28.5762 330.5249 29.0918 Q329.9468 29.6074 329.1108 29.8574 Q328.2749 30.1074 327.1968 30.1074 ZM329.2593 21.4043 Q329.2593 20.5137 329.0874 19.9121 Q328.9155 19.3105 328.6343 18.9512 Q328.353 18.5918 327.9858 18.4434 Q327.6187 18.2949 327.2593 18.2949 Q326.7749 18.2949 326.4155 18.4824 Q326.0562 18.6699 325.7983 19.0527 Q325.5405 19.4355 325.4077 20.0371 Q325.2749 20.6387 325.2749 21.4668 Q325.2749 22.998 325.7671 23.7793 Q326.2593 24.5605 327.2437 24.5605 Q327.603 24.5605 327.9702 24.4199 Q328.3374 24.2793 328.6265 23.9121 Q328.9155 23.5449 329.0874 22.9355 Q329.2593 22.3262 329.2593 21.4043 ZM348.2085 21.498 Q348.2085 22.5762 347.9976 23.4902 Q347.7866 24.4043 347.3413 25.0605 Q346.896 25.7168 346.2007 26.0918 Q345.5054 26.4668 344.5679 26.4668 Q344.146 26.4668 343.7319 26.3809 Q343.3179 26.2949 342.9351 26.0996 Q342.5522 25.9043 342.2319 25.584 Q341.9116 25.2637 341.6929 24.7793 L341.6304 24.7793 Q341.646 24.8262 341.6538 25.0059 Q341.6616 25.1855 341.6694 25.4121 Q341.6772 25.6387 341.6851 25.9043 Q341.6929 26.1699 341.6929 26.3887 L341.6929 30.0293 L339.2085 30.0293 L339.2085 18.9668 Q339.2085 18.248 339.1929 17.6777 Q339.1772 17.1074 339.146 16.7793 L341.5522 16.7793 Q341.5679 16.8418 341.5835 17.0215 Q341.5991 17.2012 341.6147 17.4277 Q341.6304 17.6543 341.6382 17.9043 Q341.646 18.1543 341.646 18.3262 L341.6929 18.3262 Q342.1304 17.3887 342.9116 16.9824 Q343.6929 16.5762 344.7241 16.5762 Q345.6304 16.5762 346.2866 16.9512 Q346.9429 17.3262 347.3726 17.9746 Q347.8022 18.623 348.0054 19.5215 Q348.2085 20.4199 348.2085 21.498 ZM345.646 21.498 Q345.646 19.873 345.1538 19.084 Q344.6616 18.2949 343.6772 18.2949 Q343.3179 18.2949 342.9507 18.4512 Q342.5835 18.6074 342.2944 18.9824 Q342.0054 19.3574 341.8257 19.9824 Q341.646 20.6074 341.646 21.5605 Q341.646 22.498 341.8257 23.1152 Q342.0054 23.7324 342.2866 24.1074 Q342.5679 24.4824 342.9272 24.6309 Q343.2866 24.7793 343.6616 24.7793 Q344.1304 24.7793 344.5054 24.5918 Q344.8804 24.4043 345.1304 24.0059 Q345.3804 23.6074 345.5132 22.9824 Q345.646 22.3574 345.646 21.498 ZM350.2036 26.2949 L350.2036 19.0137 Q350.2036 18.7168 350.2036 18.373 Q350.2036 18.0293 350.188 17.7168 Q350.1724 17.4043 350.1646 17.1543 Q350.1567 16.9043 350.1411 16.7793 L352.5005 16.7793 Q352.5161 16.8887 352.5317 17.1465 Q352.5474 17.4043 352.563 17.7168 Q352.5786 18.0293 352.5942 18.3262 Q352.6099 18.623 352.6099 18.8105 L352.6411 18.8105 Q352.8286 18.2949 353.0161 17.8887 Q353.2036 17.4824 353.4536 17.1934 Q353.7036 16.9043 354.0552 16.7559 Q354.4067 16.6074 354.9224 16.6074 Q355.1411 16.6074 355.3599 16.6465 Q355.5786 16.6855 355.688 16.7324 L355.688 18.7949 Q355.4536 18.748 355.2114 18.709 Q354.9692 18.6699 354.6255 18.6699 Q353.7036 18.6699 353.1958 19.4121 Q352.688 20.1543 352.688 21.623 L352.688 26.2949 L350.2036 26.2949 ZM359.4116 26.4668 Q358.7241 26.4668 358.1851 26.2793 Q357.646 26.0918 357.271 25.7246 Q356.896 25.3574 356.6929 24.8262 Q356.4897 24.2949 356.4897 23.6074 Q356.4897 22.7637 356.7788 22.1855 Q357.0679 21.6074 357.5835 21.2559 Q358.0991 20.9043 358.7788 20.7402 Q359.4585 20.5762 360.2397 20.5605 L362.2866 20.5293 L362.2866 20.0449 Q362.2866 19.5293 362.1929 19.1777 Q362.0991 18.8262 361.9272 18.6074 Q361.7554 18.3887 361.4976 18.2949 Q361.2397 18.2012 360.896 18.2012 Q360.5835 18.2012 360.3491 18.2637 Q360.1147 18.3262 359.9351 18.4824 Q359.7554 18.6387 359.646 18.8965 Q359.5366 19.1543 359.4897 19.5605 L356.9116 19.4355 Q357.021 18.8105 357.3022 18.2949 Q357.5835 17.7793 358.0835 17.4043 Q358.5835 17.0293 359.3022 16.8184 Q360.021 16.6074 361.0054 16.6074 Q361.896 16.6074 362.5913 16.8262 Q363.2866 17.0449 363.7632 17.4824 Q364.2397 17.9199 364.4976 18.5527 Q364.7554 19.1855 364.7554 20.0137 L364.7554 23.4824 Q364.7554 23.8105 364.7866 24.0762 Q364.8179 24.3418 364.9038 24.5215 Q364.9897 24.7012 365.1382 24.7949 Q365.2866 24.8887 365.5366 24.8887 Q365.8179 24.8887 366.0835 24.8418 L366.0835 26.1699 Q365.8647 26.2168 365.6851 26.2637 Q365.5054 26.3105 365.3335 26.3418 Q365.1616 26.373 364.9663 26.3887 Q364.771 26.4043 364.5054 26.4043 Q363.5679 26.4043 363.1226 25.9434 Q362.6772 25.4824 362.5991 24.5918 L362.5366 24.5918 Q362.0522 25.4824 361.2788 25.9746 Q360.5054 26.4668 359.4116 26.4668 ZM362.2866 21.8887 L361.021 21.9043 Q360.6304 21.9199 360.271 21.9746 Q359.9116 22.0293 359.646 22.1777 Q359.3804 22.3262 359.2241 22.6152 Q359.0679 22.9043 359.0679 23.4043 Q359.0679 24.0918 359.3804 24.4199 Q359.6929 24.748 360.2085 24.748 Q360.6772 24.748 361.0679 24.5449 Q361.4585 24.3418 361.7241 24.0137 Q361.9897 23.6855 362.1382 23.2559 Q362.2866 22.8262 362.2866 22.373 L362.2866 21.8887 ZM371.188 26.4668 Q370.063 26.4668 369.2114 26.1152 Q368.3599 25.7637 367.7974 25.123 Q367.2349 24.4824 366.9536 23.584 Q366.6724 22.6855 366.6724 21.5918 Q366.6724 20.4043 366.9771 19.4746 Q367.2817 18.5449 367.8677 17.9121 Q368.4536 17.2793 369.2974 16.9434 Q370.1411 16.6074 371.2192 16.6074 Q372.1411 16.6074 372.8599 16.8574 Q373.5786 17.1074 374.1021 17.5293 Q374.6255 17.9512 374.9458 18.5293 Q375.2661 19.1074 375.3755 19.7793 L372.8911 19.9043 Q372.7974 19.1699 372.3755 18.7402 Q371.9536 18.3105 371.1724 18.3105 Q370.1724 18.3105 369.7192 19.123 Q369.2661 19.9355 369.2661 21.498 Q369.2661 24.7793 371.2036 24.7793 Q371.9067 24.7793 372.3833 24.334 Q372.8599 23.8887 372.9692 23.0137 L375.4536 23.123 Q375.3599 23.7949 375.0474 24.3965 Q374.7349 24.998 374.2036 25.459 Q373.6724 25.9199 372.9224 26.1934 Q372.1724 26.4668 371.188 26.4668 ZM379.6675 26.4512 Q378.5894 26.4512 377.9956 25.8574 Q377.4019 25.2637 377.4019 24.0605 L377.4019 18.4512 L376.1987 18.4512 L376.1987 16.7793 L377.5269 16.7793 L378.3081 14.5449 L379.855 14.5449 L379.855 16.7793 L381.6519 16.7793 L381.6519 18.4512 L379.855 18.4512 L379.855 23.3887 Q379.855 24.0918 380.1128 24.4199 Q380.3706 24.748 380.9331 24.748 Q381.1519 24.748 381.3394 24.709 Q381.5269 24.6699 381.7612 24.623 L381.7612 26.1543 Q381.2925 26.3105 380.7847 26.3809 Q380.2769 26.4512 379.6675 26.4512 ZM383.2241 15.0762 L383.2241 13.248 L385.7085 13.248 L385.7085 15.0762 L383.2241 15.0762 ZM383.2241 26.2949 L383.2241 16.7793 L385.7085 16.7793 L385.7085 26.2949 L383.2241 26.2949 ZM392.1938 26.4668 Q391.0688 26.4668 390.2173 26.1152 Q389.3657 25.7637 388.8032 25.123 Q388.2407 24.4824 387.9595 23.584 Q387.6782 22.6855 387.6782 21.5918 Q387.6782 20.4043 387.9829 19.4746 Q388.2876 18.5449 388.8735 17.9121 Q389.4595 17.2793 390.3032 16.9434 Q391.147 16.6074 392.2251 16.6074 Q393.147 16.6074 393.8657 16.8574 Q394.5845 17.1074 395.1079 17.5293 Q395.6313 17.9512 395.9517 18.5293 Q396.272 19.1074 396.3813 19.7793 L393.897 19.9043 Q393.8032 19.1699 393.3813 18.7402 Q392.9595 18.3105 392.1782 18.3105 Q391.1782 18.3105 390.7251 19.123 Q390.272 19.9355 390.272 21.498 Q390.272 24.7793 392.2095 24.7793 Q392.9126 24.7793 393.3892 24.334 Q393.8657 23.8887 393.9751 23.0137 L396.4595 23.123 Q396.3657 23.7949 396.0532 24.3965 Q395.7407 24.998 395.2095 25.459 Q394.6782 25.9199 393.9282 26.1934 Q393.1782 26.4668 392.1938 26.4668 ZM402.1421 26.4668 Q401.1108 26.4668 400.2905 26.1621 Q399.4702 25.8574 398.8843 25.2402 Q398.2983 24.623 397.9937 23.6855 Q397.689 22.748 397.689 21.498 Q397.689 20.1387 398.0562 19.2012 Q398.4233 18.2637 399.0405 17.6934 Q399.6577 17.123 400.4702 16.8652 Q401.2827 16.6074 402.1733 16.6074 Q403.2983 16.6074 404.0952 16.998 Q404.8921 17.3887 405.3999 18.0918 Q405.9077 18.7949 406.1421 19.7793 Q406.3765 20.7637 406.3765 21.9512 L406.3765 22.0137 L400.2827 22.0137 Q400.2827 22.6074 400.3843 23.123 Q400.4858 23.6387 400.728 24.0137 Q400.9702 24.3887 401.3452 24.5996 Q401.7202 24.8105 402.2671 24.8105 Q402.9077 24.8105 403.3218 24.5371 Q403.7358 24.2637 403.9077 23.6855 L406.2358 23.8887 Q406.0796 24.2949 405.7983 24.748 Q405.5171 25.2012 405.0405 25.584 Q404.564 25.9668 403.853 26.2168 Q403.1421 26.4668 402.1421 26.4668 ZM402.1421 18.1699 Q401.7515 18.1699 401.4233 18.2949 Q401.0952 18.4199 400.853 18.6934 Q400.6108 18.9668 400.4624 19.4121 Q400.314 19.8574 400.2983 20.4668 L403.9858 20.4668 Q403.9233 19.3105 403.439 18.7402 Q402.9546 18.1699 402.1421 18.1699 ZM421.2632 23.5137 Q421.2632 24.2012 420.9819 24.748 Q420.7007 25.2949 420.1538 25.6777 Q419.6069 26.0605 418.8179 26.2637 Q418.0288 26.4668 417.0132 26.4668 Q416.1069 26.4668 415.3804 26.334 Q414.6538 26.2012 414.1069 25.9043 Q413.5601 25.6074 413.1851 25.123 Q412.8101 24.6387 412.6382 23.9199 L414.7944 23.5918 Q414.9038 23.998 415.0913 24.2402 Q415.2788 24.4824 415.5522 24.6152 Q415.8257 24.748 416.1851 24.7949 Q416.5444 24.8418 417.0132 24.8418 Q417.4351 24.8418 417.8022 24.7871 Q418.1694 24.7324 418.4351 24.6152 Q418.7007 24.498 418.8491 24.2871 Q418.9976 24.0762 418.9976 23.748 Q418.9976 23.373 418.7866 23.1621 Q418.5757 22.9512 418.2007 22.8105 Q417.8257 22.6699 417.3179 22.5684 Q416.8101 22.4668 416.2476 22.3418 Q415.6382 22.2012 415.0601 22.0215 Q414.4819 21.8418 414.0288 21.5215 Q413.5757 21.2012 413.2944 20.7168 Q413.0132 20.2324 413.0132 19.4824 Q413.0132 18.8105 413.271 18.2793 Q413.5288 17.748 414.0444 17.373 Q414.5601 16.998 415.3101 16.8027 Q416.0601 16.6074 417.0288 16.6074 Q417.8101 16.6074 418.4741 16.748 Q419.1382 16.8887 419.6694 17.2012 Q420.2007 17.5137 420.5522 17.998 Q420.9038 18.4824 421.0444 19.1699 L418.8569 19.3887 Q418.7944 19.0449 418.6382 18.8262 Q418.4819 18.6074 418.2476 18.4746 Q418.0132 18.3418 417.7085 18.2949 Q417.4038 18.248 417.0288 18.248 Q416.1538 18.248 415.7163 18.4668 Q415.2788 18.6855 415.2788 19.2168 Q415.2788 19.5449 415.4585 19.7402 Q415.6382 19.9355 415.9663 20.0605 Q416.2944 20.1855 416.7476 20.2793 Q417.2007 20.373 417.7319 20.498 Q418.4038 20.6387 419.0366 20.8262 Q419.6694 21.0137 420.1694 21.3496 Q420.6694 21.6855 420.9663 22.2012 Q421.2632 22.7168 421.2632 23.5137 ZM428.1646 26.7949 Q427.8208 27.6387 427.4692 28.2402 Q427.1177 28.8418 426.688 29.2402 Q426.2583 29.6387 425.7271 29.834 Q425.1958 30.0293 424.4927 30.0293 Q424.1021 30.0293 423.7036 30.0059 Q423.3052 29.9824 422.9458 29.9199 L422.9458 28.1543 Q423.1177 28.1855 423.3677 28.209 Q423.6177 28.2324 423.7896 28.2324 Q424.1489 28.2324 424.4302 28.1543 Q424.7114 28.0762 424.9458 27.8887 Q425.1802 27.7012 425.3755 27.3965 Q425.5708 27.0918 425.7583 26.623 L425.9146 26.2012 L422.1489 16.7793 L424.7583 16.7793 L426.2583 21.248 Q426.2896 21.3418 426.3677 21.5684 Q426.4458 21.7949 426.5317 22.0918 Q426.6177 22.3887 426.7192 22.709 Q426.8208 23.0293 426.9067 23.3262 Q426.9927 23.623 427.0552 23.8496 Q427.1177 24.0762 427.1489 24.1699 Q427.1646 24.0762 427.2271 23.8574 Q427.2896 23.6387 427.3599 23.3496 Q427.4302 23.0605 427.5161 22.7402 Q427.6021 22.4199 427.6802 22.1309 Q427.7583 21.8418 427.8286 21.6152 Q427.8989 21.3887 427.9302 21.2793 L429.3364 16.7793 L431.9302 16.7793 L428.1646 26.7949 ZM441.2847 23.5137 Q441.2847 24.2012 441.0034 24.748 Q440.7222 25.2949 440.1753 25.6777 Q439.6284 26.0605 438.8394 26.2637 Q438.0503 26.4668 437.0347 26.4668 Q436.1284 26.4668 435.4019 26.334 Q434.6753 26.2012 434.1284 25.9043 Q433.5815 25.6074 433.2065 25.123 Q432.8315 24.6387 432.6597 23.9199 L434.8159 23.5918 Q434.9253 23.998 435.1128 24.2402 Q435.3003 24.4824 435.5737 24.6152 Q435.8472 24.748 436.2065 24.7949 Q436.5659 24.8418 437.0347 24.8418 Q437.4565 24.8418 437.8237 24.7871 Q438.1909 24.7324 438.4565 24.6152 Q438.7222 24.498 438.8706 24.2871 Q439.019 24.0762 439.019 23.748 Q439.019 23.373 438.8081 23.1621 Q438.5972 22.9512 438.2222 22.8105 Q437.8472 22.6699 437.3394 22.5684 Q436.8315 22.4668 436.269 22.3418 Q435.6597 22.2012 435.0815 22.0215 Q434.5034 21.8418 434.0503 21.5215 Q433.5972 21.2012 433.3159 20.7168 Q433.0347 20.2324 433.0347 19.4824 Q433.0347 18.8105 433.2925 18.2793 Q433.5503 17.748 434.0659 17.373 Q434.5815 16.998 435.3315 16.8027 Q436.0815 16.6074 437.0503 16.6074 Q437.8315 16.6074 438.4956 16.748 Q439.1597 16.8887 439.6909 17.2012 Q440.2222 17.5137 440.5737 17.998 Q440.9253 18.4824 441.0659 19.1699 L438.8784 19.3887 Q438.8159 19.0449 438.6597 18.8262 Q438.5034 18.6074 438.269 18.4746 Q438.0347 18.3418 437.73 18.2949 Q437.4253 18.248 437.0503 18.248 Q436.1753 18.248 435.7378 18.4668 Q435.3003 18.6855 435.3003 19.2168 Q435.3003 19.5449 435.48 19.7402 Q435.6597 19.9355 435.9878 20.0605 Q436.3159 20.1855 436.769 20.2793 Q437.2222 20.373 437.7534 20.498 Q438.4253 20.6387 439.0581 20.8262 Q439.6909 21.0137 440.1909 21.3496 Q440.6909 21.6855 440.9878 22.2012 Q441.2847 22.7168 441.2847 23.5137 ZM445.7173 26.4512 Q444.6392 26.4512 444.0454 25.8574 Q443.4517 25.2637 443.4517 24.0605 L443.4517 18.4512 L442.2485 18.4512 L442.2485 16.7793 L443.5767 16.7793 L444.3579 14.5449 L445.9048 14.5449 L445.9048 16.7793 L447.7017 16.7793 L447.7017 18.4512 L445.9048 18.4512 L445.9048 23.3887 Q445.9048 24.0918 446.1626 24.4199 Q446.4204 24.748 446.9829 24.748 Q447.2017 24.748 447.3892 24.709 Q447.5767 24.6699 447.811 24.623 L447.811 26.1543 Q447.3423 26.3105 446.8345 26.3809 Q446.3267 26.4512 445.7173 26.4512 ZM453.1802 26.4668 Q452.1489 26.4668 451.3286 26.1621 Q450.5083 25.8574 449.9224 25.2402 Q449.3364 24.623 449.0317 23.6855 Q448.7271 22.748 448.7271 21.498 Q448.7271 20.1387 449.0942 19.2012 Q449.4614 18.2637 450.0786 17.6934 Q450.6958 17.123 451.5083 16.8652 Q452.3208 16.6074 453.2114 16.6074 Q454.3364 16.6074 455.1333 16.998 Q455.9302 17.3887 456.438 18.0918 Q456.9458 18.7949 457.1802 19.7793 Q457.4146 20.7637 457.4146 21.9512 L457.4146 22.0137 L451.3208 22.0137 Q451.3208 22.6074 451.4224 23.123 Q451.5239 23.6387 451.7661 24.0137 Q452.0083 24.3887 452.3833 24.5996 Q452.7583 24.8105 453.3052 24.8105 Q453.9458 24.8105 454.3599 24.5371 Q454.7739 24.2637 454.9458 23.6855 L457.2739 23.8887 Q457.1177 24.2949 456.8364 24.748 Q456.5552 25.2012 456.0786 25.584 Q455.6021 25.9668 454.8911 26.2168 Q454.1802 26.4668 453.1802 26.4668 ZM453.1802 18.1699 Q452.7896 18.1699 452.4614 18.2949 Q452.1333 18.4199 451.8911 18.6934 Q451.6489 18.9668 451.5005 19.4121 Q451.3521 19.8574 451.3364 20.4668 L455.0239 20.4668 Q454.9614 19.3105 454.4771 18.7402 Q453.9927 18.1699 453.1802 18.1699 ZM464.894 26.2949 L464.894 20.9668 Q464.894 20.4043 464.8159 19.9434 Q464.7378 19.4824 464.5659 19.1543 Q464.394 18.8262 464.1206 18.6387 Q463.8472 18.4512 463.4565 18.4512 Q463.0659 18.4512 462.7612 18.6543 Q462.4565 18.8574 462.23 19.2168 Q462.0034 19.5762 461.8862 20.084 Q461.769 20.5918 461.769 21.2012 L461.769 26.2949 L459.2847 26.2949 L459.2847 18.9043 Q459.2847 18.6074 459.2847 18.2793 Q459.2847 17.9512 459.269 17.6543 Q459.2534 17.3574 459.2456 17.1309 Q459.2378 16.9043 459.2222 16.7793 L461.5815 16.7793 Q461.5972 16.8887 461.6128 17.123 Q461.6284 17.3574 461.644 17.6387 Q461.6597 17.9199 461.6753 18.2012 Q461.6909 18.4824 461.6909 18.6699 L461.7222 18.6699 Q462.1909 17.5918 462.8706 17.0996 Q463.5503 16.6074 464.4878 16.6074 Q465.5815 16.6074 466.2456 17.1387 Q466.9097 17.6699 467.144 18.6699 L467.1909 18.6699 Q467.4409 18.0918 467.7378 17.6934 Q468.0347 17.2949 468.394 17.0527 Q468.7534 16.8105 469.1675 16.709 Q469.5815 16.6074 470.0815 16.6074 Q470.8628 16.6074 471.4019 16.8887 Q471.9409 17.1699 472.2769 17.6621 Q472.6128 18.1543 472.769 18.8184 Q472.9253 19.4824 472.9253 20.2637 L472.9253 26.2949 L470.4722 26.2949 L470.4722 20.9668 Q470.4722 20.4043 470.394 19.9434 Q470.3159 19.4824 470.144 19.1543 Q469.9722 18.8262 469.6987 18.6387 Q469.4253 18.4512 469.0347 18.4512 Q468.6597 18.4512 468.355 18.6387 Q468.0503 18.8262 467.8315 19.1777 Q467.6128 19.5293 467.4878 20.0137 Q467.3628 20.498 467.3472 21.0762 L467.3472 26.2949 L464.894 26.2949 ZM483.3052 23.5137 Q483.3052 24.2012 483.0239 24.748 Q482.7427 25.2949 482.1958 25.6777 Q481.6489 26.0605 480.8599 26.2637 Q480.0708 26.4668 479.0552 26.4668 Q478.1489 26.4668 477.4224 26.334 Q476.6958 26.2012 476.1489 25.9043 Q475.6021 25.6074 475.2271 25.123 Q474.8521 24.6387 474.6802 23.9199 L476.8364 23.5918 Q476.9458 23.998 477.1333 24.2402 Q477.3208 24.4824 477.5942 24.6152 Q477.8677 24.748 478.2271 24.7949 Q478.5864 24.8418 479.0552 24.8418 Q479.4771 24.8418 479.8442 24.7871 Q480.2114 24.7324 480.4771 24.6152 Q480.7427 24.498 480.8911 24.2871 Q481.0396 24.0762 481.0396 23.748 Q481.0396 23.373 480.8286 23.1621 Q480.6177 22.9512 480.2427 22.8105 Q479.8677 22.6699 479.3599 22.5684 Q478.8521 22.4668 478.2896 22.3418 Q477.6802 22.2012 477.1021 22.0215 Q476.5239 21.8418 476.0708 21.5215 Q475.6177 21.2012 475.3364 20.7168 Q475.0552 20.2324 475.0552 19.4824 Q475.0552 18.8105 475.313 18.2793 Q475.5708 17.748 476.0864 17.373 Q476.6021 16.998 477.3521 16.8027 Q478.1021 16.6074 479.0708 16.6074 Q479.8521 16.6074 480.5161 16.748 Q481.1802 16.8887 481.7114 17.2012 Q482.2427 17.5137 482.5942 17.998 Q482.9458 18.4824 483.0864 19.1699 L480.8989 19.3887 Q480.8364 19.0449 480.6802 18.8262 Q480.5239 18.6074 480.2896 18.4746 Q480.0552 18.3418 479.7505 18.2949 Q479.4458 18.248 479.0708 18.248 Q478.1958 18.248 477.7583 18.4668 Q477.3208 18.6855 477.3208 19.2168 Q477.3208 19.5449 477.5005 19.7402 Q477.6802 19.9355 478.0083 20.0605 Q478.3364 20.1855 478.7896 20.2793 Q479.2427 20.373 479.7739 20.498 Q480.4458 20.6387 481.0786 20.8262 Q481.7114 21.0137 482.2114 21.3496 Q482.7114 21.6855 483.0083 22.2012 Q483.3052 22.7168 483.3052 23.5137 Z"/></g><g style="font-weight:bold; font-family:sans-serif; text-rendering:optimizeLegibility;"><path style="clip-path:url(#clipPath1); stroke:none;" d="M311.7578 491.9756 L316.7578 486.9756 L321.7578 486.9756 L313.5078 495.2256 L311.7578 495.2256 ZM318.5078 495.2256 L326.7578 486.9756 L327.5586 486.9756 L327.5586 491.1748 L323.5078 495.2256 Z"/><path style="clip-path:url(#clipPath1); stroke:none;" d="M330.0352 495.0645 L330.0352 493.9238 Q330.3164 493.2988 330.7148 492.8066 Q331.1133 492.3145 331.5586 491.9004 Q332.0039 491.4863 332.4414 491.1348 Q332.8789 490.7832 333.2305 490.4473 Q333.582 490.1113 333.793 489.7832 Q334.0039 489.4551 334.0039 489.0801 Q334.0039 488.5176 333.7305 488.2598 Q333.457 488.002 332.9258 488.002 Q332.3945 488.002 332.1211 488.2832 Q331.8477 488.5645 331.7539 489.127 L330.0977 489.0332 Q330.1602 488.5488 330.3398 488.127 Q330.5195 487.7051 330.8555 487.377 Q331.1914 487.0488 331.6992 486.8691 Q332.207 486.6895 332.9102 486.6895 Q333.582 486.6895 334.0977 486.8457 Q334.6133 487.002 334.9648 487.2988 Q335.3164 487.5957 335.4961 488.0254 Q335.6758 488.4551 335.6758 489.002 Q335.6758 489.5801 335.4492 490.0488 Q335.2227 490.5176 334.8633 490.916 Q334.5039 491.3145 334.0664 491.6582 Q333.6289 492.002 333.2227 492.3301 Q332.8164 492.6582 332.4805 492.9941 Q332.1445 493.3301 331.9727 493.7051 L335.8008 493.7051 L335.8008 495.0645 L330.0352 495.0645 ZM342.4746 490.9395 Q342.4746 492.1113 342.2559 492.9238 Q342.0371 493.7363 341.6543 494.2363 Q341.2715 494.7363 340.748 494.9629 Q340.2246 495.1895 339.5996 495.1895 Q338.9746 495.1895 338.4512 494.9707 Q337.9277 494.752 337.5527 494.252 Q337.1777 493.752 336.9668 492.9395 Q336.7559 492.127 336.7559 490.9395 Q336.7559 489.6895 336.9668 488.8691 Q337.1777 488.0488 337.5605 487.5645 Q337.9434 487.0801 338.4746 486.8848 Q339.0059 486.6895 339.6465 486.6895 Q340.2559 486.6895 340.7715 486.8848 Q341.2871 487.0801 341.6621 487.5645 Q342.0371 488.0488 342.2559 488.8691 Q342.4746 489.6895 342.4746 490.9395 ZM340.8184 490.9395 Q340.8184 490.0645 340.7559 489.4941 Q340.6934 488.9238 340.5527 488.5801 Q340.4121 488.2363 340.1855 488.1035 Q339.959 487.9707 339.6309 487.9707 Q339.2871 487.9707 339.0527 488.1113 Q338.8184 488.252 338.6777 488.5879 Q338.5371 488.9238 338.4746 489.4941 Q338.4121 490.0645 338.4121 490.9395 Q338.4121 491.7832 338.4746 492.3535 Q338.5371 492.9238 338.6777 493.2676 Q338.8184 493.6113 339.0449 493.752 Q339.2715 493.8926 339.6152 493.8926 Q339.9277 493.8926 340.1621 493.752 Q340.3965 493.6113 340.5371 493.2676 Q340.6777 492.9238 340.748 492.3535 Q340.8184 491.7832 340.8184 490.9395 ZM349.1484 490.9395 Q349.1484 492.1113 348.9297 492.9238 Q348.7109 493.7363 348.3281 494.2363 Q347.9453 494.7363 347.4219 494.9629 Q346.8984 495.1895 346.2734 495.1895 Q345.6484 495.1895 345.125 494.9707 Q344.6016 494.752 344.2266 494.252 Q343.8516 493.752 343.6406 492.9395 Q343.4297 492.127 343.4297 490.9395 Q343.4297 489.6895 343.6406 488.8691 Q343.8516 488.0488 344.2344 487.5645 Q344.6172 487.0801 345.1484 486.8848 Q345.6797 486.6895 346.3203 486.6895 Q346.9297 486.6895 347.4453 486.8848 Q347.9609 487.0801 348.3359 487.5645 Q348.7109 488.0488 348.9297 488.8691 Q349.1484 489.6895 349.1484 490.9395 ZM347.4922 490.9395 Q347.4922 490.0645 347.4297 489.4941 Q347.3672 488.9238 347.2266 488.5801 Q347.0859 488.2363 346.8594 488.1035 Q346.6328 487.9707 346.3047 487.9707 Q345.9609 487.9707 345.7266 488.1113 Q345.4922 488.252 345.3516 488.5879 Q345.2109 488.9238 345.1484 489.4941 Q345.0859 490.0645 345.0859 490.9395 Q345.0859 491.7832 345.1484 492.3535 Q345.2109 492.9238 345.3516 493.2676 Q345.4922 493.6113 345.7188 493.752 Q345.9453 493.8926 346.2891 493.8926 Q346.6016 493.8926 346.8359 493.752 Q347.0703 493.6113 347.2109 493.2676 Q347.3516 492.9238 347.4219 492.3535 Q347.4922 491.7832 347.4922 490.9395 ZM355.9473 492.7363 Q355.9473 493.2676 355.7676 493.7207 Q355.5879 494.1738 355.2285 494.4941 Q354.8691 494.8145 354.3066 495.002 Q353.7441 495.1895 352.9785 495.1895 Q352.2129 495.1895 351.6582 495.002 Q351.1035 494.8145 350.7363 494.4941 Q350.3691 494.1738 350.1895 493.7285 Q350.0098 493.2832 350.0098 492.752 Q350.0098 492.2988 350.1504 491.9473 Q350.291 491.5957 350.5254 491.3457 Q350.7598 491.0957 351.0645 490.9473 Q351.3691 490.7988 351.6973 490.752 L351.6973 490.7207 Q351.3535 490.6426 351.0801 490.4707 Q350.8066 490.2988 350.6113 490.0488 Q350.416 489.7988 350.3145 489.502 Q350.2129 489.2051 350.2129 488.877 Q350.2129 488.377 350.3926 487.9707 Q350.5723 487.5645 350.916 487.2832 Q351.2598 487.002 351.7754 486.8457 Q352.291 486.6895 352.9629 486.6895 Q353.6816 486.6895 354.2051 486.8457 Q354.7285 487.002 355.0645 487.291 Q355.4004 487.5801 355.5645 487.9863 Q355.7285 488.3926 355.7285 488.877 Q355.7285 489.2051 355.627 489.5098 Q355.5254 489.8145 355.3379 490.0566 Q355.1504 490.2988 354.8691 490.4707 Q354.5879 490.6426 354.2285 490.7051 L354.2285 490.7363 Q354.6035 490.7988 354.916 490.9473 Q355.2285 491.0957 355.4551 491.3457 Q355.6816 491.5957 355.8145 491.9473 Q355.9473 492.2988 355.9473 492.7363 ZM354.041 488.9707 Q354.041 488.7207 353.9863 488.5176 Q353.9316 488.3145 353.8145 488.1582 Q353.6973 488.002 353.4863 487.9238 Q353.2754 487.8457 352.9629 487.8457 Q352.6504 487.8457 352.4473 487.9238 Q352.2441 488.002 352.1191 488.1582 Q351.9941 488.3145 351.9395 488.5176 Q351.8848 488.7207 351.8848 488.9707 Q351.8848 489.1895 351.9316 489.4004 Q351.9785 489.6113 352.0957 489.7754 Q352.2129 489.9395 352.4238 490.0488 Q352.6348 490.1582 352.9629 490.1582 Q353.3223 490.1582 353.5332 490.0488 Q353.7441 489.9395 353.8613 489.7676 Q353.9785 489.5957 354.0098 489.3848 Q354.041 489.1738 354.041 488.9707 ZM354.2285 492.5957 Q354.2285 492.3457 354.1738 492.1113 Q354.1191 491.877 353.9785 491.6973 Q353.8379 491.5176 353.5879 491.416 Q353.3379 491.3145 352.9473 491.3145 Q352.5879 491.3145 352.3535 491.416 Q352.1191 491.5176 351.9785 491.7051 Q351.8379 491.8926 351.7754 492.127 Q351.7129 492.3613 351.7129 492.627 Q351.7129 492.9395 351.7754 493.1973 Q351.8379 493.4551 351.9863 493.6348 Q352.1348 493.8145 352.377 493.916 Q352.6191 494.0176 352.9941 494.0176 Q353.3691 494.0176 353.6035 493.916 Q353.8379 493.8145 353.9785 493.627 Q354.1191 493.4395 354.1738 493.1816 Q354.2285 492.9238 354.2285 492.5957 ZM356.7773 492.6738 L356.7773 491.2363 L359.8242 491.2363 L359.8242 492.6738 L356.7773 492.6738 ZM360.7266 495.0645 L360.7266 493.9238 Q361.0078 493.2988 361.4062 492.8066 Q361.8047 492.3145 362.25 491.9004 Q362.6953 491.4863 363.1328 491.1348 Q363.5703 490.7832 363.9219 490.4473 Q364.2734 490.1113 364.4844 489.7832 Q364.6953 489.4551 364.6953 489.0801 Q364.6953 488.5176 364.4219 488.2598 Q364.1484 488.002 363.6172 488.002 Q363.0859 488.002 362.8125 488.2832 Q362.5391 488.5645 362.4453 489.127 L360.7891 489.0332 Q360.8516 488.5488 361.0312 488.127 Q361.2109 487.7051 361.5469 487.377 Q361.8828 487.0488 362.3906 486.8691 Q362.8984 486.6895 363.6016 486.6895 Q364.2734 486.6895 364.7891 486.8457 Q365.3047 487.002 365.6562 487.2988 Q366.0078 487.5957 366.1875 488.0254 Q366.3672 488.4551 366.3672 489.002 Q366.3672 489.5801 366.1406 490.0488 Q365.9141 490.5176 365.5547 490.916 Q365.1953 491.3145 364.7578 491.6582 Q364.3203 492.002 363.9141 492.3301 Q363.5078 492.6582 363.1719 492.9941 Q362.8359 493.3301 362.6641 493.7051 L366.4922 493.7051 L366.4922 495.0645 L360.7266 495.0645 ZM373.166 490.9395 Q373.166 492.1113 372.9473 492.9238 Q372.7285 493.7363 372.3457 494.2363 Q371.9629 494.7363 371.4395 494.9629 Q370.916 495.1895 370.291 495.1895 Q369.666 495.1895 369.1426 494.9707 Q368.6191 494.752 368.2441 494.252 Q367.8691 493.752 367.6582 492.9395 Q367.4473 492.127 367.4473 490.9395 Q367.4473 489.6895 367.6582 488.8691 Q367.8691 488.0488 368.252 487.5645 Q368.6348 487.0801 369.166 486.8848 Q369.6973 486.6895 370.3379 486.6895 Q370.9473 486.6895 371.4629 486.8848 Q371.9785 487.0801 372.3535 487.5645 Q372.7285 488.0488 372.9473 488.8691 Q373.166 489.6895 373.166 490.9395 ZM371.5098 490.9395 Q371.5098 490.0645 371.4473 489.4941 Q371.3848 488.9238 371.2441 488.5801 Q371.1035 488.2363 370.877 488.1035 Q370.6504 487.9707 370.3223 487.9707 Q369.9785 487.9707 369.7441 488.1113 Q369.5098 488.252 369.3691 488.5879 Q369.2285 488.9238 369.166 489.4941 Q369.1035 490.0645 369.1035 490.9395 Q369.1035 491.7832 369.166 492.3535 Q369.2285 492.9238 369.3691 493.2676 Q369.5098 493.6113 369.7363 493.752 Q369.9629 493.8926 370.3066 493.8926 Q370.6191 493.8926 370.8535 493.752 Q371.0879 493.6113 371.2285 493.2676 Q371.3691 492.9238 371.4395 492.3535 Q371.5098 491.7832 371.5098 490.9395 ZM379.8398 490.9395 Q379.8398 492.1113 379.6211 492.9238 Q379.4023 493.7363 379.0195 494.2363 Q378.6367 494.7363 378.1133 494.9629 Q377.5898 495.1895 376.9648 495.1895 Q376.3398 495.1895 375.8164 494.9707 Q375.293 494.752 374.918 494.252 Q374.543 493.752 374.332 492.9395 Q374.1211 492.127 374.1211 490.9395 Q374.1211 489.6895 374.332 488.8691 Q374.543 488.0488 374.9258 487.5645 Q375.3086 487.0801 375.8398 486.8848 Q376.3711 486.6895 377.0117 486.6895 Q377.6211 486.6895 378.1367 486.8848 Q378.6523 487.0801 379.0273 487.5645 Q379.4023 488.0488 379.6211 488.8691 Q379.8398 489.6895 379.8398 490.9395 ZM378.1836 490.9395 Q378.1836 490.0645 378.1211 489.4941 Q378.0586 488.9238 377.918 488.5801 Q377.7773 488.2363 377.5508 488.1035 Q377.3242 487.9707 376.9961 487.9707 Q376.6523 487.9707 376.418 488.1113 Q376.1836 488.252 376.043 488.5879 Q375.9023 488.9238 375.8398 489.4941 Q375.7773 490.0645 375.7773 490.9395 Q375.7773 491.7832 375.8398 492.3535 Q375.9023 492.9238 376.043 493.2676 Q376.1836 493.6113 376.4102 493.752 Q376.6367 493.8926 376.9805 493.8926 Q377.293 493.8926 377.5273 493.752 Q377.7617 493.6113 377.9023 493.2676 Q378.043 492.9238 378.1133 492.3535 Q378.1836 491.7832 378.1836 490.9395 ZM386.5605 490.7988 Q386.5605 493.002 385.7559 494.0957 Q384.9512 495.1895 383.4668 495.1895 Q382.9355 495.1895 382.5137 495.0723 Q382.0918 494.9551 381.7715 494.7207 Q381.4512 494.4863 381.2324 494.1191 Q381.0137 493.752 380.8887 493.2363 L382.4355 493.0176 Q382.5605 493.4707 382.8262 493.6816 Q383.0918 493.8926 383.498 493.8926 Q383.8262 493.8926 384.0918 493.7285 Q384.3574 493.5645 384.5449 493.2441 Q384.7324 492.9238 384.834 492.4316 Q384.9355 491.9395 384.9355 491.2676 Q384.8262 491.4863 384.6309 491.666 Q384.4355 491.8457 384.1934 491.9629 Q383.9512 492.0801 383.6777 492.1426 Q383.4043 492.2051 383.123 492.2051 Q382.5762 492.2051 382.1387 492.0098 Q381.7012 491.8145 381.3887 491.4551 Q381.0762 491.0957 380.9121 490.5957 Q380.748 490.0957 380.748 489.4551 Q380.748 488.7988 380.9434 488.2832 Q381.1387 487.7676 381.5059 487.4082 Q381.873 487.0488 382.4121 486.8691 Q382.9512 486.6895 383.623 486.6895 Q384.3418 486.6895 384.8887 486.9316 Q385.4355 487.1738 385.8027 487.6816 Q386.1699 488.1895 386.3652 488.9629 Q386.5605 489.7363 386.5605 490.7988 ZM384.8105 489.6426 Q384.8105 489.2988 384.7324 488.9941 Q384.6543 488.6895 384.498 488.4629 Q384.3418 488.2363 384.1152 488.1035 Q383.8887 487.9707 383.5918 487.9707 Q383.3105 487.9707 383.0918 488.0723 Q382.873 488.1738 382.7246 488.3691 Q382.5762 488.5645 382.498 488.8379 Q382.4199 489.1113 382.4199 489.4551 Q382.4199 489.7832 382.4902 490.0645 Q382.5605 490.3457 382.709 490.5488 Q382.8574 490.752 383.084 490.8613 Q383.3105 490.9707 383.5918 490.9707 Q383.8262 490.9707 384.0449 490.8926 Q384.2637 490.8145 384.4355 490.6504 Q384.6074 490.4863 384.709 490.2363 Q384.8105 489.9863 384.8105 489.6426 Z"/></g><g style="font-weight:bold; font-family:sans-serif; text-rendering:optimizeLegibility;"><path style="clip-path:url(#clipPath1); stroke:none;" d="M411.0547 486.9756 L426.8555 486.9756 L426.8555 495.2256 L411.0547 495.2256 L411.0547 486.9756 Z"/><path style="clip-path:url(#clipPath1); stroke:none;" d="M429.332 495.0645 L429.332 493.9238 Q429.6133 493.2988 430.0117 492.8066 Q430.4102 492.3145 430.8555 491.9004 Q431.3008 491.4863 431.7383 491.1348 Q432.1758 490.7832 432.5273 490.4473 Q432.8789 490.1113 433.0898 489.7832 Q433.3008 489.4551 433.3008 489.0801 Q433.3008 488.5176 433.0273 488.2598 Q432.7539 488.002 432.2227 488.002 Q431.6914 488.002 431.418 488.2832 Q431.1445 488.5645 431.0508 489.127 L429.3945 489.0332 Q429.457 488.5488 429.6367 488.127 Q429.8164 487.7051 430.1523 487.377 Q430.4883 487.0488 430.9961 486.8691 Q431.5039 486.6895 432.207 486.6895 Q432.8789 486.6895 433.3945 486.8457 Q433.9102 487.002 434.2617 487.2988 Q434.6133 487.5957 434.793 488.0254 Q434.9727 488.4551 434.9727 489.002 Q434.9727 489.5801 434.7461 490.0488 Q434.5195 490.5176 434.1602 490.916 Q433.8008 491.3145 433.3633 491.6582 Q432.9258 492.002 432.5195 492.3301 Q432.1133 492.6582 431.7773 492.9941 Q431.4414 493.3301 431.2695 493.7051 L435.0977 493.7051 L435.0977 495.0645 L429.332 495.0645 ZM441.7715 490.9395 Q441.7715 492.1113 441.5527 492.9238 Q441.334 493.7363 440.9512 494.2363 Q440.5684 494.7363 440.0449 494.9629 Q439.5215 495.1895 438.8965 495.1895 Q438.2715 495.1895 437.748 494.9707 Q437.2246 494.752 436.8496 494.252 Q436.4746 493.752 436.2637 492.9395 Q436.0527 492.127 436.0527 490.9395 Q436.0527 489.6895 436.2637 488.8691 Q436.4746 488.0488 436.8574 487.5645 Q437.2402 487.0801 437.7715 486.8848 Q438.3027 486.6895 438.9434 486.6895 Q439.5527 486.6895 440.0684 486.8848 Q440.584 487.0801 440.959 487.5645 Q441.334 488.0488 441.5527 488.8691 Q441.7715 489.6895 441.7715 490.9395 ZM440.1152 490.9395 Q440.1152 490.0645 440.0527 489.4941 Q439.9902 488.9238 439.8496 488.5801 Q439.709 488.2363 439.4824 488.1035 Q439.2559 487.9707 438.9277 487.9707 Q438.584 487.9707 438.3496 488.1113 Q438.1152 488.252 437.9746 488.5879 Q437.834 488.9238 437.7715 489.4941 Q437.709 490.0645 437.709 490.9395 Q437.709 491.7832 437.7715 492.3535 Q437.834 492.9238 437.9746 493.2676 Q438.1152 493.6113 438.3418 493.752 Q438.5684 493.8926 438.9121 493.8926 Q439.2246 493.8926 439.459 493.752 Q439.6934 493.6113 439.834 493.2676 Q439.9746 492.9238 440.0449 492.3535 Q440.1152 491.7832 440.1152 490.9395 ZM443.0078 495.0645 L443.0078 493.8457 L445.0547 493.8457 L445.0547 488.2051 L443.0859 489.4395 L443.0859 488.1426 L445.1484 486.8145 L446.7109 486.8145 L446.7109 493.8457 L448.6016 493.8457 L448.6016 495.0645 L443.0078 495.0645 ZM449.3535 495.0645 L449.3535 493.9238 Q449.6348 493.2988 450.0332 492.8066 Q450.4316 492.3145 450.877 491.9004 Q451.3223 491.4863 451.7598 491.1348 Q452.1973 490.7832 452.5488 490.4473 Q452.9004 490.1113 453.1113 489.7832 Q453.3223 489.4551 453.3223 489.0801 Q453.3223 488.5176 453.0488 488.2598 Q452.7754 488.002 452.2441 488.002 Q451.7129 488.002 451.4395 488.2832 Q451.166 488.5645 451.0723 489.127 L449.416 489.0332 Q449.4785 488.5488 449.6582 488.127 Q449.8379 487.7051 450.1738 487.377 Q450.5098 487.0488 451.0176 486.8691 Q451.5254 486.6895 452.2285 486.6895 Q452.9004 486.6895 453.416 486.8457 Q453.9316 487.002 454.2832 487.2988 Q454.6348 487.5957 454.8145 488.0254 Q454.9941 488.4551 454.9941 489.002 Q454.9941 489.5801 454.7676 490.0488 Q454.541 490.5176 454.1816 490.916 Q453.8223 491.3145 453.3848 491.6582 Q452.9473 492.002 452.541 492.3301 Q452.1348 492.6582 451.7988 492.9941 Q451.4629 493.3301 451.291 493.7051 L455.1191 493.7051 L455.1191 495.0645 L449.3535 495.0645 ZM456.0742 492.6738 L456.0742 491.2363 L459.1211 491.2363 L459.1211 492.6738 L456.0742 492.6738 ZM460.0234 495.0645 L460.0234 493.9238 Q460.3047 493.2988 460.7031 492.8066 Q461.1016 492.3145 461.5469 491.9004 Q461.9922 491.4863 462.4297 491.1348 Q462.8672 490.7832 463.2188 490.4473 Q463.5703 490.1113 463.7812 489.7832 Q463.9922 489.4551 463.9922 489.0801 Q463.9922 488.5176 463.7188 488.2598 Q463.4453 488.002 462.9141 488.002 Q462.3828 488.002 462.1094 488.2832 Q461.8359 488.5645 461.7422 489.127 L460.0859 489.0332 Q460.1484 488.5488 460.3281 488.127 Q460.5078 487.7051 460.8438 487.377 Q461.1797 487.0488 461.6875 486.8691 Q462.1953 486.6895 462.8984 486.6895 Q463.5703 486.6895 464.0859 486.8457 Q464.6016 487.002 464.9531 487.2988 Q465.3047 487.5957 465.4844 488.0254 Q465.6641 488.4551 465.6641 489.002 Q465.6641 489.5801 465.4375 490.0488 Q465.2109 490.5176 464.8516 490.916 Q464.4922 491.3145 464.0547 491.6582 Q463.6172 492.002 463.2109 492.3301 Q462.8047 492.6582 462.4688 492.9941 Q462.1328 493.3301 461.9609 493.7051 L465.7891 493.7051 L465.7891 495.0645 L460.0234 495.0645 ZM472.4629 490.9395 Q472.4629 492.1113 472.2441 492.9238 Q472.0254 493.7363 471.6426 494.2363 Q471.2598 494.7363 470.7363 494.9629 Q470.2129 495.1895 469.5879 495.1895 Q468.9629 495.1895 468.4395 494.9707 Q467.916 494.752 467.541 494.252 Q467.166 493.752 466.9551 492.9395 Q466.7441 492.127 466.7441 490.9395 Q466.7441 489.6895 466.9551 488.8691 Q467.166 488.0488 467.5488 487.5645 Q467.9316 487.0801 468.4629 486.8848 Q468.9941 486.6895 469.6348 486.6895 Q470.2441 486.6895 470.7598 486.8848 Q471.2754 487.0801 471.6504 487.5645 Q472.0254 488.0488 472.2441 488.8691 Q472.4629 489.6895 472.4629 490.9395 ZM470.8066 490.9395 Q470.8066 490.0645 470.7441 489.4941 Q470.6816 488.9238 470.541 488.5801 Q470.4004 488.2363 470.1738 488.1035 Q469.9473 487.9707 469.6191 487.9707 Q469.2754 487.9707 469.041 488.1113 Q468.8066 488.252 468.666 488.5879 Q468.5254 488.9238 468.4629 489.4941 Q468.4004 490.0645 468.4004 490.9395 Q468.4004 491.7832 468.4629 492.3535 Q468.5254 492.9238 468.666 493.2676 Q468.8066 493.6113 469.0332 493.752 Q469.2598 493.8926 469.6035 493.8926 Q469.916 493.8926 470.1504 493.752 Q470.3848 493.6113 470.5254 493.2676 Q470.666 492.9238 470.7363 492.3535 Q470.8066 491.7832 470.8066 490.9395 ZM473.6992 495.0645 L473.6992 493.8457 L475.7461 493.8457 L475.7461 488.2051 L473.7773 489.4395 L473.7773 488.1426 L475.8398 486.8145 L477.4023 486.8145 L477.4023 493.8457 L479.293 493.8457 L479.293 495.0645 L473.6992 495.0645 ZM485.8574 492.7676 Q485.8574 493.3301 485.6777 493.7832 Q485.498 494.2363 485.1309 494.5488 Q484.7637 494.8613 484.209 495.0332 Q483.6543 495.2051 482.9355 495.2051 Q482.123 495.2051 481.5684 494.9941 Q481.0137 494.7832 480.6621 494.4473 Q480.3105 494.1113 480.1309 493.6816 Q479.9512 493.252 479.9043 492.8145 L481.5762 492.6738 Q481.6074 492.9395 481.709 493.1582 Q481.8105 493.377 481.9746 493.5332 Q482.1387 493.6895 482.373 493.7754 Q482.6074 493.8613 482.9355 493.8613 Q483.5137 493.8613 483.8418 493.5723 Q484.1699 493.2832 484.1699 492.6738 Q484.1699 492.2988 484.0215 492.0801 Q483.873 491.8613 483.6309 491.7363 Q483.3887 491.6113 483.1152 491.5723 Q482.8418 491.5332 482.5918 491.5332 L482.0137 491.5332 L482.0137 490.2051 L482.5605 490.2051 Q482.8105 490.2051 483.0605 490.1582 Q483.3105 490.1113 483.5215 489.9863 Q483.7324 489.8613 483.8574 489.6426 Q483.9824 489.4238 483.9824 489.0801 Q483.9824 488.5801 483.7012 488.291 Q483.4199 488.002 482.873 488.002 Q482.3574 488.002 482.0449 488.2832 Q481.7324 488.5645 481.6855 489.0801 L480.0449 488.9551 Q480.1074 488.377 480.3574 487.9473 Q480.6074 487.5176 480.9824 487.2363 Q481.3574 486.9551 481.8496 486.8223 Q482.3418 486.6895 482.9043 486.6895 Q483.623 486.6895 484.1465 486.8613 Q484.6699 487.0332 485.0059 487.3301 Q485.3418 487.627 485.498 488.0254 Q485.6543 488.4238 485.6543 488.877 Q485.6543 489.252 485.5449 489.5645 Q485.4355 489.877 485.2246 490.127 Q485.0137 490.377 484.6777 490.5488 Q484.3418 490.7207 483.8887 490.8145 L483.8887 490.8457 Q484.4043 490.8926 484.7793 491.0645 Q485.1543 491.2363 485.3887 491.4941 Q485.623 491.752 485.7402 492.0801 Q485.8574 492.4082 485.8574 492.7676 Z"/></g><g style="fill:white; text-rendering:optimizeLegibility; font-weight:bold; font-family:sans-serif; stroke:white;"><rect x="68" width="674" height="421" y="35" style="clip-path:url(#clipPath1); stroke:none;"/><line y2="456" style="clip-path:url(#clipPath1); fill:none; stroke:black; stroke-width:2;" x1="68" x2="742" y1="456"/><path style="fill:black; stroke-width:2; clip-path:url(#clipPath1); stroke:none;" d="M162.9826 470.8633 L162.2482 468.7539 L159.1076 468.7539 L158.3732 470.8633 L156.6389 470.8633 L159.6545 462.6133 L161.6857 462.6133 L164.6857 470.8633 L162.9826 470.8633 ZM161.0451 465.082 Q160.9826 464.8789 160.9123 464.668 Q160.842 464.457 160.7951 464.2852 Q160.7482 464.1133 160.717 464.0039 Q160.6857 463.8945 160.6701 463.8789 Q160.6701 463.8945 160.6389 464.0039 Q160.6076 464.1133 160.5607 464.2852 Q160.5139 464.457 160.4436 464.668 Q160.3732 464.8789 160.3107 465.082 L159.4826 467.457 L161.8576 467.457 L161.0451 465.082 Z"/></g><g style="text-rendering:optimizeLegibility; stroke-width:2; font-family:sans-serif; font-weight:bold;"><path style="clip-path:url(#clipPath1); stroke:none;" d="M327.3503 468.5039 Q327.3503 469.1289 327.1003 469.582 Q326.8503 470.0352 326.4128 470.3164 Q325.9753 470.5977 325.3894 470.7305 Q324.8034 470.8633 324.1628 470.8633 L320.0222 470.8633 L320.0222 462.6133 L323.8034 462.6133 Q324.5378 462.6133 325.1081 462.7383 Q325.6784 462.8633 326.0769 463.1211 Q326.4753 463.3789 326.6706 463.7695 Q326.8659 464.1602 326.8659 464.6758 Q326.8659 465.3789 326.4831 465.8633 Q326.1003 466.3477 325.3034 466.5195 Q326.3034 466.6445 326.8269 467.1523 Q327.3503 467.6602 327.3503 468.5039 ZM325.1316 464.9102 Q325.1316 464.3633 324.78 464.1289 Q324.4284 463.8945 323.7253 463.8945 L321.7566 463.8945 L321.7566 465.9414 L323.7409 465.9414 Q324.4753 465.9414 324.8034 465.6836 Q325.1316 465.4258 325.1316 464.9102 ZM325.6159 468.3789 Q325.6159 468.0508 325.4831 467.8242 Q325.3503 467.5977 325.1237 467.4648 Q324.8972 467.332 324.6003 467.2695 Q324.3034 467.207 323.9441 467.207 L321.7566 467.207 L321.7566 469.582 L324.0066 469.582 Q324.3503 469.582 324.6472 469.5273 Q324.9441 469.4727 325.155 469.332 Q325.3659 469.1914 325.4909 468.957 Q325.6159 468.7227 325.6159 468.3789 Z"/></g><g style="text-rendering:optimizeLegibility; stroke-width:2; font-family:sans-serif; font-weight:bold;"><path style="clip-path:url(#clipPath1); stroke:none;" d="M486.7649 469.6133 Q487.2493 469.6133 487.6087 469.4805 Q487.968 469.3477 488.2259 469.1211 Q488.4837 468.8945 488.6555 468.6133 Q488.8274 468.332 488.9368 468.0508 L490.4524 468.6133 Q490.2649 469.0664 489.9759 469.4961 Q489.6868 469.9258 489.2415 470.2539 Q488.7962 470.582 488.1946 470.7852 Q487.593 470.9883 486.7649 470.9883 Q485.7024 470.9883 484.9134 470.668 Q484.1243 470.3477 483.6087 469.7695 Q483.093 469.1914 482.8509 468.4102 Q482.6087 467.6289 482.6087 466.6914 Q482.6087 465.7227 482.8509 464.9492 Q483.093 464.1758 483.6009 463.6289 Q484.1087 463.082 484.8821 462.7852 Q485.6555 462.4883 486.6868 462.4883 Q487.4993 462.4883 488.1087 462.6523 Q488.718 462.8164 489.1555 463.1289 Q489.593 463.4414 489.8821 463.8555 Q490.1712 464.2695 490.343 464.7852 L488.8118 465.1914 Q488.7337 464.9258 488.5618 464.6836 Q488.3899 464.4414 488.1321 464.2539 Q487.8743 464.0664 487.5227 463.957 Q487.1712 463.8477 486.7337 463.8477 Q486.093 463.8477 485.6477 464.0508 Q485.2024 464.2539 484.9134 464.6289 Q484.6243 465.0039 484.4837 465.5273 Q484.343 466.0508 484.343 466.6914 Q484.343 467.3477 484.4837 467.8789 Q484.6243 468.4102 484.9134 468.8008 Q485.2024 469.1914 485.6634 469.4023 Q486.1243 469.6133 486.7649 469.6133 Z"/></g><g style="text-rendering:optimizeLegibility; stroke-width:2; font-family:sans-serif; font-weight:bold;"><path style="clip-path:url(#clipPath1); stroke:none;" d="M653.1483 466.6758 Q653.1483 467.707 652.8436 468.4883 Q652.5389 469.2695 651.9998 469.793 Q651.4608 470.3164 650.7264 470.5898 Q649.992 470.8633 649.1326 470.8633 L645.7889 470.8633 L645.7889 462.6133 L648.7889 462.6133 Q649.742 462.6133 650.5467 462.8477 Q651.3514 463.082 651.9295 463.582 Q652.5076 464.082 652.8279 464.8477 Q653.1483 465.6133 653.1483 466.6758 ZM651.4139 466.6758 Q651.4139 465.957 651.2186 465.4414 Q651.0233 464.9258 650.6717 464.5898 Q650.3201 464.2539 649.8279 464.0977 Q649.3358 463.9414 648.742 463.9414 L647.5233 463.9414 L647.5233 469.5195 L648.992 469.5195 Q649.5076 469.5195 649.9529 469.3398 Q650.3983 469.1602 650.7186 468.8008 Q651.0389 468.4414 651.2264 467.9102 Q651.4139 467.3789 651.4139 466.6758 Z"/></g><g style="text-rendering:optimizeLegibility; stroke-width:2; font-family:sans-serif; font-weight:bold;"><line y2="456" style="fill:none; clip-path:url(#clipPath1);" x1="68" x2="68" y1="35"/></g><g style="fill:rgb(64,64,64); text-rendering:optimizeLegibility; stroke-width:2; stroke:rgb(64,64,64);"><path style="clip-path:url(#clipPath1); stroke:none;" d="M50.8594 455.8389 Q50.8594 457.0264 50.6328 457.8389 Q50.4062 458.6514 50.0156 459.1514 Q49.625 459.6514 49.1016 459.8701 Q48.5781 460.0889 47.9844 460.0889 Q47.375 460.0889 46.8516 459.8701 Q46.3281 459.6514 45.9453 459.1514 Q45.5625 458.6514 45.3438 457.8389 Q45.125 457.0264 45.125 455.8389 Q45.125 454.5889 45.3438 453.7686 Q45.5625 452.9482 45.9531 452.4639 Q46.3438 451.9795 46.8672 451.7842 Q47.3906 451.5889 48.0156 451.5889 Q48.6094 451.5889 49.125 451.7842 Q49.6406 451.9795 50.0312 452.4639 Q50.4219 452.9482 50.6406 453.7686 Q50.8594 454.5889 50.8594 455.8389 ZM49.7969 455.8389 Q49.7969 454.8545 49.6797 454.1982 Q49.5625 453.542 49.3281 453.1514 Q49.0938 452.7607 48.7656 452.5967 Q48.4375 452.4326 48.0156 452.4326 Q47.5625 452.4326 47.2266 452.5967 Q46.8906 452.7607 46.6562 453.1514 Q46.4219 453.542 46.3047 454.1982 Q46.1875 454.8545 46.1875 455.8389 Q46.1875 456.7764 46.3125 457.4326 Q46.4375 458.0889 46.6641 458.4795 Q46.8906 458.8701 47.2266 459.042 Q47.5625 459.2139 47.9844 459.2139 Q48.4062 459.2139 48.7422 459.042 Q49.0781 458.8701 49.3047 458.4795 Q49.5312 458.0889 49.6641 457.4326 Q49.7969 456.7764 49.7969 455.8389 ZM61.5801 457.417 Q61.5801 458.1514 61.4238 458.6514 Q61.2676 459.1514 61.0176 459.4639 Q60.7676 459.7764 60.4238 459.9092 Q60.0801 460.042 59.7051 460.042 Q59.3145 460.042 58.9785 459.9092 Q58.6426 459.7764 58.3926 459.4717 Q58.1426 459.167 57.9941 458.6592 Q57.8457 458.1514 57.8457 457.417 Q57.8457 456.6357 57.9863 456.1279 Q58.127 455.6201 58.3848 455.3154 Q58.6426 455.0107 58.9863 454.8936 Q59.3301 454.7764 59.7207 454.7764 Q60.1113 454.7764 60.4473 454.8936 Q60.7832 455.0107 61.0332 455.3154 Q61.2832 455.6201 61.4316 456.1279 Q61.5801 456.6357 61.5801 457.417 ZM54.4238 459.9639 L53.5176 459.9639 L58.9082 451.7139 L59.8301 451.7139 L54.4238 459.9639 ZM53.6426 451.6357 Q54.0176 451.6357 54.3535 451.7529 Q54.6895 451.8701 54.9395 452.1748 Q55.1895 452.4795 55.3301 452.9795 Q55.4707 453.4795 55.4707 454.2451 Q55.4707 454.9951 55.3223 455.4951 Q55.1738 455.9951 54.9316 456.3076 Q54.6895 456.6201 54.3457 456.7529 Q54.002 456.8857 53.6113 456.8857 Q53.2207 456.8857 52.8848 456.7529 Q52.5488 456.6201 52.2988 456.3076 Q52.0488 455.9951 51.9004 455.4951 Q51.752 454.9951 51.752 454.2451 Q51.752 453.4795 51.9004 452.9795 Q52.0488 452.4795 52.2988 452.1748 Q52.5488 451.8701 52.8926 451.7529 Q53.2363 451.6357 53.6426 451.6357 ZM60.7051 457.417 Q60.7051 456.8389 60.6426 456.4561 Q60.5801 456.0732 60.4551 455.8467 Q60.3301 455.6201 60.1426 455.5264 Q59.9551 455.4326 59.7207 455.4326 Q59.4707 455.4326 59.2832 455.5264 Q59.0957 455.6201 58.9707 455.8467 Q58.8457 456.0732 58.7832 456.4561 Q58.7207 456.8389 58.7207 457.417 Q58.7207 457.9795 58.7832 458.3545 Q58.8457 458.7295 58.9707 458.9561 Q59.0957 459.1826 59.2832 459.2842 Q59.4707 459.3857 59.7051 459.3857 Q59.9395 459.3857 60.127 459.2842 Q60.3145 459.1826 60.4395 458.9561 Q60.5645 458.7295 60.6348 458.3545 Q60.7051 457.9795 60.7051 457.417 ZM54.6113 454.2451 Q54.6113 453.6826 54.5488 453.2998 Q54.4863 452.917 54.3613 452.6904 Q54.2363 452.4639 54.0566 452.3701 Q53.877 452.2764 53.6426 452.2764 Q53.3926 452.2764 53.1973 452.3701 Q53.002 452.4639 52.877 452.6904 Q52.752 452.917 52.6895 453.2998 Q52.627 453.6826 52.627 454.2451 Q52.627 454.8076 52.6895 455.1904 Q52.752 455.5732 52.877 455.7998 Q53.002 456.0264 53.1895 456.1279 Q53.377 456.2295 53.627 456.2295 Q53.8457 456.2295 54.0332 456.1279 Q54.2207 456.0264 54.3457 455.7998 Q54.4707 455.5732 54.541 455.1904 Q54.6113 454.8076 54.6113 454.2451 Z"/></g><g style="fill:rgb(64,64,64); text-rendering:optimizeLegibility; stroke-width:2; stroke:rgb(64,64,64);"><path style="clip-path:url(#clipPath1); stroke:none;" d="M38.5918 375.7639 L38.5918 375.0139 Q38.8887 374.3264 39.3184 373.8029 Q39.748 373.2795 40.2246 372.8576 Q40.7012 372.4357 41.1621 372.0685 Q41.623 371.7014 41.998 371.342 Q42.373 370.9826 42.6074 370.5842 Q42.8418 370.1857 42.8418 369.6857 Q42.8418 369.3264 42.7324 369.0607 Q42.623 368.7951 42.4277 368.6154 Q42.2324 368.4357 41.9512 368.342 Q41.6699 368.2482 41.3418 368.2482 Q41.0137 368.2482 40.7402 368.3342 Q40.4668 368.4201 40.248 368.5998 Q40.0293 368.7795 39.8887 369.0373 Q39.748 369.2951 39.7168 369.6389 L38.6387 369.5451 Q38.6855 369.1076 38.8809 368.7092 Q39.0762 368.3107 39.4121 368.0139 Q39.748 367.717 40.2246 367.5529 Q40.7012 367.3889 41.3418 367.3889 Q41.9512 367.3889 42.4277 367.5295 Q42.9043 367.6701 43.2402 367.9592 Q43.5762 368.2482 43.748 368.6701 Q43.9199 369.092 43.9199 369.6389 Q43.9199 370.0607 43.7715 370.4357 Q43.623 370.8107 43.373 371.1545 Q43.123 371.4982 42.7949 371.8107 Q42.4668 372.1232 42.1152 372.4279 Q41.7637 372.7326 41.3965 373.0295 Q41.0293 373.3264 40.709 373.6232 Q40.3887 373.9201 40.1387 374.2248 Q39.8887 374.5295 39.748 374.8732 L44.0605 374.8732 L44.0605 375.7639 L38.5918 375.7639 ZM50.8594 371.6389 Q50.8594 372.8264 50.6328 373.6389 Q50.4062 374.4514 50.0156 374.9514 Q49.625 375.4514 49.1016 375.6701 Q48.5781 375.8889 47.9844 375.8889 Q47.375 375.8889 46.8516 375.6701 Q46.3281 375.4514 45.9453 374.9514 Q45.5625 374.4514 45.3438 373.6389 Q45.125 372.8264 45.125 371.6389 Q45.125 370.3889 45.3438 369.5685 Q45.5625 368.7482 45.9531 368.2639 Q46.3438 367.7795 46.8672 367.5842 Q47.3906 367.3889 48.0156 367.3889 Q48.6094 367.3889 49.125 367.5842 Q49.6406 367.7795 50.0312 368.2639 Q50.4219 368.7482 50.6406 369.5685 Q50.8594 370.3889 50.8594 371.6389 ZM49.7969 371.6389 Q49.7969 370.6545 49.6797 369.9982 Q49.5625 369.342 49.3281 368.9514 Q49.0938 368.5607 48.7656 368.3967 Q48.4375 368.2326 48.0156 368.2326 Q47.5625 368.2326 47.2266 368.3967 Q46.8906 368.5607 46.6562 368.9514 Q46.4219 369.342 46.3047 369.9982 Q46.1875 370.6545 46.1875 371.6389 Q46.1875 372.5764 46.3125 373.2326 Q46.4375 373.8889 46.6641 374.2795 Q46.8906 374.6701 47.2266 374.842 Q47.5625 375.0139 47.9844 375.0139 Q48.4062 375.0139 48.7422 374.842 Q49.0781 374.6701 49.3047 374.2795 Q49.5312 373.8889 49.6641 373.2326 Q49.7969 372.5764 49.7969 371.6389 ZM61.5801 373.217 Q61.5801 373.9514 61.4238 374.4514 Q61.2676 374.9514 61.0176 375.2639 Q60.7676 375.5764 60.4238 375.7092 Q60.0801 375.842 59.7051 375.842 Q59.3145 375.842 58.9785 375.7092 Q58.6426 375.5764 58.3926 375.2717 Q58.1426 374.967 57.9941 374.4592 Q57.8457 373.9514 57.8457 373.217 Q57.8457 372.4357 57.9863 371.9279 Q58.127 371.4201 58.3848 371.1154 Q58.6426 370.8107 58.9863 370.6935 Q59.3301 370.5764 59.7207 370.5764 Q60.1113 370.5764 60.4473 370.6935 Q60.7832 370.8107 61.0332 371.1154 Q61.2832 371.4201 61.4316 371.9279 Q61.5801 372.4357 61.5801 373.217 ZM54.4238 375.7639 L53.5176 375.7639 L58.9082 367.5139 L59.8301 367.5139 L54.4238 375.7639 ZM53.6426 367.4357 Q54.0176 367.4357 54.3535 367.5529 Q54.6895 367.6701 54.9395 367.9748 Q55.1895 368.2795 55.3301 368.7795 Q55.4707 369.2795 55.4707 370.0451 Q55.4707 370.7951 55.3223 371.2951 Q55.1738 371.7951 54.9316 372.1076 Q54.6895 372.4201 54.3457 372.5529 Q54.002 372.6857 53.6113 372.6857 Q53.2207 372.6857 52.8848 372.5529 Q52.5488 372.4201 52.2988 372.1076 Q52.0488 371.7951 51.9004 371.2951 Q51.752 370.7951 51.752 370.0451 Q51.752 369.2795 51.9004 368.7795 Q52.0488 368.2795 52.2988 367.9748 Q52.5488 367.6701 52.8926 367.5529 Q53.2363 367.4357 53.6426 367.4357 ZM60.7051 373.217 Q60.7051 372.6389 60.6426 372.256 Q60.5801 371.8732 60.4551 371.6467 Q60.3301 371.4201 60.1426 371.3264 Q59.9551 371.2326 59.7207 371.2326 Q59.4707 371.2326 59.2832 371.3264 Q59.0957 371.4201 58.9707 371.6467 Q58.8457 371.8732 58.7832 372.256 Q58.7207 372.6389 58.7207 373.217 Q58.7207 373.7795 58.7832 374.1545 Q58.8457 374.5295 58.9707 374.756 Q59.0957 374.9826 59.2832 375.0842 Q59.4707 375.1857 59.7051 375.1857 Q59.9395 375.1857 60.127 375.0842 Q60.3145 374.9826 60.4395 374.756 Q60.5645 374.5295 60.6348 374.1545 Q60.7051 373.7795 60.7051 373.217 ZM54.6113 370.0451 Q54.6113 369.4826 54.5488 369.0998 Q54.4863 368.717 54.3613 368.4904 Q54.2363 368.2639 54.0566 368.1701 Q53.877 368.0764 53.6426 368.0764 Q53.3926 368.0764 53.1973 368.1701 Q53.002 368.2639 52.877 368.4904 Q52.752 368.717 52.6895 369.0998 Q52.627 369.4826 52.627 370.0451 Q52.627 370.6076 52.6895 370.9904 Q52.752 371.3732 52.877 371.5998 Q53.002 371.8264 53.1895 371.9279 Q53.377 372.0295 53.627 372.0295 Q53.8457 372.0295 54.0332 371.9279 Q54.2207 371.8264 54.3457 371.5998 Q54.4707 371.3732 54.541 370.9904 Q54.6113 370.6076 54.6113 370.0451 Z"/></g><g style="fill:rgb(64,64,64); text-rendering:optimizeLegibility; stroke-width:2; stroke:rgb(64,64,64);"><path style="clip-path:url(#clipPath1); stroke:none;" d="M43.1387 289.6889 L43.1387 291.5639 L42.1543 291.5639 L42.1543 289.6889 L38.2637 289.6889 L38.2637 288.8764 L42.0449 283.3139 L43.1387 283.3139 L43.1387 288.8607 L44.3105 288.8607 L44.3105 289.6889 L43.1387 289.6889 ZM42.1543 284.5014 Q42.1387 284.5326 42.0918 284.6107 Q42.0449 284.6889 41.9824 284.7982 Q41.9199 284.9076 41.8652 285.017 Q41.8105 285.1264 41.7637 285.1889 L39.6387 288.3139 Q39.6074 288.3607 39.5527 288.4389 Q39.498 288.517 39.4434 288.5951 Q39.3887 288.6732 39.3262 288.7436 Q39.2637 288.8139 39.2324 288.8607 L42.1543 288.8607 L42.1543 284.5014 ZM50.8594 287.4389 Q50.8594 288.6264 50.6328 289.4389 Q50.4062 290.2514 50.0156 290.7514 Q49.625 291.2514 49.1016 291.4701 Q48.5781 291.6889 47.9844 291.6889 Q47.375 291.6889 46.8516 291.4701 Q46.3281 291.2514 45.9453 290.7514 Q45.5625 290.2514 45.3438 289.4389 Q45.125 288.6264 45.125 287.4389 Q45.125 286.1889 45.3438 285.3686 Q45.5625 284.5482 45.9531 284.0639 Q46.3438 283.5795 46.8672 283.3842 Q47.3906 283.1889 48.0156 283.1889 Q48.6094 283.1889 49.125 283.3842 Q49.6406 283.5795 50.0312 284.0639 Q50.4219 284.5482 50.6406 285.3686 Q50.8594 286.1889 50.8594 287.4389 ZM49.7969 287.4389 Q49.7969 286.4545 49.6797 285.7982 Q49.5625 285.142 49.3281 284.7514 Q49.0938 284.3607 48.7656 284.1967 Q48.4375 284.0326 48.0156 284.0326 Q47.5625 284.0326 47.2266 284.1967 Q46.8906 284.3607 46.6562 284.7514 Q46.4219 285.142 46.3047 285.7982 Q46.1875 286.4545 46.1875 287.4389 Q46.1875 288.3764 46.3125 289.0326 Q46.4375 289.6889 46.6641 290.0795 Q46.8906 290.4701 47.2266 290.642 Q47.5625 290.8139 47.9844 290.8139 Q48.4062 290.8139 48.7422 290.642 Q49.0781 290.4701 49.3047 290.0795 Q49.5312 289.6889 49.6641 289.0326 Q49.7969 288.3764 49.7969 287.4389 ZM61.5801 289.017 Q61.5801 289.7514 61.4238 290.2514 Q61.2676 290.7514 61.0176 291.0639 Q60.7676 291.3764 60.4238 291.5092 Q60.0801 291.642 59.7051 291.642 Q59.3145 291.642 58.9785 291.5092 Q58.6426 291.3764 58.3926 291.0717 Q58.1426 290.767 57.9941 290.2592 Q57.8457 289.7514 57.8457 289.017 Q57.8457 288.2357 57.9863 287.7279 Q58.127 287.2201 58.3848 286.9154 Q58.6426 286.6107 58.9863 286.4936 Q59.3301 286.3764 59.7207 286.3764 Q60.1113 286.3764 60.4473 286.4936 Q60.7832 286.6107 61.0332 286.9154 Q61.2832 287.2201 61.4316 287.7279 Q61.5801 288.2357 61.5801 289.017 ZM54.4238 291.5639 L53.5176 291.5639 L58.9082 283.3139 L59.8301 283.3139 L54.4238 291.5639 ZM53.6426 283.2357 Q54.0176 283.2357 54.3535 283.3529 Q54.6895 283.4701 54.9395 283.7748 Q55.1895 284.0795 55.3301 284.5795 Q55.4707 285.0795 55.4707 285.8451 Q55.4707 286.5951 55.3223 287.0951 Q55.1738 287.5951 54.9316 287.9076 Q54.6895 288.2201 54.3457 288.3529 Q54.002 288.4857 53.6113 288.4857 Q53.2207 288.4857 52.8848 288.3529 Q52.5488 288.2201 52.2988 287.9076 Q52.0488 287.5951 51.9004 287.0951 Q51.752 286.5951 51.752 285.8451 Q51.752 285.0795 51.9004 284.5795 Q52.0488 284.0795 52.2988 283.7748 Q52.5488 283.4701 52.8926 283.3529 Q53.2363 283.2357 53.6426 283.2357 ZM60.7051 289.017 Q60.7051 288.4389 60.6426 288.0561 Q60.5801 287.6732 60.4551 287.4467 Q60.3301 287.2201 60.1426 287.1264 Q59.9551 287.0326 59.7207 287.0326 Q59.4707 287.0326 59.2832 287.1264 Q59.0957 287.2201 58.9707 287.4467 Q58.8457 287.6732 58.7832 288.0561 Q58.7207 288.4389 58.7207 289.017 Q58.7207 289.5795 58.7832 289.9545 Q58.8457 290.3295 58.9707 290.5561 Q59.0957 290.7826 59.2832 290.8842 Q59.4707 290.9857 59.7051 290.9857 Q59.9395 290.9857 60.127 290.8842 Q60.3145 290.7826 60.4395 290.5561 Q60.5645 290.3295 60.6348 289.9545 Q60.7051 289.5795 60.7051 289.017 ZM54.6113 285.8451 Q54.6113 285.2826 54.5488 284.8998 Q54.4863 284.517 54.3613 284.2904 Q54.2363 284.0639 54.0566 283.9701 Q53.877 283.8764 53.6426 283.8764 Q53.3926 283.8764 53.1973 283.9701 Q53.002 284.0639 52.877 284.2904 Q52.752 284.517 52.6895 284.8998 Q52.627 285.2826 52.627 285.8451 Q52.627 286.4076 52.6895 286.7904 Q52.752 287.1732 52.877 287.3998 Q53.002 287.6264 53.1895 287.7279 Q53.377 287.8295 53.627 287.8295 Q53.8457 287.8295 54.0332 287.7279 Q54.2207 287.6264 54.3457 287.3998 Q54.4707 287.1732 54.541 286.7904 Q54.6113 286.4076 54.6113 285.8451 Z"/></g><g style="fill:rgb(64,64,64); text-rendering:optimizeLegibility; stroke-width:2; stroke:rgb(64,64,64);"><path style="clip-path:url(#clipPath1); stroke:none;" d="M44.123 204.6607 Q44.123 205.2857 43.9512 205.8014 Q43.7793 206.317 43.4434 206.692 Q43.1074 207.067 42.6074 207.2779 Q42.1074 207.4889 41.4668 207.4889 Q40.748 207.4889 40.209 207.2076 Q39.6699 206.9264 39.3105 206.4107 Q38.9512 205.8951 38.7715 205.1373 Q38.5918 204.3795 38.5918 203.4264 Q38.5918 202.317 38.7949 201.4889 Q38.998 200.6607 39.3809 200.106 Q39.7637 199.5514 40.3105 199.2701 Q40.8574 198.9889 41.5449 198.9889 Q41.9668 198.9889 42.334 199.0748 Q42.7012 199.1607 43.0059 199.356 Q43.3105 199.5514 43.5371 199.8717 Q43.7637 200.192 43.9043 200.6607 L42.8887 200.8482 Q42.7324 200.317 42.373 200.0748 Q42.0137 199.8326 41.5293 199.8326 Q41.1074 199.8326 40.7559 200.0435 Q40.4043 200.2545 40.1543 200.6607 Q39.9043 201.067 39.7715 201.6842 Q39.6387 202.3014 39.6387 203.1139 Q39.9355 202.5826 40.4512 202.3014 Q40.9668 202.0201 41.6387 202.0201 Q42.2012 202.0201 42.6621 202.2076 Q43.123 202.3951 43.4512 202.731 Q43.7793 203.067 43.9512 203.5592 Q44.123 204.0514 44.123 204.6607 ZM43.0605 204.7076 Q43.0605 204.2857 42.9512 203.9342 Q42.8418 203.5826 42.6309 203.3404 Q42.4199 203.0982 42.1152 202.9654 Q41.8105 202.8326 41.3887 202.8326 Q41.1074 202.8326 40.8105 202.9185 Q40.5137 203.0045 40.2793 203.1998 Q40.0449 203.3951 39.8965 203.6998 Q39.748 204.0045 39.748 204.4576 Q39.748 204.9107 39.8652 205.3092 Q39.9824 205.7076 40.2012 205.9967 Q40.4199 206.2857 40.7324 206.4576 Q41.0449 206.6295 41.4355 206.6295 Q41.8105 206.6295 42.1152 206.4967 Q42.4199 206.3639 42.6309 206.1139 Q42.8418 205.8639 42.9512 205.5123 Q43.0605 205.1607 43.0605 204.7076 ZM50.8594 203.2389 Q50.8594 204.4264 50.6328 205.2389 Q50.4062 206.0514 50.0156 206.5514 Q49.625 207.0514 49.1016 207.2701 Q48.5781 207.4889 47.9844 207.4889 Q47.375 207.4889 46.8516 207.2701 Q46.3281 207.0514 45.9453 206.5514 Q45.5625 206.0514 45.3438 205.2389 Q45.125 204.4264 45.125 203.2389 Q45.125 201.9889 45.3438 201.1685 Q45.5625 200.3482 45.9531 199.8639 Q46.3438 199.3795 46.8672 199.1842 Q47.3906 198.9889 48.0156 198.9889 Q48.6094 198.9889 49.125 199.1842 Q49.6406 199.3795 50.0312 199.8639 Q50.4219 200.3482 50.6406 201.1685 Q50.8594 201.9889 50.8594 203.2389 ZM49.7969 203.2389 Q49.7969 202.2545 49.6797 201.5982 Q49.5625 200.942 49.3281 200.5514 Q49.0938 200.1607 48.7656 199.9967 Q48.4375 199.8326 48.0156 199.8326 Q47.5625 199.8326 47.2266 199.9967 Q46.8906 200.1607 46.6562 200.5514 Q46.4219 200.942 46.3047 201.5982 Q46.1875 202.2545 46.1875 203.2389 Q46.1875 204.1764 46.3125 204.8326 Q46.4375 205.4889 46.6641 205.8795 Q46.8906 206.2701 47.2266 206.442 Q47.5625 206.6139 47.9844 206.6139 Q48.4062 206.6139 48.7422 206.442 Q49.0781 206.2701 49.3047 205.8795 Q49.5312 205.4889 49.6641 204.8326 Q49.7969 204.1764 49.7969 203.2389 ZM61.5801 204.817 Q61.5801 205.5514 61.4238 206.0514 Q61.2676 206.5514 61.0176 206.8639 Q60.7676 207.1764 60.4238 207.3092 Q60.0801 207.442 59.7051 207.442 Q59.3145 207.442 58.9785 207.3092 Q58.6426 207.1764 58.3926 206.8717 Q58.1426 206.567 57.9941 206.0592 Q57.8457 205.5514 57.8457 204.817 Q57.8457 204.0357 57.9863 203.5279 Q58.127 203.0201 58.3848 202.7154 Q58.6426 202.4107 58.9863 202.2935 Q59.3301 202.1764 59.7207 202.1764 Q60.1113 202.1764 60.4473 202.2935 Q60.7832 202.4107 61.0332 202.7154 Q61.2832 203.0201 61.4316 203.5279 Q61.5801 204.0357 61.5801 204.817 ZM54.4238 207.3639 L53.5176 207.3639 L58.9082 199.1139 L59.8301 199.1139 L54.4238 207.3639 ZM53.6426 199.0357 Q54.0176 199.0357 54.3535 199.1529 Q54.6895 199.2701 54.9395 199.5748 Q55.1895 199.8795 55.3301 200.3795 Q55.4707 200.8795 55.4707 201.6451 Q55.4707 202.3951 55.3223 202.8951 Q55.1738 203.3951 54.9316 203.7076 Q54.6895 204.0201 54.3457 204.1529 Q54.002 204.2857 53.6113 204.2857 Q53.2207 204.2857 52.8848 204.1529 Q52.5488 204.0201 52.2988 203.7076 Q52.0488 203.3951 51.9004 202.8951 Q51.752 202.3951 51.752 201.6451 Q51.752 200.8795 51.9004 200.3795 Q52.0488 199.8795 52.2988 199.5748 Q52.5488 199.2701 52.8926 199.1529 Q53.2363 199.0357 53.6426 199.0357 ZM60.7051 204.817 Q60.7051 204.2389 60.6426 203.856 Q60.5801 203.4732 60.4551 203.2467 Q60.3301 203.0201 60.1426 202.9264 Q59.9551 202.8326 59.7207 202.8326 Q59.4707 202.8326 59.2832 202.9264 Q59.0957 203.0201 58.9707 203.2467 Q58.8457 203.4732 58.7832 203.856 Q58.7207 204.2389 58.7207 204.817 Q58.7207 205.3795 58.7832 205.7545 Q58.8457 206.1295 58.9707 206.356 Q59.0957 206.5826 59.2832 206.6842 Q59.4707 206.7857 59.7051 206.7857 Q59.9395 206.7857 60.127 206.6842 Q60.3145 206.5826 60.4395 206.356 Q60.5645 206.1295 60.6348 205.7545 Q60.7051 205.3795 60.7051 204.817 ZM54.6113 201.6451 Q54.6113 201.0826 54.5488 200.6998 Q54.4863 200.317 54.3613 200.0904 Q54.2363 199.8639 54.0566 199.7701 Q53.877 199.6764 53.6426 199.6764 Q53.3926 199.6764 53.1973 199.7701 Q53.002 199.8639 52.877 200.0904 Q52.752 200.317 52.6895 200.6998 Q52.627 201.0826 52.627 201.6451 Q52.627 202.2076 52.6895 202.5904 Q52.752 202.9732 52.877 203.1998 Q53.002 203.4264 53.1895 203.5279 Q53.377 203.6295 53.627 203.6295 Q53.8457 203.6295 54.0332 203.5279 Q54.2207 203.4264 54.3457 203.1998 Q54.4707 202.9732 54.541 202.5904 Q54.6113 202.2076 54.6113 201.6451 Z"/></g><g style="fill:rgb(64,64,64); text-rendering:optimizeLegibility; stroke-width:2; stroke:rgb(64,64,64);"><path style="clip-path:url(#clipPath1); stroke:none;" d="M44.1387 120.867 Q44.1387 121.3826 43.9668 121.8279 Q43.7949 122.2732 43.459 122.5936 Q43.123 122.9139 42.584 123.1014 Q42.0449 123.2889 41.3262 123.2889 Q40.5918 123.2889 40.0605 123.1014 Q39.5293 122.9139 39.1855 122.5936 Q38.8418 122.2732 38.6699 121.8357 Q38.498 121.3982 38.498 120.867 Q38.498 120.4139 38.6387 120.0623 Q38.7793 119.7107 39.0137 119.4607 Q39.248 119.2107 39.5449 119.0545 Q39.8418 118.8982 40.1543 118.8514 L40.1543 118.8201 Q39.8105 118.742 39.5371 118.5623 Q39.2637 118.3826 39.0762 118.1248 Q38.8887 117.867 38.7949 117.5545 Q38.7012 117.242 38.7012 116.8982 Q38.7012 116.4607 38.8652 116.0779 Q39.0293 115.6951 39.3574 115.4061 Q39.6855 115.117 40.1699 114.9529 Q40.6543 114.7889 41.2949 114.7889 Q41.9668 114.7889 42.4668 114.9529 Q42.9668 115.117 43.2871 115.4139 Q43.6074 115.7107 43.7715 116.0936 Q43.9355 116.4764 43.9355 116.9139 Q43.9355 117.2576 43.834 117.5623 Q43.7324 117.867 43.5527 118.1248 Q43.373 118.3826 43.0996 118.5623 Q42.8262 118.742 42.4668 118.8045 L42.4668 118.8357 Q42.8262 118.8982 43.1309 119.0467 Q43.4355 119.1951 43.6543 119.4529 Q43.873 119.7107 44.0059 120.0623 Q44.1387 120.4139 44.1387 120.867 ZM42.8418 116.9764 Q42.8418 116.6639 42.7559 116.4061 Q42.6699 116.1482 42.4902 115.9607 Q42.3105 115.7732 42.0215 115.6717 Q41.7324 115.5701 41.2949 115.5701 Q40.8887 115.5701 40.5996 115.6717 Q40.3105 115.7732 40.123 115.9607 Q39.9355 116.1482 39.8574 116.4061 Q39.7793 116.6639 39.7793 116.9764 Q39.7793 117.2107 39.8418 117.4686 Q39.9043 117.7264 40.0762 117.9373 Q40.248 118.1482 40.5449 118.2889 Q40.8418 118.4295 41.3105 118.4295 Q41.8105 118.4295 42.1152 118.2889 Q42.4199 118.1482 42.5762 117.9373 Q42.7324 117.7264 42.7871 117.4686 Q42.8418 117.2107 42.8418 116.9764 ZM43.0449 120.7576 Q43.0449 120.4607 42.959 120.1795 Q42.873 119.8982 42.6777 119.6873 Q42.4824 119.4764 42.1465 119.3436 Q41.8105 119.2107 41.2949 119.2107 Q40.8418 119.2107 40.5137 119.3436 Q40.1855 119.4764 39.9824 119.6951 Q39.7793 119.9139 39.6855 120.1951 Q39.5918 120.4764 39.5918 120.7889 Q39.5918 121.1639 39.6855 121.4764 Q39.7793 121.7889 39.9824 122.0154 Q40.1855 122.242 40.5215 122.367 Q40.8574 122.492 41.3418 122.492 Q41.8105 122.492 42.1387 122.367 Q42.4668 122.242 42.6699 122.0154 Q42.873 121.7889 42.959 121.4686 Q43.0449 121.1482 43.0449 120.7576 ZM50.8594 119.0389 Q50.8594 120.2264 50.6328 121.0389 Q50.4062 121.8514 50.0156 122.3514 Q49.625 122.8514 49.1016 123.0701 Q48.5781 123.2889 47.9844 123.2889 Q47.375 123.2889 46.8516 123.0701 Q46.3281 122.8514 45.9453 122.3514 Q45.5625 121.8514 45.3438 121.0389 Q45.125 120.2264 45.125 119.0389 Q45.125 117.7889 45.3438 116.9686 Q45.5625 116.1482 45.9531 115.6639 Q46.3438 115.1795 46.8672 114.9842 Q47.3906 114.7889 48.0156 114.7889 Q48.6094 114.7889 49.125 114.9842 Q49.6406 115.1795 50.0312 115.6639 Q50.4219 116.1482 50.6406 116.9686 Q50.8594 117.7889 50.8594 119.0389 ZM49.7969 119.0389 Q49.7969 118.0545 49.6797 117.3982 Q49.5625 116.742 49.3281 116.3514 Q49.0938 115.9607 48.7656 115.7967 Q48.4375 115.6326 48.0156 115.6326 Q47.5625 115.6326 47.2266 115.7967 Q46.8906 115.9607 46.6562 116.3514 Q46.4219 116.742 46.3047 117.3982 Q46.1875 118.0545 46.1875 119.0389 Q46.1875 119.9764 46.3125 120.6326 Q46.4375 121.2889 46.6641 121.6795 Q46.8906 122.0701 47.2266 122.242 Q47.5625 122.4139 47.9844 122.4139 Q48.4062 122.4139 48.7422 122.242 Q49.0781 122.0701 49.3047 121.6795 Q49.5312 121.2889 49.6641 120.6326 Q49.7969 119.9764 49.7969 119.0389 ZM61.5801 120.617 Q61.5801 121.3514 61.4238 121.8514 Q61.2676 122.3514 61.0176 122.6639 Q60.7676 122.9764 60.4238 123.1092 Q60.0801 123.242 59.7051 123.242 Q59.3145 123.242 58.9785 123.1092 Q58.6426 122.9764 58.3926 122.6717 Q58.1426 122.367 57.9941 121.8592 Q57.8457 121.3514 57.8457 120.617 Q57.8457 119.8357 57.9863 119.3279 Q58.127 118.8201 58.3848 118.5154 Q58.6426 118.2107 58.9863 118.0936 Q59.3301 117.9764 59.7207 117.9764 Q60.1113 117.9764 60.4473 118.0936 Q60.7832 118.2107 61.0332 118.5154 Q61.2832 118.8201 61.4316 119.3279 Q61.5801 119.8357 61.5801 120.617 ZM54.4238 123.1639 L53.5176 123.1639 L58.9082 114.9139 L59.8301 114.9139 L54.4238 123.1639 ZM53.6426 114.8357 Q54.0176 114.8357 54.3535 114.9529 Q54.6895 115.0701 54.9395 115.3748 Q55.1895 115.6795 55.3301 116.1795 Q55.4707 116.6795 55.4707 117.4451 Q55.4707 118.1951 55.3223 118.6951 Q55.1738 119.1951 54.9316 119.5076 Q54.6895 119.8201 54.3457 119.9529 Q54.002 120.0857 53.6113 120.0857 Q53.2207 120.0857 52.8848 119.9529 Q52.5488 119.8201 52.2988 119.5076 Q52.0488 119.1951 51.9004 118.6951 Q51.752 118.1951 51.752 117.4451 Q51.752 116.6795 51.9004 116.1795 Q52.0488 115.6795 52.2988 115.3748 Q52.5488 115.0701 52.8926 114.9529 Q53.2363 114.8357 53.6426 114.8357 ZM60.7051 120.617 Q60.7051 120.0389 60.6426 119.6561 Q60.5801 119.2732 60.4551 119.0467 Q60.3301 118.8201 60.1426 118.7264 Q59.9551 118.6326 59.7207 118.6326 Q59.4707 118.6326 59.2832 118.7264 Q59.0957 118.8201 58.9707 119.0467 Q58.8457 119.2732 58.7832 119.6561 Q58.7207 120.0389 58.7207 120.617 Q58.7207 121.1795 58.7832 121.5545 Q58.8457 121.9295 58.9707 122.1561 Q59.0957 122.3826 59.2832 122.4842 Q59.4707 122.5857 59.7051 122.5857 Q59.9395 122.5857 60.127 122.4842 Q60.3145 122.3826 60.4395 122.1561 Q60.5645 121.9295 60.6348 121.5545 Q60.7051 121.1795 60.7051 120.617 ZM54.6113 117.4451 Q54.6113 116.8826 54.5488 116.4998 Q54.4863 116.117 54.3613 115.8904 Q54.2363 115.6639 54.0566 115.5701 Q53.877 115.4764 53.6426 115.4764 Q53.3926 115.4764 53.1973 115.5701 Q53.002 115.6639 52.877 115.8904 Q52.752 116.117 52.6895 116.4998 Q52.627 116.8826 52.627 117.4451 Q52.627 118.0076 52.6895 118.3904 Q52.752 118.7732 52.877 118.9998 Q53.002 119.2264 53.1895 119.3279 Q53.377 119.4295 53.627 119.4295 Q53.8457 119.4295 54.0332 119.3279 Q54.2207 119.2264 54.3457 118.9998 Q54.4707 118.7732 54.541 118.3904 Q54.6113 118.0076 54.6113 117.4451 Z"/></g><g style="fill:rgb(64,64,64); text-rendering:optimizeLegibility; stroke-width:2; stroke:rgb(64,64,64);"><path style="clip-path:url(#clipPath1); stroke:none;" d="M32.2305 38.9639 L32.2305 38.0732 L34.3242 38.0732 L34.3242 31.7139 L32.4648 33.042 L32.4648 32.042 L34.418 30.7139 L35.3867 30.7139 L35.3867 38.0732 L37.4023 38.0732 L37.4023 38.9639 L32.2305 38.9639 ZM44.1855 34.8389 Q44.1855 36.0264 43.959 36.8389 Q43.7324 37.6514 43.3418 38.1514 Q42.9512 38.6514 42.4277 38.8701 Q41.9043 39.0889 41.3105 39.0889 Q40.7012 39.0889 40.1777 38.8701 Q39.6543 38.6514 39.2715 38.1514 Q38.8887 37.6514 38.6699 36.8389 Q38.4512 36.0264 38.4512 34.8389 Q38.4512 33.5889 38.6699 32.7686 Q38.8887 31.9482 39.2793 31.4639 Q39.6699 30.9795 40.1934 30.7842 Q40.7168 30.5889 41.3418 30.5889 Q41.9355 30.5889 42.4512 30.7842 Q42.9668 30.9795 43.3574 31.4639 Q43.748 31.9482 43.9668 32.7686 Q44.1855 33.5889 44.1855 34.8389 ZM43.123 34.8389 Q43.123 33.8545 43.0059 33.1982 Q42.8887 32.542 42.6543 32.1514 Q42.4199 31.7607 42.0918 31.5967 Q41.7637 31.4326 41.3418 31.4326 Q40.8887 31.4326 40.5527 31.5967 Q40.2168 31.7607 39.9824 32.1514 Q39.748 32.542 39.6309 33.1982 Q39.5137 33.8545 39.5137 34.8389 Q39.5137 35.7764 39.6387 36.4326 Q39.7637 37.0889 39.9902 37.4795 Q40.2168 37.8701 40.5527 38.042 Q40.8887 38.2139 41.3105 38.2139 Q41.7324 38.2139 42.0684 38.042 Q42.4043 37.8701 42.6309 37.4795 Q42.8574 37.0889 42.9902 36.4326 Q43.123 35.7764 43.123 34.8389 ZM50.8594 34.8389 Q50.8594 36.0264 50.6328 36.8389 Q50.4062 37.6514 50.0156 38.1514 Q49.625 38.6514 49.1016 38.8701 Q48.5781 39.0889 47.9844 39.0889 Q47.375 39.0889 46.8516 38.8701 Q46.3281 38.6514 45.9453 38.1514 Q45.5625 37.6514 45.3438 36.8389 Q45.125 36.0264 45.125 34.8389 Q45.125 33.5889 45.3438 32.7686 Q45.5625 31.9482 45.9531 31.4639 Q46.3438 30.9795 46.8672 30.7842 Q47.3906 30.5889 48.0156 30.5889 Q48.6094 30.5889 49.125 30.7842 Q49.6406 30.9795 50.0312 31.4639 Q50.4219 31.9482 50.6406 32.7686 Q50.8594 33.5889 50.8594 34.8389 ZM49.7969 34.8389 Q49.7969 33.8545 49.6797 33.1982 Q49.5625 32.542 49.3281 32.1514 Q49.0938 31.7607 48.7656 31.5967 Q48.4375 31.4326 48.0156 31.4326 Q47.5625 31.4326 47.2266 31.5967 Q46.8906 31.7607 46.6562 32.1514 Q46.4219 32.542 46.3047 33.1982 Q46.1875 33.8545 46.1875 34.8389 Q46.1875 35.7764 46.3125 36.4326 Q46.4375 37.0889 46.6641 37.4795 Q46.8906 37.8701 47.2266 38.042 Q47.5625 38.2139 47.9844 38.2139 Q48.4062 38.2139 48.7422 38.042 Q49.0781 37.8701 49.3047 37.4795 Q49.5312 37.0889 49.6641 36.4326 Q49.7969 35.7764 49.7969 34.8389 ZM61.5801 36.417 Q61.5801 37.1514 61.4238 37.6514 Q61.2676 38.1514 61.0176 38.4639 Q60.7676 38.7764 60.4238 38.9092 Q60.0801 39.042 59.7051 39.042 Q59.3145 39.042 58.9785 38.9092 Q58.6426 38.7764 58.3926 38.4717 Q58.1426 38.167 57.9941 37.6592 Q57.8457 37.1514 57.8457 36.417 Q57.8457 35.6357 57.9863 35.1279 Q58.127 34.6201 58.3848 34.3154 Q58.6426 34.0107 58.9863 33.8936 Q59.3301 33.7764 59.7207 33.7764 Q60.1113 33.7764 60.4473 33.8936 Q60.7832 34.0107 61.0332 34.3154 Q61.2832 34.6201 61.4316 35.1279 Q61.5801 35.6357 61.5801 36.417 ZM54.4238 38.9639 L53.5176 38.9639 L58.9082 30.7139 L59.8301 30.7139 L54.4238 38.9639 ZM53.6426 30.6357 Q54.0176 30.6357 54.3535 30.7529 Q54.6895 30.8701 54.9395 31.1748 Q55.1895 31.4795 55.3301 31.9795 Q55.4707 32.4795 55.4707 33.2451 Q55.4707 33.9951 55.3223 34.4951 Q55.1738 34.9951 54.9316 35.3076 Q54.6895 35.6201 54.3457 35.7529 Q54.002 35.8857 53.6113 35.8857 Q53.2207 35.8857 52.8848 35.7529 Q52.5488 35.6201 52.2988 35.3076 Q52.0488 34.9951 51.9004 34.4951 Q51.752 33.9951 51.752 33.2451 Q51.752 32.4795 51.9004 31.9795 Q52.0488 31.4795 52.2988 31.1748 Q52.5488 30.8701 52.8926 30.7529 Q53.2363 30.6357 53.6426 30.6357 ZM60.7051 36.417 Q60.7051 35.8389 60.6426 35.4561 Q60.5801 35.0732 60.4551 34.8467 Q60.3301 34.6201 60.1426 34.5264 Q59.9551 34.4326 59.7207 34.4326 Q59.4707 34.4326 59.2832 34.5264 Q59.0957 34.6201 58.9707 34.8467 Q58.8457 35.0732 58.7832 35.4561 Q58.7207 35.8389 58.7207 36.417 Q58.7207 36.9795 58.7832 37.3545 Q58.8457 37.7295 58.9707 37.9561 Q59.0957 38.1826 59.2832 38.2842 Q59.4707 38.3857 59.7051 38.3857 Q59.9395 38.3857 60.127 38.2842 Q60.3145 38.1826 60.4395 37.9561 Q60.5645 37.7295 60.6348 37.3545 Q60.7051 36.9795 60.7051 36.417 ZM54.6113 33.2451 Q54.6113 32.6826 54.5488 32.2998 Q54.4863 31.917 54.3613 31.6904 Q54.2363 31.4639 54.0566 31.3701 Q53.877 31.2764 53.6426 31.2764 Q53.3926 31.2764 53.1973 31.3701 Q53.002 31.4639 52.877 31.6904 Q52.752 31.917 52.6895 32.2998 Q52.627 32.6826 52.627 33.2451 Q52.627 33.8076 52.6895 34.1904 Q52.752 34.5732 52.877 34.7998 Q53.002 35.0264 53.1895 35.1279 Q53.377 35.2295 53.627 35.2295 Q53.8457 35.2295 54.0332 35.1279 Q54.2207 35.0264 54.3457 34.7998 Q54.4707 34.5732 54.541 34.1904 Q54.6113 33.8076 54.6113 33.2451 Z"/></g><g style="font-size:18; fill:rgb(6,76,132); text-rendering:optimizeLegibility; font-family:sans-serif; stroke:rgb(6,76,132); font-weight:bold; stroke-width:2;" transform="matrix(0,-1,1,0,-226.5405,264.4595)"><path style="clip-path:url(#clipPath2); stroke:none;" d="M-50.3389 251.4458 L-50.3389 239.0552 L-47.7451 239.0552 L-47.7451 249.4458 L-41.1045 249.4458 L-41.1045 251.4458 L-50.3389 251.4458 ZM-37.0938 251.6177 Q-37.7812 251.6177 -38.3203 251.4302 Q-38.8594 251.2427 -39.2344 250.8755 Q-39.6094 250.5083 -39.8125 249.9771 Q-40.0156 249.4458 -40.0156 248.7583 Q-40.0156 247.9146 -39.7266 247.3364 Q-39.4375 246.7583 -38.9219 246.4067 Q-38.4062 246.0552 -37.7266 245.8911 Q-37.0469 245.7271 -36.2656 245.7114 L-34.2188 245.6802 L-34.2188 245.1958 Q-34.2188 244.6802 -34.3125 244.3286 Q-34.4062 243.9771 -34.5781 243.7583 Q-34.75 243.5396 -35.0078 243.4458 Q-35.2656 243.3521 -35.6094 243.3521 Q-35.9219 243.3521 -36.1562 243.4146 Q-36.3906 243.4771 -36.5703 243.6333 Q-36.75 243.7896 -36.8594 244.0474 Q-36.9688 244.3052 -37.0156 244.7114 L-39.5938 244.5864 Q-39.4844 243.9614 -39.2031 243.4458 Q-38.9219 242.9302 -38.4219 242.5552 Q-37.9219 242.1802 -37.2031 241.9692 Q-36.4844 241.7583 -35.5 241.7583 Q-34.6094 241.7583 -33.9141 241.9771 Q-33.2188 242.1958 -32.7422 242.6333 Q-32.2656 243.0708 -32.0078 243.7036 Q-31.75 244.3364 -31.75 245.1646 L-31.75 248.6333 Q-31.75 248.9614 -31.7188 249.2271 Q-31.6875 249.4927 -31.6016 249.6724 Q-31.5156 249.8521 -31.3672 249.9458 Q-31.2188 250.0396 -30.9688 250.0396 Q-30.6875 250.0396 -30.4219 249.9927 L-30.4219 251.3208 Q-30.6406 251.3677 -30.8203 251.4146 Q-31 251.4614 -31.1719 251.4927 Q-31.3438 251.5239 -31.5391 251.5396 Q-31.7344 251.5552 -32 251.5552 Q-32.9375 251.5552 -33.3828 251.0942 Q-33.8281 250.6333 -33.9062 249.7427 L-33.9688 249.7427 Q-34.4531 250.6333 -35.2266 251.1255 Q-36 251.6177 -37.0938 251.6177 ZM-34.2188 247.0396 L-35.4844 247.0552 Q-35.875 247.0708 -36.2344 247.1255 Q-36.5938 247.1802 -36.8594 247.3286 Q-37.125 247.4771 -37.2812 247.7661 Q-37.4375 248.0552 -37.4375 248.5552 Q-37.4375 249.2427 -37.125 249.5708 Q-36.8125 249.8989 -36.2969 249.8989 Q-35.8281 249.8989 -35.4375 249.6958 Q-35.0469 249.4927 -34.7812 249.1646 Q-34.5156 248.8364 -34.3672 248.4067 Q-34.2188 247.9771 -34.2188 247.5239 L-34.2188 247.0396 ZM-23.1143 251.4458 L-23.1143 246.1177 Q-23.1143 245.5552 -23.2002 245.0942 Q-23.2861 244.6333 -23.4893 244.3052 Q-23.6924 243.9771 -24.0205 243.7896 Q-24.3486 243.6021 -24.8174 243.6021 Q-25.2549 243.6021 -25.6221 243.8052 Q-25.9893 244.0083 -26.2549 244.3677 Q-26.5205 244.7271 -26.6611 245.2349 Q-26.8018 245.7427 -26.8018 246.3521 L-26.8018 251.4458 L-29.2861 251.4458 L-29.2861 244.0552 Q-29.2861 243.7583 -29.2861 243.4302 Q-29.2861 243.1021 -29.3018 242.8052 Q-29.3174 242.5083 -29.3252 242.2817 Q-29.333 242.0552 -29.3486 241.9302 L-26.9893 241.9302 Q-26.9736 242.0396 -26.958 242.2739 Q-26.9424 242.5083 -26.9268 242.7896 Q-26.9111 243.0708 -26.8955 243.3521 Q-26.8799 243.6333 -26.8799 243.8208 L-26.8486 243.8208 Q-26.3486 242.7427 -25.5908 242.2505 Q-24.833 241.7583 -23.7861 241.7583 Q-22.9268 241.7583 -22.333 242.0396 Q-21.7393 242.3208 -21.3643 242.813 Q-20.9893 243.3052 -20.8252 243.9692 Q-20.6611 244.6333 -20.6611 245.4146 L-20.6611 251.4458 L-23.1143 251.4458 ZM-12.1191 251.4458 Q-12.1348 251.3677 -12.1582 251.188 Q-12.1816 251.0083 -12.2051 250.7817 Q-12.2285 250.5552 -12.2441 250.3208 Q-12.2598 250.0864 -12.2598 249.8989 L-12.291 249.8989 Q-12.7129 250.8208 -13.4863 251.2192 Q-14.2598 251.6177 -15.3379 251.6177 Q-16.2285 251.6177 -16.8848 251.2505 Q-17.541 250.8833 -17.9629 250.2271 Q-18.3848 249.5708 -18.5957 248.6646 Q-18.8066 247.7583 -18.8066 246.6958 Q-18.8066 245.6177 -18.5879 244.7114 Q-18.3691 243.8052 -17.9238 243.1489 Q-17.4785 242.4927 -16.7832 242.1255 Q-16.0879 241.7583 -15.1504 241.7583 Q-14.6816 241.7583 -14.252 241.8521 Q-13.8223 241.9458 -13.4551 242.1489 Q-13.0879 242.3521 -12.7832 242.6724 Q-12.4785 242.9927 -12.2754 243.4458 L-12.2598 243.4458 Q-12.2598 243.3521 -12.2598 243.1802 Q-12.2598 243.0083 -12.2598 242.7896 Q-12.2598 242.5708 -12.2676 242.3286 Q-12.2754 242.0864 -12.2754 241.8677 L-12.2754 238.3989 L-9.8066 238.3989 L-9.8066 249.3677 Q-9.8066 250.0708 -9.7754 250.6099 Q-9.7441 251.1489 -9.7285 251.4458 L-12.1191 251.4458 ZM-12.2441 246.6333 Q-12.2441 245.6958 -12.416 245.0786 Q-12.5879 244.4614 -12.877 244.0942 Q-13.166 243.7271 -13.5254 243.5864 Q-13.8848 243.4458 -14.2598 243.4458 Q-14.7441 243.4458 -15.1113 243.6255 Q-15.4785 243.8052 -15.7285 244.2036 Q-15.9785 244.6021 -16.1035 245.2192 Q-16.2285 245.8364 -16.2285 246.6958 Q-16.2285 249.9302 -14.291 249.9302 Q-13.916 249.9302 -13.5488 249.7739 Q-13.1816 249.6177 -12.8926 249.2427 Q-12.6035 248.8677 -12.4238 248.2271 Q-12.2441 247.5864 -12.2441 246.6333 ZM-4.8584 243.8364 Q-4.3584 242.7427 -3.6006 242.2505 Q-2.8428 241.7583 -1.7959 241.7583 Q-0.9365 241.7583 -0.3428 242.0396 Q0.251 242.3208 0.626 242.813 Q1.001 243.3052 1.165 243.9771 Q1.3291 244.6489 1.3291 245.4146 L1.3291 251.4458 L-1.124 251.4458 L-1.124 246.1177 Q-1.124 245.5708 -1.21 245.1099 Q-1.2959 244.6489 -1.499 244.313 Q-1.7021 243.9771 -2.0303 243.7974 Q-2.3584 243.6177 -2.8271 243.6177 Q-3.2646 243.6177 -3.6318 243.813 Q-3.999 244.0083 -4.2646 244.3755 Q-4.5303 244.7427 -4.6709 245.2427 Q-4.8115 245.7427 -4.8115 246.3521 L-4.8115 251.4458 L-7.2959 251.4458 L-7.2959 238.3989 L-4.8115 238.3989 L-4.8115 241.9614 Q-4.8115 242.2427 -4.8271 242.5317 Q-4.8428 242.8208 -4.8506 243.0708 Q-4.8584 243.3208 -4.8662 243.5239 Q-4.874 243.7271 -4.8896 243.8364 L-4.8584 243.8364 ZM12.7461 246.6802 Q12.7461 247.7739 12.4414 248.6802 Q12.1367 249.5864 11.5273 250.2427 Q10.918 250.8989 10.0117 251.2583 Q9.1055 251.6177 7.9023 251.6177 Q6.7461 251.6177 5.8555 251.2583 Q4.9648 250.8989 4.3633 250.2505 Q3.7617 249.6021 3.457 248.688 Q3.1523 247.7739 3.1523 246.6802 Q3.1523 245.6177 3.4492 244.7192 Q3.7461 243.8208 4.3398 243.1567 Q4.9336 242.4927 5.8398 242.1255 Q6.7461 241.7583 7.9648 241.7583 Q9.2461 241.7583 10.1523 242.1255 Q11.0586 242.4927 11.6289 243.1489 Q12.1992 243.8052 12.4727 244.7036 Q12.7461 245.6021 12.7461 246.6802 ZM10.1523 246.6802 Q10.1523 244.9927 9.5977 244.2271 Q9.043 243.4614 7.9961 243.4614 Q6.9023 243.4614 6.3242 244.2349 Q5.7461 245.0083 5.7461 246.6802 Q5.7461 247.5396 5.9023 248.1489 Q6.0586 248.7583 6.3398 249.1567 Q6.6211 249.5552 7.0117 249.7427 Q7.4023 249.9302 7.8867 249.9302 Q8.4336 249.9302 8.8555 249.7427 Q9.2773 249.5552 9.5664 249.1567 Q9.8555 248.7583 10.0039 248.1489 Q10.1523 247.5396 10.1523 246.6802 ZM14.6943 251.4458 L14.6943 238.3989 L17.1787 238.3989 L17.1787 251.4458 L14.6943 251.4458 ZM25.8672 251.4458 Q25.8516 251.3677 25.8281 251.188 Q25.8047 251.0083 25.7812 250.7817 Q25.7578 250.5552 25.7422 250.3208 Q25.7266 250.0864 25.7266 249.8989 L25.6953 249.8989 Q25.2734 250.8208 24.5 251.2192 Q23.7266 251.6177 22.6484 251.6177 Q21.7578 251.6177 21.1016 251.2505 Q20.4453 250.8833 20.0234 250.2271 Q19.6016 249.5708 19.3906 248.6646 Q19.1797 247.7583 19.1797 246.6958 Q19.1797 245.6177 19.3984 244.7114 Q19.6172 243.8052 20.0625 243.1489 Q20.5078 242.4927 21.2031 242.1255 Q21.8984 241.7583 22.8359 241.7583 Q23.3047 241.7583 23.7344 241.8521 Q24.1641 241.9458 24.5312 242.1489 Q24.8984 242.3521 25.2031 242.6724 Q25.5078 242.9927 25.7109 243.4458 L25.7266 243.4458 Q25.7266 243.3521 25.7266 243.1802 Q25.7266 243.0083 25.7266 242.7896 Q25.7266 242.5708 25.7188 242.3286 Q25.7109 242.0864 25.7109 241.8677 L25.7109 238.3989 L28.1797 238.3989 L28.1797 249.3677 Q28.1797 250.0708 28.2109 250.6099 Q28.2422 251.1489 28.2578 251.4458 L25.8672 251.4458 ZM25.7422 246.6333 Q25.7422 245.6958 25.5703 245.0786 Q25.3984 244.4614 25.1094 244.0942 Q24.8203 243.7271 24.4609 243.5864 Q24.1016 243.4458 23.7266 243.4458 Q23.2422 243.4458 22.875 243.6255 Q22.5078 243.8052 22.2578 244.2036 Q22.0078 244.6021 21.8828 245.2192 Q21.7578 245.8364 21.7578 246.6958 Q21.7578 249.9302 23.6953 249.9302 Q24.0703 249.9302 24.4375 249.7739 Q24.8047 249.6177 25.0938 249.2427 Q25.3828 248.8677 25.5625 248.2271 Q25.7422 247.5864 25.7422 246.6333 ZM34.5967 251.6177 Q33.5654 251.6177 32.7451 251.313 Q31.9248 251.0083 31.3389 250.3911 Q30.7529 249.7739 30.4482 248.8364 Q30.1436 247.8989 30.1436 246.6489 Q30.1436 245.2896 30.5107 244.3521 Q30.8779 243.4146 31.4951 242.8442 Q32.1123 242.2739 32.9248 242.0161 Q33.7373 241.7583 34.6279 241.7583 Q35.7529 241.7583 36.5498 242.1489 Q37.3467 242.5396 37.8545 243.2427 Q38.3623 243.9458 38.5967 244.9302 Q38.8311 245.9146 38.8311 247.1021 L38.8311 247.1646 L32.7373 247.1646 Q32.7373 247.7583 32.8389 248.2739 Q32.9404 248.7896 33.1826 249.1646 Q33.4248 249.5396 33.7998 249.7505 Q34.1748 249.9614 34.7217 249.9614 Q35.3623 249.9614 35.7764 249.688 Q36.1904 249.4146 36.3623 248.8364 L38.6904 249.0396 Q38.5342 249.4458 38.2529 249.8989 Q37.9717 250.3521 37.4951 250.7349 Q37.0186 251.1177 36.3076 251.3677 Q35.5967 251.6177 34.5967 251.6177 ZM34.5967 243.3208 Q34.2061 243.3208 33.8779 243.4458 Q33.5498 243.5708 33.3076 243.8442 Q33.0654 244.1177 32.917 244.563 Q32.7686 245.0083 32.7529 245.6177 L36.4404 245.6177 Q36.3779 244.4614 35.8936 243.8911 Q35.4092 243.3208 34.5967 243.3208 ZM40.7012 251.4458 L40.7012 244.1646 Q40.7012 243.8677 40.7012 243.5239 Q40.7012 243.1802 40.6855 242.8677 Q40.6699 242.5552 40.6621 242.3052 Q40.6543 242.0552 40.6387 241.9302 L42.998 241.9302 Q43.0137 242.0396 43.0293 242.2974 Q43.0449 242.5552 43.0605 242.8677 Q43.0762 243.1802 43.0918 243.4771 Q43.1074 243.7739 43.1074 243.9614 L43.1387 243.9614 Q43.3262 243.4458 43.5137 243.0396 Q43.7012 242.6333 43.9512 242.3442 Q44.2012 242.0552 44.5527 241.9067 Q44.9043 241.7583 45.4199 241.7583 Q45.6387 241.7583 45.8574 241.7974 Q46.0762 241.8364 46.1855 241.8833 L46.1855 243.9458 Q45.9512 243.8989 45.709 243.8599 Q45.4668 243.8208 45.123 243.8208 Q44.2012 243.8208 43.6934 244.563 Q43.1855 245.3052 43.1855 246.7739 L43.1855 251.4458 L40.7012 251.4458 ZM55.7217 248.6646 Q55.7217 249.3521 55.4404 249.8989 Q55.1592 250.4458 54.6123 250.8286 Q54.0654 251.2114 53.2764 251.4146 Q52.4873 251.6177 51.4717 251.6177 Q50.5654 251.6177 49.8389 251.4849 Q49.1123 251.3521 48.5654 251.0552 Q48.0186 250.7583 47.6436 250.2739 Q47.2686 249.7896 47.0967 249.0708 L49.2529 248.7427 Q49.3623 249.1489 49.5498 249.3911 Q49.7373 249.6333 50.0107 249.7661 Q50.2842 249.8989 50.6436 249.9458 Q51.0029 249.9927 51.4717 249.9927 Q51.8936 249.9927 52.2607 249.938 Q52.6279 249.8833 52.8936 249.7661 Q53.1592 249.6489 53.3076 249.438 Q53.4561 249.2271 53.4561 248.8989 Q53.4561 248.5239 53.2451 248.313 Q53.0342 248.1021 52.6592 247.9614 Q52.2842 247.8208 51.7764 247.7192 Q51.2686 247.6177 50.7061 247.4927 Q50.0967 247.3521 49.5186 247.1724 Q48.9404 246.9927 48.4873 246.6724 Q48.0342 246.3521 47.7529 245.8677 Q47.4717 245.3833 47.4717 244.6333 Q47.4717 243.9614 47.7295 243.4302 Q47.9873 242.8989 48.5029 242.5239 Q49.0186 242.1489 49.7686 241.9536 Q50.5186 241.7583 51.4873 241.7583 Q52.2686 241.7583 52.9326 241.8989 Q53.5967 242.0396 54.1279 242.3521 Q54.6592 242.6646 55.0107 243.1489 Q55.3623 243.6333 55.5029 244.3208 L53.3154 244.5396 Q53.2529 244.1958 53.0967 243.9771 Q52.9404 243.7583 52.7061 243.6255 Q52.4717 243.4927 52.167 243.4458 Q51.8623 243.3989 51.4873 243.3989 Q50.6123 243.3989 50.1748 243.6177 Q49.7373 243.8364 49.7373 244.3677 Q49.7373 244.6958 49.917 244.8911 Q50.0967 245.0864 50.4248 245.2114 Q50.7529 245.3364 51.2061 245.4302 Q51.6592 245.5239 52.1904 245.6489 Q52.8623 245.7896 53.4951 245.9771 Q54.1279 246.1646 54.6279 246.5005 Q55.1279 246.8364 55.4248 247.3521 Q55.7217 247.8677 55.7217 248.6646 ZM64.9678 255.1802 Q64.2959 254.2114 63.8037 253.2427 Q63.3115 252.2739 62.9912 251.2505 Q62.6709 250.2271 62.5146 249.1255 Q62.3584 248.0239 62.3584 246.7739 Q62.3584 245.5239 62.5146 244.4302 Q62.6709 243.3364 62.9912 242.3208 Q63.3115 241.3052 63.8037 240.3442 Q64.2959 239.3833 64.9678 238.3989 L67.4521 238.3989 Q66.749 239.4146 66.2412 240.4146 Q65.7334 241.4146 65.4131 242.4302 Q65.0928 243.4458 64.9443 244.5239 Q64.7959 245.6021 64.7959 246.7896 Q64.7959 247.9771 64.9443 249.0552 Q65.0928 250.1333 65.4131 251.1567 Q65.7334 252.1802 66.2412 253.1646 Q66.749 254.1489 67.4521 255.1802 L64.9678 255.1802 ZM82.9932 247.6489 Q82.9932 248.7427 82.7432 249.5005 Q82.4932 250.2583 82.0713 250.7192 Q81.6494 251.1802 81.0869 251.3833 Q80.5244 251.5864 79.8838 251.5864 Q79.2275 251.5864 78.6572 251.3833 Q78.0869 251.1802 77.6729 250.7192 Q77.2588 250.2583 77.0166 249.5005 Q76.7744 248.7427 76.7744 247.6489 Q76.7744 246.4927 77.0166 245.7271 Q77.2588 244.9614 77.6807 244.5083 Q78.1025 244.0552 78.6729 243.8755 Q79.2432 243.6958 79.915 243.6958 Q80.5557 243.6958 81.1182 243.8755 Q81.6807 244.0552 82.0947 244.5083 Q82.5088 244.9614 82.751 245.7271 Q82.9932 246.4927 82.9932 247.6489 ZM72.3213 251.4458 L70.5088 251.4458 L78.5869 239.0552 L80.4307 239.0552 L72.3213 251.4458 ZM71.0557 238.9146 Q71.6807 238.9146 72.2432 239.0942 Q72.8057 239.2739 73.2275 239.7271 Q73.6494 240.1802 73.8994 240.938 Q74.1494 241.6958 74.1494 242.8521 Q74.1494 243.9614 73.8994 244.7114 Q73.6494 245.4614 73.2197 245.9302 Q72.79 246.3989 72.2197 246.6021 Q71.6494 246.8052 71.0088 246.8052 Q70.3682 246.8052 69.7979 246.6021 Q69.2275 246.3989 68.8135 245.938 Q68.3994 245.4771 68.1572 244.7192 Q67.915 243.9614 67.915 242.8521 Q67.915 241.6958 68.1494 240.938 Q68.3838 240.1802 68.8057 239.7271 Q69.2275 239.2739 69.8057 239.0942 Q70.3838 238.9146 71.0557 238.9146 ZM81.1025 247.6489 Q81.1025 246.8833 81.0244 246.3833 Q80.9463 245.8833 80.7979 245.5864 Q80.6494 245.2896 80.4307 245.1724 Q80.2119 245.0552 79.915 245.0552 Q79.5869 245.0552 79.3525 245.1724 Q79.1182 245.2896 78.9697 245.5864 Q78.8213 245.8833 78.751 246.3911 Q78.6807 246.8989 78.6807 247.6489 Q78.6807 248.3833 78.751 248.8755 Q78.8213 249.3677 78.9697 249.6646 Q79.1182 249.9614 79.3525 250.0864 Q79.5869 250.2114 79.8994 250.2114 Q80.1963 250.2114 80.415 250.0864 Q80.6338 249.9614 80.79 249.6646 Q80.9463 249.3677 81.0244 248.8755 Q81.1025 248.3833 81.1025 247.6489 ZM72.2275 242.8521 Q72.2275 242.1021 72.1572 241.6021 Q72.0869 241.1021 71.9385 240.813 Q71.79 240.5239 71.5713 240.4067 Q71.3525 240.2896 71.0557 240.2896 Q70.7275 240.2896 70.4854 240.4067 Q70.2432 240.5239 70.0947 240.8208 Q69.9463 241.1177 69.876 241.6177 Q69.8057 242.1177 69.8057 242.8521 Q69.8057 243.6021 69.876 244.0942 Q69.9463 244.5864 70.1025 244.8833 Q70.2588 245.1802 70.4854 245.3052 Q70.7119 245.4302 71.0244 245.4302 Q71.3369 245.4302 71.5557 245.3052 Q71.7744 245.1802 71.9307 244.8833 Q72.0869 244.5864 72.1572 244.0942 Q72.2275 243.6021 72.2275 242.8521 ZM83.4824 255.1802 Q84.1855 254.1489 84.6855 253.1646 Q85.1855 252.1802 85.5059 251.1567 Q85.8262 250.1333 85.9746 249.0552 Q86.123 247.9771 86.123 246.7896 Q86.123 245.6021 85.9746 244.5239 Q85.8262 243.4458 85.5059 242.4302 Q85.1855 241.4146 84.6855 240.4146 Q84.1855 239.4146 83.4824 238.3989 L85.9512 238.3989 Q86.6387 239.3833 87.1309 240.3442 Q87.623 241.3052 87.9434 242.3208 Q88.2637 243.3364 88.4121 244.4302 Q88.5605 245.5239 88.5605 246.7739 Q88.5605 248.0239 88.4121 249.1255 Q88.2637 250.2271 87.9434 251.2505 Q87.623 252.2739 87.1309 253.2427 Q86.6387 254.2114 85.9512 255.1802 L83.4824 255.1802 Z"/></g><g style="font-size:18; fill:gray; text-rendering:optimizeLegibility; font-family:sans-serif; stroke:gray; font-weight:bold; stroke-width:2;"><line y2="456" style="fill:none; clip-path:url(#clipPath3);" x1="68" x2="742" y1="456"/><line y2="371.8" style="fill:none; clip-path:url(#clipPath3);" x1="68" x2="742" y1="371.8"/><line y2="287.6" style="fill:none; clip-path:url(#clipPath3);" x1="68" x2="742" y1="287.6"/><line y2="203.4" style="fill:none; clip-path:url(#clipPath3);" x1="68" x2="742" y1="203.4"/><line y2="119.2" style="fill:none; clip-path:url(#clipPath3);" x1="68" x2="742" y1="119.2"/><line y2="35" style="fill:none; clip-path:url(#clipPath3);" x1="68" x2="742" y1="35"/></g><g style="font-size:18; fill-opacity:0.3529; fill:rgb(0,118,70); text-rendering:optimizeLegibility; font-family:sans-serif; stroke:rgb(0,118,70); font-weight:bold; stroke-width:2; stroke-opacity:0.3529;"><path style="clip-path:url(#clipPath3); stroke:none;" d="M103.8063 435.74 L108.8063 430.74 L113.8063 430.74 L103.8063 440.74 ZM103.8063 445.74 L118.8063 430.74 L123.8063 430.74 L103.8063 450.74 ZM103.8063 455.74 L128.8062 430.74 L133.8062 430.74 L108.5462 456 L103.8063 456 ZM113.5462 456 L138.8062 430.74 L143.8062 430.74 L118.5462 456 ZM123.5462 456 L148.8062 430.74 L153.8062 430.74 L128.5462 456 ZM133.5462 456 L157.7263 431.82 L157.7263 436.82 L138.5462 456 ZM143.5462 456 L157.7263 441.82 L157.7263 446.82 L148.5462 456 ZM153.5462 456 L157.7263 451.82 L157.7263 456 Z"/><rect x="163.6237" width="53.92" height="33.68" y="422.32" style="fill-opacity:1; clip-path:url(#clipPath3); stroke:none; stroke-opacity:1;"/><path style="fill:rgb(168,198,162); clip-path:url(#clipPath3); stroke:none;" d="M266.6896 250.5 L271.6896 245.5 L276.6896 245.5 L266.6896 255.5 ZM266.6896 260.5 L281.6896 245.5 L286.6896 245.5 L266.6896 265.5 ZM266.6896 270.5 L291.6896 245.5 L296.6896 245.5 L266.6896 275.5 ZM266.6896 280.5 L301.6896 245.5 L306.6896 245.5 L266.6896 285.5 ZM266.6896 290.5 L311.6896 245.5 L316.6896 245.5 L266.6896 295.5 ZM266.6896 300.5 L320.6096 246.58 L320.6096 251.58 L266.6896 305.5 ZM266.6896 310.5 L320.6096 256.58 L320.6096 261.58 L266.6896 315.5 ZM266.6896 320.5 L320.6096 266.58 L320.6096 271.58 L266.6896 325.5 ZM266.6896 330.5 L320.6096 276.58 L320.6096 281.58 L266.6896 335.5 ZM266.6896 340.5 L320.6096 286.58 L320.6096 291.58 L266.6896 345.5 ZM266.6896 350.5 L320.6096 296.58 L320.6096 301.58 L266.6896 355.5 ZM266.6896 360.5 L320.6096 306.58 L320.6096 311.58 L266.6896 365.5 ZM266.6896 370.5 L320.6096 316.58 L320.6096 321.58 L266.6896 375.5 ZM266.6896 380.5 L320.6096 326.58 L320.6096 331.58 L266.6896 385.5 ZM266.6896 390.5 L320.6096 336.58 L320.6096 341.58 L266.6896 395.5 ZM266.6896 400.5 L320.6096 346.58 L320.6096 351.58 L266.6896 405.5 ZM266.6896 410.5 L320.6096 356.58 L320.6096 361.58 L266.6896 415.5 ZM266.6896 420.5 L320.6096 366.58 L320.6096 371.58 L266.6896 425.5 ZM266.6896 430.5 L320.6096 376.58 L320.6096 381.58 L266.6896 435.5 ZM266.6896 440.5 L320.6096 386.58 L320.6096 391.58 L266.6896 445.5 ZM266.6896 450.5 L320.6096 396.58 L320.6096 401.58 L266.6896 455.5 ZM271.1896 456 L320.6096 406.58 L320.6096 411.58 L276.1896 456 ZM281.1896 456 L320.6096 416.58 L320.6096 421.58 L286.1896 456 ZM291.1896 456 L320.6096 426.58 L320.6096 431.58 L296.1896 456 ZM301.1896 456 L320.6096 436.58 L320.6096 441.58 L306.1896 456 ZM311.1896 456 L320.6096 446.58 L320.6096 451.58 L316.1896 456 Z"/></g><g style="font-size:18; fill:rgb(168,198,162); text-rendering:optimizeLegibility; font-family:sans-serif; stroke:rgb(168,198,162); font-weight:bold; stroke-width:2;"><rect x="326.5071" width="53.92" height="218.92" y="237.08" style="clip-path:url(#clipPath3); stroke:none;"/></g><g style="font-size:18; fill-opacity:0.3529; fill:rgb(252,203,38); text-rendering:optimizeLegibility; font-family:sans-serif; stroke:rgb(252,203,38); font-weight:bold; stroke-width:2; stroke-opacity:0.3529;"><path style="clip-path:url(#clipPath3); stroke:none;" d="M429.5729 305.23 L434.5729 300.23 L439.5729 300.23 L429.5729 310.23 ZM429.5729 315.23 L444.5729 300.23 L449.5729 300.23 L429.5729 320.23 ZM429.5729 325.23 L454.5729 300.23 L459.5729 300.23 L429.5729 330.23 ZM429.5729 335.23 L464.5729 300.23 L469.5729 300.23 L429.5729 340.23 ZM429.5729 345.23 L474.5729 300.23 L479.5729 300.23 L429.5729 350.23 ZM429.5729 355.23 L483.4929 301.31 L483.4929 306.31 L429.5729 360.23 ZM429.5729 365.23 L483.4929 311.31 L483.4929 316.31 L429.5729 370.23 ZM429.5729 375.23 L483.4929 321.31 L483.4929 326.31 L429.5729 380.23 ZM429.5729 385.23 L483.4929 331.31 L483.4929 336.31 L429.5729 390.23 ZM429.5729 395.23 L483.4929 341.31 L483.4929 346.31 L429.5729 400.23 ZM429.5729 405.23 L483.4929 351.31 L483.4929 356.31 L429.5729 410.23 ZM429.5729 415.23 L483.4929 361.31 L483.4929 366.31 L429.5729 420.23 ZM429.5729 425.23 L483.4929 371.31 L483.4929 376.31 L429.5729 430.23 ZM429.5729 435.23 L483.4929 381.31 L483.4929 386.31 L429.5729 440.23 ZM429.5729 445.23 L483.4929 391.31 L483.4929 396.31 L429.5729 450.23 ZM429.5729 455.23 L483.4929 401.31 L483.4929 406.31 L433.8029 456 L429.5729 456 ZM438.8029 456 L483.4929 411.31 L483.4929 416.31 L443.8029 456 ZM448.8029 456 L483.4929 421.31 L483.4929 426.31 L453.8029 456 ZM458.8029 456 L483.4929 431.31 L483.4929 436.31 L463.8029 456 ZM468.8029 456 L483.4929 441.31 L483.4929 446.31 L473.8029 456 ZM478.8029 456 L483.4929 451.31 L483.4929 456 Z"/><rect x="489.3904" width="53.92" height="147.35" y="308.65" style="fill-opacity:1; clip-path:url(#clipPath3); stroke:none; stroke-opacity:1;"/><path style="fill:rgb(233,44,48); clip-path:url(#clipPath3); stroke:none;" d="M592.4562 431.53 L597.4562 426.53 L602.4562 426.53 L592.4562 436.53 ZM592.4562 441.53 L607.4562 426.53 L612.4562 426.53 L592.4562 446.53 ZM592.4562 451.53 L617.4562 426.53 L622.4562 426.53 L592.9863 456 L592.4562 456 ZM597.9863 456 L627.4562 426.53 L632.4562 426.53 L602.9863 456 ZM607.9863 456 L637.4562 426.53 L642.4562 426.53 L612.9863 456 ZM617.9863 456 L646.3762 427.61 L646.3762 432.61 L622.9863 456 ZM627.9863 456 L646.3762 437.61 L646.3762 442.61 L632.9863 456 ZM637.9863 456 L646.3762 447.61 L646.3762 452.61 L642.9863 456 Z"/></g><g style="font-size:18; fill:rgb(233,44,48); text-rendering:optimizeLegibility; font-family:sans-serif; stroke:rgb(233,44,48); font-weight:bold; stroke-width:2;"><rect x="652.2738" width="53.92" height="21.05" y="434.95" style="clip-path:url(#clipPath3); stroke:none;"/><line y2="456" style="clip-path:url(#clipPath3); fill:none; stroke:black;" x1="68" x2="742" y1="456"/><line y2="456" style="clip-path:url(#clipPath3); fill:none; stroke:black;" x1="68" x2="68" y1="35"/></g></g></svg>