<?xml version="1.0" encoding="UTF-8"?><svg xmlns="http://www.w3.org/2000/svg" xmlns:xlink="http://www.w3.org/1999/xlink" contentScriptType="text/ecmascript" width="750" zoomAndPan="magnify" style="stroke-dasharray:none; shape-rendering:auto; font-family:'Dialog'; text-rendering:auto; fill-opacity:1; color-interpolation:auto; color-rendering:auto; font-size:12; fill:black; stroke:black; image-rendering:auto; stroke-miterlimit:10; stroke-linecap:square; stroke-linejoin:miter; font-style:normal; stroke-width:1; stroke-dashoffset:0; font-weight:normal; stroke-opacity:1;" contentStyleType="text/css" viewBox="0 0 750 500" height="500" preserveAspectRatio="xMidYMid meet" version="1.0"><!--Generated by the Batik Graphics2D SVG Generator--><defs id="genericDefs"/><g><defs id="defs1"><clipPath clipPathUnits="userSpaceOnUse" id="clipPath1"><path d="M0 0 L750 0 L750 500 L0 500 L0 0 Z"/></clipPath><clipPath clipPathUnits="userSpaceOnUse" id="clipPath2"><path d="M267.082 227.918 L267.082 977.918 L-232.918 977.918 L-232.918 227.918 L267.082 227.918 Z"/></clipPath><clipPath clipPathUnits="userSpaceOnUse" id="clipPath3"><path d="M58 57 L58 438 L738 438 L738 57 Z"/></clipPath></defs><g style="fill:white; text-rendering:optimizeLegibility; font-size:11; font-family:'Liberation Sans'; stroke:white;"><rect x="0" width="750" height="500" y="0" style="clip-path:url(#clipPath1); stroke:none;"/></g><g style="font-weight:bold; font-size:20; text-rendering:optimizeLegibility;"><path style="clip-path:url(#clipPath1); stroke:none;" d="M173.4873 4.9863 L186.9248 4.9863 L186.9248 7.8301 L182.0967 7.8301 L182.0967 19.5645 L178.3311 19.5645 L178.3311 7.8301 L173.4873 7.8301 L173.4873 4.9863 ZM193.9268 10.8613 Q192.7549 10.8613 192.1455 11.6973 Q191.5361 12.5332 191.5361 14.1113 Q191.5361 15.6738 192.1455 16.5098 Q192.7549 17.3457 193.9268 17.3457 Q195.0674 17.3457 195.6689 16.5098 Q196.2705 15.6738 196.2705 14.1113 Q196.2705 12.5332 195.6689 11.6973 Q195.0674 10.8613 193.9268 10.8613 ZM193.9268 8.3613 Q196.7393 8.3613 198.3252 9.8848 Q199.9111 11.4082 199.9111 14.1113 Q199.9111 16.7988 198.3252 18.3223 Q196.7393 19.8457 193.9268 19.8457 Q191.083 19.8457 189.4893 18.3223 Q187.8955 16.7988 187.8955 14.1113 Q187.8955 11.4082 189.4893 9.8848 Q191.083 8.3613 193.9268 8.3613 ZM206.2764 5.5176 L206.2764 8.627 L209.8857 8.627 L209.8857 11.127 L206.2764 11.127 L206.2764 15.7676 Q206.2764 16.5332 206.5811 16.7988 Q206.8857 17.0645 207.7764 17.0645 L209.5732 17.0645 L209.5732 19.5645 L206.5732 19.5645 Q204.5107 19.5645 203.6436 18.6973 Q202.7764 17.8301 202.7764 15.7676 L202.7764 11.127 L201.042 11.127 L201.042 8.627 L202.7764 8.627 L202.7764 5.5176 L206.2764 5.5176 ZM216.915 14.6426 Q215.8213 14.6426 215.2744 15.0098 Q214.7275 15.377 214.7275 16.1113 Q214.7275 16.7676 215.1729 17.1426 Q215.6182 17.5176 216.3994 17.5176 Q217.3838 17.5176 218.0635 16.8145 Q218.7432 16.1113 218.7432 15.0488 L218.7432 14.6426 L216.915 14.6426 ZM222.2588 13.3301 L222.2588 19.5645 L218.7432 19.5645 L218.7432 17.9395 Q218.04 18.9395 217.1572 19.3926 Q216.2744 19.8457 215.0088 19.8457 Q213.3213 19.8457 212.2588 18.8535 Q211.1963 17.8613 211.1963 16.2832 Q211.1963 14.3613 212.5166 13.4629 Q213.8369 12.5645 216.6807 12.5645 L218.7432 12.5645 L218.7432 12.2832 Q218.7432 11.4551 218.0869 11.0723 Q217.4307 10.6895 216.04 10.6895 Q214.915 10.6895 213.9463 10.916 Q212.9775 11.1426 212.1494 11.5801 L212.1494 8.9238 Q213.2744 8.6426 214.4072 8.502 Q215.54 8.3613 216.6807 8.3613 Q219.6338 8.3613 220.9463 9.5254 Q222.2588 10.6895 222.2588 13.3301 ZM225.5205 4.3613 L229.0049 4.3613 L229.0049 19.5645 L225.5205 19.5645 L225.5205 4.3613 ZM250.3232 12.9082 L250.3232 19.5645 L246.8076 19.5645 L246.8076 18.4863 L246.8076 14.4707 Q246.8076 13.0488 246.7451 12.5098 Q246.6826 11.9707 246.5264 11.7207 Q246.3232 11.377 245.9717 11.1895 Q245.6201 11.002 245.167 11.002 Q244.0732 11.002 243.4482 11.8457 Q242.8232 12.6895 242.8232 14.1895 L242.8232 19.5645 L239.3389 19.5645 L239.3389 8.627 L242.8232 8.627 L242.8232 10.2207 Q243.6201 9.2676 244.5107 8.8145 Q245.4014 8.3613 246.4639 8.3613 Q248.3701 8.3613 249.3467 9.5254 Q250.3232 10.6895 250.3232 12.9082 ZM253.5771 8.627 L257.0615 8.627 L257.0615 19.5645 L253.5771 19.5645 L253.5771 8.627 ZM253.5771 4.3613 L257.0615 4.3613 L257.0615 7.2207 L253.5771 7.2207 L253.5771 4.3613 ZM264.2451 5.5176 L264.2451 8.627 L267.8545 8.627 L267.8545 11.127 L264.2451 11.127 L264.2451 15.7676 Q264.2451 16.5332 264.5498 16.7988 Q264.8545 17.0645 265.7451 17.0645 L267.542 17.0645 L267.542 19.5645 L264.542 19.5645 Q262.4795 19.5645 261.6123 18.6973 Q260.7451 17.8301 260.7451 15.7676 L260.7451 11.127 L259.0107 11.127 L259.0107 8.627 L260.7451 8.627 L260.7451 5.5176 L264.2451 5.5176 ZM278.1182 11.6113 Q277.6494 11.3926 277.1963 11.291 Q276.7432 11.1895 276.29 11.1895 Q274.9307 11.1895 274.2041 12.0488 Q273.4775 12.9082 273.4775 14.5176 L273.4775 19.5645 L269.9932 19.5645 L269.9932 8.627 L273.4775 8.627 L273.4775 10.4238 Q274.1494 9.3457 275.0244 8.8535 Q275.8994 8.3613 277.1182 8.3613 Q277.3057 8.3613 277.5088 8.377 Q277.7119 8.3926 278.1025 8.4395 L278.1182 11.6113 ZM285.0596 10.8613 Q283.8877 10.8613 283.2783 11.6973 Q282.6689 12.5332 282.6689 14.1113 Q282.6689 15.6738 283.2783 16.5098 Q283.8877 17.3457 285.0596 17.3457 Q286.2002 17.3457 286.8018 16.5098 Q287.4033 15.6738 287.4033 14.1113 Q287.4033 12.5332 286.8018 11.6973 Q286.2002 10.8613 285.0596 10.8613 ZM285.0596 8.3613 Q287.8721 8.3613 289.458 9.8848 Q291.0439 11.4082 291.0439 14.1113 Q291.0439 16.7988 289.458 18.3223 Q287.8721 19.8457 285.0596 19.8457 Q282.2158 19.8457 280.6221 18.3223 Q279.0283 16.7988 279.0283 14.1113 Q279.0283 11.4082 280.6221 9.8848 Q282.2158 8.3613 285.0596 8.3613 ZM301.0342 17.7051 Q300.3154 18.6582 299.4404 19.1113 Q298.5654 19.5645 297.4248 19.5645 Q295.4248 19.5645 294.1201 17.9863 Q292.8154 16.4082 292.8154 13.9707 Q292.8154 11.5176 294.1201 9.9473 Q295.4248 8.377 297.4248 8.377 Q298.5654 8.377 299.4404 8.8301 Q300.3154 9.2832 301.0342 10.252 L301.0342 8.627 L304.5498 8.627 L304.5498 18.4551 Q304.5498 21.0957 302.8857 22.4863 Q301.2217 23.877 298.0498 23.877 Q297.0342 23.877 296.0732 23.7207 Q295.1123 23.5645 294.1436 23.252 L294.1436 20.5176 Q295.0654 21.0488 295.9404 21.3066 Q296.8154 21.5645 297.7061 21.5645 Q299.4248 21.5645 300.2295 20.8145 Q301.0342 20.0645 301.0342 18.4551 L301.0342 17.7051 ZM298.7217 10.9082 Q297.6436 10.9082 297.0342 11.7051 Q296.4248 12.502 296.4248 13.9707 Q296.4248 15.4707 297.0107 16.2441 Q297.5967 17.0176 298.7217 17.0176 Q299.8154 17.0176 300.4248 16.2207 Q301.0342 15.4238 301.0342 13.9707 Q301.0342 12.502 300.4248 11.7051 Q299.8154 10.9082 298.7217 10.9082 ZM318.8193 14.0645 L318.8193 15.0645 L310.6475 15.0645 Q310.7725 16.2988 311.5381 16.9082 Q312.3037 17.5176 313.6631 17.5176 Q314.7725 17.5176 315.9287 17.1895 Q317.085 16.8613 318.3037 16.2051 L318.3037 18.8926 Q317.0693 19.3613 315.8271 19.6035 Q314.585 19.8457 313.3506 19.8457 Q310.3818 19.8457 308.7334 18.3379 Q307.085 16.8301 307.085 14.1113 Q307.085 11.4238 308.7021 9.8926 Q310.3193 8.3613 313.1475 8.3613 Q315.7256 8.3613 317.2725 9.916 Q318.8193 11.4707 318.8193 14.0645 ZM315.2256 12.9082 Q315.2256 11.9082 314.6475 11.2988 Q314.0693 10.6895 313.1318 10.6895 Q312.1162 10.6895 311.4834 11.2598 Q310.8506 11.8301 310.6943 12.9082 L315.2256 12.9082 ZM332.4619 12.9082 L332.4619 19.5645 L328.9463 19.5645 L328.9463 18.4863 L328.9463 14.4707 Q328.9463 13.0488 328.8838 12.5098 Q328.8213 11.9707 328.665 11.7207 Q328.4619 11.377 328.1104 11.1895 Q327.7588 11.002 327.3057 11.002 Q326.2119 11.002 325.5869 11.8457 Q324.9619 12.6895 324.9619 14.1895 L324.9619 19.5645 L321.4775 19.5645 L321.4775 8.627 L324.9619 8.627 L324.9619 10.2207 Q325.7588 9.2676 326.6494 8.8145 Q327.54 8.3613 328.6025 8.3613 Q330.5088 8.3613 331.4854 9.5254 Q332.4619 10.6895 332.4619 12.9082 ZM342.6787 4.3613 L346.1631 4.3613 L346.1631 19.5645 L342.6787 19.5645 L342.6787 4.3613 ZM354.7373 10.8613 Q353.5654 10.8613 352.9561 11.6973 Q352.3467 12.5332 352.3467 14.1113 Q352.3467 15.6738 352.9561 16.5098 Q353.5654 17.3457 354.7373 17.3457 Q355.8779 17.3457 356.4795 16.5098 Q357.0811 15.6738 357.0811 14.1113 Q357.0811 12.5332 356.4795 11.6973 Q355.8779 10.8613 354.7373 10.8613 ZM354.7373 8.3613 Q357.5498 8.3613 359.1357 9.8848 Q360.7217 11.4082 360.7217 14.1113 Q360.7217 16.7988 359.1357 18.3223 Q357.5498 19.8457 354.7373 19.8457 Q351.8936 19.8457 350.2998 18.3223 Q348.7061 16.7988 348.7061 14.1113 Q348.7061 11.4082 350.2998 9.8848 Q351.8936 8.3613 354.7373 8.3613 ZM368.165 14.6426 Q367.0713 14.6426 366.5244 15.0098 Q365.9775 15.377 365.9775 16.1113 Q365.9775 16.7676 366.4229 17.1426 Q366.8682 17.5176 367.6494 17.5176 Q368.6338 17.5176 369.3135 16.8145 Q369.9932 16.1113 369.9932 15.0488 L369.9932 14.6426 L368.165 14.6426 ZM373.5088 13.3301 L373.5088 19.5645 L369.9932 19.5645 L369.9932 17.9395 Q369.29 18.9395 368.4072 19.3926 Q367.5244 19.8457 366.2588 19.8457 Q364.5713 19.8457 363.5088 18.8535 Q362.4463 17.8613 362.4463 16.2832 Q362.4463 14.3613 363.7666 13.4629 Q365.0869 12.5645 367.9307 12.5645 L369.9932 12.5645 L369.9932 12.2832 Q369.9932 11.4551 369.3369 11.0723 Q368.6807 10.6895 367.29 10.6895 Q366.165 10.6895 365.1963 10.916 Q364.2275 11.1426 363.3994 11.5801 L363.3994 8.9238 Q364.5244 8.6426 365.6572 8.502 Q366.79 8.3613 367.9307 8.3613 Q370.8838 8.3613 372.1963 9.5254 Q373.5088 10.6895 373.5088 13.3301 ZM384.208 10.2207 L384.208 4.3613 L387.7236 4.3613 L387.7236 19.5645 L384.208 19.5645 L384.208 17.9863 Q383.4893 18.9551 382.6143 19.4004 Q381.7393 19.8457 380.5986 19.8457 Q378.583 19.8457 377.2861 18.2363 Q375.9893 16.627 375.9893 14.1113 Q375.9893 11.5801 377.2861 9.9707 Q378.583 8.3613 380.5986 8.3613 Q381.7393 8.3613 382.6143 8.8145 Q383.4893 9.2676 384.208 10.2207 ZM381.8955 17.3145 Q383.0205 17.3145 383.6143 16.4941 Q384.208 15.6738 384.208 14.1113 Q384.208 12.5488 383.6143 11.7285 Q383.0205 10.9082 381.8955 10.9082 Q380.7861 10.9082 380.1924 11.7285 Q379.5986 12.5488 379.5986 14.1113 Q379.5986 15.6738 380.1924 16.4941 Q380.7861 17.3145 381.8955 17.3145 ZM406.1748 11.6113 Q405.7061 11.3926 405.2529 11.291 Q404.7998 11.1895 404.3467 11.1895 Q402.9873 11.1895 402.2607 12.0488 Q401.5342 12.9082 401.5342 14.5176 L401.5342 19.5645 L398.0498 19.5645 L398.0498 8.627 L401.5342 8.627 L401.5342 10.4238 Q402.2061 9.3457 403.0811 8.8535 Q403.9561 8.3613 405.1748 8.3613 Q405.3623 8.3613 405.5654 8.377 Q405.7686 8.3926 406.1592 8.4395 L406.1748 11.6113 ZM418.8193 14.0645 L418.8193 15.0645 L410.6475 15.0645 Q410.7725 16.2988 411.5381 16.9082 Q412.3037 17.5176 413.6631 17.5176 Q414.7725 17.5176 415.9287 17.1895 Q417.085 16.8613 418.3037 16.2051 L418.3037 18.8926 Q417.0693 19.3613 415.8271 19.6035 Q414.585 19.8457 413.3506 19.8457 Q410.3818 19.8457 408.7334 18.3379 Q407.085 16.8301 407.085 14.1113 Q407.085 11.4238 408.7021 9.8926 Q410.3193 8.3613 413.1475 8.3613 Q415.7256 8.3613 417.2725 9.916 Q418.8193 11.4707 418.8193 14.0645 ZM415.2256 12.9082 Q415.2256 11.9082 414.6475 11.2988 Q414.0693 10.6895 413.1318 10.6895 Q412.1162 10.6895 411.4834 11.2598 Q410.8506 11.8301 410.6943 12.9082 L415.2256 12.9082 ZM428.915 10.2207 L428.915 4.3613 L432.4307 4.3613 L432.4307 19.5645 L428.915 19.5645 L428.915 17.9863 Q428.1963 18.9551 427.3213 19.4004 Q426.4463 19.8457 425.3057 19.8457 Q423.29 19.8457 421.9932 18.2363 Q420.6963 16.627 420.6963 14.1113 Q420.6963 11.5801 421.9932 9.9707 Q423.29 8.3613 425.3057 8.3613 Q426.4463 8.3613 427.3213 8.8145 Q428.1963 9.2676 428.915 10.2207 ZM426.6025 17.3145 Q427.7275 17.3145 428.3213 16.4941 Q428.915 15.6738 428.915 14.1113 Q428.915 12.5488 428.3213 11.7285 Q427.7275 10.9082 426.6025 10.9082 Q425.4932 10.9082 424.8994 11.7285 Q424.3057 12.5488 424.3057 14.1113 Q424.3057 15.6738 424.8994 16.4941 Q425.4932 17.3145 426.6025 17.3145 ZM435.6689 15.2988 L435.6689 8.627 L439.1846 8.627 L439.1846 9.7207 Q439.1846 10.6113 439.1768 11.9551 Q439.1689 13.2988 439.1689 13.7363 Q439.1689 15.0645 439.2393 15.6426 Q439.3096 16.2207 439.4658 16.4863 Q439.6846 16.8301 440.0283 17.0176 Q440.3721 17.2051 440.8252 17.2051 Q441.9189 17.2051 442.5439 16.3613 Q443.1689 15.5176 443.1689 14.0332 L443.1689 8.627 L446.6689 8.627 L446.6689 19.5645 L443.1689 19.5645 L443.1689 17.9863 Q442.3721 18.9395 441.4893 19.3926 Q440.6064 19.8457 439.5439 19.8457 Q437.6533 19.8457 436.6611 18.6816 Q435.6689 17.5176 435.6689 15.2988 ZM458.8604 8.9707 L458.8604 11.8145 Q458.1572 11.3301 457.4385 11.0957 Q456.7197 10.8613 455.9385 10.8613 Q454.4854 10.8613 453.665 11.7129 Q452.8447 12.5645 452.8447 14.1113 Q452.8447 15.6426 453.665 16.4941 Q454.4854 17.3457 455.9385 17.3457 Q456.7666 17.3457 457.501 17.1035 Q458.2354 16.8613 458.8604 16.377 L458.8604 19.2363 Q458.0479 19.5488 457.2041 19.6973 Q456.3604 19.8457 455.501 19.8457 Q452.5479 19.8457 450.876 18.3301 Q449.2041 16.8145 449.2041 14.1113 Q449.2041 11.3926 450.876 9.877 Q452.5479 8.3613 455.501 8.3613 Q456.3604 8.3613 457.1963 8.5098 Q458.0322 8.6582 458.8604 8.9707 ZM465.7002 5.5176 L465.7002 8.627 L469.3096 8.627 L469.3096 11.127 L465.7002 11.127 L465.7002 15.7676 Q465.7002 16.5332 466.0049 16.7988 Q466.3096 17.0645 467.2002 17.0645 L468.9971 17.0645 L468.9971 19.5645 L465.9971 19.5645 Q463.9346 19.5645 463.0674 18.6973 Q462.2002 17.8301 462.2002 15.7676 L462.2002 11.127 L460.4658 11.127 L460.4658 8.627 L462.2002 8.627 L462.2002 5.5176 L465.7002 5.5176 ZM471.4482 8.627 L474.9326 8.627 L474.9326 19.5645 L471.4482 19.5645 L471.4482 8.627 ZM471.4482 4.3613 L474.9326 4.3613 L474.9326 7.2207 L471.4482 7.2207 L471.4482 4.3613 ZM483.5068 10.8613 Q482.335 10.8613 481.7256 11.6973 Q481.1162 12.5332 481.1162 14.1113 Q481.1162 15.6738 481.7256 16.5098 Q482.335 17.3457 483.5068 17.3457 Q484.6475 17.3457 485.249 16.5098 Q485.8506 15.6738 485.8506 14.1113 Q485.8506 12.5332 485.249 11.6973 Q484.6475 10.8613 483.5068 10.8613 ZM483.5068 8.3613 Q486.3193 8.3613 487.9053 9.8848 Q489.4912 11.4082 489.4912 14.1113 Q489.4912 16.7988 487.9053 18.3223 Q486.3193 19.8457 483.5068 19.8457 Q480.6631 19.8457 479.0693 18.3223 Q477.4756 16.7988 477.4756 14.1113 Q477.4756 11.4082 479.0693 9.8848 Q480.6631 8.3613 483.5068 8.3613 ZM503.0283 12.9082 L503.0283 19.5645 L499.5127 19.5645 L499.5127 18.4863 L499.5127 14.4707 Q499.5127 13.0488 499.4502 12.5098 Q499.3877 11.9707 499.2314 11.7207 Q499.0283 11.377 498.6768 11.1895 Q498.3252 11.002 497.8721 11.002 Q496.7783 11.002 496.1533 11.8457 Q495.5283 12.6895 495.5283 14.1895 L495.5283 19.5645 L492.0439 19.5645 L492.0439 8.627 L495.5283 8.627 L495.5283 10.2207 Q496.3252 9.2676 497.2158 8.8145 Q498.1064 8.3613 499.1689 8.3613 Q501.0752 8.3613 502.0518 9.5254 Q503.0283 10.6895 503.0283 12.9082 ZM514.8135 8.9707 L514.8135 11.627 Q513.7041 11.1582 512.6572 10.9238 Q511.6104 10.6895 510.6729 10.6895 Q509.6885 10.6895 509.2041 10.9395 Q508.7197 11.1895 508.7197 11.7051 Q508.7197 12.127 509.0869 12.3457 Q509.4541 12.5645 510.3916 12.6738 L511.0166 12.7676 Q513.7041 13.1113 514.626 13.8926 Q515.5479 14.6738 515.5479 16.3457 Q515.5479 18.0957 514.2588 18.9707 Q512.9697 19.8457 510.4229 19.8457 Q509.3291 19.8457 508.1729 19.6738 Q507.0166 19.502 505.7979 19.1582 L505.7979 16.502 Q506.8447 17.0176 507.9385 17.2676 Q509.0322 17.5176 510.1729 17.5176 Q511.2041 17.5176 511.7197 17.2363 Q512.2354 16.9551 512.2354 16.3926 Q512.2354 15.9238 511.876 15.6973 Q511.5166 15.4707 510.4541 15.3457 L509.8447 15.2676 Q507.501 14.9707 506.5635 14.1816 Q505.626 13.3926 505.626 11.7832 Q505.626 10.0488 506.8213 9.2051 Q508.0166 8.3613 510.4697 8.3613 Q511.4385 8.3613 512.501 8.5098 Q513.5635 8.6582 514.8135 8.9707 ZM532.3369 4.3613 L532.3369 6.6582 L530.3994 6.6582 Q529.665 6.6582 529.3682 6.9316 Q529.0713 7.2051 529.0713 7.8613 L529.0713 8.627 L532.0713 8.627 L532.0713 11.127 L529.0713 11.127 L529.0713 19.5645 L525.5869 19.5645 L525.5869 11.127 L523.8369 11.127 L523.8369 8.627 L525.5869 8.627 L525.5869 7.8613 Q525.5869 6.0801 526.5791 5.2207 Q527.5713 4.3613 529.665 4.3613 L532.3369 4.3613 ZM541.9756 11.6113 Q541.5068 11.3926 541.0537 11.291 Q540.6006 11.1895 540.1475 11.1895 Q538.7881 11.1895 538.0615 12.0488 Q537.335 12.9082 537.335 14.5176 L537.335 19.5645 L533.8506 19.5645 L533.8506 8.627 L537.335 8.627 L537.335 10.4238 Q538.0068 9.3457 538.8818 8.8535 Q539.7568 8.3613 540.9756 8.3613 Q541.1631 8.3613 541.3662 8.377 Q541.5693 8.3926 541.96 8.4395 L541.9756 11.6113 ZM548.917 10.8613 Q547.7451 10.8613 547.1357 11.6973 Q546.5264 12.5332 546.5264 14.1113 Q546.5264 15.6738 547.1357 16.5098 Q547.7451 17.3457 548.917 17.3457 Q550.0576 17.3457 550.6592 16.5098 Q551.2607 15.6738 551.2607 14.1113 Q551.2607 12.5332 550.6592 11.6973 Q550.0576 10.8613 548.917 10.8613 ZM548.917 8.3613 Q551.7295 8.3613 553.3154 9.8848 Q554.9014 11.4082 554.9014 14.1113 Q554.9014 16.7988 553.3154 18.3223 Q551.7295 19.8457 548.917 19.8457 Q546.0732 19.8457 544.4795 18.3223 Q542.8857 16.7988 542.8857 14.1113 Q542.8857 11.4082 544.4795 9.8848 Q546.0732 8.3613 548.917 8.3613 ZM567.5791 10.4395 Q568.251 9.4238 569.165 8.8926 Q570.0791 8.3613 571.1729 8.3613 Q573.0479 8.3613 574.04 9.5254 Q575.0322 10.6895 575.0322 12.9082 L575.0322 19.5645 L571.5166 19.5645 L571.5166 13.8613 Q571.5166 13.7363 571.5244 13.5957 Q571.5322 13.4551 571.5322 13.2051 Q571.5322 12.0488 571.1885 11.5254 Q570.8447 11.002 570.0791 11.002 Q569.0947 11.002 568.5479 11.8223 Q568.001 12.6426 567.9854 14.1895 L567.9854 19.5645 L564.4697 19.5645 L564.4697 13.8613 Q564.4697 12.0488 564.1572 11.5254 Q563.8447 11.002 563.0479 11.002 Q562.0322 11.002 561.4854 11.8223 Q560.9385 12.6426 560.9385 14.1895 L560.9385 19.5645 L557.4229 19.5645 L557.4229 8.627 L560.9385 8.627 L560.9385 10.2207 Q561.5947 9.2988 562.4229 8.8301 Q563.251 8.3613 564.2666 8.3613 Q565.3916 8.3613 566.2666 8.9082 Q567.1416 9.4551 567.5791 10.4395 Z"/></g><g style="font-weight:bold; font-size:20; text-rendering:optimizeLegibility;"><path style="clip-path:url(#clipPath1); stroke:none;" d="M163.5566 28.7988 L163.5566 31.9082 L167.166 31.9082 L167.166 34.4082 L163.5566 34.4082 L163.5566 39.0488 Q163.5566 39.8145 163.8613 40.0801 Q164.166 40.3457 165.0566 40.3457 L166.8535 40.3457 L166.8535 42.8457 L163.8535 42.8457 Q161.791 42.8457 160.9238 41.9785 Q160.0566 41.1113 160.0566 39.0488 L160.0566 34.4082 L158.3223 34.4082 L158.3223 31.9082 L160.0566 31.9082 L160.0566 28.7988 L163.5566 28.7988 ZM180.2891 36.1895 L180.2891 42.8457 L176.7734 42.8457 L176.7734 41.7676 L176.7734 37.7676 Q176.7734 36.3301 176.7109 35.791 Q176.6484 35.252 176.4922 35.002 Q176.2891 34.6582 175.9375 34.4707 Q175.5859 34.2832 175.1328 34.2832 Q174.0391 34.2832 173.4141 35.127 Q172.7891 35.9707 172.7891 37.4707 L172.7891 42.8457 L169.3047 42.8457 L169.3047 27.6426 L172.7891 27.6426 L172.7891 33.502 Q173.5859 32.5488 174.4766 32.0957 Q175.3672 31.6426 176.4297 31.6426 Q178.3359 31.6426 179.3125 32.8066 Q180.2891 33.9707 180.2891 36.1895 ZM194.4492 37.3457 L194.4492 38.3457 L186.2773 38.3457 Q186.4023 39.5801 187.168 40.1895 Q187.9336 40.7988 189.293 40.7988 Q190.4023 40.7988 191.5586 40.4707 Q192.7148 40.1426 193.9336 39.4863 L193.9336 42.1738 Q192.6992 42.6426 191.457 42.8848 Q190.2148 43.127 188.9805 43.127 Q186.0117 43.127 184.3633 41.6191 Q182.7148 40.1113 182.7148 37.3926 Q182.7148 34.7051 184.332 33.1738 Q185.9492 31.6426 188.7773 31.6426 Q191.3555 31.6426 192.9023 33.1973 Q194.4492 34.752 194.4492 37.3457 ZM190.8555 36.1895 Q190.8555 35.1895 190.2773 34.5801 Q189.6992 33.9707 188.7617 33.9707 Q187.7461 33.9707 187.1133 34.541 Q186.4805 35.1113 186.3242 36.1895 L190.8555 36.1895 ZM209.8828 40.5957 Q211.0078 40.5957 211.6016 39.7754 Q212.1953 38.9551 212.1953 37.3926 Q212.1953 35.8301 211.6016 35.0098 Q211.0078 34.1895 209.8828 34.1895 Q208.7578 34.1895 208.1562 35.0098 Q207.5547 35.8301 207.5547 37.3926 Q207.5547 38.9395 208.1562 39.7676 Q208.7578 40.5957 209.8828 40.5957 ZM207.5547 33.502 Q208.2891 32.5488 209.1641 32.0957 Q210.0391 31.6426 211.1797 31.6426 Q213.2109 31.6426 214.5078 33.252 Q215.8047 34.8613 215.8047 37.3926 Q215.8047 39.9082 214.5078 41.5176 Q213.2109 43.127 211.1797 43.127 Q210.0391 43.127 209.1641 42.6738 Q208.2891 42.2207 207.5547 41.2676 L207.5547 42.8457 L204.0703 42.8457 L204.0703 27.6426 L207.5547 27.6426 L207.5547 33.502 ZM223.2773 37.9238 Q222.1836 37.9238 221.6367 38.291 Q221.0898 38.6582 221.0898 39.3926 Q221.0898 40.0488 221.5352 40.4238 Q221.9805 40.7988 222.7617 40.7988 Q223.7461 40.7988 224.4258 40.0957 Q225.1055 39.3926 225.1055 38.3301 L225.1055 37.9238 L223.2773 37.9238 ZM228.6211 36.6113 L228.6211 42.8457 L225.1055 42.8457 L225.1055 41.2207 Q224.4023 42.2207 223.5195 42.6738 Q222.6367 43.127 221.3711 43.127 Q219.6836 43.127 218.6211 42.1348 Q217.5586 41.1426 217.5586 39.5645 Q217.5586 37.6426 218.8789 36.7441 Q220.1992 35.8457 223.043 35.8457 L225.1055 35.8457 L225.1055 35.5645 Q225.1055 34.7363 224.4492 34.3535 Q223.793 33.9707 222.4023 33.9707 Q221.2773 33.9707 220.3086 34.1973 Q219.3398 34.4238 218.5117 34.8613 L218.5117 32.2051 Q219.6367 31.9238 220.7695 31.7832 Q221.9023 31.6426 223.043 31.6426 Q225.9961 31.6426 227.3086 32.8066 Q228.6211 33.9707 228.6211 36.6113 ZM240.4141 32.252 L240.4141 34.9082 Q239.3047 34.4395 238.2578 34.2051 Q237.2109 33.9707 236.2734 33.9707 Q235.2891 33.9707 234.8047 34.2207 Q234.3203 34.4707 234.3203 34.9863 Q234.3203 35.4082 234.6875 35.627 Q235.0547 35.8457 235.9922 35.9551 L236.6172 36.0488 Q239.3047 36.3926 240.2266 37.1738 Q241.1484 37.9551 241.1484 39.627 Q241.1484 41.377 239.8594 42.252 Q238.5703 43.127 236.0234 43.127 Q234.9297 43.127 233.7734 42.9551 Q232.6172 42.7832 231.3984 42.4395 L231.3984 39.7832 Q232.4453 40.2988 233.5391 40.5488 Q234.6328 40.7988 235.7734 40.7988 Q236.8047 40.7988 237.3203 40.5176 Q237.8359 40.2363 237.8359 39.6738 Q237.8359 39.2051 237.4766 38.9785 Q237.1172 38.752 236.0547 38.627 L235.4453 38.5488 Q233.1016 38.252 232.1641 37.4629 Q231.2266 36.6738 231.2266 35.0645 Q231.2266 33.3301 232.4219 32.4863 Q233.6172 31.6426 236.0703 31.6426 Q237.0391 31.6426 238.1016 31.791 Q239.1641 31.9395 240.4141 32.252 ZM254.6934 37.3457 L254.6934 38.3457 L246.5215 38.3457 Q246.6465 39.5801 247.4121 40.1895 Q248.1777 40.7988 249.5371 40.7988 Q250.6465 40.7988 251.8027 40.4707 Q252.959 40.1426 254.1777 39.4863 L254.1777 42.1738 Q252.9434 42.6426 251.7012 42.8848 Q250.459 43.127 249.2246 43.127 Q246.2559 43.127 244.6074 41.6191 Q242.959 40.1113 242.959 37.3926 Q242.959 34.7051 244.5762 33.1738 Q246.1934 31.6426 249.0215 31.6426 Q251.5996 31.6426 253.1465 33.1973 Q254.6934 34.752 254.6934 37.3457 ZM251.0996 36.1895 Q251.0996 35.1895 250.5215 34.5801 Q249.9434 33.9707 249.0059 33.9707 Q247.9902 33.9707 247.3574 34.541 Q246.7246 35.1113 246.5684 36.1895 L251.0996 36.1895 ZM257.3516 27.6426 L260.8359 27.6426 L260.8359 42.8457 L257.3516 42.8457 L257.3516 27.6426 ZM264.207 31.9082 L267.6914 31.9082 L267.6914 42.8457 L264.207 42.8457 L264.207 31.9082 ZM264.207 27.6426 L267.6914 27.6426 L267.6914 30.502 L264.207 30.502 L264.207 27.6426 ZM282.0469 36.1895 L282.0469 42.8457 L278.5312 42.8457 L278.5312 41.7676 L278.5312 37.752 Q278.5312 36.3301 278.4688 35.791 Q278.4062 35.252 278.25 35.002 Q278.0469 34.6582 277.6953 34.4707 Q277.3438 34.2832 276.8906 34.2832 Q275.7969 34.2832 275.1719 35.127 Q274.5469 35.9707 274.5469 37.4707 L274.5469 42.8457 L271.0625 42.8457 L271.0625 31.9082 L274.5469 31.9082 L274.5469 33.502 Q275.3438 32.5488 276.2344 32.0957 Q277.125 31.6426 278.1875 31.6426 Q280.0938 31.6426 281.0703 32.8066 Q282.0469 33.9707 282.0469 36.1895 ZM296.207 37.3457 L296.207 38.3457 L288.0352 38.3457 Q288.1602 39.5801 288.9258 40.1895 Q289.6914 40.7988 291.0508 40.7988 Q292.1602 40.7988 293.3164 40.4707 Q294.4727 40.1426 295.6914 39.4863 L295.6914 42.1738 Q294.457 42.6426 293.2148 42.8848 Q291.9727 43.127 290.7383 43.127 Q287.7695 43.127 286.1211 41.6191 Q284.4727 40.1113 284.4727 37.3926 Q284.4727 34.7051 286.0898 33.1738 Q287.707 31.6426 290.5352 31.6426 Q293.1133 31.6426 294.6602 33.1973 Q296.207 34.752 296.207 37.3457 ZM292.6133 36.1895 Q292.6133 35.1895 292.0352 34.5801 Q291.457 33.9707 290.5195 33.9707 Q289.5039 33.9707 288.8711 34.541 Q288.2383 35.1113 288.082 36.1895 L292.6133 36.1895 ZM311.6875 45.4863 L308.7812 45.4863 Q307.2812 43.0645 306.5703 40.8926 Q305.8594 38.7207 305.8594 36.5801 Q305.8594 34.4395 306.5781 32.252 Q307.2969 30.0645 308.7812 27.6738 L311.6875 27.6738 Q310.4375 29.9863 309.8125 32.1973 Q309.1875 34.4082 309.1875 36.5645 Q309.1875 38.7207 309.8047 40.9395 Q310.4219 43.1582 311.6875 45.4863 ZM319.0469 40.0801 L325.4531 40.0801 L325.4531 42.8457 L314.8594 42.8457 L314.8594 40.0801 L320.1875 35.377 Q320.9062 34.7363 321.2422 34.1191 Q321.5781 33.502 321.5781 32.8457 Q321.5781 31.8145 320.8906 31.1895 Q320.2031 30.5645 319.0625 30.5645 Q318.1875 30.5645 317.1406 30.9395 Q316.0938 31.3145 314.9062 32.0645 L314.9062 28.8613 Q316.1719 28.4395 317.4141 28.2207 Q318.6562 28.002 319.8438 28.002 Q322.4688 28.002 323.9141 29.1504 Q325.3594 30.2988 325.3594 32.3613 Q325.3594 33.5645 324.7422 34.5879 Q324.125 35.6113 322.1562 37.3457 L319.0469 40.0801 ZM336.4004 35.5332 Q336.4004 32.7988 335.8848 31.6816 Q335.3691 30.5645 334.166 30.5645 Q332.9473 30.5645 332.4316 31.6816 Q331.916 32.7988 331.916 35.5332 Q331.916 38.2988 332.4316 39.4316 Q332.9473 40.5645 334.166 40.5645 Q335.3691 40.5645 335.8848 39.4316 Q336.4004 38.2988 336.4004 35.5332 ZM340.1504 35.5645 Q340.1504 39.1895 338.5879 41.1582 Q337.0254 43.127 334.166 43.127 Q331.2754 43.127 329.7129 41.1582 Q328.1504 39.1895 328.1504 35.5645 Q328.1504 31.9395 329.7129 29.9707 Q331.2754 28.002 334.166 28.002 Q337.0254 28.002 338.5879 29.9707 Q340.1504 31.9395 340.1504 35.5645 ZM350.3164 35.5332 Q350.3164 32.7988 349.8008 31.6816 Q349.2852 30.5645 348.082 30.5645 Q346.8633 30.5645 346.3477 31.6816 Q345.832 32.7988 345.832 35.5332 Q345.832 38.2988 346.3477 39.4316 Q346.8633 40.5645 348.082 40.5645 Q349.2852 40.5645 349.8008 39.4316 Q350.3164 38.2988 350.3164 35.5332 ZM354.0664 35.5645 Q354.0664 39.1895 352.5039 41.1582 Q350.9414 43.127 348.082 43.127 Q345.1914 43.127 343.6289 41.1582 Q342.0664 39.1895 342.0664 35.5645 Q342.0664 31.9395 343.6289 29.9707 Q345.1914 28.002 348.082 28.002 Q350.9414 28.002 352.5039 29.9707 Q354.0664 31.9395 354.0664 35.5645 ZM361.998 36.3145 Q360.9355 36.3145 360.373 36.8926 Q359.8105 37.4707 359.8105 38.5488 Q359.8105 39.627 360.373 40.1973 Q360.9355 40.7676 361.998 40.7676 Q363.0449 40.7676 363.5996 40.1973 Q364.1543 39.627 364.1543 38.5488 Q364.1543 37.4707 363.5996 36.8926 Q363.0449 36.3145 361.998 36.3145 ZM359.248 35.0801 Q357.9199 34.6738 357.248 33.8457 Q356.5762 33.0176 356.5762 31.7832 Q356.5762 29.9395 357.9512 28.9707 Q359.3262 28.002 361.998 28.002 Q364.6387 28.002 366.0137 28.9629 Q367.3887 29.9238 367.3887 31.7832 Q367.3887 33.0176 366.709 33.8457 Q366.0293 34.6738 364.7012 35.0801 Q366.1855 35.4863 366.9434 36.4082 Q367.7012 37.3301 367.7012 38.7363 Q367.7012 40.9082 366.2637 42.0176 Q364.8262 43.127 361.998 43.127 Q359.1543 43.127 357.7012 42.0176 Q356.248 40.9082 356.248 38.7363 Q356.248 37.3301 357.0059 36.4082 Q357.7637 35.4863 359.248 35.0801 ZM360.123 32.1582 Q360.123 33.0332 360.6074 33.502 Q361.0918 33.9707 361.998 33.9707 Q362.873 33.9707 363.3496 33.502 Q363.8262 33.0332 363.8262 32.1582 Q363.8262 31.2988 363.3496 30.8301 Q362.873 30.3613 361.998 30.3613 Q361.0918 30.3613 360.6074 30.8301 Q360.123 31.2988 360.123 32.1582 ZM370.0234 35.6738 L376.1641 35.6738 L376.1641 38.502 L370.0234 38.502 L370.0234 35.6738 ZM383.0117 40.0801 L389.418 40.0801 L389.418 42.8457 L378.8242 42.8457 L378.8242 40.0801 L384.1523 35.377 Q384.8711 34.7363 385.207 34.1191 Q385.543 33.502 385.543 32.8457 Q385.543 31.8145 384.8555 31.1895 Q384.168 30.5645 383.0273 30.5645 Q382.1523 30.5645 381.1055 30.9395 Q380.0586 31.3145 378.8711 32.0645 L378.8711 28.8613 Q380.1367 28.4395 381.3789 28.2207 Q382.6211 28.002 383.8086 28.002 Q386.4336 28.002 387.8789 29.1504 Q389.3242 30.2988 389.3242 32.3613 Q389.3242 33.5645 388.707 34.5879 Q388.0898 35.6113 386.1211 37.3457 L383.0117 40.0801 ZM400.3652 35.5332 Q400.3652 32.7988 399.8496 31.6816 Q399.334 30.5645 398.1309 30.5645 Q396.9121 30.5645 396.3965 31.6816 Q395.8809 32.7988 395.8809 35.5332 Q395.8809 38.2988 396.3965 39.4316 Q396.9121 40.5645 398.1309 40.5645 Q399.334 40.5645 399.8496 39.4316 Q400.3652 38.2988 400.3652 35.5332 ZM404.1152 35.5645 Q404.1152 39.1895 402.5527 41.1582 Q400.9902 43.127 398.1309 43.127 Q395.2402 43.127 393.6777 41.1582 Q392.1152 39.1895 392.1152 35.5645 Q392.1152 31.9395 393.6777 29.9707 Q395.2402 28.002 398.1309 28.002 Q400.9902 28.002 402.5527 29.9707 Q404.1152 31.9395 404.1152 35.5645 ZM414.2812 35.5332 Q414.2812 32.7988 413.7656 31.6816 Q413.25 30.5645 412.0469 30.5645 Q410.8281 30.5645 410.3125 31.6816 Q409.7969 32.7988 409.7969 35.5332 Q409.7969 38.2988 410.3125 39.4316 Q410.8281 40.5645 412.0469 40.5645 Q413.25 40.5645 413.7656 39.4316 Q414.2812 38.2988 414.2812 35.5332 ZM418.0312 35.5645 Q418.0312 39.1895 416.4688 41.1582 Q414.9062 43.127 412.0469 43.127 Q409.1562 43.127 407.5938 41.1582 Q406.0312 39.1895 406.0312 35.5645 Q406.0312 31.9395 407.5938 29.9707 Q409.1562 28.002 412.0469 28.002 Q414.9062 28.002 416.4688 29.9707 Q418.0312 31.9395 418.0312 35.5645 ZM420.9941 42.5176 L420.9941 39.8301 Q421.9004 40.252 422.7207 40.4629 Q423.541 40.6738 424.3379 40.6738 Q426.0098 40.6738 426.9473 39.7363 Q427.8848 38.7988 428.0566 36.9707 Q427.4004 37.4551 426.6426 37.6973 Q425.8848 37.9395 425.0098 37.9395 Q422.7754 37.9395 421.4004 36.6348 Q420.0254 35.3301 420.0254 33.2051 Q420.0254 30.8457 421.5566 29.4316 Q423.0879 28.0176 425.6504 28.0176 Q428.5098 28.0176 430.0723 29.9395 Q431.6348 31.8613 431.6348 35.377 Q431.6348 39.002 429.8066 41.0645 Q427.9785 43.127 424.791 43.127 Q423.7754 43.127 422.8379 42.9785 Q421.9004 42.8301 420.9941 42.5176 ZM425.6348 35.502 Q426.6191 35.502 427.1191 34.8613 Q427.6191 34.2207 427.6191 32.9395 Q427.6191 31.6738 427.1191 31.0254 Q426.6191 30.377 425.6348 30.377 Q424.6504 30.377 424.1504 31.0254 Q423.6504 31.6738 423.6504 32.9395 Q423.6504 34.2207 424.1504 34.8613 Q424.6504 35.502 425.6348 35.502 ZM434.5195 45.4863 Q435.7695 43.1582 436.3945 40.9395 Q437.0195 38.7207 437.0195 36.5645 Q437.0195 34.4082 436.3945 32.1973 Q435.7695 29.9863 434.5195 27.6738 L437.4102 27.6738 Q438.8945 30.0645 439.6133 32.252 Q440.332 34.4395 440.332 36.5801 Q440.332 38.7207 439.6211 40.8926 Q438.9102 43.0645 437.4102 45.4863 L434.5195 45.4863 ZM454.5137 28.7988 L454.5137 31.9082 L458.123 31.9082 L458.123 34.4082 L454.5137 34.4082 L454.5137 39.0488 Q454.5137 39.8145 454.8184 40.0801 Q455.123 40.3457 456.0137 40.3457 L457.8105 40.3457 L457.8105 42.8457 L454.8105 42.8457 Q452.748 42.8457 451.8809 41.9785 Q451.0137 41.1113 451.0137 39.0488 L451.0137 34.4082 L449.2793 34.4082 L449.2793 31.9082 L451.0137 31.9082 L451.0137 28.7988 L454.5137 28.7988 ZM465.4648 34.1426 Q464.293 34.1426 463.6836 34.9785 Q463.0742 35.8145 463.0742 37.3926 Q463.0742 38.9551 463.6836 39.791 Q464.293 40.627 465.4648 40.627 Q466.6055 40.627 467.207 39.791 Q467.8086 38.9551 467.8086 37.3926 Q467.8086 35.8145 467.207 34.9785 Q466.6055 34.1426 465.4648 34.1426 ZM465.4648 31.6426 Q468.2773 31.6426 469.8633 33.166 Q471.4492 34.6895 471.4492 37.3926 Q471.4492 40.0801 469.8633 41.6035 Q468.2773 43.127 465.4648 43.127 Q462.6211 43.127 461.0273 41.6035 Q459.4336 40.0801 459.4336 37.3926 Q459.4336 34.6895 461.0273 33.166 Q462.6211 31.6426 465.4648 31.6426 ZM485.043 40.0801 L491.4492 40.0801 L491.4492 42.8457 L480.8555 42.8457 L480.8555 40.0801 L486.1836 35.377 Q486.9023 34.7363 487.2383 34.1191 Q487.5742 33.502 487.5742 32.8457 Q487.5742 31.8145 486.8867 31.1895 Q486.1992 30.5645 485.0586 30.5645 Q484.1836 30.5645 483.1367 30.9395 Q482.0898 31.3145 480.9023 32.0645 L480.9023 28.8613 Q482.168 28.4395 483.4102 28.2207 Q484.6523 28.002 485.8398 28.002 Q488.4648 28.002 489.9102 29.1504 Q491.3555 30.2988 491.3555 32.3613 Q491.3555 33.5645 490.7383 34.5879 Q490.1211 35.6113 488.1523 37.3457 L485.043 40.0801 ZM502.3965 35.5332 Q502.3965 32.7988 501.8809 31.6816 Q501.3652 30.5645 500.1621 30.5645 Q498.9434 30.5645 498.4277 31.6816 Q497.9121 32.7988 497.9121 35.5332 Q497.9121 38.2988 498.4277 39.4316 Q498.9434 40.5645 500.1621 40.5645 Q501.3652 40.5645 501.8809 39.4316 Q502.3965 38.2988 502.3965 35.5332 ZM506.1465 35.5645 Q506.1465 39.1895 504.584 41.1582 Q503.0215 43.127 500.1621 43.127 Q497.2715 43.127 495.709 41.1582 Q494.1465 39.1895 494.1465 35.5645 Q494.1465 31.9395 495.709 29.9707 Q497.2715 28.002 500.1621 28.002 Q503.0215 28.002 504.584 29.9707 Q506.1465 31.9395 506.1465 35.5645 ZM509.4531 40.252 L512.7812 40.252 L512.7812 30.8301 L509.3594 31.5332 L509.3594 28.9707 L512.75 28.2676 L516.3281 28.2676 L516.3281 40.252 L519.6562 40.252 L519.6562 42.8457 L509.4531 42.8457 L509.4531 40.252 ZM530.2285 35.5332 Q530.2285 32.7988 529.7129 31.6816 Q529.1973 30.5645 527.9941 30.5645 Q526.7754 30.5645 526.2598 31.6816 Q525.7441 32.7988 525.7441 35.5332 Q525.7441 38.2988 526.2598 39.4316 Q526.7754 40.5645 527.9941 40.5645 Q529.1973 40.5645 529.7129 39.4316 Q530.2285 38.2988 530.2285 35.5332 ZM533.9785 35.5645 Q533.9785 39.1895 532.416 41.1582 Q530.8535 43.127 527.9941 43.127 Q525.1035 43.127 523.541 41.1582 Q521.9785 39.1895 521.9785 35.5645 Q521.9785 31.9395 523.541 29.9707 Q525.1035 28.002 527.9941 28.002 Q530.8535 28.002 532.416 29.9707 Q533.9785 31.9395 533.9785 35.5645 ZM536.0195 35.6738 L542.1602 35.6738 L542.1602 38.502 L536.0195 38.502 L536.0195 35.6738 ZM549.0078 40.0801 L555.4141 40.0801 L555.4141 42.8457 L544.8203 42.8457 L544.8203 40.0801 L550.1484 35.377 Q550.8672 34.7363 551.2031 34.1191 Q551.5391 33.502 551.5391 32.8457 Q551.5391 31.8145 550.8516 31.1895 Q550.1641 30.5645 549.0234 30.5645 Q548.1484 30.5645 547.1016 30.9395 Q546.0547 31.3145 544.8672 32.0645 L544.8672 28.8613 Q546.1328 28.4395 547.375 28.2207 Q548.6172 28.002 549.8047 28.002 Q552.4297 28.002 553.875 29.1504 Q555.3203 30.2988 555.3203 32.3613 Q555.3203 33.5645 554.7031 34.5879 Q554.0859 35.6113 552.1172 37.3457 L549.0078 40.0801 ZM566.3613 35.5332 Q566.3613 32.7988 565.8457 31.6816 Q565.3301 30.5645 564.127 30.5645 Q562.9082 30.5645 562.3926 31.6816 Q561.877 32.7988 561.877 35.5332 Q561.877 38.2988 562.3926 39.4316 Q562.9082 40.5645 564.127 40.5645 Q565.3301 40.5645 565.8457 39.4316 Q566.3613 38.2988 566.3613 35.5332 ZM570.1113 35.5645 Q570.1113 39.1895 568.5488 41.1582 Q566.9863 43.127 564.127 43.127 Q561.2363 43.127 559.6738 41.1582 Q558.1113 39.1895 558.1113 35.5645 Q558.1113 31.9395 559.6738 29.9707 Q561.2363 28.002 564.127 28.002 Q566.9863 28.002 568.5488 29.9707 Q570.1113 31.9395 570.1113 35.5645 ZM573.418 40.252 L576.7461 40.252 L576.7461 30.8301 L573.3242 31.5332 L573.3242 28.9707 L576.7148 28.2676 L580.293 28.2676 L580.293 40.252 L583.6211 40.252 L583.6211 42.8457 L573.418 42.8457 L573.418 40.252 ZM587.334 40.252 L590.6621 40.252 L590.6621 30.8301 L587.2402 31.5332 L587.2402 28.9707 L590.6309 28.2676 L594.209 28.2676 L594.209 40.252 L597.5371 40.252 L597.5371 42.8457 L587.334 42.8457 L587.334 40.252 Z"/></g><g style="fill:white; text-rendering:optimizeLegibility; font-size:10; stroke:white;"><rect x="58" width="680" height="381" y="57" style="clip-path:url(#clipPath1); stroke:none;"/><line y2="442" style="clip-path:url(#clipPath1); fill:none; stroke:gray;" x1="58" x2="738" y1="442"/><line y2="442" style="clip-path:url(#clipPath1); fill:none; stroke:gray;" x1="126" x2="126" y1="442"/><line y2="444" style="clip-path:url(#clipPath1); fill:none; stroke:gray;" x1="126" x2="126" y1="442"/><line y2="442" style="clip-path:url(#clipPath1); fill:none; stroke:gray;" x1="216.6667" x2="216.6667" y1="442"/><line y2="444" style="clip-path:url(#clipPath1); fill:none; stroke:gray;" x1="216.6667" x2="216.6667" y1="442"/><line y2="442" style="clip-path:url(#clipPath1); fill:none; stroke:gray;" x1="307.3333" x2="307.3333" y1="442"/><line y2="444" style="clip-path:url(#clipPath1); fill:none; stroke:gray;" x1="307.3333" x2="307.3333" y1="442"/><line y2="442" style="clip-path:url(#clipPath1); fill:none; stroke:gray;" x1="398" x2="398" y1="442"/><line y2="444" style="clip-path:url(#clipPath1); fill:none; stroke:gray;" x1="398" x2="398" y1="442"/><line y2="442" style="clip-path:url(#clipPath1); fill:none; stroke:gray;" x1="488.6667" x2="488.6667" y1="442"/><line y2="444" style="clip-path:url(#clipPath1); fill:none; stroke:gray;" x1="488.6667" x2="488.6667" y1="442"/><line y2="442" style="clip-path:url(#clipPath1); fill:none; stroke:gray;" x1="579.3333" x2="579.3333" y1="442"/><line y2="444" style="clip-path:url(#clipPath1); fill:none; stroke:gray;" x1="579.3333" x2="579.3333" y1="442"/><line y2="442" style="clip-path:url(#clipPath1); fill:none; stroke:gray;" x1="670" x2="670" y1="442"/><line y2="444" style="clip-path:url(#clipPath1); fill:none; stroke:gray;" x1="670" x2="670" y1="442"/><path style="fill:rgb(64,64,64); clip-path:url(#clipPath1); stroke:none;" d="M97.6172 456.2354 L97.6172 454.2822 L96.0078 454.2822 L96.0078 453.4697 L98.5859 453.4697 L98.5859 456.6104 Q98.0234 457.001 97.3359 457.2119 Q96.6484 457.4229 95.8672 457.4229 Q94.1484 457.4229 93.1875 456.4229 Q92.2266 455.4229 92.2266 453.6416 Q92.2266 451.8604 93.1875 450.8604 Q94.1484 449.8604 95.8672 449.8604 Q96.5703 449.8604 97.2188 450.0322 Q97.8672 450.2041 98.3984 450.5479 L98.3984 451.6104 Q97.8516 451.1416 97.2422 450.9072 Q96.6328 450.6729 95.9453 450.6729 Q94.6016 450.6729 93.9375 451.415 Q93.2734 452.1572 93.2734 453.6416 Q93.2734 455.126 93.9375 455.8682 Q94.6016 456.6104 95.9453 456.6104 Q96.4766 456.6104 96.8828 456.5244 Q97.2891 456.4385 97.6172 456.2354 ZM103.5225 452.6572 Q103.3662 452.5635 103.1943 452.5244 Q103.0225 452.4854 102.8037 452.4854 Q102.0381 452.4854 101.6318 452.9775 Q101.2256 453.4697 101.2256 454.4072 L101.2256 457.2822 L100.3193 457.2822 L100.3193 451.8135 L101.2256 451.8135 L101.2256 452.6572 Q101.5068 452.1572 101.96 451.9229 Q102.4131 451.6885 103.0693 451.6885 Q103.1631 451.6885 103.2725 451.6963 Q103.3818 451.7041 103.5225 451.7354 L103.5225 452.6572 ZM109.1494 454.3291 L109.1494 454.7666 L105.0088 454.7666 Q105.0713 455.6885 105.5713 456.1729 Q106.0713 456.6572 106.9619 456.6572 Q107.4775 456.6572 107.9697 456.5322 Q108.4619 456.4072 108.9307 456.1572 L108.9307 457.001 Q108.4463 457.2041 107.9385 457.3135 Q107.4307 457.4229 106.915 457.4229 Q105.6025 457.4229 104.8369 456.665 Q104.0713 455.9072 104.0713 454.5947 Q104.0713 453.251 104.7979 452.4697 Q105.5244 451.6885 106.7588 451.6885 Q107.8682 451.6885 108.5088 452.3916 Q109.1494 453.0947 109.1494 454.3291 ZM108.2432 454.0635 Q108.2432 453.3291 107.8369 452.8838 Q107.4307 452.4385 106.7744 452.4385 Q106.0088 452.4385 105.5635 452.8682 Q105.1182 453.2979 105.04 454.0635 L108.2432 454.0635 ZM113.0986 454.5322 Q112.0205 454.5322 111.5986 454.7822 Q111.1768 455.0322 111.1768 455.626 Q111.1768 456.1104 111.4893 456.3916 Q111.8018 456.6729 112.3486 456.6729 Q113.0986 456.6729 113.5518 456.1416 Q114.0049 455.6104 114.0049 454.7354 L114.0049 454.5322 L113.0986 454.5322 ZM114.8955 454.1572 L114.8955 457.2822 L114.0049 457.2822 L114.0049 456.4541 Q113.6924 456.9541 113.2314 457.1885 Q112.7705 457.4229 112.1143 457.4229 Q111.2705 457.4229 110.7705 456.9541 Q110.2705 456.4854 110.2705 455.6885 Q110.2705 454.7666 110.8955 454.2979 Q111.5205 453.8291 112.7393 453.8291 L114.0049 453.8291 L114.0049 453.7354 Q114.0049 453.126 113.5908 452.7822 Q113.1768 452.4385 112.4424 452.4385 Q111.9736 452.4385 111.5283 452.5557 Q111.083 452.6729 110.6768 452.8916 L110.6768 452.0635 Q111.1768 451.876 111.6377 451.7822 Q112.0986 451.6885 112.5361 451.6885 Q113.7236 451.6885 114.3096 452.2979 Q114.8955 452.9072 114.8955 454.1572 ZM117.6328 450.2666 L117.6328 451.8135 L119.4922 451.8135 L119.4922 452.5166 L117.6328 452.5166 L117.6328 455.4854 Q117.6328 456.1416 117.8203 456.3369 Q118.0078 456.5322 118.5703 456.5322 L119.4922 456.5322 L119.4922 457.2822 L118.5703 457.2822 Q117.5234 457.2822 117.125 456.8916 Q116.7266 456.501 116.7266 455.4854 L116.7266 452.5166 L116.0703 452.5166 L116.0703 451.8135 L116.7266 451.8135 L116.7266 450.2666 L117.6328 450.2666 ZM124.873 453.7979 L124.873 456.4697 L126.4512 456.4697 Q127.248 456.4697 127.6309 456.1416 Q128.0137 455.8135 128.0137 455.126 Q128.0137 454.4541 127.6309 454.126 Q127.248 453.7979 126.4512 453.7979 L124.873 453.7979 ZM124.873 450.7979 L124.873 453.001 L126.3262 453.001 Q127.0605 453.001 127.4121 452.7275 Q127.7637 452.4541 127.7637 451.9072 Q127.7637 451.3447 127.4121 451.0713 Q127.0605 450.7979 126.3262 450.7979 L124.873 450.7979 ZM123.8887 449.9854 L126.4043 449.9854 Q127.5293 449.9854 128.1387 450.4541 Q128.748 450.9229 128.748 451.7979 Q128.748 452.4697 128.4355 452.8604 Q128.123 453.251 127.5293 453.3447 Q128.248 453.501 128.6543 454.001 Q129.0605 454.501 129.0605 455.2354 Q129.0605 456.2197 128.3965 456.751 Q127.7324 457.2822 126.498 457.2822 L123.8887 457.2822 L123.8887 449.9854 ZM133.1865 454.5322 Q132.1084 454.5322 131.6865 454.7822 Q131.2646 455.0322 131.2646 455.626 Q131.2646 456.1104 131.5771 456.3916 Q131.8896 456.6729 132.4365 456.6729 Q133.1865 456.6729 133.6396 456.1416 Q134.0928 455.6104 134.0928 454.7354 L134.0928 454.5322 L133.1865 454.5322 ZM134.9834 454.1572 L134.9834 457.2822 L134.0928 457.2822 L134.0928 456.4541 Q133.7803 456.9541 133.3193 457.1885 Q132.8584 457.4229 132.2021 457.4229 Q131.3584 457.4229 130.8584 456.9541 Q130.3584 456.4854 130.3584 455.6885 Q130.3584 454.7666 130.9834 454.2979 Q131.6084 453.8291 132.8271 453.8291 L134.0928 453.8291 L134.0928 453.7354 Q134.0928 453.126 133.6787 452.7822 Q133.2646 452.4385 132.5303 452.4385 Q132.0615 452.4385 131.6162 452.5557 Q131.1709 452.6729 130.7646 452.8916 L130.7646 452.0635 Q131.2646 451.876 131.7256 451.7822 Q132.1865 451.6885 132.624 451.6885 Q133.8115 451.6885 134.3975 452.2979 Q134.9834 452.9072 134.9834 454.1572 ZM140.002 452.6572 Q139.8457 452.5635 139.6738 452.5244 Q139.502 452.4854 139.2832 452.4854 Q138.5176 452.4854 138.1113 452.9775 Q137.7051 453.4697 137.7051 454.4072 L137.7051 457.2822 L136.7988 457.2822 L136.7988 451.8135 L137.7051 451.8135 L137.7051 452.6572 Q137.9863 452.1572 138.4395 451.9229 Q138.8926 451.6885 139.5488 451.6885 Q139.6426 451.6885 139.752 451.6963 Q139.8613 451.7041 140.002 451.7354 L140.002 452.6572 ZM144.1133 452.6572 Q143.957 452.5635 143.7852 452.5244 Q143.6133 452.4854 143.3945 452.4854 Q142.6289 452.4854 142.2227 452.9775 Q141.8164 453.4697 141.8164 454.4072 L141.8164 457.2822 L140.9102 457.2822 L140.9102 451.8135 L141.8164 451.8135 L141.8164 452.6572 Q142.0977 452.1572 142.5508 451.9229 Q143.0039 451.6885 143.6602 451.6885 Q143.7539 451.6885 143.8633 451.6963 Q143.9727 451.7041 144.1133 451.7354 L144.1133 452.6572 ZM145.0527 451.8135 L145.959 451.8135 L145.959 457.2822 L145.0527 457.2822 L145.0527 451.8135 ZM145.0527 449.6885 L145.959 449.6885 L145.959 450.8291 L145.0527 450.8291 L145.0527 449.6885 ZM152.5186 454.3291 L152.5186 454.7666 L148.3779 454.7666 Q148.4404 455.6885 148.9404 456.1729 Q149.4404 456.6572 150.3311 456.6572 Q150.8467 456.6572 151.3389 456.5322 Q151.8311 456.4072 152.2998 456.1572 L152.2998 457.001 Q151.8154 457.2041 151.3076 457.3135 Q150.7998 457.4229 150.2842 457.4229 Q148.9717 457.4229 148.2061 456.665 Q147.4404 455.9072 147.4404 454.5947 Q147.4404 453.251 148.167 452.4697 Q148.8936 451.6885 150.1279 451.6885 Q151.2373 451.6885 151.8779 452.3916 Q152.5186 453.0947 152.5186 454.3291 ZM151.6123 454.0635 Q151.6123 453.3291 151.2061 452.8838 Q150.7998 452.4385 150.1436 452.4385 Q149.3779 452.4385 148.9326 452.8682 Q148.4873 453.2979 148.4092 454.0635 L151.6123 454.0635 ZM157.1553 452.6572 Q156.999 452.5635 156.8271 452.5244 Q156.6553 452.4854 156.4365 452.4854 Q155.6709 452.4854 155.2646 452.9775 Q154.8584 453.4697 154.8584 454.4072 L154.8584 457.2822 L153.9521 457.2822 L153.9521 451.8135 L154.8584 451.8135 L154.8584 452.6572 Q155.1396 452.1572 155.5928 451.9229 Q156.0459 451.6885 156.7021 451.6885 Q156.7959 451.6885 156.9053 451.6963 Q157.0146 451.7041 157.1553 451.7354 L157.1553 452.6572 Z"/></g><g style="fill:rgb(64,64,64); text-rendering:optimizeLegibility; font-size:10; stroke:rgb(64,64,64);"><path style="clip-path:url(#clipPath1); stroke:none;" d="M119.0508 465.501 Q119.3633 465.6104 119.668 465.9619 Q119.9727 466.3135 120.2695 466.9229 L121.2695 468.9229 L120.207 468.9229 L119.2852 467.0479 Q118.9258 466.3135 118.582 466.0791 Q118.2383 465.8447 117.6602 465.8447 L116.582 465.8447 L116.582 468.9229 L115.5977 468.9229 L115.5977 461.626 L117.8164 461.626 Q119.0664 461.626 119.6836 462.1494 Q120.3008 462.6729 120.3008 463.7354 Q120.3008 464.4229 119.9805 464.876 Q119.6602 465.3291 119.0508 465.501 ZM116.582 462.4385 L116.582 465.0322 L117.8164 465.0322 Q118.5352 465.0322 118.9023 464.7041 Q119.2695 464.376 119.2695 463.7354 Q119.2695 463.0947 118.9023 462.7666 Q118.5352 462.4385 117.8164 462.4385 L116.582 462.4385 ZM127.1865 465.9697 L127.1865 466.4072 L123.0459 466.4072 Q123.1084 467.3291 123.6084 467.8135 Q124.1084 468.2979 124.999 468.2979 Q125.5146 468.2979 126.0068 468.1729 Q126.499 468.0479 126.9678 467.7979 L126.9678 468.6416 Q126.4834 468.8447 125.9756 468.9541 Q125.4678 469.0635 124.9521 469.0635 Q123.6396 469.0635 122.874 468.3057 Q122.1084 467.5479 122.1084 466.2354 Q122.1084 464.8916 122.835 464.1104 Q123.5615 463.3291 124.7959 463.3291 Q125.9053 463.3291 126.5459 464.0322 Q127.1865 464.7354 127.1865 465.9697 ZM126.2803 465.7041 Q126.2803 464.9697 125.874 464.5244 Q125.4678 464.0791 124.8115 464.0791 Q124.0459 464.0791 123.6006 464.5088 Q123.1553 464.9385 123.0771 465.7041 L126.2803 465.7041 ZM133.3389 465.9697 L133.3389 466.4072 L129.1982 466.4072 Q129.2607 467.3291 129.7607 467.8135 Q130.2607 468.2979 131.1514 468.2979 Q131.667 468.2979 132.1592 468.1729 Q132.6514 468.0479 133.1201 467.7979 L133.1201 468.6416 Q132.6357 468.8447 132.1279 468.9541 Q131.6201 469.0635 131.1045 469.0635 Q129.792 469.0635 129.0264 468.3057 Q128.2607 467.5479 128.2607 466.2354 Q128.2607 464.8916 128.9873 464.1104 Q129.7139 463.3291 130.9482 463.3291 Q132.0576 463.3291 132.6982 464.0322 Q133.3389 464.7354 133.3389 465.9697 ZM132.4326 465.7041 Q132.4326 464.9697 132.0264 464.5244 Q131.6201 464.0791 130.9639 464.0791 Q130.1982 464.0791 129.7529 464.5088 Q129.3076 464.9385 129.2295 465.7041 L132.4326 465.7041 ZM137.585 461.3291 L137.585 462.0791 L136.7256 462.0791 Q136.2412 462.0791 136.0537 462.2744 Q135.8662 462.4697 135.8662 462.9697 L135.8662 463.4541 L137.335 463.4541 L137.335 464.1572 L135.8662 464.1572 L135.8662 468.9229 L134.96 468.9229 L134.96 464.1572 L134.1006 464.1572 L134.1006 463.4541 L134.96 463.4541 L134.96 463.0791 Q134.96 462.1572 135.3818 461.7432 Q135.8037 461.3291 136.7256 461.3291 L137.585 461.3291 Z"/></g><g style="fill:rgb(64,64,64); text-rendering:optimizeLegibility; font-size:10; stroke:rgb(64,64,64);"><path style="clip-path:url(#clipPath1); stroke:none;" d="M197.6452 450.5479 L197.6452 451.5947 Q197.1452 451.126 196.5827 450.8994 Q196.0202 450.6729 195.3952 450.6729 Q194.1452 450.6729 193.4811 451.4385 Q192.8171 452.2041 192.8171 453.6416 Q192.8171 455.0791 193.4811 455.8447 Q194.1452 456.6104 195.3952 456.6104 Q196.0202 456.6104 196.5827 456.3838 Q197.1452 456.1572 197.6452 455.6885 L197.6452 456.7197 Q197.1296 457.0791 196.5514 457.251 Q195.9733 457.4229 195.3327 457.4229 Q193.6764 457.4229 192.7233 456.4072 Q191.7702 455.3916 191.7702 453.6416 Q191.7702 451.8916 192.7233 450.876 Q193.6764 449.8604 195.3327 449.8604 Q195.9889 449.8604 196.5671 450.0322 Q197.1452 450.2041 197.6452 450.5479 ZM201.612 454.5322 Q200.5339 454.5322 200.112 454.7822 Q199.6901 455.0322 199.6901 455.626 Q199.6901 456.1104 200.0026 456.3916 Q200.3151 456.6729 200.862 456.6729 Q201.612 456.6729 202.0651 456.1416 Q202.5182 455.6104 202.5182 454.7354 L202.5182 454.5322 L201.612 454.5322 ZM203.4089 454.1572 L203.4089 457.2822 L202.5182 457.2822 L202.5182 456.4541 Q202.2057 456.9541 201.7448 457.1885 Q201.2839 457.4229 200.6276 457.4229 Q199.7839 457.4229 199.2839 456.9541 Q198.7839 456.4854 198.7839 455.6885 Q198.7839 454.7666 199.4089 454.2979 Q200.0339 453.8291 201.2526 453.8291 L202.5182 453.8291 L202.5182 453.7354 Q202.5182 453.126 202.1042 452.7822 Q201.6901 452.4385 200.9557 452.4385 Q200.487 452.4385 200.0417 452.5557 Q199.5964 452.6729 199.1901 452.8916 L199.1901 452.0635 Q199.6901 451.876 200.151 451.7822 Q200.612 451.6885 201.0495 451.6885 Q202.237 451.6885 202.8229 452.2979 Q203.4089 452.9072 203.4089 454.1572 ZM206.1305 456.4541 L206.1305 459.3604 L205.2243 459.3604 L205.2243 451.8135 L206.1305 451.8135 L206.1305 452.6416 Q206.4118 452.1572 206.8415 451.9229 Q207.2712 451.6885 207.8805 451.6885 Q208.8805 451.6885 209.4977 452.4775 Q210.1149 453.2666 210.1149 454.5479 Q210.1149 455.8447 209.4977 456.6338 Q208.8805 457.4229 207.8805 457.4229 Q207.2712 457.4229 206.8415 457.1885 Q206.4118 456.9541 206.1305 456.4541 ZM209.193 454.5479 Q209.193 453.5635 208.779 453.001 Q208.3649 452.4385 207.6618 452.4385 Q206.943 452.4385 206.5368 453.001 Q206.1305 453.5635 206.1305 454.5479 Q206.1305 455.5479 206.5368 456.1104 Q206.943 456.6729 207.6618 456.6729 Q208.3649 456.6729 208.779 456.1104 Q209.193 455.5479 209.193 454.5479 ZM216.2907 454.3291 L216.2907 454.7666 L212.1501 454.7666 Q212.2126 455.6885 212.7126 456.1729 Q213.2126 456.6572 214.1032 456.6572 Q214.6188 456.6572 215.111 456.5322 Q215.6032 456.4072 216.0719 456.1572 L216.0719 457.001 Q215.5876 457.2041 215.0798 457.3135 Q214.5719 457.4229 214.0563 457.4229 Q212.7438 457.4229 211.9782 456.665 Q211.2126 455.9072 211.2126 454.5947 Q211.2126 453.251 211.9391 452.4697 Q212.6657 451.6885 213.9001 451.6885 Q215.0094 451.6885 215.6501 452.3916 Q216.2907 453.0947 216.2907 454.3291 ZM215.3844 454.0635 Q215.3844 453.3291 214.9782 452.8838 Q214.5719 452.4385 213.9157 452.4385 Q213.1501 452.4385 212.7048 452.8682 Q212.2594 453.2979 212.1813 454.0635 L215.3844 454.0635 ZM219.9811 449.9854 L221.0436 449.9854 L223.0592 452.9854 L225.0592 449.9854 L226.1217 449.9854 L223.5436 453.8135 L223.5436 457.2822 L222.5592 457.2822 L222.5592 453.8135 L219.9811 449.9854 ZM229.1676 452.4385 Q228.4489 452.4385 228.027 453.001 Q227.6051 453.5635 227.6051 454.5479 Q227.6051 455.5322 228.0192 456.0947 Q228.4333 456.6572 229.1676 456.6572 Q229.8864 456.6572 230.3083 456.0947 Q230.7301 455.5322 230.7301 454.5479 Q230.7301 453.5791 230.3083 453.0088 Q229.8864 452.4385 229.1676 452.4385 ZM229.1676 451.6885 Q230.3395 451.6885 231.0114 452.4463 Q231.6833 453.2041 231.6833 454.5479 Q231.6833 455.8916 231.0114 456.6572 Q230.3395 457.4229 229.1676 457.4229 Q227.9958 457.4229 227.3239 456.6572 Q226.652 455.8916 226.652 454.5479 Q226.652 453.2041 227.3239 452.4463 Q227.9958 451.6885 229.1676 451.6885 ZM236.3327 452.6572 Q236.1764 452.5635 236.0046 452.5244 Q235.8327 452.4854 235.6139 452.4854 Q234.8483 452.4854 234.4421 452.9775 Q234.0358 453.4697 234.0358 454.4072 L234.0358 457.2822 L233.1296 457.2822 L233.1296 451.8135 L234.0358 451.8135 L234.0358 452.6572 Q234.3171 452.1572 234.7702 451.9229 Q235.2233 451.6885 235.8796 451.6885 Q235.9733 451.6885 236.0827 451.6963 Q236.1921 451.7041 236.3327 451.7354 L236.3327 452.6572 ZM237.2409 449.6885 L238.1471 449.6885 L238.1471 454.1729 L240.8346 451.8135 L241.9753 451.8135 L239.069 454.376 L242.1003 457.2822 L240.9284 457.2822 L238.1471 454.6104 L238.1471 457.2822 L237.2409 457.2822 L237.2409 449.6885 Z"/></g><g style="fill:rgb(64,64,64); text-rendering:optimizeLegibility; font-size:10; stroke:rgb(64,64,64);"><path style="clip-path:url(#clipPath1); stroke:none;" d="M278.0057 449.9854 L279.0057 449.9854 L280.537 456.1572 L282.0682 449.9854 L283.1776 449.9854 L284.7088 456.1572 L286.2401 449.9854 L287.2401 449.9854 L285.412 457.2822 L284.162 457.2822 L282.6307 450.9541 L281.0838 457.2822 L279.8338 457.2822 L278.0057 449.9854 ZM293.1903 454.3291 L293.1903 454.7666 L289.0497 454.7666 Q289.1122 455.6885 289.6122 456.1729 Q290.1122 456.6572 291.0028 456.6572 Q291.5184 456.6572 292.0106 456.5322 Q292.5028 456.4072 292.9715 456.1572 L292.9715 457.001 Q292.4872 457.2041 291.9793 457.3135 Q291.4715 457.4229 290.9559 457.4229 Q289.6434 457.4229 288.8778 456.665 Q288.1122 455.9072 288.1122 454.5947 Q288.1122 453.251 288.8387 452.4697 Q289.5653 451.6885 290.7997 451.6885 Q291.909 451.6885 292.5497 452.3916 Q293.1903 453.0947 293.1903 454.3291 ZM292.284 454.0635 Q292.284 453.3291 291.8778 452.8838 Q291.4715 452.4385 290.8153 452.4385 Q290.0497 452.4385 289.6043 452.8682 Q289.159 453.2979 289.0809 454.0635 L292.284 454.0635 ZM295.5457 450.2666 L295.5457 451.8135 L297.4051 451.8135 L297.4051 452.5166 L295.5457 452.5166 L295.5457 455.4854 Q295.5457 456.1416 295.7332 456.3369 Q295.9207 456.5322 296.4832 456.5322 L297.4051 456.5322 L297.4051 457.2822 L296.4832 457.2822 Q295.4364 457.2822 295.0379 456.8916 Q294.6395 456.501 294.6395 455.4854 L294.6395 452.5166 L293.9832 452.5166 L293.9832 451.8135 L294.6395 451.8135 L294.6395 450.2666 L295.5457 450.2666 ZM300.786 449.9854 L306.9579 449.9854 L306.9579 450.8291 L304.3641 450.8291 L304.3641 457.2822 L303.3797 457.2822 L303.3797 450.8291 L300.786 450.8291 L300.786 449.9854 ZM311.035 452.6572 Q310.8788 452.5635 310.7069 452.5244 Q310.535 452.4854 310.3163 452.4854 Q309.5506 452.4854 309.1444 452.9775 Q308.7381 453.4697 308.7381 454.4072 L308.7381 457.2822 L307.8319 457.2822 L307.8319 451.8135 L308.7381 451.8135 L308.7381 452.6572 Q309.0194 452.1572 309.4725 451.9229 Q309.9256 451.6885 310.5819 451.6885 Q310.6756 451.6885 310.785 451.6963 Q310.8944 451.7041 311.035 451.7354 L311.035 452.6572 ZM314.0995 452.4385 Q313.3807 452.4385 312.9588 453.001 Q312.537 453.5635 312.537 454.5479 Q312.537 455.5322 312.951 456.0947 Q313.3651 456.6572 314.0995 456.6572 Q314.8182 456.6572 315.2401 456.0947 Q315.662 455.5322 315.662 454.5479 Q315.662 453.5791 315.2401 453.0088 Q314.8182 452.4385 314.0995 452.4385 ZM314.0995 451.6885 Q315.2713 451.6885 315.9432 452.4463 Q316.6151 453.2041 316.6151 454.5479 Q316.6151 455.8916 315.9432 456.6572 Q315.2713 457.4229 314.0995 457.4229 Q312.9276 457.4229 312.2557 456.6572 Q311.5838 455.8916 311.5838 454.5479 Q311.5838 453.2041 312.2557 452.4463 Q312.9276 451.6885 314.0995 451.6885 ZM318.9676 456.4541 L318.9676 459.3604 L318.0614 459.3604 L318.0614 451.8135 L318.9676 451.8135 L318.9676 452.6416 Q319.2489 452.1572 319.6786 451.9229 Q320.1082 451.6885 320.7176 451.6885 Q321.7176 451.6885 322.3348 452.4775 Q322.952 453.2666 322.952 454.5479 Q322.952 455.8447 322.3348 456.6338 Q321.7176 457.4229 320.7176 457.4229 Q320.1082 457.4229 319.6786 457.1885 Q319.2489 456.9541 318.9676 456.4541 ZM322.0301 454.5479 Q322.0301 453.5635 321.6161 453.001 Q321.202 452.4385 320.4989 452.4385 Q319.7801 452.4385 319.3739 453.001 Q318.9676 453.5635 318.9676 454.5479 Q318.9676 455.5479 319.3739 456.1104 Q319.7801 456.6729 320.4989 456.6729 Q321.202 456.6729 321.6161 456.1104 Q322.0301 455.5479 322.0301 454.5479 ZM324.4403 451.8135 L325.3465 451.8135 L325.3465 457.2822 L324.4403 457.2822 L324.4403 451.8135 ZM324.4403 449.6885 L325.3465 449.6885 L325.3465 450.8291 L324.4403 450.8291 L324.4403 449.6885 ZM331.1561 452.0166 L331.1561 452.8604 Q330.7811 452.6572 330.3983 452.5479 Q330.0155 452.4385 329.6248 452.4385 Q328.7498 452.4385 328.2655 452.9932 Q327.7811 453.5479 327.7811 454.5479 Q327.7811 455.5479 328.2655 456.1025 Q328.7498 456.6572 329.6248 456.6572 Q330.0155 456.6572 330.3983 456.5557 Q330.7811 456.4541 331.1561 456.2354 L331.1561 457.0791 Q330.7811 457.251 330.3827 457.3369 Q329.9842 457.4229 329.5311 457.4229 Q328.2811 457.4229 327.5545 456.6494 Q326.828 455.876 326.828 454.5479 Q326.828 453.2197 327.5623 452.4541 Q328.2967 451.6885 329.578 451.6885 Q329.9998 451.6885 330.3905 451.7666 Q330.7811 451.8447 331.1561 452.0166 ZM336.201 451.9697 L336.201 452.8291 Q335.826 452.626 335.4198 452.5322 Q335.0135 452.4385 334.5604 452.4385 Q333.9041 452.4385 333.5682 452.6416 Q333.2323 452.8447 333.2323 453.251 Q333.2323 453.5635 333.4666 453.7432 Q333.701 453.9229 334.4354 454.0791 L334.7323 454.1572 Q335.701 454.3604 336.0995 454.7354 Q336.4979 455.1104 336.4979 455.7666 Q336.4979 456.5322 335.8963 456.9775 Q335.2948 457.4229 334.2479 457.4229 Q333.7948 457.4229 333.3182 457.3369 Q332.8416 457.251 332.326 457.0791 L332.326 456.1572 Q332.826 456.4072 333.3026 456.54 Q333.7791 456.6729 334.2635 456.6729 Q334.8885 456.6729 335.2323 456.4541 Q335.576 456.2354 335.576 455.8447 Q335.576 455.4697 335.3338 455.2744 Q335.0916 455.0791 334.2479 454.9072 L333.9354 454.8291 Q333.1073 454.6572 332.7323 454.29 Q332.3573 453.9229 332.3573 453.2979 Q332.3573 452.5166 332.9041 452.1025 Q333.451 451.6885 334.4666 451.6885 Q334.951 451.6885 335.3963 451.7588 Q335.8416 451.8291 336.201 451.9697 Z"/></g><g style="fill:rgb(64,64,64); text-rendering:optimizeLegibility; font-size:10; stroke:rgb(64,64,64);"><path style="clip-path:url(#clipPath1); stroke:none;" d="M377.6104 453.7979 L377.6104 456.4697 L379.1885 456.4697 Q379.9854 456.4697 380.3682 456.1416 Q380.751 455.8135 380.751 455.126 Q380.751 454.4541 380.3682 454.126 Q379.9854 453.7979 379.1885 453.7979 L377.6104 453.7979 ZM377.6104 450.7979 L377.6104 453.001 L379.0635 453.001 Q379.7979 453.001 380.1494 452.7275 Q380.501 452.4541 380.501 451.9072 Q380.501 451.3447 380.1494 451.0713 Q379.7979 450.7979 379.0635 450.7979 L377.6104 450.7979 ZM376.626 449.9854 L379.1416 449.9854 Q380.2666 449.9854 380.876 450.4541 Q381.4854 450.9229 381.4854 451.7979 Q381.4854 452.4697 381.1729 452.8604 Q380.8604 453.251 380.2666 453.3447 Q380.9854 453.501 381.3916 454.001 Q381.7979 454.501 381.7979 455.2354 Q381.7979 456.2197 381.1338 456.751 Q380.4697 457.2822 379.2354 457.2822 L376.626 457.2822 L376.626 449.9854 ZM383.3457 455.126 L383.3457 451.8135 L384.252 451.8135 L384.252 455.0947 Q384.252 455.8604 384.5566 456.251 Q384.8613 456.6416 385.4551 456.6416 Q386.1895 456.6416 386.6113 456.1807 Q387.0332 455.7197 387.0332 454.9072 L387.0332 451.8135 L387.9395 451.8135 L387.9395 457.2822 L387.0332 457.2822 L387.0332 456.4385 Q386.7051 456.9385 386.2754 457.1807 Q385.8457 457.4229 385.2676 457.4229 Q384.3301 457.4229 383.8379 456.8369 Q383.3457 456.251 383.3457 455.126 ZM385.6113 451.6885 L385.6113 451.6885 ZM392.9492 452.6572 Q392.793 452.5635 392.6211 452.5244 Q392.4492 452.4854 392.2305 452.4854 Q391.4648 452.4854 391.0586 452.9775 Q390.6523 453.4697 390.6523 454.4072 L390.6523 457.2822 L389.7461 457.2822 L389.7461 451.8135 L390.6523 451.8135 L390.6523 452.6572 Q390.9336 452.1572 391.3867 451.9229 Q391.8398 451.6885 392.4961 451.6885 Q392.5898 451.6885 392.6992 451.6963 Q392.8086 451.7041 392.9492 451.7354 L392.9492 452.6572 ZM397.498 452.6416 L397.498 449.6885 L398.3887 449.6885 L398.3887 457.2822 L397.498 457.2822 L397.498 456.4541 Q397.2168 456.9541 396.7793 457.1885 Q396.3418 457.4229 395.7324 457.4229 Q394.748 457.4229 394.123 456.6338 Q393.498 455.8447 393.498 454.5479 Q393.498 453.2666 394.123 452.4775 Q394.748 451.6885 395.7324 451.6885 Q396.3418 451.6885 396.7793 451.9229 Q397.2168 452.1572 397.498 452.6416 ZM394.4355 454.5479 Q394.4355 455.5479 394.8418 456.1104 Q395.248 456.6729 395.9668 456.6729 Q396.6699 456.6729 397.084 456.1104 Q397.498 455.5479 397.498 454.5479 Q397.498 453.5635 397.084 453.001 Q396.6699 452.4385 395.9668 452.4385 Q395.248 452.4385 394.8418 453.001 Q394.4355 453.5635 394.4355 454.5479 ZM404.9238 454.3291 L404.9238 454.7666 L400.7832 454.7666 Q400.8457 455.6885 401.3457 456.1729 Q401.8457 456.6572 402.7363 456.6572 Q403.252 456.6572 403.7441 456.5322 Q404.2363 456.4072 404.7051 456.1572 L404.7051 457.001 Q404.2207 457.2041 403.7129 457.3135 Q403.2051 457.4229 402.6895 457.4229 Q401.377 457.4229 400.6113 456.665 Q399.8457 455.9072 399.8457 454.5947 Q399.8457 453.251 400.5723 452.4697 Q401.2988 451.6885 402.5332 451.6885 Q403.6426 451.6885 404.2832 452.3916 Q404.9238 453.0947 404.9238 454.3291 ZM404.0176 454.0635 Q404.0176 453.3291 403.6113 452.8838 Q403.2051 452.4385 402.5488 452.4385 Q401.7832 452.4385 401.3379 452.8682 Q400.8926 453.2979 400.8145 454.0635 L404.0176 454.0635 ZM406.3574 449.6885 L407.2637 449.6885 L407.2637 454.1729 L409.9512 451.8135 L411.0918 451.8135 L408.1855 454.376 L411.2168 457.2822 L410.0449 457.2822 L407.2637 454.6104 L407.2637 457.2822 L406.3574 457.2822 L406.3574 449.6885 ZM412.1797 451.8135 L413.0859 451.8135 L413.0859 457.2822 L412.1797 457.2822 L412.1797 451.8135 ZM412.1797 449.6885 L413.0859 449.6885 L413.0859 450.8291 L412.1797 450.8291 L412.1797 449.6885 ZM419.5049 453.9854 L419.5049 457.2822 L418.6143 457.2822 L418.6143 454.0166 Q418.6143 453.2354 418.3096 452.8525 Q418.0049 452.4697 417.3955 452.4697 Q416.6768 452.4697 416.2549 452.9307 Q415.833 453.3916 415.833 454.1885 L415.833 457.2822 L414.9268 457.2822 L414.9268 451.8135 L415.833 451.8135 L415.833 452.6572 Q416.1611 452.1729 416.5986 451.9307 Q417.0361 451.6885 417.5986 451.6885 Q418.5361 451.6885 419.0205 452.2666 Q419.5049 452.8447 419.5049 453.9854 Z"/></g><g style="fill:rgb(64,64,64); text-rendering:optimizeLegibility; font-size:10; stroke:rgb(64,64,64);"><path style="clip-path:url(#clipPath1); stroke:none;" d="M469.0163 449.9854 L470.485 449.9854 L472.3444 454.9541 L474.2194 449.9854 L475.6881 449.9854 L475.6881 457.2822 L474.7194 457.2822 L474.7194 450.876 L472.8444 455.876 L471.8444 455.876 L469.9694 450.876 L469.9694 457.2822 L469.0163 457.2822 L469.0163 449.9854 ZM480.0817 454.5322 Q479.0036 454.5322 478.5817 454.7822 Q478.1598 455.0322 478.1598 455.626 Q478.1598 456.1104 478.4723 456.3916 Q478.7848 456.6729 479.3317 456.6729 Q480.0817 456.6729 480.5348 456.1416 Q480.9879 455.6104 480.9879 454.7354 L480.9879 454.5322 L480.0817 454.5322 ZM481.8786 454.1572 L481.8786 457.2822 L480.9879 457.2822 L480.9879 456.4541 Q480.6754 456.9541 480.2145 457.1885 Q479.7536 457.4229 479.0973 457.4229 Q478.2536 457.4229 477.7536 456.9541 Q477.2536 456.4854 477.2536 455.6885 Q477.2536 454.7666 477.8786 454.2979 Q478.5036 453.8291 479.7223 453.8291 L480.9879 453.8291 L480.9879 453.7354 Q480.9879 453.126 480.5739 452.7822 Q480.1598 452.4385 479.4254 452.4385 Q478.9567 452.4385 478.5114 452.5557 Q478.0661 452.6729 477.6598 452.8916 L477.6598 452.0635 Q478.1598 451.876 478.6208 451.7822 Q479.0817 451.6885 479.5192 451.6885 Q480.7067 451.6885 481.2926 452.2979 Q481.8786 452.9072 481.8786 454.1572 ZM487.6628 452.0166 L487.6628 452.8604 Q487.2878 452.6572 486.9049 452.5479 Q486.5221 452.4385 486.1315 452.4385 Q485.2565 452.4385 484.7721 452.9932 Q484.2878 453.5479 484.2878 454.5479 Q484.2878 455.5479 484.7721 456.1025 Q485.2565 456.6572 486.1315 456.6572 Q486.5221 456.6572 486.9049 456.5557 Q487.2878 456.4541 487.6628 456.2354 L487.6628 457.0791 Q487.2878 457.251 486.8893 457.3369 Q486.4909 457.4229 486.0378 457.4229 Q484.7878 457.4229 484.0612 456.6494 Q483.3346 455.876 483.3346 454.5479 Q483.3346 453.2197 484.069 452.4541 Q484.8034 451.6885 486.0846 451.6885 Q486.5065 451.6885 486.8971 451.7666 Q487.2878 451.8447 487.6628 452.0166 ZM489.192 449.6885 L490.0983 449.6885 L490.0983 454.1729 L492.7858 451.8135 L493.9264 451.8135 L491.0202 454.376 L494.0514 457.2822 L492.8795 457.2822 L490.0983 454.6104 L490.0983 457.2822 L489.192 457.2822 L489.192 449.6885 ZM497.4987 454.5322 Q496.4206 454.5322 495.9987 454.7822 Q495.5768 455.0322 495.5768 455.626 Q495.5768 456.1104 495.8893 456.3916 Q496.2018 456.6729 496.7487 456.6729 Q497.4987 456.6729 497.9518 456.1416 Q498.4049 455.6104 498.4049 454.7354 L498.4049 454.5322 L497.4987 454.5322 ZM499.2956 454.1572 L499.2956 457.2822 L498.4049 457.2822 L498.4049 456.4541 Q498.0924 456.9541 497.6315 457.1885 Q497.1706 457.4229 496.5143 457.4229 Q495.6706 457.4229 495.1706 456.9541 Q494.6706 456.4854 494.6706 455.6885 Q494.6706 454.7666 495.2956 454.2979 Q495.9206 453.8291 497.1393 453.8291 L498.4049 453.8291 L498.4049 453.7354 Q498.4049 453.126 497.9909 452.7822 Q497.5768 452.4385 496.8424 452.4385 Q496.3737 452.4385 495.9284 452.5557 Q495.4831 452.6729 495.0768 452.8916 L495.0768 452.0635 Q495.5768 451.876 496.0378 451.7822 Q496.4987 451.6885 496.9362 451.6885 Q498.1237 451.6885 498.7096 452.2979 Q499.2956 452.9072 499.2956 454.1572 ZM503.4235 457.7979 Q503.0485 458.7666 502.6813 459.0635 Q502.3141 459.3604 501.7204 459.3604 L501.0016 459.3604 L501.0016 458.6104 L501.5172 458.6104 Q501.8922 458.6104 502.0954 458.4385 Q502.2985 458.2666 502.5485 457.6104 L502.7204 457.1885 L500.5016 451.8135 L501.4547 451.8135 L503.1579 456.0947 L504.8766 451.8135 L505.8297 451.8135 L503.4235 457.7979 Z"/></g><g style="fill:rgb(64,64,64); text-rendering:optimizeLegibility; font-size:10; stroke:rgb(64,64,64);"><path style="clip-path:url(#clipPath1); stroke:none;" d="M459.3927 461.626 L460.3927 461.626 L461.924 467.7979 L463.4552 461.626 L464.5646 461.626 L466.0959 467.7979 L467.6271 461.626 L468.6271 461.626 L466.799 468.9229 L465.549 468.9229 L464.0177 462.5947 L462.4709 468.9229 L461.2209 468.9229 L459.3927 461.626 ZM474.4367 465.626 L474.4367 468.9229 L473.5461 468.9229 L473.5461 465.6572 Q473.5461 464.876 473.2414 464.4932 Q472.9367 464.1104 472.3273 464.1104 Q471.6086 464.1104 471.1867 464.5713 Q470.7648 465.0322 470.7648 465.8291 L470.7648 468.9229 L469.8586 468.9229 L469.8586 461.3291 L470.7648 461.3291 L470.7648 464.2979 Q471.0929 463.8135 471.5304 463.5713 Q471.9679 463.3291 472.5304 463.3291 Q473.4679 463.3291 473.9523 463.9072 Q474.4367 464.4854 474.4367 465.626 ZM476.2277 463.4541 L477.1339 463.4541 L477.1339 468.9229 L476.2277 468.9229 L476.2277 463.4541 ZM476.2277 461.3291 L477.1339 461.3291 L477.1339 462.4697 L476.2277 462.4697 L476.2277 461.3291 ZM479.8966 461.9072 L479.8966 463.4541 L481.756 463.4541 L481.756 464.1572 L479.8966 464.1572 L479.8966 467.126 Q479.8966 467.7822 480.0841 467.9775 Q480.2716 468.1729 480.8341 468.1729 L481.756 468.1729 L481.756 468.9229 L480.8341 468.9229 Q479.7873 468.9229 479.3888 468.5322 Q478.9904 468.1416 478.9904 467.126 L478.9904 464.1572 L478.3341 464.1572 L478.3341 463.4541 L478.9904 463.4541 L478.9904 461.9072 L479.8966 461.9072 ZM486.4113 463.6104 L486.4113 464.4697 Q486.0363 464.2666 485.63 464.1729 Q485.2238 464.0791 484.7707 464.0791 Q484.1144 464.0791 483.7785 464.2822 Q483.4425 464.4854 483.4425 464.8916 Q483.4425 465.2041 483.6769 465.3838 Q483.9113 465.5635 484.6457 465.7197 L484.9425 465.7979 Q485.9113 466.001 486.3097 466.376 Q486.7082 466.751 486.7082 467.4072 Q486.7082 468.1729 486.1066 468.6182 Q485.505 469.0635 484.4582 469.0635 Q484.005 469.0635 483.5285 468.9775 Q483.0519 468.8916 482.5363 468.7197 L482.5363 467.7979 Q483.0363 468.0479 483.5128 468.1807 Q483.9894 468.3135 484.4738 468.3135 Q485.0988 468.3135 485.4425 468.0947 Q485.7863 467.876 485.7863 467.4854 Q485.7863 467.1104 485.5441 466.915 Q485.3019 466.7197 484.4582 466.5479 L484.1457 466.4697 Q483.3175 466.2979 482.9425 465.9307 Q482.5675 465.5635 482.5675 464.9385 Q482.5675 464.1572 483.1144 463.7432 Q483.6613 463.3291 484.6769 463.3291 Q485.1613 463.3291 485.6066 463.3994 Q486.0519 463.4697 486.4113 463.6104 ZM488.0431 466.7666 L488.0431 463.4541 L488.9494 463.4541 L488.9494 466.7354 Q488.9494 467.501 489.2541 467.8916 Q489.5587 468.2822 490.1525 468.2822 Q490.8869 468.2822 491.3087 467.8213 Q491.7306 467.3604 491.7306 466.5479 L491.7306 463.4541 L492.6369 463.4541 L492.6369 468.9229 L491.7306 468.9229 L491.7306 468.0791 Q491.4025 468.5791 490.9728 468.8213 Q490.5431 469.0635 489.965 469.0635 Q489.0275 469.0635 488.5353 468.4775 Q488.0431 467.8916 488.0431 466.7666 ZM490.3087 463.3291 L490.3087 463.3291 ZM499.0216 465.626 L499.0216 468.9229 L498.131 468.9229 L498.131 465.6572 Q498.131 464.876 497.8263 464.4932 Q497.5216 464.1104 496.9123 464.1104 Q496.1935 464.1104 495.7716 464.5713 Q495.3498 465.0322 495.3498 465.8291 L495.3498 468.9229 L494.4435 468.9229 L494.4435 463.4541 L495.3498 463.4541 L495.3498 464.2979 Q495.6779 463.8135 496.1154 463.5713 Q496.5529 463.3291 497.1154 463.3291 Q498.0529 463.3291 498.5373 463.9072 Q499.0216 464.4854 499.0216 465.626 ZM504.422 464.2822 L504.422 461.3291 L505.3127 461.3291 L505.3127 468.9229 L504.422 468.9229 L504.422 468.0947 Q504.1408 468.5947 503.7033 468.8291 Q503.2658 469.0635 502.6564 469.0635 Q501.672 469.0635 501.047 468.2744 Q500.422 467.4854 500.422 466.1885 Q500.422 464.9072 501.047 464.1182 Q501.672 463.3291 502.6564 463.3291 Q503.2658 463.3291 503.7033 463.5635 Q504.1408 463.7979 504.422 464.2822 ZM501.3595 466.1885 Q501.3595 467.1885 501.7658 467.751 Q502.172 468.3135 502.8908 468.3135 Q503.5939 468.3135 504.008 467.751 Q504.422 467.1885 504.422 466.1885 Q504.422 465.2041 504.008 464.6416 Q503.5939 464.0791 502.8908 464.0791 Q502.172 464.0791 501.7658 464.6416 Q501.3595 465.2041 501.3595 466.1885 ZM509.6447 466.1729 Q508.5666 466.1729 508.1447 466.4229 Q507.7228 466.6729 507.7228 467.2666 Q507.7228 467.751 508.0353 468.0322 Q508.3478 468.3135 508.8947 468.3135 Q509.6447 468.3135 510.0978 467.7822 Q510.5509 467.251 510.5509 466.376 L510.5509 466.1729 L509.6447 466.1729 ZM511.4416 465.7979 L511.4416 468.9229 L510.5509 468.9229 L510.5509 468.0947 Q510.2384 468.5947 509.7775 468.8291 Q509.3166 469.0635 508.6603 469.0635 Q507.8166 469.0635 507.3166 468.5947 Q506.8166 468.126 506.8166 467.3291 Q506.8166 466.4072 507.4416 465.9385 Q508.0666 465.4697 509.2853 465.4697 L510.5509 465.4697 L510.5509 465.376 Q510.5509 464.7666 510.1369 464.4229 Q509.7228 464.0791 508.9884 464.0791 Q508.5197 464.0791 508.0744 464.1963 Q507.6291 464.3135 507.2228 464.5322 L507.2228 463.7041 Q507.7228 463.5166 508.1837 463.4229 Q508.6447 463.3291 509.0822 463.3291 Q510.2697 463.3291 510.8556 463.9385 Q511.4416 464.5479 511.4416 465.7979 ZM515.5695 469.4385 Q515.1945 470.4072 514.8273 470.7041 Q514.4601 471.001 513.8663 471.001 L513.1476 471.001 L513.1476 470.251 L513.6632 470.251 Q514.0382 470.251 514.2413 470.0791 Q514.4445 469.9072 514.6945 469.251 L514.8663 468.8291 L512.6476 463.4541 L513.6007 463.4541 L515.3038 467.7354 L517.0226 463.4541 L517.9757 463.4541 L515.5695 469.4385 Z"/></g><g style="fill:rgb(64,64,64); text-rendering:optimizeLegibility; font-size:10; stroke:rgb(64,64,64);"><path style="clip-path:url(#clipPath1); stroke:none;" d="M563.3939 449.9854 L567.5814 449.9854 L567.5814 450.8291 L564.3782 450.8291 L564.3782 452.9697 L567.2689 452.9697 L567.2689 453.7979 L564.3782 453.7979 L564.3782 457.2822 L563.3939 457.2822 L563.3939 449.9854 ZM569.0989 451.8135 L570.0052 451.8135 L570.0052 457.2822 L569.0989 457.2822 L569.0989 451.8135 ZM569.0989 449.6885 L570.0052 449.6885 L570.0052 450.8291 L569.0989 450.8291 L569.0989 449.6885 ZM572.7679 450.2666 L572.7679 451.8135 L574.6273 451.8135 L574.6273 452.5166 L572.7679 452.5166 L572.7679 455.4854 Q572.7679 456.1416 572.9554 456.3369 Q573.1429 456.5322 573.7054 456.5322 L574.6273 456.5322 L574.6273 457.2822 L573.7054 457.2822 Q572.6585 457.2822 572.2601 456.8916 Q571.8616 456.501 571.8616 455.4854 L571.8616 452.5166 L571.2054 452.5166 L571.2054 451.8135 L571.8616 451.8135 L571.8616 450.2666 L572.7679 450.2666 ZM575.4075 451.8135 L579.6732 451.8135 L579.6732 452.626 L576.2982 456.5635 L579.6732 456.5635 L579.6732 457.2822 L575.2982 457.2822 L575.2982 456.4541 L578.6732 452.5322 L575.4075 452.5322 L575.4075 451.8135 ZM584.2191 452.6572 Q584.0628 452.5635 583.8909 452.5244 Q583.7191 452.4854 583.5003 452.4854 Q582.7347 452.4854 582.3284 452.9775 Q581.9222 453.4697 581.9222 454.4072 L581.9222 457.2822 L581.0159 457.2822 L581.0159 451.8135 L581.9222 451.8135 L581.9222 452.6572 Q582.2034 452.1572 582.6566 451.9229 Q583.1097 451.6885 583.7659 451.6885 Q583.8597 451.6885 583.9691 451.6963 Q584.0784 451.7041 584.2191 451.7354 L584.2191 452.6572 ZM587.2835 452.4385 Q586.5648 452.4385 586.1429 453.001 Q585.721 453.5635 585.721 454.5479 Q585.721 455.5322 586.1351 456.0947 Q586.5491 456.6572 587.2835 456.6572 Q588.0023 456.6572 588.4241 456.0947 Q588.846 455.5322 588.846 454.5479 Q588.846 453.5791 588.4241 453.0088 Q588.0023 452.4385 587.2835 452.4385 ZM587.2835 451.6885 Q588.4554 451.6885 589.1273 452.4463 Q589.7991 453.2041 589.7991 454.5479 Q589.7991 455.8916 589.1273 456.6572 Q588.4554 457.4229 587.2835 457.4229 Q586.1116 457.4229 585.4398 456.6572 Q584.7679 455.8916 584.7679 454.5479 Q584.7679 453.2041 585.4398 452.4463 Q586.1116 451.6885 587.2835 451.6885 ZM593.5579 457.7979 Q593.1829 458.7666 592.8157 459.0635 Q592.4485 459.3604 591.8548 459.3604 L591.136 459.3604 L591.136 458.6104 L591.6517 458.6104 Q592.0267 458.6104 592.2298 458.4385 Q592.4329 458.2666 592.6829 457.6104 L592.8548 457.1885 L590.636 451.8135 L591.5892 451.8135 L593.2923 456.0947 L595.011 451.8135 L595.9642 451.8135 L593.5579 457.7979 Z"/></g><g style="fill:rgb(64,64,64); text-rendering:optimizeLegibility; font-size:10; stroke:rgb(64,64,64);"><path style="clip-path:url(#clipPath1); stroke:none;" d="M639.166 453.7979 L639.166 456.4697 L640.7441 456.4697 Q641.541 456.4697 641.9238 456.1416 Q642.3066 455.8135 642.3066 455.126 Q642.3066 454.4541 641.9238 454.126 Q641.541 453.7979 640.7441 453.7979 L639.166 453.7979 ZM639.166 450.7979 L639.166 453.001 L640.6191 453.001 Q641.3535 453.001 641.7051 452.7275 Q642.0566 452.4541 642.0566 451.9072 Q642.0566 451.3447 641.7051 451.0713 Q641.3535 450.7979 640.6191 450.7979 L639.166 450.7979 ZM638.1816 449.9854 L640.6973 449.9854 Q641.8223 449.9854 642.4316 450.4541 Q643.041 450.9229 643.041 451.7979 Q643.041 452.4697 642.7285 452.8604 Q642.416 453.251 641.8223 453.3447 Q642.541 453.501 642.9473 454.001 Q643.3535 454.501 643.3535 455.2354 Q643.3535 456.2197 642.6895 456.751 Q642.0254 457.2822 640.791 457.2822 L638.1816 457.2822 L638.1816 449.9854 ZM644.9014 455.126 L644.9014 451.8135 L645.8076 451.8135 L645.8076 455.0947 Q645.8076 455.8604 646.1123 456.251 Q646.417 456.6416 647.0107 456.6416 Q647.7451 456.6416 648.167 456.1807 Q648.5889 455.7197 648.5889 454.9072 L648.5889 451.8135 L649.4951 451.8135 L649.4951 457.2822 L648.5889 457.2822 L648.5889 456.4385 Q648.2607 456.9385 647.8311 457.1807 Q647.4014 457.4229 646.8232 457.4229 Q645.8857 457.4229 645.3936 456.8369 Q644.9014 456.251 644.9014 455.126 ZM647.167 451.6885 L647.167 451.6885 ZM654.5049 452.6572 Q654.3486 452.5635 654.1768 452.5244 Q654.0049 452.4854 653.7861 452.4854 Q653.0205 452.4854 652.6143 452.9775 Q652.208 453.4697 652.208 454.4072 L652.208 457.2822 L651.3018 457.2822 L651.3018 451.8135 L652.208 451.8135 L652.208 452.6572 Q652.4893 452.1572 652.9424 451.9229 Q653.3955 451.6885 654.0518 451.6885 Q654.1455 451.6885 654.2549 451.6963 Q654.3643 451.7041 654.5049 451.7354 L654.5049 452.6572 ZM659.9912 453.9854 L659.9912 457.2822 L659.1006 457.2822 L659.1006 454.0166 Q659.1006 453.2354 658.7959 452.8525 Q658.4912 452.4697 657.8818 452.4697 Q657.1631 452.4697 656.7412 452.9307 Q656.3193 453.3916 656.3193 454.1885 L656.3193 457.2822 L655.4131 457.2822 L655.4131 451.8135 L656.3193 451.8135 L656.3193 452.6572 Q656.6475 452.1729 657.085 451.9307 Q657.5225 451.6885 658.085 451.6885 Q659.0225 451.6885 659.5068 452.2666 Q659.9912 452.8447 659.9912 453.9854 ZM666.4697 454.3291 L666.4697 454.7666 L662.3291 454.7666 Q662.3916 455.6885 662.8916 456.1729 Q663.3916 456.6572 664.2822 456.6572 Q664.7979 456.6572 665.29 456.5322 Q665.7822 456.4072 666.251 456.1572 L666.251 457.001 Q665.7666 457.2041 665.2588 457.3135 Q664.751 457.4229 664.2354 457.4229 Q662.9229 457.4229 662.1572 456.665 Q661.3916 455.9072 661.3916 454.5947 Q661.3916 453.251 662.1182 452.4697 Q662.8447 451.6885 664.0791 451.6885 Q665.1885 451.6885 665.8291 452.3916 Q666.4697 453.0947 666.4697 454.3291 ZM665.5635 454.0635 Q665.5635 453.3291 665.1572 452.8838 Q664.751 452.4385 664.0947 452.4385 Q663.3291 452.4385 662.8838 452.8682 Q662.4385 453.2979 662.3604 454.0635 L665.5635 454.0635 ZM668.8252 450.2666 L668.8252 451.8135 L670.6846 451.8135 L670.6846 452.5166 L668.8252 452.5166 L668.8252 455.4854 Q668.8252 456.1416 669.0127 456.3369 Q669.2002 456.5322 669.7627 456.5322 L670.6846 456.5322 L670.6846 457.2822 L669.7627 457.2822 Q668.7158 457.2822 668.3174 456.8916 Q667.9189 456.501 667.9189 455.4854 L667.9189 452.5166 L667.2627 452.5166 L667.2627 451.8135 L667.9189 451.8135 L667.9189 450.2666 L668.8252 450.2666 ZM672.7461 450.2666 L672.7461 451.8135 L674.6055 451.8135 L674.6055 452.5166 L672.7461 452.5166 L672.7461 455.4854 Q672.7461 456.1416 672.9336 456.3369 Q673.1211 456.5322 673.6836 456.5322 L674.6055 456.5322 L674.6055 457.2822 L673.6836 457.2822 Q672.6367 457.2822 672.2383 456.8916 Q671.8398 456.501 671.8398 455.4854 L671.8398 452.5166 L671.1836 452.5166 L671.1836 451.8135 L671.8398 451.8135 L671.8398 450.2666 L672.7461 450.2666 ZM679.002 449.9854 L680.4707 449.9854 L682.3301 454.9541 L684.2051 449.9854 L685.6738 449.9854 L685.6738 457.2822 L684.7051 457.2822 L684.7051 450.876 L682.8301 455.876 L681.8301 455.876 L679.9551 450.876 L679.9551 457.2822 L679.002 457.2822 L679.002 449.9854 ZM690.0674 454.5322 Q688.9893 454.5322 688.5674 454.7822 Q688.1455 455.0322 688.1455 455.626 Q688.1455 456.1104 688.458 456.3916 Q688.7705 456.6729 689.3174 456.6729 Q690.0674 456.6729 690.5205 456.1416 Q690.9736 455.6104 690.9736 454.7354 L690.9736 454.5322 L690.0674 454.5322 ZM691.8643 454.1572 L691.8643 457.2822 L690.9736 457.2822 L690.9736 456.4541 Q690.6611 456.9541 690.2002 457.1885 Q689.7393 457.4229 689.083 457.4229 Q688.2393 457.4229 687.7393 456.9541 Q687.2393 456.4854 687.2393 455.6885 Q687.2393 454.7666 687.8643 454.2979 Q688.4893 453.8291 689.708 453.8291 L690.9736 453.8291 L690.9736 453.7354 Q690.9736 453.126 690.5596 452.7822 Q690.1455 452.4385 689.4111 452.4385 Q688.9424 452.4385 688.4971 452.5557 Q688.0518 452.6729 687.6455 452.8916 L687.6455 452.0635 Q688.1455 451.876 688.6064 451.7822 Q689.0674 451.6885 689.5049 451.6885 Q690.6924 451.6885 691.2783 452.2979 Q691.8643 452.9072 691.8643 454.1572 ZM696.8828 452.6572 Q696.7266 452.5635 696.5547 452.5244 Q696.3828 452.4854 696.1641 452.4854 Q695.3984 452.4854 694.9922 452.9775 Q694.5859 453.4697 694.5859 454.4072 L694.5859 457.2822 L693.6797 457.2822 L693.6797 451.8135 L694.5859 451.8135 L694.5859 452.6572 Q694.8672 452.1572 695.3203 451.9229 Q695.7734 451.6885 696.4297 451.6885 Q696.5234 451.6885 696.6328 451.6963 Q696.7422 451.7041 696.8828 451.7354 L696.8828 452.6572 ZM700.1035 457.7979 Q699.7285 458.7666 699.3613 459.0635 Q698.9941 459.3604 698.4004 459.3604 L697.6816 459.3604 L697.6816 458.6104 L698.1973 458.6104 Q698.5723 458.6104 698.7754 458.4385 Q698.9785 458.2666 699.2285 457.6104 L699.4004 457.1885 L697.1816 451.8135 L698.1348 451.8135 L699.8379 456.0947 L701.5566 451.8135 L702.5098 451.8135 L700.1035 457.7979 Z"/></g><g style="fill:rgb(64,64,64); text-rendering:optimizeLegibility; font-size:14; font-weight:bold; stroke:rgb(64,64,64);"><path style="clip-path:url(#clipPath1); stroke:none;" d="M375.6909 485.5889 Q376.519 485.5889 376.8706 485.2842 Q377.2222 484.9795 377.2222 484.2764 Q377.2222 483.5732 376.8706 483.2764 Q376.519 482.9795 375.6909 482.9795 L374.5815 482.9795 L374.5815 485.5889 L375.6909 485.5889 ZM374.5815 487.417 L374.5815 491.2764 L371.9409 491.2764 L371.9409 481.0732 L375.9722 481.0732 Q377.9878 481.0732 378.9253 481.7451 Q379.8628 482.417 379.8628 483.8857 Q379.8628 484.9014 379.3706 485.5498 Q378.8784 486.1982 377.894 486.5107 Q378.4409 486.6201 378.8706 487.0576 Q379.3003 487.4951 379.7378 488.3701 L381.1597 491.2764 L378.3628 491.2764 L377.1128 488.7451 Q376.7378 487.9795 376.355 487.6982 Q375.9722 487.417 375.3159 487.417 L374.5815 487.417 ZM390.2524 487.4326 L390.2524 488.1201 L384.5337 488.1201 Q384.6274 488.9795 385.1587 489.417 Q385.6899 489.8545 386.6431 489.8545 Q387.4243 489.8545 388.2368 489.6201 Q389.0493 489.3857 389.8931 488.917 L389.8931 490.8076 Q389.0337 491.1357 388.1665 491.3076 Q387.2993 491.4795 386.4243 491.4795 Q384.3462 491.4795 383.1978 490.417 Q382.0493 489.3545 382.0493 487.4482 Q382.0493 485.5889 383.1743 484.5107 Q384.2993 483.4326 386.2837 483.4326 Q388.0962 483.4326 389.1743 484.5186 Q390.2524 485.6045 390.2524 487.4326 ZM387.7368 486.6201 Q387.7368 485.917 387.3306 485.4873 Q386.9243 485.0576 386.2681 485.0576 Q385.5649 485.0576 385.1196 485.4561 Q384.6743 485.8545 384.5649 486.6201 L387.7368 486.6201 ZM397.3257 489.9795 Q396.8101 490.6514 396.2007 490.9639 Q395.5913 491.2764 394.7944 491.2764 Q393.4038 491.2764 392.4819 490.1748 Q391.5601 489.0732 391.5601 487.3545 Q391.5601 485.6357 392.4819 484.542 Q393.4038 483.4482 394.7944 483.4482 Q395.5913 483.4482 396.2007 483.7607 Q396.8101 484.0732 397.3257 484.7607 L397.3257 483.6201 L399.7788 483.6201 L399.7788 490.5107 Q399.7788 492.3545 398.6147 493.3232 Q397.4507 494.292 395.2319 494.292 Q394.5132 494.292 393.8491 494.1826 Q393.1851 494.0732 392.4976 493.8545 L392.4976 491.9482 Q393.1382 492.3232 393.7554 492.5029 Q394.3726 492.6826 394.9976 492.6826 Q396.2007 492.6826 396.7632 492.1514 Q397.3257 491.6201 397.3257 490.5107 L397.3257 489.9795 ZM395.7007 485.2139 Q394.9507 485.2139 394.5288 485.7764 Q394.1069 486.3389 394.1069 487.3545 Q394.1069 488.417 394.5132 488.9561 Q394.9194 489.4951 395.7007 489.4951 Q396.4663 489.4951 396.896 488.9326 Q397.3257 488.3701 397.3257 487.3545 Q397.3257 486.3389 396.896 485.7764 Q396.4663 485.2139 395.7007 485.2139 ZM402.1284 483.6201 L404.5815 483.6201 L404.5815 491.2764 L402.1284 491.2764 L402.1284 483.6201 ZM402.1284 480.6357 L404.5815 480.6357 L404.5815 482.6357 L402.1284 482.6357 L402.1284 480.6357 ZM410.5679 485.1826 Q409.7554 485.1826 409.3335 485.7686 Q408.9116 486.3545 408.9116 487.4482 Q408.9116 488.5576 409.3335 489.1436 Q409.7554 489.7295 410.5679 489.7295 Q411.3804 489.7295 411.8022 489.1436 Q412.2241 488.5576 412.2241 487.4482 Q412.2241 486.3545 411.8022 485.7686 Q411.3804 485.1826 410.5679 485.1826 ZM410.5679 483.4326 Q412.5522 483.4326 413.6616 484.5029 Q414.771 485.5732 414.771 487.4482 Q414.771 489.3389 413.6616 490.4092 Q412.5522 491.4795 410.5679 491.4795 Q408.5991 491.4795 407.4819 490.4092 Q406.3647 489.3389 406.3647 487.4482 Q406.3647 485.5732 407.4819 484.5029 Q408.5991 483.4326 410.5679 483.4326 ZM424.2485 486.6201 L424.2485 491.2764 L421.7798 491.2764 L421.7798 490.5107 L421.7798 487.7139 Q421.7798 486.7139 421.7407 486.3389 Q421.7017 485.9639 421.5923 485.792 Q421.4517 485.542 421.2017 485.4092 Q420.9517 485.2764 420.6392 485.2764 Q419.8735 485.2764 419.436 485.8701 Q418.9985 486.4639 418.9985 487.5107 L418.9985 491.2764 L416.5454 491.2764 L416.5454 483.6201 L418.9985 483.6201 L418.9985 484.7451 Q419.5454 484.0732 420.1704 483.7529 Q420.7954 483.4326 421.5454 483.4326 Q422.8735 483.4326 423.561 484.2451 Q424.2485 485.0576 424.2485 486.6201 Z"/></g><g style="fill:gray; text-rendering:optimizeLegibility; font-size:14; font-weight:bold; stroke:gray;"><line y2="438" style="fill:none; clip-path:url(#clipPath1);" x1="54" x2="54" y1="57"/></g><g style="fill:rgb(64,64,64); text-rendering:optimizeLegibility; stroke:rgb(64,64,64);"><path style="clip-path:url(#clipPath1); stroke:none;" d="M44.1777 434.1855 Q43.2715 434.1855 42.8105 435.084 Q42.3496 435.9824 42.3496 437.7949 Q42.3496 439.5918 42.8105 440.4902 Q43.2715 441.3887 44.1777 441.3887 Q45.0996 441.3887 45.5605 440.4902 Q46.0215 439.5918 46.0215 437.7949 Q46.0215 435.9824 45.5605 435.084 Q45.0996 434.1855 44.1777 434.1855 ZM44.1777 433.248 Q45.6465 433.248 46.4277 434.4121 Q47.209 435.5762 47.209 437.7949 Q47.209 439.998 46.4277 441.1621 Q45.6465 442.3262 44.1777 442.3262 Q42.709 442.3262 41.9355 441.1621 Q41.1621 439.998 41.1621 437.7949 Q41.1621 435.5762 41.9355 434.4121 Q42.709 433.248 44.1777 433.248 Z"/></g><g style="fill:gray; text-rendering:optimizeLegibility; stroke:gray;"><line y2="438" style="fill:none; clip-path:url(#clipPath1);" x1="52" x2="54" y1="438"/><path style="fill:rgb(64,64,64); clip-path:url(#clipPath1); stroke:none;" d="M41.6621 338.1543 L46.3027 338.1543 L46.3027 339.1543 L42.7402 339.1543 L42.7402 341.2949 Q43.0059 341.2012 43.2637 341.1621 Q43.5215 341.123 43.7715 341.123 Q45.2402 341.123 46.0996 341.9277 Q46.959 342.7324 46.959 344.0918 Q46.959 345.5137 46.0762 346.2949 Q45.1934 347.0762 43.5996 347.0762 Q43.0371 347.0762 42.4668 346.9824 Q41.8965 346.8887 41.2871 346.7012 L41.2871 345.5137 Q41.8184 345.7949 42.3809 345.9355 Q42.9434 346.0762 43.5684 346.0762 Q44.584 346.0762 45.1777 345.5449 Q45.7715 345.0137 45.7715 344.0918 Q45.7715 343.1855 45.1777 342.6543 Q44.584 342.123 43.5684 342.123 Q43.0996 342.123 42.623 342.2246 Q42.1465 342.3262 41.6621 342.5449 L41.6621 338.1543 Z"/></g><g style="fill:gray; text-rendering:optimizeLegibility; stroke:gray;"><line y2="342.75" style="fill:none; clip-path:url(#clipPath1);" x1="52" x2="54" y1="342.75"/><path style="fill:rgb(64,64,64); clip-path:url(#clipPath1); stroke:none;" d="M34.2148 250.6543 L36.1523 250.6543 L36.1523 243.9824 L34.043 244.4043 L34.043 243.3262 L36.1367 242.9043 L37.3242 242.9043 L37.3242 250.6543 L39.2617 250.6543 L39.2617 251.6543 L34.2148 251.6543 L34.2148 250.6543 ZM44.1777 243.6855 Q43.2715 243.6855 42.8105 244.584 Q42.3496 245.4824 42.3496 247.2949 Q42.3496 249.0918 42.8105 249.9902 Q43.2715 250.8887 44.1777 250.8887 Q45.0996 250.8887 45.5605 249.9902 Q46.0215 249.0918 46.0215 247.2949 Q46.0215 245.4824 45.5605 244.584 Q45.0996 243.6855 44.1777 243.6855 ZM44.1777 242.748 Q45.6465 242.748 46.4277 243.9121 Q47.209 245.0762 47.209 247.2949 Q47.209 249.498 46.4277 250.6621 Q45.6465 251.8262 44.1777 251.8262 Q42.709 251.8262 41.9355 250.6621 Q41.1621 249.498 41.1621 247.2949 Q41.1621 245.0762 41.9355 243.9121 Q42.709 242.748 44.1777 242.748 Z"/></g><g style="fill:gray; text-rendering:optimizeLegibility; stroke:gray;"><line y2="247.5" style="fill:none; clip-path:url(#clipPath1);" x1="52" x2="54" y1="247.5"/><path style="fill:rgb(64,64,64); clip-path:url(#clipPath1); stroke:none;" d="M34.2148 155.4043 L36.1523 155.4043 L36.1523 148.7324 L34.043 149.1543 L34.043 148.0762 L36.1367 147.6543 L37.3242 147.6543 L37.3242 155.4043 L39.2617 155.4043 L39.2617 156.4043 L34.2148 156.4043 L34.2148 155.4043 ZM41.6621 147.6543 L46.3027 147.6543 L46.3027 148.6543 L42.7402 148.6543 L42.7402 150.7949 Q43.0059 150.7012 43.2637 150.6621 Q43.5215 150.623 43.7715 150.623 Q45.2402 150.623 46.0996 151.4277 Q46.959 152.2324 46.959 153.5918 Q46.959 155.0137 46.0762 155.7949 Q45.1934 156.5762 43.5996 156.5762 Q43.0371 156.5762 42.4668 156.4824 Q41.8965 156.3887 41.2871 156.2012 L41.2871 155.0137 Q41.8184 155.2949 42.3809 155.4355 Q42.9434 155.5762 43.5684 155.5762 Q44.584 155.5762 45.1777 155.0449 Q45.7715 154.5137 45.7715 153.5918 Q45.7715 152.6855 45.1777 152.1543 Q44.584 151.623 43.5684 151.623 Q43.0996 151.623 42.623 151.7246 Q42.1465 151.8262 41.6621 152.0449 L41.6621 147.6543 Z"/></g><g style="fill:gray; text-rendering:optimizeLegibility; stroke:gray;"><line y2="152.25" style="fill:none; clip-path:url(#clipPath1);" x1="52" x2="54" y1="152.25"/><path style="fill:rgb(64,64,64); clip-path:url(#clipPath1); stroke:none;" d="M35.0273 60.1543 L39.168 60.1543 L39.168 61.1543 L33.6055 61.1543 L33.6055 60.1543 Q34.2773 59.4668 35.4414 58.2871 Q36.6055 57.1074 36.9023 56.7637 Q37.4805 56.1387 37.707 55.6934 Q37.9336 55.248 37.9336 54.8262 Q37.9336 54.123 37.4414 53.6855 Q36.9492 53.248 36.168 53.248 Q35.6055 53.248 34.9883 53.4355 Q34.3711 53.623 33.668 54.0293 L33.668 52.8262 Q34.3867 52.5449 35.0039 52.3965 Q35.6211 52.248 36.1367 52.248 Q37.4961 52.248 38.3086 52.9277 Q39.1211 53.6074 39.1211 54.748 Q39.1211 55.2793 38.918 55.7637 Q38.7148 56.248 38.1836 56.9043 Q38.0273 57.0762 37.2461 57.8887 Q36.4648 58.7012 35.0273 60.1543 ZM44.1777 53.1855 Q43.2715 53.1855 42.8105 54.084 Q42.3496 54.9824 42.3496 56.7949 Q42.3496 58.5918 42.8105 59.4902 Q43.2715 60.3887 44.1777 60.3887 Q45.0996 60.3887 45.5605 59.4902 Q46.0215 58.5918 46.0215 56.7949 Q46.0215 54.9824 45.5605 54.084 Q45.0996 53.1855 44.1777 53.1855 ZM44.1777 52.248 Q45.6465 52.248 46.4277 53.4121 Q47.209 54.5762 47.209 56.7949 Q47.209 58.998 46.4277 60.1621 Q45.6465 61.3262 44.1777 61.3262 Q42.709 61.3262 41.9355 60.1621 Q41.1621 58.998 41.1621 56.7949 Q41.1621 54.5762 41.9355 53.4121 Q42.709 52.248 44.1777 52.248 Z"/></g><g style="fill:gray; text-rendering:optimizeLegibility; stroke:gray;"><line y2="57" style="fill:none; clip-path:url(#clipPath1);" x1="52" x2="54" y1="57"/></g><g style="fill:rgb(64,64,64); text-rendering:optimizeLegibility; font-size:14; font-weight:bold; stroke:rgb(64,64,64);" transform="matrix(0,-1,1,0,-227.918,267.082)"><path style="clip-path:url(#clipPath2); stroke:none;" d="M-38.3472 248.1279 Q-38.8315 248.1279 -39.0972 248.5498 Q-39.3628 248.9717 -39.3628 249.7529 Q-39.3628 250.5342 -39.0972 250.9561 Q-38.8315 251.3779 -38.3472 251.3779 Q-37.8472 251.3779 -37.5894 250.9561 Q-37.3315 250.5342 -37.3315 249.7529 Q-37.3315 248.9717 -37.5972 248.5498 Q-37.8628 248.1279 -38.3472 248.1279 ZM-38.3472 246.9873 Q-37.0659 246.9873 -36.3394 247.7217 Q-35.6128 248.4561 -35.6128 249.7529 Q-35.6128 251.0498 -36.3394 251.7998 Q-37.0659 252.5498 -38.3472 252.5498 Q-39.6128 252.5498 -40.3472 251.7998 Q-41.0815 251.0498 -41.0815 249.7529 Q-41.0815 248.4717 -40.3472 247.7295 Q-39.6128 246.9873 -38.3472 246.9873 ZM-44.6128 252.5498 L-46.1284 252.5498 L-39.7378 241.9561 L-38.2222 241.9561 L-44.6128 252.5498 ZM-46.019 241.9561 Q-44.7378 241.9561 -44.0112 242.6982 Q-43.2847 243.4404 -43.2847 244.7373 Q-43.2847 246.0186 -44.0112 246.7686 Q-44.7378 247.5186 -46.019 247.5186 Q-47.2847 247.5186 -48.0112 246.7686 Q-48.7378 246.0186 -48.7378 244.7373 Q-48.7378 243.4404 -48.0112 242.6982 Q-47.2847 241.9561 -46.019 241.9561 ZM-46.019 243.0967 Q-46.5034 243.0967 -46.769 243.5264 Q-47.0347 243.9561 -47.0347 244.7373 Q-47.0347 245.5186 -46.769 245.9482 Q-46.5034 246.3779 -46.019 246.3779 Q-45.519 246.3779 -45.2534 245.9482 Q-44.9878 245.5186 -44.9878 244.7373 Q-44.9878 243.9561 -45.2534 243.5264 Q-45.519 243.0967 -46.019 243.0967 ZM-29.0083 242.1436 L-26.3677 242.1436 L-26.3677 250.3623 L-21.7583 250.3623 L-21.7583 252.3467 L-29.0083 252.3467 L-29.0083 242.1436 ZM-16.5562 246.2529 Q-17.3687 246.2529 -17.7905 246.8389 Q-18.2124 247.4248 -18.2124 248.5186 Q-18.2124 249.6279 -17.7905 250.2139 Q-17.3687 250.7998 -16.5562 250.7998 Q-15.7437 250.7998 -15.3218 250.2139 Q-14.8999 249.6279 -14.8999 248.5186 Q-14.8999 247.4248 -15.3218 246.8389 Q-15.7437 246.2529 -16.5562 246.2529 ZM-16.5562 244.5029 Q-14.5718 244.5029 -13.4624 245.5732 Q-12.353 246.6436 -12.353 248.5186 Q-12.353 250.4092 -13.4624 251.4795 Q-14.5718 252.5498 -16.5562 252.5498 Q-18.5249 252.5498 -19.6421 251.4795 Q-20.7593 250.4092 -20.7593 248.5186 Q-20.7593 246.6436 -19.6421 245.5732 Q-18.5249 244.5029 -16.5562 244.5029 ZM-7.1411 248.8936 Q-7.9067 248.8936 -8.2974 249.1592 Q-8.688 249.4248 -8.688 249.9248 Q-8.688 250.3936 -8.3755 250.6592 Q-8.063 250.9248 -7.5005 250.9248 Q-6.813 250.9248 -6.3442 250.4248 Q-5.8755 249.9248 -5.8755 249.1748 L-5.8755 248.8936 L-7.1411 248.8936 ZM-3.4067 247.9717 L-3.4067 252.3467 L-5.8755 252.3467 L-5.8755 251.2061 Q-6.3599 251.9092 -6.9771 252.2295 Q-7.5942 252.5498 -8.4692 252.5498 Q-9.6724 252.5498 -10.4067 251.8545 Q-11.1411 251.1592 -11.1411 250.0498 Q-11.1411 248.7061 -10.2192 248.0732 Q-9.2974 247.4404 -7.313 247.4404 L-5.8755 247.4404 L-5.8755 247.2529 Q-5.8755 246.6748 -6.3286 246.4014 Q-6.7817 246.1279 -7.7505 246.1279 Q-8.5474 246.1279 -9.2192 246.2842 Q-9.8911 246.4404 -10.4849 246.7686 L-10.4849 244.8936 Q-9.688 244.7061 -8.8989 244.6045 Q-8.1099 244.5029 -7.313 244.5029 Q-5.2349 244.5029 -4.3208 245.3232 Q-3.4067 246.1436 -3.4067 247.9717 ZM4.0874 245.8154 L4.0874 241.7061 L6.5405 241.7061 L6.5405 252.3467 L4.0874 252.3467 L4.0874 251.2373 Q3.5718 251.9092 2.9624 252.2295 Q2.353 252.5498 1.5562 252.5498 Q0.1499 252.5498 -0.7642 251.4248 Q-1.6782 250.2998 -1.6782 248.5186 Q-1.6782 246.7529 -0.7642 245.6279 Q0.1499 244.5029 1.5562 244.5029 Q2.353 244.5029 2.9624 244.8232 Q3.5718 245.1436 4.0874 245.8154 ZM2.4624 250.7686 Q3.2593 250.7686 3.6733 250.1904 Q4.0874 249.6123 4.0874 248.5186 Q4.0874 247.4248 3.6733 246.8545 Q3.2593 246.2842 2.4624 246.2842 Q1.6968 246.2842 1.2827 246.8545 Q0.8687 247.4248 0.8687 248.5186 Q0.8687 249.6123 1.2827 250.1904 Q1.6968 250.7686 2.4624 250.7686 ZM19.4517 246.7686 Q19.1392 246.6279 18.8188 246.5576 Q18.4985 246.4873 18.1704 246.4873 Q17.2329 246.4873 16.7251 247.0889 Q16.2173 247.6904 16.2173 248.8154 L16.2173 252.3467 L13.7642 252.3467 L13.7642 244.6904 L16.2173 244.6904 L16.2173 245.9404 Q16.686 245.1904 17.2954 244.8467 Q17.9048 244.5029 18.7642 244.5029 Q18.8892 244.5029 19.0298 244.5107 Q19.1704 244.5186 19.4517 244.5654 L19.4517 246.7686 ZM28.3091 248.5029 L28.3091 249.1904 L22.5903 249.1904 Q22.6841 250.0498 23.2153 250.4873 Q23.7466 250.9248 24.6997 250.9248 Q25.481 250.9248 26.2935 250.6904 Q27.106 250.4561 27.9497 249.9873 L27.9497 251.8779 Q27.0903 252.2061 26.2231 252.3779 Q25.356 252.5498 24.481 252.5498 Q22.4028 252.5498 21.2544 251.4873 Q20.106 250.4248 20.106 248.5186 Q20.106 246.6592 21.231 245.5811 Q22.356 244.5029 24.3403 244.5029 Q26.1528 244.5029 27.231 245.5889 Q28.3091 246.6748 28.3091 248.5029 ZM25.7935 247.6904 Q25.7935 246.9873 25.3872 246.5576 Q24.981 246.1279 24.3247 246.1279 Q23.6216 246.1279 23.1763 246.5264 Q22.731 246.9248 22.6216 247.6904 L25.7935 247.6904 ZM35.3823 245.8154 L35.3823 241.7061 L37.8354 241.7061 L37.8354 252.3467 L35.3823 252.3467 L35.3823 251.2373 Q34.8667 251.9092 34.2573 252.2295 Q33.6479 252.5498 32.8511 252.5498 Q31.4448 252.5498 30.5308 251.4248 Q29.6167 250.2998 29.6167 248.5186 Q29.6167 246.7529 30.5308 245.6279 Q31.4448 244.5029 32.8511 244.5029 Q33.6479 244.5029 34.2573 244.8232 Q34.8667 245.1436 35.3823 245.8154 ZM33.7573 250.7686 Q34.5542 250.7686 34.9683 250.1904 Q35.3823 249.6123 35.3823 248.5186 Q35.3823 247.4248 34.9683 246.8545 Q34.5542 246.2842 33.7573 246.2842 Q32.9917 246.2842 32.5776 246.8545 Q32.1636 247.4248 32.1636 248.5186 Q32.1636 249.6123 32.5776 250.1904 Q32.9917 250.7686 33.7573 250.7686 ZM40.1069 249.3623 L40.1069 244.6904 L42.5757 244.6904 L42.5757 245.4561 Q42.5757 246.0811 42.5679 247.0186 Q42.5601 247.9561 42.5601 248.2686 Q42.5601 249.1904 42.6069 249.5967 Q42.6538 250.0029 42.7632 250.1904 Q42.9194 250.4248 43.1616 250.5576 Q43.4038 250.6904 43.7163 250.6904 Q44.4819 250.6904 44.9194 250.1045 Q45.3569 249.5186 45.3569 248.4717 L45.3569 244.6904 L47.8101 244.6904 L47.8101 252.3467 L45.3569 252.3467 L45.3569 251.2373 Q44.8101 251.9092 44.1851 252.2295 Q43.5601 252.5498 42.8257 252.5498 Q41.4976 252.5498 40.8022 251.7373 Q40.1069 250.9248 40.1069 249.3623 ZM56.3394 244.9248 L56.3394 246.9248 Q55.8394 246.5811 55.3394 246.417 Q54.8394 246.2529 54.2925 246.2529 Q53.2769 246.2529 52.7065 246.8545 Q52.1362 247.4561 52.1362 248.5186 Q52.1362 249.5967 52.7065 250.1982 Q53.2769 250.7998 54.2925 250.7998 Q54.8706 250.7998 55.3862 250.6279 Q55.9019 250.4561 56.3394 250.1123 L56.3394 252.1279 Q55.7612 252.3311 55.1753 252.4404 Q54.5894 252.5498 53.9956 252.5498 Q51.9175 252.5498 50.7534 251.4873 Q49.5894 250.4248 49.5894 248.5186 Q49.5894 246.6279 50.7534 245.5654 Q51.9175 244.5029 53.9956 244.5029 Q54.5894 244.5029 55.1753 244.6123 Q55.7612 244.7217 56.3394 244.9248 ZM61.1226 242.5186 L61.1226 244.6904 L63.6538 244.6904 L63.6538 246.4404 L61.1226 246.4404 L61.1226 249.6904 Q61.1226 250.2217 61.3335 250.4092 Q61.5444 250.5967 62.1851 250.5967 L63.4351 250.5967 L63.4351 252.3467 L61.3413 252.3467 Q59.8882 252.3467 59.2866 251.7451 Q58.6851 251.1436 58.6851 249.6904 L58.6851 246.4404 L57.4663 246.4404 L57.4663 244.6904 L58.6851 244.6904 L58.6851 242.5186 L61.1226 242.5186 ZM65.1431 244.6904 L67.5962 244.6904 L67.5962 252.3467 L65.1431 252.3467 L65.1431 244.6904 ZM65.1431 241.7061 L67.5962 241.7061 L67.5962 243.7061 L65.1431 243.7061 L65.1431 241.7061 ZM73.5825 246.2529 Q72.77 246.2529 72.3481 246.8389 Q71.9263 247.4248 71.9263 248.5186 Q71.9263 249.6279 72.3481 250.2139 Q72.77 250.7998 73.5825 250.7998 Q74.395 250.7998 74.8169 250.2139 Q75.2388 249.6279 75.2388 248.5186 Q75.2388 247.4248 74.8169 246.8389 Q74.395 246.2529 73.5825 246.2529 ZM73.5825 244.5029 Q75.5669 244.5029 76.6763 245.5732 Q77.7856 246.6436 77.7856 248.5186 Q77.7856 250.4092 76.6763 251.4795 Q75.5669 252.5498 73.5825 252.5498 Q71.6138 252.5498 70.4966 251.4795 Q69.3794 250.4092 69.3794 248.5186 Q69.3794 246.6436 70.4966 245.5732 Q71.6138 244.5029 73.5825 244.5029 ZM87.2632 247.6904 L87.2632 252.3467 L84.7944 252.3467 L84.7944 251.5811 L84.7944 248.7842 Q84.7944 247.7842 84.7554 247.4092 Q84.7163 247.0342 84.6069 246.8623 Q84.4663 246.6123 84.2163 246.4795 Q83.9663 246.3467 83.6538 246.3467 Q82.8882 246.3467 82.4507 246.9404 Q82.0132 247.5342 82.0132 248.5811 L82.0132 252.3467 L79.5601 252.3467 L79.5601 244.6904 L82.0132 244.6904 L82.0132 245.8154 Q82.5601 245.1436 83.1851 244.8232 Q83.8101 244.5029 84.5601 244.5029 Q85.8882 244.5029 86.5757 245.3154 Q87.2632 246.1279 87.2632 247.6904 Z"/></g><g style="font-size:14; stroke-linecap:butt; fill:silver; text-rendering:optimizeLegibility; stroke-linejoin:bevel; stroke-dasharray:2,2; stroke:silver; font-weight:bold; stroke-width:0.5; stroke-miterlimit:0;"><line y2="438" style="fill:none; clip-path:url(#clipPath3);" x1="58" x2="738" y1="438"/><line y2="342.75" style="fill:none; clip-path:url(#clipPath3);" x1="58" x2="738" y1="342.75"/><line y2="247.5" style="fill:none; clip-path:url(#clipPath3);" x1="58" x2="738" y1="247.5"/><line y2="152.25" style="fill:none; clip-path:url(#clipPath3);" x1="58" x2="738" y1="152.25"/><line y2="57" style="fill:none; clip-path:url(#clipPath3);" x1="58" x2="738" y1="57"/><rect x="92" width="68" height="127.4211" y="310.5789" style="clip-path:url(#clipPath3); fill:blue; stroke:none;"/><rect x="182.6667" width="68" height="81.8603" y="356.1397" style="clip-path:url(#clipPath3); fill:blue; stroke:none;"/><rect x="273.3333" width="68" height="78.8714" y="359.1286" style="clip-path:url(#clipPath3); fill:blue; stroke:none;"/><rect x="364" width="68" height="153.5557" y="284.4443" style="clip-path:url(#clipPath3); fill:blue; stroke:none;"/><rect x="454.6667" width="68" height="244.6563" y="193.3437" style="clip-path:url(#clipPath3); fill:blue; stroke:none;"/><rect x="545.3333" width="68" height="38.4159" y="399.5841" style="clip-path:url(#clipPath3); fill:blue; stroke:none;"/><rect x="636" width="68" height="159.0064" y="278.9936" style="clip-path:url(#clipPath3); fill:blue; stroke:none;"/></g><g style="text-rendering:optimizeLegibility; stroke-width:0.5; font-size:14; font-weight:bold; stroke-linejoin:round; stroke-linecap:round;"><rect x="58" width="680" height="381" y="57" style="fill:none; clip-path:url(#clipPath1);"/></g></g></svg>