<?xml version="1.0" encoding="UTF-8"?><svg xmlns="http://www.w3.org/2000/svg" xmlns:xlink="http://www.w3.org/1999/xlink" contentScriptType="text/ecmascript" width="134" zoomAndPan="magnify" style="stroke-dasharray:none; shape-rendering:auto; font-family:'Dialog'; text-rendering:auto; fill-opacity:1; color-interpolation:auto; color-rendering:auto; font-size:12; fill:black; stroke:black; image-rendering:auto; stroke-miterlimit:10; stroke-linecap:square; stroke-linejoin:miter; font-style:normal; stroke-width:1; stroke-dashoffset:0; font-weight:normal; stroke-opacity:1;" contentStyleType="text/css" viewBox="0 0 134 170" height="170" preserveAspectRatio="xMidYMid meet" version="1.0"><!--Generated by the Batik Graphics2D SVG Generator--><defs id="genericDefs"/><g><defs id="defs1"><clipPath clipPathUnits="userSpaceOnUse" id="clipPath1"><path d="M0 0 L134 0 L134 170 L0 170 L0 0 Z"/></clipPath><clipPath clipPathUnits="userSpaceOnUse" id="clipPath2"><path d="M0 0 L0 170 L134 170 L134 0 Z"/></clipPath><clipPath clipPathUnits="userSpaceOnUse" id="clipPath3"><path d="M0 0 L0 148 L105 148 L105 0 Z"/></clipPath><clipPath clipPathUnits="userSpaceOnUse" id="clipPath4"><path d="M0 0 L0 117 L105 117 L105 0 Z"/></clipPath><clipPath clipPathUnits="userSpaceOnUse" id="clipPath5"><path d="M0 0 L0 105 L105 105 L105 0 Z"/></clipPath><clipPath clipPathUnits="userSpaceOnUse" id="clipPath6"><path d="M5 0 C2.2386 0 0 2.2386 0 5 L0 100 C0 102.7614 2.2386 105 5 105 L100 105 C102.7614 105 105 102.7614 105 100 L105 5 C105 2.2386 102.7614 0 100 0 Z"/></clipPath><clipPath clipPathUnits="userSpaceOnUse" id="clipPath7"><path d="M0 5 C0 2.2386 2.2386 0 5 0 L100 0 C102.7614 0 105 2.2386 105 5 L105 100 C105 102.7614 102.7614 105 100 105 L5 105 C2.2386 105 0 102.7614 0 100 Z"/></clipPath><clipPath clipPathUnits="userSpaceOnUse" id="clipPath8"><path d="M-1.2 1.2 C-1.2 -0.1255 -0.1255 -1.2 1.2 -1.2 L46.8 -1.2 C48.1255 -1.2 49.2 -0.1255 49.2 1.2 L49.2 46.8 C49.2 48.1255 48.1255 49.2 46.8 49.2 L1.2 49.2 C-0.1255 49.2 -1.2 48.1255 -1.2 46.8 Z"/></clipPath><clipPath clipPathUnits="userSpaceOnUse" id="clipPath9"><path d="M-42.2378 32.7908 C-42.2378 33.9303 -41.3141 34.854 -40.1746 34.854 L-0.9727 34.854 C0.1668 34.854 1.0905 33.9303 1.0905 32.7908 L1.0905 -6.4111 C1.0905 -7.5506 0.1668 -8.4744 -0.9727 -8.4744 L-40.1746 -8.4744 C-41.3141 -8.4744 -42.2378 -7.5506 -42.2378 -6.4111 Z"/></clipPath><clipPath clipPathUnits="userSpaceOnUse" id="clipPath10"><path d="M0 0 L0 31 L33 31 L33 0 Z"/></clipPath><clipPath clipPathUnits="userSpaceOnUse" id="clipPath11"><path d="M0 0 L0 19 L33 19 L33 0 Z"/></clipPath></defs><g style="fill:white; text-rendering:optimizeLegibility; font-size:11; font-family:'Liberation Sans'; stroke:white;"><rect x="0" width="134" height="170" y="0" style="clip-path:url(#clipPath2); stroke:none;"/></g><g style="fill:rgb(252,203,38); text-rendering:optimizeLegibility; font-size:11; font-family:'Liberation Sans'; stroke:rgb(252,203,38);" transform="translate(15,12)"><rect x="0" width="105" height="105" y="0" style="clip-path:url(#clipPath6); stroke:none;"/></g><g style="fill:white; text-rendering:optimizeLegibility; font-size:11; font-family:'Liberation Sans'; stroke:white;" transform="matrix(2.4234,0,0,-2.4234,117.3572,96.4636)"><path style="clip-path:url(#clipPath9); stroke:none;" d="M0 0 C-7.166 6.41 -19.559 5.944 -26.861 13.152 C-31.194 17.426 -32.236 22.998 -30.692 27.972 C-30.031 28.69 -29.293 28.614 -28.674 29.742 C-28.812 31.706 -32.339 33.985 -34.012 32.97 C-33.836 30.968 -33.094 28.255 -34.773 26.468 C-35.836 25.337 -36.888 25.976 -37.924 25.056 C-40.872 22.444 -41.293 16.084 -41.015 13.62 C-39.936 4.043 -28.42 -3.842 -18.842 -5.955 C-14.21 -6.977 -8.875 -7.551 -5.791 -6.377 C-2.949 -5.295 0.578 -2.613 0 0 M-33.639 32.38 C-32.487 33.084 -29.083 31.235 -29.605 29.649 C-31.089 28.831 -32.691 31.339 -33.639 32.38 M-37.071 24.359 C-36.809 24.353 -36.558 24.457 -36.31 24.59 C-36.135 24.346 -36.288 24.071 -36.078 23.831 C-41.219 15.987 -38.407 7.833 -31.814 1.527 C-40.821 8.415 -40.601 16.22 -37.071 24.359 M-7.822 -0.154 C-9.768 5.586 -17.602 3.721 -23.51 7.842 C-27.243 10.447 -29.43 12.928 -31.237 16.163 C-31.297 16.835 -30.992 17.545 -31.283 18.196 C-31.092 18.363 -31.035 18.151 -31.113 18.056 C-25.946 6.501 -10.27 6.325 -1.613 0.467 C-2.928 -2.195 -5.793 0.244 -7.822 -0.154"/></g><g style="text-rendering:optimizeLegibility; font-size:16; font-family:'Liberation Sans';" transform="translate(51,129)"><path style="clip-path:url(#clipPath11); stroke:none;" d="M0.5625 14.4844 L0.5625 12.9531 Q0.9375 12.1406 1.4766 11.4766 Q2.0156 10.8125 2.6016 10.2656 Q3.1875 9.7188 3.7734 9.2422 Q4.3594 8.7656 4.8203 8.3281 Q5.2812 7.8906 5.5703 7.4453 Q5.8594 7 5.8594 6.5 Q5.8594 5.7656 5.4922 5.4141 Q5.125 5.0625 4.4219 5.0625 Q3.7188 5.0625 3.3438 5.4375 Q2.9688 5.8125 2.8594 6.5781 L0.6562 6.4531 Q0.7344 5.7969 0.9766 5.2266 Q1.2188 4.6562 1.6641 4.2266 Q2.1094 3.7969 2.7891 3.5547 Q3.4688 3.3125 4.4062 3.3125 Q5.2969 3.3125 5.9844 3.5156 Q6.6719 3.7188 7.1406 4.1172 Q7.6094 4.5156 7.8516 5.0938 Q8.0938 5.6719 8.0938 6.4062 Q8.0938 7.1719 7.7891 7.7969 Q7.4844 8.4219 7.0078 8.9531 Q6.5312 9.4844 5.9453 9.9453 Q5.3594 10.4062 4.8125 10.8438 Q4.2656 11.2812 3.8203 11.7266 Q3.375 12.1719 3.1562 12.6719 L8.2656 12.6719 L8.2656 14.4844 L0.5625 14.4844 ZM16.2422 12.2344 L16.2422 14.4844 L14.1484 14.4844 L14.1484 12.2344 L9.1484 12.2344 L9.1484 10.5938 L13.7891 3.4688 L16.2422 3.4688 L16.2422 10.6094 L17.7109 10.6094 L17.7109 12.2344 L16.2422 12.2344 ZM14.1484 7 Q14.1484 6.875 14.1562 6.6562 Q14.1641 6.4375 14.1719 6.2109 Q14.1797 5.9844 14.1953 5.7812 Q14.2109 5.5781 14.2266 5.4531 Q14.1797 5.5469 14.0938 5.7031 Q14.0078 5.8594 13.9062 6.0469 Q13.8047 6.2344 13.6875 6.4141 Q13.5703 6.5938 13.4922 6.7188 L10.9297 10.6094 L14.1484 10.6094 L14.1484 7 ZM31.6094 11.1094 Q31.6094 12.0781 31.3906 12.75 Q31.1719 13.4219 30.7969 13.8359 Q30.4219 14.25 29.9141 14.4297 Q29.4062 14.6094 28.8438 14.6094 Q28.25 14.6094 27.75 14.4297 Q27.25 14.25 26.875 13.8359 Q26.5 13.4219 26.2891 12.75 Q26.0781 12.0781 26.0781 11.1094 Q26.0781 10.0781 26.2891 9.3984 Q26.5 8.7188 26.875 8.3203 Q27.25 7.9219 27.7656 7.7578 Q28.2812 7.5938 28.875 7.5938 Q29.4375 7.5938 29.9375 7.7578 Q30.4375 7.9219 30.8047 8.3203 Q31.1719 8.7188 31.3906 9.3984 Q31.6094 10.0781 31.6094 11.1094 ZM22.1094 14.4844 L20.5 14.4844 L27.6875 3.4688 L29.3281 3.4688 L22.1094 14.4844 ZM20.9844 3.3438 Q21.5469 3.3438 22.0469 3.5078 Q22.5469 3.6719 22.9219 4.0703 Q23.2969 4.4688 23.5156 5.1406 Q23.7344 5.8125 23.7344 6.8438 Q23.7344 7.8281 23.5156 8.5 Q23.2969 9.1719 22.9219 9.5859 Q22.5469 10 22.0391 10.1797 Q21.5312 10.3594 20.9531 10.3594 Q20.375 10.3594 19.875 10.1797 Q19.375 10 19 9.5859 Q18.625 9.1719 18.4141 8.5 Q18.2031 7.8281 18.2031 6.8438 Q18.2031 5.8125 18.4141 5.1406 Q18.625 4.4688 19 4.0703 Q19.375 3.6719 19.8828 3.5078 Q20.3906 3.3438 20.9844 3.3438 ZM29.9219 11.1094 Q29.9219 10.4219 29.8594 9.9766 Q29.7969 9.5312 29.6641 9.2734 Q29.5312 9.0156 29.3359 8.9062 Q29.1406 8.7969 28.875 8.7969 Q28.5781 8.7969 28.375 8.9062 Q28.1719 9.0156 28.0391 9.2812 Q27.9062 9.5469 27.8359 9.9922 Q27.7656 10.4375 27.7656 11.1094 Q27.7656 11.7656 27.8281 12.1953 Q27.8906 12.625 28.0312 12.8906 Q28.1719 13.1562 28.375 13.2656 Q28.5781 13.375 28.8594 13.375 Q29.1094 13.375 29.3125 13.2656 Q29.5156 13.1562 29.6484 12.8984 Q29.7812 12.6406 29.8516 12.2031 Q29.9219 11.7656 29.9219 11.1094 ZM22.0469 6.8438 Q22.0469 6.1719 21.9766 5.7344 Q21.9062 5.2969 21.7734 5.0312 Q21.6406 4.7656 21.4453 4.6641 Q21.25 4.5625 20.9844 4.5625 Q20.7031 4.5625 20.4922 4.6719 Q20.2812 4.7812 20.1484 5.0391 Q20.0156 5.2969 19.9453 5.7422 Q19.875 6.1875 19.875 6.8438 Q19.875 7.5 19.9453 7.9375 Q20.0156 8.375 20.1484 8.6406 Q20.2812 8.9062 20.4844 9.0234 Q20.6875 9.1406 20.9688 9.1406 Q21.2344 9.1406 21.4375 9.0312 Q21.6406 8.9219 21.7734 8.6562 Q21.9062 8.3906 21.9766 7.9453 Q22.0469 7.5 22.0469 6.8438 Z"/></g></g></svg>