<?xml version="1.0" encoding="UTF-8"?><svg xmlns="http://www.w3.org/2000/svg" xmlns:xlink="http://www.w3.org/1999/xlink" contentScriptType="text/ecmascript" width="750" zoomAndPan="magnify" style="stroke-dasharray:none; shape-rendering:auto; font-family:'Dialog'; text-rendering:auto; fill-opacity:1; color-interpolation:auto; color-rendering:auto; font-size:12; fill:black; stroke:black; image-rendering:auto; stroke-miterlimit:10; stroke-linecap:square; stroke-linejoin:miter; font-style:normal; stroke-width:1; stroke-dashoffset:0; font-weight:normal; stroke-opacity:1;" contentStyleType="text/css" viewBox="0 0 750 500" height="500" preserveAspectRatio="xMidYMid meet" version="1.0"><!--Generated by the Batik Graphics2D SVG Generator--><defs id="genericDefs"/><g><defs id="defs1"><linearGradient x1="403.5" xmlns:xlink="http://www.w3.org/1999/xlink" gradientUnits="userSpaceOnUse" y1="451" x2="403.5" y2="30" xlink:type="simple" xlink:actuate="onLoad" id="linearGradient1" xlink:show="other" spreadMethod="pad"><stop offset="0%" style="stop-opacity:1; stop-color:white;"/><stop offset="100%" style="stop-opacity:1; stop-color:rgb(227,246,253);"/></linearGradient><clipPath clipPathUnits="userSpaceOnUse" id="clipPath1"><path d="M0 0 L750 0 L750 500 L0 500 L0 0 Z"/></clipPath><clipPath clipPathUnits="userSpaceOnUse" id="clipPath2"><path d="M259.6797 221.3203 L259.6797 971.3203 L-240.3203 971.3203 L-240.3203 221.3203 L259.6797 221.3203 Z"/></clipPath><clipPath clipPathUnits="userSpaceOnUse" id="clipPath3"><path d="M65 30 L65 451 L742 451 L742 30 Z"/></clipPath><clipPath clipPathUnits="userSpaceOnUse" id="clipPath4"><path d="M63 28 L63 449 L740 449 L740 28 Z"/></clipPath></defs><g style="fill:white; text-rendering:optimizeLegibility; font-size:11; font-family:'Liberation Sans'; stroke:white;"><rect x="0" width="750" height="500" y="0" style="clip-path:url(#clipPath1); stroke:none;"/></g><g style="font-weight:bold; font-size:20; text-rendering:optimizeLegibility;"><path style="clip-path:url(#clipPath1); stroke:none;" d="M333.3125 5.4395 L333.3125 8.5332 Q332.1094 7.9863 330.9688 7.7129 Q329.8281 7.4395 328.8125 7.4395 Q327.4688 7.4395 326.8203 7.8145 Q326.1719 8.1895 326.1719 8.9707 Q326.1719 9.5488 326.6094 9.877 Q327.0469 10.2051 328.1875 10.4395 L329.7812 10.7676 Q332.2188 11.252 333.2422 12.252 Q334.2656 13.252 334.2656 15.0801 Q334.2656 17.4863 332.8359 18.666 Q331.4062 19.8457 328.4688 19.8457 Q327.0781 19.8457 325.6797 19.5801 Q324.2812 19.3145 322.8906 18.7988 L322.8906 15.627 Q324.2812 16.377 325.5859 16.752 Q326.8906 17.127 328.1094 17.127 Q329.3438 17.127 329.9922 16.7129 Q330.6406 16.2988 330.6406 15.5332 Q330.6406 14.8613 330.1953 14.4863 Q329.75 14.1113 328.4219 13.8145 L326.9688 13.502 Q324.7812 13.0332 323.7734 12.0098 Q322.7656 10.9863 322.7656 9.2363 Q322.7656 7.0645 324.1719 5.8926 Q325.5781 4.7207 328.2188 4.7207 Q329.4219 4.7207 330.6875 4.9004 Q331.9531 5.0801 333.3125 5.4395 ZM348.3262 14.0645 L348.3262 15.0645 L340.1543 15.0645 Q340.2793 16.2988 341.0449 16.9082 Q341.8105 17.5176 343.1699 17.5176 Q344.2793 17.5176 345.4355 17.1895 Q346.5918 16.8613 347.8105 16.2051 L347.8105 18.8926 Q346.5762 19.3613 345.334 19.6035 Q344.0918 19.8457 342.8574 19.8457 Q339.8887 19.8457 338.2402 18.3379 Q336.5918 16.8301 336.5918 14.1113 Q336.5918 11.4238 338.209 9.8926 Q339.8262 8.3613 342.6543 8.3613 Q345.2324 8.3613 346.7793 9.916 Q348.3262 11.4707 348.3262 14.0645 ZM344.7324 12.9082 Q344.7324 11.9082 344.1543 11.2988 Q343.5762 10.6895 342.6387 10.6895 Q341.623 10.6895 340.9902 11.2598 Q340.3574 11.8301 340.2012 12.9082 L344.7324 12.9082 ZM358.4219 10.2207 L358.4219 4.3613 L361.9375 4.3613 L361.9375 19.5645 L358.4219 19.5645 L358.4219 17.9863 Q357.7031 18.9551 356.8281 19.4004 Q355.9531 19.8457 354.8125 19.8457 Q352.7969 19.8457 351.5 18.2363 Q350.2031 16.627 350.2031 14.1113 Q350.2031 11.5801 351.5 9.9707 Q352.7969 8.3613 354.8125 8.3613 Q355.9531 8.3613 356.8281 8.8145 Q357.7031 9.2676 358.4219 10.2207 ZM356.1094 17.3145 Q357.2344 17.3145 357.8281 16.4941 Q358.4219 15.6738 358.4219 14.1113 Q358.4219 12.5488 357.8281 11.7285 Q357.2344 10.9082 356.1094 10.9082 Q355 10.9082 354.4062 11.7285 Q353.8125 12.5488 353.8125 14.1113 Q353.8125 15.6738 354.4062 16.4941 Q355 17.3145 356.1094 17.3145 ZM365.3008 8.627 L368.7852 8.627 L368.7852 19.5645 L365.3008 19.5645 L365.3008 8.627 ZM365.3008 4.3613 L368.7852 4.3613 L368.7852 7.2207 L365.3008 7.2207 L365.3008 4.3613 ZM382.2812 10.4395 Q382.9531 9.4238 383.8672 8.8926 Q384.7812 8.3613 385.875 8.3613 Q387.75 8.3613 388.7422 9.5254 Q389.7344 10.6895 389.7344 12.9082 L389.7344 19.5645 L386.2188 19.5645 L386.2188 13.8613 Q386.2188 13.7363 386.2266 13.5957 Q386.2344 13.4551 386.2344 13.2051 Q386.2344 12.0488 385.8906 11.5254 Q385.5469 11.002 384.7812 11.002 Q383.7969 11.002 383.25 11.8223 Q382.7031 12.6426 382.6875 14.1895 L382.6875 19.5645 L379.1719 19.5645 L379.1719 13.8613 Q379.1719 12.0488 378.8594 11.5254 Q378.5469 11.002 377.75 11.002 Q376.7344 11.002 376.1875 11.8223 Q375.6406 12.6426 375.6406 14.1895 L375.6406 19.5645 L372.125 19.5645 L372.125 8.627 L375.6406 8.627 L375.6406 10.2207 Q376.2969 9.2988 377.125 8.8301 Q377.9531 8.3613 378.9688 8.3613 Q380.0938 8.3613 380.9688 8.9082 Q381.8438 9.4551 382.2812 10.4395 ZM403.9023 14.0645 L403.9023 15.0645 L395.7305 15.0645 Q395.8555 16.2988 396.6211 16.9082 Q397.3867 17.5176 398.7461 17.5176 Q399.8555 17.5176 401.0117 17.1895 Q402.168 16.8613 403.3867 16.2051 L403.3867 18.8926 Q402.1523 19.3613 400.9102 19.6035 Q399.668 19.8457 398.4336 19.8457 Q395.4648 19.8457 393.8164 18.3379 Q392.168 16.8301 392.168 14.1113 Q392.168 11.4238 393.7852 9.8926 Q395.4023 8.3613 398.2305 8.3613 Q400.8086 8.3613 402.3555 9.916 Q403.9023 11.4707 403.9023 14.0645 ZM400.3086 12.9082 Q400.3086 11.9082 399.7305 11.2988 Q399.1523 10.6895 398.2148 10.6895 Q397.1992 10.6895 396.5664 11.2598 Q395.9336 11.8301 395.7773 12.9082 L400.3086 12.9082 ZM417.5449 12.9082 L417.5449 19.5645 L414.0293 19.5645 L414.0293 18.4863 L414.0293 14.4707 Q414.0293 13.0488 413.9668 12.5098 Q413.9043 11.9707 413.748 11.7207 Q413.5449 11.377 413.1934 11.1895 Q412.8418 11.002 412.3887 11.002 Q411.2949 11.002 410.6699 11.8457 Q410.0449 12.6895 410.0449 14.1895 L410.0449 19.5645 L406.5605 19.5645 L406.5605 8.627 L410.0449 8.627 L410.0449 10.2207 Q410.8418 9.2676 411.7324 8.8145 Q412.623 8.3613 413.6855 8.3613 Q415.5918 8.3613 416.5684 9.5254 Q417.5449 10.6895 417.5449 12.9082 ZM424.6113 5.5176 L424.6113 8.627 L428.2207 8.627 L428.2207 11.127 L424.6113 11.127 L424.6113 15.7676 Q424.6113 16.5332 424.916 16.7988 Q425.2207 17.0645 426.1113 17.0645 L427.9082 17.0645 L427.9082 19.5645 L424.9082 19.5645 Q422.8457 19.5645 421.9785 18.6973 Q421.1113 17.8301 421.1113 15.7676 L421.1113 11.127 L419.377 11.127 L419.377 8.627 L421.1113 8.627 L421.1113 5.5176 L424.6113 5.5176 Z"/></g><g style="fill:url(#linearGradient1); text-rendering:optimizeLegibility; stroke:url(#linearGradient1);"><rect x="65" width="677" height="421" y="30" style="clip-path:url(#clipPath1); stroke:none;"/><line y2="451" style="clip-path:url(#clipPath1); fill:none; stroke:gray;" x1="65" x2="742" y1="451"/><path style="fill:rgb(64,64,64); clip-path:url(#clipPath1); stroke:none;" d="M115.8328 465.1387 L119.9734 465.1387 L119.9734 466.1387 L114.4109 466.1387 L114.4109 465.1387 Q115.0828 464.4512 116.2468 463.2715 Q117.4109 462.0918 117.7078 461.748 Q118.2859 461.123 118.5125 460.6777 Q118.739 460.2324 118.739 459.8105 Q118.739 459.1074 118.2468 458.6699 Q117.7547 458.2324 116.9734 458.2324 Q116.4109 458.2324 115.7937 458.4199 Q115.1765 458.6074 114.4734 459.0137 L114.4734 457.8105 Q115.1922 457.5293 115.8093 457.3809 Q116.4265 457.2324 116.9422 457.2324 Q118.3015 457.2324 119.114 457.9121 Q119.9265 458.5918 119.9265 459.7324 Q119.9265 460.2637 119.7234 460.748 Q119.5203 461.2324 118.989 461.8887 Q118.8328 462.0605 118.0515 462.873 Q117.2703 463.6855 115.8328 465.1387 ZM124.9832 458.1699 Q124.0769 458.1699 123.616 459.0684 Q123.155 459.9668 123.155 461.7793 Q123.155 463.5762 123.616 464.4746 Q124.0769 465.373 124.9832 465.373 Q125.905 465.373 126.366 464.4746 Q126.8269 463.5762 126.8269 461.7793 Q126.8269 459.9668 126.366 459.0684 Q125.905 458.1699 124.9832 458.1699 ZM124.9832 457.2324 Q126.4519 457.2324 127.2332 458.3965 Q128.0144 459.5605 128.0144 461.7793 Q128.0144 463.9824 127.2332 465.1465 Q126.4519 466.3105 124.9832 466.3105 Q123.5144 466.3105 122.741 465.1465 Q121.9675 463.9824 121.9675 461.7793 Q121.9675 459.5605 122.741 458.3965 Q123.5144 457.2324 124.9832 457.2324 ZM132.6179 458.1699 Q131.7117 458.1699 131.2507 459.0684 Q130.7898 459.9668 130.7898 461.7793 Q130.7898 463.5762 131.2507 464.4746 Q131.7117 465.373 132.6179 465.373 Q133.5398 465.373 134.0007 464.4746 Q134.4617 463.5762 134.4617 461.7793 Q134.4617 459.9668 134.0007 459.0684 Q133.5398 458.1699 132.6179 458.1699 ZM132.6179 457.2324 Q134.0867 457.2324 134.8679 458.3965 Q135.6492 459.5605 135.6492 461.7793 Q135.6492 463.9824 134.8679 465.1465 Q134.0867 466.3105 132.6179 466.3105 Q131.1492 466.3105 130.3757 465.1465 Q129.6023 463.9824 129.6023 461.7793 Q129.6023 459.5605 130.3757 458.3965 Q131.1492 457.2324 132.6179 457.2324 ZM140.2527 461.9824 Q139.409 461.9824 138.9246 462.4355 Q138.4402 462.8887 138.4402 463.6699 Q138.4402 464.4668 138.9246 464.9199 Q139.409 465.373 140.2527 465.373 Q141.0965 465.373 141.5808 464.9199 Q142.0652 464.4668 142.0652 463.6699 Q142.0652 462.8887 141.5886 462.4355 Q141.1121 461.9824 140.2527 461.9824 ZM139.0652 461.4824 Q138.3152 461.2949 137.8855 460.7715 Q137.4558 460.248 137.4558 459.498 Q137.4558 458.4512 138.2058 457.8418 Q138.9558 457.2324 140.2527 457.2324 Q141.5652 457.2324 142.3074 457.8418 Q143.0496 458.4512 143.0496 459.498 Q143.0496 460.248 142.6277 460.7715 Q142.2058 461.2949 141.4402 461.4824 Q142.2996 461.6855 142.7761 462.2637 Q143.2527 462.8418 143.2527 463.6699 Q143.2527 464.9512 142.4793 465.6309 Q141.7058 466.3105 140.2527 466.3105 Q138.8152 466.3105 138.034 465.6309 Q137.2527 464.9512 137.2527 463.6699 Q137.2527 462.8418 137.7371 462.2637 Q138.2215 461.6855 139.0652 461.4824 ZM138.6433 459.6074 Q138.6433 460.2949 139.0652 460.6699 Q139.4871 461.0449 140.2527 461.0449 Q141.0183 461.0449 141.448 460.6699 Q141.8777 460.2949 141.8777 459.6074 Q141.8777 458.9355 141.448 458.5527 Q141.0183 458.1699 140.2527 458.1699 Q139.4871 458.1699 139.0652 458.5527 Q138.6433 458.9355 138.6433 459.6074 ZM144.6687 462.373 L147.825 462.373 L147.825 463.3262 L144.6687 463.3262 L144.6687 462.373 ZM150.7019 465.1387 L154.8425 465.1387 L154.8425 466.1387 L149.28 466.1387 L149.28 465.1387 Q149.9519 464.4512 151.116 463.2715 Q152.28 462.0918 152.5769 461.748 Q153.155 461.123 153.3816 460.6777 Q153.6082 460.2324 153.6082 459.8105 Q153.6082 459.1074 153.116 458.6699 Q152.6238 458.2324 151.8425 458.2324 Q151.28 458.2324 150.6629 458.4199 Q150.0457 458.6074 149.3425 459.0137 L149.3425 457.8105 Q150.0613 457.5293 150.6785 457.3809 Q151.2957 457.2324 151.8113 457.2324 Q153.1707 457.2324 153.9832 457.9121 Q154.7957 458.5918 154.7957 459.7324 Q154.7957 460.2637 154.5925 460.748 Q154.3894 461.2324 153.8582 461.8887 Q153.7019 462.0605 152.9207 462.873 Q152.1394 463.6855 150.7019 465.1387 ZM159.8523 458.1699 Q158.9461 458.1699 158.4851 459.0684 Q158.0242 459.9668 158.0242 461.7793 Q158.0242 463.5762 158.4851 464.4746 Q158.9461 465.373 159.8523 465.373 Q160.7742 465.373 161.2351 464.4746 Q161.6961 463.5762 161.6961 461.7793 Q161.6961 459.9668 161.2351 459.0684 Q160.7742 458.1699 159.8523 458.1699 ZM159.8523 457.2324 Q161.3211 457.2324 162.1023 458.3965 Q162.8836 459.5605 162.8836 461.7793 Q162.8836 463.9824 162.1023 465.1465 Q161.3211 466.3105 159.8523 466.3105 Q158.3836 466.3105 157.6101 465.1465 Q156.8367 463.9824 156.8367 461.7793 Q156.8367 459.5605 157.6101 458.3965 Q158.3836 457.2324 159.8523 457.2324 ZM167.4871 458.1699 Q166.5808 458.1699 166.1199 459.0684 Q165.659 459.9668 165.659 461.7793 Q165.659 463.5762 166.1199 464.4746 Q166.5808 465.373 167.4871 465.373 Q168.409 465.373 168.8699 464.4746 Q169.3308 463.5762 169.3308 461.7793 Q169.3308 459.9668 168.8699 459.0684 Q168.409 458.1699 167.4871 458.1699 ZM167.4871 457.2324 Q168.9558 457.2324 169.7371 458.3965 Q170.5183 459.5605 170.5183 461.7793 Q170.5183 463.9824 169.7371 465.1465 Q168.9558 466.3105 167.4871 466.3105 Q166.0183 466.3105 165.2449 465.1465 Q164.4715 463.9824 164.4715 461.7793 Q164.4715 459.5605 165.2449 458.3965 Q166.0183 457.2324 167.4871 457.2324 ZM172.6218 465.9512 L172.6218 464.873 Q173.075 465.0918 173.5281 465.2012 Q173.9812 465.3105 174.4343 465.3105 Q175.6062 465.3105 176.2234 464.5215 Q176.8406 463.7324 176.9187 462.123 Q176.5906 462.6387 176.0672 462.9043 Q175.5437 463.1699 174.9031 463.1699 Q173.5906 463.1699 172.825 462.3809 Q172.0593 461.5918 172.0593 460.2012 Q172.0593 458.8574 172.8562 458.0449 Q173.6531 457.2324 174.9812 457.2324 Q176.4968 457.2324 177.3015 458.3965 Q178.1062 459.5605 178.1062 461.7793 Q178.1062 463.8418 177.1218 465.0762 Q176.1375 466.3105 174.4812 466.3105 Q174.0281 466.3105 173.575 466.2246 Q173.1218 466.1387 172.6218 465.9512 ZM174.9812 462.248 Q175.7781 462.248 176.2468 461.7012 Q176.7156 461.1543 176.7156 460.2012 Q176.7156 459.2637 176.2468 458.7168 Q175.7781 458.1699 174.9812 458.1699 Q174.1843 458.1699 173.7234 458.7168 Q173.2625 459.2637 173.2625 460.2012 Q173.2625 461.1543 173.7234 461.7012 Q174.1843 462.248 174.9812 462.248 Z"/></g><g style="fill:rgb(64,64,64); text-rendering:optimizeLegibility; stroke:rgb(64,64,64);"><path style="clip-path:url(#clipPath1); stroke:none;" d="M244.4628 465.1387 L248.6034 465.1387 L248.6034 466.1387 L243.0409 466.1387 L243.0409 465.1387 Q243.7128 464.4512 244.8768 463.2715 Q246.0409 462.0918 246.3378 461.748 Q246.9159 461.123 247.1425 460.6777 Q247.369 460.2324 247.369 459.8105 Q247.369 459.1074 246.8768 458.6699 Q246.3846 458.2324 245.6034 458.2324 Q245.0409 458.2324 244.4237 458.4199 Q243.8065 458.6074 243.1034 459.0137 L243.1034 457.8105 Q243.8221 457.5293 244.4393 457.3809 Q245.0565 457.2324 245.5721 457.2324 Q246.9315 457.2324 247.744 457.9121 Q248.5565 458.5918 248.5565 459.7324 Q248.5565 460.2637 248.3534 460.748 Q248.1503 461.2324 247.619 461.8887 Q247.4628 462.0605 246.6815 462.873 Q245.9003 463.6855 244.4628 465.1387 ZM253.6132 458.1699 Q252.7069 458.1699 252.246 459.0684 Q251.785 459.9668 251.785 461.7793 Q251.785 463.5762 252.246 464.4746 Q252.7069 465.373 253.6132 465.373 Q254.535 465.373 254.996 464.4746 Q255.4569 463.5762 255.4569 461.7793 Q255.4569 459.9668 254.996 459.0684 Q254.535 458.1699 253.6132 458.1699 ZM253.6132 457.2324 Q255.0819 457.2324 255.8632 458.3965 Q256.6444 459.5605 256.6444 461.7793 Q256.6444 463.9824 255.8632 465.1465 Q255.0819 466.3105 253.6132 466.3105 Q252.1444 466.3105 251.371 465.1465 Q250.5975 463.9824 250.5975 461.7793 Q250.5975 459.5605 251.371 458.3965 Q252.1444 457.2324 253.6132 457.2324 ZM261.2479 458.1699 Q260.3417 458.1699 259.8807 459.0684 Q259.4198 459.9668 259.4198 461.7793 Q259.4198 463.5762 259.8807 464.4746 Q260.3417 465.373 261.2479 465.373 Q262.1698 465.373 262.6307 464.4746 Q263.0917 463.5762 263.0917 461.7793 Q263.0917 459.9668 262.6307 459.0684 Q262.1698 458.1699 261.2479 458.1699 ZM261.2479 457.2324 Q262.7167 457.2324 263.4979 458.3965 Q264.2792 459.5605 264.2792 461.7793 Q264.2792 463.9824 263.4979 465.1465 Q262.7167 466.3105 261.2479 466.3105 Q259.7792 466.3105 259.0057 465.1465 Q258.2323 463.9824 258.2323 461.7793 Q258.2323 459.5605 259.0057 458.3965 Q259.7792 457.2324 261.2479 457.2324 ZM266.3827 465.9512 L266.3827 464.873 Q266.8358 465.0918 267.2889 465.2012 Q267.7421 465.3105 268.1952 465.3105 Q269.3671 465.3105 269.9843 464.5215 Q270.6014 463.7324 270.6796 462.123 Q270.3514 462.6387 269.828 462.9043 Q269.3046 463.1699 268.6639 463.1699 Q267.3514 463.1699 266.5858 462.3809 Q265.8202 461.5918 265.8202 460.2012 Q265.8202 458.8574 266.6171 458.0449 Q267.4139 457.2324 268.7421 457.2324 Q270.2577 457.2324 271.0624 458.3965 Q271.8671 459.5605 271.8671 461.7793 Q271.8671 463.8418 270.8827 465.0762 Q269.8983 466.3105 268.2421 466.3105 Q267.7889 466.3105 267.3358 466.2246 Q266.8827 466.1387 266.3827 465.9512 ZM268.7421 462.248 Q269.5389 462.248 270.0077 461.7012 Q270.4764 461.1543 270.4764 460.2012 Q270.4764 459.2637 270.0077 458.7168 Q269.5389 458.1699 268.7421 458.1699 Q267.9452 458.1699 267.4843 458.7168 Q267.0233 459.2637 267.0233 460.2012 Q267.0233 461.1543 267.4843 461.7012 Q267.9452 462.248 268.7421 462.248 ZM273.2987 462.373 L276.455 462.373 L276.455 463.3262 L273.2987 463.3262 L273.2987 462.373 ZM279.3319 465.1387 L283.4725 465.1387 L283.4725 466.1387 L277.91 466.1387 L277.91 465.1387 Q278.5819 464.4512 279.746 463.2715 Q280.91 462.0918 281.2069 461.748 Q281.785 461.123 282.0116 460.6777 Q282.2382 460.2324 282.2382 459.8105 Q282.2382 459.1074 281.746 458.6699 Q281.2538 458.2324 280.4725 458.2324 Q279.91 458.2324 279.2928 458.4199 Q278.6757 458.6074 277.9725 459.0137 L277.9725 457.8105 Q278.6913 457.5293 279.3085 457.3809 Q279.9257 457.2324 280.4413 457.2324 Q281.8007 457.2324 282.6132 457.9121 Q283.4257 458.5918 283.4257 459.7324 Q283.4257 460.2637 283.2225 460.748 Q283.0194 461.2324 282.4882 461.8887 Q282.3319 462.0605 281.5507 462.873 Q280.7694 463.6855 279.3319 465.1387 ZM288.4823 458.1699 Q287.576 458.1699 287.1151 459.0684 Q286.6542 459.9668 286.6542 461.7793 Q286.6542 463.5762 287.1151 464.4746 Q287.576 465.373 288.4823 465.373 Q289.4042 465.373 289.8651 464.4746 Q290.326 463.5762 290.326 461.7793 Q290.326 459.9668 289.8651 459.0684 Q289.4042 458.1699 288.4823 458.1699 ZM288.4823 457.2324 Q289.951 457.2324 290.7323 458.3965 Q291.5135 459.5605 291.5135 461.7793 Q291.5135 463.9824 290.7323 465.1465 Q289.951 466.3105 288.4823 466.3105 Q287.0135 466.3105 286.2401 465.1465 Q285.4667 463.9824 285.4667 461.7793 Q285.4667 459.5605 286.2401 458.3965 Q287.0135 457.2324 288.4823 457.2324 ZM293.7889 465.1387 L295.7264 465.1387 L295.7264 458.4668 L293.6171 458.8887 L293.6171 457.8105 L295.7108 457.3887 L296.8983 457.3887 L296.8983 465.1387 L298.8358 465.1387 L298.8358 466.1387 L293.7889 466.1387 L293.7889 465.1387 ZM303.7518 458.1699 Q302.8456 458.1699 302.3846 459.0684 Q301.9237 459.9668 301.9237 461.7793 Q301.9237 463.5762 302.3846 464.4746 Q302.8456 465.373 303.7518 465.373 Q304.6737 465.373 305.1346 464.4746 Q305.5956 463.5762 305.5956 461.7793 Q305.5956 459.9668 305.1346 459.0684 Q304.6737 458.1699 303.7518 458.1699 ZM303.7518 457.2324 Q305.2206 457.2324 306.0018 458.3965 Q306.7831 459.5605 306.7831 461.7793 Q306.7831 463.9824 306.0018 465.1465 Q305.2206 466.3105 303.7518 466.3105 Q302.2831 466.3105 301.5096 465.1465 Q300.7362 463.9824 300.7362 461.7793 Q300.7362 459.5605 301.5096 458.3965 Q302.2831 457.2324 303.7518 457.2324 Z"/></g><g style="fill:rgb(64,64,64); text-rendering:optimizeLegibility; stroke:rgb(64,64,64);"><path style="clip-path:url(#clipPath1); stroke:none;" d="M373.0928 465.1387 L377.2334 465.1387 L377.2334 466.1387 L371.6709 466.1387 L371.6709 465.1387 Q372.3428 464.4512 373.5068 463.2715 Q374.6709 462.0918 374.9678 461.748 Q375.5459 461.123 375.7725 460.6777 Q375.999 460.2324 375.999 459.8105 Q375.999 459.1074 375.5068 458.6699 Q375.0146 458.2324 374.2334 458.2324 Q373.6709 458.2324 373.0537 458.4199 Q372.4365 458.6074 371.7334 459.0137 L371.7334 457.8105 Q372.4521 457.5293 373.0693 457.3809 Q373.6865 457.2324 374.2021 457.2324 Q375.5615 457.2324 376.374 457.9121 Q377.1865 458.5918 377.1865 459.7324 Q377.1865 460.2637 376.9834 460.748 Q376.7803 461.2324 376.249 461.8887 Q376.0928 462.0605 375.3115 462.873 Q374.5303 463.6855 373.0928 465.1387 ZM382.2432 458.1699 Q381.3369 458.1699 380.876 459.0684 Q380.415 459.9668 380.415 461.7793 Q380.415 463.5762 380.876 464.4746 Q381.3369 465.373 382.2432 465.373 Q383.165 465.373 383.626 464.4746 Q384.0869 463.5762 384.0869 461.7793 Q384.0869 459.9668 383.626 459.0684 Q383.165 458.1699 382.2432 458.1699 ZM382.2432 457.2324 Q383.7119 457.2324 384.4932 458.3965 Q385.2744 459.5605 385.2744 461.7793 Q385.2744 463.9824 384.4932 465.1465 Q383.7119 466.3105 382.2432 466.3105 Q380.7744 466.3105 380.001 465.1465 Q379.2275 463.9824 379.2275 461.7793 Q379.2275 459.5605 380.001 458.3965 Q380.7744 457.2324 382.2432 457.2324 ZM387.5498 465.1387 L389.4873 465.1387 L389.4873 458.4668 L387.3779 458.8887 L387.3779 457.8105 L389.4717 457.3887 L390.6592 457.3887 L390.6592 465.1387 L392.5967 465.1387 L392.5967 466.1387 L387.5498 466.1387 L387.5498 465.1387 ZM397.5127 458.1699 Q396.6064 458.1699 396.1455 459.0684 Q395.6846 459.9668 395.6846 461.7793 Q395.6846 463.5762 396.1455 464.4746 Q396.6064 465.373 397.5127 465.373 Q398.4346 465.373 398.8955 464.4746 Q399.3564 463.5762 399.3564 461.7793 Q399.3564 459.9668 398.8955 459.0684 Q398.4346 458.1699 397.5127 458.1699 ZM397.5127 457.2324 Q398.9814 457.2324 399.7627 458.3965 Q400.5439 459.5605 400.5439 461.7793 Q400.5439 463.9824 399.7627 465.1465 Q398.9814 466.3105 397.5127 466.3105 Q396.0439 466.3105 395.2705 465.1465 Q394.4971 463.9824 394.4971 461.7793 Q394.4971 459.5605 395.2705 458.3965 Q396.0439 457.2324 397.5127 457.2324 ZM401.9287 462.373 L405.085 462.373 L405.085 463.3262 L401.9287 463.3262 L401.9287 462.373 ZM407.9619 465.1387 L412.1025 465.1387 L412.1025 466.1387 L406.54 466.1387 L406.54 465.1387 Q407.2119 464.4512 408.376 463.2715 Q409.54 462.0918 409.8369 461.748 Q410.415 461.123 410.6416 460.6777 Q410.8682 460.2324 410.8682 459.8105 Q410.8682 459.1074 410.376 458.6699 Q409.8838 458.2324 409.1025 458.2324 Q408.54 458.2324 407.9229 458.4199 Q407.3057 458.6074 406.6025 459.0137 L406.6025 457.8105 Q407.3213 457.5293 407.9385 457.3809 Q408.5557 457.2324 409.0713 457.2324 Q410.4307 457.2324 411.2432 457.9121 Q412.0557 458.5918 412.0557 459.7324 Q412.0557 460.2637 411.8525 460.748 Q411.6494 461.2324 411.1182 461.8887 Q410.9619 462.0605 410.1807 462.873 Q409.3994 463.6855 407.9619 465.1387 ZM417.1123 458.1699 Q416.2061 458.1699 415.7451 459.0684 Q415.2842 459.9668 415.2842 461.7793 Q415.2842 463.5762 415.7451 464.4746 Q416.2061 465.373 417.1123 465.373 Q418.0342 465.373 418.4951 464.4746 Q418.9561 463.5762 418.9561 461.7793 Q418.9561 459.9668 418.4951 459.0684 Q418.0342 458.1699 417.1123 458.1699 ZM417.1123 457.2324 Q418.5811 457.2324 419.3623 458.3965 Q420.1436 459.5605 420.1436 461.7793 Q420.1436 463.9824 419.3623 465.1465 Q418.5811 466.3105 417.1123 466.3105 Q415.6436 466.3105 414.8701 465.1465 Q414.0967 463.9824 414.0967 461.7793 Q414.0967 459.5605 414.8701 458.3965 Q415.6436 457.2324 417.1123 457.2324 ZM422.4189 465.1387 L424.3564 465.1387 L424.3564 458.4668 L422.2471 458.8887 L422.2471 457.8105 L424.3408 457.3887 L425.5283 457.3887 L425.5283 465.1387 L427.4658 465.1387 L427.4658 466.1387 L422.4189 466.1387 L422.4189 465.1387 ZM430.0537 465.1387 L431.9912 465.1387 L431.9912 458.4668 L429.8818 458.8887 L429.8818 457.8105 L431.9756 457.3887 L433.1631 457.3887 L433.1631 465.1387 L435.1006 465.1387 L435.1006 466.1387 L430.0537 466.1387 L430.0537 465.1387 Z"/></g><g style="fill:rgb(64,64,64); text-rendering:optimizeLegibility; stroke:rgb(64,64,64);"><path style="clip-path:url(#clipPath1); stroke:none;" d="M501.7228 465.1387 L505.8634 465.1387 L505.8634 466.1387 L500.3009 466.1387 L500.3009 465.1387 Q500.9728 464.4512 502.1368 463.2715 Q503.3009 462.0918 503.5978 461.748 Q504.1759 461.123 504.4025 460.6777 Q504.629 460.2324 504.629 459.8105 Q504.629 459.1074 504.1368 458.6699 Q503.6447 458.2324 502.8634 458.2324 Q502.3009 458.2324 501.6837 458.4199 Q501.0665 458.6074 500.3634 459.0137 L500.3634 457.8105 Q501.0822 457.5293 501.6993 457.3809 Q502.3165 457.2324 502.8322 457.2324 Q504.1915 457.2324 505.004 457.9121 Q505.8165 458.5918 505.8165 459.7324 Q505.8165 460.2637 505.6134 460.748 Q505.4103 461.2324 504.879 461.8887 Q504.7228 462.0605 503.9415 462.873 Q503.1603 463.6855 501.7228 465.1387 ZM510.8732 458.1699 Q509.9669 458.1699 509.506 459.0684 Q509.045 459.9668 509.045 461.7793 Q509.045 463.5762 509.506 464.4746 Q509.9669 465.373 510.8732 465.373 Q511.795 465.373 512.256 464.4746 Q512.7169 463.5762 512.7169 461.7793 Q512.7169 459.9668 512.256 459.0684 Q511.795 458.1699 510.8732 458.1699 ZM510.8732 457.2324 Q512.3419 457.2324 513.1232 458.3965 Q513.9044 459.5605 513.9044 461.7793 Q513.9044 463.9824 513.1232 465.1465 Q512.3419 466.3105 510.8732 466.3105 Q509.4044 466.3105 508.631 465.1465 Q507.8575 463.9824 507.8575 461.7793 Q507.8575 459.5605 508.631 458.3965 Q509.4044 457.2324 510.8732 457.2324 ZM516.1798 465.1387 L518.1173 465.1387 L518.1173 458.4668 L516.0079 458.8887 L516.0079 457.8105 L518.1017 457.3887 L519.2892 457.3887 L519.2892 465.1387 L521.2267 465.1387 L521.2267 466.1387 L516.1798 466.1387 L516.1798 465.1387 ZM523.8146 465.1387 L525.7521 465.1387 L525.7521 458.4668 L523.6427 458.8887 L523.6427 457.8105 L525.7365 457.3887 L526.924 457.3887 L526.924 465.1387 L528.8615 465.1387 L528.8615 466.1387 L523.8146 466.1387 L523.8146 465.1387 ZM530.5587 462.373 L533.715 462.373 L533.715 463.3262 L530.5587 463.3262 L530.5587 462.373 ZM536.5919 465.1387 L540.7325 465.1387 L540.7325 466.1387 L535.17 466.1387 L535.17 465.1387 Q535.8419 464.4512 537.006 463.2715 Q538.17 462.0918 538.4669 461.748 Q539.045 461.123 539.2716 460.6777 Q539.4982 460.2324 539.4982 459.8105 Q539.4982 459.1074 539.006 458.6699 Q538.5138 458.2324 537.7325 458.2324 Q537.17 458.2324 536.5529 458.4199 Q535.9357 458.6074 535.2325 459.0137 L535.2325 457.8105 Q535.9513 457.5293 536.5685 457.3809 Q537.1857 457.2324 537.7013 457.2324 Q539.0607 457.2324 539.8732 457.9121 Q540.6857 458.5918 540.6857 459.7324 Q540.6857 460.2637 540.4825 460.748 Q540.2794 461.2324 539.7482 461.8887 Q539.5919 462.0605 538.8107 462.873 Q538.0294 463.6855 536.5919 465.1387 ZM545.7423 458.1699 Q544.8361 458.1699 544.3751 459.0684 Q543.9142 459.9668 543.9142 461.7793 Q543.9142 463.5762 544.3751 464.4746 Q544.8361 465.373 545.7423 465.373 Q546.6642 465.373 547.1251 464.4746 Q547.5861 463.5762 547.5861 461.7793 Q547.5861 459.9668 547.1251 459.0684 Q546.6642 458.1699 545.7423 458.1699 ZM545.7423 457.2324 Q547.2111 457.2324 547.9923 458.3965 Q548.7736 459.5605 548.7736 461.7793 Q548.7736 463.9824 547.9923 465.1465 Q547.2111 466.3105 545.7423 466.3105 Q544.2736 466.3105 543.5001 465.1465 Q542.7267 463.9824 542.7267 461.7793 Q542.7267 459.5605 543.5001 458.3965 Q544.2736 457.2324 545.7423 457.2324 ZM551.049 465.1387 L552.9865 465.1387 L552.9865 458.4668 L550.8771 458.8887 L550.8771 457.8105 L552.9708 457.3887 L554.1583 457.3887 L554.1583 465.1387 L556.0958 465.1387 L556.0958 466.1387 L551.049 466.1387 L551.049 465.1387 ZM559.4962 465.1387 L563.6368 465.1387 L563.6368 466.1387 L558.0743 466.1387 L558.0743 465.1387 Q558.7462 464.4512 559.9103 463.2715 Q561.0743 462.0918 561.3712 461.748 Q561.9493 461.123 562.1759 460.6777 Q562.4025 460.2324 562.4025 459.8105 Q562.4025 459.1074 561.9103 458.6699 Q561.4181 458.2324 560.6368 458.2324 Q560.0743 458.2324 559.4572 458.4199 Q558.84 458.6074 558.1368 459.0137 L558.1368 457.8105 Q558.8556 457.5293 559.4728 457.3809 Q560.09 457.2324 560.6056 457.2324 Q561.965 457.2324 562.7775 457.9121 Q563.59 458.5918 563.59 459.7324 Q563.59 460.2637 563.3868 460.748 Q563.1837 461.2324 562.6525 461.8887 Q562.4962 462.0605 561.715 462.873 Q560.9337 463.6855 559.4962 465.1387 Z"/></g><g style="fill:rgb(64,64,64); text-rendering:optimizeLegibility; stroke:rgb(64,64,64);"><path style="clip-path:url(#clipPath1); stroke:none;" d="M630.3528 465.1387 L634.4934 465.1387 L634.4934 466.1387 L628.9309 466.1387 L628.9309 465.1387 Q629.6028 464.4512 630.7668 463.2715 Q631.9309 462.0918 632.2278 461.748 Q632.8059 461.123 633.0325 460.6777 Q633.259 460.2324 633.259 459.8105 Q633.259 459.1074 632.7668 458.6699 Q632.2747 458.2324 631.4934 458.2324 Q630.9309 458.2324 630.3137 458.4199 Q629.6965 458.6074 628.9934 459.0137 L628.9934 457.8105 Q629.7122 457.5293 630.3293 457.3809 Q630.9465 457.2324 631.4622 457.2324 Q632.8215 457.2324 633.634 457.9121 Q634.4465 458.5918 634.4465 459.7324 Q634.4465 460.2637 634.2434 460.748 Q634.0403 461.2324 633.509 461.8887 Q633.3528 462.0605 632.5715 462.873 Q631.7903 463.6855 630.3528 465.1387 ZM639.5032 458.1699 Q638.5969 458.1699 638.136 459.0684 Q637.675 459.9668 637.675 461.7793 Q637.675 463.5762 638.136 464.4746 Q638.5969 465.373 639.5032 465.373 Q640.425 465.373 640.886 464.4746 Q641.3469 463.5762 641.3469 461.7793 Q641.3469 459.9668 640.886 459.0684 Q640.425 458.1699 639.5032 458.1699 ZM639.5032 457.2324 Q640.9719 457.2324 641.7532 458.3965 Q642.5344 459.5605 642.5344 461.7793 Q642.5344 463.9824 641.7532 465.1465 Q640.9719 466.3105 639.5032 466.3105 Q638.0344 466.3105 637.261 465.1465 Q636.4875 463.9824 636.4875 461.7793 Q636.4875 459.5605 637.261 458.3965 Q638.0344 457.2324 639.5032 457.2324 ZM644.8098 465.1387 L646.7473 465.1387 L646.7473 458.4668 L644.6379 458.8887 L644.6379 457.8105 L646.7317 457.3887 L647.9192 457.3887 L647.9192 465.1387 L649.8567 465.1387 L649.8567 466.1387 L644.8098 466.1387 L644.8098 465.1387 ZM653.2571 465.1387 L657.3977 465.1387 L657.3977 466.1387 L651.8352 466.1387 L651.8352 465.1387 Q652.5071 464.4512 653.6711 463.2715 Q654.8352 462.0918 655.1321 461.748 Q655.7102 461.123 655.9368 460.6777 Q656.1633 460.2324 656.1633 459.8105 Q656.1633 459.1074 655.6711 458.6699 Q655.179 458.2324 654.3977 458.2324 Q653.8352 458.2324 653.218 458.4199 Q652.6008 458.6074 651.8977 459.0137 L651.8977 457.8105 Q652.6165 457.5293 653.2336 457.3809 Q653.8508 457.2324 654.3665 457.2324 Q655.7258 457.2324 656.5383 457.9121 Q657.3508 458.5918 657.3508 459.7324 Q657.3508 460.2637 657.1477 460.748 Q656.9446 461.2324 656.4133 461.8887 Q656.2571 462.0605 655.4758 462.873 Q654.6946 463.6855 653.2571 465.1387 ZM659.1887 462.373 L662.345 462.373 L662.345 463.3262 L659.1887 463.3262 L659.1887 462.373 ZM664.4094 465.1387 L666.3469 465.1387 L666.3469 458.4668 L664.2375 458.8887 L664.2375 457.8105 L666.3313 457.3887 L667.5188 457.3887 L667.5188 465.1387 L669.4563 465.1387 L669.4563 466.1387 L664.4094 466.1387 L664.4094 465.1387 ZM674.3723 458.1699 Q673.4661 458.1699 673.0051 459.0684 Q672.5442 459.9668 672.5442 461.7793 Q672.5442 463.5762 673.0051 464.4746 Q673.4661 465.373 674.3723 465.373 Q675.2942 465.373 675.7551 464.4746 Q676.2161 463.5762 676.2161 461.7793 Q676.2161 459.9668 675.7551 459.0684 Q675.2942 458.1699 674.3723 458.1699 ZM674.3723 457.2324 Q675.8411 457.2324 676.6223 458.3965 Q677.4036 459.5605 677.4036 461.7793 Q677.4036 463.9824 676.6223 465.1465 Q675.8411 466.3105 674.3723 466.3105 Q672.9036 466.3105 672.1301 465.1465 Q671.3567 463.9824 671.3567 461.7793 Q671.3567 459.5605 672.1301 458.3965 Q672.9036 457.2324 674.3723 457.2324 ZM679.679 465.1387 L681.6165 465.1387 L681.6165 458.4668 L679.5071 458.8887 L679.5071 457.8105 L681.6008 457.3887 L682.7883 457.3887 L682.7883 465.1387 L684.7258 465.1387 L684.7258 466.1387 L679.679 466.1387 L679.679 465.1387 ZM690.7043 461.4199 Q691.5481 461.6074 692.0247 462.1777 Q692.5012 462.748 692.5012 463.5918 Q692.5012 464.8887 691.6106 465.5996 Q690.72 466.3105 689.0793 466.3105 Q688.5325 466.3105 687.9465 466.2012 Q687.3606 466.0918 686.7512 465.873 L686.7512 464.7324 Q687.2356 465.0137 687.8215 465.1621 Q688.4075 465.3105 689.0481 465.3105 Q690.1575 465.3105 690.7434 464.873 Q691.3293 464.4355 691.3293 463.5918 Q691.3293 462.8262 690.7825 462.3887 Q690.2356 461.9512 689.2825 461.9512 L688.2512 461.9512 L688.2512 460.9824 L689.3293 460.9824 Q690.1887 460.9824 690.6575 460.6309 Q691.1262 460.2793 691.1262 459.623 Q691.1262 458.9512 690.6497 458.5918 Q690.1731 458.2324 689.2825 458.2324 Q688.7825 458.2324 688.2278 458.334 Q687.6731 458.4355 687.0012 458.6543 L687.0012 457.6074 Q687.6887 457.4199 688.2747 457.3262 Q688.8606 457.2324 689.3762 457.2324 Q690.7356 457.2324 691.5168 457.8418 Q692.2981 458.4512 692.2981 459.498 Q692.2981 460.2324 691.884 460.7324 Q691.47 461.2324 690.7043 461.4199 Z"/></g><g style="fill:rgb(64,64,64); text-rendering:optimizeLegibility; font-size:14; font-weight:bold; stroke:rgb(64,64,64);"><path style="clip-path:url(#clipPath1); stroke:none;" d="M382.019 481.3076 L384.4722 481.3076 L386.519 486.4951 L388.269 481.3076 L390.7222 481.3076 L387.5034 489.6826 Q387.019 490.9639 386.3706 491.4717 Q385.7222 491.9795 384.6597 491.9795 L383.2534 491.9795 L383.2534 490.3857 L384.019 490.3857 Q384.644 490.3857 384.9253 490.1826 Q385.2065 489.9795 385.3628 489.4639 L385.4253 489.2607 L382.019 481.3076 ZM399.7856 485.1201 L399.7856 485.8076 L394.0669 485.8076 Q394.1606 486.667 394.6919 487.1045 Q395.2231 487.542 396.1763 487.542 Q396.9575 487.542 397.77 487.3076 Q398.5825 487.0732 399.4263 486.6045 L399.4263 488.4951 Q398.5669 488.8232 397.6997 488.9951 Q396.8325 489.167 395.9575 489.167 Q393.8794 489.167 392.731 488.1045 Q391.5825 487.042 391.5825 485.1357 Q391.5825 483.2764 392.7075 482.1982 Q393.8325 481.1201 395.8169 481.1201 Q397.6294 481.1201 398.7075 482.2061 Q399.7856 483.292 399.7856 485.1201 ZM397.27 484.3076 Q397.27 483.6045 396.8638 483.1748 Q396.4575 482.7451 395.8013 482.7451 Q395.0981 482.7451 394.6528 483.1436 Q394.2075 483.542 394.0981 484.3076 L397.27 484.3076 ZM405.0776 485.5107 Q404.312 485.5107 403.9214 485.7764 Q403.5308 486.042 403.5308 486.542 Q403.5308 487.0107 403.8433 487.2764 Q404.1558 487.542 404.7183 487.542 Q405.4058 487.542 405.8745 487.042 Q406.3433 486.542 406.3433 485.792 L406.3433 485.5107 L405.0776 485.5107 ZM408.812 484.5889 L408.812 488.9639 L406.3433 488.9639 L406.3433 487.8232 Q405.8589 488.5264 405.2417 488.8467 Q404.6245 489.167 403.7495 489.167 Q402.5464 489.167 401.812 488.4717 Q401.0776 487.7764 401.0776 486.667 Q401.0776 485.3232 401.9995 484.6904 Q402.9214 484.0576 404.9058 484.0576 L406.3433 484.0576 L406.3433 483.8701 Q406.3433 483.292 405.8901 483.0186 Q405.437 482.7451 404.4683 482.7451 Q403.6714 482.7451 402.9995 482.9014 Q402.3276 483.0576 401.7339 483.3857 L401.7339 481.5107 Q402.5308 481.3232 403.3198 481.2217 Q404.1089 481.1201 404.9058 481.1201 Q406.9839 481.1201 407.8979 481.9404 Q408.812 482.7607 408.812 484.5889 ZM416.7749 483.3857 Q416.4624 483.2451 416.1421 483.1748 Q415.8218 483.1045 415.4937 483.1045 Q414.5562 483.1045 414.0483 483.7061 Q413.5405 484.3076 413.5405 485.4326 L413.5405 488.9639 L411.0874 488.9639 L411.0874 481.3076 L413.5405 481.3076 L413.5405 482.5576 Q414.0093 481.8076 414.6187 481.4639 Q415.228 481.1201 416.0874 481.1201 Q416.2124 481.1201 416.353 481.1279 Q416.4937 481.1357 416.7749 481.1826 L416.7749 483.3857 ZM423.9761 481.542 L423.9761 483.4014 Q423.1948 483.0732 422.4604 482.9092 Q421.7261 482.7451 421.0854 482.7451 Q420.3823 482.7451 420.0464 482.9248 Q419.7104 483.1045 419.7104 483.4639 Q419.7104 483.7607 419.9604 483.917 Q420.2104 484.0732 420.8823 484.1514 L421.3042 484.1982 Q423.1948 484.4482 423.8433 484.9951 Q424.4917 485.542 424.4917 486.7139 Q424.4917 487.9326 423.5854 488.5498 Q422.6792 489.167 420.8979 489.167 Q420.1323 489.167 419.3276 489.042 Q418.5229 488.917 417.6636 488.6826 L417.6636 486.8232 Q418.3979 487.1826 419.1636 487.3623 Q419.9292 487.542 420.7261 487.542 Q421.4448 487.542 421.8042 487.3389 Q422.1636 487.1357 422.1636 486.7451 Q422.1636 486.417 421.9136 486.2607 Q421.6636 486.1045 420.9292 486.0107 L420.4917 485.9482 Q418.8511 485.7451 418.1948 485.1904 Q417.5386 484.6357 417.5386 483.5107 Q417.5386 482.292 418.3745 481.7061 Q419.2104 481.1201 420.9292 481.1201 Q421.6167 481.1201 422.3589 481.2217 Q423.1011 481.3232 423.9761 481.542 Z"/></g><g style="fill:gray; text-rendering:optimizeLegibility; font-size:14; font-weight:bold; stroke:gray;"><line y2="451" style="fill:none; clip-path:url(#clipPath1);" x1="65" x2="65" y1="30"/></g><g style="fill:rgb(64,64,64); text-rendering:optimizeLegibility; stroke:rgb(64,64,64);"><path style="clip-path:url(#clipPath1); stroke:none;" d="M43.7754 447.1855 Q42.8691 447.1855 42.4082 448.084 Q41.9473 448.9824 41.9473 450.7949 Q41.9473 452.5918 42.4082 453.4902 Q42.8691 454.3887 43.7754 454.3887 Q44.6973 454.3887 45.1582 453.4902 Q45.6191 452.5918 45.6191 450.7949 Q45.6191 448.9824 45.1582 448.084 Q44.6973 447.1855 43.7754 447.1855 ZM43.7754 446.248 Q45.2441 446.248 46.0254 447.4121 Q46.8066 448.5762 46.8066 450.7949 Q46.8066 452.998 46.0254 454.1621 Q45.2441 455.3262 43.7754 455.3262 Q42.3066 455.3262 41.5332 454.1621 Q40.7598 452.998 40.7598 450.7949 Q40.7598 448.5762 41.5332 447.4121 Q42.3066 446.248 43.7754 446.248 ZM56.3164 451.3105 Q55.8164 451.3105 55.5273 451.7402 Q55.2383 452.1699 55.2383 452.9512 Q55.2383 453.7012 55.5273 454.1387 Q55.8164 454.5762 56.3164 454.5762 Q56.8164 454.5762 57.1055 454.1387 Q57.3945 453.7012 57.3945 452.9512 Q57.3945 452.1699 57.1055 451.7402 Q56.8164 451.3105 56.3164 451.3105 ZM56.3164 450.5605 Q57.2539 450.5605 57.793 451.2012 Q58.332 451.8418 58.332 452.9512 Q58.332 454.0449 57.7852 454.6855 Q57.2383 455.3262 56.3164 455.3262 Q55.3789 455.3262 54.8398 454.6855 Q54.3008 454.0449 54.3008 452.9512 Q54.3008 451.8418 54.8477 451.2012 Q55.3945 450.5605 56.3164 450.5605 ZM50.2695 446.998 Q49.7695 446.998 49.4805 447.4277 Q49.1914 447.8574 49.1914 448.623 Q49.1914 449.4043 49.4805 449.834 Q49.7695 450.2637 50.2695 450.2637 Q50.7852 450.2637 51.0742 449.834 Q51.3633 449.4043 51.3633 448.623 Q51.3633 447.873 51.0742 447.4355 Q50.7852 446.998 50.2695 446.998 ZM55.5664 446.248 L56.5039 446.248 L51.0352 455.3262 L50.0977 455.3262 L55.5664 446.248 ZM50.2695 446.248 Q51.207 446.248 51.7539 446.8887 Q52.3008 447.5293 52.3008 448.623 Q52.3008 449.7324 51.7539 450.373 Q51.207 451.0137 50.2695 451.0137 Q49.3477 451.0137 48.8008 450.373 Q48.2539 449.7324 48.2539 448.623 Q48.2539 447.5293 48.8008 446.8887 Q49.3477 446.248 50.2695 446.248 Z"/></g><g style="fill:rgb(64,64,64); text-rendering:optimizeLegibility; stroke:rgb(64,64,64);"><path style="clip-path:url(#clipPath1); stroke:none;" d="M42.2598 412.0543 L46.4004 412.0543 L46.4004 413.0543 L40.8379 413.0543 L40.8379 412.0543 Q41.5098 411.3668 42.6738 410.1871 Q43.8379 409.0074 44.1348 408.6637 Q44.7129 408.0387 44.9395 407.5934 Q45.166 407.148 45.166 406.7262 Q45.166 406.023 44.6738 405.5855 Q44.1816 405.148 43.4004 405.148 Q42.8379 405.148 42.2207 405.3355 Q41.6035 405.523 40.9004 405.9293 L40.9004 404.7262 Q41.6191 404.4449 42.2363 404.2965 Q42.8535 404.148 43.3691 404.148 Q44.7285 404.148 45.541 404.8277 Q46.3535 405.5074 46.3535 406.648 Q46.3535 407.1793 46.1504 407.6637 Q45.9473 408.148 45.416 408.8043 Q45.2598 408.9762 44.4785 409.7887 Q43.6973 410.6012 42.2598 412.0543 ZM56.3164 409.2105 Q55.8164 409.2105 55.5273 409.6402 Q55.2383 410.0699 55.2383 410.8512 Q55.2383 411.6012 55.5273 412.0387 Q55.8164 412.4762 56.3164 412.4762 Q56.8164 412.4762 57.1055 412.0387 Q57.3945 411.6012 57.3945 410.8512 Q57.3945 410.0699 57.1055 409.6402 Q56.8164 409.2105 56.3164 409.2105 ZM56.3164 408.4605 Q57.2539 408.4605 57.793 409.1012 Q58.332 409.7418 58.332 410.8512 Q58.332 411.9449 57.7852 412.5855 Q57.2383 413.2262 56.3164 413.2262 Q55.3789 413.2262 54.8398 412.5855 Q54.3008 411.9449 54.3008 410.8512 Q54.3008 409.7418 54.8477 409.1012 Q55.3945 408.4605 56.3164 408.4605 ZM50.2695 404.898 Q49.7695 404.898 49.4805 405.3277 Q49.1914 405.7574 49.1914 406.523 Q49.1914 407.3043 49.4805 407.734 Q49.7695 408.1637 50.2695 408.1637 Q50.7852 408.1637 51.0742 407.734 Q51.3633 407.3043 51.3633 406.523 Q51.3633 405.773 51.0742 405.3355 Q50.7852 404.898 50.2695 404.898 ZM55.5664 404.148 L56.5039 404.148 L51.0352 413.2262 L50.0977 413.2262 L55.5664 404.148 ZM50.2695 404.148 Q51.207 404.148 51.7539 404.7887 Q52.3008 405.4293 52.3008 406.523 Q52.3008 407.6324 51.7539 408.273 Q51.207 408.9137 50.2695 408.9137 Q49.3477 408.9137 48.8008 408.273 Q48.2539 407.6324 48.2539 406.523 Q48.2539 405.4293 48.8008 404.7887 Q49.3477 404.148 50.2695 404.148 Z"/></g><g style="fill:rgb(64,64,64); text-rendering:optimizeLegibility; stroke:rgb(64,64,64);"><path style="clip-path:url(#clipPath1); stroke:none;" d="M44.4941 363.2355 L41.5098 367.9074 L44.4941 367.9074 L44.4941 363.2355 ZM44.1816 362.2043 L45.6816 362.2043 L45.6816 367.9074 L46.9316 367.9074 L46.9316 368.8918 L45.6816 368.8918 L45.6816 370.9543 L44.4941 370.9543 L44.4941 368.8918 L40.5566 368.8918 L40.5566 367.7512 L44.1816 362.2043 ZM56.3164 367.1105 Q55.8164 367.1105 55.5273 367.5402 Q55.2383 367.9699 55.2383 368.7512 Q55.2383 369.5012 55.5273 369.9387 Q55.8164 370.3762 56.3164 370.3762 Q56.8164 370.3762 57.1055 369.9387 Q57.3945 369.5012 57.3945 368.7512 Q57.3945 367.9699 57.1055 367.5402 Q56.8164 367.1105 56.3164 367.1105 ZM56.3164 366.3605 Q57.2539 366.3605 57.793 367.0012 Q58.332 367.6418 58.332 368.7512 Q58.332 369.8449 57.7852 370.4855 Q57.2383 371.1262 56.3164 371.1262 Q55.3789 371.1262 54.8398 370.4855 Q54.3008 369.8449 54.3008 368.7512 Q54.3008 367.6418 54.8477 367.0012 Q55.3945 366.3605 56.3164 366.3605 ZM50.2695 362.798 Q49.7695 362.798 49.4805 363.2277 Q49.1914 363.6574 49.1914 364.423 Q49.1914 365.2043 49.4805 365.634 Q49.7695 366.0637 50.2695 366.0637 Q50.7852 366.0637 51.0742 365.634 Q51.3633 365.2043 51.3633 364.423 Q51.3633 363.673 51.0742 363.2355 Q50.7852 362.798 50.2695 362.798 ZM55.5664 362.048 L56.5039 362.048 L51.0352 371.1262 L50.0977 371.1262 L55.5664 362.048 ZM50.2695 362.048 Q51.207 362.048 51.7539 362.6887 Q52.3008 363.3293 52.3008 364.423 Q52.3008 365.5324 51.7539 366.173 Q51.207 366.8137 50.2695 366.8137 Q49.3477 366.8137 48.8008 366.173 Q48.2539 365.5324 48.2539 364.423 Q48.2539 363.3293 48.8008 362.6887 Q49.3477 362.048 50.2695 362.048 Z"/></g><g style="fill:rgb(64,64,64); text-rendering:optimizeLegibility; stroke:rgb(64,64,64);"><path style="clip-path:url(#clipPath1); stroke:none;" d="M43.9316 324.0106 Q43.1348 324.0106 42.666 324.5574 Q42.1973 325.1043 42.1973 326.0418 Q42.1973 326.9949 42.666 327.5418 Q43.1348 328.0887 43.9316 328.0887 Q44.7285 328.0887 45.1895 327.5418 Q45.6504 326.9949 45.6504 326.0418 Q45.6504 325.1043 45.1895 324.5574 Q44.7285 324.0106 43.9316 324.0106 ZM46.2754 320.2918 L46.2754 321.3699 Q45.8223 321.1668 45.3691 321.0574 Q44.916 320.9481 44.4785 320.9481 Q43.3066 320.9481 42.6895 321.7371 Q42.0723 322.5262 41.9785 324.1199 Q42.3223 323.6199 42.8457 323.3465 Q43.3691 323.0731 43.9941 323.0731 Q45.3066 323.0731 46.0723 323.8699 Q46.8379 324.6668 46.8379 326.0418 Q46.8379 327.4012 46.041 328.2137 Q45.2441 329.0262 43.9316 329.0262 Q42.4004 329.0262 41.6035 327.8621 Q40.8066 326.6981 40.8066 324.4949 Q40.8066 322.4168 41.791 321.1824 Q42.7754 319.9481 44.4316 319.9481 Q44.8691 319.9481 45.3223 320.034 Q45.7754 320.1199 46.2754 320.2918 ZM56.3164 325.0106 Q55.8164 325.0106 55.5273 325.4402 Q55.2383 325.8699 55.2383 326.6512 Q55.2383 327.4012 55.5273 327.8387 Q55.8164 328.2762 56.3164 328.2762 Q56.8164 328.2762 57.1055 327.8387 Q57.3945 327.4012 57.3945 326.6512 Q57.3945 325.8699 57.1055 325.4402 Q56.8164 325.0106 56.3164 325.0106 ZM56.3164 324.2606 Q57.2539 324.2606 57.793 324.9012 Q58.332 325.5418 58.332 326.6512 Q58.332 327.7449 57.7852 328.3856 Q57.2383 329.0262 56.3164 329.0262 Q55.3789 329.0262 54.8398 328.3856 Q54.3008 327.7449 54.3008 326.6512 Q54.3008 325.5418 54.8477 324.9012 Q55.3945 324.2606 56.3164 324.2606 ZM50.2695 320.6981 Q49.7695 320.6981 49.4805 321.1277 Q49.1914 321.5574 49.1914 322.3231 Q49.1914 323.1043 49.4805 323.534 Q49.7695 323.9637 50.2695 323.9637 Q50.7852 323.9637 51.0742 323.534 Q51.3633 323.1043 51.3633 322.3231 Q51.3633 321.5731 51.0742 321.1356 Q50.7852 320.6981 50.2695 320.6981 ZM55.5664 319.9481 L56.5039 319.9481 L51.0352 329.0262 L50.0977 329.0262 L55.5664 319.9481 ZM50.2695 319.9481 Q51.207 319.9481 51.7539 320.5887 Q52.3008 321.2293 52.3008 322.3231 Q52.3008 323.4324 51.7539 324.0731 Q51.207 324.7137 50.2695 324.7137 Q49.3477 324.7137 48.8008 324.0731 Q48.2539 323.4324 48.2539 322.3231 Q48.2539 321.2293 48.8008 320.5887 Q49.3477 319.9481 50.2695 319.9481 Z"/></g><g style="fill:rgb(64,64,64); text-rendering:optimizeLegibility; stroke:rgb(64,64,64);"><path style="clip-path:url(#clipPath1); stroke:none;" d="M43.7754 282.5981 Q42.9316 282.5981 42.4473 283.0512 Q41.9629 283.5043 41.9629 284.2856 Q41.9629 285.0824 42.4473 285.5356 Q42.9316 285.9887 43.7754 285.9887 Q44.6191 285.9887 45.1035 285.5356 Q45.5879 285.0824 45.5879 284.2856 Q45.5879 283.5043 45.1113 283.0512 Q44.6348 282.5981 43.7754 282.5981 ZM42.5879 282.0981 Q41.8379 281.9106 41.4082 281.3871 Q40.9785 280.8637 40.9785 280.1137 Q40.9785 279.0668 41.7285 278.4574 Q42.4785 277.8481 43.7754 277.8481 Q45.0879 277.8481 45.8301 278.4574 Q46.5723 279.0668 46.5723 280.1137 Q46.5723 280.8637 46.1504 281.3871 Q45.7285 281.9106 44.9629 282.0981 Q45.8223 282.3012 46.2988 282.8793 Q46.7754 283.4574 46.7754 284.2856 Q46.7754 285.5668 46.002 286.2465 Q45.2285 286.9262 43.7754 286.9262 Q42.3379 286.9262 41.5566 286.2465 Q40.7754 285.5668 40.7754 284.2856 Q40.7754 283.4574 41.2598 282.8793 Q41.7441 282.3012 42.5879 282.0981 ZM42.166 280.2231 Q42.166 280.9106 42.5879 281.2856 Q43.0098 281.6606 43.7754 281.6606 Q44.541 281.6606 44.9707 281.2856 Q45.4004 280.9106 45.4004 280.2231 Q45.4004 279.5512 44.9707 279.1684 Q44.541 278.7856 43.7754 278.7856 Q43.0098 278.7856 42.5879 279.1684 Q42.166 279.5512 42.166 280.2231 ZM56.3164 282.9106 Q55.8164 282.9106 55.5273 283.3402 Q55.2383 283.7699 55.2383 284.5512 Q55.2383 285.3012 55.5273 285.7387 Q55.8164 286.1762 56.3164 286.1762 Q56.8164 286.1762 57.1055 285.7387 Q57.3945 285.3012 57.3945 284.5512 Q57.3945 283.7699 57.1055 283.3402 Q56.8164 282.9106 56.3164 282.9106 ZM56.3164 282.1606 Q57.2539 282.1606 57.793 282.8012 Q58.332 283.4418 58.332 284.5512 Q58.332 285.6449 57.7852 286.2856 Q57.2383 286.9262 56.3164 286.9262 Q55.3789 286.9262 54.8398 286.2856 Q54.3008 285.6449 54.3008 284.5512 Q54.3008 283.4418 54.8477 282.8012 Q55.3945 282.1606 56.3164 282.1606 ZM50.2695 278.5981 Q49.7695 278.5981 49.4805 279.0277 Q49.1914 279.4574 49.1914 280.2231 Q49.1914 281.0043 49.4805 281.434 Q49.7695 281.8637 50.2695 281.8637 Q50.7852 281.8637 51.0742 281.434 Q51.3633 281.0043 51.3633 280.2231 Q51.3633 279.4731 51.0742 279.0356 Q50.7852 278.5981 50.2695 278.5981 ZM55.5664 277.8481 L56.5039 277.8481 L51.0352 286.9262 L50.0977 286.9262 L55.5664 277.8481 ZM50.2695 277.8481 Q51.207 277.8481 51.7539 278.4887 Q52.3008 279.1293 52.3008 280.2231 Q52.3008 281.3324 51.7539 281.9731 Q51.207 282.6137 50.2695 282.6137 Q49.3477 282.6137 48.8008 281.9731 Q48.2539 281.3324 48.2539 280.2231 Q48.2539 279.1293 48.8008 278.4887 Q49.3477 277.8481 50.2695 277.8481 Z"/></g><g style="fill:rgb(64,64,64); text-rendering:optimizeLegibility; stroke:rgb(64,64,64);"><path style="clip-path:url(#clipPath1); stroke:none;" d="M33.8125 243.6543 L35.75 243.6543 L35.75 236.9824 L33.6406 237.4043 L33.6406 236.3262 L35.7344 235.9043 L36.9219 235.9043 L36.9219 243.6543 L38.8594 243.6543 L38.8594 244.6543 L33.8125 244.6543 L33.8125 243.6543 ZM43.7754 236.6855 Q42.8691 236.6855 42.4082 237.584 Q41.9473 238.4824 41.9473 240.2949 Q41.9473 242.0918 42.4082 242.9902 Q42.8691 243.8887 43.7754 243.8887 Q44.6973 243.8887 45.1582 242.9902 Q45.6191 242.0918 45.6191 240.2949 Q45.6191 238.4824 45.1582 237.584 Q44.6973 236.6855 43.7754 236.6855 ZM43.7754 235.748 Q45.2441 235.748 46.0254 236.9121 Q46.8066 238.0762 46.8066 240.2949 Q46.8066 242.498 46.0254 243.6621 Q45.2441 244.8262 43.7754 244.8262 Q42.3066 244.8262 41.5332 243.6621 Q40.7598 242.498 40.7598 240.2949 Q40.7598 238.0762 41.5332 236.9121 Q42.3066 235.748 43.7754 235.748 ZM56.3164 240.8105 Q55.8164 240.8105 55.5273 241.2402 Q55.2383 241.6699 55.2383 242.4512 Q55.2383 243.2012 55.5273 243.6387 Q55.8164 244.0762 56.3164 244.0762 Q56.8164 244.0762 57.1055 243.6387 Q57.3945 243.2012 57.3945 242.4512 Q57.3945 241.6699 57.1055 241.2402 Q56.8164 240.8105 56.3164 240.8105 ZM56.3164 240.0605 Q57.2539 240.0605 57.793 240.7012 Q58.332 241.3418 58.332 242.4512 Q58.332 243.5449 57.7852 244.1855 Q57.2383 244.8262 56.3164 244.8262 Q55.3789 244.8262 54.8398 244.1855 Q54.3008 243.5449 54.3008 242.4512 Q54.3008 241.3418 54.8477 240.7012 Q55.3945 240.0605 56.3164 240.0605 ZM50.2695 236.498 Q49.7695 236.498 49.4805 236.9277 Q49.1914 237.3574 49.1914 238.123 Q49.1914 238.9043 49.4805 239.334 Q49.7695 239.7637 50.2695 239.7637 Q50.7852 239.7637 51.0742 239.334 Q51.3633 238.9043 51.3633 238.123 Q51.3633 237.373 51.0742 236.9355 Q50.7852 236.498 50.2695 236.498 ZM55.5664 235.748 L56.5039 235.748 L51.0352 244.8262 L50.0977 244.8262 L55.5664 235.748 ZM50.2695 235.748 Q51.207 235.748 51.7539 236.3887 Q52.3008 237.0293 52.3008 238.123 Q52.3008 239.2324 51.7539 239.873 Q51.207 240.5137 50.2695 240.5137 Q49.3477 240.5137 48.8008 239.873 Q48.2539 239.2324 48.2539 238.123 Q48.2539 237.0293 48.8008 236.3887 Q49.3477 235.748 50.2695 235.748 Z"/></g><g style="fill:rgb(64,64,64); text-rendering:optimizeLegibility; stroke:rgb(64,64,64);"><path style="clip-path:url(#clipPath1); stroke:none;" d="M33.8125 201.5543 L35.75 201.5543 L35.75 194.8824 L33.6406 195.3043 L33.6406 194.2262 L35.7344 193.8043 L36.9219 193.8043 L36.9219 201.5543 L38.8594 201.5543 L38.8594 202.5543 L33.8125 202.5543 L33.8125 201.5543 ZM42.2598 201.5543 L46.4004 201.5543 L46.4004 202.5543 L40.8379 202.5543 L40.8379 201.5543 Q41.5098 200.8668 42.6738 199.6871 Q43.8379 198.5074 44.1348 198.1637 Q44.7129 197.5387 44.9395 197.0934 Q45.166 196.648 45.166 196.2262 Q45.166 195.523 44.6738 195.0855 Q44.1816 194.648 43.4004 194.648 Q42.8379 194.648 42.2207 194.8355 Q41.6035 195.023 40.9004 195.4293 L40.9004 194.2262 Q41.6191 193.9449 42.2363 193.7965 Q42.8535 193.648 43.3691 193.648 Q44.7285 193.648 45.541 194.3277 Q46.3535 195.0074 46.3535 196.148 Q46.3535 196.6793 46.1504 197.1637 Q45.9473 197.648 45.416 198.3043 Q45.2598 198.4762 44.4785 199.2887 Q43.6973 200.1012 42.2598 201.5543 ZM56.3164 198.7105 Q55.8164 198.7105 55.5273 199.1402 Q55.2383 199.5699 55.2383 200.3512 Q55.2383 201.1012 55.5273 201.5387 Q55.8164 201.9762 56.3164 201.9762 Q56.8164 201.9762 57.1055 201.5387 Q57.3945 201.1012 57.3945 200.3512 Q57.3945 199.5699 57.1055 199.1402 Q56.8164 198.7105 56.3164 198.7105 ZM56.3164 197.9605 Q57.2539 197.9605 57.793 198.6012 Q58.332 199.2418 58.332 200.3512 Q58.332 201.4449 57.7852 202.0855 Q57.2383 202.7262 56.3164 202.7262 Q55.3789 202.7262 54.8398 202.0855 Q54.3008 201.4449 54.3008 200.3512 Q54.3008 199.2418 54.8477 198.6012 Q55.3945 197.9605 56.3164 197.9605 ZM50.2695 194.398 Q49.7695 194.398 49.4805 194.8277 Q49.1914 195.2574 49.1914 196.023 Q49.1914 196.8043 49.4805 197.234 Q49.7695 197.6637 50.2695 197.6637 Q50.7852 197.6637 51.0742 197.234 Q51.3633 196.8043 51.3633 196.023 Q51.3633 195.273 51.0742 194.8355 Q50.7852 194.398 50.2695 194.398 ZM55.5664 193.648 L56.5039 193.648 L51.0352 202.7262 L50.0977 202.7262 L55.5664 193.648 ZM50.2695 193.648 Q51.207 193.648 51.7539 194.2887 Q52.3008 194.9293 52.3008 196.023 Q52.3008 197.1324 51.7539 197.773 Q51.207 198.4137 50.2695 198.4137 Q49.3477 198.4137 48.8008 197.773 Q48.2539 197.1324 48.2539 196.023 Q48.2539 194.9293 48.8008 194.2887 Q49.3477 193.648 50.2695 193.648 Z"/></g><g style="fill:rgb(64,64,64); text-rendering:optimizeLegibility; stroke:rgb(64,64,64);"><path style="clip-path:url(#clipPath1); stroke:none;" d="M33.8125 159.4543 L35.75 159.4543 L35.75 152.7824 L33.6406 153.2043 L33.6406 152.1262 L35.7344 151.7043 L36.9219 151.7043 L36.9219 159.4543 L38.8594 159.4543 L38.8594 160.4543 L33.8125 160.4543 L33.8125 159.4543 ZM44.4941 152.7355 L41.5098 157.4074 L44.4941 157.4074 L44.4941 152.7355 ZM44.1816 151.7043 L45.6816 151.7043 L45.6816 157.4074 L46.9316 157.4074 L46.9316 158.3918 L45.6816 158.3918 L45.6816 160.4543 L44.4941 160.4543 L44.4941 158.3918 L40.5566 158.3918 L40.5566 157.2512 L44.1816 151.7043 ZM56.3164 156.6105 Q55.8164 156.6105 55.5273 157.0402 Q55.2383 157.4699 55.2383 158.2512 Q55.2383 159.0012 55.5273 159.4387 Q55.8164 159.8762 56.3164 159.8762 Q56.8164 159.8762 57.1055 159.4387 Q57.3945 159.0012 57.3945 158.2512 Q57.3945 157.4699 57.1055 157.0402 Q56.8164 156.6105 56.3164 156.6105 ZM56.3164 155.8605 Q57.2539 155.8605 57.793 156.5012 Q58.332 157.1418 58.332 158.2512 Q58.332 159.3449 57.7852 159.9855 Q57.2383 160.6262 56.3164 160.6262 Q55.3789 160.6262 54.8398 159.9855 Q54.3008 159.3449 54.3008 158.2512 Q54.3008 157.1418 54.8477 156.5012 Q55.3945 155.8605 56.3164 155.8605 ZM50.2695 152.298 Q49.7695 152.298 49.4805 152.7277 Q49.1914 153.1574 49.1914 153.923 Q49.1914 154.7043 49.4805 155.134 Q49.7695 155.5637 50.2695 155.5637 Q50.7852 155.5637 51.0742 155.134 Q51.3633 154.7043 51.3633 153.923 Q51.3633 153.173 51.0742 152.7355 Q50.7852 152.298 50.2695 152.298 ZM55.5664 151.548 L56.5039 151.548 L51.0352 160.6262 L50.0977 160.6262 L55.5664 151.548 ZM50.2695 151.548 Q51.207 151.548 51.7539 152.1887 Q52.3008 152.8293 52.3008 153.923 Q52.3008 155.0324 51.7539 155.673 Q51.207 156.3137 50.2695 156.3137 Q49.3477 156.3137 48.8008 155.673 Q48.2539 155.0324 48.2539 153.923 Q48.2539 152.8293 48.8008 152.1887 Q49.3477 151.548 50.2695 151.548 Z"/></g><g style="fill:rgb(64,64,64); text-rendering:optimizeLegibility; stroke:rgb(64,64,64);"><path style="clip-path:url(#clipPath1); stroke:none;" d="M33.8125 117.3543 L35.75 117.3543 L35.75 110.6824 L33.6406 111.1043 L33.6406 110.0262 L35.7344 109.6043 L36.9219 109.6043 L36.9219 117.3543 L38.8594 117.3543 L38.8594 118.3543 L33.8125 118.3543 L33.8125 117.3543 ZM43.9316 113.5105 Q43.1348 113.5105 42.666 114.0574 Q42.1973 114.6043 42.1973 115.5418 Q42.1973 116.4949 42.666 117.0418 Q43.1348 117.5887 43.9316 117.5887 Q44.7285 117.5887 45.1895 117.0418 Q45.6504 116.4949 45.6504 115.5418 Q45.6504 114.6043 45.1895 114.0574 Q44.7285 113.5105 43.9316 113.5105 ZM46.2754 109.7918 L46.2754 110.8699 Q45.8223 110.6668 45.3691 110.5574 Q44.916 110.448 44.4785 110.448 Q43.3066 110.448 42.6895 111.2371 Q42.0723 112.0262 41.9785 113.6199 Q42.3223 113.1199 42.8457 112.8465 Q43.3691 112.573 43.9941 112.573 Q45.3066 112.573 46.0723 113.3699 Q46.8379 114.1668 46.8379 115.5418 Q46.8379 116.9012 46.041 117.7137 Q45.2441 118.5262 43.9316 118.5262 Q42.4004 118.5262 41.6035 117.3621 Q40.8066 116.198 40.8066 113.9949 Q40.8066 111.9168 41.791 110.6824 Q42.7754 109.448 44.4316 109.448 Q44.8691 109.448 45.3223 109.534 Q45.7754 109.6199 46.2754 109.7918 ZM56.3164 114.5105 Q55.8164 114.5105 55.5273 114.9402 Q55.2383 115.3699 55.2383 116.1512 Q55.2383 116.9012 55.5273 117.3387 Q55.8164 117.7762 56.3164 117.7762 Q56.8164 117.7762 57.1055 117.3387 Q57.3945 116.9012 57.3945 116.1512 Q57.3945 115.3699 57.1055 114.9402 Q56.8164 114.5105 56.3164 114.5105 ZM56.3164 113.7605 Q57.2539 113.7605 57.793 114.4012 Q58.332 115.0418 58.332 116.1512 Q58.332 117.2449 57.7852 117.8855 Q57.2383 118.5262 56.3164 118.5262 Q55.3789 118.5262 54.8398 117.8855 Q54.3008 117.2449 54.3008 116.1512 Q54.3008 115.0418 54.8477 114.4012 Q55.3945 113.7605 56.3164 113.7605 ZM50.2695 110.198 Q49.7695 110.198 49.4805 110.6277 Q49.1914 111.0574 49.1914 111.823 Q49.1914 112.6043 49.4805 113.034 Q49.7695 113.4637 50.2695 113.4637 Q50.7852 113.4637 51.0742 113.034 Q51.3633 112.6043 51.3633 111.823 Q51.3633 111.073 51.0742 110.6355 Q50.7852 110.198 50.2695 110.198 ZM55.5664 109.448 L56.5039 109.448 L51.0352 118.5262 L50.0977 118.5262 L55.5664 109.448 ZM50.2695 109.448 Q51.207 109.448 51.7539 110.0887 Q52.3008 110.7293 52.3008 111.823 Q52.3008 112.9324 51.7539 113.573 Q51.207 114.2137 50.2695 114.2137 Q49.3477 114.2137 48.8008 113.573 Q48.2539 112.9324 48.2539 111.823 Q48.2539 110.7293 48.8008 110.0887 Q49.3477 109.448 50.2695 109.448 Z"/></g><g style="fill:rgb(64,64,64); text-rendering:optimizeLegibility; stroke:rgb(64,64,64);"><path style="clip-path:url(#clipPath1); stroke:none;" d="M33.8125 75.2543 L35.75 75.2543 L35.75 68.5824 L33.6406 69.0043 L33.6406 67.9262 L35.7344 67.5043 L36.9219 67.5043 L36.9219 75.2543 L38.8594 75.2543 L38.8594 76.2543 L33.8125 76.2543 L33.8125 75.2543 ZM43.7754 72.098 Q42.9316 72.098 42.4473 72.5512 Q41.9629 73.0043 41.9629 73.7855 Q41.9629 74.5824 42.4473 75.0355 Q42.9316 75.4887 43.7754 75.4887 Q44.6191 75.4887 45.1035 75.0355 Q45.5879 74.5824 45.5879 73.7855 Q45.5879 73.0043 45.1113 72.5512 Q44.6348 72.098 43.7754 72.098 ZM42.5879 71.598 Q41.8379 71.4105 41.4082 70.8871 Q40.9785 70.3637 40.9785 69.6137 Q40.9785 68.5668 41.7285 67.9574 Q42.4785 67.348 43.7754 67.348 Q45.0879 67.348 45.8301 67.9574 Q46.5723 68.5668 46.5723 69.6137 Q46.5723 70.3637 46.1504 70.8871 Q45.7285 71.4105 44.9629 71.598 Q45.8223 71.8012 46.2988 72.3793 Q46.7754 72.9574 46.7754 73.7855 Q46.7754 75.0668 46.002 75.7465 Q45.2285 76.4262 43.7754 76.4262 Q42.3379 76.4262 41.5566 75.7465 Q40.7754 75.0668 40.7754 73.7855 Q40.7754 72.9574 41.2598 72.3793 Q41.7441 71.8012 42.5879 71.598 ZM42.166 69.723 Q42.166 70.4105 42.5879 70.7855 Q43.0098 71.1605 43.7754 71.1605 Q44.541 71.1605 44.9707 70.7855 Q45.4004 70.4105 45.4004 69.723 Q45.4004 69.0512 44.9707 68.6684 Q44.541 68.2855 43.7754 68.2855 Q43.0098 68.2855 42.5879 68.6684 Q42.166 69.0512 42.166 69.723 ZM56.3164 72.4105 Q55.8164 72.4105 55.5273 72.8402 Q55.2383 73.2699 55.2383 74.0512 Q55.2383 74.8012 55.5273 75.2387 Q55.8164 75.6762 56.3164 75.6762 Q56.8164 75.6762 57.1055 75.2387 Q57.3945 74.8012 57.3945 74.0512 Q57.3945 73.2699 57.1055 72.8402 Q56.8164 72.4105 56.3164 72.4105 ZM56.3164 71.6605 Q57.2539 71.6605 57.793 72.3012 Q58.332 72.9418 58.332 74.0512 Q58.332 75.1449 57.7852 75.7855 Q57.2383 76.4262 56.3164 76.4262 Q55.3789 76.4262 54.8398 75.7855 Q54.3008 75.1449 54.3008 74.0512 Q54.3008 72.9418 54.8477 72.3012 Q55.3945 71.6605 56.3164 71.6605 ZM50.2695 68.098 Q49.7695 68.098 49.4805 68.5277 Q49.1914 68.9574 49.1914 69.723 Q49.1914 70.5043 49.4805 70.934 Q49.7695 71.3637 50.2695 71.3637 Q50.7852 71.3637 51.0742 70.934 Q51.3633 70.5043 51.3633 69.723 Q51.3633 68.973 51.0742 68.5355 Q50.7852 68.098 50.2695 68.098 ZM55.5664 67.348 L56.5039 67.348 L51.0352 76.4262 L50.0977 76.4262 L55.5664 67.348 ZM50.2695 67.348 Q51.207 67.348 51.7539 67.9887 Q52.3008 68.6293 52.3008 69.723 Q52.3008 70.8324 51.7539 71.473 Q51.207 72.1137 50.2695 72.1137 Q49.3477 72.1137 48.8008 71.473 Q48.2539 70.8324 48.2539 69.723 Q48.2539 68.6293 48.8008 67.9887 Q49.3477 67.348 50.2695 67.348 Z"/></g><g style="fill:rgb(64,64,64); text-rendering:optimizeLegibility; stroke:rgb(64,64,64);"><path style="clip-path:url(#clipPath1); stroke:none;" d="M34.625 33.1543 L38.7656 33.1543 L38.7656 34.1543 L33.2031 34.1543 L33.2031 33.1543 Q33.875 32.4668 35.0391 31.2871 Q36.2031 30.1074 36.5 29.7637 Q37.0781 29.1387 37.3047 28.6934 Q37.5312 28.248 37.5312 27.8262 Q37.5312 27.123 37.0391 26.6855 Q36.5469 26.248 35.7656 26.248 Q35.2031 26.248 34.5859 26.4355 Q33.9688 26.623 33.2656 27.0293 L33.2656 25.8262 Q33.9844 25.5449 34.6016 25.3965 Q35.2188 25.248 35.7344 25.248 Q37.0938 25.248 37.9062 25.9277 Q38.7188 26.6074 38.7188 27.748 Q38.7188 28.2793 38.5156 28.7637 Q38.3125 29.248 37.7812 29.9043 Q37.625 30.0762 36.8438 30.8887 Q36.0625 31.7012 34.625 33.1543 ZM43.7754 26.1855 Q42.8691 26.1855 42.4082 27.084 Q41.9473 27.9824 41.9473 29.7949 Q41.9473 31.5918 42.4082 32.4902 Q42.8691 33.3887 43.7754 33.3887 Q44.6973 33.3887 45.1582 32.4902 Q45.6191 31.5918 45.6191 29.7949 Q45.6191 27.9824 45.1582 27.084 Q44.6973 26.1855 43.7754 26.1855 ZM43.7754 25.248 Q45.2441 25.248 46.0254 26.4121 Q46.8066 27.5762 46.8066 29.7949 Q46.8066 31.998 46.0254 33.1621 Q45.2441 34.3262 43.7754 34.3262 Q42.3066 34.3262 41.5332 33.1621 Q40.7598 31.998 40.7598 29.7949 Q40.7598 27.5762 41.5332 26.4121 Q42.3066 25.248 43.7754 25.248 ZM56.3164 30.3105 Q55.8164 30.3105 55.5273 30.7402 Q55.2383 31.1699 55.2383 31.9512 Q55.2383 32.7012 55.5273 33.1387 Q55.8164 33.5762 56.3164 33.5762 Q56.8164 33.5762 57.1055 33.1387 Q57.3945 32.7012 57.3945 31.9512 Q57.3945 31.1699 57.1055 30.7402 Q56.8164 30.3105 56.3164 30.3105 ZM56.3164 29.5605 Q57.2539 29.5605 57.793 30.2012 Q58.332 30.8418 58.332 31.9512 Q58.332 33.0449 57.7852 33.6855 Q57.2383 34.3262 56.3164 34.3262 Q55.3789 34.3262 54.8398 33.6855 Q54.3008 33.0449 54.3008 31.9512 Q54.3008 30.8418 54.8477 30.2012 Q55.3945 29.5605 56.3164 29.5605 ZM50.2695 25.998 Q49.7695 25.998 49.4805 26.4277 Q49.1914 26.8574 49.1914 27.623 Q49.1914 28.4043 49.4805 28.834 Q49.7695 29.2637 50.2695 29.2637 Q50.7852 29.2637 51.0742 28.834 Q51.3633 28.4043 51.3633 27.623 Q51.3633 26.873 51.0742 26.4355 Q50.7852 25.998 50.2695 25.998 ZM55.5664 25.248 L56.5039 25.248 L51.0352 34.3262 L50.0977 34.3262 L55.5664 25.248 ZM50.2695 25.248 Q51.207 25.248 51.7539 25.8887 Q52.3008 26.5293 52.3008 27.623 Q52.3008 28.7324 51.7539 29.373 Q51.207 30.0137 50.2695 30.0137 Q49.3477 30.0137 48.8008 29.373 Q48.2539 28.7324 48.2539 27.623 Q48.2539 26.5293 48.8008 25.8887 Q49.3477 25.248 50.2695 25.248 Z"/></g><g style="fill:rgb(64,64,64); text-rendering:optimizeLegibility; font-size:14; font-weight:bold; stroke:rgb(64,64,64);" transform="matrix(0,-1,1,0,-221.3203,259.6797)"><path style="clip-path:url(#clipPath2); stroke:none;" d="M-17.3086 241.1279 Q-17.793 241.1279 -18.0586 241.5498 Q-18.3242 241.9717 -18.3242 242.7529 Q-18.3242 243.5342 -18.0586 243.9561 Q-17.793 244.3779 -17.3086 244.3779 Q-16.8086 244.3779 -16.5508 243.9561 Q-16.293 243.5342 -16.293 242.7529 Q-16.293 241.9717 -16.5586 241.5498 Q-16.8242 241.1279 -17.3086 241.1279 ZM-17.3086 239.9873 Q-16.0273 239.9873 -15.3008 240.7217 Q-14.5742 241.4561 -14.5742 242.7529 Q-14.5742 244.0498 -15.3008 244.7998 Q-16.0273 245.5498 -17.3086 245.5498 Q-18.5742 245.5498 -19.3086 244.7998 Q-20.043 244.0498 -20.043 242.7529 Q-20.043 241.4717 -19.3086 240.7295 Q-18.5742 239.9873 -17.3086 239.9873 ZM-23.5742 245.5498 L-25.0898 245.5498 L-18.6992 234.9561 L-17.1836 234.9561 L-23.5742 245.5498 ZM-24.9805 234.9561 Q-23.6992 234.9561 -22.9727 235.6982 Q-22.2461 236.4404 -22.2461 237.7373 Q-22.2461 239.0186 -22.9727 239.7686 Q-23.6992 240.5186 -24.9805 240.5186 Q-26.2461 240.5186 -26.9727 239.7686 Q-27.6992 239.0186 -27.6992 237.7373 Q-27.6992 236.4404 -26.9727 235.6982 Q-26.2461 234.9561 -24.9805 234.9561 ZM-24.9805 236.0967 Q-25.4648 236.0967 -25.7305 236.5264 Q-25.9961 236.9561 -25.9961 237.7373 Q-25.9961 238.5186 -25.7305 238.9482 Q-25.4648 239.3779 -24.9805 239.3779 Q-24.4805 239.3779 -24.2148 238.9482 Q-23.9492 238.5186 -23.9492 237.7373 Q-23.9492 236.9561 -24.2148 236.5264 Q-24.4805 236.0967 -24.9805 236.0967 ZM-2.3916 239.7686 Q-2.7041 239.6279 -3.0244 239.5576 Q-3.3447 239.4873 -3.6729 239.4873 Q-4.6104 239.4873 -5.1182 240.0889 Q-5.626 240.6904 -5.626 241.8154 L-5.626 245.3467 L-8.0791 245.3467 L-8.0791 237.6904 L-5.626 237.6904 L-5.626 238.9404 Q-5.1572 238.1904 -4.5479 237.8467 Q-3.9385 237.5029 -3.0791 237.5029 Q-2.9541 237.5029 -2.8135 237.5107 Q-2.6729 237.5186 -2.3916 237.5654 L-2.3916 239.7686 ZM6.4658 241.5029 L6.4658 242.1904 L0.7471 242.1904 Q0.8408 243.0498 1.3721 243.4873 Q1.9033 243.9248 2.8564 243.9248 Q3.6377 243.9248 4.4502 243.6904 Q5.2627 243.4561 6.1064 242.9873 L6.1064 244.8779 Q5.2471 245.2061 4.3799 245.3779 Q3.5127 245.5498 2.6377 245.5498 Q0.5596 245.5498 -0.5889 244.4873 Q-1.7373 243.4248 -1.7373 241.5186 Q-1.7373 239.6592 -0.6123 238.5811 Q0.5127 237.5029 2.4971 237.5029 Q4.3096 237.5029 5.3877 238.5889 Q6.4658 239.6748 6.4658 241.5029 ZM3.9502 240.6904 Q3.9502 239.9873 3.5439 239.5576 Q3.1377 239.1279 2.4814 239.1279 Q1.7783 239.1279 1.333 239.5264 Q0.8877 239.9248 0.7783 240.6904 L3.9502 240.6904 ZM13.5391 238.8154 L13.5391 234.7061 L15.9922 234.7061 L15.9922 245.3467 L13.5391 245.3467 L13.5391 244.2373 Q13.0234 244.9092 12.4141 245.2295 Q11.8047 245.5498 11.0078 245.5498 Q9.6016 245.5498 8.6875 244.4248 Q7.7734 243.2998 7.7734 241.5186 Q7.7734 239.7529 8.6875 238.6279 Q9.6016 237.5029 11.0078 237.5029 Q11.8047 237.5029 12.4141 237.8232 Q13.0234 238.1436 13.5391 238.8154 ZM11.9141 243.7686 Q12.7109 243.7686 13.125 243.1904 Q13.5391 242.6123 13.5391 241.5186 Q13.5391 240.4248 13.125 239.8545 Q12.7109 239.2842 11.9141 239.2842 Q11.1484 239.2842 10.7344 239.8545 Q10.3203 240.4248 10.3203 241.5186 Q10.3203 242.6123 10.7344 243.1904 Q11.1484 243.7686 11.9141 243.7686 ZM18.2637 242.3623 L18.2637 237.6904 L20.7324 237.6904 L20.7324 238.4561 Q20.7324 239.0811 20.7246 240.0186 Q20.7168 240.9561 20.7168 241.2686 Q20.7168 242.1904 20.7637 242.5967 Q20.8105 243.0029 20.9199 243.1904 Q21.0762 243.4248 21.3184 243.5576 Q21.5605 243.6904 21.873 243.6904 Q22.6387 243.6904 23.0762 243.1045 Q23.5137 242.5186 23.5137 241.4717 L23.5137 237.6904 L25.9668 237.6904 L25.9668 245.3467 L23.5137 245.3467 L23.5137 244.2373 Q22.9668 244.9092 22.3418 245.2295 Q21.7168 245.5498 20.9824 245.5498 Q19.6543 245.5498 18.959 244.7373 Q18.2637 243.9248 18.2637 242.3623 ZM34.4961 237.9248 L34.4961 239.9248 Q33.9961 239.5811 33.4961 239.417 Q32.9961 239.2529 32.4492 239.2529 Q31.4336 239.2529 30.8633 239.8545 Q30.293 240.4561 30.293 241.5186 Q30.293 242.5967 30.8633 243.1982 Q31.4336 243.7998 32.4492 243.7998 Q33.0273 243.7998 33.543 243.6279 Q34.0586 243.4561 34.4961 243.1123 L34.4961 245.1279 Q33.918 245.3311 33.332 245.4404 Q32.7461 245.5498 32.1523 245.5498 Q30.0742 245.5498 28.9102 244.4873 Q27.7461 243.4248 27.7461 241.5186 Q27.7461 239.6279 28.9102 238.5654 Q30.0742 237.5029 32.1523 237.5029 Q32.7461 237.5029 33.332 237.6123 Q33.918 237.7217 34.4961 237.9248 ZM39.2793 235.5186 L39.2793 237.6904 L41.8105 237.6904 L41.8105 239.4404 L39.2793 239.4404 L39.2793 242.6904 Q39.2793 243.2217 39.4902 243.4092 Q39.7012 243.5967 40.3418 243.5967 L41.5918 243.5967 L41.5918 245.3467 L39.498 245.3467 Q38.0449 245.3467 37.4434 244.7451 Q36.8418 244.1436 36.8418 242.6904 L36.8418 239.4404 L35.623 239.4404 L35.623 237.6904 L36.8418 237.6904 L36.8418 235.5186 L39.2793 235.5186 ZM43.2998 237.6904 L45.7529 237.6904 L45.7529 245.3467 L43.2998 245.3467 L43.2998 237.6904 ZM43.2998 234.7061 L45.7529 234.7061 L45.7529 236.7061 L43.2998 236.7061 L43.2998 234.7061 ZM51.7393 239.2529 Q50.9268 239.2529 50.5049 239.8389 Q50.083 240.4248 50.083 241.5186 Q50.083 242.6279 50.5049 243.2139 Q50.9268 243.7998 51.7393 243.7998 Q52.5518 243.7998 52.9736 243.2139 Q53.3955 242.6279 53.3955 241.5186 Q53.3955 240.4248 52.9736 239.8389 Q52.5518 239.2529 51.7393 239.2529 ZM51.7393 237.5029 Q53.7236 237.5029 54.833 238.5732 Q55.9424 239.6436 55.9424 241.5186 Q55.9424 243.4092 54.833 244.4795 Q53.7236 245.5498 51.7393 245.5498 Q49.7705 245.5498 48.6533 244.4795 Q47.5361 243.4092 47.5361 241.5186 Q47.5361 239.6436 48.6533 238.5732 Q49.7705 237.5029 51.7393 237.5029 ZM65.4199 240.6904 L65.4199 245.3467 L62.9512 245.3467 L62.9512 244.5811 L62.9512 241.7842 Q62.9512 240.7842 62.9121 240.4092 Q62.873 240.0342 62.7637 239.8623 Q62.623 239.6123 62.373 239.4795 Q62.123 239.3467 61.8105 239.3467 Q61.0449 239.3467 60.6074 239.9404 Q60.1699 240.5342 60.1699 241.5811 L60.1699 245.3467 L57.7168 245.3467 L57.7168 237.6904 L60.1699 237.6904 L60.1699 238.8154 Q60.7168 238.1436 61.3418 237.8232 Q61.9668 237.5029 62.7168 237.5029 Q64.0449 237.5029 64.7324 238.3154 Q65.4199 239.1279 65.4199 240.6904 Z"/></g><g style="fill:rgb(64,64,64); text-rendering:optimizeLegibility; font-size:14; font-weight:bold; stroke:rgb(64,64,64);" transform="translate(2,2)"><path style="clip-path:url(#clipPath4); stroke:none;" d="M133.3807 451 L273.6258 405.0984 L272.6793 405.5533 L379.5716 335.5826 L379.5716 335.5826 L373.547 326.379 L403.5 324.7 L389.9776 351.4796 L383.9531 342.276 L383.9531 342.276 L277.0607 412.2467 L276.1142 412.7016 L159.0993 451 Z"/></g><g style="fill:rgb(30,172,226); text-rendering:optimizeLegibility; font-size:14; font-weight:bold; stroke:rgb(30,172,226);"><path style="clip-path:url(#clipPath3); stroke:none;" d="M133.3807 451 L273.6258 405.0984 L272.6793 405.5533 L379.5716 335.5826 L379.5716 335.5826 L373.547 326.379 L403.5 324.7 L389.9776 351.4796 L383.9531 342.276 L383.9531 342.276 L277.0607 412.2467 L276.1142 412.7016 L159.0993 451 Z"/></g><g style="text-rendering:optimizeLegibility; stroke-width:2; font-size:14; font-weight:bold;"><rect x="65" width="677" height="421" y="30" style="fill:none; clip-path:url(#clipPath1);"/></g></g></svg>