<?xml version="1.0" encoding="UTF-8"?><svg xmlns="http://www.w3.org/2000/svg" xmlns:xlink="http://www.w3.org/1999/xlink" contentScriptType="text/ecmascript" width="750" zoomAndPan="magnify" style="stroke-dasharray:none; shape-rendering:auto; font-family:'Dialog'; text-rendering:auto; fill-opacity:1; color-interpolation:auto; color-rendering:auto; font-size:12; fill:black; stroke:black; image-rendering:auto; stroke-miterlimit:10; stroke-linecap:square; stroke-linejoin:miter; font-style:normal; stroke-width:1; stroke-dashoffset:0; font-weight:normal; stroke-opacity:1;" contentStyleType="text/css" viewBox="0 0 750 500" height="500" preserveAspectRatio="xMidYMid meet" version="1.0"><!--Generated by the Batik Graphics2D SVG Generator--><defs id="genericDefs"/><g><defs id="defs1"><linearGradient x1="403.5" xmlns:xlink="http://www.w3.org/1999/xlink" gradientUnits="userSpaceOnUse" y1="451" x2="403.5" y2="30" xlink:type="simple" xlink:actuate="onLoad" id="linearGradient1" xlink:show="other" spreadMethod="pad"><stop offset="0%" style="stop-opacity:1; stop-color:white;"/><stop offset="100%" style="stop-opacity:1; stop-color:rgb(227,246,253);"/></linearGradient><clipPath clipPathUnits="userSpaceOnUse" id="clipPath1"><path d="M0 0 L750 0 L750 500 L0 500 L0 0 Z"/></clipPath><clipPath clipPathUnits="userSpaceOnUse" id="clipPath2"><path d="M0 0 L0 14 L223 14 L223 0 Z"/></clipPath><clipPath clipPathUnits="userSpaceOnUse" id="clipPath3"><path d="M0 0 L0 14 L30 14 L30 0 Z"/></clipPath><clipPath clipPathUnits="userSpaceOnUse" id="clipPath4"><path d="M0 0 L0 2 L30 2 L30 0 Z"/></clipPath><clipPath clipPathUnits="userSpaceOnUse" id="clipPath5"><path d="M0 0 L0 2 L25 2 L25 0 Z"/></clipPath><clipPath clipPathUnits="userSpaceOnUse" id="clipPath6"><path d="M0 0 L0 14 L51 14 L51 0 Z"/></clipPath><clipPath clipPathUnits="userSpaceOnUse" id="clipPath7"><path d="M0 0 L0 14 L31 14 L31 0 Z"/></clipPath><clipPath clipPathUnits="userSpaceOnUse" id="clipPath8"><path d="M0 0 L0 14 L112 14 L112 0 Z"/></clipPath><clipPath clipPathUnits="userSpaceOnUse" id="clipPath9"><path d="M0 0 L0 14 L72 14 L72 0 Z"/></clipPath><clipPath clipPathUnits="userSpaceOnUse" id="clipPath10"><path d="M259.6797 221.3203 L259.6797 971.3203 L-240.3203 971.3203 L-240.3203 221.3203 L259.6797 221.3203 Z"/></clipPath><clipPath clipPathUnits="userSpaceOnUse" id="clipPath11"><path d="M65 30 L65 451 L742 451 L742 30 Z"/></clipPath><clipPath clipPathUnits="userSpaceOnUse" id="clipPath12"><path d="M63 28 L63 449 L740 449 L740 28 Z"/></clipPath></defs><g style="fill:white; text-rendering:optimizeLegibility; font-size:11; font-family:'Liberation Sans'; stroke:white;"><rect x="0" width="750" height="500" y="0" style="clip-path:url(#clipPath1); stroke:none;"/></g><g style="font-weight:bold; font-size:20; text-rendering:optimizeLegibility;"><path style="clip-path:url(#clipPath1); stroke:none;" d="M180.4424 18.7676 Q179.3955 19.2988 178.2783 19.5723 Q177.1611 19.8457 175.9268 19.8457 Q172.2861 19.8457 170.1611 17.8066 Q168.0361 15.7676 168.0361 12.2832 Q168.0361 8.7988 170.1611 6.7598 Q172.2861 4.7207 175.9268 4.7207 Q177.1611 4.7207 178.2783 4.9941 Q179.3955 5.2676 180.4424 5.7988 L180.4424 8.8145 Q179.3955 8.1113 178.3799 7.7754 Q177.3643 7.4395 176.2393 7.4395 Q174.2236 7.4395 173.0752 8.7285 Q171.9268 10.0176 171.9268 12.2832 Q171.9268 14.5488 173.0752 15.8379 Q174.2236 17.127 176.2393 17.127 Q177.3643 17.127 178.3799 16.791 Q179.3955 16.4551 180.4424 15.752 L180.4424 18.7676 ZM188.292 14.6426 Q187.1982 14.6426 186.6514 15.0098 Q186.1045 15.377 186.1045 16.1113 Q186.1045 16.7676 186.5498 17.1426 Q186.9951 17.5176 187.7764 17.5176 Q188.7607 17.5176 189.4404 16.8145 Q190.1201 16.1113 190.1201 15.0488 L190.1201 14.6426 L188.292 14.6426 ZM193.6357 13.3301 L193.6357 19.5645 L190.1201 19.5645 L190.1201 17.9395 Q189.417 18.9395 188.5342 19.3926 Q187.6514 19.8457 186.3857 19.8457 Q184.6982 19.8457 183.6357 18.8535 Q182.5732 17.8613 182.5732 16.2832 Q182.5732 14.3613 183.8936 13.4629 Q185.2139 12.5645 188.0576 12.5645 L190.1201 12.5645 L190.1201 12.2832 Q190.1201 11.4551 189.4639 11.0723 Q188.8076 10.6895 187.417 10.6895 Q186.292 10.6895 185.3232 10.916 Q184.3545 11.1426 183.5264 11.5801 L183.5264 8.9238 Q184.6514 8.6426 185.7842 8.502 Q186.917 8.3613 188.0576 8.3613 Q191.0107 8.3613 192.3232 9.5254 Q193.6357 10.6895 193.6357 13.3301 ZM207.8818 12.9082 L207.8818 19.5645 L204.3662 19.5645 L204.3662 18.4863 L204.3662 14.4707 Q204.3662 13.0488 204.3037 12.5098 Q204.2412 11.9707 204.085 11.7207 Q203.8818 11.377 203.5303 11.1895 Q203.1787 11.002 202.7256 11.002 Q201.6318 11.002 201.0068 11.8457 Q200.3818 12.6895 200.3818 14.1895 L200.3818 19.5645 L196.8975 19.5645 L196.8975 8.627 L200.3818 8.627 L200.3818 10.2207 Q201.1787 9.2676 202.0693 8.8145 Q202.96 8.3613 204.0225 8.3613 Q205.9287 8.3613 206.9053 9.5254 Q207.8818 10.6895 207.8818 12.9082 ZM222.042 14.0645 L222.042 15.0645 L213.8701 15.0645 Q213.9951 16.2988 214.7607 16.9082 Q215.5264 17.5176 216.8857 17.5176 Q217.9951 17.5176 219.1514 17.1895 Q220.3076 16.8613 221.5264 16.2051 L221.5264 18.8926 Q220.292 19.3613 219.0498 19.6035 Q217.8076 19.8457 216.5732 19.8457 Q213.6045 19.8457 211.9561 18.3379 Q210.3076 16.8301 210.3076 14.1113 Q210.3076 11.4238 211.9248 9.8926 Q213.542 8.3613 216.3701 8.3613 Q218.9482 8.3613 220.4951 9.916 Q222.042 11.4707 222.042 14.0645 ZM218.4482 12.9082 Q218.4482 11.9082 217.8701 11.2988 Q217.292 10.6895 216.3545 10.6895 Q215.3389 10.6895 214.7061 11.2598 Q214.0732 11.8301 213.917 12.9082 L218.4482 12.9082 ZM236.5537 14.6426 Q235.46 14.6426 234.9131 15.0098 Q234.3662 15.377 234.3662 16.1113 Q234.3662 16.7676 234.8115 17.1426 Q235.2568 17.5176 236.0381 17.5176 Q237.0225 17.5176 237.7021 16.8145 Q238.3818 16.1113 238.3818 15.0488 L238.3818 14.6426 L236.5537 14.6426 ZM241.8975 13.3301 L241.8975 19.5645 L238.3818 19.5645 L238.3818 17.9395 Q237.6787 18.9395 236.7959 19.3926 Q235.9131 19.8457 234.6475 19.8457 Q232.96 19.8457 231.8975 18.8535 Q230.835 17.8613 230.835 16.2832 Q230.835 14.3613 232.1553 13.4629 Q233.4756 12.5645 236.3193 12.5645 L238.3818 12.5645 L238.3818 12.2832 Q238.3818 11.4551 237.7256 11.0723 Q237.0693 10.6895 235.6787 10.6895 Q234.5537 10.6895 233.585 10.916 Q232.6162 11.1426 231.7881 11.5801 L231.7881 8.9238 Q232.9131 8.6426 234.0459 8.502 Q235.1787 8.3613 236.3193 8.3613 Q239.2725 8.3613 240.585 9.5254 Q241.8975 10.6895 241.8975 13.3301 ZM256.1436 12.9082 L256.1436 19.5645 L252.6279 19.5645 L252.6279 18.4863 L252.6279 14.4707 Q252.6279 13.0488 252.5654 12.5098 Q252.5029 11.9707 252.3467 11.7207 Q252.1436 11.377 251.792 11.1895 Q251.4404 11.002 250.9873 11.002 Q249.8936 11.002 249.2686 11.8457 Q248.6436 12.6895 248.6436 14.1895 L248.6436 19.5645 L245.1592 19.5645 L245.1592 8.627 L248.6436 8.627 L248.6436 10.2207 Q249.4404 9.2676 250.3311 8.8145 Q251.2217 8.3613 252.2842 8.3613 Q254.1904 8.3613 255.167 9.5254 Q256.1436 10.6895 256.1436 12.9082 ZM266.835 10.2207 L266.835 4.3613 L270.3506 4.3613 L270.3506 19.5645 L266.835 19.5645 L266.835 17.9863 Q266.1162 18.9551 265.2412 19.4004 Q264.3662 19.8457 263.2256 19.8457 Q261.21 19.8457 259.9131 18.2363 Q258.6162 16.627 258.6162 14.1113 Q258.6162 11.5801 259.9131 9.9707 Q261.21 8.3613 263.2256 8.3613 Q264.3662 8.3613 265.2412 8.8145 Q266.1162 9.2676 266.835 10.2207 ZM264.5225 17.3145 Q265.6475 17.3145 266.2412 16.4941 Q266.835 15.6738 266.835 14.1113 Q266.835 12.5488 266.2412 11.7285 Q265.6475 10.9082 264.5225 10.9082 Q263.4131 10.9082 262.8193 11.7285 Q262.2256 12.5488 262.2256 14.1113 Q262.2256 15.6738 262.8193 16.4941 Q263.4131 17.3145 264.5225 17.3145 ZM280.833 4.9863 L284.583 4.9863 L284.583 10.5332 L290.1299 10.5332 L290.1299 4.9863 L293.8955 4.9863 L293.8955 19.5645 L290.1299 19.5645 L290.1299 13.377 L284.583 13.377 L284.583 19.5645 L280.833 19.5645 L280.833 4.9863 ZM302.6182 10.8613 Q301.4463 10.8613 300.8369 11.6973 Q300.2275 12.5332 300.2275 14.1113 Q300.2275 15.6738 300.8369 16.5098 Q301.4463 17.3457 302.6182 17.3457 Q303.7588 17.3457 304.3604 16.5098 Q304.9619 15.6738 304.9619 14.1113 Q304.9619 12.5332 304.3604 11.6973 Q303.7588 10.8613 302.6182 10.8613 ZM302.6182 8.3613 Q305.4307 8.3613 307.0166 9.8848 Q308.6025 11.4082 308.6025 14.1113 Q308.6025 16.7988 307.0166 18.3223 Q305.4307 19.8457 302.6182 19.8457 Q299.7744 19.8457 298.1807 18.3223 Q296.5869 16.7988 296.5869 14.1113 Q296.5869 11.4082 298.1807 9.8848 Q299.7744 8.3613 302.6182 8.3613 ZM319.2803 11.6113 Q318.8115 11.3926 318.3584 11.291 Q317.9053 11.1895 317.4521 11.1895 Q316.0928 11.1895 315.3662 12.0488 Q314.6396 12.9082 314.6396 14.5176 L314.6396 19.5645 L311.1553 19.5645 L311.1553 8.627 L314.6396 8.627 L314.6396 10.4238 Q315.3115 9.3457 316.1865 8.8535 Q317.0615 8.3613 318.2803 8.3613 Q318.4678 8.3613 318.6709 8.377 Q318.874 8.3926 319.2646 8.4395 L319.2803 11.6113 ZM324.8311 5.5176 L324.8311 8.627 L328.4404 8.627 L328.4404 11.127 L324.8311 11.127 L324.8311 15.7676 Q324.8311 16.5332 325.1357 16.7988 Q325.4404 17.0645 326.3311 17.0645 L328.1279 17.0645 L328.1279 19.5645 L325.1279 19.5645 Q323.0654 19.5645 322.1982 18.6973 Q321.3311 17.8301 321.3311 15.7676 L321.3311 11.127 L319.5967 11.127 L319.5967 8.627 L321.3311 8.627 L321.3311 5.5176 L324.8311 5.5176 ZM330.5791 8.627 L334.0635 8.627 L334.0635 19.5645 L330.5791 19.5645 L330.5791 8.627 ZM330.5791 4.3613 L334.0635 4.3613 L334.0635 7.2207 L330.5791 7.2207 L330.5791 4.3613 ZM346.2627 8.9707 L346.2627 11.8145 Q345.5596 11.3301 344.8408 11.0957 Q344.1221 10.8613 343.3408 10.8613 Q341.8877 10.8613 341.0674 11.7129 Q340.2471 12.5645 340.2471 14.1113 Q340.2471 15.6426 341.0674 16.4941 Q341.8877 17.3457 343.3408 17.3457 Q344.1689 17.3457 344.9033 17.1035 Q345.6377 16.8613 346.2627 16.377 L346.2627 19.2363 Q345.4502 19.5488 344.6064 19.6973 Q343.7627 19.8457 342.9033 19.8457 Q339.9502 19.8457 338.2783 18.3301 Q336.6064 16.8145 336.6064 14.1113 Q336.6064 11.3926 338.2783 9.877 Q339.9502 8.3613 342.9033 8.3613 Q343.7627 8.3613 344.5986 8.5098 Q345.4346 8.6582 346.2627 8.9707 ZM349.165 15.2988 L349.165 8.627 L352.6807 8.627 L352.6807 9.7207 Q352.6807 10.6113 352.6729 11.9551 Q352.665 13.2988 352.665 13.7363 Q352.665 15.0645 352.7354 15.6426 Q352.8057 16.2207 352.9619 16.4863 Q353.1807 16.8301 353.5244 17.0176 Q353.8682 17.2051 354.3213 17.2051 Q355.415 17.2051 356.04 16.3613 Q356.665 15.5176 356.665 14.0332 L356.665 8.627 L360.165 8.627 L360.165 19.5645 L356.665 19.5645 L356.665 17.9863 Q355.8682 18.9395 354.9854 19.3926 Q354.1025 19.8457 353.04 19.8457 Q351.1494 19.8457 350.1572 18.6816 Q349.165 17.5176 349.165 15.2988 ZM363.5283 4.3613 L367.0127 4.3613 L367.0127 19.5645 L363.5283 19.5645 L363.5283 4.3613 ZM374.1963 5.5176 L374.1963 8.627 L377.8057 8.627 L377.8057 11.127 L374.1963 11.127 L374.1963 15.7676 Q374.1963 16.5332 374.501 16.7988 Q374.8057 17.0645 375.6963 17.0645 L377.4932 17.0645 L377.4932 19.5645 L374.4932 19.5645 Q372.4307 19.5645 371.5635 18.6973 Q370.6963 17.8301 370.6963 15.7676 L370.6963 11.127 L368.9619 11.127 L368.9619 8.627 L370.6963 8.627 L370.6963 5.5176 L374.1963 5.5176 ZM379.8193 15.2988 L379.8193 8.627 L383.335 8.627 L383.335 9.7207 Q383.335 10.6113 383.3271 11.9551 Q383.3193 13.2988 383.3193 13.7363 Q383.3193 15.0645 383.3896 15.6426 Q383.46 16.2207 383.6162 16.4863 Q383.835 16.8301 384.1787 17.0176 Q384.5225 17.2051 384.9756 17.2051 Q386.0693 17.2051 386.6943 16.3613 Q387.3193 15.5176 387.3193 14.0332 L387.3193 8.627 L390.8193 8.627 L390.8193 19.5645 L387.3193 19.5645 L387.3193 17.9863 Q386.5225 18.9395 385.6396 19.3926 Q384.7568 19.8457 383.6943 19.8457 Q381.8037 19.8457 380.8115 18.6816 Q379.8193 17.5176 379.8193 15.2988 ZM402.3076 11.6113 Q401.8389 11.3926 401.3857 11.291 Q400.9326 11.1895 400.4795 11.1895 Q399.1201 11.1895 398.3936 12.0488 Q397.667 12.9082 397.667 14.5176 L397.667 19.5645 L394.1826 19.5645 L394.1826 8.627 L397.667 8.627 L397.667 10.4238 Q398.3389 9.3457 399.2139 8.8535 Q400.0889 8.3613 401.3076 8.3613 Q401.4951 8.3613 401.6982 8.377 Q401.9014 8.3926 402.292 8.4395 L402.3076 11.6113 ZM414.9521 14.0645 L414.9521 15.0645 L406.7803 15.0645 Q406.9053 16.2988 407.6709 16.9082 Q408.4365 17.5176 409.7959 17.5176 Q410.9053 17.5176 412.0615 17.1895 Q413.2178 16.8613 414.4365 16.2051 L414.4365 18.8926 Q413.2021 19.3613 411.96 19.6035 Q410.7178 19.8457 409.4834 19.8457 Q406.5146 19.8457 404.8662 18.3379 Q403.2178 16.8301 403.2178 14.1113 Q403.2178 11.4238 404.835 9.8926 Q406.4521 8.3613 409.2803 8.3613 Q411.8584 8.3613 413.4053 9.916 Q414.9521 11.4707 414.9521 14.0645 ZM411.3584 12.9082 Q411.3584 11.9082 410.7803 11.2988 Q410.2021 10.6895 409.2646 10.6895 Q408.249 10.6895 407.6162 11.2598 Q406.9834 11.8301 406.8271 12.9082 L411.3584 12.9082 ZM423.9639 12.3926 L430.1045 12.3926 L430.1045 15.2207 L423.9639 15.2207 L423.9639 12.3926 ZM445.1182 13.0332 Q444.0557 13.0332 443.4932 13.6113 Q442.9307 14.1895 442.9307 15.2676 Q442.9307 16.3457 443.4932 16.916 Q444.0557 17.4863 445.1182 17.4863 Q446.165 17.4863 446.7197 16.916 Q447.2744 16.3457 447.2744 15.2676 Q447.2744 14.1895 446.7197 13.6113 Q446.165 13.0332 445.1182 13.0332 ZM442.3682 11.7988 Q441.04 11.3926 440.3682 10.5645 Q439.6963 9.7363 439.6963 8.502 Q439.6963 6.6582 441.0713 5.6895 Q442.4463 4.7207 445.1182 4.7207 Q447.7588 4.7207 449.1338 5.6816 Q450.5088 6.6426 450.5088 8.502 Q450.5088 9.7363 449.8291 10.5645 Q449.1494 11.3926 447.8213 11.7988 Q449.3057 12.2051 450.0635 13.127 Q450.8213 14.0488 450.8213 15.4551 Q450.8213 17.627 449.3838 18.7363 Q447.9463 19.8457 445.1182 19.8457 Q442.2744 19.8457 440.8213 18.7363 Q439.3682 17.627 439.3682 15.4551 Q439.3682 14.0488 440.126 13.127 Q440.8838 12.2051 442.3682 11.7988 ZM443.2432 8.877 Q443.2432 9.752 443.7275 10.2207 Q444.2119 10.6895 445.1182 10.6895 Q445.9932 10.6895 446.4697 10.2207 Q446.9463 9.752 446.9463 8.877 Q446.9463 8.0176 446.4697 7.5488 Q445.9932 7.0801 445.1182 7.0801 Q444.2119 7.0801 443.7275 7.5488 Q443.2432 8.0176 443.2432 8.877 ZM461.2686 12.252 Q461.2686 9.5176 460.7529 8.4004 Q460.2373 7.2832 459.0342 7.2832 Q457.8154 7.2832 457.2998 8.4004 Q456.7842 9.5176 456.7842 12.252 Q456.7842 15.0176 457.2998 16.1504 Q457.8154 17.2832 459.0342 17.2832 Q460.2373 17.2832 460.7529 16.1504 Q461.2686 15.0176 461.2686 12.252 ZM465.0186 12.2832 Q465.0186 15.9082 463.4561 17.877 Q461.8936 19.8457 459.0342 19.8457 Q456.1436 19.8457 454.5811 17.877 Q453.0186 15.9082 453.0186 12.2832 Q453.0186 8.6582 454.5811 6.6895 Q456.1436 4.7207 459.0342 4.7207 Q461.8936 4.7207 463.4561 6.6895 Q465.0186 8.6582 465.0186 12.2832 ZM481.4814 13.5488 Q480.7939 13.5488 480.4111 14.1504 Q480.0283 14.752 480.0283 15.8613 Q480.0283 16.9863 480.4033 17.5879 Q480.7783 18.1895 481.4814 18.1895 Q482.1846 18.1895 482.5518 17.5879 Q482.9189 16.9863 482.9189 15.8613 Q482.9189 14.752 482.5439 14.1504 Q482.1689 13.5488 481.4814 13.5488 ZM481.4814 11.9082 Q483.2939 11.9082 484.3408 12.9629 Q485.3877 14.0176 485.3877 15.8613 Q485.3877 17.7051 484.3408 18.7754 Q483.2939 19.8457 481.4814 19.8457 Q479.6689 19.8457 478.6143 18.7754 Q477.5596 17.7051 477.5596 15.8613 Q477.5596 14.0332 478.6143 12.9707 Q479.6689 11.9082 481.4814 11.9082 ZM472.5283 19.8457 L470.3721 19.8457 L479.4814 4.7207 L481.6533 4.7207 L472.5283 19.8457 ZM470.5283 4.7207 Q472.3408 4.7207 473.3799 5.7832 Q474.4189 6.8457 474.4189 8.6895 Q474.4189 10.5332 473.3799 11.5957 Q472.3408 12.6582 470.5283 12.6582 Q468.7002 12.6582 467.6611 11.5957 Q466.6221 10.5332 466.6221 8.6895 Q466.6221 6.8457 467.6611 5.7832 Q468.7002 4.7207 470.5283 4.7207 ZM470.5283 6.3613 Q469.8252 6.3613 469.4424 6.9629 Q469.0596 7.5645 469.0596 8.6895 Q469.0596 9.8145 469.4424 10.4238 Q469.8252 11.0332 470.5283 11.0332 Q471.2314 11.0332 471.6064 10.4238 Q471.9814 9.8145 471.9814 8.6895 Q471.9814 7.5645 471.5986 6.9629 Q471.2158 6.3613 470.5283 6.3613 ZM500.4834 17.3145 Q501.6084 17.3145 502.2021 16.4941 Q502.7959 15.6738 502.7959 14.1113 Q502.7959 12.5488 502.2021 11.7285 Q501.6084 10.9082 500.4834 10.9082 Q499.3584 10.9082 498.7568 11.7285 Q498.1553 12.5488 498.1553 14.1113 Q498.1553 15.6582 498.7568 16.4863 Q499.3584 17.3145 500.4834 17.3145 ZM498.1553 10.2207 Q498.8896 9.2676 499.7646 8.8145 Q500.6396 8.3613 501.7803 8.3613 Q503.8115 8.3613 505.1084 9.9707 Q506.4053 11.5801 506.4053 14.1113 Q506.4053 16.627 505.1084 18.2363 Q503.8115 19.8457 501.7803 19.8457 Q500.6396 19.8457 499.7646 19.3926 Q498.8896 18.9395 498.1553 17.9863 L498.1553 19.5645 L494.6709 19.5645 L494.6709 4.3613 L498.1553 4.3613 L498.1553 10.2207 ZM507.5498 8.627 L511.0342 8.627 L513.9873 16.0488 L516.4873 8.627 L519.9717 8.627 L515.3779 20.5957 Q514.6904 22.4238 513.7607 23.1504 Q512.8311 23.877 511.3311 23.877 L509.2998 23.877 L509.2998 21.5801 L510.3936 21.5801 Q511.2842 21.5801 511.6904 21.2988 Q512.0967 21.0176 512.3154 20.2832 L512.4248 19.9863 L507.5498 8.627 ZM533.0654 16.7988 L539.4717 16.7988 L539.4717 19.5645 L528.8779 19.5645 L528.8779 16.7988 L534.2061 12.0957 Q534.9248 11.4551 535.2607 10.8379 Q535.5967 10.2207 535.5967 9.5645 Q535.5967 8.5332 534.9092 7.9082 Q534.2217 7.2832 533.0811 7.2832 Q532.2061 7.2832 531.1592 7.6582 Q530.1123 8.0332 528.9248 8.7832 L528.9248 5.5801 Q530.1904 5.1582 531.4326 4.9395 Q532.6748 4.7207 533.8623 4.7207 Q536.4873 4.7207 537.9326 5.8691 Q539.3779 7.0176 539.3779 9.0801 Q539.3779 10.2832 538.7607 11.3066 Q538.1436 12.3301 536.1748 14.0645 L533.0654 16.7988 ZM550.4189 12.252 Q550.4189 9.5176 549.9033 8.4004 Q549.3877 7.2832 548.1846 7.2832 Q546.9658 7.2832 546.4502 8.4004 Q545.9346 9.5176 545.9346 12.252 Q545.9346 15.0176 546.4502 16.1504 Q546.9658 17.2832 548.1846 17.2832 Q549.3877 17.2832 549.9033 16.1504 Q550.4189 15.0176 550.4189 12.252 ZM554.1689 12.2832 Q554.1689 15.9082 552.6064 17.877 Q551.0439 19.8457 548.1846 19.8457 Q545.2939 19.8457 543.7314 17.877 Q542.1689 15.9082 542.1689 12.2832 Q542.1689 8.6582 543.7314 6.6895 Q545.2939 4.7207 548.1846 4.7207 Q551.0439 4.7207 552.6064 6.6895 Q554.1689 8.6582 554.1689 12.2832 ZM557.4756 16.9707 L560.8037 16.9707 L560.8037 7.5488 L557.3818 8.252 L557.3818 5.6895 L560.7725 4.9863 L564.3506 4.9863 L564.3506 16.9707 L567.6787 16.9707 L567.6787 19.5645 L557.4756 19.5645 L557.4756 16.9707 ZM578.3604 11.7051 Q579.8447 12.0801 580.6104 13.0254 Q581.376 13.9707 581.376 15.4238 Q581.376 17.5957 579.7119 18.7207 Q578.0479 19.8457 574.876 19.8457 Q573.751 19.8457 572.6182 19.666 Q571.4854 19.4863 570.3916 19.127 L570.3916 16.2207 Q571.4385 16.752 572.4775 17.0176 Q573.5166 17.2832 574.5322 17.2832 Q576.0166 17.2832 576.8135 16.7676 Q577.6104 16.252 577.6104 15.2832 Q577.6104 14.2832 576.7979 13.7754 Q575.9854 13.2676 574.3916 13.2676 L572.8916 13.2676 L572.8916 10.8457 L574.4697 10.8457 Q575.8916 10.8457 576.5791 10.4004 Q577.2666 9.9551 577.2666 9.0488 Q577.2666 8.2051 576.5947 7.7441 Q575.9229 7.2832 574.6885 7.2832 Q573.7822 7.2832 572.8525 7.4941 Q571.9229 7.7051 571.0166 8.0957 L571.0166 5.3457 Q572.126 5.0332 573.2197 4.877 Q574.3135 4.7207 575.3604 4.7207 Q578.2041 4.7207 579.6182 5.6504 Q581.0322 6.5801 581.0322 8.4551 Q581.0322 9.7363 580.3604 10.5566 Q579.6885 11.377 578.3604 11.7051 Z"/></g><g style="fill:url(#linearGradient1); text-rendering:optimizeLegibility; stroke:url(#linearGradient1);"><rect x="65" width="677" height="421" y="30" style="clip-path:url(#clipPath1); stroke:none;"/></g><g style="fill:rgb(30,172,226); text-rendering:optimizeLegibility; stroke:rgb(30,172,226);" transform="translate(519,81)"><rect x="0" width="25" height="2" y="0" style="clip-path:url(#clipPath5); stroke:none;"/></g><g style="text-rendering:optimizeLegibility;" transform="translate(549,75)"><path style="clip-path:url(#clipPath7); stroke:none;" d="M7.7344 3.0605 L7.7344 4.3105 Q7.125 3.748 6.4531 3.4746 Q5.7812 3.2012 5.0156 3.2012 Q3.5156 3.2012 2.7188 4.123 Q1.9219 5.0449 1.9219 6.7793 Q1.9219 8.498 2.7188 9.4199 Q3.5156 10.3418 5.0156 10.3418 Q5.7812 10.3418 6.4531 10.0605 Q7.125 9.7793 7.7344 9.2324 L7.7344 10.4668 Q7.1094 10.8887 6.4141 11.0996 Q5.7188 11.3105 4.9531 11.3105 Q2.9531 11.3105 1.8125 10.0918 Q0.6719 8.873 0.6719 6.7793 Q0.6719 4.6699 1.8125 3.4512 Q2.9531 2.2324 4.9531 2.2324 Q5.7344 2.2324 6.4297 2.4434 Q7.125 2.6543 7.7344 3.0605 ZM12.4883 7.8418 Q11.1914 7.8418 10.6836 8.1387 Q10.1758 8.4355 10.1758 9.1543 Q10.1758 9.7324 10.5586 10.0684 Q10.9414 10.4043 11.582 10.4043 Q12.4883 10.4043 13.0273 9.7715 Q13.5664 9.1387 13.5664 8.0762 L13.5664 7.8418 L12.4883 7.8418 ZM14.6445 7.3887 L14.6445 11.1387 L13.5664 11.1387 L13.5664 10.1387 Q13.1914 10.7324 12.6445 11.0215 Q12.0977 11.3105 11.3008 11.3105 Q10.2852 11.3105 9.6914 10.7402 Q9.0977 10.1699 9.0977 9.2324 Q9.0977 8.123 9.8398 7.5605 Q10.582 6.998 12.0508 6.998 L13.5664 6.998 L13.5664 6.8887 Q13.5664 6.1387 13.0742 5.7324 Q12.582 5.3262 11.707 5.3262 Q11.1445 5.3262 10.6055 5.4668 Q10.0664 5.6074 9.582 5.873 L9.582 4.873 Q10.1758 4.6387 10.7305 4.5293 Q11.2852 4.4199 11.8164 4.4199 Q13.2383 4.4199 13.9414 5.1543 Q14.6445 5.8887 14.6445 7.3887 ZM22.3262 7.1699 L22.3262 11.1387 L21.248 11.1387 L21.248 7.2168 Q21.248 6.2793 20.8809 5.8184 Q20.5137 5.3574 19.7949 5.3574 Q18.9199 5.3574 18.4121 5.9121 Q17.9043 6.4668 17.9043 7.4355 L17.9043 11.1387 L16.8262 11.1387 L16.8262 4.5762 L17.9043 4.5762 L17.9043 5.5918 Q18.2949 4.998 18.8184 4.709 Q19.3418 4.4199 20.0293 4.4199 Q21.1543 4.4199 21.7402 5.1152 Q22.3262 5.8105 22.3262 7.1699 ZM30.0879 7.5918 L30.0879 8.1074 L25.1191 8.1074 Q25.1973 9.2324 25.7988 9.8105 Q26.4004 10.3887 27.4629 10.3887 Q28.0879 10.3887 28.6738 10.2402 Q29.2598 10.0918 29.8379 9.7793 L29.8379 10.8105 Q29.2441 11.0449 28.6348 11.1777 Q28.0254 11.3105 27.4004 11.3105 Q25.8379 11.3105 24.916 10.3965 Q23.9941 9.4824 23.9941 7.9199 Q23.9941 6.3105 24.8691 5.3652 Q25.7441 4.4199 27.2129 4.4199 Q28.541 4.4199 29.3145 5.2715 Q30.0879 6.123 30.0879 7.5918 ZM29.0098 7.2637 Q28.9941 6.3887 28.5098 5.8574 Q28.0254 5.3262 27.2285 5.3262 Q26.3223 5.3262 25.7832 5.8418 Q25.2441 6.3574 25.166 7.2793 L29.0098 7.2637 Z"/></g><g style="fill:rgb(187,34,51); text-rendering:optimizeLegibility; stroke:rgb(187,34,51);" transform="translate(600,81)"><rect x="0" width="25" height="2" y="0" style="clip-path:url(#clipPath5); stroke:none;"/></g><g style="text-rendering:optimizeLegibility;" transform="translate(630,75)"><path style="clip-path:url(#clipPath9); stroke:none;" d="M1.1719 2.3887 L2.3594 2.3887 L2.3594 5.9824 L6.6562 5.9824 L6.6562 2.3887 L7.8438 2.3887 L7.8438 11.1387 L6.6562 11.1387 L6.6562 6.9668 L2.3594 6.9668 L2.3594 11.1387 L1.1719 11.1387 L1.1719 2.3887 ZM12.6953 5.3262 Q11.8359 5.3262 11.3281 6.0059 Q10.8203 6.6855 10.8203 7.8574 Q10.8203 9.0449 11.3203 9.7168 Q11.8203 10.3887 12.6953 10.3887 Q13.5547 10.3887 14.0625 9.709 Q14.5703 9.0293 14.5703 7.8574 Q14.5703 6.7012 14.0625 6.0137 Q13.5547 5.3262 12.6953 5.3262 ZM12.6953 4.4199 Q14.1016 4.4199 14.9062 5.334 Q15.7109 6.248 15.7109 7.8574 Q15.7109 9.4668 14.9062 10.3887 Q14.1016 11.3105 12.6953 11.3105 Q11.2891 11.3105 10.4844 10.3887 Q9.6797 9.4668 9.6797 7.8574 Q9.6797 6.248 10.4844 5.334 Q11.2891 4.4199 12.6953 4.4199 ZM21.3027 5.5762 Q21.1152 5.4824 20.9043 5.4277 Q20.6934 5.373 20.4277 5.373 Q19.5215 5.373 19.0293 5.9668 Q18.5371 6.5605 18.5371 7.6855 L18.5371 11.1387 L17.459 11.1387 L17.459 4.5762 L18.5371 4.5762 L18.5371 5.5918 Q18.8809 4.998 19.4277 4.709 Q19.9746 4.4199 20.7559 4.4199 Q20.8652 4.4199 20.998 4.4355 Q21.1309 4.4512 21.2871 4.4824 L21.3027 5.5762 ZM23.502 2.7168 L23.502 4.5762 L25.7207 4.5762 L25.7207 5.4199 L23.502 5.4199 L23.502 8.9824 Q23.502 9.7793 23.7207 10.0059 Q23.9395 10.2324 24.6113 10.2324 L25.7207 10.2324 L25.7207 11.1387 L24.6113 11.1387 Q23.3613 11.1387 22.8848 10.6699 Q22.4082 10.2012 22.4082 8.9824 L22.4082 5.4199 L21.627 5.4199 L21.627 4.5762 L22.4082 4.5762 L22.4082 2.7168 L23.502 2.7168 ZM27.1289 4.5762 L28.207 4.5762 L28.207 11.1387 L27.1289 11.1387 L27.1289 4.5762 ZM27.1289 2.0137 L28.207 2.0137 L28.207 3.3887 L27.1289 3.3887 L27.1289 2.0137 ZM35.1973 4.8262 L35.1973 5.8418 Q34.7285 5.5762 34.2754 5.4512 Q33.8223 5.3262 33.3535 5.3262 Q32.291 5.3262 31.7129 5.9902 Q31.1348 6.6543 31.1348 7.8574 Q31.1348 9.0605 31.7129 9.7246 Q32.291 10.3887 33.3535 10.3887 Q33.8223 10.3887 34.2754 10.2637 Q34.7285 10.1387 35.1973 9.8887 L35.1973 10.8887 Q34.7441 11.0918 34.2598 11.2012 Q33.7754 11.3105 33.2285 11.3105 Q31.7441 11.3105 30.8691 10.3809 Q29.9941 9.4512 29.9941 7.8574 Q29.9941 6.2637 30.877 5.3418 Q31.7598 4.4199 33.3066 4.4199 Q33.791 4.4199 34.2676 4.5215 Q34.7441 4.623 35.1973 4.8262 ZM36.9512 8.5449 L36.9512 4.5762 L38.0293 4.5762 L38.0293 8.5137 Q38.0293 9.4355 38.3965 9.9043 Q38.7637 10.373 39.4824 10.373 Q40.3574 10.373 40.8652 9.8184 Q41.373 9.2637 41.373 8.2949 L41.373 4.5762 L42.4512 4.5762 L42.4512 11.1387 L41.373 11.1387 L41.373 10.123 Q40.9824 10.7324 40.4668 11.0215 Q39.9512 11.3105 39.2637 11.3105 Q38.123 11.3105 37.5371 10.6074 Q36.9512 9.9043 36.9512 8.5449 ZM39.6699 4.4199 L39.6699 4.4199 ZM44.666 2.0137 L45.7441 2.0137 L45.7441 11.1387 L44.666 11.1387 L44.666 2.0137 ZM49.0781 2.7168 L49.0781 4.5762 L51.2969 4.5762 L51.2969 5.4199 L49.0781 5.4199 L49.0781 8.9824 Q49.0781 9.7793 49.2969 10.0059 Q49.5156 10.2324 50.1875 10.2324 L51.2969 10.2324 L51.2969 11.1387 L50.1875 11.1387 Q48.9375 11.1387 48.4609 10.6699 Q47.9844 10.2012 47.9844 8.9824 L47.9844 5.4199 L47.2031 5.4199 L47.2031 4.5762 L47.9844 4.5762 L47.9844 2.7168 L49.0781 2.7168 ZM52.5957 8.5449 L52.5957 4.5762 L53.6738 4.5762 L53.6738 8.5137 Q53.6738 9.4355 54.041 9.9043 Q54.4082 10.373 55.127 10.373 Q56.002 10.373 56.5098 9.8184 Q57.0176 9.2637 57.0176 8.2949 L57.0176 4.5762 L58.0957 4.5762 L58.0957 11.1387 L57.0176 11.1387 L57.0176 10.123 Q56.627 10.7324 56.1113 11.0215 Q55.5957 11.3105 54.9082 11.3105 Q53.7676 11.3105 53.1816 10.6074 Q52.5957 9.9043 52.5957 8.5449 ZM55.3145 4.4199 L55.3145 4.4199 ZM64.123 5.5762 Q63.9355 5.4824 63.7246 5.4277 Q63.5137 5.373 63.248 5.373 Q62.3418 5.373 61.8496 5.9668 Q61.3574 6.5605 61.3574 7.6855 L61.3574 11.1387 L60.2793 11.1387 L60.2793 4.5762 L61.3574 4.5762 L61.3574 5.5918 Q61.7012 4.998 62.248 4.709 Q62.7949 4.4199 63.5762 4.4199 Q63.6855 4.4199 63.8184 4.4355 Q63.9512 4.4512 64.1074 4.4824 L64.123 5.5762 ZM70.8691 7.5918 L70.8691 8.1074 L65.9004 8.1074 Q65.9785 9.2324 66.5801 9.8105 Q67.1816 10.3887 68.2441 10.3887 Q68.8691 10.3887 69.4551 10.2402 Q70.041 10.0918 70.6191 9.7793 L70.6191 10.8105 Q70.0254 11.0449 69.416 11.1777 Q68.8066 11.3105 68.1816 11.3105 Q66.6191 11.3105 65.6973 10.3965 Q64.7754 9.4824 64.7754 7.9199 Q64.7754 6.3105 65.6504 5.3652 Q66.5254 4.4199 67.9941 4.4199 Q69.3223 4.4199 70.0957 5.2715 Q70.8691 6.123 70.8691 7.5918 ZM69.791 7.2637 Q69.7754 6.3887 69.291 5.8574 Q68.8066 5.3262 68.0098 5.3262 Q67.1035 5.3262 66.5645 5.8418 Q66.0254 6.3574 65.9473 7.2793 L69.791 7.2637 Z"/></g><g style="fill:gray; text-rendering:optimizeLegibility; stroke:gray;"><line y2="451" style="fill:none; clip-path:url(#clipPath1);" x1="65" x2="742" y1="451"/><path style="fill:rgb(64,64,64); clip-path:url(#clipPath1); stroke:none;" d="M115.8328 465.1387 L119.9734 465.1387 L119.9734 466.1387 L114.4109 466.1387 L114.4109 465.1387 Q115.0828 464.4512 116.2468 463.2715 Q117.4109 462.0918 117.7078 461.748 Q118.2859 461.123 118.5125 460.6777 Q118.739 460.2324 118.739 459.8105 Q118.739 459.1074 118.2468 458.6699 Q117.7547 458.2324 116.9734 458.2324 Q116.4109 458.2324 115.7937 458.4199 Q115.1765 458.6074 114.4734 459.0137 L114.4734 457.8105 Q115.1922 457.5293 115.8093 457.3809 Q116.4265 457.2324 116.9422 457.2324 Q118.3015 457.2324 119.114 457.9121 Q119.9265 458.5918 119.9265 459.7324 Q119.9265 460.2637 119.7234 460.748 Q119.5203 461.2324 118.989 461.8887 Q118.8328 462.0605 118.0515 462.873 Q117.2703 463.6855 115.8328 465.1387 ZM124.9832 458.1699 Q124.0769 458.1699 123.616 459.0684 Q123.155 459.9668 123.155 461.7793 Q123.155 463.5762 123.616 464.4746 Q124.0769 465.373 124.9832 465.373 Q125.905 465.373 126.366 464.4746 Q126.8269 463.5762 126.8269 461.7793 Q126.8269 459.9668 126.366 459.0684 Q125.905 458.1699 124.9832 458.1699 ZM124.9832 457.2324 Q126.4519 457.2324 127.2332 458.3965 Q128.0144 459.5605 128.0144 461.7793 Q128.0144 463.9824 127.2332 465.1465 Q126.4519 466.3105 124.9832 466.3105 Q123.5144 466.3105 122.741 465.1465 Q121.9675 463.9824 121.9675 461.7793 Q121.9675 459.5605 122.741 458.3965 Q123.5144 457.2324 124.9832 457.2324 ZM132.6179 458.1699 Q131.7117 458.1699 131.2507 459.0684 Q130.7898 459.9668 130.7898 461.7793 Q130.7898 463.5762 131.2507 464.4746 Q131.7117 465.373 132.6179 465.373 Q133.5398 465.373 134.0007 464.4746 Q134.4617 463.5762 134.4617 461.7793 Q134.4617 459.9668 134.0007 459.0684 Q133.5398 458.1699 132.6179 458.1699 ZM132.6179 457.2324 Q134.0867 457.2324 134.8679 458.3965 Q135.6492 459.5605 135.6492 461.7793 Q135.6492 463.9824 134.8679 465.1465 Q134.0867 466.3105 132.6179 466.3105 Q131.1492 466.3105 130.3757 465.1465 Q129.6023 463.9824 129.6023 461.7793 Q129.6023 459.5605 130.3757 458.3965 Q131.1492 457.2324 132.6179 457.2324 ZM140.2527 461.9824 Q139.409 461.9824 138.9246 462.4355 Q138.4402 462.8887 138.4402 463.6699 Q138.4402 464.4668 138.9246 464.9199 Q139.409 465.373 140.2527 465.373 Q141.0965 465.373 141.5808 464.9199 Q142.0652 464.4668 142.0652 463.6699 Q142.0652 462.8887 141.5886 462.4355 Q141.1121 461.9824 140.2527 461.9824 ZM139.0652 461.4824 Q138.3152 461.2949 137.8855 460.7715 Q137.4558 460.248 137.4558 459.498 Q137.4558 458.4512 138.2058 457.8418 Q138.9558 457.2324 140.2527 457.2324 Q141.5652 457.2324 142.3074 457.8418 Q143.0496 458.4512 143.0496 459.498 Q143.0496 460.248 142.6277 460.7715 Q142.2058 461.2949 141.4402 461.4824 Q142.2996 461.6855 142.7761 462.2637 Q143.2527 462.8418 143.2527 463.6699 Q143.2527 464.9512 142.4793 465.6309 Q141.7058 466.3105 140.2527 466.3105 Q138.8152 466.3105 138.034 465.6309 Q137.2527 464.9512 137.2527 463.6699 Q137.2527 462.8418 137.7371 462.2637 Q138.2215 461.6855 139.0652 461.4824 ZM138.6433 459.6074 Q138.6433 460.2949 139.0652 460.6699 Q139.4871 461.0449 140.2527 461.0449 Q141.0183 461.0449 141.448 460.6699 Q141.8777 460.2949 141.8777 459.6074 Q141.8777 458.9355 141.448 458.5527 Q141.0183 458.1699 140.2527 458.1699 Q139.4871 458.1699 139.0652 458.5527 Q138.6433 458.9355 138.6433 459.6074 ZM144.6687 462.373 L147.825 462.373 L147.825 463.3262 L144.6687 463.3262 L144.6687 462.373 ZM150.7019 465.1387 L154.8425 465.1387 L154.8425 466.1387 L149.28 466.1387 L149.28 465.1387 Q149.9519 464.4512 151.116 463.2715 Q152.28 462.0918 152.5769 461.748 Q153.155 461.123 153.3816 460.6777 Q153.6082 460.2324 153.6082 459.8105 Q153.6082 459.1074 153.116 458.6699 Q152.6238 458.2324 151.8425 458.2324 Q151.28 458.2324 150.6629 458.4199 Q150.0457 458.6074 149.3425 459.0137 L149.3425 457.8105 Q150.0613 457.5293 150.6785 457.3809 Q151.2957 457.2324 151.8113 457.2324 Q153.1707 457.2324 153.9832 457.9121 Q154.7957 458.5918 154.7957 459.7324 Q154.7957 460.2637 154.5925 460.748 Q154.3894 461.2324 153.8582 461.8887 Q153.7019 462.0605 152.9207 462.873 Q152.1394 463.6855 150.7019 465.1387 ZM159.8523 458.1699 Q158.9461 458.1699 158.4851 459.0684 Q158.0242 459.9668 158.0242 461.7793 Q158.0242 463.5762 158.4851 464.4746 Q158.9461 465.373 159.8523 465.373 Q160.7742 465.373 161.2351 464.4746 Q161.6961 463.5762 161.6961 461.7793 Q161.6961 459.9668 161.2351 459.0684 Q160.7742 458.1699 159.8523 458.1699 ZM159.8523 457.2324 Q161.3211 457.2324 162.1023 458.3965 Q162.8836 459.5605 162.8836 461.7793 Q162.8836 463.9824 162.1023 465.1465 Q161.3211 466.3105 159.8523 466.3105 Q158.3836 466.3105 157.6101 465.1465 Q156.8367 463.9824 156.8367 461.7793 Q156.8367 459.5605 157.6101 458.3965 Q158.3836 457.2324 159.8523 457.2324 ZM167.4871 458.1699 Q166.5808 458.1699 166.1199 459.0684 Q165.659 459.9668 165.659 461.7793 Q165.659 463.5762 166.1199 464.4746 Q166.5808 465.373 167.4871 465.373 Q168.409 465.373 168.8699 464.4746 Q169.3308 463.5762 169.3308 461.7793 Q169.3308 459.9668 168.8699 459.0684 Q168.409 458.1699 167.4871 458.1699 ZM167.4871 457.2324 Q168.9558 457.2324 169.7371 458.3965 Q170.5183 459.5605 170.5183 461.7793 Q170.5183 463.9824 169.7371 465.1465 Q168.9558 466.3105 167.4871 466.3105 Q166.0183 466.3105 165.2449 465.1465 Q164.4715 463.9824 164.4715 461.7793 Q164.4715 459.5605 165.2449 458.3965 Q166.0183 457.2324 167.4871 457.2324 ZM172.6218 465.9512 L172.6218 464.873 Q173.075 465.0918 173.5281 465.2012 Q173.9812 465.3105 174.4343 465.3105 Q175.6062 465.3105 176.2234 464.5215 Q176.8406 463.7324 176.9187 462.123 Q176.5906 462.6387 176.0672 462.9043 Q175.5437 463.1699 174.9031 463.1699 Q173.5906 463.1699 172.825 462.3809 Q172.0593 461.5918 172.0593 460.2012 Q172.0593 458.8574 172.8562 458.0449 Q173.6531 457.2324 174.9812 457.2324 Q176.4968 457.2324 177.3015 458.3965 Q178.1062 459.5605 178.1062 461.7793 Q178.1062 463.8418 177.1218 465.0762 Q176.1375 466.3105 174.4812 466.3105 Q174.0281 466.3105 173.575 466.2246 Q173.1218 466.1387 172.6218 465.9512 ZM174.9812 462.248 Q175.7781 462.248 176.2468 461.7012 Q176.7156 461.1543 176.7156 460.2012 Q176.7156 459.2637 176.2468 458.7168 Q175.7781 458.1699 174.9812 458.1699 Q174.1843 458.1699 173.7234 458.7168 Q173.2625 459.2637 173.2625 460.2012 Q173.2625 461.1543 173.7234 461.7012 Q174.1843 462.248 174.9812 462.248 Z"/></g><g style="fill:rgb(64,64,64); text-rendering:optimizeLegibility; stroke:rgb(64,64,64);"><path style="clip-path:url(#clipPath1); stroke:none;" d="M244.4628 465.1387 L248.6034 465.1387 L248.6034 466.1387 L243.0409 466.1387 L243.0409 465.1387 Q243.7128 464.4512 244.8768 463.2715 Q246.0409 462.0918 246.3378 461.748 Q246.9159 461.123 247.1425 460.6777 Q247.369 460.2324 247.369 459.8105 Q247.369 459.1074 246.8768 458.6699 Q246.3846 458.2324 245.6034 458.2324 Q245.0409 458.2324 244.4237 458.4199 Q243.8065 458.6074 243.1034 459.0137 L243.1034 457.8105 Q243.8221 457.5293 244.4393 457.3809 Q245.0565 457.2324 245.5721 457.2324 Q246.9315 457.2324 247.744 457.9121 Q248.5565 458.5918 248.5565 459.7324 Q248.5565 460.2637 248.3534 460.748 Q248.1503 461.2324 247.619 461.8887 Q247.4628 462.0605 246.6815 462.873 Q245.9003 463.6855 244.4628 465.1387 ZM253.6132 458.1699 Q252.7069 458.1699 252.246 459.0684 Q251.785 459.9668 251.785 461.7793 Q251.785 463.5762 252.246 464.4746 Q252.7069 465.373 253.6132 465.373 Q254.535 465.373 254.996 464.4746 Q255.4569 463.5762 255.4569 461.7793 Q255.4569 459.9668 254.996 459.0684 Q254.535 458.1699 253.6132 458.1699 ZM253.6132 457.2324 Q255.0819 457.2324 255.8632 458.3965 Q256.6444 459.5605 256.6444 461.7793 Q256.6444 463.9824 255.8632 465.1465 Q255.0819 466.3105 253.6132 466.3105 Q252.1444 466.3105 251.371 465.1465 Q250.5975 463.9824 250.5975 461.7793 Q250.5975 459.5605 251.371 458.3965 Q252.1444 457.2324 253.6132 457.2324 ZM261.2479 458.1699 Q260.3417 458.1699 259.8807 459.0684 Q259.4198 459.9668 259.4198 461.7793 Q259.4198 463.5762 259.8807 464.4746 Q260.3417 465.373 261.2479 465.373 Q262.1698 465.373 262.6307 464.4746 Q263.0917 463.5762 263.0917 461.7793 Q263.0917 459.9668 262.6307 459.0684 Q262.1698 458.1699 261.2479 458.1699 ZM261.2479 457.2324 Q262.7167 457.2324 263.4979 458.3965 Q264.2792 459.5605 264.2792 461.7793 Q264.2792 463.9824 263.4979 465.1465 Q262.7167 466.3105 261.2479 466.3105 Q259.7792 466.3105 259.0057 465.1465 Q258.2323 463.9824 258.2323 461.7793 Q258.2323 459.5605 259.0057 458.3965 Q259.7792 457.2324 261.2479 457.2324 ZM266.3827 465.9512 L266.3827 464.873 Q266.8358 465.0918 267.2889 465.2012 Q267.7421 465.3105 268.1952 465.3105 Q269.3671 465.3105 269.9843 464.5215 Q270.6014 463.7324 270.6796 462.123 Q270.3514 462.6387 269.828 462.9043 Q269.3046 463.1699 268.6639 463.1699 Q267.3514 463.1699 266.5858 462.3809 Q265.8202 461.5918 265.8202 460.2012 Q265.8202 458.8574 266.6171 458.0449 Q267.4139 457.2324 268.7421 457.2324 Q270.2577 457.2324 271.0624 458.3965 Q271.8671 459.5605 271.8671 461.7793 Q271.8671 463.8418 270.8827 465.0762 Q269.8983 466.3105 268.2421 466.3105 Q267.7889 466.3105 267.3358 466.2246 Q266.8827 466.1387 266.3827 465.9512 ZM268.7421 462.248 Q269.5389 462.248 270.0077 461.7012 Q270.4764 461.1543 270.4764 460.2012 Q270.4764 459.2637 270.0077 458.7168 Q269.5389 458.1699 268.7421 458.1699 Q267.9452 458.1699 267.4843 458.7168 Q267.0233 459.2637 267.0233 460.2012 Q267.0233 461.1543 267.4843 461.7012 Q267.9452 462.248 268.7421 462.248 ZM273.2987 462.373 L276.455 462.373 L276.455 463.3262 L273.2987 463.3262 L273.2987 462.373 ZM279.3319 465.1387 L283.4725 465.1387 L283.4725 466.1387 L277.91 466.1387 L277.91 465.1387 Q278.5819 464.4512 279.746 463.2715 Q280.91 462.0918 281.2069 461.748 Q281.785 461.123 282.0116 460.6777 Q282.2382 460.2324 282.2382 459.8105 Q282.2382 459.1074 281.746 458.6699 Q281.2538 458.2324 280.4725 458.2324 Q279.91 458.2324 279.2928 458.4199 Q278.6757 458.6074 277.9725 459.0137 L277.9725 457.8105 Q278.6913 457.5293 279.3085 457.3809 Q279.9257 457.2324 280.4413 457.2324 Q281.8007 457.2324 282.6132 457.9121 Q283.4257 458.5918 283.4257 459.7324 Q283.4257 460.2637 283.2225 460.748 Q283.0194 461.2324 282.4882 461.8887 Q282.3319 462.0605 281.5507 462.873 Q280.7694 463.6855 279.3319 465.1387 ZM288.4823 458.1699 Q287.576 458.1699 287.1151 459.0684 Q286.6542 459.9668 286.6542 461.7793 Q286.6542 463.5762 287.1151 464.4746 Q287.576 465.373 288.4823 465.373 Q289.4042 465.373 289.8651 464.4746 Q290.326 463.5762 290.326 461.7793 Q290.326 459.9668 289.8651 459.0684 Q289.4042 458.1699 288.4823 458.1699 ZM288.4823 457.2324 Q289.951 457.2324 290.7323 458.3965 Q291.5135 459.5605 291.5135 461.7793 Q291.5135 463.9824 290.7323 465.1465 Q289.951 466.3105 288.4823 466.3105 Q287.0135 466.3105 286.2401 465.1465 Q285.4667 463.9824 285.4667 461.7793 Q285.4667 459.5605 286.2401 458.3965 Q287.0135 457.2324 288.4823 457.2324 ZM293.7889 465.1387 L295.7264 465.1387 L295.7264 458.4668 L293.6171 458.8887 L293.6171 457.8105 L295.7108 457.3887 L296.8983 457.3887 L296.8983 465.1387 L298.8358 465.1387 L298.8358 466.1387 L293.7889 466.1387 L293.7889 465.1387 ZM303.7518 458.1699 Q302.8456 458.1699 302.3846 459.0684 Q301.9237 459.9668 301.9237 461.7793 Q301.9237 463.5762 302.3846 464.4746 Q302.8456 465.373 303.7518 465.373 Q304.6737 465.373 305.1346 464.4746 Q305.5956 463.5762 305.5956 461.7793 Q305.5956 459.9668 305.1346 459.0684 Q304.6737 458.1699 303.7518 458.1699 ZM303.7518 457.2324 Q305.2206 457.2324 306.0018 458.3965 Q306.7831 459.5605 306.7831 461.7793 Q306.7831 463.9824 306.0018 465.1465 Q305.2206 466.3105 303.7518 466.3105 Q302.2831 466.3105 301.5096 465.1465 Q300.7362 463.9824 300.7362 461.7793 Q300.7362 459.5605 301.5096 458.3965 Q302.2831 457.2324 303.7518 457.2324 Z"/></g><g style="fill:rgb(64,64,64); text-rendering:optimizeLegibility; stroke:rgb(64,64,64);"><path style="clip-path:url(#clipPath1); stroke:none;" d="M373.0928 465.1387 L377.2334 465.1387 L377.2334 466.1387 L371.6709 466.1387 L371.6709 465.1387 Q372.3428 464.4512 373.5068 463.2715 Q374.6709 462.0918 374.9678 461.748 Q375.5459 461.123 375.7725 460.6777 Q375.999 460.2324 375.999 459.8105 Q375.999 459.1074 375.5068 458.6699 Q375.0146 458.2324 374.2334 458.2324 Q373.6709 458.2324 373.0537 458.4199 Q372.4365 458.6074 371.7334 459.0137 L371.7334 457.8105 Q372.4521 457.5293 373.0693 457.3809 Q373.6865 457.2324 374.2021 457.2324 Q375.5615 457.2324 376.374 457.9121 Q377.1865 458.5918 377.1865 459.7324 Q377.1865 460.2637 376.9834 460.748 Q376.7803 461.2324 376.249 461.8887 Q376.0928 462.0605 375.3115 462.873 Q374.5303 463.6855 373.0928 465.1387 ZM382.2432 458.1699 Q381.3369 458.1699 380.876 459.0684 Q380.415 459.9668 380.415 461.7793 Q380.415 463.5762 380.876 464.4746 Q381.3369 465.373 382.2432 465.373 Q383.165 465.373 383.626 464.4746 Q384.0869 463.5762 384.0869 461.7793 Q384.0869 459.9668 383.626 459.0684 Q383.165 458.1699 382.2432 458.1699 ZM382.2432 457.2324 Q383.7119 457.2324 384.4932 458.3965 Q385.2744 459.5605 385.2744 461.7793 Q385.2744 463.9824 384.4932 465.1465 Q383.7119 466.3105 382.2432 466.3105 Q380.7744 466.3105 380.001 465.1465 Q379.2275 463.9824 379.2275 461.7793 Q379.2275 459.5605 380.001 458.3965 Q380.7744 457.2324 382.2432 457.2324 ZM387.5498 465.1387 L389.4873 465.1387 L389.4873 458.4668 L387.3779 458.8887 L387.3779 457.8105 L389.4717 457.3887 L390.6592 457.3887 L390.6592 465.1387 L392.5967 465.1387 L392.5967 466.1387 L387.5498 466.1387 L387.5498 465.1387 ZM397.5127 458.1699 Q396.6064 458.1699 396.1455 459.0684 Q395.6846 459.9668 395.6846 461.7793 Q395.6846 463.5762 396.1455 464.4746 Q396.6064 465.373 397.5127 465.373 Q398.4346 465.373 398.8955 464.4746 Q399.3564 463.5762 399.3564 461.7793 Q399.3564 459.9668 398.8955 459.0684 Q398.4346 458.1699 397.5127 458.1699 ZM397.5127 457.2324 Q398.9814 457.2324 399.7627 458.3965 Q400.5439 459.5605 400.5439 461.7793 Q400.5439 463.9824 399.7627 465.1465 Q398.9814 466.3105 397.5127 466.3105 Q396.0439 466.3105 395.2705 465.1465 Q394.4971 463.9824 394.4971 461.7793 Q394.4971 459.5605 395.2705 458.3965 Q396.0439 457.2324 397.5127 457.2324 ZM401.9287 462.373 L405.085 462.373 L405.085 463.3262 L401.9287 463.3262 L401.9287 462.373 ZM407.9619 465.1387 L412.1025 465.1387 L412.1025 466.1387 L406.54 466.1387 L406.54 465.1387 Q407.2119 464.4512 408.376 463.2715 Q409.54 462.0918 409.8369 461.748 Q410.415 461.123 410.6416 460.6777 Q410.8682 460.2324 410.8682 459.8105 Q410.8682 459.1074 410.376 458.6699 Q409.8838 458.2324 409.1025 458.2324 Q408.54 458.2324 407.9229 458.4199 Q407.3057 458.6074 406.6025 459.0137 L406.6025 457.8105 Q407.3213 457.5293 407.9385 457.3809 Q408.5557 457.2324 409.0713 457.2324 Q410.4307 457.2324 411.2432 457.9121 Q412.0557 458.5918 412.0557 459.7324 Q412.0557 460.2637 411.8525 460.748 Q411.6494 461.2324 411.1182 461.8887 Q410.9619 462.0605 410.1807 462.873 Q409.3994 463.6855 407.9619 465.1387 ZM417.1123 458.1699 Q416.2061 458.1699 415.7451 459.0684 Q415.2842 459.9668 415.2842 461.7793 Q415.2842 463.5762 415.7451 464.4746 Q416.2061 465.373 417.1123 465.373 Q418.0342 465.373 418.4951 464.4746 Q418.9561 463.5762 418.9561 461.7793 Q418.9561 459.9668 418.4951 459.0684 Q418.0342 458.1699 417.1123 458.1699 ZM417.1123 457.2324 Q418.5811 457.2324 419.3623 458.3965 Q420.1436 459.5605 420.1436 461.7793 Q420.1436 463.9824 419.3623 465.1465 Q418.5811 466.3105 417.1123 466.3105 Q415.6436 466.3105 414.8701 465.1465 Q414.0967 463.9824 414.0967 461.7793 Q414.0967 459.5605 414.8701 458.3965 Q415.6436 457.2324 417.1123 457.2324 ZM422.4189 465.1387 L424.3564 465.1387 L424.3564 458.4668 L422.2471 458.8887 L422.2471 457.8105 L424.3408 457.3887 L425.5283 457.3887 L425.5283 465.1387 L427.4658 465.1387 L427.4658 466.1387 L422.4189 466.1387 L422.4189 465.1387 ZM430.0537 465.1387 L431.9912 465.1387 L431.9912 458.4668 L429.8818 458.8887 L429.8818 457.8105 L431.9756 457.3887 L433.1631 457.3887 L433.1631 465.1387 L435.1006 465.1387 L435.1006 466.1387 L430.0537 466.1387 L430.0537 465.1387 Z"/></g><g style="fill:rgb(64,64,64); text-rendering:optimizeLegibility; stroke:rgb(64,64,64);"><path style="clip-path:url(#clipPath1); stroke:none;" d="M501.7228 465.1387 L505.8634 465.1387 L505.8634 466.1387 L500.3009 466.1387 L500.3009 465.1387 Q500.9728 464.4512 502.1368 463.2715 Q503.3009 462.0918 503.5978 461.748 Q504.1759 461.123 504.4025 460.6777 Q504.629 460.2324 504.629 459.8105 Q504.629 459.1074 504.1368 458.6699 Q503.6447 458.2324 502.8634 458.2324 Q502.3009 458.2324 501.6837 458.4199 Q501.0665 458.6074 500.3634 459.0137 L500.3634 457.8105 Q501.0822 457.5293 501.6993 457.3809 Q502.3165 457.2324 502.8322 457.2324 Q504.1915 457.2324 505.004 457.9121 Q505.8165 458.5918 505.8165 459.7324 Q505.8165 460.2637 505.6134 460.748 Q505.4103 461.2324 504.879 461.8887 Q504.7228 462.0605 503.9415 462.873 Q503.1603 463.6855 501.7228 465.1387 ZM510.8732 458.1699 Q509.9669 458.1699 509.506 459.0684 Q509.045 459.9668 509.045 461.7793 Q509.045 463.5762 509.506 464.4746 Q509.9669 465.373 510.8732 465.373 Q511.795 465.373 512.256 464.4746 Q512.7169 463.5762 512.7169 461.7793 Q512.7169 459.9668 512.256 459.0684 Q511.795 458.1699 510.8732 458.1699 ZM510.8732 457.2324 Q512.3419 457.2324 513.1232 458.3965 Q513.9044 459.5605 513.9044 461.7793 Q513.9044 463.9824 513.1232 465.1465 Q512.3419 466.3105 510.8732 466.3105 Q509.4044 466.3105 508.631 465.1465 Q507.8575 463.9824 507.8575 461.7793 Q507.8575 459.5605 508.631 458.3965 Q509.4044 457.2324 510.8732 457.2324 ZM516.1798 465.1387 L518.1173 465.1387 L518.1173 458.4668 L516.0079 458.8887 L516.0079 457.8105 L518.1017 457.3887 L519.2892 457.3887 L519.2892 465.1387 L521.2267 465.1387 L521.2267 466.1387 L516.1798 466.1387 L516.1798 465.1387 ZM523.8146 465.1387 L525.7521 465.1387 L525.7521 458.4668 L523.6427 458.8887 L523.6427 457.8105 L525.7365 457.3887 L526.924 457.3887 L526.924 465.1387 L528.8615 465.1387 L528.8615 466.1387 L523.8146 466.1387 L523.8146 465.1387 ZM530.5587 462.373 L533.715 462.373 L533.715 463.3262 L530.5587 463.3262 L530.5587 462.373 ZM536.5919 465.1387 L540.7325 465.1387 L540.7325 466.1387 L535.17 466.1387 L535.17 465.1387 Q535.8419 464.4512 537.006 463.2715 Q538.17 462.0918 538.4669 461.748 Q539.045 461.123 539.2716 460.6777 Q539.4982 460.2324 539.4982 459.8105 Q539.4982 459.1074 539.006 458.6699 Q538.5138 458.2324 537.7325 458.2324 Q537.17 458.2324 536.5529 458.4199 Q535.9357 458.6074 535.2325 459.0137 L535.2325 457.8105 Q535.9513 457.5293 536.5685 457.3809 Q537.1857 457.2324 537.7013 457.2324 Q539.0607 457.2324 539.8732 457.9121 Q540.6857 458.5918 540.6857 459.7324 Q540.6857 460.2637 540.4825 460.748 Q540.2794 461.2324 539.7482 461.8887 Q539.5919 462.0605 538.8107 462.873 Q538.0294 463.6855 536.5919 465.1387 ZM545.7423 458.1699 Q544.8361 458.1699 544.3751 459.0684 Q543.9142 459.9668 543.9142 461.7793 Q543.9142 463.5762 544.3751 464.4746 Q544.8361 465.373 545.7423 465.373 Q546.6642 465.373 547.1251 464.4746 Q547.5861 463.5762 547.5861 461.7793 Q547.5861 459.9668 547.1251 459.0684 Q546.6642 458.1699 545.7423 458.1699 ZM545.7423 457.2324 Q547.2111 457.2324 547.9923 458.3965 Q548.7736 459.5605 548.7736 461.7793 Q548.7736 463.9824 547.9923 465.1465 Q547.2111 466.3105 545.7423 466.3105 Q544.2736 466.3105 543.5001 465.1465 Q542.7267 463.9824 542.7267 461.7793 Q542.7267 459.5605 543.5001 458.3965 Q544.2736 457.2324 545.7423 457.2324 ZM551.049 465.1387 L552.9865 465.1387 L552.9865 458.4668 L550.8771 458.8887 L550.8771 457.8105 L552.9708 457.3887 L554.1583 457.3887 L554.1583 465.1387 L556.0958 465.1387 L556.0958 466.1387 L551.049 466.1387 L551.049 465.1387 ZM559.4962 465.1387 L563.6368 465.1387 L563.6368 466.1387 L558.0743 466.1387 L558.0743 465.1387 Q558.7462 464.4512 559.9103 463.2715 Q561.0743 462.0918 561.3712 461.748 Q561.9493 461.123 562.1759 460.6777 Q562.4025 460.2324 562.4025 459.8105 Q562.4025 459.1074 561.9103 458.6699 Q561.4181 458.2324 560.6368 458.2324 Q560.0743 458.2324 559.4572 458.4199 Q558.84 458.6074 558.1368 459.0137 L558.1368 457.8105 Q558.8556 457.5293 559.4728 457.3809 Q560.09 457.2324 560.6056 457.2324 Q561.965 457.2324 562.7775 457.9121 Q563.59 458.5918 563.59 459.7324 Q563.59 460.2637 563.3868 460.748 Q563.1837 461.2324 562.6525 461.8887 Q562.4962 462.0605 561.715 462.873 Q560.9337 463.6855 559.4962 465.1387 Z"/></g><g style="fill:rgb(64,64,64); text-rendering:optimizeLegibility; stroke:rgb(64,64,64);"><path style="clip-path:url(#clipPath1); stroke:none;" d="M630.3528 465.1387 L634.4934 465.1387 L634.4934 466.1387 L628.9309 466.1387 L628.9309 465.1387 Q629.6028 464.4512 630.7668 463.2715 Q631.9309 462.0918 632.2278 461.748 Q632.8059 461.123 633.0325 460.6777 Q633.259 460.2324 633.259 459.8105 Q633.259 459.1074 632.7668 458.6699 Q632.2747 458.2324 631.4934 458.2324 Q630.9309 458.2324 630.3137 458.4199 Q629.6965 458.6074 628.9934 459.0137 L628.9934 457.8105 Q629.7122 457.5293 630.3293 457.3809 Q630.9465 457.2324 631.4622 457.2324 Q632.8215 457.2324 633.634 457.9121 Q634.4465 458.5918 634.4465 459.7324 Q634.4465 460.2637 634.2434 460.748 Q634.0403 461.2324 633.509 461.8887 Q633.3528 462.0605 632.5715 462.873 Q631.7903 463.6855 630.3528 465.1387 ZM639.5032 458.1699 Q638.5969 458.1699 638.136 459.0684 Q637.675 459.9668 637.675 461.7793 Q637.675 463.5762 638.136 464.4746 Q638.5969 465.373 639.5032 465.373 Q640.425 465.373 640.886 464.4746 Q641.3469 463.5762 641.3469 461.7793 Q641.3469 459.9668 640.886 459.0684 Q640.425 458.1699 639.5032 458.1699 ZM639.5032 457.2324 Q640.9719 457.2324 641.7532 458.3965 Q642.5344 459.5605 642.5344 461.7793 Q642.5344 463.9824 641.7532 465.1465 Q640.9719 466.3105 639.5032 466.3105 Q638.0344 466.3105 637.261 465.1465 Q636.4875 463.9824 636.4875 461.7793 Q636.4875 459.5605 637.261 458.3965 Q638.0344 457.2324 639.5032 457.2324 ZM644.8098 465.1387 L646.7473 465.1387 L646.7473 458.4668 L644.6379 458.8887 L644.6379 457.8105 L646.7317 457.3887 L647.9192 457.3887 L647.9192 465.1387 L649.8567 465.1387 L649.8567 466.1387 L644.8098 466.1387 L644.8098 465.1387 ZM653.2571 465.1387 L657.3977 465.1387 L657.3977 466.1387 L651.8352 466.1387 L651.8352 465.1387 Q652.5071 464.4512 653.6711 463.2715 Q654.8352 462.0918 655.1321 461.748 Q655.7102 461.123 655.9368 460.6777 Q656.1633 460.2324 656.1633 459.8105 Q656.1633 459.1074 655.6711 458.6699 Q655.179 458.2324 654.3977 458.2324 Q653.8352 458.2324 653.218 458.4199 Q652.6008 458.6074 651.8977 459.0137 L651.8977 457.8105 Q652.6165 457.5293 653.2336 457.3809 Q653.8508 457.2324 654.3665 457.2324 Q655.7258 457.2324 656.5383 457.9121 Q657.3508 458.5918 657.3508 459.7324 Q657.3508 460.2637 657.1477 460.748 Q656.9446 461.2324 656.4133 461.8887 Q656.2571 462.0605 655.4758 462.873 Q654.6946 463.6855 653.2571 465.1387 ZM659.1887 462.373 L662.345 462.373 L662.345 463.3262 L659.1887 463.3262 L659.1887 462.373 ZM664.4094 465.1387 L666.3469 465.1387 L666.3469 458.4668 L664.2375 458.8887 L664.2375 457.8105 L666.3313 457.3887 L667.5188 457.3887 L667.5188 465.1387 L669.4563 465.1387 L669.4563 466.1387 L664.4094 466.1387 L664.4094 465.1387 ZM674.3723 458.1699 Q673.4661 458.1699 673.0051 459.0684 Q672.5442 459.9668 672.5442 461.7793 Q672.5442 463.5762 673.0051 464.4746 Q673.4661 465.373 674.3723 465.373 Q675.2942 465.373 675.7551 464.4746 Q676.2161 463.5762 676.2161 461.7793 Q676.2161 459.9668 675.7551 459.0684 Q675.2942 458.1699 674.3723 458.1699 ZM674.3723 457.2324 Q675.8411 457.2324 676.6223 458.3965 Q677.4036 459.5605 677.4036 461.7793 Q677.4036 463.9824 676.6223 465.1465 Q675.8411 466.3105 674.3723 466.3105 Q672.9036 466.3105 672.1301 465.1465 Q671.3567 463.9824 671.3567 461.7793 Q671.3567 459.5605 672.1301 458.3965 Q672.9036 457.2324 674.3723 457.2324 ZM679.679 465.1387 L681.6165 465.1387 L681.6165 458.4668 L679.5071 458.8887 L679.5071 457.8105 L681.6008 457.3887 L682.7883 457.3887 L682.7883 465.1387 L684.7258 465.1387 L684.7258 466.1387 L679.679 466.1387 L679.679 465.1387 ZM690.7043 461.4199 Q691.5481 461.6074 692.0247 462.1777 Q692.5012 462.748 692.5012 463.5918 Q692.5012 464.8887 691.6106 465.5996 Q690.72 466.3105 689.0793 466.3105 Q688.5325 466.3105 687.9465 466.2012 Q687.3606 466.0918 686.7512 465.873 L686.7512 464.7324 Q687.2356 465.0137 687.8215 465.1621 Q688.4075 465.3105 689.0481 465.3105 Q690.1575 465.3105 690.7434 464.873 Q691.3293 464.4355 691.3293 463.5918 Q691.3293 462.8262 690.7825 462.3887 Q690.2356 461.9512 689.2825 461.9512 L688.2512 461.9512 L688.2512 460.9824 L689.3293 460.9824 Q690.1887 460.9824 690.6575 460.6309 Q691.1262 460.2793 691.1262 459.623 Q691.1262 458.9512 690.6497 458.5918 Q690.1731 458.2324 689.2825 458.2324 Q688.7825 458.2324 688.2278 458.334 Q687.6731 458.4355 687.0012 458.6543 L687.0012 457.6074 Q687.6887 457.4199 688.2747 457.3262 Q688.8606 457.2324 689.3762 457.2324 Q690.7356 457.2324 691.5168 457.8418 Q692.2981 458.4512 692.2981 459.498 Q692.2981 460.2324 691.884 460.7324 Q691.47 461.2324 690.7043 461.4199 Z"/></g><g style="fill:rgb(64,64,64); text-rendering:optimizeLegibility; font-size:14; font-weight:bold; stroke:rgb(64,64,64);"><path style="clip-path:url(#clipPath1); stroke:none;" d="M382.019 481.3076 L384.4722 481.3076 L386.519 486.4951 L388.269 481.3076 L390.7222 481.3076 L387.5034 489.6826 Q387.019 490.9639 386.3706 491.4717 Q385.7222 491.9795 384.6597 491.9795 L383.2534 491.9795 L383.2534 490.3857 L384.019 490.3857 Q384.644 490.3857 384.9253 490.1826 Q385.2065 489.9795 385.3628 489.4639 L385.4253 489.2607 L382.019 481.3076 ZM399.7856 485.1201 L399.7856 485.8076 L394.0669 485.8076 Q394.1606 486.667 394.6919 487.1045 Q395.2231 487.542 396.1763 487.542 Q396.9575 487.542 397.77 487.3076 Q398.5825 487.0732 399.4263 486.6045 L399.4263 488.4951 Q398.5669 488.8232 397.6997 488.9951 Q396.8325 489.167 395.9575 489.167 Q393.8794 489.167 392.731 488.1045 Q391.5825 487.042 391.5825 485.1357 Q391.5825 483.2764 392.7075 482.1982 Q393.8325 481.1201 395.8169 481.1201 Q397.6294 481.1201 398.7075 482.2061 Q399.7856 483.292 399.7856 485.1201 ZM397.27 484.3076 Q397.27 483.6045 396.8638 483.1748 Q396.4575 482.7451 395.8013 482.7451 Q395.0981 482.7451 394.6528 483.1436 Q394.2075 483.542 394.0981 484.3076 L397.27 484.3076 ZM405.0776 485.5107 Q404.312 485.5107 403.9214 485.7764 Q403.5308 486.042 403.5308 486.542 Q403.5308 487.0107 403.8433 487.2764 Q404.1558 487.542 404.7183 487.542 Q405.4058 487.542 405.8745 487.042 Q406.3433 486.542 406.3433 485.792 L406.3433 485.5107 L405.0776 485.5107 ZM408.812 484.5889 L408.812 488.9639 L406.3433 488.9639 L406.3433 487.8232 Q405.8589 488.5264 405.2417 488.8467 Q404.6245 489.167 403.7495 489.167 Q402.5464 489.167 401.812 488.4717 Q401.0776 487.7764 401.0776 486.667 Q401.0776 485.3232 401.9995 484.6904 Q402.9214 484.0576 404.9058 484.0576 L406.3433 484.0576 L406.3433 483.8701 Q406.3433 483.292 405.8901 483.0186 Q405.437 482.7451 404.4683 482.7451 Q403.6714 482.7451 402.9995 482.9014 Q402.3276 483.0576 401.7339 483.3857 L401.7339 481.5107 Q402.5308 481.3232 403.3198 481.2217 Q404.1089 481.1201 404.9058 481.1201 Q406.9839 481.1201 407.8979 481.9404 Q408.812 482.7607 408.812 484.5889 ZM416.7749 483.3857 Q416.4624 483.2451 416.1421 483.1748 Q415.8218 483.1045 415.4937 483.1045 Q414.5562 483.1045 414.0483 483.7061 Q413.5405 484.3076 413.5405 485.4326 L413.5405 488.9639 L411.0874 488.9639 L411.0874 481.3076 L413.5405 481.3076 L413.5405 482.5576 Q414.0093 481.8076 414.6187 481.4639 Q415.228 481.1201 416.0874 481.1201 Q416.2124 481.1201 416.353 481.1279 Q416.4937 481.1357 416.7749 481.1826 L416.7749 483.3857 ZM423.9761 481.542 L423.9761 483.4014 Q423.1948 483.0732 422.4604 482.9092 Q421.7261 482.7451 421.0854 482.7451 Q420.3823 482.7451 420.0464 482.9248 Q419.7104 483.1045 419.7104 483.4639 Q419.7104 483.7607 419.9604 483.917 Q420.2104 484.0732 420.8823 484.1514 L421.3042 484.1982 Q423.1948 484.4482 423.8433 484.9951 Q424.4917 485.542 424.4917 486.7139 Q424.4917 487.9326 423.5854 488.5498 Q422.6792 489.167 420.8979 489.167 Q420.1323 489.167 419.3276 489.042 Q418.5229 488.917 417.6636 488.6826 L417.6636 486.8232 Q418.3979 487.1826 419.1636 487.3623 Q419.9292 487.542 420.7261 487.542 Q421.4448 487.542 421.8042 487.3389 Q422.1636 487.1357 422.1636 486.7451 Q422.1636 486.417 421.9136 486.2607 Q421.6636 486.1045 420.9292 486.0107 L420.4917 485.9482 Q418.8511 485.7451 418.1948 485.1904 Q417.5386 484.6357 417.5386 483.5107 Q417.5386 482.292 418.3745 481.7061 Q419.2104 481.1201 420.9292 481.1201 Q421.6167 481.1201 422.3589 481.2217 Q423.1011 481.3232 423.9761 481.542 Z"/></g><g style="fill:gray; text-rendering:optimizeLegibility; font-size:14; font-weight:bold; stroke:gray;"><line y2="451" style="fill:none; clip-path:url(#clipPath1);" x1="65" x2="65" y1="30"/></g><g style="fill:rgb(64,64,64); text-rendering:optimizeLegibility; stroke:rgb(64,64,64);"><path style="clip-path:url(#clipPath1); stroke:none;" d="M43.7754 447.1855 Q42.8691 447.1855 42.4082 448.084 Q41.9473 448.9824 41.9473 450.7949 Q41.9473 452.5918 42.4082 453.4902 Q42.8691 454.3887 43.7754 454.3887 Q44.6973 454.3887 45.1582 453.4902 Q45.6191 452.5918 45.6191 450.7949 Q45.6191 448.9824 45.1582 448.084 Q44.6973 447.1855 43.7754 447.1855 ZM43.7754 446.248 Q45.2441 446.248 46.0254 447.4121 Q46.8066 448.5762 46.8066 450.7949 Q46.8066 452.998 46.0254 454.1621 Q45.2441 455.3262 43.7754 455.3262 Q42.3066 455.3262 41.5332 454.1621 Q40.7598 452.998 40.7598 450.7949 Q40.7598 448.5762 41.5332 447.4121 Q42.3066 446.248 43.7754 446.248 ZM56.3164 451.3105 Q55.8164 451.3105 55.5273 451.7402 Q55.2383 452.1699 55.2383 452.9512 Q55.2383 453.7012 55.5273 454.1387 Q55.8164 454.5762 56.3164 454.5762 Q56.8164 454.5762 57.1055 454.1387 Q57.3945 453.7012 57.3945 452.9512 Q57.3945 452.1699 57.1055 451.7402 Q56.8164 451.3105 56.3164 451.3105 ZM56.3164 450.5605 Q57.2539 450.5605 57.793 451.2012 Q58.332 451.8418 58.332 452.9512 Q58.332 454.0449 57.7852 454.6855 Q57.2383 455.3262 56.3164 455.3262 Q55.3789 455.3262 54.8398 454.6855 Q54.3008 454.0449 54.3008 452.9512 Q54.3008 451.8418 54.8477 451.2012 Q55.3945 450.5605 56.3164 450.5605 ZM50.2695 446.998 Q49.7695 446.998 49.4805 447.4277 Q49.1914 447.8574 49.1914 448.623 Q49.1914 449.4043 49.4805 449.834 Q49.7695 450.2637 50.2695 450.2637 Q50.7852 450.2637 51.0742 449.834 Q51.3633 449.4043 51.3633 448.623 Q51.3633 447.873 51.0742 447.4355 Q50.7852 446.998 50.2695 446.998 ZM55.5664 446.248 L56.5039 446.248 L51.0352 455.3262 L50.0977 455.3262 L55.5664 446.248 ZM50.2695 446.248 Q51.207 446.248 51.7539 446.8887 Q52.3008 447.5293 52.3008 448.623 Q52.3008 449.7324 51.7539 450.373 Q51.207 451.0137 50.2695 451.0137 Q49.3477 451.0137 48.8008 450.373 Q48.2539 449.7324 48.2539 448.623 Q48.2539 447.5293 48.8008 446.8887 Q49.3477 446.248 50.2695 446.248 Z"/></g><g style="fill:rgb(64,64,64); text-rendering:optimizeLegibility; stroke:rgb(64,64,64);"><path style="clip-path:url(#clipPath1); stroke:none;" d="M33.8125 401.5293 L35.75 401.5293 L35.75 394.8574 L33.6406 395.2793 L33.6406 394.2012 L35.7344 393.7793 L36.9219 393.7793 L36.9219 401.5293 L38.8594 401.5293 L38.8594 402.5293 L33.8125 402.5293 L33.8125 401.5293 ZM43.7754 394.5605 Q42.8691 394.5605 42.4082 395.459 Q41.9473 396.3574 41.9473 398.1699 Q41.9473 399.9668 42.4082 400.8652 Q42.8691 401.7637 43.7754 401.7637 Q44.6973 401.7637 45.1582 400.8652 Q45.6191 399.9668 45.6191 398.1699 Q45.6191 396.3574 45.1582 395.459 Q44.6973 394.5605 43.7754 394.5605 ZM43.7754 393.623 Q45.2441 393.623 46.0254 394.7871 Q46.8066 395.9512 46.8066 398.1699 Q46.8066 400.373 46.0254 401.5371 Q45.2441 402.7012 43.7754 402.7012 Q42.3066 402.7012 41.5332 401.5371 Q40.7598 400.373 40.7598 398.1699 Q40.7598 395.9512 41.5332 394.7871 Q42.3066 393.623 43.7754 393.623 ZM56.3164 398.6855 Q55.8164 398.6855 55.5273 399.1152 Q55.2383 399.5449 55.2383 400.3262 Q55.2383 401.0762 55.5273 401.5137 Q55.8164 401.9512 56.3164 401.9512 Q56.8164 401.9512 57.1055 401.5137 Q57.3945 401.0762 57.3945 400.3262 Q57.3945 399.5449 57.1055 399.1152 Q56.8164 398.6855 56.3164 398.6855 ZM56.3164 397.9355 Q57.2539 397.9355 57.793 398.5762 Q58.332 399.2168 58.332 400.3262 Q58.332 401.4199 57.7852 402.0605 Q57.2383 402.7012 56.3164 402.7012 Q55.3789 402.7012 54.8398 402.0605 Q54.3008 401.4199 54.3008 400.3262 Q54.3008 399.2168 54.8477 398.5762 Q55.3945 397.9355 56.3164 397.9355 ZM50.2695 394.373 Q49.7695 394.373 49.4805 394.8027 Q49.1914 395.2324 49.1914 395.998 Q49.1914 396.7793 49.4805 397.209 Q49.7695 397.6387 50.2695 397.6387 Q50.7852 397.6387 51.0742 397.209 Q51.3633 396.7793 51.3633 395.998 Q51.3633 395.248 51.0742 394.8105 Q50.7852 394.373 50.2695 394.373 ZM55.5664 393.623 L56.5039 393.623 L51.0352 402.7012 L50.0977 402.7012 L55.5664 393.623 ZM50.2695 393.623 Q51.207 393.623 51.7539 394.2637 Q52.3008 394.9043 52.3008 395.998 Q52.3008 397.1074 51.7539 397.748 Q51.207 398.3887 50.2695 398.3887 Q49.3477 398.3887 48.8008 397.748 Q48.2539 397.1074 48.2539 395.998 Q48.2539 394.9043 48.8008 394.2637 Q49.3477 393.623 50.2695 393.623 Z"/></g><g style="fill:rgb(64,64,64); text-rendering:optimizeLegibility; stroke:rgb(64,64,64);"><path style="clip-path:url(#clipPath1); stroke:none;" d="M34.625 348.9043 L38.7656 348.9043 L38.7656 349.9043 L33.2031 349.9043 L33.2031 348.9043 Q33.875 348.2168 35.0391 347.0371 Q36.2031 345.8574 36.5 345.5137 Q37.0781 344.8887 37.3047 344.4434 Q37.5312 343.998 37.5312 343.5762 Q37.5312 342.873 37.0391 342.4355 Q36.5469 341.998 35.7656 341.998 Q35.2031 341.998 34.5859 342.1855 Q33.9688 342.373 33.2656 342.7793 L33.2656 341.5762 Q33.9844 341.2949 34.6016 341.1465 Q35.2188 340.998 35.7344 340.998 Q37.0938 340.998 37.9062 341.6777 Q38.7188 342.3574 38.7188 343.498 Q38.7188 344.0293 38.5156 344.5137 Q38.3125 344.998 37.7812 345.6543 Q37.625 345.8262 36.8438 346.6387 Q36.0625 347.4512 34.625 348.9043 ZM43.7754 341.9355 Q42.8691 341.9355 42.4082 342.834 Q41.9473 343.7324 41.9473 345.5449 Q41.9473 347.3418 42.4082 348.2402 Q42.8691 349.1387 43.7754 349.1387 Q44.6973 349.1387 45.1582 348.2402 Q45.6191 347.3418 45.6191 345.5449 Q45.6191 343.7324 45.1582 342.834 Q44.6973 341.9355 43.7754 341.9355 ZM43.7754 340.998 Q45.2441 340.998 46.0254 342.1621 Q46.8066 343.3262 46.8066 345.5449 Q46.8066 347.748 46.0254 348.9121 Q45.2441 350.0762 43.7754 350.0762 Q42.3066 350.0762 41.5332 348.9121 Q40.7598 347.748 40.7598 345.5449 Q40.7598 343.3262 41.5332 342.1621 Q42.3066 340.998 43.7754 340.998 ZM56.3164 346.0605 Q55.8164 346.0605 55.5273 346.4902 Q55.2383 346.9199 55.2383 347.7012 Q55.2383 348.4512 55.5273 348.8887 Q55.8164 349.3262 56.3164 349.3262 Q56.8164 349.3262 57.1055 348.8887 Q57.3945 348.4512 57.3945 347.7012 Q57.3945 346.9199 57.1055 346.4902 Q56.8164 346.0605 56.3164 346.0605 ZM56.3164 345.3105 Q57.2539 345.3105 57.793 345.9512 Q58.332 346.5918 58.332 347.7012 Q58.332 348.7949 57.7852 349.4355 Q57.2383 350.0762 56.3164 350.0762 Q55.3789 350.0762 54.8398 349.4355 Q54.3008 348.7949 54.3008 347.7012 Q54.3008 346.5918 54.8477 345.9512 Q55.3945 345.3105 56.3164 345.3105 ZM50.2695 341.748 Q49.7695 341.748 49.4805 342.1777 Q49.1914 342.6074 49.1914 343.373 Q49.1914 344.1543 49.4805 344.584 Q49.7695 345.0137 50.2695 345.0137 Q50.7852 345.0137 51.0742 344.584 Q51.3633 344.1543 51.3633 343.373 Q51.3633 342.623 51.0742 342.1855 Q50.7852 341.748 50.2695 341.748 ZM55.5664 340.998 L56.5039 340.998 L51.0352 350.0762 L50.0977 350.0762 L55.5664 340.998 ZM50.2695 340.998 Q51.207 340.998 51.7539 341.6387 Q52.3008 342.2793 52.3008 343.373 Q52.3008 344.4824 51.7539 345.123 Q51.207 345.7637 50.2695 345.7637 Q49.3477 345.7637 48.8008 345.123 Q48.2539 344.4824 48.2539 343.373 Q48.2539 342.2793 48.8008 341.6387 Q49.3477 340.998 50.2695 340.998 Z"/></g><g style="fill:rgb(64,64,64); text-rendering:optimizeLegibility; stroke:rgb(64,64,64);"><path style="clip-path:url(#clipPath1); stroke:none;" d="M37.2031 292.5605 Q38.0469 292.748 38.5234 293.3184 Q39 293.8887 39 294.7324 Q39 296.0293 38.1094 296.7402 Q37.2188 297.4512 35.5781 297.4512 Q35.0312 297.4512 34.4453 297.3418 Q33.8594 297.2324 33.25 297.0137 L33.25 295.873 Q33.7344 296.1543 34.3203 296.3027 Q34.9062 296.4512 35.5469 296.4512 Q36.6562 296.4512 37.2422 296.0137 Q37.8281 295.5762 37.8281 294.7324 Q37.8281 293.9668 37.2812 293.5293 Q36.7344 293.0918 35.7812 293.0918 L34.75 293.0918 L34.75 292.123 L35.8281 292.123 Q36.6875 292.123 37.1562 291.7715 Q37.625 291.4199 37.625 290.7637 Q37.625 290.0918 37.1484 289.7324 Q36.6719 289.373 35.7812 289.373 Q35.2812 289.373 34.7266 289.4746 Q34.1719 289.5762 33.5 289.7949 L33.5 288.748 Q34.1875 288.5605 34.7734 288.4668 Q35.3594 288.373 35.875 288.373 Q37.2344 288.373 38.0156 288.9824 Q38.7969 289.5918 38.7969 290.6387 Q38.7969 291.373 38.3828 291.873 Q37.9688 292.373 37.2031 292.5605 ZM43.7754 289.3105 Q42.8691 289.3105 42.4082 290.209 Q41.9473 291.1074 41.9473 292.9199 Q41.9473 294.7168 42.4082 295.6152 Q42.8691 296.5137 43.7754 296.5137 Q44.6973 296.5137 45.1582 295.6152 Q45.6191 294.7168 45.6191 292.9199 Q45.6191 291.1074 45.1582 290.209 Q44.6973 289.3105 43.7754 289.3105 ZM43.7754 288.373 Q45.2441 288.373 46.0254 289.5371 Q46.8066 290.7012 46.8066 292.9199 Q46.8066 295.123 46.0254 296.2871 Q45.2441 297.4512 43.7754 297.4512 Q42.3066 297.4512 41.5332 296.2871 Q40.7598 295.123 40.7598 292.9199 Q40.7598 290.7012 41.5332 289.5371 Q42.3066 288.373 43.7754 288.373 ZM56.3164 293.4355 Q55.8164 293.4355 55.5273 293.8652 Q55.2383 294.2949 55.2383 295.0762 Q55.2383 295.8262 55.5273 296.2637 Q55.8164 296.7012 56.3164 296.7012 Q56.8164 296.7012 57.1055 296.2637 Q57.3945 295.8262 57.3945 295.0762 Q57.3945 294.2949 57.1055 293.8652 Q56.8164 293.4355 56.3164 293.4355 ZM56.3164 292.6855 Q57.2539 292.6855 57.793 293.3262 Q58.332 293.9668 58.332 295.0762 Q58.332 296.1699 57.7852 296.8105 Q57.2383 297.4512 56.3164 297.4512 Q55.3789 297.4512 54.8398 296.8105 Q54.3008 296.1699 54.3008 295.0762 Q54.3008 293.9668 54.8477 293.3262 Q55.3945 292.6855 56.3164 292.6855 ZM50.2695 289.123 Q49.7695 289.123 49.4805 289.5527 Q49.1914 289.9824 49.1914 290.748 Q49.1914 291.5293 49.4805 291.959 Q49.7695 292.3887 50.2695 292.3887 Q50.7852 292.3887 51.0742 291.959 Q51.3633 291.5293 51.3633 290.748 Q51.3633 289.998 51.0742 289.5605 Q50.7852 289.123 50.2695 289.123 ZM55.5664 288.373 L56.5039 288.373 L51.0352 297.4512 L50.0977 297.4512 L55.5664 288.373 ZM50.2695 288.373 Q51.207 288.373 51.7539 289.0137 Q52.3008 289.6543 52.3008 290.748 Q52.3008 291.8574 51.7539 292.498 Q51.207 293.1387 50.2695 293.1387 Q49.3477 293.1387 48.8008 292.498 Q48.2539 291.8574 48.2539 290.748 Q48.2539 289.6543 48.8008 289.0137 Q49.3477 288.373 50.2695 288.373 Z"/></g><g style="fill:rgb(64,64,64); text-rendering:optimizeLegibility; stroke:rgb(64,64,64);"><path style="clip-path:url(#clipPath1); stroke:none;" d="M36.8594 236.9355 L33.875 241.6074 L36.8594 241.6074 L36.8594 236.9355 ZM36.5469 235.9043 L38.0469 235.9043 L38.0469 241.6074 L39.2969 241.6074 L39.2969 242.5918 L38.0469 242.5918 L38.0469 244.6543 L36.8594 244.6543 L36.8594 242.5918 L32.9219 242.5918 L32.9219 241.4512 L36.5469 235.9043 ZM43.7754 236.6855 Q42.8691 236.6855 42.4082 237.584 Q41.9473 238.4824 41.9473 240.2949 Q41.9473 242.0918 42.4082 242.9902 Q42.8691 243.8887 43.7754 243.8887 Q44.6973 243.8887 45.1582 242.9902 Q45.6191 242.0918 45.6191 240.2949 Q45.6191 238.4824 45.1582 237.584 Q44.6973 236.6855 43.7754 236.6855 ZM43.7754 235.748 Q45.2441 235.748 46.0254 236.9121 Q46.8066 238.0762 46.8066 240.2949 Q46.8066 242.498 46.0254 243.6621 Q45.2441 244.8262 43.7754 244.8262 Q42.3066 244.8262 41.5332 243.6621 Q40.7598 242.498 40.7598 240.2949 Q40.7598 238.0762 41.5332 236.9121 Q42.3066 235.748 43.7754 235.748 ZM56.3164 240.8105 Q55.8164 240.8105 55.5273 241.2402 Q55.2383 241.6699 55.2383 242.4512 Q55.2383 243.2012 55.5273 243.6387 Q55.8164 244.0762 56.3164 244.0762 Q56.8164 244.0762 57.1055 243.6387 Q57.3945 243.2012 57.3945 242.4512 Q57.3945 241.6699 57.1055 241.2402 Q56.8164 240.8105 56.3164 240.8105 ZM56.3164 240.0605 Q57.2539 240.0605 57.793 240.7012 Q58.332 241.3418 58.332 242.4512 Q58.332 243.5449 57.7852 244.1855 Q57.2383 244.8262 56.3164 244.8262 Q55.3789 244.8262 54.8398 244.1855 Q54.3008 243.5449 54.3008 242.4512 Q54.3008 241.3418 54.8477 240.7012 Q55.3945 240.0605 56.3164 240.0605 ZM50.2695 236.498 Q49.7695 236.498 49.4805 236.9277 Q49.1914 237.3574 49.1914 238.123 Q49.1914 238.9043 49.4805 239.334 Q49.7695 239.7637 50.2695 239.7637 Q50.7852 239.7637 51.0742 239.334 Q51.3633 238.9043 51.3633 238.123 Q51.3633 237.373 51.0742 236.9355 Q50.7852 236.498 50.2695 236.498 ZM55.5664 235.748 L56.5039 235.748 L51.0352 244.8262 L50.0977 244.8262 L55.5664 235.748 ZM50.2695 235.748 Q51.207 235.748 51.7539 236.3887 Q52.3008 237.0293 52.3008 238.123 Q52.3008 239.2324 51.7539 239.873 Q51.207 240.5137 50.2695 240.5137 Q49.3477 240.5137 48.8008 239.873 Q48.2539 239.2324 48.2539 238.123 Q48.2539 237.0293 48.8008 236.3887 Q49.3477 235.748 50.2695 235.748 Z"/></g><g style="fill:rgb(64,64,64); text-rendering:optimizeLegibility; stroke:rgb(64,64,64);"><path style="clip-path:url(#clipPath1); stroke:none;" d="M33.625 183.2793 L38.2656 183.2793 L38.2656 184.2793 L34.7031 184.2793 L34.7031 186.4199 Q34.9688 186.3262 35.2266 186.2871 Q35.4844 186.248 35.7344 186.248 Q37.2031 186.248 38.0625 187.0527 Q38.9219 187.8574 38.9219 189.2168 Q38.9219 190.6387 38.0391 191.4199 Q37.1562 192.2012 35.5625 192.2012 Q35 192.2012 34.4297 192.1074 Q33.8594 192.0137 33.25 191.8262 L33.25 190.6387 Q33.7812 190.9199 34.3438 191.0605 Q34.9062 191.2012 35.5312 191.2012 Q36.5469 191.2012 37.1406 190.6699 Q37.7344 190.1387 37.7344 189.2168 Q37.7344 188.3105 37.1406 187.7793 Q36.5469 187.248 35.5312 187.248 Q35.0625 187.248 34.5859 187.3496 Q34.1094 187.4512 33.625 187.6699 L33.625 183.2793 ZM43.7754 184.0605 Q42.8691 184.0605 42.4082 184.959 Q41.9473 185.8574 41.9473 187.6699 Q41.9473 189.4668 42.4082 190.3652 Q42.8691 191.2637 43.7754 191.2637 Q44.6973 191.2637 45.1582 190.3652 Q45.6191 189.4668 45.6191 187.6699 Q45.6191 185.8574 45.1582 184.959 Q44.6973 184.0605 43.7754 184.0605 ZM43.7754 183.123 Q45.2441 183.123 46.0254 184.2871 Q46.8066 185.4512 46.8066 187.6699 Q46.8066 189.873 46.0254 191.0371 Q45.2441 192.2012 43.7754 192.2012 Q42.3066 192.2012 41.5332 191.0371 Q40.7598 189.873 40.7598 187.6699 Q40.7598 185.4512 41.5332 184.2871 Q42.3066 183.123 43.7754 183.123 ZM56.3164 188.1855 Q55.8164 188.1855 55.5273 188.6152 Q55.2383 189.0449 55.2383 189.8262 Q55.2383 190.5762 55.5273 191.0137 Q55.8164 191.4512 56.3164 191.4512 Q56.8164 191.4512 57.1055 191.0137 Q57.3945 190.5762 57.3945 189.8262 Q57.3945 189.0449 57.1055 188.6152 Q56.8164 188.1855 56.3164 188.1855 ZM56.3164 187.4355 Q57.2539 187.4355 57.793 188.0762 Q58.332 188.7168 58.332 189.8262 Q58.332 190.9199 57.7852 191.5605 Q57.2383 192.2012 56.3164 192.2012 Q55.3789 192.2012 54.8398 191.5605 Q54.3008 190.9199 54.3008 189.8262 Q54.3008 188.7168 54.8477 188.0762 Q55.3945 187.4355 56.3164 187.4355 ZM50.2695 183.873 Q49.7695 183.873 49.4805 184.3027 Q49.1914 184.7324 49.1914 185.498 Q49.1914 186.2793 49.4805 186.709 Q49.7695 187.1387 50.2695 187.1387 Q50.7852 187.1387 51.0742 186.709 Q51.3633 186.2793 51.3633 185.498 Q51.3633 184.748 51.0742 184.3105 Q50.7852 183.873 50.2695 183.873 ZM55.5664 183.123 L56.5039 183.123 L51.0352 192.2012 L50.0977 192.2012 L55.5664 183.123 ZM50.2695 183.123 Q51.207 183.123 51.7539 183.7637 Q52.3008 184.4043 52.3008 185.498 Q52.3008 186.6074 51.7539 187.248 Q51.207 187.8887 50.2695 187.8887 Q49.3477 187.8887 48.8008 187.248 Q48.2539 186.6074 48.2539 185.498 Q48.2539 184.4043 48.8008 183.7637 Q49.3477 183.123 50.2695 183.123 Z"/></g><g style="fill:rgb(64,64,64); text-rendering:optimizeLegibility; stroke:rgb(64,64,64);"><path style="clip-path:url(#clipPath1); stroke:none;" d="M36.2969 134.5605 Q35.5 134.5605 35.0312 135.1074 Q34.5625 135.6543 34.5625 136.5918 Q34.5625 137.5449 35.0312 138.0918 Q35.5 138.6387 36.2969 138.6387 Q37.0938 138.6387 37.5547 138.0918 Q38.0156 137.5449 38.0156 136.5918 Q38.0156 135.6543 37.5547 135.1074 Q37.0938 134.5605 36.2969 134.5605 ZM38.6406 130.8418 L38.6406 131.9199 Q38.1875 131.7168 37.7344 131.6074 Q37.2812 131.498 36.8438 131.498 Q35.6719 131.498 35.0547 132.2871 Q34.4375 133.0762 34.3438 134.6699 Q34.6875 134.1699 35.2109 133.8965 Q35.7344 133.623 36.3594 133.623 Q37.6719 133.623 38.4375 134.4199 Q39.2031 135.2168 39.2031 136.5918 Q39.2031 137.9512 38.4062 138.7637 Q37.6094 139.5762 36.2969 139.5762 Q34.7656 139.5762 33.9688 138.4121 Q33.1719 137.248 33.1719 135.0449 Q33.1719 132.9668 34.1562 131.7324 Q35.1406 130.498 36.7969 130.498 Q37.2344 130.498 37.6875 130.584 Q38.1406 130.6699 38.6406 130.8418 ZM43.7754 131.4355 Q42.8691 131.4355 42.4082 132.334 Q41.9473 133.2324 41.9473 135.0449 Q41.9473 136.8418 42.4082 137.7402 Q42.8691 138.6387 43.7754 138.6387 Q44.6973 138.6387 45.1582 137.7402 Q45.6191 136.8418 45.6191 135.0449 Q45.6191 133.2324 45.1582 132.334 Q44.6973 131.4355 43.7754 131.4355 ZM43.7754 130.498 Q45.2441 130.498 46.0254 131.6621 Q46.8066 132.8262 46.8066 135.0449 Q46.8066 137.248 46.0254 138.4121 Q45.2441 139.5762 43.7754 139.5762 Q42.3066 139.5762 41.5332 138.4121 Q40.7598 137.248 40.7598 135.0449 Q40.7598 132.8262 41.5332 131.6621 Q42.3066 130.498 43.7754 130.498 ZM56.3164 135.5605 Q55.8164 135.5605 55.5273 135.9902 Q55.2383 136.4199 55.2383 137.2012 Q55.2383 137.9512 55.5273 138.3887 Q55.8164 138.8262 56.3164 138.8262 Q56.8164 138.8262 57.1055 138.3887 Q57.3945 137.9512 57.3945 137.2012 Q57.3945 136.4199 57.1055 135.9902 Q56.8164 135.5605 56.3164 135.5605 ZM56.3164 134.8105 Q57.2539 134.8105 57.793 135.4512 Q58.332 136.0918 58.332 137.2012 Q58.332 138.2949 57.7852 138.9355 Q57.2383 139.5762 56.3164 139.5762 Q55.3789 139.5762 54.8398 138.9355 Q54.3008 138.2949 54.3008 137.2012 Q54.3008 136.0918 54.8477 135.4512 Q55.3945 134.8105 56.3164 134.8105 ZM50.2695 131.248 Q49.7695 131.248 49.4805 131.6777 Q49.1914 132.1074 49.1914 132.873 Q49.1914 133.6543 49.4805 134.084 Q49.7695 134.5137 50.2695 134.5137 Q50.7852 134.5137 51.0742 134.084 Q51.3633 133.6543 51.3633 132.873 Q51.3633 132.123 51.0742 131.6855 Q50.7852 131.248 50.2695 131.248 ZM55.5664 130.498 L56.5039 130.498 L51.0352 139.5762 L50.0977 139.5762 L55.5664 130.498 ZM50.2695 130.498 Q51.207 130.498 51.7539 131.1387 Q52.3008 131.7793 52.3008 132.873 Q52.3008 133.9824 51.7539 134.623 Q51.207 135.2637 50.2695 135.2637 Q49.3477 135.2637 48.8008 134.623 Q48.2539 133.9824 48.2539 132.873 Q48.2539 131.7793 48.8008 131.1387 Q49.3477 130.498 50.2695 130.498 Z"/></g><g style="fill:rgb(64,64,64); text-rendering:optimizeLegibility; stroke:rgb(64,64,64);"><path style="clip-path:url(#clipPath1); stroke:none;" d="M33.3125 78.0293 L38.9375 78.0293 L38.9375 78.5293 L35.7656 86.7793 L34.5312 86.7793 L37.5156 79.0293 L33.3125 79.0293 L33.3125 78.0293 ZM43.7754 78.8105 Q42.8691 78.8105 42.4082 79.709 Q41.9473 80.6074 41.9473 82.4199 Q41.9473 84.2168 42.4082 85.1152 Q42.8691 86.0137 43.7754 86.0137 Q44.6973 86.0137 45.1582 85.1152 Q45.6191 84.2168 45.6191 82.4199 Q45.6191 80.6074 45.1582 79.709 Q44.6973 78.8105 43.7754 78.8105 ZM43.7754 77.873 Q45.2441 77.873 46.0254 79.0371 Q46.8066 80.2012 46.8066 82.4199 Q46.8066 84.623 46.0254 85.7871 Q45.2441 86.9512 43.7754 86.9512 Q42.3066 86.9512 41.5332 85.7871 Q40.7598 84.623 40.7598 82.4199 Q40.7598 80.2012 41.5332 79.0371 Q42.3066 77.873 43.7754 77.873 ZM56.3164 82.9355 Q55.8164 82.9355 55.5273 83.3652 Q55.2383 83.7949 55.2383 84.5762 Q55.2383 85.3262 55.5273 85.7637 Q55.8164 86.2012 56.3164 86.2012 Q56.8164 86.2012 57.1055 85.7637 Q57.3945 85.3262 57.3945 84.5762 Q57.3945 83.7949 57.1055 83.3652 Q56.8164 82.9355 56.3164 82.9355 ZM56.3164 82.1855 Q57.2539 82.1855 57.793 82.8262 Q58.332 83.4668 58.332 84.5762 Q58.332 85.6699 57.7852 86.3105 Q57.2383 86.9512 56.3164 86.9512 Q55.3789 86.9512 54.8398 86.3105 Q54.3008 85.6699 54.3008 84.5762 Q54.3008 83.4668 54.8477 82.8262 Q55.3945 82.1855 56.3164 82.1855 ZM50.2695 78.623 Q49.7695 78.623 49.4805 79.0527 Q49.1914 79.4824 49.1914 80.248 Q49.1914 81.0293 49.4805 81.459 Q49.7695 81.8887 50.2695 81.8887 Q50.7852 81.8887 51.0742 81.459 Q51.3633 81.0293 51.3633 80.248 Q51.3633 79.498 51.0742 79.0605 Q50.7852 78.623 50.2695 78.623 ZM55.5664 77.873 L56.5039 77.873 L51.0352 86.9512 L50.0977 86.9512 L55.5664 77.873 ZM50.2695 77.873 Q51.207 77.873 51.7539 78.5137 Q52.3008 79.1543 52.3008 80.248 Q52.3008 81.3574 51.7539 81.998 Q51.207 82.6387 50.2695 82.6387 Q49.3477 82.6387 48.8008 81.998 Q48.2539 81.3574 48.2539 80.248 Q48.2539 79.1543 48.8008 78.5137 Q49.3477 77.873 50.2695 77.873 Z"/></g><g style="fill:rgb(64,64,64); text-rendering:optimizeLegibility; stroke:rgb(64,64,64);"><path style="clip-path:url(#clipPath1); stroke:none;" d="M36.1406 29.998 Q35.2969 29.998 34.8125 30.4512 Q34.3281 30.9043 34.3281 31.6855 Q34.3281 32.4824 34.8125 32.9355 Q35.2969 33.3887 36.1406 33.3887 Q36.9844 33.3887 37.4688 32.9355 Q37.9531 32.4824 37.9531 31.6855 Q37.9531 30.9043 37.4766 30.4512 Q37 29.998 36.1406 29.998 ZM34.9531 29.498 Q34.2031 29.3105 33.7734 28.7871 Q33.3438 28.2637 33.3438 27.5137 Q33.3438 26.4668 34.0938 25.8574 Q34.8438 25.248 36.1406 25.248 Q37.4531 25.248 38.1953 25.8574 Q38.9375 26.4668 38.9375 27.5137 Q38.9375 28.2637 38.5156 28.7871 Q38.0938 29.3105 37.3281 29.498 Q38.1875 29.7012 38.6641 30.2793 Q39.1406 30.8574 39.1406 31.6855 Q39.1406 32.9668 38.3672 33.6465 Q37.5938 34.3262 36.1406 34.3262 Q34.7031 34.3262 33.9219 33.6465 Q33.1406 32.9668 33.1406 31.6855 Q33.1406 30.8574 33.625 30.2793 Q34.1094 29.7012 34.9531 29.498 ZM34.5312 27.623 Q34.5312 28.3105 34.9531 28.6855 Q35.375 29.0605 36.1406 29.0605 Q36.9062 29.0605 37.3359 28.6855 Q37.7656 28.3105 37.7656 27.623 Q37.7656 26.9512 37.3359 26.5684 Q36.9062 26.1855 36.1406 26.1855 Q35.375 26.1855 34.9531 26.5684 Q34.5312 26.9512 34.5312 27.623 ZM43.7754 26.1855 Q42.8691 26.1855 42.4082 27.084 Q41.9473 27.9824 41.9473 29.7949 Q41.9473 31.5918 42.4082 32.4902 Q42.8691 33.3887 43.7754 33.3887 Q44.6973 33.3887 45.1582 32.4902 Q45.6191 31.5918 45.6191 29.7949 Q45.6191 27.9824 45.1582 27.084 Q44.6973 26.1855 43.7754 26.1855 ZM43.7754 25.248 Q45.2441 25.248 46.0254 26.4121 Q46.8066 27.5762 46.8066 29.7949 Q46.8066 31.998 46.0254 33.1621 Q45.2441 34.3262 43.7754 34.3262 Q42.3066 34.3262 41.5332 33.1621 Q40.7598 31.998 40.7598 29.7949 Q40.7598 27.5762 41.5332 26.4121 Q42.3066 25.248 43.7754 25.248 ZM56.3164 30.3105 Q55.8164 30.3105 55.5273 30.7402 Q55.2383 31.1699 55.2383 31.9512 Q55.2383 32.7012 55.5273 33.1387 Q55.8164 33.5762 56.3164 33.5762 Q56.8164 33.5762 57.1055 33.1387 Q57.3945 32.7012 57.3945 31.9512 Q57.3945 31.1699 57.1055 30.7402 Q56.8164 30.3105 56.3164 30.3105 ZM56.3164 29.5605 Q57.2539 29.5605 57.793 30.2012 Q58.332 30.8418 58.332 31.9512 Q58.332 33.0449 57.7852 33.6855 Q57.2383 34.3262 56.3164 34.3262 Q55.3789 34.3262 54.8398 33.6855 Q54.3008 33.0449 54.3008 31.9512 Q54.3008 30.8418 54.8477 30.2012 Q55.3945 29.5605 56.3164 29.5605 ZM50.2695 25.998 Q49.7695 25.998 49.4805 26.4277 Q49.1914 26.8574 49.1914 27.623 Q49.1914 28.4043 49.4805 28.834 Q49.7695 29.2637 50.2695 29.2637 Q50.7852 29.2637 51.0742 28.834 Q51.3633 28.4043 51.3633 27.623 Q51.3633 26.873 51.0742 26.4355 Q50.7852 25.998 50.2695 25.998 ZM55.5664 25.248 L56.5039 25.248 L51.0352 34.3262 L50.0977 34.3262 L55.5664 25.248 ZM50.2695 25.248 Q51.207 25.248 51.7539 25.8887 Q52.3008 26.5293 52.3008 27.623 Q52.3008 28.7324 51.7539 29.373 Q51.207 30.0137 50.2695 30.0137 Q49.3477 30.0137 48.8008 29.373 Q48.2539 28.7324 48.2539 27.623 Q48.2539 26.5293 48.8008 25.8887 Q49.3477 25.248 50.2695 25.248 Z"/></g><g style="fill:rgb(64,64,64); text-rendering:optimizeLegibility; font-size:14; font-weight:bold; stroke:rgb(64,64,64);" transform="matrix(0,-1,1,0,-221.3203,259.6797)"><path style="clip-path:url(#clipPath10); stroke:none;" d="M-20.6001 241.1279 Q-21.0845 241.1279 -21.3501 241.5498 Q-21.6157 241.9717 -21.6157 242.7529 Q-21.6157 243.5342 -21.3501 243.9561 Q-21.0845 244.3779 -20.6001 244.3779 Q-20.1001 244.3779 -19.8423 243.9561 Q-19.5845 243.5342 -19.5845 242.7529 Q-19.5845 241.9717 -19.8501 241.5498 Q-20.1157 241.1279 -20.6001 241.1279 ZM-20.6001 239.9873 Q-19.3188 239.9873 -18.5923 240.7217 Q-17.8657 241.4561 -17.8657 242.7529 Q-17.8657 244.0498 -18.5923 244.7998 Q-19.3188 245.5498 -20.6001 245.5498 Q-21.8657 245.5498 -22.6001 244.7998 Q-23.3345 244.0498 -23.3345 242.7529 Q-23.3345 241.4717 -22.6001 240.7295 Q-21.8657 239.9873 -20.6001 239.9873 ZM-26.8657 245.5498 L-28.3813 245.5498 L-21.9907 234.9561 L-20.4751 234.9561 L-26.8657 245.5498 ZM-28.272 234.9561 Q-26.9907 234.9561 -26.2642 235.6982 Q-25.5376 236.4404 -25.5376 237.7373 Q-25.5376 239.0186 -26.2642 239.7686 Q-26.9907 240.5186 -28.272 240.5186 Q-29.5376 240.5186 -30.2642 239.7686 Q-30.9907 239.0186 -30.9907 237.7373 Q-30.9907 236.4404 -30.2642 235.6982 Q-29.5376 234.9561 -28.272 234.9561 ZM-28.272 236.0967 Q-28.7563 236.0967 -29.022 236.5264 Q-29.2876 236.9561 -29.2876 237.7373 Q-29.2876 238.5186 -29.022 238.9482 Q-28.7563 239.3779 -28.272 239.3779 Q-27.772 239.3779 -27.5063 238.9482 Q-27.2407 238.5186 -27.2407 237.7373 Q-27.2407 236.9561 -27.5063 236.5264 Q-27.772 236.0967 -28.272 236.0967 ZM-7.73 239.2529 Q-8.5425 239.2529 -8.9644 239.8389 Q-9.3862 240.4248 -9.3862 241.5186 Q-9.3862 242.6279 -8.9644 243.2139 Q-8.5425 243.7998 -7.73 243.7998 Q-6.9175 243.7998 -6.4956 243.2139 Q-6.0737 242.6279 -6.0737 241.5186 Q-6.0737 240.4248 -6.4956 239.8389 Q-6.9175 239.2529 -7.73 239.2529 ZM-7.73 237.5029 Q-5.7456 237.5029 -4.6362 238.5732 Q-3.5269 239.6436 -3.5269 241.5186 Q-3.5269 243.4092 -4.6362 244.4795 Q-5.7456 245.5498 -7.73 245.5498 Q-9.6987 245.5498 -10.8159 244.4795 Q-11.9331 243.4092 -11.9331 241.5186 Q-11.9331 239.6436 -10.8159 238.5732 Q-9.6987 237.5029 -7.73 237.5029 ZM3.2944 234.7061 L3.2944 236.3154 L1.9351 236.3154 Q1.4194 236.3154 1.2163 236.5029 Q1.0132 236.6904 1.0132 237.1592 L1.0132 237.6904 L3.0913 237.6904 L3.0913 239.4404 L1.0132 239.4404 L1.0132 245.3467 L-1.4399 245.3467 L-1.4399 239.4404 L-2.6587 239.4404 L-2.6587 237.6904 L-1.4399 237.6904 L-1.4399 237.1592 Q-1.4399 235.9092 -0.7446 235.3076 Q-0.0493 234.7061 1.4194 234.7061 L3.2944 234.7061 ZM14.2593 234.7061 L14.2593 236.3154 L12.8999 236.3154 Q12.3843 236.3154 12.1812 236.5029 Q11.978 236.6904 11.978 237.1592 L11.978 237.6904 L14.0562 237.6904 L14.0562 239.4404 L11.978 239.4404 L11.978 245.3467 L9.5249 245.3467 L9.5249 239.4404 L8.3062 239.4404 L8.3062 237.6904 L9.5249 237.6904 L9.5249 237.1592 Q9.5249 235.9092 10.2202 235.3076 Q10.9155 234.7061 12.3843 234.7061 L14.2593 234.7061 ZM18.7407 241.8936 Q17.9751 241.8936 17.5845 242.1592 Q17.1938 242.4248 17.1938 242.9248 Q17.1938 243.3936 17.5063 243.6592 Q17.8188 243.9248 18.3813 243.9248 Q19.0688 243.9248 19.5376 243.4248 Q20.0063 242.9248 20.0063 242.1748 L20.0063 241.8936 L18.7407 241.8936 ZM22.4751 240.9717 L22.4751 245.3467 L20.0063 245.3467 L20.0063 244.2061 Q19.522 244.9092 18.9048 245.2295 Q18.2876 245.5498 17.4126 245.5498 Q16.2095 245.5498 15.4751 244.8545 Q14.7407 244.1592 14.7407 243.0498 Q14.7407 241.7061 15.6626 241.0732 Q16.5845 240.4404 18.5688 240.4404 L20.0063 240.4404 L20.0063 240.2529 Q20.0063 239.6748 19.5532 239.4014 Q19.1001 239.1279 18.1313 239.1279 Q17.3345 239.1279 16.6626 239.2842 Q15.9907 239.4404 15.397 239.7686 L15.397 237.8936 Q16.1938 237.7061 16.9829 237.6045 Q17.772 237.5029 18.5688 237.5029 Q20.647 237.5029 21.561 238.3232 Q22.4751 239.1436 22.4751 240.9717 ZM30.438 239.7686 Q30.1255 239.6279 29.8052 239.5576 Q29.4849 239.4873 29.1567 239.4873 Q28.2192 239.4873 27.7114 240.0889 Q27.2036 240.6904 27.2036 241.8154 L27.2036 245.3467 L24.7505 245.3467 L24.7505 237.6904 L27.2036 237.6904 L27.2036 238.9404 Q27.6724 238.1904 28.2817 237.8467 Q28.8911 237.5029 29.7505 237.5029 Q29.8755 237.5029 30.0161 237.5107 Q30.1567 237.5186 30.438 237.5654 L30.438 239.7686 ZM38.7485 238.9561 Q39.2173 238.2529 39.8579 237.8779 Q40.4985 237.5029 41.2642 237.5029 Q42.5767 237.5029 43.272 238.3154 Q43.9673 239.1279 43.9673 240.6904 L43.9673 245.3467 L41.4985 245.3467 L41.4985 241.3467 Q41.5142 241.2686 41.5142 241.1748 Q41.5142 241.0811 41.5142 240.8936 Q41.5142 240.0811 41.2798 239.7139 Q41.0454 239.3467 40.4985 239.3467 Q39.811 239.3467 39.4282 239.9248 Q39.0454 240.5029 39.0298 241.5811 L39.0298 245.3467 L36.5767 245.3467 L36.5767 241.3467 Q36.5767 240.0811 36.3579 239.7139 Q36.1392 239.3467 35.5767 239.3467 Q34.8735 239.3467 34.4907 239.9248 Q34.1079 240.5029 34.1079 241.5811 L34.1079 245.3467 L31.6392 245.3467 L31.6392 237.6904 L34.1079 237.6904 L34.1079 238.8154 Q34.561 238.1592 35.147 237.8311 Q35.7329 237.5029 36.436 237.5029 Q37.2173 237.5029 37.8267 237.8857 Q38.436 238.2686 38.7485 238.9561 ZM53.8833 241.5029 L53.8833 242.1904 L48.1646 242.1904 Q48.2583 243.0498 48.7896 243.4873 Q49.3208 243.9248 50.2739 243.9248 Q51.0552 243.9248 51.8677 243.6904 Q52.6802 243.4561 53.5239 242.9873 L53.5239 244.8779 Q52.6646 245.2061 51.7974 245.3779 Q50.9302 245.5498 50.0552 245.5498 Q47.9771 245.5498 46.8286 244.4873 Q45.6802 243.4248 45.6802 241.5186 Q45.6802 239.6592 46.8052 238.5811 Q47.9302 237.5029 49.9146 237.5029 Q51.7271 237.5029 52.8052 238.5889 Q53.8833 239.6748 53.8833 241.5029 ZM51.3677 240.6904 Q51.3677 239.9873 50.9614 239.5576 Q50.5552 239.1279 49.8989 239.1279 Q49.1958 239.1279 48.7505 239.5264 Q48.3052 239.9248 48.1958 240.6904 L51.3677 240.6904 ZM61.4253 239.7686 Q61.1128 239.6279 60.7925 239.5576 Q60.4722 239.4873 60.144 239.4873 Q59.2065 239.4873 58.6987 240.0889 Q58.1909 240.6904 58.1909 241.8154 L58.1909 245.3467 L55.7378 245.3467 L55.7378 237.6904 L58.1909 237.6904 L58.1909 238.9404 Q58.6597 238.1904 59.269 237.8467 Q59.8784 237.5029 60.7378 237.5029 Q60.8628 237.5029 61.0034 237.5107 Q61.144 237.5186 61.4253 237.5654 L61.4253 239.7686 ZM68.6265 237.9248 L68.6265 239.7842 Q67.8452 239.4561 67.1108 239.292 Q66.3765 239.1279 65.7358 239.1279 Q65.0327 239.1279 64.6968 239.3076 Q64.3608 239.4873 64.3608 239.8467 Q64.3608 240.1436 64.6108 240.2998 Q64.8608 240.4561 65.5327 240.5342 L65.9546 240.5811 Q67.8452 240.8311 68.4937 241.3779 Q69.1421 241.9248 69.1421 243.0967 Q69.1421 244.3154 68.2358 244.9326 Q67.3296 245.5498 65.5483 245.5498 Q64.7827 245.5498 63.978 245.4248 Q63.1733 245.2998 62.314 245.0654 L62.314 243.2061 Q63.0483 243.5654 63.814 243.7451 Q64.5796 243.9248 65.3765 243.9248 Q66.0952 243.9248 66.4546 243.7217 Q66.814 243.5186 66.814 243.1279 Q66.814 242.7998 66.564 242.6436 Q66.314 242.4873 65.5796 242.3936 L65.1421 242.3311 Q63.5015 242.1279 62.8452 241.5732 Q62.189 241.0186 62.189 239.8936 Q62.189 238.6748 63.0249 238.0889 Q63.8608 237.5029 65.5796 237.5029 Q66.2671 237.5029 67.0093 237.6045 Q67.7515 237.7061 68.6265 237.9248 Z"/></g><g style="fill:rgb(64,64,64); text-rendering:optimizeLegibility; font-size:14; font-weight:bold; stroke:rgb(64,64,64);" transform="translate(2,2)"><path style="clip-path:url(#clipPath12); stroke:none;" d="M139.9235 451 L272.3369 342.6543 L273.1072 342.1594 L378.4154 290.459 L378.4154 290.459 L373.5677 280.5848 L403.5 282.6 L386.7887 307.5145 L381.941 297.6403 L381.941 297.6403 L276.6328 349.3406 L277.403 348.8457 L152.5565 451 Z"/></g><g style="fill:rgb(64,64,64); text-rendering:optimizeLegibility; font-size:14; font-weight:bold; stroke:rgb(64,64,64);" transform="translate(2,2)"><path style="clip-path:url(#clipPath12); stroke:none;" d="M139.4944 451 L272.4981 353.0541 L273.7687 352.4296 L377.422 322.745 L377.422 322.745 L374.3936 312.1701 L403.5 319.4375 L382.653 341.0107 L379.6246 330.4358 L379.6246 330.4358 L275.9713 360.1204 L277.2419 359.4959 L152.9856 451 Z"/></g><g style="fill:rgb(30,172,226); text-rendering:optimizeLegibility; font-size:14; font-weight:bold; stroke:rgb(30,172,226);"><path style="clip-path:url(#clipPath11); stroke:none;" d="M139.9235 451 L272.3369 342.6543 L273.1072 342.1594 L378.4154 290.459 L378.4154 290.459 L373.5677 280.5848 L403.5 282.6 L386.7887 307.5145 L381.941 297.6403 L381.941 297.6403 L276.6328 349.3406 L277.403 348.8457 L152.5565 451 Z"/></g><g style="fill:rgb(187,34,51); text-rendering:optimizeLegibility; font-size:14; font-weight:bold; stroke:rgb(187,34,51);"><path style="clip-path:url(#clipPath11); stroke:none;" d="M139.4944 451 L272.4981 353.0541 L273.7687 352.4296 L377.422 322.745 L377.422 322.745 L374.3936 312.1701 L403.5 319.4375 L382.653 341.0107 L379.6246 330.4358 L379.6246 330.4358 L275.9713 360.1204 L277.2419 359.4959 L152.9856 451 Z"/><rect x="65" width="677" height="421" y="30" style="clip-path:url(#clipPath1); fill:none; stroke:black; stroke-width:2;"/></g></g></svg>