<?xml version="1.0" encoding="UTF-8"?><svg xmlns="http://www.w3.org/2000/svg" xmlns:xlink="http://www.w3.org/1999/xlink" contentScriptType="text/ecmascript" width="750" zoomAndPan="magnify" style="stroke-dasharray:none; shape-rendering:auto; font-family:'Dialog'; text-rendering:auto; fill-opacity:1; color-interpolation:auto; color-rendering:auto; font-size:12; fill:black; stroke:black; image-rendering:auto; stroke-miterlimit:10; stroke-linecap:square; stroke-linejoin:miter; font-style:normal; stroke-width:1; stroke-dashoffset:0; font-weight:normal; stroke-opacity:1;" contentStyleType="text/css" viewBox="0 0 750 500" height="500" preserveAspectRatio="xMidYMid meet" version="1.0"><!--Generated by the Batik Graphics2D SVG Generator--><defs id="genericDefs"/><g><defs id="defs1"><linearGradient x1="403.5" xmlns:xlink="http://www.w3.org/1999/xlink" gradientUnits="userSpaceOnUse" y1="474" x2="403.5" y2="30" xlink:type="simple" xlink:actuate="onLoad" id="linearGradient1" xlink:show="other" spreadMethod="pad"><stop offset="0%" style="stop-opacity:1; stop-color:white;"/><stop offset="100%" style="stop-opacity:1; stop-color:rgb(227,246,253);"/></linearGradient><clipPath clipPathUnits="userSpaceOnUse" id="clipPath1"><path d="M0 0 L750 0 L750 500 L0 500 L0 0 Z"/></clipPath><clipPath clipPathUnits="userSpaceOnUse" id="clipPath2"><path d="M271.1797 232.8203 L271.1797 982.8203 L-228.8203 982.8203 L-228.8203 232.8203 L271.1797 232.8203 Z"/></clipPath><clipPath clipPathUnits="userSpaceOnUse" id="clipPath3"><path d="M65 30 L65 474 L742 474 L742 30 Z"/></clipPath><clipPath clipPathUnits="userSpaceOnUse" id="clipPath4"><path d="M63 28 L63 472 L740 472 L740 28 Z"/></clipPath></defs><g style="fill:white; text-rendering:optimizeLegibility; font-size:11; font-family:'Liberation Sans'; stroke:white;"><rect x="0" width="750" height="500" y="0" style="clip-path:url(#clipPath1); stroke:none;"/></g><g style="font-weight:bold; font-size:20; text-rendering:optimizeLegibility;"><path style="clip-path:url(#clipPath1); stroke:none;" d="M346.5244 18.4863 Q345.1182 19.1582 343.6104 19.502 Q342.1025 19.8457 340.4775 19.8457 Q336.8369 19.8457 334.7119 17.8066 Q332.5869 15.7676 332.5869 12.2832 Q332.5869 8.7676 334.751 6.7441 Q336.915 4.7207 340.6963 4.7207 Q342.1494 4.7207 343.4775 4.9941 Q344.8057 5.2676 345.9932 5.7988 L345.9932 8.8145 Q344.7744 8.127 343.5635 7.7832 Q342.3525 7.4395 341.1494 7.4395 Q338.8994 7.4395 337.6885 8.6973 Q336.4775 9.9551 336.4775 12.2832 Q336.4775 14.5957 337.6494 15.8613 Q338.8213 17.127 340.9775 17.127 Q341.5557 17.127 342.0635 17.0488 Q342.5713 16.9707 342.9619 16.8145 L342.9619 13.9863 L340.665 13.9863 L340.665 11.4707 L346.5244 11.4707 L346.5244 18.4863 ZM357.8154 11.6113 Q357.3467 11.3926 356.8936 11.291 Q356.4404 11.1895 355.9873 11.1895 Q354.6279 11.1895 353.9014 12.0488 Q353.1748 12.9082 353.1748 14.5176 L353.1748 19.5645 L349.6904 19.5645 L349.6904 8.627 L353.1748 8.627 L353.1748 10.4238 Q353.8467 9.3457 354.7217 8.8535 Q355.5967 8.3613 356.8154 8.3613 Q357.0029 8.3613 357.2061 8.377 Q357.4092 8.3926 357.7998 8.4395 L357.8154 11.6113 ZM364.4443 14.6426 Q363.3506 14.6426 362.8037 15.0098 Q362.2568 15.377 362.2568 16.1113 Q362.2568 16.7676 362.7021 17.1426 Q363.1475 17.5176 363.9287 17.5176 Q364.9131 17.5176 365.5928 16.8145 Q366.2725 16.1113 366.2725 15.0488 L366.2725 14.6426 L364.4443 14.6426 ZM369.7881 13.3301 L369.7881 19.5645 L366.2725 19.5645 L366.2725 17.9395 Q365.5693 18.9395 364.6865 19.3926 Q363.8037 19.8457 362.5381 19.8457 Q360.8506 19.8457 359.7881 18.8535 Q358.7256 17.8613 358.7256 16.2832 Q358.7256 14.3613 360.0459 13.4629 Q361.3662 12.5645 364.21 12.5645 L366.2725 12.5645 L366.2725 12.2832 Q366.2725 11.4551 365.6162 11.0723 Q364.96 10.6895 363.5693 10.6895 Q362.4443 10.6895 361.4756 10.916 Q360.5068 11.1426 359.6787 11.5801 L359.6787 8.9238 Q360.8037 8.6426 361.9365 8.502 Q363.0693 8.3613 364.21 8.3613 Q367.1631 8.3613 368.4756 9.5254 Q369.7881 10.6895 369.7881 13.3301 ZM372.5029 8.627 L382.0498 8.627 L382.0498 11.0645 L376.2842 17.0645 L382.0498 17.0645 L382.0498 19.5645 L372.2686 19.5645 L372.2686 17.127 L378.0186 11.127 L372.5029 11.127 L372.5029 8.627 ZM384.6904 8.627 L388.1748 8.627 L388.1748 19.5645 L384.6904 19.5645 L384.6904 8.627 ZM384.6904 4.3613 L388.1748 4.3613 L388.1748 7.2207 L384.6904 7.2207 L384.6904 4.3613 ZM402.5303 12.9082 L402.5303 19.5645 L399.0146 19.5645 L399.0146 18.4863 L399.0146 14.4707 Q399.0146 13.0488 398.9521 12.5098 Q398.8896 11.9707 398.7334 11.7207 Q398.5303 11.377 398.1787 11.1895 Q397.8271 11.002 397.374 11.002 Q396.2803 11.002 395.6553 11.8457 Q395.0303 12.6895 395.0303 14.1895 L395.0303 19.5645 L391.5459 19.5645 L391.5459 8.627 L395.0303 8.627 L395.0303 10.2207 Q395.8271 9.2676 396.7178 8.8145 Q397.6084 8.3613 398.6709 8.3613 Q400.5771 8.3613 401.5537 9.5254 Q402.5303 10.6895 402.5303 12.9082 ZM413.2217 17.7051 Q412.5029 18.6582 411.6279 19.1113 Q410.7529 19.5645 409.6123 19.5645 Q407.6123 19.5645 406.3076 17.9863 Q405.0029 16.4082 405.0029 13.9707 Q405.0029 11.5176 406.3076 9.9473 Q407.6123 8.377 409.6123 8.377 Q410.7529 8.377 411.6279 8.8301 Q412.5029 9.2832 413.2217 10.252 L413.2217 8.627 L416.7373 8.627 L416.7373 18.4551 Q416.7373 21.0957 415.0732 22.4863 Q413.4092 23.877 410.2373 23.877 Q409.2217 23.877 408.2607 23.7207 Q407.2998 23.5645 406.3311 23.252 L406.3311 20.5176 Q407.2529 21.0488 408.1279 21.3066 Q409.0029 21.5645 409.8936 21.5645 Q411.6123 21.5645 412.417 20.8145 Q413.2217 20.0645 413.2217 18.4551 L413.2217 17.7051 ZM410.9092 10.9082 Q409.8311 10.9082 409.2217 11.7051 Q408.6123 12.502 408.6123 13.9707 Q408.6123 15.4707 409.1982 16.2441 Q409.7842 17.0176 410.9092 17.0176 Q412.0029 17.0176 412.6123 16.2207 Q413.2217 15.4238 413.2217 13.9707 Q413.2217 12.502 412.6123 11.7051 Q412.0029 10.9082 410.9092 10.9082 Z"/></g><g style="fill:url(#linearGradient1); text-rendering:optimizeLegibility; stroke:url(#linearGradient1);"><rect x="65" width="677" height="444" y="30" style="clip-path:url(#clipPath1); stroke:none;"/><line y2="474" style="clip-path:url(#clipPath1); fill:none; stroke:gray;" x1="65" x2="742" y1="474"/><path style="fill:rgb(64,64,64); clip-path:url(#clipPath1); stroke:none;" d="M115.8328 488.1387 L119.9734 488.1387 L119.9734 489.1387 L114.4109 489.1387 L114.4109 488.1387 Q115.0828 487.4512 116.2468 486.2715 Q117.4109 485.0918 117.7078 484.748 Q118.2859 484.123 118.5125 483.6777 Q118.739 483.2324 118.739 482.8105 Q118.739 482.1074 118.2468 481.6699 Q117.7547 481.2324 116.9734 481.2324 Q116.4109 481.2324 115.7937 481.4199 Q115.1765 481.6074 114.4734 482.0137 L114.4734 480.8105 Q115.1922 480.5293 115.8093 480.3809 Q116.4265 480.2324 116.9422 480.2324 Q118.3015 480.2324 119.114 480.9121 Q119.9265 481.5918 119.9265 482.7324 Q119.9265 483.2637 119.7234 483.748 Q119.5203 484.2324 118.989 484.8887 Q118.8328 485.0605 118.0515 485.873 Q117.2703 486.6855 115.8328 488.1387 ZM124.9832 481.1699 Q124.0769 481.1699 123.616 482.0684 Q123.155 482.9668 123.155 484.7793 Q123.155 486.5762 123.616 487.4746 Q124.0769 488.373 124.9832 488.373 Q125.905 488.373 126.366 487.4746 Q126.8269 486.5762 126.8269 484.7793 Q126.8269 482.9668 126.366 482.0684 Q125.905 481.1699 124.9832 481.1699 ZM124.9832 480.2324 Q126.4519 480.2324 127.2332 481.3965 Q128.0144 482.5605 128.0144 484.7793 Q128.0144 486.9824 127.2332 488.1465 Q126.4519 489.3105 124.9832 489.3105 Q123.5144 489.3105 122.741 488.1465 Q121.9675 486.9824 121.9675 484.7793 Q121.9675 482.5605 122.741 481.3965 Q123.5144 480.2324 124.9832 480.2324 ZM132.6179 481.1699 Q131.7117 481.1699 131.2507 482.0684 Q130.7898 482.9668 130.7898 484.7793 Q130.7898 486.5762 131.2507 487.4746 Q131.7117 488.373 132.6179 488.373 Q133.5398 488.373 134.0007 487.4746 Q134.4617 486.5762 134.4617 484.7793 Q134.4617 482.9668 134.0007 482.0684 Q133.5398 481.1699 132.6179 481.1699 ZM132.6179 480.2324 Q134.0867 480.2324 134.8679 481.3965 Q135.6492 482.5605 135.6492 484.7793 Q135.6492 486.9824 134.8679 488.1465 Q134.0867 489.3105 132.6179 489.3105 Q131.1492 489.3105 130.3757 488.1465 Q129.6023 486.9824 129.6023 484.7793 Q129.6023 482.5605 130.3757 481.3965 Q131.1492 480.2324 132.6179 480.2324 ZM140.2527 484.9824 Q139.409 484.9824 138.9246 485.4355 Q138.4402 485.8887 138.4402 486.6699 Q138.4402 487.4668 138.9246 487.9199 Q139.409 488.373 140.2527 488.373 Q141.0965 488.373 141.5808 487.9199 Q142.0652 487.4668 142.0652 486.6699 Q142.0652 485.8887 141.5886 485.4355 Q141.1121 484.9824 140.2527 484.9824 ZM139.0652 484.4824 Q138.3152 484.2949 137.8855 483.7715 Q137.4558 483.248 137.4558 482.498 Q137.4558 481.4512 138.2058 480.8418 Q138.9558 480.2324 140.2527 480.2324 Q141.5652 480.2324 142.3074 480.8418 Q143.0496 481.4512 143.0496 482.498 Q143.0496 483.248 142.6277 483.7715 Q142.2058 484.2949 141.4402 484.4824 Q142.2996 484.6855 142.7761 485.2637 Q143.2527 485.8418 143.2527 486.6699 Q143.2527 487.9512 142.4793 488.6309 Q141.7058 489.3105 140.2527 489.3105 Q138.8152 489.3105 138.034 488.6309 Q137.2527 487.9512 137.2527 486.6699 Q137.2527 485.8418 137.7371 485.2637 Q138.2215 484.6855 139.0652 484.4824 ZM138.6433 482.6074 Q138.6433 483.2949 139.0652 483.6699 Q139.4871 484.0449 140.2527 484.0449 Q141.0183 484.0449 141.448 483.6699 Q141.8777 483.2949 141.8777 482.6074 Q141.8777 481.9355 141.448 481.5527 Q141.0183 481.1699 140.2527 481.1699 Q139.4871 481.1699 139.0652 481.5527 Q138.6433 481.9355 138.6433 482.6074 ZM144.6687 485.373 L147.825 485.373 L147.825 486.3262 L144.6687 486.3262 L144.6687 485.373 ZM150.7019 488.1387 L154.8425 488.1387 L154.8425 489.1387 L149.28 489.1387 L149.28 488.1387 Q149.9519 487.4512 151.116 486.2715 Q152.28 485.0918 152.5769 484.748 Q153.155 484.123 153.3816 483.6777 Q153.6082 483.2324 153.6082 482.8105 Q153.6082 482.1074 153.116 481.6699 Q152.6238 481.2324 151.8425 481.2324 Q151.28 481.2324 150.6629 481.4199 Q150.0457 481.6074 149.3425 482.0137 L149.3425 480.8105 Q150.0613 480.5293 150.6785 480.3809 Q151.2957 480.2324 151.8113 480.2324 Q153.1707 480.2324 153.9832 480.9121 Q154.7957 481.5918 154.7957 482.7324 Q154.7957 483.2637 154.5925 483.748 Q154.3894 484.2324 153.8582 484.8887 Q153.7019 485.0605 152.9207 485.873 Q152.1394 486.6855 150.7019 488.1387 ZM159.8523 481.1699 Q158.9461 481.1699 158.4851 482.0684 Q158.0242 482.9668 158.0242 484.7793 Q158.0242 486.5762 158.4851 487.4746 Q158.9461 488.373 159.8523 488.373 Q160.7742 488.373 161.2351 487.4746 Q161.6961 486.5762 161.6961 484.7793 Q161.6961 482.9668 161.2351 482.0684 Q160.7742 481.1699 159.8523 481.1699 ZM159.8523 480.2324 Q161.3211 480.2324 162.1023 481.3965 Q162.8836 482.5605 162.8836 484.7793 Q162.8836 486.9824 162.1023 488.1465 Q161.3211 489.3105 159.8523 489.3105 Q158.3836 489.3105 157.6101 488.1465 Q156.8367 486.9824 156.8367 484.7793 Q156.8367 482.5605 157.6101 481.3965 Q158.3836 480.2324 159.8523 480.2324 ZM167.4871 481.1699 Q166.5808 481.1699 166.1199 482.0684 Q165.659 482.9668 165.659 484.7793 Q165.659 486.5762 166.1199 487.4746 Q166.5808 488.373 167.4871 488.373 Q168.409 488.373 168.8699 487.4746 Q169.3308 486.5762 169.3308 484.7793 Q169.3308 482.9668 168.8699 482.0684 Q168.409 481.1699 167.4871 481.1699 ZM167.4871 480.2324 Q168.9558 480.2324 169.7371 481.3965 Q170.5183 482.5605 170.5183 484.7793 Q170.5183 486.9824 169.7371 488.1465 Q168.9558 489.3105 167.4871 489.3105 Q166.0183 489.3105 165.2449 488.1465 Q164.4715 486.9824 164.4715 484.7793 Q164.4715 482.5605 165.2449 481.3965 Q166.0183 480.2324 167.4871 480.2324 ZM172.6218 488.9512 L172.6218 487.873 Q173.075 488.0918 173.5281 488.2012 Q173.9812 488.3105 174.4343 488.3105 Q175.6062 488.3105 176.2234 487.5215 Q176.8406 486.7324 176.9187 485.123 Q176.5906 485.6387 176.0672 485.9043 Q175.5437 486.1699 174.9031 486.1699 Q173.5906 486.1699 172.825 485.3809 Q172.0593 484.5918 172.0593 483.2012 Q172.0593 481.8574 172.8562 481.0449 Q173.6531 480.2324 174.9812 480.2324 Q176.4968 480.2324 177.3015 481.3965 Q178.1062 482.5605 178.1062 484.7793 Q178.1062 486.8418 177.1218 488.0762 Q176.1375 489.3105 174.4812 489.3105 Q174.0281 489.3105 173.575 489.2246 Q173.1218 489.1387 172.6218 488.9512 ZM174.9812 485.248 Q175.7781 485.248 176.2468 484.7012 Q176.7156 484.1543 176.7156 483.2012 Q176.7156 482.2637 176.2468 481.7168 Q175.7781 481.1699 174.9812 481.1699 Q174.1843 481.1699 173.7234 481.7168 Q173.2625 482.2637 173.2625 483.2012 Q173.2625 484.1543 173.7234 484.7012 Q174.1843 485.248 174.9812 485.248 Z"/></g><g style="fill:rgb(64,64,64); text-rendering:optimizeLegibility; stroke:rgb(64,64,64);"><path style="clip-path:url(#clipPath1); stroke:none;" d="M244.4628 488.1387 L248.6034 488.1387 L248.6034 489.1387 L243.0409 489.1387 L243.0409 488.1387 Q243.7128 487.4512 244.8768 486.2715 Q246.0409 485.0918 246.3378 484.748 Q246.9159 484.123 247.1425 483.6777 Q247.369 483.2324 247.369 482.8105 Q247.369 482.1074 246.8768 481.6699 Q246.3846 481.2324 245.6034 481.2324 Q245.0409 481.2324 244.4237 481.4199 Q243.8065 481.6074 243.1034 482.0137 L243.1034 480.8105 Q243.8221 480.5293 244.4393 480.3809 Q245.0565 480.2324 245.5721 480.2324 Q246.9315 480.2324 247.744 480.9121 Q248.5565 481.5918 248.5565 482.7324 Q248.5565 483.2637 248.3534 483.748 Q248.1503 484.2324 247.619 484.8887 Q247.4628 485.0605 246.6815 485.873 Q245.9003 486.6855 244.4628 488.1387 ZM253.6132 481.1699 Q252.7069 481.1699 252.246 482.0684 Q251.785 482.9668 251.785 484.7793 Q251.785 486.5762 252.246 487.4746 Q252.7069 488.373 253.6132 488.373 Q254.535 488.373 254.996 487.4746 Q255.4569 486.5762 255.4569 484.7793 Q255.4569 482.9668 254.996 482.0684 Q254.535 481.1699 253.6132 481.1699 ZM253.6132 480.2324 Q255.0819 480.2324 255.8632 481.3965 Q256.6444 482.5605 256.6444 484.7793 Q256.6444 486.9824 255.8632 488.1465 Q255.0819 489.3105 253.6132 489.3105 Q252.1444 489.3105 251.371 488.1465 Q250.5975 486.9824 250.5975 484.7793 Q250.5975 482.5605 251.371 481.3965 Q252.1444 480.2324 253.6132 480.2324 ZM261.2479 481.1699 Q260.3417 481.1699 259.8807 482.0684 Q259.4198 482.9668 259.4198 484.7793 Q259.4198 486.5762 259.8807 487.4746 Q260.3417 488.373 261.2479 488.373 Q262.1698 488.373 262.6307 487.4746 Q263.0917 486.5762 263.0917 484.7793 Q263.0917 482.9668 262.6307 482.0684 Q262.1698 481.1699 261.2479 481.1699 ZM261.2479 480.2324 Q262.7167 480.2324 263.4979 481.3965 Q264.2792 482.5605 264.2792 484.7793 Q264.2792 486.9824 263.4979 488.1465 Q262.7167 489.3105 261.2479 489.3105 Q259.7792 489.3105 259.0057 488.1465 Q258.2323 486.9824 258.2323 484.7793 Q258.2323 482.5605 259.0057 481.3965 Q259.7792 480.2324 261.2479 480.2324 ZM266.3827 488.9512 L266.3827 487.873 Q266.8358 488.0918 267.2889 488.2012 Q267.7421 488.3105 268.1952 488.3105 Q269.3671 488.3105 269.9843 487.5215 Q270.6014 486.7324 270.6796 485.123 Q270.3514 485.6387 269.828 485.9043 Q269.3046 486.1699 268.6639 486.1699 Q267.3514 486.1699 266.5858 485.3809 Q265.8202 484.5918 265.8202 483.2012 Q265.8202 481.8574 266.6171 481.0449 Q267.4139 480.2324 268.7421 480.2324 Q270.2577 480.2324 271.0624 481.3965 Q271.8671 482.5605 271.8671 484.7793 Q271.8671 486.8418 270.8827 488.0762 Q269.8983 489.3105 268.2421 489.3105 Q267.7889 489.3105 267.3358 489.2246 Q266.8827 489.1387 266.3827 488.9512 ZM268.7421 485.248 Q269.5389 485.248 270.0077 484.7012 Q270.4764 484.1543 270.4764 483.2012 Q270.4764 482.2637 270.0077 481.7168 Q269.5389 481.1699 268.7421 481.1699 Q267.9452 481.1699 267.4843 481.7168 Q267.0233 482.2637 267.0233 483.2012 Q267.0233 484.1543 267.4843 484.7012 Q267.9452 485.248 268.7421 485.248 ZM273.2987 485.373 L276.455 485.373 L276.455 486.3262 L273.2987 486.3262 L273.2987 485.373 ZM279.3319 488.1387 L283.4725 488.1387 L283.4725 489.1387 L277.91 489.1387 L277.91 488.1387 Q278.5819 487.4512 279.746 486.2715 Q280.91 485.0918 281.2069 484.748 Q281.785 484.123 282.0116 483.6777 Q282.2382 483.2324 282.2382 482.8105 Q282.2382 482.1074 281.746 481.6699 Q281.2538 481.2324 280.4725 481.2324 Q279.91 481.2324 279.2928 481.4199 Q278.6757 481.6074 277.9725 482.0137 L277.9725 480.8105 Q278.6913 480.5293 279.3085 480.3809 Q279.9257 480.2324 280.4413 480.2324 Q281.8007 480.2324 282.6132 480.9121 Q283.4257 481.5918 283.4257 482.7324 Q283.4257 483.2637 283.2225 483.748 Q283.0194 484.2324 282.4882 484.8887 Q282.3319 485.0605 281.5507 485.873 Q280.7694 486.6855 279.3319 488.1387 ZM288.4823 481.1699 Q287.576 481.1699 287.1151 482.0684 Q286.6542 482.9668 286.6542 484.7793 Q286.6542 486.5762 287.1151 487.4746 Q287.576 488.373 288.4823 488.373 Q289.4042 488.373 289.8651 487.4746 Q290.326 486.5762 290.326 484.7793 Q290.326 482.9668 289.8651 482.0684 Q289.4042 481.1699 288.4823 481.1699 ZM288.4823 480.2324 Q289.951 480.2324 290.7323 481.3965 Q291.5135 482.5605 291.5135 484.7793 Q291.5135 486.9824 290.7323 488.1465 Q289.951 489.3105 288.4823 489.3105 Q287.0135 489.3105 286.2401 488.1465 Q285.4667 486.9824 285.4667 484.7793 Q285.4667 482.5605 286.2401 481.3965 Q287.0135 480.2324 288.4823 480.2324 ZM293.7889 488.1387 L295.7264 488.1387 L295.7264 481.4668 L293.6171 481.8887 L293.6171 480.8105 L295.7108 480.3887 L296.8983 480.3887 L296.8983 488.1387 L298.8358 488.1387 L298.8358 489.1387 L293.7889 489.1387 L293.7889 488.1387 ZM303.7518 481.1699 Q302.8456 481.1699 302.3846 482.0684 Q301.9237 482.9668 301.9237 484.7793 Q301.9237 486.5762 302.3846 487.4746 Q302.8456 488.373 303.7518 488.373 Q304.6737 488.373 305.1346 487.4746 Q305.5956 486.5762 305.5956 484.7793 Q305.5956 482.9668 305.1346 482.0684 Q304.6737 481.1699 303.7518 481.1699 ZM303.7518 480.2324 Q305.2206 480.2324 306.0018 481.3965 Q306.7831 482.5605 306.7831 484.7793 Q306.7831 486.9824 306.0018 488.1465 Q305.2206 489.3105 303.7518 489.3105 Q302.2831 489.3105 301.5096 488.1465 Q300.7362 486.9824 300.7362 484.7793 Q300.7362 482.5605 301.5096 481.3965 Q302.2831 480.2324 303.7518 480.2324 Z"/></g><g style="fill:rgb(64,64,64); text-rendering:optimizeLegibility; stroke:rgb(64,64,64);"><path style="clip-path:url(#clipPath1); stroke:none;" d="M373.0928 488.1387 L377.2334 488.1387 L377.2334 489.1387 L371.6709 489.1387 L371.6709 488.1387 Q372.3428 487.4512 373.5068 486.2715 Q374.6709 485.0918 374.9678 484.748 Q375.5459 484.123 375.7725 483.6777 Q375.999 483.2324 375.999 482.8105 Q375.999 482.1074 375.5068 481.6699 Q375.0146 481.2324 374.2334 481.2324 Q373.6709 481.2324 373.0537 481.4199 Q372.4365 481.6074 371.7334 482.0137 L371.7334 480.8105 Q372.4521 480.5293 373.0693 480.3809 Q373.6865 480.2324 374.2021 480.2324 Q375.5615 480.2324 376.374 480.9121 Q377.1865 481.5918 377.1865 482.7324 Q377.1865 483.2637 376.9834 483.748 Q376.7803 484.2324 376.249 484.8887 Q376.0928 485.0605 375.3115 485.873 Q374.5303 486.6855 373.0928 488.1387 ZM382.2432 481.1699 Q381.3369 481.1699 380.876 482.0684 Q380.415 482.9668 380.415 484.7793 Q380.415 486.5762 380.876 487.4746 Q381.3369 488.373 382.2432 488.373 Q383.165 488.373 383.626 487.4746 Q384.0869 486.5762 384.0869 484.7793 Q384.0869 482.9668 383.626 482.0684 Q383.165 481.1699 382.2432 481.1699 ZM382.2432 480.2324 Q383.7119 480.2324 384.4932 481.3965 Q385.2744 482.5605 385.2744 484.7793 Q385.2744 486.9824 384.4932 488.1465 Q383.7119 489.3105 382.2432 489.3105 Q380.7744 489.3105 380.001 488.1465 Q379.2275 486.9824 379.2275 484.7793 Q379.2275 482.5605 380.001 481.3965 Q380.7744 480.2324 382.2432 480.2324 ZM387.5498 488.1387 L389.4873 488.1387 L389.4873 481.4668 L387.3779 481.8887 L387.3779 480.8105 L389.4717 480.3887 L390.6592 480.3887 L390.6592 488.1387 L392.5967 488.1387 L392.5967 489.1387 L387.5498 489.1387 L387.5498 488.1387 ZM397.5127 481.1699 Q396.6064 481.1699 396.1455 482.0684 Q395.6846 482.9668 395.6846 484.7793 Q395.6846 486.5762 396.1455 487.4746 Q396.6064 488.373 397.5127 488.373 Q398.4346 488.373 398.8955 487.4746 Q399.3564 486.5762 399.3564 484.7793 Q399.3564 482.9668 398.8955 482.0684 Q398.4346 481.1699 397.5127 481.1699 ZM397.5127 480.2324 Q398.9814 480.2324 399.7627 481.3965 Q400.5439 482.5605 400.5439 484.7793 Q400.5439 486.9824 399.7627 488.1465 Q398.9814 489.3105 397.5127 489.3105 Q396.0439 489.3105 395.2705 488.1465 Q394.4971 486.9824 394.4971 484.7793 Q394.4971 482.5605 395.2705 481.3965 Q396.0439 480.2324 397.5127 480.2324 ZM401.9287 485.373 L405.085 485.373 L405.085 486.3262 L401.9287 486.3262 L401.9287 485.373 ZM407.9619 488.1387 L412.1025 488.1387 L412.1025 489.1387 L406.54 489.1387 L406.54 488.1387 Q407.2119 487.4512 408.376 486.2715 Q409.54 485.0918 409.8369 484.748 Q410.415 484.123 410.6416 483.6777 Q410.8682 483.2324 410.8682 482.8105 Q410.8682 482.1074 410.376 481.6699 Q409.8838 481.2324 409.1025 481.2324 Q408.54 481.2324 407.9229 481.4199 Q407.3057 481.6074 406.6025 482.0137 L406.6025 480.8105 Q407.3213 480.5293 407.9385 480.3809 Q408.5557 480.2324 409.0713 480.2324 Q410.4307 480.2324 411.2432 480.9121 Q412.0557 481.5918 412.0557 482.7324 Q412.0557 483.2637 411.8525 483.748 Q411.6494 484.2324 411.1182 484.8887 Q410.9619 485.0605 410.1807 485.873 Q409.3994 486.6855 407.9619 488.1387 ZM417.1123 481.1699 Q416.2061 481.1699 415.7451 482.0684 Q415.2842 482.9668 415.2842 484.7793 Q415.2842 486.5762 415.7451 487.4746 Q416.2061 488.373 417.1123 488.373 Q418.0342 488.373 418.4951 487.4746 Q418.9561 486.5762 418.9561 484.7793 Q418.9561 482.9668 418.4951 482.0684 Q418.0342 481.1699 417.1123 481.1699 ZM417.1123 480.2324 Q418.5811 480.2324 419.3623 481.3965 Q420.1436 482.5605 420.1436 484.7793 Q420.1436 486.9824 419.3623 488.1465 Q418.5811 489.3105 417.1123 489.3105 Q415.6436 489.3105 414.8701 488.1465 Q414.0967 486.9824 414.0967 484.7793 Q414.0967 482.5605 414.8701 481.3965 Q415.6436 480.2324 417.1123 480.2324 ZM422.4189 488.1387 L424.3564 488.1387 L424.3564 481.4668 L422.2471 481.8887 L422.2471 480.8105 L424.3408 480.3887 L425.5283 480.3887 L425.5283 488.1387 L427.4658 488.1387 L427.4658 489.1387 L422.4189 489.1387 L422.4189 488.1387 ZM430.0537 488.1387 L431.9912 488.1387 L431.9912 481.4668 L429.8818 481.8887 L429.8818 480.8105 L431.9756 480.3887 L433.1631 480.3887 L433.1631 488.1387 L435.1006 488.1387 L435.1006 489.1387 L430.0537 489.1387 L430.0537 488.1387 Z"/></g><g style="fill:rgb(64,64,64); text-rendering:optimizeLegibility; stroke:rgb(64,64,64);"><path style="clip-path:url(#clipPath1); stroke:none;" d="M501.7228 488.1387 L505.8634 488.1387 L505.8634 489.1387 L500.3009 489.1387 L500.3009 488.1387 Q500.9728 487.4512 502.1368 486.2715 Q503.3009 485.0918 503.5978 484.748 Q504.1759 484.123 504.4025 483.6777 Q504.629 483.2324 504.629 482.8105 Q504.629 482.1074 504.1368 481.6699 Q503.6447 481.2324 502.8634 481.2324 Q502.3009 481.2324 501.6837 481.4199 Q501.0665 481.6074 500.3634 482.0137 L500.3634 480.8105 Q501.0822 480.5293 501.6993 480.3809 Q502.3165 480.2324 502.8322 480.2324 Q504.1915 480.2324 505.004 480.9121 Q505.8165 481.5918 505.8165 482.7324 Q505.8165 483.2637 505.6134 483.748 Q505.4103 484.2324 504.879 484.8887 Q504.7228 485.0605 503.9415 485.873 Q503.1603 486.6855 501.7228 488.1387 ZM510.8732 481.1699 Q509.9669 481.1699 509.506 482.0684 Q509.045 482.9668 509.045 484.7793 Q509.045 486.5762 509.506 487.4746 Q509.9669 488.373 510.8732 488.373 Q511.795 488.373 512.256 487.4746 Q512.7169 486.5762 512.7169 484.7793 Q512.7169 482.9668 512.256 482.0684 Q511.795 481.1699 510.8732 481.1699 ZM510.8732 480.2324 Q512.3419 480.2324 513.1232 481.3965 Q513.9044 482.5605 513.9044 484.7793 Q513.9044 486.9824 513.1232 488.1465 Q512.3419 489.3105 510.8732 489.3105 Q509.4044 489.3105 508.631 488.1465 Q507.8575 486.9824 507.8575 484.7793 Q507.8575 482.5605 508.631 481.3965 Q509.4044 480.2324 510.8732 480.2324 ZM516.1798 488.1387 L518.1173 488.1387 L518.1173 481.4668 L516.0079 481.8887 L516.0079 480.8105 L518.1017 480.3887 L519.2892 480.3887 L519.2892 488.1387 L521.2267 488.1387 L521.2267 489.1387 L516.1798 489.1387 L516.1798 488.1387 ZM523.8146 488.1387 L525.7521 488.1387 L525.7521 481.4668 L523.6427 481.8887 L523.6427 480.8105 L525.7365 480.3887 L526.924 480.3887 L526.924 488.1387 L528.8615 488.1387 L528.8615 489.1387 L523.8146 489.1387 L523.8146 488.1387 ZM530.5587 485.373 L533.715 485.373 L533.715 486.3262 L530.5587 486.3262 L530.5587 485.373 ZM536.5919 488.1387 L540.7325 488.1387 L540.7325 489.1387 L535.17 489.1387 L535.17 488.1387 Q535.8419 487.4512 537.006 486.2715 Q538.17 485.0918 538.4669 484.748 Q539.045 484.123 539.2716 483.6777 Q539.4982 483.2324 539.4982 482.8105 Q539.4982 482.1074 539.006 481.6699 Q538.5138 481.2324 537.7325 481.2324 Q537.17 481.2324 536.5529 481.4199 Q535.9357 481.6074 535.2325 482.0137 L535.2325 480.8105 Q535.9513 480.5293 536.5685 480.3809 Q537.1857 480.2324 537.7013 480.2324 Q539.0607 480.2324 539.8732 480.9121 Q540.6857 481.5918 540.6857 482.7324 Q540.6857 483.2637 540.4825 483.748 Q540.2794 484.2324 539.7482 484.8887 Q539.5919 485.0605 538.8107 485.873 Q538.0294 486.6855 536.5919 488.1387 ZM545.7423 481.1699 Q544.8361 481.1699 544.3751 482.0684 Q543.9142 482.9668 543.9142 484.7793 Q543.9142 486.5762 544.3751 487.4746 Q544.8361 488.373 545.7423 488.373 Q546.6642 488.373 547.1251 487.4746 Q547.5861 486.5762 547.5861 484.7793 Q547.5861 482.9668 547.1251 482.0684 Q546.6642 481.1699 545.7423 481.1699 ZM545.7423 480.2324 Q547.2111 480.2324 547.9923 481.3965 Q548.7736 482.5605 548.7736 484.7793 Q548.7736 486.9824 547.9923 488.1465 Q547.2111 489.3105 545.7423 489.3105 Q544.2736 489.3105 543.5001 488.1465 Q542.7267 486.9824 542.7267 484.7793 Q542.7267 482.5605 543.5001 481.3965 Q544.2736 480.2324 545.7423 480.2324 ZM551.049 488.1387 L552.9865 488.1387 L552.9865 481.4668 L550.8771 481.8887 L550.8771 480.8105 L552.9708 480.3887 L554.1583 480.3887 L554.1583 488.1387 L556.0958 488.1387 L556.0958 489.1387 L551.049 489.1387 L551.049 488.1387 ZM559.4962 488.1387 L563.6368 488.1387 L563.6368 489.1387 L558.0743 489.1387 L558.0743 488.1387 Q558.7462 487.4512 559.9103 486.2715 Q561.0743 485.0918 561.3712 484.748 Q561.9493 484.123 562.1759 483.6777 Q562.4025 483.2324 562.4025 482.8105 Q562.4025 482.1074 561.9103 481.6699 Q561.4181 481.2324 560.6368 481.2324 Q560.0743 481.2324 559.4572 481.4199 Q558.84 481.6074 558.1368 482.0137 L558.1368 480.8105 Q558.8556 480.5293 559.4728 480.3809 Q560.09 480.2324 560.6056 480.2324 Q561.965 480.2324 562.7775 480.9121 Q563.59 481.5918 563.59 482.7324 Q563.59 483.2637 563.3868 483.748 Q563.1837 484.2324 562.6525 484.8887 Q562.4962 485.0605 561.715 485.873 Q560.9337 486.6855 559.4962 488.1387 Z"/></g><g style="fill:rgb(64,64,64); text-rendering:optimizeLegibility; stroke:rgb(64,64,64);"><path style="clip-path:url(#clipPath1); stroke:none;" d="M630.3528 488.1387 L634.4934 488.1387 L634.4934 489.1387 L628.9309 489.1387 L628.9309 488.1387 Q629.6028 487.4512 630.7668 486.2715 Q631.9309 485.0918 632.2278 484.748 Q632.8059 484.123 633.0325 483.6777 Q633.259 483.2324 633.259 482.8105 Q633.259 482.1074 632.7668 481.6699 Q632.2747 481.2324 631.4934 481.2324 Q630.9309 481.2324 630.3137 481.4199 Q629.6965 481.6074 628.9934 482.0137 L628.9934 480.8105 Q629.7122 480.5293 630.3293 480.3809 Q630.9465 480.2324 631.4622 480.2324 Q632.8215 480.2324 633.634 480.9121 Q634.4465 481.5918 634.4465 482.7324 Q634.4465 483.2637 634.2434 483.748 Q634.0403 484.2324 633.509 484.8887 Q633.3528 485.0605 632.5715 485.873 Q631.7903 486.6855 630.3528 488.1387 ZM639.5032 481.1699 Q638.5969 481.1699 638.136 482.0684 Q637.675 482.9668 637.675 484.7793 Q637.675 486.5762 638.136 487.4746 Q638.5969 488.373 639.5032 488.373 Q640.425 488.373 640.886 487.4746 Q641.3469 486.5762 641.3469 484.7793 Q641.3469 482.9668 640.886 482.0684 Q640.425 481.1699 639.5032 481.1699 ZM639.5032 480.2324 Q640.9719 480.2324 641.7532 481.3965 Q642.5344 482.5605 642.5344 484.7793 Q642.5344 486.9824 641.7532 488.1465 Q640.9719 489.3105 639.5032 489.3105 Q638.0344 489.3105 637.261 488.1465 Q636.4875 486.9824 636.4875 484.7793 Q636.4875 482.5605 637.261 481.3965 Q638.0344 480.2324 639.5032 480.2324 ZM644.8098 488.1387 L646.7473 488.1387 L646.7473 481.4668 L644.6379 481.8887 L644.6379 480.8105 L646.7317 480.3887 L647.9192 480.3887 L647.9192 488.1387 L649.8567 488.1387 L649.8567 489.1387 L644.8098 489.1387 L644.8098 488.1387 ZM653.2571 488.1387 L657.3977 488.1387 L657.3977 489.1387 L651.8352 489.1387 L651.8352 488.1387 Q652.5071 487.4512 653.6711 486.2715 Q654.8352 485.0918 655.1321 484.748 Q655.7102 484.123 655.9368 483.6777 Q656.1633 483.2324 656.1633 482.8105 Q656.1633 482.1074 655.6711 481.6699 Q655.179 481.2324 654.3977 481.2324 Q653.8352 481.2324 653.218 481.4199 Q652.6008 481.6074 651.8977 482.0137 L651.8977 480.8105 Q652.6165 480.5293 653.2336 480.3809 Q653.8508 480.2324 654.3665 480.2324 Q655.7258 480.2324 656.5383 480.9121 Q657.3508 481.5918 657.3508 482.7324 Q657.3508 483.2637 657.1477 483.748 Q656.9446 484.2324 656.4133 484.8887 Q656.2571 485.0605 655.4758 485.873 Q654.6946 486.6855 653.2571 488.1387 ZM659.1887 485.373 L662.345 485.373 L662.345 486.3262 L659.1887 486.3262 L659.1887 485.373 ZM664.4094 488.1387 L666.3469 488.1387 L666.3469 481.4668 L664.2375 481.8887 L664.2375 480.8105 L666.3313 480.3887 L667.5188 480.3887 L667.5188 488.1387 L669.4563 488.1387 L669.4563 489.1387 L664.4094 489.1387 L664.4094 488.1387 ZM674.3723 481.1699 Q673.4661 481.1699 673.0051 482.0684 Q672.5442 482.9668 672.5442 484.7793 Q672.5442 486.5762 673.0051 487.4746 Q673.4661 488.373 674.3723 488.373 Q675.2942 488.373 675.7551 487.4746 Q676.2161 486.5762 676.2161 484.7793 Q676.2161 482.9668 675.7551 482.0684 Q675.2942 481.1699 674.3723 481.1699 ZM674.3723 480.2324 Q675.8411 480.2324 676.6223 481.3965 Q677.4036 482.5605 677.4036 484.7793 Q677.4036 486.9824 676.6223 488.1465 Q675.8411 489.3105 674.3723 489.3105 Q672.9036 489.3105 672.1301 488.1465 Q671.3567 486.9824 671.3567 484.7793 Q671.3567 482.5605 672.1301 481.3965 Q672.9036 480.2324 674.3723 480.2324 ZM679.679 488.1387 L681.6165 488.1387 L681.6165 481.4668 L679.5071 481.8887 L679.5071 480.8105 L681.6008 480.3887 L682.7883 480.3887 L682.7883 488.1387 L684.7258 488.1387 L684.7258 489.1387 L679.679 489.1387 L679.679 488.1387 ZM690.7043 484.4199 Q691.5481 484.6074 692.0247 485.1777 Q692.5012 485.748 692.5012 486.5918 Q692.5012 487.8887 691.6106 488.5996 Q690.72 489.3105 689.0793 489.3105 Q688.5325 489.3105 687.9465 489.2012 Q687.3606 489.0918 686.7512 488.873 L686.7512 487.7324 Q687.2356 488.0137 687.8215 488.1621 Q688.4075 488.3105 689.0481 488.3105 Q690.1575 488.3105 690.7434 487.873 Q691.3293 487.4355 691.3293 486.5918 Q691.3293 485.8262 690.7825 485.3887 Q690.2356 484.9512 689.2825 484.9512 L688.2512 484.9512 L688.2512 483.9824 L689.3293 483.9824 Q690.1887 483.9824 690.6575 483.6309 Q691.1262 483.2793 691.1262 482.623 Q691.1262 481.9512 690.6497 481.5918 Q690.1731 481.2324 689.2825 481.2324 Q688.7825 481.2324 688.2278 481.334 Q687.6731 481.4355 687.0012 481.6543 L687.0012 480.6074 Q687.6887 480.4199 688.2747 480.3262 Q688.8606 480.2324 689.3762 480.2324 Q690.7356 480.2324 691.5168 480.8418 Q692.2981 481.4512 692.2981 482.498 Q692.2981 483.2324 691.884 483.7324 Q691.47 484.2324 690.7043 484.4199 Z"/></g><g style="fill:gray; text-rendering:optimizeLegibility; stroke:gray;"><line y2="474" style="fill:none; clip-path:url(#clipPath1);" x1="65" x2="65" y1="30"/><path style="fill:rgb(64,64,64); clip-path:url(#clipPath1); stroke:none;" d="M43.7754 470.1855 Q42.8691 470.1855 42.4082 471.084 Q41.9473 471.9824 41.9473 473.7949 Q41.9473 475.5918 42.4082 476.4902 Q42.8691 477.3887 43.7754 477.3887 Q44.6973 477.3887 45.1582 476.4902 Q45.6191 475.5918 45.6191 473.7949 Q45.6191 471.9824 45.1582 471.084 Q44.6973 470.1855 43.7754 470.1855 ZM43.7754 469.248 Q45.2441 469.248 46.0254 470.4121 Q46.8066 471.5762 46.8066 473.7949 Q46.8066 475.998 46.0254 477.1621 Q45.2441 478.3262 43.7754 478.3262 Q42.3066 478.3262 41.5332 477.1621 Q40.7598 475.998 40.7598 473.7949 Q40.7598 471.5762 41.5332 470.4121 Q42.3066 469.248 43.7754 469.248 ZM56.3164 474.3105 Q55.8164 474.3105 55.5273 474.7402 Q55.2383 475.1699 55.2383 475.9512 Q55.2383 476.7012 55.5273 477.1387 Q55.8164 477.5762 56.3164 477.5762 Q56.8164 477.5762 57.1055 477.1387 Q57.3945 476.7012 57.3945 475.9512 Q57.3945 475.1699 57.1055 474.7402 Q56.8164 474.3105 56.3164 474.3105 ZM56.3164 473.5605 Q57.2539 473.5605 57.793 474.2012 Q58.332 474.8418 58.332 475.9512 Q58.332 477.0449 57.7852 477.6855 Q57.2383 478.3262 56.3164 478.3262 Q55.3789 478.3262 54.8398 477.6855 Q54.3008 477.0449 54.3008 475.9512 Q54.3008 474.8418 54.8477 474.2012 Q55.3945 473.5605 56.3164 473.5605 ZM50.2695 469.998 Q49.7695 469.998 49.4805 470.4277 Q49.1914 470.8574 49.1914 471.623 Q49.1914 472.4043 49.4805 472.834 Q49.7695 473.2637 50.2695 473.2637 Q50.7852 473.2637 51.0742 472.834 Q51.3633 472.4043 51.3633 471.623 Q51.3633 470.873 51.0742 470.4355 Q50.7852 469.998 50.2695 469.998 ZM55.5664 469.248 L56.5039 469.248 L51.0352 478.3262 L50.0977 478.3262 L55.5664 469.248 ZM50.2695 469.248 Q51.207 469.248 51.7539 469.8887 Q52.3008 470.5293 52.3008 471.623 Q52.3008 472.7324 51.7539 473.373 Q51.207 474.0137 50.2695 474.0137 Q49.3477 474.0137 48.8008 473.373 Q48.2539 472.7324 48.2539 471.623 Q48.2539 470.5293 48.8008 469.8887 Q49.3477 469.248 50.2695 469.248 Z"/></g><g style="fill:rgb(64,64,64); text-rendering:optimizeLegibility; stroke:rgb(64,64,64);"><path style="clip-path:url(#clipPath1); stroke:none;" d="M41.2598 425.0043 L45.9004 425.0043 L45.9004 426.0043 L42.3379 426.0043 L42.3379 428.1449 Q42.6035 428.0512 42.8613 428.0121 Q43.1191 427.9731 43.3691 427.9731 Q44.8379 427.9731 45.6973 428.7777 Q46.5566 429.5824 46.5566 430.9418 Q46.5566 432.3637 45.6738 433.1449 Q44.791 433.9262 43.1973 433.9262 Q42.6348 433.9262 42.0645 433.8324 Q41.4941 433.7387 40.8848 433.5512 L40.8848 432.3637 Q41.416 432.6449 41.9785 432.7856 Q42.541 432.9262 43.166 432.9262 Q44.1816 432.9262 44.7754 432.3949 Q45.3691 431.8637 45.3691 430.9418 Q45.3691 430.0356 44.7754 429.5043 Q44.1816 428.9731 43.166 428.9731 Q42.6973 428.9731 42.2207 429.0746 Q41.7441 429.1762 41.2598 429.3949 L41.2598 425.0043 ZM56.3164 429.9106 Q55.8164 429.9106 55.5273 430.3402 Q55.2383 430.7699 55.2383 431.5512 Q55.2383 432.3012 55.5273 432.7387 Q55.8164 433.1762 56.3164 433.1762 Q56.8164 433.1762 57.1055 432.7387 Q57.3945 432.3012 57.3945 431.5512 Q57.3945 430.7699 57.1055 430.3402 Q56.8164 429.9106 56.3164 429.9106 ZM56.3164 429.1606 Q57.2539 429.1606 57.793 429.8012 Q58.332 430.4418 58.332 431.5512 Q58.332 432.6449 57.7852 433.2856 Q57.2383 433.9262 56.3164 433.9262 Q55.3789 433.9262 54.8398 433.2856 Q54.3008 432.6449 54.3008 431.5512 Q54.3008 430.4418 54.8477 429.8012 Q55.3945 429.1606 56.3164 429.1606 ZM50.2695 425.5981 Q49.7695 425.5981 49.4805 426.0277 Q49.1914 426.4574 49.1914 427.2231 Q49.1914 428.0043 49.4805 428.434 Q49.7695 428.8637 50.2695 428.8637 Q50.7852 428.8637 51.0742 428.434 Q51.3633 428.0043 51.3633 427.2231 Q51.3633 426.4731 51.0742 426.0356 Q50.7852 425.5981 50.2695 425.5981 ZM55.5664 424.8481 L56.5039 424.8481 L51.0352 433.9262 L50.0977 433.9262 L55.5664 424.8481 ZM50.2695 424.8481 Q51.207 424.8481 51.7539 425.4887 Q52.3008 426.1293 52.3008 427.2231 Q52.3008 428.3324 51.7539 428.9731 Q51.207 429.6137 50.2695 429.6137 Q49.3477 429.6137 48.8008 428.9731 Q48.2539 428.3324 48.2539 427.2231 Q48.2539 426.1293 48.8008 425.4887 Q49.3477 424.8481 50.2695 424.8481 Z"/></g><g style="fill:rgb(64,64,64); text-rendering:optimizeLegibility; stroke:rgb(64,64,64);"><path style="clip-path:url(#clipPath1); stroke:none;" d="M33.8125 388.3543 L35.75 388.3543 L35.75 381.6824 L33.6406 382.1043 L33.6406 381.0262 L35.7344 380.6043 L36.9219 380.6043 L36.9219 388.3543 L38.8594 388.3543 L38.8594 389.3543 L33.8125 389.3543 L33.8125 388.3543 ZM43.7754 381.3856 Q42.8691 381.3856 42.4082 382.284 Q41.9473 383.1824 41.9473 384.9949 Q41.9473 386.7918 42.4082 387.6902 Q42.8691 388.5887 43.7754 388.5887 Q44.6973 388.5887 45.1582 387.6902 Q45.6191 386.7918 45.6191 384.9949 Q45.6191 383.1824 45.1582 382.284 Q44.6973 381.3856 43.7754 381.3856 ZM43.7754 380.4481 Q45.2441 380.4481 46.0254 381.6121 Q46.8066 382.7762 46.8066 384.9949 Q46.8066 387.1981 46.0254 388.3621 Q45.2441 389.5262 43.7754 389.5262 Q42.3066 389.5262 41.5332 388.3621 Q40.7598 387.1981 40.7598 384.9949 Q40.7598 382.7762 41.5332 381.6121 Q42.3066 380.4481 43.7754 380.4481 ZM56.3164 385.5106 Q55.8164 385.5106 55.5273 385.9402 Q55.2383 386.3699 55.2383 387.1512 Q55.2383 387.9012 55.5273 388.3387 Q55.8164 388.7762 56.3164 388.7762 Q56.8164 388.7762 57.1055 388.3387 Q57.3945 387.9012 57.3945 387.1512 Q57.3945 386.3699 57.1055 385.9402 Q56.8164 385.5106 56.3164 385.5106 ZM56.3164 384.7606 Q57.2539 384.7606 57.793 385.4012 Q58.332 386.0418 58.332 387.1512 Q58.332 388.2449 57.7852 388.8856 Q57.2383 389.5262 56.3164 389.5262 Q55.3789 389.5262 54.8398 388.8856 Q54.3008 388.2449 54.3008 387.1512 Q54.3008 386.0418 54.8477 385.4012 Q55.3945 384.7606 56.3164 384.7606 ZM50.2695 381.1981 Q49.7695 381.1981 49.4805 381.6277 Q49.1914 382.0574 49.1914 382.8231 Q49.1914 383.6043 49.4805 384.034 Q49.7695 384.4637 50.2695 384.4637 Q50.7852 384.4637 51.0742 384.034 Q51.3633 383.6043 51.3633 382.8231 Q51.3633 382.0731 51.0742 381.6356 Q50.7852 381.1981 50.2695 381.1981 ZM55.5664 380.4481 L56.5039 380.4481 L51.0352 389.5262 L50.0977 389.5262 L55.5664 380.4481 ZM50.2695 380.4481 Q51.207 380.4481 51.7539 381.0887 Q52.3008 381.7293 52.3008 382.8231 Q52.3008 383.9324 51.7539 384.5731 Q51.207 385.2137 50.2695 385.2137 Q49.3477 385.2137 48.8008 384.5731 Q48.2539 383.9324 48.2539 382.8231 Q48.2539 381.7293 48.8008 381.0887 Q49.3477 380.4481 50.2695 380.4481 Z"/></g><g style="fill:rgb(64,64,64); text-rendering:optimizeLegibility; stroke:rgb(64,64,64);"><path style="clip-path:url(#clipPath1); stroke:none;" d="M33.8125 343.9543 L35.75 343.9543 L35.75 337.2824 L33.6406 337.7043 L33.6406 336.6262 L35.7344 336.2043 L36.9219 336.2043 L36.9219 343.9543 L38.8594 343.9543 L38.8594 344.9543 L33.8125 344.9543 L33.8125 343.9543 ZM41.2598 336.2043 L45.9004 336.2043 L45.9004 337.2043 L42.3379 337.2043 L42.3379 339.3449 Q42.6035 339.2512 42.8613 339.2121 Q43.1191 339.173 43.3691 339.173 Q44.8379 339.173 45.6973 339.9777 Q46.5566 340.7824 46.5566 342.1418 Q46.5566 343.5637 45.6738 344.3449 Q44.791 345.1262 43.1973 345.1262 Q42.6348 345.1262 42.0645 345.0324 Q41.4941 344.9387 40.8848 344.7512 L40.8848 343.5637 Q41.416 343.8449 41.9785 343.9855 Q42.541 344.1262 43.166 344.1262 Q44.1816 344.1262 44.7754 343.5949 Q45.3691 343.0637 45.3691 342.1418 Q45.3691 341.2355 44.7754 340.7043 Q44.1816 340.173 43.166 340.173 Q42.6973 340.173 42.2207 340.2746 Q41.7441 340.3762 41.2598 340.5949 L41.2598 336.2043 ZM56.3164 341.1105 Q55.8164 341.1105 55.5273 341.5402 Q55.2383 341.9699 55.2383 342.7512 Q55.2383 343.5012 55.5273 343.9387 Q55.8164 344.3762 56.3164 344.3762 Q56.8164 344.3762 57.1055 343.9387 Q57.3945 343.5012 57.3945 342.7512 Q57.3945 341.9699 57.1055 341.5402 Q56.8164 341.1105 56.3164 341.1105 ZM56.3164 340.3605 Q57.2539 340.3605 57.793 341.0012 Q58.332 341.6418 58.332 342.7512 Q58.332 343.8449 57.7852 344.4855 Q57.2383 345.1262 56.3164 345.1262 Q55.3789 345.1262 54.8398 344.4855 Q54.3008 343.8449 54.3008 342.7512 Q54.3008 341.6418 54.8477 341.0012 Q55.3945 340.3605 56.3164 340.3605 ZM50.2695 336.798 Q49.7695 336.798 49.4805 337.2277 Q49.1914 337.6574 49.1914 338.423 Q49.1914 339.2043 49.4805 339.634 Q49.7695 340.0637 50.2695 340.0637 Q50.7852 340.0637 51.0742 339.634 Q51.3633 339.2043 51.3633 338.423 Q51.3633 337.673 51.0742 337.2355 Q50.7852 336.798 50.2695 336.798 ZM55.5664 336.048 L56.5039 336.048 L51.0352 345.1262 L50.0977 345.1262 L55.5664 336.048 ZM50.2695 336.048 Q51.207 336.048 51.7539 336.6887 Q52.3008 337.3293 52.3008 338.423 Q52.3008 339.5324 51.7539 340.173 Q51.207 340.8137 50.2695 340.8137 Q49.3477 340.8137 48.8008 340.173 Q48.2539 339.5324 48.2539 338.423 Q48.2539 337.3293 48.8008 336.6887 Q49.3477 336.048 50.2695 336.048 Z"/></g><g style="fill:rgb(64,64,64); text-rendering:optimizeLegibility; stroke:rgb(64,64,64);"><path style="clip-path:url(#clipPath1); stroke:none;" d="M34.625 299.5543 L38.7656 299.5543 L38.7656 300.5543 L33.2031 300.5543 L33.2031 299.5543 Q33.875 298.8668 35.0391 297.6871 Q36.2031 296.5074 36.5 296.1637 Q37.0781 295.5387 37.3047 295.0934 Q37.5312 294.648 37.5312 294.2262 Q37.5312 293.523 37.0391 293.0855 Q36.5469 292.648 35.7656 292.648 Q35.2031 292.648 34.5859 292.8355 Q33.9688 293.023 33.2656 293.4293 L33.2656 292.2262 Q33.9844 291.9449 34.6016 291.7965 Q35.2188 291.648 35.7344 291.648 Q37.0938 291.648 37.9062 292.3277 Q38.7188 293.0074 38.7188 294.148 Q38.7188 294.6793 38.5156 295.1637 Q38.3125 295.648 37.7812 296.3043 Q37.625 296.4762 36.8438 297.2887 Q36.0625 298.1012 34.625 299.5543 ZM43.7754 292.5855 Q42.8691 292.5855 42.4082 293.484 Q41.9473 294.3824 41.9473 296.1949 Q41.9473 297.9918 42.4082 298.8902 Q42.8691 299.7887 43.7754 299.7887 Q44.6973 299.7887 45.1582 298.8902 Q45.6191 297.9918 45.6191 296.1949 Q45.6191 294.3824 45.1582 293.484 Q44.6973 292.5855 43.7754 292.5855 ZM43.7754 291.648 Q45.2441 291.648 46.0254 292.8121 Q46.8066 293.9762 46.8066 296.1949 Q46.8066 298.398 46.0254 299.5621 Q45.2441 300.7262 43.7754 300.7262 Q42.3066 300.7262 41.5332 299.5621 Q40.7598 298.398 40.7598 296.1949 Q40.7598 293.9762 41.5332 292.8121 Q42.3066 291.648 43.7754 291.648 ZM56.3164 296.7105 Q55.8164 296.7105 55.5273 297.1402 Q55.2383 297.5699 55.2383 298.3512 Q55.2383 299.1012 55.5273 299.5387 Q55.8164 299.9762 56.3164 299.9762 Q56.8164 299.9762 57.1055 299.5387 Q57.3945 299.1012 57.3945 298.3512 Q57.3945 297.5699 57.1055 297.1402 Q56.8164 296.7105 56.3164 296.7105 ZM56.3164 295.9605 Q57.2539 295.9605 57.793 296.6012 Q58.332 297.2418 58.332 298.3512 Q58.332 299.4449 57.7852 300.0855 Q57.2383 300.7262 56.3164 300.7262 Q55.3789 300.7262 54.8398 300.0855 Q54.3008 299.4449 54.3008 298.3512 Q54.3008 297.2418 54.8477 296.6012 Q55.3945 295.9605 56.3164 295.9605 ZM50.2695 292.398 Q49.7695 292.398 49.4805 292.8277 Q49.1914 293.2574 49.1914 294.023 Q49.1914 294.8043 49.4805 295.234 Q49.7695 295.6637 50.2695 295.6637 Q50.7852 295.6637 51.0742 295.234 Q51.3633 294.8043 51.3633 294.023 Q51.3633 293.273 51.0742 292.8355 Q50.7852 292.398 50.2695 292.398 ZM55.5664 291.648 L56.5039 291.648 L51.0352 300.7262 L50.0977 300.7262 L55.5664 291.648 ZM50.2695 291.648 Q51.207 291.648 51.7539 292.2887 Q52.3008 292.9293 52.3008 294.023 Q52.3008 295.1324 51.7539 295.773 Q51.207 296.4137 50.2695 296.4137 Q49.3477 296.4137 48.8008 295.773 Q48.2539 295.1324 48.2539 294.023 Q48.2539 292.9293 48.8008 292.2887 Q49.3477 291.648 50.2695 291.648 Z"/></g><g style="fill:rgb(64,64,64); text-rendering:optimizeLegibility; stroke:rgb(64,64,64);"><path style="clip-path:url(#clipPath1); stroke:none;" d="M34.625 255.1543 L38.7656 255.1543 L38.7656 256.1543 L33.2031 256.1543 L33.2031 255.1543 Q33.875 254.4668 35.0391 253.2871 Q36.2031 252.1074 36.5 251.7637 Q37.0781 251.1387 37.3047 250.6934 Q37.5312 250.248 37.5312 249.8262 Q37.5312 249.123 37.0391 248.6855 Q36.5469 248.248 35.7656 248.248 Q35.2031 248.248 34.5859 248.4355 Q33.9688 248.623 33.2656 249.0293 L33.2656 247.8262 Q33.9844 247.5449 34.6016 247.3965 Q35.2188 247.248 35.7344 247.248 Q37.0938 247.248 37.9062 247.9277 Q38.7188 248.6074 38.7188 249.748 Q38.7188 250.2793 38.5156 250.7637 Q38.3125 251.248 37.7812 251.9043 Q37.625 252.0762 36.8438 252.8887 Q36.0625 253.7012 34.625 255.1543 ZM41.2598 247.4043 L45.9004 247.4043 L45.9004 248.4043 L42.3379 248.4043 L42.3379 250.5449 Q42.6035 250.4512 42.8613 250.4121 Q43.1191 250.373 43.3691 250.373 Q44.8379 250.373 45.6973 251.1777 Q46.5566 251.9824 46.5566 253.3418 Q46.5566 254.7637 45.6738 255.5449 Q44.791 256.3262 43.1973 256.3262 Q42.6348 256.3262 42.0645 256.2324 Q41.4941 256.1387 40.8848 255.9512 L40.8848 254.7637 Q41.416 255.0449 41.9785 255.1855 Q42.541 255.3262 43.166 255.3262 Q44.1816 255.3262 44.7754 254.7949 Q45.3691 254.2637 45.3691 253.3418 Q45.3691 252.4355 44.7754 251.9043 Q44.1816 251.373 43.166 251.373 Q42.6973 251.373 42.2207 251.4746 Q41.7441 251.5762 41.2598 251.7949 L41.2598 247.4043 ZM56.3164 252.3105 Q55.8164 252.3105 55.5273 252.7402 Q55.2383 253.1699 55.2383 253.9512 Q55.2383 254.7012 55.5273 255.1387 Q55.8164 255.5762 56.3164 255.5762 Q56.8164 255.5762 57.1055 255.1387 Q57.3945 254.7012 57.3945 253.9512 Q57.3945 253.1699 57.1055 252.7402 Q56.8164 252.3105 56.3164 252.3105 ZM56.3164 251.5605 Q57.2539 251.5605 57.793 252.2012 Q58.332 252.8418 58.332 253.9512 Q58.332 255.0449 57.7852 255.6855 Q57.2383 256.3262 56.3164 256.3262 Q55.3789 256.3262 54.8398 255.6855 Q54.3008 255.0449 54.3008 253.9512 Q54.3008 252.8418 54.8477 252.2012 Q55.3945 251.5605 56.3164 251.5605 ZM50.2695 247.998 Q49.7695 247.998 49.4805 248.4277 Q49.1914 248.8574 49.1914 249.623 Q49.1914 250.4043 49.4805 250.834 Q49.7695 251.2637 50.2695 251.2637 Q50.7852 251.2637 51.0742 250.834 Q51.3633 250.4043 51.3633 249.623 Q51.3633 248.873 51.0742 248.4355 Q50.7852 247.998 50.2695 247.998 ZM55.5664 247.248 L56.5039 247.248 L51.0352 256.3262 L50.0977 256.3262 L55.5664 247.248 ZM50.2695 247.248 Q51.207 247.248 51.7539 247.8887 Q52.3008 248.5293 52.3008 249.623 Q52.3008 250.7324 51.7539 251.373 Q51.207 252.0137 50.2695 252.0137 Q49.3477 252.0137 48.8008 251.373 Q48.2539 250.7324 48.2539 249.623 Q48.2539 248.5293 48.8008 247.8887 Q49.3477 247.248 50.2695 247.248 Z"/></g><g style="fill:rgb(64,64,64); text-rendering:optimizeLegibility; stroke:rgb(64,64,64);"><path style="clip-path:url(#clipPath1); stroke:none;" d="M37.2031 207.0356 Q38.0469 207.2231 38.5234 207.7934 Q39 208.3637 39 209.2074 Q39 210.5043 38.1094 211.2152 Q37.2188 211.9262 35.5781 211.9262 Q35.0312 211.9262 34.4453 211.8168 Q33.8594 211.7074 33.25 211.4887 L33.25 210.3481 Q33.7344 210.6293 34.3203 210.7777 Q34.9062 210.9262 35.5469 210.9262 Q36.6562 210.9262 37.2422 210.4887 Q37.8281 210.0512 37.8281 209.2074 Q37.8281 208.4418 37.2812 208.0043 Q36.7344 207.5668 35.7812 207.5668 L34.75 207.5668 L34.75 206.5981 L35.8281 206.5981 Q36.6875 206.5981 37.1562 206.2465 Q37.625 205.8949 37.625 205.2387 Q37.625 204.5668 37.1484 204.2074 Q36.6719 203.8481 35.7812 203.8481 Q35.2812 203.8481 34.7266 203.9496 Q34.1719 204.0512 33.5 204.2699 L33.5 203.2231 Q34.1875 203.0356 34.7734 202.9418 Q35.3594 202.8481 35.875 202.8481 Q37.2344 202.8481 38.0156 203.4574 Q38.7969 204.0668 38.7969 205.1137 Q38.7969 205.8481 38.3828 206.3481 Q37.9688 206.8481 37.2031 207.0356 ZM43.7754 203.7856 Q42.8691 203.7856 42.4082 204.684 Q41.9473 205.5824 41.9473 207.3949 Q41.9473 209.1918 42.4082 210.0902 Q42.8691 210.9887 43.7754 210.9887 Q44.6973 210.9887 45.1582 210.0902 Q45.6191 209.1918 45.6191 207.3949 Q45.6191 205.5824 45.1582 204.684 Q44.6973 203.7856 43.7754 203.7856 ZM43.7754 202.8481 Q45.2441 202.8481 46.0254 204.0121 Q46.8066 205.1762 46.8066 207.3949 Q46.8066 209.5981 46.0254 210.7621 Q45.2441 211.9262 43.7754 211.9262 Q42.3066 211.9262 41.5332 210.7621 Q40.7598 209.5981 40.7598 207.3949 Q40.7598 205.1762 41.5332 204.0121 Q42.3066 202.8481 43.7754 202.8481 ZM56.3164 207.9106 Q55.8164 207.9106 55.5273 208.3402 Q55.2383 208.7699 55.2383 209.5512 Q55.2383 210.3012 55.5273 210.7387 Q55.8164 211.1762 56.3164 211.1762 Q56.8164 211.1762 57.1055 210.7387 Q57.3945 210.3012 57.3945 209.5512 Q57.3945 208.7699 57.1055 208.3402 Q56.8164 207.9106 56.3164 207.9106 ZM56.3164 207.1606 Q57.2539 207.1606 57.793 207.8012 Q58.332 208.4418 58.332 209.5512 Q58.332 210.6449 57.7852 211.2856 Q57.2383 211.9262 56.3164 211.9262 Q55.3789 211.9262 54.8398 211.2856 Q54.3008 210.6449 54.3008 209.5512 Q54.3008 208.4418 54.8477 207.8012 Q55.3945 207.1606 56.3164 207.1606 ZM50.2695 203.5981 Q49.7695 203.5981 49.4805 204.0277 Q49.1914 204.4574 49.1914 205.2231 Q49.1914 206.0043 49.4805 206.434 Q49.7695 206.8637 50.2695 206.8637 Q50.7852 206.8637 51.0742 206.434 Q51.3633 206.0043 51.3633 205.2231 Q51.3633 204.4731 51.0742 204.0356 Q50.7852 203.5981 50.2695 203.5981 ZM55.5664 202.8481 L56.5039 202.8481 L51.0352 211.9262 L50.0977 211.9262 L55.5664 202.8481 ZM50.2695 202.8481 Q51.207 202.8481 51.7539 203.4887 Q52.3008 204.1293 52.3008 205.2231 Q52.3008 206.3324 51.7539 206.9731 Q51.207 207.6137 50.2695 207.6137 Q49.3477 207.6137 48.8008 206.9731 Q48.2539 206.3324 48.2539 205.2231 Q48.2539 204.1293 48.8008 203.4887 Q49.3477 202.8481 50.2695 202.8481 Z"/></g><g style="fill:rgb(64,64,64); text-rendering:optimizeLegibility; stroke:rgb(64,64,64);"><path style="clip-path:url(#clipPath1); stroke:none;" d="M37.2031 162.6355 Q38.0469 162.823 38.5234 163.3934 Q39 163.9637 39 164.8074 Q39 166.1043 38.1094 166.8152 Q37.2188 167.5262 35.5781 167.5262 Q35.0312 167.5262 34.4453 167.4168 Q33.8594 167.3074 33.25 167.0887 L33.25 165.948 Q33.7344 166.2293 34.3203 166.3777 Q34.9062 166.5262 35.5469 166.5262 Q36.6562 166.5262 37.2422 166.0887 Q37.8281 165.6512 37.8281 164.8074 Q37.8281 164.0418 37.2812 163.6043 Q36.7344 163.1668 35.7812 163.1668 L34.75 163.1668 L34.75 162.198 L35.8281 162.198 Q36.6875 162.198 37.1562 161.8465 Q37.625 161.4949 37.625 160.8387 Q37.625 160.1668 37.1484 159.8074 Q36.6719 159.448 35.7812 159.448 Q35.2812 159.448 34.7266 159.5496 Q34.1719 159.6512 33.5 159.8699 L33.5 158.823 Q34.1875 158.6355 34.7734 158.5418 Q35.3594 158.448 35.875 158.448 Q37.2344 158.448 38.0156 159.0574 Q38.7969 159.6668 38.7969 160.7137 Q38.7969 161.448 38.3828 161.948 Q37.9688 162.448 37.2031 162.6355 ZM41.2598 158.6043 L45.9004 158.6043 L45.9004 159.6043 L42.3379 159.6043 L42.3379 161.7449 Q42.6035 161.6512 42.8613 161.6121 Q43.1191 161.573 43.3691 161.573 Q44.8379 161.573 45.6973 162.3777 Q46.5566 163.1824 46.5566 164.5418 Q46.5566 165.9637 45.6738 166.7449 Q44.791 167.5262 43.1973 167.5262 Q42.6348 167.5262 42.0645 167.4324 Q41.4941 167.3387 40.8848 167.1512 L40.8848 165.9637 Q41.416 166.2449 41.9785 166.3855 Q42.541 166.5262 43.166 166.5262 Q44.1816 166.5262 44.7754 165.9949 Q45.3691 165.4637 45.3691 164.5418 Q45.3691 163.6355 44.7754 163.1043 Q44.1816 162.573 43.166 162.573 Q42.6973 162.573 42.2207 162.6746 Q41.7441 162.7762 41.2598 162.9949 L41.2598 158.6043 ZM56.3164 163.5105 Q55.8164 163.5105 55.5273 163.9402 Q55.2383 164.3699 55.2383 165.1512 Q55.2383 165.9012 55.5273 166.3387 Q55.8164 166.7762 56.3164 166.7762 Q56.8164 166.7762 57.1055 166.3387 Q57.3945 165.9012 57.3945 165.1512 Q57.3945 164.3699 57.1055 163.9402 Q56.8164 163.5105 56.3164 163.5105 ZM56.3164 162.7605 Q57.2539 162.7605 57.793 163.4012 Q58.332 164.0418 58.332 165.1512 Q58.332 166.2449 57.7852 166.8855 Q57.2383 167.5262 56.3164 167.5262 Q55.3789 167.5262 54.8398 166.8855 Q54.3008 166.2449 54.3008 165.1512 Q54.3008 164.0418 54.8477 163.4012 Q55.3945 162.7605 56.3164 162.7605 ZM50.2695 159.198 Q49.7695 159.198 49.4805 159.6277 Q49.1914 160.0574 49.1914 160.823 Q49.1914 161.6043 49.4805 162.034 Q49.7695 162.4637 50.2695 162.4637 Q50.7852 162.4637 51.0742 162.034 Q51.3633 161.6043 51.3633 160.823 Q51.3633 160.073 51.0742 159.6355 Q50.7852 159.198 50.2695 159.198 ZM55.5664 158.448 L56.5039 158.448 L51.0352 167.5262 L50.0977 167.5262 L55.5664 158.448 ZM50.2695 158.448 Q51.207 158.448 51.7539 159.0887 Q52.3008 159.7293 52.3008 160.823 Q52.3008 161.9324 51.7539 162.573 Q51.207 163.2137 50.2695 163.2137 Q49.3477 163.2137 48.8008 162.573 Q48.2539 161.9324 48.2539 160.823 Q48.2539 159.7293 48.8008 159.0887 Q49.3477 158.448 50.2695 158.448 Z"/></g><g style="fill:rgb(64,64,64); text-rendering:optimizeLegibility; stroke:rgb(64,64,64);"><path style="clip-path:url(#clipPath1); stroke:none;" d="M36.8594 115.2355 L33.875 119.9074 L36.8594 119.9074 L36.8594 115.2355 ZM36.5469 114.2043 L38.0469 114.2043 L38.0469 119.9074 L39.2969 119.9074 L39.2969 120.8918 L38.0469 120.8918 L38.0469 122.9543 L36.8594 122.9543 L36.8594 120.8918 L32.9219 120.8918 L32.9219 119.7512 L36.5469 114.2043 ZM43.7754 114.9855 Q42.8691 114.9855 42.4082 115.884 Q41.9473 116.7824 41.9473 118.5949 Q41.9473 120.3918 42.4082 121.2902 Q42.8691 122.1887 43.7754 122.1887 Q44.6973 122.1887 45.1582 121.2902 Q45.6191 120.3918 45.6191 118.5949 Q45.6191 116.7824 45.1582 115.884 Q44.6973 114.9855 43.7754 114.9855 ZM43.7754 114.048 Q45.2441 114.048 46.0254 115.2121 Q46.8066 116.3762 46.8066 118.5949 Q46.8066 120.798 46.0254 121.9621 Q45.2441 123.1262 43.7754 123.1262 Q42.3066 123.1262 41.5332 121.9621 Q40.7598 120.798 40.7598 118.5949 Q40.7598 116.3762 41.5332 115.2121 Q42.3066 114.048 43.7754 114.048 ZM56.3164 119.1105 Q55.8164 119.1105 55.5273 119.5402 Q55.2383 119.9699 55.2383 120.7512 Q55.2383 121.5012 55.5273 121.9387 Q55.8164 122.3762 56.3164 122.3762 Q56.8164 122.3762 57.1055 121.9387 Q57.3945 121.5012 57.3945 120.7512 Q57.3945 119.9699 57.1055 119.5402 Q56.8164 119.1105 56.3164 119.1105 ZM56.3164 118.3605 Q57.2539 118.3605 57.793 119.0012 Q58.332 119.6418 58.332 120.7512 Q58.332 121.8449 57.7852 122.4855 Q57.2383 123.1262 56.3164 123.1262 Q55.3789 123.1262 54.8398 122.4855 Q54.3008 121.8449 54.3008 120.7512 Q54.3008 119.6418 54.8477 119.0012 Q55.3945 118.3605 56.3164 118.3605 ZM50.2695 114.798 Q49.7695 114.798 49.4805 115.2277 Q49.1914 115.6574 49.1914 116.423 Q49.1914 117.2043 49.4805 117.634 Q49.7695 118.0637 50.2695 118.0637 Q50.7852 118.0637 51.0742 117.634 Q51.3633 117.2043 51.3633 116.423 Q51.3633 115.673 51.0742 115.2355 Q50.7852 114.798 50.2695 114.798 ZM55.5664 114.048 L56.5039 114.048 L51.0352 123.1262 L50.0977 123.1262 L55.5664 114.048 ZM50.2695 114.048 Q51.207 114.048 51.7539 114.6887 Q52.3008 115.3293 52.3008 116.423 Q52.3008 117.5324 51.7539 118.173 Q51.207 118.8137 50.2695 118.8137 Q49.3477 118.8137 48.8008 118.173 Q48.2539 117.5324 48.2539 116.423 Q48.2539 115.3293 48.8008 114.6887 Q49.3477 114.048 50.2695 114.048 Z"/></g><g style="fill:rgb(64,64,64); text-rendering:optimizeLegibility; stroke:rgb(64,64,64);"><path style="clip-path:url(#clipPath1); stroke:none;" d="M36.8594 70.8355 L33.875 75.5074 L36.8594 75.5074 L36.8594 70.8355 ZM36.5469 69.8043 L38.0469 69.8043 L38.0469 75.5074 L39.2969 75.5074 L39.2969 76.4918 L38.0469 76.4918 L38.0469 78.5543 L36.8594 78.5543 L36.8594 76.4918 L32.9219 76.4918 L32.9219 75.3512 L36.5469 69.8043 ZM41.2598 69.8043 L45.9004 69.8043 L45.9004 70.8043 L42.3379 70.8043 L42.3379 72.9449 Q42.6035 72.8512 42.8613 72.8121 Q43.1191 72.773 43.3691 72.773 Q44.8379 72.773 45.6973 73.5777 Q46.5566 74.3824 46.5566 75.7418 Q46.5566 77.1637 45.6738 77.9449 Q44.791 78.7262 43.1973 78.7262 Q42.6348 78.7262 42.0645 78.6324 Q41.4941 78.5387 40.8848 78.3512 L40.8848 77.1637 Q41.416 77.4449 41.9785 77.5855 Q42.541 77.7262 43.166 77.7262 Q44.1816 77.7262 44.7754 77.1949 Q45.3691 76.6637 45.3691 75.7418 Q45.3691 74.8355 44.7754 74.3043 Q44.1816 73.773 43.166 73.773 Q42.6973 73.773 42.2207 73.8746 Q41.7441 73.9762 41.2598 74.1949 L41.2598 69.8043 ZM56.3164 74.7105 Q55.8164 74.7105 55.5273 75.1402 Q55.2383 75.5699 55.2383 76.3512 Q55.2383 77.1012 55.5273 77.5387 Q55.8164 77.9762 56.3164 77.9762 Q56.8164 77.9762 57.1055 77.5387 Q57.3945 77.1012 57.3945 76.3512 Q57.3945 75.5699 57.1055 75.1402 Q56.8164 74.7105 56.3164 74.7105 ZM56.3164 73.9605 Q57.2539 73.9605 57.793 74.6012 Q58.332 75.2418 58.332 76.3512 Q58.332 77.4449 57.7852 78.0855 Q57.2383 78.7262 56.3164 78.7262 Q55.3789 78.7262 54.8398 78.0855 Q54.3008 77.4449 54.3008 76.3512 Q54.3008 75.2418 54.8477 74.6012 Q55.3945 73.9605 56.3164 73.9605 ZM50.2695 70.398 Q49.7695 70.398 49.4805 70.8277 Q49.1914 71.2574 49.1914 72.023 Q49.1914 72.8043 49.4805 73.234 Q49.7695 73.6637 50.2695 73.6637 Q50.7852 73.6637 51.0742 73.234 Q51.3633 72.8043 51.3633 72.023 Q51.3633 71.273 51.0742 70.8355 Q50.7852 70.398 50.2695 70.398 ZM55.5664 69.648 L56.5039 69.648 L51.0352 78.7262 L50.0977 78.7262 L55.5664 69.648 ZM50.2695 69.648 Q51.207 69.648 51.7539 70.2887 Q52.3008 70.9293 52.3008 72.023 Q52.3008 73.1324 51.7539 73.773 Q51.207 74.4137 50.2695 74.4137 Q49.3477 74.4137 48.8008 73.773 Q48.2539 73.1324 48.2539 72.023 Q48.2539 70.9293 48.8008 70.2887 Q49.3477 69.648 50.2695 69.648 Z"/></g><g style="fill:rgb(64,64,64); text-rendering:optimizeLegibility; stroke:rgb(64,64,64);"><path style="clip-path:url(#clipPath1); stroke:none;" d="M33.625 25.4043 L38.2656 25.4043 L38.2656 26.4043 L34.7031 26.4043 L34.7031 28.5449 Q34.9688 28.4512 35.2266 28.4121 Q35.4844 28.373 35.7344 28.373 Q37.2031 28.373 38.0625 29.1777 Q38.9219 29.9824 38.9219 31.3418 Q38.9219 32.7637 38.0391 33.5449 Q37.1562 34.3262 35.5625 34.3262 Q35 34.3262 34.4297 34.2324 Q33.8594 34.1387 33.25 33.9512 L33.25 32.7637 Q33.7812 33.0449 34.3438 33.1855 Q34.9062 33.3262 35.5312 33.3262 Q36.5469 33.3262 37.1406 32.7949 Q37.7344 32.2637 37.7344 31.3418 Q37.7344 30.4355 37.1406 29.9043 Q36.5469 29.373 35.5312 29.373 Q35.0625 29.373 34.5859 29.4746 Q34.1094 29.5762 33.625 29.7949 L33.625 25.4043 ZM43.7754 26.1855 Q42.8691 26.1855 42.4082 27.084 Q41.9473 27.9824 41.9473 29.7949 Q41.9473 31.5918 42.4082 32.4902 Q42.8691 33.3887 43.7754 33.3887 Q44.6973 33.3887 45.1582 32.4902 Q45.6191 31.5918 45.6191 29.7949 Q45.6191 27.9824 45.1582 27.084 Q44.6973 26.1855 43.7754 26.1855 ZM43.7754 25.248 Q45.2441 25.248 46.0254 26.4121 Q46.8066 27.5762 46.8066 29.7949 Q46.8066 31.998 46.0254 33.1621 Q45.2441 34.3262 43.7754 34.3262 Q42.3066 34.3262 41.5332 33.1621 Q40.7598 31.998 40.7598 29.7949 Q40.7598 27.5762 41.5332 26.4121 Q42.3066 25.248 43.7754 25.248 ZM56.3164 30.3105 Q55.8164 30.3105 55.5273 30.7402 Q55.2383 31.1699 55.2383 31.9512 Q55.2383 32.7012 55.5273 33.1387 Q55.8164 33.5762 56.3164 33.5762 Q56.8164 33.5762 57.1055 33.1387 Q57.3945 32.7012 57.3945 31.9512 Q57.3945 31.1699 57.1055 30.7402 Q56.8164 30.3105 56.3164 30.3105 ZM56.3164 29.5605 Q57.2539 29.5605 57.793 30.2012 Q58.332 30.8418 58.332 31.9512 Q58.332 33.0449 57.7852 33.6855 Q57.2383 34.3262 56.3164 34.3262 Q55.3789 34.3262 54.8398 33.6855 Q54.3008 33.0449 54.3008 31.9512 Q54.3008 30.8418 54.8477 30.2012 Q55.3945 29.5605 56.3164 29.5605 ZM50.2695 25.998 Q49.7695 25.998 49.4805 26.4277 Q49.1914 26.8574 49.1914 27.623 Q49.1914 28.4043 49.4805 28.834 Q49.7695 29.2637 50.2695 29.2637 Q50.7852 29.2637 51.0742 28.834 Q51.3633 28.4043 51.3633 27.623 Q51.3633 26.873 51.0742 26.4355 Q50.7852 25.998 50.2695 25.998 ZM55.5664 25.248 L56.5039 25.248 L51.0352 34.3262 L50.0977 34.3262 L55.5664 25.248 ZM50.2695 25.248 Q51.207 25.248 51.7539 25.8887 Q52.3008 26.5293 52.3008 27.623 Q52.3008 28.7324 51.7539 29.373 Q51.207 30.0137 50.2695 30.0137 Q49.3477 30.0137 48.8008 29.373 Q48.2539 28.7324 48.2539 27.623 Q48.2539 26.5293 48.8008 25.8887 Q49.3477 25.248 50.2695 25.248 Z"/></g><g style="fill:rgb(64,64,64); text-rendering:optimizeLegibility; font-size:14; font-weight:bold; stroke:rgb(64,64,64);" transform="matrix(0,-1,1,0,-232.8203,271.1797)"><path style="clip-path:url(#clipPath2); stroke:none;" d="M-136.6367 252.6279 Q-137.1211 252.6279 -137.3867 253.0498 Q-137.6523 253.4717 -137.6523 254.2529 Q-137.6523 255.0342 -137.3867 255.4561 Q-137.1211 255.8779 -136.6367 255.8779 Q-136.1367 255.8779 -135.8789 255.4561 Q-135.6211 255.0342 -135.6211 254.2529 Q-135.6211 253.4717 -135.8867 253.0498 Q-136.1523 252.6279 -136.6367 252.6279 ZM-136.6367 251.4873 Q-135.3555 251.4873 -134.6289 252.2217 Q-133.9023 252.9561 -133.9023 254.2529 Q-133.9023 255.5498 -134.6289 256.2998 Q-135.3555 257.0498 -136.6367 257.0498 Q-137.9023 257.0498 -138.6367 256.2998 Q-139.3711 255.5498 -139.3711 254.2529 Q-139.3711 252.9717 -138.6367 252.2295 Q-137.9023 251.4873 -136.6367 251.4873 ZM-142.9023 257.0498 L-144.418 257.0498 L-138.0273 246.4561 L-136.5117 246.4561 L-142.9023 257.0498 ZM-144.3086 246.4561 Q-143.0273 246.4561 -142.3008 247.1982 Q-141.5742 247.9404 -141.5742 249.2373 Q-141.5742 250.5186 -142.3008 251.2686 Q-143.0273 252.0186 -144.3086 252.0186 Q-145.5742 252.0186 -146.3008 251.2686 Q-147.0273 250.5186 -147.0273 249.2373 Q-147.0273 247.9404 -146.3008 247.1982 Q-145.5742 246.4561 -144.3086 246.4561 ZM-144.3086 247.5967 Q-144.793 247.5967 -145.0586 248.0264 Q-145.3242 248.4561 -145.3242 249.2373 Q-145.3242 250.0186 -145.0586 250.4482 Q-144.793 250.8779 -144.3086 250.8779 Q-143.8086 250.8779 -143.543 250.4482 Q-143.2773 250.0186 -143.2773 249.2373 Q-143.2773 248.4561 -143.543 248.0264 Q-143.8086 247.5967 -144.3086 247.5967 ZM-123.7666 250.7529 Q-124.5791 250.7529 -125.001 251.3389 Q-125.4229 251.9248 -125.4229 253.0186 Q-125.4229 254.1279 -125.001 254.7139 Q-124.5791 255.2998 -123.7666 255.2998 Q-122.9541 255.2998 -122.5322 254.7139 Q-122.1104 254.1279 -122.1104 253.0186 Q-122.1104 251.9248 -122.5322 251.3389 Q-122.9541 250.7529 -123.7666 250.7529 ZM-123.7666 249.0029 Q-121.7822 249.0029 -120.6729 250.0732 Q-119.5635 251.1436 -119.5635 253.0186 Q-119.5635 254.9092 -120.6729 255.9795 Q-121.7822 257.0498 -123.7666 257.0498 Q-125.7354 257.0498 -126.8525 255.9795 Q-127.9697 254.9092 -127.9697 253.0186 Q-127.9697 251.1436 -126.8525 250.0732 Q-125.7354 249.0029 -123.7666 249.0029 ZM-112.7422 246.2061 L-112.7422 247.8154 L-114.1016 247.8154 Q-114.6172 247.8154 -114.8203 248.0029 Q-115.0234 248.1904 -115.0234 248.6592 L-115.0234 249.1904 L-112.9453 249.1904 L-112.9453 250.9404 L-115.0234 250.9404 L-115.0234 256.8467 L-117.4766 256.8467 L-117.4766 250.9404 L-118.6953 250.9404 L-118.6953 249.1904 L-117.4766 249.1904 L-117.4766 248.6592 Q-117.4766 247.4092 -116.7812 246.8076 Q-116.0859 246.2061 -114.6172 246.2061 L-112.7422 246.2061 ZM-101.7773 246.2061 L-101.7773 247.8154 L-103.1367 247.8154 Q-103.6523 247.8154 -103.8555 248.0029 Q-104.0586 248.1904 -104.0586 248.6592 L-104.0586 249.1904 L-101.9805 249.1904 L-101.9805 250.9404 L-104.0586 250.9404 L-104.0586 256.8467 L-106.5117 256.8467 L-106.5117 250.9404 L-107.7305 250.9404 L-107.7305 249.1904 L-106.5117 249.1904 L-106.5117 248.6592 Q-106.5117 247.4092 -105.8164 246.8076 Q-105.1211 246.2061 -103.6523 246.2061 L-101.7773 246.2061 ZM-97.2959 253.3936 Q-98.0615 253.3936 -98.4521 253.6592 Q-98.8428 253.9248 -98.8428 254.4248 Q-98.8428 254.8936 -98.5303 255.1592 Q-98.2178 255.4248 -97.6553 255.4248 Q-96.9678 255.4248 -96.499 254.9248 Q-96.0303 254.4248 -96.0303 253.6748 L-96.0303 253.3936 L-97.2959 253.3936 ZM-93.5615 252.4717 L-93.5615 256.8467 L-96.0303 256.8467 L-96.0303 255.7061 Q-96.5146 256.4092 -97.1318 256.7295 Q-97.749 257.0498 -98.624 257.0498 Q-99.8271 257.0498 -100.5615 256.3545 Q-101.2959 255.6592 -101.2959 254.5498 Q-101.2959 253.2061 -100.374 252.5732 Q-99.4521 251.9404 -97.4678 251.9404 L-96.0303 251.9404 L-96.0303 251.7529 Q-96.0303 251.1748 -96.4834 250.9014 Q-96.9365 250.6279 -97.9053 250.6279 Q-98.7021 250.6279 -99.374 250.7842 Q-100.0459 250.9404 -100.6396 251.2686 L-100.6396 249.3936 Q-99.8428 249.2061 -99.0537 249.1045 Q-98.2646 249.0029 -97.4678 249.0029 Q-95.3896 249.0029 -94.4756 249.8232 Q-93.5615 250.6436 -93.5615 252.4717 ZM-85.5986 251.2686 Q-85.9111 251.1279 -86.2314 251.0576 Q-86.5518 250.9873 -86.8799 250.9873 Q-87.8174 250.9873 -88.3252 251.5889 Q-88.833 252.1904 -88.833 253.3154 L-88.833 256.8467 L-91.2861 256.8467 L-91.2861 249.1904 L-88.833 249.1904 L-88.833 250.4404 Q-88.3643 249.6904 -87.7549 249.3467 Q-87.1455 249.0029 -86.2861 249.0029 Q-86.1611 249.0029 -86.0205 249.0107 Q-85.8799 249.0186 -85.5986 249.0654 L-85.5986 251.2686 ZM-77.2881 250.4561 Q-76.8193 249.7529 -76.1787 249.3779 Q-75.5381 249.0029 -74.7725 249.0029 Q-73.46 249.0029 -72.7646 249.8154 Q-72.0693 250.6279 -72.0693 252.1904 L-72.0693 256.8467 L-74.5381 256.8467 L-74.5381 252.8467 Q-74.5225 252.7686 -74.5225 252.6748 Q-74.5225 252.5811 -74.5225 252.3936 Q-74.5225 251.5811 -74.7568 251.2139 Q-74.9912 250.8467 -75.5381 250.8467 Q-76.2256 250.8467 -76.6084 251.4248 Q-76.9912 252.0029 -77.0068 253.0811 L-77.0068 256.8467 L-79.46 256.8467 L-79.46 252.8467 Q-79.46 251.5811 -79.6787 251.2139 Q-79.8975 250.8467 -80.46 250.8467 Q-81.1631 250.8467 -81.5459 251.4248 Q-81.9287 252.0029 -81.9287 253.0811 L-81.9287 256.8467 L-84.3975 256.8467 L-84.3975 249.1904 L-81.9287 249.1904 L-81.9287 250.3154 Q-81.4756 249.6592 -80.8896 249.3311 Q-80.3037 249.0029 -79.6006 249.0029 Q-78.8193 249.0029 -78.21 249.3857 Q-77.6006 249.7686 -77.2881 250.4561 ZM-62.1533 253.0029 L-62.1533 253.6904 L-67.8721 253.6904 Q-67.7783 254.5498 -67.2471 254.9873 Q-66.7158 255.4248 -65.7627 255.4248 Q-64.9814 255.4248 -64.1689 255.1904 Q-63.3564 254.9561 -62.5127 254.4873 L-62.5127 256.3779 Q-63.3721 256.7061 -64.2393 256.8779 Q-65.1064 257.0498 -65.9814 257.0498 Q-68.0596 257.0498 -69.208 255.9873 Q-70.3564 254.9248 -70.3564 253.0186 Q-70.3564 251.1592 -69.2314 250.0811 Q-68.1064 249.0029 -66.1221 249.0029 Q-64.3096 249.0029 -63.2314 250.0889 Q-62.1533 251.1748 -62.1533 253.0029 ZM-64.6689 252.1904 Q-64.6689 251.4873 -65.0752 251.0576 Q-65.4814 250.6279 -66.1377 250.6279 Q-66.8408 250.6279 -67.2861 251.0264 Q-67.7314 251.4248 -67.8408 252.1904 L-64.6689 252.1904 ZM-54.6113 251.2686 Q-54.9238 251.1279 -55.2441 251.0576 Q-55.5645 250.9873 -55.8926 250.9873 Q-56.8301 250.9873 -57.3379 251.5889 Q-57.8457 252.1904 -57.8457 253.3154 L-57.8457 256.8467 L-60.2988 256.8467 L-60.2988 249.1904 L-57.8457 249.1904 L-57.8457 250.4404 Q-57.377 249.6904 -56.7676 249.3467 Q-56.1582 249.0029 -55.2988 249.0029 Q-55.1738 249.0029 -55.0332 249.0107 Q-54.8926 249.0186 -54.6113 249.0654 L-54.6113 251.2686 ZM-47.4102 249.4248 L-47.4102 251.2842 Q-48.1914 250.9561 -48.9258 250.792 Q-49.6602 250.6279 -50.3008 250.6279 Q-51.0039 250.6279 -51.3398 250.8076 Q-51.6758 250.9873 -51.6758 251.3467 Q-51.6758 251.6436 -51.4258 251.7998 Q-51.1758 251.9561 -50.5039 252.0342 L-50.082 252.0811 Q-48.1914 252.3311 -47.543 252.8779 Q-46.8945 253.4248 -46.8945 254.5967 Q-46.8945 255.8154 -47.8008 256.4326 Q-48.707 257.0498 -50.4883 257.0498 Q-51.2539 257.0498 -52.0586 256.9248 Q-52.8633 256.7998 -53.7227 256.5654 L-53.7227 254.7061 Q-52.9883 255.0654 -52.2227 255.2451 Q-51.457 255.4248 -50.6602 255.4248 Q-49.9414 255.4248 -49.582 255.2217 Q-49.2227 255.0186 -49.2227 254.6279 Q-49.2227 254.2998 -49.4727 254.1436 Q-49.7227 253.9873 -50.457 253.8936 L-50.8945 253.8311 Q-52.5352 253.6279 -53.1914 253.0732 Q-53.8477 252.5186 -53.8477 251.3936 Q-53.8477 250.1748 -53.0117 249.5889 Q-52.1758 249.0029 -50.457 249.0029 Q-49.7695 249.0029 -49.0273 249.1045 Q-48.2852 249.2061 -47.4102 249.4248 ZM-36.75 253.3936 Q-37.5156 253.3936 -37.9062 253.6592 Q-38.2969 253.9248 -38.2969 254.4248 Q-38.2969 254.8936 -37.9844 255.1592 Q-37.6719 255.4248 -37.1094 255.4248 Q-36.4219 255.4248 -35.9531 254.9248 Q-35.4844 254.4248 -35.4844 253.6748 L-35.4844 253.3936 L-36.75 253.3936 ZM-33.0156 252.4717 L-33.0156 256.8467 L-35.4844 256.8467 L-35.4844 255.7061 Q-35.9688 256.4092 -36.5859 256.7295 Q-37.2031 257.0498 -38.0781 257.0498 Q-39.2812 257.0498 -40.0156 256.3545 Q-40.75 255.6592 -40.75 254.5498 Q-40.75 253.2061 -39.8281 252.5732 Q-38.9062 251.9404 -36.9219 251.9404 L-35.4844 251.9404 L-35.4844 251.7529 Q-35.4844 251.1748 -35.9375 250.9014 Q-36.3906 250.6279 -37.3594 250.6279 Q-38.1562 250.6279 -38.8281 250.7842 Q-39.5 250.9404 -40.0938 251.2686 L-40.0938 249.3936 Q-39.2969 249.2061 -38.5078 249.1045 Q-37.7188 249.0029 -36.9219 249.0029 Q-34.8438 249.0029 -33.9297 249.8232 Q-33.0156 250.6436 -33.0156 252.4717 ZM-25.5215 250.3154 L-25.5215 246.2061 L-23.0684 246.2061 L-23.0684 256.8467 L-25.5215 256.8467 L-25.5215 255.7373 Q-26.0371 256.4092 -26.6465 256.7295 Q-27.2559 257.0498 -28.0527 257.0498 Q-29.459 257.0498 -30.373 255.9248 Q-31.2871 254.7998 -31.2871 253.0186 Q-31.2871 251.2529 -30.373 250.1279 Q-29.459 249.0029 -28.0527 249.0029 Q-27.2559 249.0029 -26.6465 249.3232 Q-26.0371 249.6436 -25.5215 250.3154 ZM-27.1465 255.2686 Q-26.3496 255.2686 -25.9355 254.6904 Q-25.5215 254.1123 -25.5215 253.0186 Q-25.5215 251.9248 -25.9355 251.3545 Q-26.3496 250.7842 -27.1465 250.7842 Q-27.9121 250.7842 -28.3262 251.3545 Q-28.7402 251.9248 -28.7402 253.0186 Q-28.7402 254.1123 -28.3262 254.6904 Q-27.9121 255.2686 -27.1465 255.2686 ZM-17.0781 250.7529 Q-17.8906 250.7529 -18.3125 251.3389 Q-18.7344 251.9248 -18.7344 253.0186 Q-18.7344 254.1279 -18.3125 254.7139 Q-17.8906 255.2998 -17.0781 255.2998 Q-16.2656 255.2998 -15.8438 254.7139 Q-15.4219 254.1279 -15.4219 253.0186 Q-15.4219 251.9248 -15.8438 251.3389 Q-16.2656 250.7529 -17.0781 250.7529 ZM-17.0781 249.0029 Q-15.0938 249.0029 -13.9844 250.0732 Q-12.875 251.1436 -12.875 253.0186 Q-12.875 254.9092 -13.9844 255.9795 Q-15.0938 257.0498 -17.0781 257.0498 Q-19.0469 257.0498 -20.1641 255.9795 Q-21.2812 254.9092 -21.2812 253.0186 Q-21.2812 251.1436 -20.1641 250.0732 Q-19.0469 249.0029 -17.0781 249.0029 ZM-8.6475 255.7373 L-8.6475 259.7529 L-11.1006 259.7529 L-11.1006 249.1904 L-8.6475 249.1904 L-8.6475 250.3154 Q-8.1475 249.6436 -7.5303 249.3232 Q-6.9131 249.0029 -6.1162 249.0029 Q-4.6943 249.0029 -3.7881 250.1279 Q-2.8818 251.2529 -2.8818 253.0186 Q-2.8818 254.7998 -3.7881 255.9248 Q-4.6943 257.0498 -6.1162 257.0498 Q-6.9131 257.0498 -7.5303 256.7295 Q-8.1475 256.4092 -8.6475 255.7373 ZM-7.0225 250.7842 Q-7.8037 250.7842 -8.2256 251.3623 Q-8.6475 251.9404 -8.6475 253.0186 Q-8.6475 254.1123 -8.2256 254.6904 Q-7.8037 255.2686 -7.0225 255.2686 Q-6.2412 255.2686 -5.8271 254.6904 Q-5.4131 254.1123 -5.4131 253.0186 Q-5.4131 251.9248 -5.8271 251.3545 Q-6.2412 250.7842 -7.0225 250.7842 ZM1.5928 247.0186 L1.5928 249.1904 L4.124 249.1904 L4.124 250.9404 L1.5928 250.9404 L1.5928 254.1904 Q1.5928 254.7217 1.8037 254.9092 Q2.0146 255.0967 2.6553 255.0967 L3.9053 255.0967 L3.9053 256.8467 L1.8115 256.8467 Q0.3584 256.8467 -0.2432 256.2451 Q-0.8447 255.6436 -0.8447 254.1904 L-0.8447 250.9404 L-2.0635 250.9404 L-2.0635 249.1904 L-0.8447 249.1904 L-0.8447 247.0186 L1.5928 247.0186 ZM5.6133 249.1904 L8.0664 249.1904 L8.0664 256.8467 L5.6133 256.8467 L5.6133 249.1904 ZM5.6133 246.2061 L8.0664 246.2061 L8.0664 248.2061 L5.6133 248.2061 L5.6133 246.2061 ZM18.1152 252.1904 L18.1152 256.8467 L15.6465 256.8467 L15.6465 256.0811 L15.6465 253.2842 Q15.6465 252.2842 15.6074 251.9092 Q15.5684 251.5342 15.459 251.3623 Q15.3184 251.1123 15.0684 250.9795 Q14.8184 250.8467 14.5059 250.8467 Q13.7402 250.8467 13.3027 251.4404 Q12.8652 252.0342 12.8652 253.0811 L12.8652 256.8467 L10.4121 256.8467 L10.4121 249.1904 L12.8652 249.1904 L12.8652 250.3154 Q13.4121 249.6436 14.0371 249.3232 Q14.6621 249.0029 15.4121 249.0029 Q16.7402 249.0029 17.4277 249.8154 Q18.1152 250.6279 18.1152 252.1904 ZM25.5977 255.5498 Q25.082 256.2217 24.4727 256.5342 Q23.8633 256.8467 23.0664 256.8467 Q21.6758 256.8467 20.7539 255.7451 Q19.832 254.6436 19.832 252.9248 Q19.832 251.2061 20.7539 250.1123 Q21.6758 249.0186 23.0664 249.0186 Q23.8633 249.0186 24.4727 249.3311 Q25.082 249.6436 25.5977 250.3311 L25.5977 249.1904 L28.0508 249.1904 L28.0508 256.0811 Q28.0508 257.9248 26.8867 258.8936 Q25.7227 259.8623 23.5039 259.8623 Q22.7852 259.8623 22.1211 259.7529 Q21.457 259.6436 20.7695 259.4248 L20.7695 257.5186 Q21.4102 257.8936 22.0273 258.0732 Q22.6445 258.2529 23.2695 258.2529 Q24.4727 258.2529 25.0352 257.7217 Q25.5977 257.1904 25.5977 256.0811 L25.5977 255.5498 ZM23.9727 250.7842 Q23.2227 250.7842 22.8008 251.3467 Q22.3789 251.9092 22.3789 252.9248 Q22.3789 253.9873 22.7852 254.5264 Q23.1914 255.0654 23.9727 255.0654 Q24.7383 255.0654 25.168 254.5029 Q25.5977 253.9404 25.5977 252.9248 Q25.5977 251.9092 25.168 251.3467 Q24.7383 250.7842 23.9727 250.7842 ZM35.2744 249.1904 L37.7275 249.1904 L37.7275 256.8467 L35.2744 256.8467 L35.2744 249.1904 ZM35.2744 246.2061 L37.7275 246.2061 L37.7275 248.2061 L35.2744 248.2061 L35.2744 246.2061 ZM47.167 250.4561 Q47.6357 249.7529 48.2764 249.3779 Q48.917 249.0029 49.6826 249.0029 Q50.9951 249.0029 51.6904 249.8154 Q52.3857 250.6279 52.3857 252.1904 L52.3857 256.8467 L49.917 256.8467 L49.917 252.8467 Q49.9326 252.7686 49.9326 252.6748 Q49.9326 252.5811 49.9326 252.3936 Q49.9326 251.5811 49.6982 251.2139 Q49.4639 250.8467 48.917 250.8467 Q48.2295 250.8467 47.8467 251.4248 Q47.4639 252.0029 47.4482 253.0811 L47.4482 256.8467 L44.9951 256.8467 L44.9951 252.8467 Q44.9951 251.5811 44.7764 251.2139 Q44.5576 250.8467 43.9951 250.8467 Q43.292 250.8467 42.9092 251.4248 Q42.5264 252.0029 42.5264 253.0811 L42.5264 256.8467 L40.0576 256.8467 L40.0576 249.1904 L42.5264 249.1904 L42.5264 250.3154 Q42.9795 249.6592 43.5654 249.3311 Q44.1514 249.0029 44.8545 249.0029 Q45.6357 249.0029 46.2451 249.3857 Q46.8545 249.7686 47.167 250.4561 ZM57.1143 255.7373 L57.1143 259.7529 L54.6611 259.7529 L54.6611 249.1904 L57.1143 249.1904 L57.1143 250.3154 Q57.6143 249.6436 58.2314 249.3232 Q58.8486 249.0029 59.6455 249.0029 Q61.0674 249.0029 61.9736 250.1279 Q62.8799 251.2529 62.8799 253.0186 Q62.8799 254.7998 61.9736 255.9248 Q61.0674 257.0498 59.6455 257.0498 Q58.8486 257.0498 58.2314 256.7295 Q57.6143 256.4092 57.1143 255.7373 ZM58.7393 250.7842 Q57.958 250.7842 57.5361 251.3623 Q57.1143 251.9404 57.1143 253.0186 Q57.1143 254.1123 57.5361 254.6904 Q57.958 255.2686 58.7393 255.2686 Q59.5205 255.2686 59.9346 254.6904 Q60.3486 254.1123 60.3486 253.0186 Q60.3486 251.9248 59.9346 251.3545 Q59.5205 250.7842 58.7393 250.7842 ZM70.3701 251.2686 Q70.0576 251.1279 69.7373 251.0576 Q69.417 250.9873 69.0889 250.9873 Q68.1514 250.9873 67.6436 251.5889 Q67.1357 252.1904 67.1357 253.3154 L67.1357 256.8467 L64.6826 256.8467 L64.6826 249.1904 L67.1357 249.1904 L67.1357 250.4404 Q67.6045 249.6904 68.2139 249.3467 Q68.8232 249.0029 69.6826 249.0029 Q69.8076 249.0029 69.9482 249.0107 Q70.0889 249.0186 70.3701 249.0654 L70.3701 251.2686 ZM75.2275 250.7529 Q74.415 250.7529 73.9932 251.3389 Q73.5713 251.9248 73.5713 253.0186 Q73.5713 254.1279 73.9932 254.7139 Q74.415 255.2998 75.2275 255.2998 Q76.04 255.2998 76.4619 254.7139 Q76.8838 254.1279 76.8838 253.0186 Q76.8838 251.9248 76.4619 251.3389 Q76.04 250.7529 75.2275 250.7529 ZM75.2275 249.0029 Q77.2119 249.0029 78.3213 250.0732 Q79.4307 251.1436 79.4307 253.0186 Q79.4307 254.9092 78.3213 255.9795 Q77.2119 257.0498 75.2275 257.0498 Q73.2588 257.0498 72.1416 255.9795 Q71.0244 254.9092 71.0244 253.0186 Q71.0244 251.1436 72.1416 250.0732 Q73.2588 249.0029 75.2275 249.0029 ZM80.252 249.1904 L82.6895 249.1904 L84.5957 254.4873 L86.502 249.1904 L88.9551 249.1904 L85.9395 256.8467 L83.252 256.8467 L80.252 249.1904 ZM97.9717 253.0029 L97.9717 253.6904 L92.2529 253.6904 Q92.3467 254.5498 92.8779 254.9873 Q93.4092 255.4248 94.3623 255.4248 Q95.1436 255.4248 95.9561 255.1904 Q96.7686 254.9561 97.6123 254.4873 L97.6123 256.3779 Q96.7529 256.7061 95.8857 256.8779 Q95.0186 257.0498 94.1436 257.0498 Q92.0654 257.0498 90.917 255.9873 Q89.7686 254.9248 89.7686 253.0186 Q89.7686 251.1592 90.8936 250.0811 Q92.0186 249.0029 94.0029 249.0029 Q95.8154 249.0029 96.8936 250.0889 Q97.9717 251.1748 97.9717 253.0029 ZM95.4561 252.1904 Q95.4561 251.4873 95.0498 251.0576 Q94.6436 250.6279 93.9873 250.6279 Q93.2842 250.6279 92.8389 251.0264 Q92.3936 251.4248 92.2842 252.1904 L95.4561 252.1904 ZM105.0449 250.3154 L105.0449 246.2061 L107.498 246.2061 L107.498 256.8467 L105.0449 256.8467 L105.0449 255.7373 Q104.5293 256.4092 103.9199 256.7295 Q103.3105 257.0498 102.5137 257.0498 Q101.1074 257.0498 100.1934 255.9248 Q99.2793 254.7998 99.2793 253.0186 Q99.2793 251.2529 100.1934 250.1279 Q101.1074 249.0029 102.5137 249.0029 Q103.3105 249.0029 103.9199 249.3232 Q104.5293 249.6436 105.0449 250.3154 ZM103.4199 255.2686 Q104.2168 255.2686 104.6309 254.6904 Q105.0449 254.1123 105.0449 253.0186 Q105.0449 251.9248 104.6309 251.3545 Q104.2168 250.7842 103.4199 250.7842 Q102.6543 250.7842 102.2402 251.3545 Q101.8262 251.9248 101.8262 253.0186 Q101.8262 254.1123 102.2402 254.6904 Q102.6543 255.2686 103.4199 255.2686 ZM117.1748 255.7373 L117.1748 259.7529 L114.7217 259.7529 L114.7217 249.1904 L117.1748 249.1904 L117.1748 250.3154 Q117.6748 249.6436 118.292 249.3232 Q118.9092 249.0029 119.7061 249.0029 Q121.1279 249.0029 122.0342 250.1279 Q122.9404 251.2529 122.9404 253.0186 Q122.9404 254.7998 122.0342 255.9248 Q121.1279 257.0498 119.7061 257.0498 Q118.9092 257.0498 118.292 256.7295 Q117.6748 256.4092 117.1748 255.7373 ZM118.7998 250.7842 Q118.0186 250.7842 117.5967 251.3623 Q117.1748 251.9404 117.1748 253.0186 Q117.1748 254.1123 117.5967 254.6904 Q118.0186 255.2686 118.7998 255.2686 Q119.5811 255.2686 119.9951 254.6904 Q120.4092 254.1123 120.4092 253.0186 Q120.4092 251.9248 119.9951 251.3545 Q119.5811 250.7842 118.7998 250.7842 ZM130.4307 251.2686 Q130.1182 251.1279 129.7979 251.0576 Q129.4775 250.9873 129.1494 250.9873 Q128.2119 250.9873 127.7041 251.5889 Q127.1963 252.1904 127.1963 253.3154 L127.1963 256.8467 L124.7432 256.8467 L124.7432 249.1904 L127.1963 249.1904 L127.1963 250.4404 Q127.665 249.6904 128.2744 249.3467 Q128.8838 249.0029 129.7432 249.0029 Q129.8682 249.0029 130.0088 249.0107 Q130.1494 249.0186 130.4307 249.0654 L130.4307 251.2686 ZM135.085 253.3936 Q134.3193 253.3936 133.9287 253.6592 Q133.5381 253.9248 133.5381 254.4248 Q133.5381 254.8936 133.8506 255.1592 Q134.1631 255.4248 134.7256 255.4248 Q135.4131 255.4248 135.8818 254.9248 Q136.3506 254.4248 136.3506 253.6748 L136.3506 253.3936 L135.085 253.3936 ZM138.8193 252.4717 L138.8193 256.8467 L136.3506 256.8467 L136.3506 255.7061 Q135.8662 256.4092 135.249 256.7295 Q134.6318 257.0498 133.7568 257.0498 Q132.5537 257.0498 131.8193 256.3545 Q131.085 255.6592 131.085 254.5498 Q131.085 253.2061 132.0068 252.5732 Q132.9287 251.9404 134.9131 251.9404 L136.3506 251.9404 L136.3506 251.7529 Q136.3506 251.1748 135.8975 250.9014 Q135.4443 250.6279 134.4756 250.6279 Q133.6787 250.6279 133.0068 250.7842 Q132.335 250.9404 131.7412 251.2686 L131.7412 249.3936 Q132.5381 249.2061 133.3271 249.1045 Q134.1162 249.0029 134.9131 249.0029 Q136.9912 249.0029 137.9053 249.8232 Q138.8193 250.6436 138.8193 252.4717 ZM147.2822 249.4248 L147.2822 251.4248 Q146.7822 251.0811 146.2822 250.917 Q145.7822 250.7529 145.2354 250.7529 Q144.2197 250.7529 143.6494 251.3545 Q143.0791 251.9561 143.0791 253.0186 Q143.0791 254.0967 143.6494 254.6982 Q144.2197 255.2998 145.2354 255.2998 Q145.8135 255.2998 146.3291 255.1279 Q146.8447 254.9561 147.2822 254.6123 L147.2822 256.6279 Q146.7041 256.8311 146.1182 256.9404 Q145.5322 257.0498 144.9385 257.0498 Q142.8604 257.0498 141.6963 255.9873 Q140.5322 254.9248 140.5322 253.0186 Q140.5322 251.1279 141.6963 250.0654 Q142.8604 249.0029 144.9385 249.0029 Q145.5322 249.0029 146.1182 249.1123 Q146.7041 249.2217 147.2822 249.4248 ZM152.0654 247.0186 L152.0654 249.1904 L154.5967 249.1904 L154.5967 250.9404 L152.0654 250.9404 L152.0654 254.1904 Q152.0654 254.7217 152.2764 254.9092 Q152.4873 255.0967 153.1279 255.0967 L154.3779 255.0967 L154.3779 256.8467 L152.2842 256.8467 Q150.8311 256.8467 150.2295 256.2451 Q149.6279 255.6436 149.6279 254.1904 L149.6279 250.9404 L148.4092 250.9404 L148.4092 249.1904 L149.6279 249.1904 L149.6279 247.0186 L152.0654 247.0186 ZM156.0859 249.1904 L158.5391 249.1904 L158.5391 256.8467 L156.0859 256.8467 L156.0859 249.1904 ZM156.0859 246.2061 L158.5391 246.2061 L158.5391 248.2061 L156.0859 248.2061 L156.0859 246.2061 ZM167.0723 249.4248 L167.0723 251.4248 Q166.5723 251.0811 166.0723 250.917 Q165.5723 250.7529 165.0254 250.7529 Q164.0098 250.7529 163.4395 251.3545 Q162.8691 251.9561 162.8691 253.0186 Q162.8691 254.0967 163.4395 254.6982 Q164.0098 255.2998 165.0254 255.2998 Q165.6035 255.2998 166.1191 255.1279 Q166.6348 254.9561 167.0723 254.6123 L167.0723 256.6279 Q166.4941 256.8311 165.9082 256.9404 Q165.3223 257.0498 164.7285 257.0498 Q162.6504 257.0498 161.4863 255.9873 Q160.3223 254.9248 160.3223 253.0186 Q160.3223 251.1279 161.4863 250.0654 Q162.6504 249.0029 164.7285 249.0029 Q165.3223 249.0029 165.9082 249.1123 Q166.4941 249.2217 167.0723 249.4248 ZM176.8242 253.0029 L176.8242 253.6904 L171.1055 253.6904 Q171.1992 254.5498 171.7305 254.9873 Q172.2617 255.4248 173.2148 255.4248 Q173.9961 255.4248 174.8086 255.1904 Q175.6211 254.9561 176.4648 254.4873 L176.4648 256.3779 Q175.6055 256.7061 174.7383 256.8779 Q173.8711 257.0498 172.9961 257.0498 Q170.918 257.0498 169.7695 255.9873 Q168.6211 254.9248 168.6211 253.0186 Q168.6211 251.1592 169.7461 250.0811 Q170.8711 249.0029 172.8555 249.0029 Q174.668 249.0029 175.7461 250.0889 Q176.8242 251.1748 176.8242 253.0029 ZM174.3086 252.1904 Q174.3086 251.4873 173.9023 251.0576 Q173.4961 250.6279 172.8398 250.6279 Q172.1367 250.6279 171.6914 251.0264 Q171.2461 251.4248 171.1367 252.1904 L174.3086 252.1904 ZM184.6631 249.4248 L184.6631 251.2842 Q183.8818 250.9561 183.1475 250.792 Q182.4131 250.6279 181.7725 250.6279 Q181.0693 250.6279 180.7334 250.8076 Q180.3975 250.9873 180.3975 251.3467 Q180.3975 251.6436 180.6475 251.7998 Q180.8975 251.9561 181.5693 252.0342 L181.9912 252.0811 Q183.8818 252.3311 184.5303 252.8779 Q185.1787 253.4248 185.1787 254.5967 Q185.1787 255.8154 184.2725 256.4326 Q183.3662 257.0498 181.585 257.0498 Q180.8193 257.0498 180.0146 256.9248 Q179.21 256.7998 178.3506 256.5654 L178.3506 254.7061 Q179.085 255.0654 179.8506 255.2451 Q180.6162 255.4248 181.4131 255.4248 Q182.1318 255.4248 182.4912 255.2217 Q182.8506 255.0186 182.8506 254.6279 Q182.8506 254.2998 182.6006 254.1436 Q182.3506 253.9873 181.6162 253.8936 L181.1787 253.8311 Q179.5381 253.6279 178.8818 253.0732 Q178.2256 252.5186 178.2256 251.3936 Q178.2256 250.1748 179.0615 249.5889 Q179.8975 249.0029 181.6162 249.0029 Q182.3037 249.0029 183.0459 249.1045 Q183.7881 249.2061 184.6631 249.4248 Z"/></g><g style="fill:rgb(64,64,64); text-rendering:optimizeLegibility; font-size:14; font-weight:bold; stroke:rgb(64,64,64);" transform="translate(2,2)"><path style="clip-path:url(#clipPath4); stroke:none;" d="M139.626 474 L272.4509 373.1344 L273.5648 372.5389 L377.636 336.6161 L377.636 336.6161 L374.0468 326.2181 L403.5 331.92 L383.8354 354.5762 L380.2463 344.1782 L380.2463 344.1782 L276.1751 380.1011 L277.2891 379.5056 L152.854 474 Z"/></g><g style="fill:rgb(30,172,226); text-rendering:optimizeLegibility; font-size:14; font-weight:bold; stroke:rgb(30,172,226);"><path style="clip-path:url(#clipPath3); stroke:none;" d="M139.626 474 L272.4509 373.1344 L273.5648 372.5389 L377.636 336.6161 L377.636 336.6161 L374.0468 326.2181 L403.5 331.92 L383.8354 354.5762 L380.2463 344.1782 L380.2463 344.1782 L276.1751 380.1011 L277.2891 379.5056 L152.854 474 Z"/></g><g style="text-rendering:optimizeLegibility; stroke-width:2; font-size:14; font-weight:bold;"><rect x="65" width="677" height="444" y="30" style="fill:none; clip-path:url(#clipPath1);"/></g></g></svg>