<?xml version="1.0" encoding="UTF-8" standalone="no"?>
<!-- Created with Inkscape (http://www.inkscape.org/) -->

<svg
   xmlns:dc="http://purl.org/dc/elements/1.1/"
   xmlns:cc="http://creativecommons.org/ns#"
   xmlns:rdf="http://www.w3.org/1999/02/22-rdf-syntax-ns#"
   xmlns:svg="http://www.w3.org/2000/svg"
   xmlns="http://www.w3.org/2000/svg"
   version="1.1"
   width="462.78525"
   height="97.46875"
   id="svg2">
  <defs
     id="defs4" />
  <metadata
     id="metadata7">
    <rdf:RDF>
      <cc:Work
         rdf:about="">
        <dc:format>image/svg+xml</dc:format>
        <dc:type
           rdf:resource="http://purl.org/dc/dcmitype/StillImage" />
        <dc:title></dc:title>
      </cc:Work>
    </rdf:RDF>
  </metadata>
  <g
     transform="translate(-11.09375,-8.375)"
     id="layer1">
    <path
       d="m 24.625,16.3125 7.5625,7.65625 60.625,0 0,56 -5.25,0 12.875,13 0,-76.65625 -75.8125,0 z m -5.65625,5.65625 0,75.84375 75,0 -17.65625,-17.84375 -49.71875,0 0,-50.28125 -7.625,-7.71875 z m 24.1875,7.09375 c -1.699689,0 -3.274417,0.487716 -4.625,1.3125 L 50.6875,42.6875 c 0.861208,-1.371074 1.375,-2.979023 1.375,-4.71875 0,-4.922001 -3.984251,-8.90625 -8.90625,-8.90625 z m 31.8125,2.53125 -11.8125,23.65625 19.375,19.625 7.71875,0 L 74.96875,31.59375 z M 34.28125,37.4375 C 34.27069,37.615311 34.25,37.788267 34.25,37.96875 c 0,4.922 3.98325,8.90625 8.90625,8.90625 0.148362,0 0.290928,0.0072 0.4375,0 l -9.3125,-9.4375 z M 44.4375,54.53125 29.15625,74.875 l 42.125,0 L 59.375,62.8125 57.15625,67.25 54.625,67.25 44.4375,54.53125 z"
       id="path3037"
       style="fill-rule:evenodd" />
    <text
       x="118.51962"
       y="84.071495"
       id="text3842"
       xml:space="preserve"
       style="font-size:40px;font-style:normal;font-variant:normal;font-weight:normal;font-stretch:normal;text-align:start;line-height:125%;letter-spacing:0px;word-spacing:0px;writing-mode:lr-tb;text-anchor:start;fill:#000000;fill-opacity:1;stroke:none;font-family:Sans;-inkscape-font-specification:Sans"><tspan
         x="118.51962"
         y="84.071495"
         id="tspan3846"
         style="font-size:72px;font-style:normal;font-variant:normal;font-weight:bold;font-stretch:normal;font-family:Liberation Sans;-inkscape-font-specification:Liberation Sans Bold">Not Found</tspan></text>
  </g>
  <g
     transform="translate(-11.09375,-8.375)"
     id="layer2">
    <path
       d="M 12.879445,10.137293 105.81348,104.08148"
       id="path3054"
       style="fill:none;stroke:#000000;stroke-width:5;stroke-linecap:butt;stroke-linejoin:miter;stroke-miterlimit:4;stroke-opacity:1;stroke-dasharray:none" />
  </g>
</svg>
