<?xml version="1.0" encoding="UTF-8" standalone="no"?>
<!-- Created with Inkscape (http://www.inkscape.org/) -->

<svg
   xmlns:dc="http://purl.org/dc/elements/1.1/"
   xmlns:cc="http://creativecommons.org/ns#"
   xmlns:rdf="http://www.w3.org/1999/02/22-rdf-syntax-ns#"
   xmlns:svg="http://www.w3.org/2000/svg"
   xmlns="http://www.w3.org/2000/svg"
   xmlns:sodipodi="http://sodipodi.sourceforge.net/DTD/sodipodi-0.dtd"
   xmlns:inkscape="http://www.inkscape.org/namespaces/inkscape"
   width="48px"
   height="48px"
   id="svg3112"
   version="1.1"
   inkscape:version="0.48.4 r9939"
   sodipodi:docname="New document 6">
  <defs
     id="defs3114" />
  <sodipodi:namedview
     id="base"
     pagecolor="#ffffff"
     bordercolor="#666666"
     borderopacity="1.0"
     inkscape:pageopacity="0.0"
     inkscape:pageshadow="2"
     inkscape:zoom="7"
     inkscape:cx="24"
     inkscape:cy="24"
     inkscape:current-layer="layer1"
     showgrid="true"
     inkscape:grid-bbox="true"
     inkscape:document-units="px"
     inkscape:window-width="965"
     inkscape:window-height="742"
     inkscape:window-x="2"
     inkscape:window-y="91"
     inkscape:window-maximized="0" />
  <metadata
     id="metadata3117">
    <rdf:RDF>
      <cc:Work
         rdf:about="">
        <dc:format>image/svg+xml</dc:format>
        <dc:type
           rdf:resource="http://purl.org/dc/dcmitype/StillImage" />
        <dc:title></dc:title>
      </cc:Work>
    </rdf:RDF>
  </metadata>
  <g
     id="layer1"
     inkscape:label="Layer 1"
     inkscape:groupmode="layer">
    <g
       id="g24"
       transform="matrix(1.1632098,0,0,-1.1632098,47.931473,39.342533)">
      <path
         d="m 0,0 c -7.166,6.41 -19.559,5.944 -26.861,13.152 -4.333,4.274 -5.375,9.846 -3.831,14.82 0.661,0.718 1.399,0.642 2.018,1.77 -0.138,1.964 -3.665,4.243 -5.338,3.228 0.176,-2.002 0.918,-4.715 -0.761,-6.502 -1.063,-1.131 -2.115,-0.492 -3.151,-1.412 -2.948,-2.612 -3.369,-8.972 -3.091,-11.436 1.079,-9.577 12.595,-17.462 22.173,-19.575 4.632,-1.022 9.967,-1.596 13.051,-0.422 C -2.949,-5.295 0.578,-2.613 0,0 m -33.639,32.38 c 1.152,0.704 4.556,-1.145 4.034,-2.731 -1.484,-0.818 -3.086,1.69 -4.034,2.731 m -3.432,-8.021 c 0.262,-0.006 0.513,0.098 0.761,0.231 0.175,-0.244 0.022,-0.519 0.232,-0.759 -5.141,-7.844 -2.329,-15.998 4.264,-22.304 -9.007,6.888 -8.787,14.693 -5.257,22.832 M -7.822,-0.154 c -1.946,5.74 -9.78,3.875 -15.688,7.996 -3.733,2.605 -5.92,5.086 -7.727,8.321 -0.06,0.672 0.245,1.382 -0.046,2.033 0.191,0.167 0.248,-0.045 0.17,-0.14 5.167,-11.555 20.843,-11.731 29.5,-17.589 -1.315,-2.662 -4.18,-0.223 -6.209,-0.621"
         style="fill:#ffffff;fill-opacity:1;fill-rule:nonzero;stroke:none"
         id="path26"
         inkscape:connector-curvature="0" />
    </g>
  </g>
</svg>
