<?xml version="1.0" encoding="UTF-8" standalone="no"?>
<!-- Created with Inkscape (http://www.inkscape.org/) -->

<svg
   xmlns:dc="http://purl.org/dc/elements/1.1/"
   xmlns:cc="http://creativecommons.org/ns#"
   xmlns:rdf="http://www.w3.org/1999/02/22-rdf-syntax-ns#"
   xmlns:svg="http://www.w3.org/2000/svg"
   xmlns="http://www.w3.org/2000/svg"
   xmlns:sodipodi="http://sodipodi.sourceforge.net/DTD/sodipodi-0.dtd"
   xmlns:inkscape="http://www.inkscape.org/namespaces/inkscape"
   width="48px"
   height="48px"
   id="svg3220"
   version="1.1"
   inkscape:version="0.48.4 r9939"
   sodipodi:docname="New document 13">
  <defs
     id="defs3222" />
  <sodipodi:namedview
     id="base"
     pagecolor="#ffffff"
     bordercolor="#666666"
     borderopacity="1.0"
     inkscape:pageopacity="0.0"
     inkscape:pageshadow="2"
     inkscape:zoom="7"
     inkscape:cx="24"
     inkscape:cy="24"
     inkscape:current-layer="layer1"
     showgrid="true"
     inkscape:grid-bbox="true"
     inkscape:document-units="px"
     inkscape:window-width="847"
     inkscape:window-height="707"
     inkscape:window-x="3"
     inkscape:window-y="123"
     inkscape:window-maximized="0" />
  <metadata
     id="metadata3225">
    <rdf:RDF>
      <cc:Work
         rdf:about="">
        <dc:format>image/svg+xml</dc:format>
        <dc:type
           rdf:resource="http://purl.org/dc/dcmitype/StillImage" />
        <dc:title></dc:title>
      </cc:Work>
    </rdf:RDF>
  </metadata>
  <g
     id="layer1"
     inkscape:label="Layer 1"
     inkscape:groupmode="layer">
    <g
       id="g32"
       transform="matrix(1.25,0,0,-1.25,44.6585,40.892232)">
      <path
         d="m 0,0 c -0.249,1.945 -1.202,3.379 -2.123,4.764 -0.16,0.24 -0.319,0.48 -0.475,0.722 -1.803,2.809 -3.591,5.508 -5.321,8.119 -0.559,0.844 -1.12,1.69 -1.683,2.543 -0.136,0.206 -0.3,0.428 -0.469,0.655 -0.359,0.486 -0.767,1.035 -0.84,1.384 -0.105,0.5 -0.086,1.178 -0.068,1.834 0.007,0.256 0.014,0.51 0.014,0.752 0,0.485 -0.016,0.967 -0.032,1.438 -0.015,0.441 -0.03,0.871 -0.03,1.289 0,0.443 -0.024,0.922 -0.049,1.428 -0.065,1.285 -0.138,2.738 0.213,3.711 0.076,0.211 0.301,0.486 0.519,0.75 0.455,0.556 1.021,1.246 0.789,2.027 -0.147,0.492 -0.437,0.648 -0.804,0.846 l -0.084,0.045 -12.556,0 -0.063,-0.024 c -0.57,-0.207 -0.899,-0.496 -1.006,-0.885 -0.177,-0.644 0.348,-1.285 0.811,-1.849 0.219,-0.268 0.445,-0.543 0.535,-0.748 0.296,-0.676 0.287,-1.852 0.28,-2.891 l -0.002,-0.365 c -0.003,-0.883 0.013,-1.811 0.03,-2.791 0.016,-0.922 0.032,-1.861 0.032,-2.787 0,-0.268 0.024,-0.541 0.047,-0.805 0.032,-0.357 0.062,-0.695 0.021,-0.924 -0.059,-0.33 -0.503,-0.894 -0.859,-1.347 -0.19,-0.243 -0.37,-0.471 -0.508,-0.678 -1.136,-1.703 -2.236,-3.377 -3.336,-5.051 -1.224,-1.863 -2.489,-3.789 -3.79,-5.732 L -30.925,5.254 C -31.89,3.818 -32.983,2.188 -33.102,0.262 l 0,-1.114 0.004,-0.056 c 0.399,-2.696 1.968,-4.24 4.663,-4.596 l 23.496,-0.004 0.022,0.002 c 2.883,0.346 4.537,1.85 4.916,4.475 L 0.003,-0.047 0,0 z m -9.423,-2.891 -12.766,0 c -0.701,0 -1.411,-0.029 -2.098,-0.058 -0.685,-0.03 -1.394,-0.059 -2.092,-0.059 l -10e-4,0 c -0.775,0 -1.456,0.037 -2.083,0.115 -1.474,0.182 -2.211,1.342 -2.024,3.178 0.141,1.373 1.023,2.641 1.802,3.758 0.172,0.248 0.339,0.488 0.492,0.719 2.362,3.576 4.512,6.801 7.002,10.533 0.123,0.185 0.282,0.394 0.451,0.613 0.423,0.553 0.861,1.125 0.967,1.627 0.167,0.781 0.1,1.85 0.029,2.983 -0.04,0.64 -0.082,1.302 -0.082,1.929 0,0.565 0.009,1.145 0.017,1.717 0.017,1.145 0.033,2.225 -0.017,3.137 -0.056,0.992 -0.306,1.812 -0.526,2.449 l 7.149,0 c -0.345,-0.979 -0.51,-2.086 -0.467,-3.148 -0.179,0.002 -0.36,0.005 -0.541,0.011 -0.219,0.006 -0.437,0.012 -0.647,0.012 -0.714,0 -1.429,-0.063 -1.822,-0.52 -0.228,-0.265 -0.31,-0.617 -0.245,-1.05 0.155,-1.032 1.276,-1.032 1.698,-1.032 0.232,0 0.479,0.014 0.729,0.026 0.297,0.017 0.613,0.031 0.878,0.025 0.032,-0.547 0.036,-1.133 0.04,-1.701 0.004,-0.535 0.008,-1.084 0.035,-1.613 -0.257,-0.002 -0.528,0.01 -0.797,0.019 -0.241,0.01 -0.48,0.02 -0.708,0.02 -0.497,0 -1.661,0 -1.871,-1.002 -0.095,-0.451 -0.028,-0.824 0.2,-1.104 0.393,-0.484 1.14,-0.55 1.89,-0.55 0.227,0 0.463,0.005 0.698,0.013 0.214,0.006 0.427,0.012 0.633,0.012 0.12,-1.189 0.723,-1.992 1.26,-2.705 0.199,-0.266 0.392,-0.52 0.548,-0.783 -0.235,0.002 -0.48,0.015 -0.723,0.027 -0.272,0.014 -0.542,0.029 -0.796,0.029 -0.451,0 -1.825,0 -1.859,-1.265 -0.009,-0.338 0.101,-0.635 0.319,-0.858 0.352,-0.363 0.962,-0.531 1.919,-0.531 0.573,0 1.199,0.061 1.751,0.111 0.342,0.034 0.669,0.065 0.94,0.077 0.234,-0.411 0.51,-0.817 0.777,-1.209 0.255,-0.375 0.501,-0.737 0.7,-1.084 -0.209,0.002 -0.423,0.011 -0.636,0.021 -0.251,0.014 -0.5,0.025 -0.735,0.025 -0.472,0 -1.724,0 -1.812,-1.181 -0.027,-0.369 0.072,-0.678 0.295,-0.918 0.343,-0.371 0.931,-0.535 1.905,-0.535 0.45,0 0.927,0.033 1.388,0.066 0.447,0.031 0.863,0.063 1.215,0.057 0.239,-0.405 0.498,-0.789 0.75,-1.164 0.245,-0.364 0.48,-0.713 0.698,-1.078 -0.18,0.003 -0.362,0.011 -0.543,0.019 -0.239,0.012 -0.475,0.023 -0.699,0.023 -0.468,0 -1.709,0 -1.787,-1.183 -0.024,-0.367 0.077,-0.674 0.301,-0.912 0.345,-0.369 0.935,-0.533 1.912,-0.533 0.439,0 0.901,0.031 1.348,0.062 0.429,0.029 0.835,0.055 1.169,0.053 0.754,-0.873 1.407,-2.533 1.197,-3.844 -0.112,-0.705 -0.455,-1.215 -1.018,-1.519 -0.651,-0.35 -1.84,-0.391 -2.678,-0.391 -0.509,0 -1.037,0.017 -1.555,0.033 -0.509,0.016 -1.008,0.031 -1.474,0.031"
         style="fill:#ffffff;fill-opacity:1;fill-rule:nonzero;stroke:none"
         id="path34"
         inkscape:connector-curvature="0" />
    </g>
  </g>
</svg>
