<?xml version="1.0" encoding="UTF-8" standalone="no"?>
<!-- Created with Inkscape (http://www.inkscape.org/) -->

<svg
   xmlns:dc="http://purl.org/dc/elements/1.1/"
   xmlns:cc="http://creativecommons.org/ns#"
   xmlns:rdf="http://www.w3.org/1999/02/22-rdf-syntax-ns#"
   xmlns:svg="http://www.w3.org/2000/svg"
   xmlns="http://www.w3.org/2000/svg"
   xmlns:sodipodi="http://sodipodi.sourceforge.net/DTD/sodipodi-0.dtd"
   xmlns:inkscape="http://www.inkscape.org/namespaces/inkscape"
   width="48px"
   height="48px"
   id="svg3076"
   version="1.1"
   inkscape:version="0.48.4 r9939"
   sodipodi:docname="New document 4">
  <defs
     id="defs3078" />
  <sodipodi:namedview
     id="base"
     pagecolor="#ffffff"
     bordercolor="#666666"
     borderopacity="1.0"
     inkscape:pageopacity="0.0"
     inkscape:pageshadow="2"
     inkscape:zoom="7"
     inkscape:cx="24"
     inkscape:cy="24"
     inkscape:current-layer="layer1"
     showgrid="true"
     inkscape:grid-bbox="true"
     inkscape:document-units="px"
     inkscape:snap-global="false"
     inkscape:window-width="783"
     inkscape:window-height="680"
     inkscape:window-x="1"
     inkscape:window-y="59"
     inkscape:window-maximized="0" />
  <metadata
     id="metadata3081">
    <rdf:RDF>
      <cc:Work
         rdf:about="">
        <dc:format>image/svg+xml</dc:format>
        <dc:type
           rdf:resource="http://purl.org/dc/dcmitype/StillImage" />
        <dc:title></dc:title>
      </cc:Work>
    </rdf:RDF>
  </metadata>
  <g
     id="layer1"
     inkscape:label="Layer 1"
     inkscape:groupmode="layer">
    <g
       id="g20"
       transform="matrix(1.0608558,0,0,-1.0608558,45.200298,34.202378)">
      <path
         d="M 0,0 C -0.01,4.994 -2.035,7.928 -6.191,8.965 L -6.963,9.16 -6.616,8.443 c 0.054,-0.111 0.112,-0.218 0.169,-0.328 -0.116,0.201 -0.239,0.397 -0.371,0.582 -1.817,2.543 -5.162,3.577 -9.932,3.063 l -0.115,-0.013 -0.088,-0.077 c -0.248,-0.215 -0.475,-0.468 -0.682,-0.749 1.815,8.343 3.397,15.753 -1.576,20.196 l -1.253,1.12 0.624,-1.416 c 2.022,-4.585 1.239,-8.356 0.162,-14.592 -0.039,2.458 -0.297,5.021 -0.552,7.529 -0.1,0.969 -0.196,1.923 -0.279,2.851 l -0.21,2.373 -0.525,-2.324 c -0.716,-3.183 -1.004,-7.194 -0.426,-10.534 -0.44,0.797 -0.958,1.555 -1.555,2.237 -1.821,2.081 -4.142,3.226 -6.536,3.226 -1.133,0 -2.287,-0.25 -3.432,-0.745 -4.85,-2.093 -7.935,-15.219 -6.464,-20.188 l 0.312,-1.054 0.391,1.027 c 0.712,1.863 1.035,4.039 1.348,6.144 0.628,4.242 1.224,8.248 4.715,9.849 1.292,0.591 2.536,0.892 3.695,0.892 2.393,0 3.887,-1.25 4.72,-2.299 0.784,-0.985 1.315,-2.203 1.565,-3.505 -0.285,0.613 -0.654,1.172 -1.102,1.657 -1.524,1.646 -3.788,2.254 -6.335,1.677 -2.525,-0.571 -2.891,-2.902 -3.246,-5.156 -0.131,-0.823 -0.264,-1.673 -0.501,-2.437 l -0.159,-0.51 0.535,0.028 c 0.046,0.004 0.086,0.01 0.131,0.013 -0.664,-0.593 -1.227,-1.308 -1.682,-2.142 -2.793,-5.115 -0.886,-13.124 1.564,-16.934 l 0.738,-1.147 -0.052,1.362 c -0.052,1.396 -0.225,2.896 -0.406,4.483 -0.447,3.888 -0.902,7.875 0.328,10.685 l 0.055,-0.137 c 0.79,-1.984 2.106,-3.744 4.266,-5.703 l 1.293,-1.174 -0.703,1.598 c -0.423,0.967 -0.671,2.109 -0.913,3.213 -0.338,1.562 -0.691,3.178 -1.552,4.439 l -0.252,0.37 c 0.767,0.49 1.547,0.74 2.321,0.74 1.145,0 2.303,-0.559 3.263,-1.574 3.247,-3.434 4.281,-10.545 3.379,-13.841 -0.078,-0.021 -0.149,-0.051 -0.21,-0.092 -0.078,-0.05 -0.165,-0.142 -0.141,-0.279 l 0.021,-0.113 -0.316,0.019 0.771,-0.271 c 0.245,-0.311 0.172,-0.879 0.103,-1.438 -0.07,-0.543 -0.141,-1.107 0.047,-1.56 l 0.072,-0.17 3.036,0 -0.155,0.295 c -0.2,0.373 -0.079,0.867 0.039,1.346 0.137,0.566 0.279,1.148 -0.144,1.537 l 0.425,-0.055 -0.058,0.57 c -0.132,1.247 -0.352,2.327 0.074,5.436 l 0.314,-0.572 0.305,0.688 c 0.241,0.548 0.444,1.128 0.637,1.689 0.66,1.902 1.285,3.701 3.443,4.375 1.24,-1.211 1.178,-3.43 1.112,-5.773 -0.026,-0.901 -0.053,-1.83 0.004,-2.696 l 0.154,-2.369 0.578,2.301 c 1.268,5.043 1.257,8.795 -0.033,11.154 l -0.1,0.182 -0.207,0.012 c -1.562,0.084 -2.57,-0.252 -3.352,-0.745 0.171,0.43 0.379,0.813 0.737,1.061 0.795,0.367 2.041,0.467 3.246,0.562 1.018,0.083 2.066,0.167 2.906,0.413 0.855,-2.047 0.692,-4.684 0.516,-7.536 -0.141,-2.265 -0.285,-4.605 0.078,-6.843 l 0.238,-1.468 0.482,1.407 c 2.401,7.012 2.743,12.219 1.036,15.52 0.763,-1.381 1.742,-2.604 2.693,-3.791 1.045,-1.307 2.125,-2.655 2.885,-4.18 L 0.004,-1.592 0,0 z m -20.177,-0.941 c 0.036,0.066 0.072,0.136 0.104,0.209 0.014,-0.022 0.031,-0.041 0.046,-0.059 0.028,-0.029 0.066,-0.051 0.101,-0.07 -0.087,-0.03 -0.169,-0.055 -0.251,-0.08 m 1.022,0.349 0.002,-0.008 c -0.041,-0.013 -0.082,-0.027 -0.122,-0.041 0.031,0.055 0.061,0.12 0.088,0.194 0.01,-0.049 0.02,-0.1 0.032,-0.145 m -9.653,13.133 c 0.164,0.03 0.334,0.044 0.505,0.044 1.415,0 2.756,-1.007 3.313,-1.684 0.832,-1.014 1.405,-2.62 1.861,-4.366 -0.438,0.854 -0.976,1.641 -1.657,2.331 L -24.875,8.957 -25,8.974 c -2.271,0.306 -4.255,0.149 -5.917,-0.438 0.25,0.531 0.344,1.124 0.427,1.666 0.198,1.298 0.386,2.107 1.682,2.339 m 9.082,-22.139 c 0.052,0.023 0.095,0.045 0.14,0.062 l -0.089,-0.093 c -0.016,0.005 -0.035,0.015 -0.051,0.031 m 8.329,18.69 c -1.566,0 -3.469,-0.668 -4.916,-1.383 0.743,1.143 1.813,2.034 3.428,2.533 1.053,-0.323 1.887,-0.751 2.547,-1.269 -0.32,0.08 -0.676,0.119 -1.059,0.119 M -32.988,3.527 c 0.405,0.838 0.976,1.563 1.756,2.139 l -0.08,-0.232 c -0.205,-0.6 -0.69,-1.028 -1.207,-1.481 -0.147,-0.131 -0.294,-0.26 -0.435,-0.394 l -0.034,-0.032 z"
         style="fill:#ffffff;fill-opacity:1;fill-rule:nonzero;stroke:none"
         id="path22"
         inkscape:connector-curvature="0" />
    </g>
  </g>
</svg>
