<?xml version="1.0" encoding="UTF-8" standalone="no"?>
<!-- Created with Inkscape (http://www.inkscape.org/) -->

<svg
   xmlns:dc="http://purl.org/dc/elements/1.1/"
   xmlns:cc="http://creativecommons.org/ns#"
   xmlns:rdf="http://www.w3.org/1999/02/22-rdf-syntax-ns#"
   xmlns:svg="http://www.w3.org/2000/svg"
   xmlns="http://www.w3.org/2000/svg"
   xmlns:sodipodi="http://sodipodi.sourceforge.net/DTD/sodipodi-0.dtd"
   xmlns:inkscape="http://www.inkscape.org/namespaces/inkscape"
   width="48px"
   height="48px"
   id="svg3256"
   version="1.1"
   inkscape:version="0.48.4 r9939"
   sodipodi:docname="New document 15">
  <defs
     id="defs3258" />
  <sodipodi:namedview
     id="base"
     pagecolor="#ffffff"
     bordercolor="#666666"
     borderopacity="1.0"
     inkscape:pageopacity="0.0"
     inkscape:pageshadow="2"
     inkscape:zoom="7"
     inkscape:cx="24"
     inkscape:cy="24"
     inkscape:current-layer="layer1"
     showgrid="true"
     inkscape:grid-bbox="true"
     inkscape:document-units="px"
     inkscape:window-width="835"
     inkscape:window-height="694"
     inkscape:window-x="3"
     inkscape:window-y="123"
     inkscape:window-maximized="0" />
  <metadata
     id="metadata3261">
    <rdf:RDF>
      <cc:Work
         rdf:about="">
        <dc:format>image/svg+xml</dc:format>
        <dc:type
           rdf:resource="http://purl.org/dc/dcmitype/StillImage" />
        <dc:title></dc:title>
      </cc:Work>
    </rdf:RDF>
  </metadata>
  <g
     id="layer1"
     inkscape:label="Layer 1"
     inkscape:groupmode="layer">
    <g
       id="g40"
       transform="matrix(1.1726183,0,0,-1.1726183,31.020784,44.793657)">
      <path
         d="M 0,0 -0.978,0.201 -1.134,0.293 C -1.449,0.482 -1.852,0.545 -2.365,0.486 -3.317,0.689 -4.311,1.1 -5.273,1.494 -5.454,1.568 -5.636,1.645 -5.82,1.719 -3.802,1.369 -1.634,2.436 0.077,3.281 0.897,3.688 1.609,4.041 2.126,4.152 2.359,4.123 2.583,4.104 2.791,4.094 L 4.457,4.012 3.701,4.445 4.678,4.627 3.001,4.844 C 2.759,4.98 2.465,5.02 2.104,4.963 1.325,5.068 0.499,5.268 -0.373,5.477 -0.7,5.555 -1.033,5.635 -1.367,5.711 0.382,5.986 2.428,7.23 4.755,9.451 L 5.434,10.1 4.498,10.141 c -0.374,0.017 -0.793,0.052 -1.24,0.089 -0.028,0.002 -0.057,0.004 -0.086,0.006 1.325,0.461 2.586,1.375 3.59,2.108 0.603,0.437 1.123,0.816 1.524,1.013 l 2.786,1.36 -3.04,-0.608 C 7.098,13.922 6.148,14.039 5.141,14.162 3.387,14.379 1.435,14.611 -0.4,12.975 c 1.092,1.58 1.086,1.593 0.822,1.834 l -0.13,0.117 -0.173,-0.014 c -0.191,-0.016 -0.191,-0.016 -0.832,-0.83 -0.098,-0.125 -0.211,-0.268 -0.328,-0.418 0.529,1.168 0.453,2.482 0.036,3.731 0.069,-0.077 0.14,-0.151 0.219,-0.223 0.403,-0.369 0.925,-0.668 1.551,-0.893 l 0.279,-0.099 0.177,0.238 c 0.937,1.262 0.922,2.816 0.424,4.291 0.37,-0.332 0.844,-0.598 1.412,-0.789 l 0.269,-0.092 0.175,0.223 c 0.87,1.113 0.837,2.521 0.302,3.818 0.349,-0.265 0.777,-0.467 1.31,-0.601 l 0.27,-0.067 0.157,0.227 c 0.705,1.017 0.595,2.369 0.024,3.609 0.293,-0.197 0.641,-0.344 1.038,-0.435 l 0.221,-0.053 0.157,0.162 c 0.379,0.391 0.563,0.928 0.543,1.598 -0.015,0.511 -0.159,1.078 -0.367,1.623 0.19,-0.118 0.408,-0.213 0.658,-0.28 l 0.225,-0.058 0.162,0.164 c 0.529,0.533 0.798,1.244 0.778,2.056 -0.002,0.116 -0.012,0.231 -0.027,0.348 0.049,-0.053 0.096,-0.107 0.155,-0.16 0.118,-0.106 0.254,-0.211 0.409,-0.311 l 0.164,-0.107 0.183,0.064 c 1.033,0.358 1.78,1.34 2.104,2.766 0.254,1.127 0.219,2.65 -0.285,3.147 l -0.611,0.601 -0.068,-0.857 c -0.042,-0.512 -0.6,-1.143 -1.14,-1.754 -0.534,-0.604 -1.14,-1.293 -1.306,-2 -0.39,0.887 -0.98,1.64 -1.475,1.951 l -0.971,0.611 0.38,-1.082 C 6.66,34.549 6.546,33.832 6.437,33.141 6.355,32.629 6.27,32.086 6.292,31.578 6.1,31.855 5.906,32.086 5.734,32.242 5.25,32.686 4.939,32.486 4.827,32.381 L 4.727,32.285 4.706,32.148 C 4.684,31.99 4.654,31.822 4.624,31.643 4.473,30.742 4.288,29.625 4.508,28.65 4.354,28.824 4.194,28.992 4.023,29.146 3.666,29.475 3.301,29.727 2.939,29.896 L 1.895,30.389 2.41,29.357 C 2.682,28.811 2.678,28.076 2.674,27.299 2.671,26.725 2.669,26.111 2.79,25.535 2.588,25.777 2.371,26.008 2.142,26.217 1.739,26.586 1.318,26.875 0.891,27.08 L 0.076,27.471 0.334,26.605 C 0.506,26.027 0.504,25.332 0.503,24.594 0.501,24.018 0.5,23.406 0.591,22.816 c -0.455,0.684 -0.978,1.295 -1.505,1.776 -0.062,0.056 -0.123,0.111 -0.185,0.162 l -0.844,0.717 0.191,-1.092 c 0.117,-0.664 0.03,-1.469 -0.062,-2.32 -0.101,-0.934 -0.207,-1.932 -0.044,-2.858 -0.49,0.797 -1.082,1.508 -1.685,2.059 L -4.3,21.922 -4.327,21.078 c -0.019,-0.568 -0.147,-1.224 -0.282,-1.922 -0.374,-1.914 -0.797,-4.084 0.826,-5.566 0.441,-0.404 1.02,-0.733 1.721,-0.979 l 0.14,-0.047 C -2.344,12.045 -2.794,11.506 -3.215,11.035 -3.54,10.67 -3.868,10.326 -4.198,9.99 c 0.702,2.016 -0.141,3.938 -0.969,5.811 -0.368,0.83 -0.748,1.691 -0.966,2.527 l -0.423,1.623 -0.356,-1.639 c -0.132,-0.609 -0.337,-1.269 -0.553,-1.968 -0.437,-1.406 -0.903,-2.918 -0.873,-4.317 -0.293,0.813 -0.639,1.596 -0.955,2.307 -0.323,0.727 -0.604,1.357 -0.767,1.879 0.003,0.396 -0.031,0.758 -0.108,1.101 l -0.321,1.448 -0.175,-0.547 -0.146,0.484 -0.02,-1.006 -0.11,-0.343 c -0.101,-0.319 -0.076,-0.715 0.077,-1.246 -0.031,-0.979 -0.317,-2.034 -0.619,-3.149 -0.66,-2.432 -1.341,-4.945 0.686,-6.797 0.258,-0.236 0.561,-0.455 0.898,-0.656 -0.836,-0.506 -1.677,-0.967 -2.519,-1.391 1.19,2.563 0.03,5.692 -0.786,7.885 -0.297,0.801 -0.555,1.494 -0.627,1.965 0.003,0.139 0,0.273 -0.009,0.406 l -0.251,3.52 -0.544,-3.487 c -0.022,-0.14 -0.022,-0.298 0.001,-0.484 -0.04,-1.045 -0.48,-2.225 -0.946,-3.475 -0.879,-2.357 -1.876,-5.029 0.183,-6.91 0.194,-0.177 0.415,-0.343 0.66,-0.502 -1.1,-0.484 -2.199,-0.935 -3.289,-1.381 -1.787,-0.728 -3.475,-1.416 -5.134,-2.244 l -0.522,-0.259 1.747,-1.598 0.245,0.121 c 1.5,0.74 3.017,1.396 4.443,2.006 5.457,2.332 9.477,4.926 12.84,8.375 C -4.561,7.732 -4.685,7.375 -4.768,6.971 L -4.815,6.736 -4.632,6.584 C -4.41,6.398 -4.177,6.248 -3.938,6.117 -5.754,6.223 -7.459,5.793 -8.651,3.938 L -8.806,3.697 -8.629,3.473 c 0.194,-0.246 0.401,-0.471 0.615,-0.666 0.248,-0.227 0.503,-0.405 0.763,-0.557 -2.113,0.684 -4.338,0.834 -6.39,-1.486 l -0.221,-0.25 0.206,-0.262 c 0.234,-0.301 0.486,-0.574 0.748,-0.813 2.623,-2.396 5.98,-1.23 8.431,-0.38 0.812,0.281 1.518,0.527 2.085,0.615 0.365,-0.072 0.706,-0.111 1.039,-0.125 L 0.196,-0.504 -0.524,-0.072 0,0 z m -0.919,10.955 c 0.288,-0.262 0.583,-0.459 0.881,-0.613 -1.083,-0.063 -2.136,-0.278 -2.985,-0.789 0.54,0.625 1.063,1.281 1.575,1.965 l 0.092,-0.11 c 0.141,-0.164 0.288,-0.316 0.437,-0.453 M -7.016,8.977 c 0.28,-0.258 0.61,-0.489 0.983,-0.696 -0.653,-0.556 -1.311,-1.064 -1.973,-1.537 0.403,0.988 0.436,2.053 0.259,3.121 0.19,-0.312 0.427,-0.611 0.731,-0.888"
         style="fill:#ffffff;fill-opacity:1;fill-rule:nonzero;stroke:none"
         id="path42"
         inkscape:connector-curvature="0" />
    </g>
    <g
       id="g44"
       transform="matrix(1.1726183,0,0,-1.1726183,39.483335,10.061758)">
      <path
         d="M 0,0 -0.037,-0.207 0.109,-0.355 C 0.133,-0.379 0.156,-0.402 0.18,-0.424 0.352,-0.58 0.58,-0.727 0.861,-0.803 -0.094,-1.178 -0.955,-1.807 -1.221,-3.039 l -0.044,-0.205 0.144,-0.154 c 0.039,-0.041 0.078,-0.081 0.119,-0.118 0.373,-0.341 0.824,-0.504 1.324,-0.492 -1.351,-0.326 -2.798,-0.875 -3.279,-2.627 l -0.055,-0.201 0.133,-0.16 c 0.084,-0.102 0.172,-0.195 0.262,-0.277 0.259,-0.237 0.547,-0.395 0.855,-0.483 -1.06,-0.17 -2.148,-0.672 -3.163,-2.111 l -0.196,-0.279 0.243,-0.237 c 0.045,-0.045 0.087,-0.086 0.131,-0.125 0.455,-0.416 0.909,-0.67 1.357,-0.806 -1.28,-0.082 -2.588,-0.584 -3.81,-2.184 l -0.213,-0.277 0.247,-0.248 c 0.055,-0.055 0.11,-0.108 0.166,-0.161 2.471,-2.255 5.573,-0.318 7.625,0.961 0.614,0.385 1.145,0.717 1.543,0.873 l -0.232,0.764 c -0.936,-0.203 -1.895,-0.06 -2.91,0.09 -0.305,0.047 -0.617,0.092 -0.932,0.127 1.492,0.332 2.809,1.687 3.668,2.572 0.238,0.246 0.445,0.459 0.613,0.608 l 1.303,1.162 -1.68,-0.477 c -0.656,-0.189 -1.33,-0.18 -2.043,-0.17 -0.096,0.002 -0.193,0.002 -0.291,0.004 1.598,0.574 3.036,2.535 3.453,3.762 l 0.297,0.869 -0.839,-0.375 c -0.381,-0.17 -0.854,-0.283 -1.358,-0.395 1.271,0.506 2.572,1.967 2.852,3.252 L 4.215,0.121 3.558,-0.088 C 3.316,-0.164 3.024,-0.23 2.719,-0.297 3.938,0.6 5.062,2.365 5.016,2.875 L 4.967,3.406 4.469,3.211 C 4.219,3.111 3.914,3.02 3.59,2.922 2.227,2.508 0.358,1.941 0,0"
         style="fill:#ffffff;fill-opacity:1;fill-rule:nonzero;stroke:none"
         id="path46"
         inkscape:connector-curvature="0" />
    </g>
  </g>
</svg>
