<?xml version="1.0" encoding="UTF-8" standalone="no"?>
<!-- Created with Inkscape (http://www.inkscape.org/) -->

<svg
   xmlns:dc="http://purl.org/dc/elements/1.1/"
   xmlns:cc="http://creativecommons.org/ns#"
   xmlns:rdf="http://www.w3.org/1999/02/22-rdf-syntax-ns#"
   xmlns:svg="http://www.w3.org/2000/svg"
   xmlns="http://www.w3.org/2000/svg"
   xmlns:sodipodi="http://sodipodi.sourceforge.net/DTD/sodipodi-0.dtd"
   xmlns:inkscape="http://www.inkscape.org/namespaces/inkscape"
   width="48px"
   height="48px"
   id="svg3160"
   version="1.1"
   inkscape:version="0.48.4 r9939"
   sodipodi:docname="New document 9">
  <defs
     id="defs3162" />
  <sodipodi:namedview
     id="base"
     pagecolor="#ffffff"
     bordercolor="#666666"
     borderopacity="1.0"
     inkscape:pageopacity="0.0"
     inkscape:pageshadow="2"
     inkscape:zoom="7"
     inkscape:cx="24"
     inkscape:cy="29.808102"
     inkscape:current-layer="layer1"
     showgrid="true"
     inkscape:grid-bbox="true"
     inkscape:document-units="px"
     inkscape:window-width="817"
     inkscape:window-height="634"
     inkscape:window-x="2"
     inkscape:window-y="91"
     inkscape:window-maximized="0" />
  <metadata
     id="metadata3165">
    <rdf:RDF>
      <cc:Work
         rdf:about="">
        <dc:format>image/svg+xml</dc:format>
        <dc:type
           rdf:resource="http://purl.org/dc/dcmitype/StillImage" />
        <dc:title></dc:title>
      </cc:Work>
    </rdf:RDF>
  </metadata>
  <g
     id="layer1"
     inkscape:label="Layer 1"
     inkscape:groupmode="layer">
    <g
       id="g28"
       transform="matrix(1.0057049,0,0,-1.0057049,40.611885,6.3802381)">
      <path
         d="M 0,0 C 0.57,-0.172 0.719,0.347 1.286,0.365 1.719,0.378 2.073,-0.001 2.492,0 3.189,0.003 3.362,-0.228 2.895,-0.638 3.046,-0.861 2.896,-1.425 3.135,-1.55 3.903,-1.196 5.723,-0.799 5.867,-1.823 6.021,-2.903 4.227,-2.971 4.342,-4.193 4.464,-5.508 6.463,-5.97 6.993,-7.02 7.053,-7.574 6.861,-7.841 6.832,-8.295 6.26,-8.771 5.714,-9.276 4.823,-9.389 c -0.997,1.026 -2.5,-0.465 -4.018,-0.548 -0.557,-0.029 -1.151,0.146 -1.528,0 -0.694,-0.265 -1.422,-1.726 -1.929,-2.734 -0.59,-1.171 -0.559,-2.522 -0.963,-3.737 -0.289,-0.867 -0.906,-1.714 -1.207,-2.552 -0.664,-1.864 -0.882,-3.985 -3.295,-3.738 -0.696,-1.493 -0.862,-3.752 -1.365,-5.652 -0.715,-2.688 0.043,-5.613 1.205,-7.383 -0.729,-0.359 -2.018,-0.213 -2.412,0.365 -0.049,0.444 -0.049,0.467 0,0.91 -0.592,-0.017 -1.004,0.508 -1.929,0.366 -0.585,0.34 -0.382,1.572 -1.366,1.459 1.039,3.593 -0.032,7.224 0.723,10.756 -3.197,-0.491 -4.781,-3.067 -8.921,-2.279 -0.386,0.073 -1.125,0.258 -1.608,0.456 -0.522,0.214 -0.663,0.636 -1.366,0.273 -1.047,-0.541 -2.147,-1.652 -3.295,-1.732 -0.052,-0.611 0.006,-1.341 -0.32,-1.64 -0.631,0.154 -0.157,1.052 -0.403,1.549 -0.338,-0.133 -0.041,-0.987 -0.402,-1.094 -0.449,0.006 -0.156,0.855 -0.24,1.275 -0.342,-0.068 -0.705,-0.111 -1.047,-0.181 -1.444,-3.549 -0.244,-8.54 1.528,-10.848 -0.707,-0.451 -1.69,-0.391 -2.411,0 -0.122,0.287 -0.268,0.547 -0.322,0.912 -0.228,0.207 -0.602,0.049 -0.723,0.182 0.359,4.013 -1.124,7.634 -1.126,10.939 -1.221,-0.863 -2.299,-4.4 -2.491,-7.109 -0.155,-2.194 0.986,-2.819 1.608,-4.194 -0.733,-0.443 -1.867,-0.154 -2.572,0.182 0.015,0.836 -0.528,1.041 -0.965,1.367 0.122,0.412 0.206,0.918 0.081,1.367 -0.374,0.119 -0.469,-0.863 -0.885,-1.002 -0.136,0.454 -0.117,1.082 -0.321,1.457 -0.27,0.004 -0.163,-0.421 -0.321,-0.545 -0.121,1.381 -0.419,2.608 -0.322,4.01 0.029,0.418 0.269,0.768 0.322,1.186 0.056,0.437 -0.044,0.879 0,1.275 0.077,0.717 0.496,1.216 0.642,1.915 0.062,0.293 -0.048,0.611 0,0.911 0.19,1.172 0.948,2.111 1.205,3.191 0.452,1.87 0.341,4.402 0.483,6.563 0.124,1.868 0.088,4.55 0.402,6.654 0.337,2.253 1.903,2.998 4.34,2.826 3.044,-0.215 6.305,-0.449 9.484,-0.638 4.987,-0.296 10.711,0.039 15.19,0.456 3.001,0.279 5.057,2.229 7.314,3.282 C -1.1,0.26 0.098,0.648 0,0 m -36.891,-23.519 c 0.475,0.569 0.733,1.303 0.805,2.188 0.29,3.535 -0.007,7.511 -0.322,10.666 -0.018,0.071 -0.067,0.105 -0.16,0.091 -0.317,-4.449 -1.198,-8.788 -0.323,-12.945 m 25.64,-8.751 c -0.046,2.004 0.113,3.705 -0.242,5.287 -0.732,-1.168 -1.056,-4.853 0.242,-5.287"
         style="fill:#ffffff;fill-opacity:1;fill-rule:nonzero;stroke:none"
         id="path30"
         inkscape:connector-curvature="0" />
    </g>
  </g>
</svg>
