<?xml version="1.0" encoding="UTF-8" standalone="no"?>
<!-- Created with Inkscape (http://www.inkscape.org/) -->

<svg
   xmlns:dc="http://purl.org/dc/elements/1.1/"
   xmlns:cc="http://creativecommons.org/ns#"
   xmlns:rdf="http://www.w3.org/1999/02/22-rdf-syntax-ns#"
   xmlns:svg="http://www.w3.org/2000/svg"
   xmlns="http://www.w3.org/2000/svg"
   xmlns:sodipodi="http://sodipodi.sourceforge.net/DTD/sodipodi-0.dtd"
   xmlns:inkscape="http://www.inkscape.org/namespaces/inkscape"
   width="48px"
   height="48px"
   id="svg3341"
   version="1.1"
   inkscape:version="0.48.4 r9939"
   sodipodi:docname="New document 20">
  <defs
     id="defs3343" />
  <sodipodi:namedview
     id="base"
     pagecolor="#ffffff"
     bordercolor="#666666"
     borderopacity="1.0"
     inkscape:pageopacity="0.0"
     inkscape:pageshadow="2"
     inkscape:zoom="7"
     inkscape:cx="24"
     inkscape:cy="24"
     inkscape:current-layer="layer1"
     showgrid="true"
     inkscape:grid-bbox="true"
     inkscape:document-units="px"
     inkscape:window-width="1078"
     inkscape:window-height="745"
     inkscape:window-x="3"
     inkscape:window-y="123"
     inkscape:window-maximized="0" />
  <metadata
     id="metadata3346">
    <rdf:RDF>
      <cc:Work
         rdf:about="">
        <dc:format>image/svg+xml</dc:format>
        <dc:type
           rdf:resource="http://purl.org/dc/dcmitype/StillImage" />
        <dc:title></dc:title>
      </cc:Work>
    </rdf:RDF>
  </metadata>
  <g
     id="layer1"
     inkscape:label="Layer 1"
     inkscape:groupmode="layer">
    <g
       id="g36"
       transform="matrix(0.9262494,0,0,-0.9262494,2.5271129,39.108832)">
      <path
         d="M 0,0 C -0.356,3.102 -0.328,6.705 0.166,10.475 0.963,16.545 2.791,21.699 4.978,24.754 5.479,23.607 5.937,22.34 6.342,20.975 4.97,18.006 3.879,14.146 3.312,9.818 2.852,6.312 2.794,2.949 3.076,0 L 5.05,0 C 4.659,3.164 4.674,6.869 5.184,10.752 5.563,13.645 6.176,16.326 6.95,18.674 7.128,17.914 7.29,17.131 7.434,16.326 7.206,15.227 7.014,14.084 6.858,12.906 6.229,8.104 6.355,3.57 7.071,0 l 2.307,0 c 0.768,3.611 0.917,8.256 0.27,13.184 -0.142,1.086 -0.317,2.14 -0.522,3.16 0.359,1.937 0.824,3.754 1.367,5.404 0.732,-1.525 1.387,-3.303 1.932,-5.268 -0.216,-1.062 -0.401,-2.164 -0.55,-3.296 C 11.229,8.256 11.378,3.611 12.146,0 l 5.811,0 c 1.285,2.262 2.091,5.807 2.262,9.986 0.09,-0.447 0.173,-0.9 0.249,-1.359 C 20.562,7.266 20.727,5.982 20.954,4.801 21.098,3.145 21.151,1.533 21.12,0 l 4.511,0 c -0.039,0.344 -0.073,0.693 -0.104,1.051 0.231,1.15 0.4,2.4 0.503,3.726 C 26.421,2.869 26.982,1.24 27.688,0 l 2.995,0 C 30.342,2.746 30.31,5.898 30.639,9.223 30.455,5.809 30.662,2.641 31.192,0 l 2.307,0 c 0.768,3.611 0.917,8.256 0.271,13.184 -0.143,1.086 -0.318,2.14 -0.522,3.16 0.359,1.937 0.823,3.754 1.367,5.404 0.731,-1.525 1.386,-3.303 1.931,-5.268 -0.216,-1.062 -0.4,-2.164 -0.549,-3.296 C 35.351,8.256 35.5,3.611 36.268,0 l 3.67,0 c 0.233,2.836 0.161,6.031 -0.277,9.355 -0.327,2.495 -0.828,4.834 -1.456,6.936 0.146,0.816 0.31,1.611 0.489,2.383 0.775,-2.348 1.388,-5.029 1.767,-7.922 C 40.972,6.869 40.986,3.164 40.594,0 l 1.975,0 c 0.283,2.949 0.225,6.312 -0.235,9.818 -0.567,4.328 -1.659,8.188 -3.031,11.157 0.206,0.695 0.427,1.365 0.66,2.007 2.858,-2.478 5.408,-8.57 6.391,-16.058 C 46.669,4.52 46.795,2.184 46.752,0 l 1.88,0 c -0.004,1.91 -0.135,3.926 -0.405,5.99 -1.189,9.057 -4.67,16.072 -8.217,17.121 1.24,3.375 2.82,5.944 4.492,7.266 -2.231,-0.455 -4.461,-3.311 -6.135,-7.592 -0.682,1.178 -1.414,2.147 -2.17,2.863 0.051,0.102 0.103,0.206 0.156,0.305 0.358,0.412 0.724,0.766 1.095,1.059 -0.206,-0.041 -0.412,-0.104 -0.617,-0.186 0.828,1.424 1.728,2.539 2.654,3.274 -1.46,-0.297 -2.92,-1.623 -4.223,-3.704 -0.474,0.309 -0.953,0.518 -1.434,0.616 0.385,-0.305 0.765,-0.676 1.137,-1.108 -0.164,-0.281 -0.325,-0.576 -0.485,-0.883 -0.125,-0.142 -0.248,-0.291 -0.371,-0.447 -0.706,0.805 -1.439,1.391 -2.179,1.723 0.166,0.158 0.332,0.305 0.502,0.437 -0.289,-0.058 -0.579,-0.158 -0.868,-0.295 -0.136,0.045 -0.272,0.082 -0.408,0.11 0.079,-0.063 0.158,-0.129 0.237,-0.197 -0.41,-0.217 -0.817,-0.512 -1.217,-0.875 -0.232,0.437 -0.47,0.849 -0.714,1.236 1.285,3.867 3.007,6.814 4.841,8.266 -2.103,-0.43 -4.203,-2.991 -5.84,-6.868 -0.807,0.987 -1.652,1.688 -2.509,2.049 1.005,2.035 2.146,3.602 3.332,4.539 -2.509,-0.51 -5.016,-4.058 -6.734,-9.256 -0.876,1.825 -1.859,3.287 -2.889,4.284 0.237,0.242 0.477,0.459 0.718,0.65 -0.341,-0.068 -0.681,-0.195 -1.02,-0.373 -0.697,0.607 -1.412,1 -2.127,1.146 0.508,-0.404 1.009,-0.92 1.494,-1.541 -0.526,-0.379 -1.043,-0.882 -1.545,-1.498 -1.637,3.877 -3.739,6.438 -5.841,6.868 1.276,-1.01 2.498,-2.745 3.556,-5.008 -1.173,-0.414 -2.337,-1.475 -3.409,-3.043 -0.498,-0.153 -0.994,-0.424 -1.482,-0.801 -0.596,0.459 -1.202,0.762 -1.81,0.885 C 8.642,26.66 9.079,26.221 9.506,25.701 9.398,25.602 9.29,25.496 9.184,25.385 8.48,26.002 7.757,26.402 7.035,26.549 7.595,26.105 8.146,25.523 8.675,24.816 8.193,24.236 7.726,23.557 7.278,22.785 6.838,23.908 6.361,24.936 5.855,25.846 6.165,26.186 6.481,26.482 6.8,26.734 6.402,26.654 6.005,26.496 5.611,26.27 4.247,28.582 2.695,30.061 1.143,30.377 2.386,29.393 3.578,27.723 4.618,25.541 1.787,23.027 -0.73,16.971 -1.706,9.541 -2.151,6.145 -2.219,2.881 -1.967,0 L 0,0 z m 38.086,1.189 c -0.592,2.936 -0.784,6.526 -0.482,10.383 0.066,-0.422 0.128,-0.849 0.185,-1.283 0.423,-3.225 0.505,-6.328 0.297,-9.1 m -2.284,23.627 c 0.704,-1.023 1.369,-2.263 1.971,-3.681 -0.205,-0.619 -0.399,-1.264 -0.58,-1.93 -0.621,1.549 -1.316,2.902 -2.056,4.016 0.214,0.554 0.435,1.088 0.665,1.595 M 13.964,1.189 c -0.591,2.936 -0.782,6.526 -0.482,10.383 0.067,-0.422 0.129,-0.849 0.186,-1.283 0.423,-3.225 0.505,-6.328 0.296,-9.1 m 3.143,2.106 c 0.021,2.068 -0.108,4.266 -0.405,6.523 -0.433,3.311 -1.175,6.348 -2.113,8.922 0.254,1.076 0.54,2.106 0.854,3.078 0.991,-1.218 1.919,-2.869 2.729,-4.843 C 18.68,11.627 18.244,6.732 17.107,3.295 M 31.7,26.07 c 0.628,-0.605 1.238,-1.383 1.819,-2.31 -0.528,-0.781 -1.032,-1.686 -1.502,-2.694 -0.437,1.325 -0.923,2.543 -1.448,3.633 0.368,0.52 0.746,0.979 1.131,1.371 m -2.742,-1 c 0.09,-0.199 0.179,-0.402 0.267,-0.609 -0.223,-0.272 -0.442,-0.565 -0.657,-0.879 0.123,0.506 0.253,1.004 0.39,1.488 m 0.728,-1.767 c 0.52,-1.391 0.983,-2.922 1.371,-4.563 -0.94,-2.574 -1.681,-5.611 -2.115,-8.922 -0.296,-2.257 -0.424,-4.455 -0.404,-6.523 -1.26,3.807 -1.657,9.396 -0.87,15.412 0.594,1.742 1.276,3.293 2.018,4.596 m -3.865,6.584 c 0.761,-0.737 1.496,-1.729 2.182,-2.932 -0.982,-2.625 -1.757,-5.752 -2.206,-9.17 0,-0.004 0,-0.008 -0.001,-0.012 -0.152,-0.447 -0.299,-0.908 -0.439,-1.38 -0.458,2.486 -1.087,4.777 -1.837,6.775 0.606,2.545 1.395,4.824 2.301,6.719 M 22.653,18.439 c 0.073,0.549 0.153,1.088 0.241,1.622 0.404,-1.622 0.735,-3.356 0.973,-5.17 0.157,-1.198 0.267,-2.375 0.332,-3.528 -0.1,-0.597 -0.193,-1.205 -0.274,-1.822 C 23.629,7.283 23.5,5.084 23.521,3.018 c -1.26,3.808 -1.658,9.404 -0.868,15.421 m -3.549,10.665 c 1.048,-1.485 2.013,-3.452 2.819,-5.772 -0.482,-1.805 -0.872,-3.762 -1.143,-5.826 -0.117,-0.897 -0.209,-1.785 -0.275,-2.66 -0.149,0.41 -0.302,0.81 -0.461,1.197 -0.055,0.576 -0.12,1.156 -0.196,1.742 -0.449,3.418 -1.224,6.545 -2.205,9.17 0.465,0.818 0.956,1.539 1.461,2.149 m -1.37,-8.764 c -0.665,0.916 -1.362,1.639 -2.072,2.135 0.318,0.921 0.661,1.791 1.025,2.595 0.417,-1.476 0.77,-3.062 1.047,-4.73 m -2.747,9.437 c 0.429,-0.937 0.83,-1.963 1.197,-3.064 -0.648,-1.026 -1.256,-2.236 -1.808,-3.602 -0.096,0.03 -0.19,0.053 -0.287,0.073 0.079,-0.063 0.158,-0.127 0.237,-0.196 -0.245,-0.613 -0.476,-1.254 -0.697,-1.922 -0.638,1.368 -1.337,2.539 -2.069,3.477 1.01,2.303 2.188,4.107 3.427,5.234 m -3.233,-7.773 c -0.239,0.432 -0.485,0.838 -0.737,1.217 0.016,0.045 0.034,0.09 0.051,0.134 0.235,-0.425 0.464,-0.876 0.686,-1.351 m -0.599,4.416 c -0.171,-0.272 -0.339,-0.557 -0.504,-0.854 -0.047,0.045 -0.094,0.09 -0.143,0.135 0.214,0.26 0.43,0.5 0.647,0.719 m -1.148,-1.371 c 0.071,-0.1 0.141,-0.199 0.212,-0.303 -0.047,-0.092 -0.092,-0.185 -0.138,-0.279 -0.089,0.105 -0.179,0.205 -0.269,0.304 0.064,0.094 0.129,0.186 0.195,0.278 M 9.282,23.941 C 9.391,23.773 9.497,23.6 9.604,23.42 9.125,22.309 8.685,21.084 8.294,19.77 c -0.135,0.466 -0.275,0.921 -0.422,1.365 0.441,1.035 0.913,1.976 1.41,2.806"
         style="fill:#ffffff;fill-opacity:1;fill-rule:nonzero;stroke:none"
         id="path38"
         inkscape:connector-curvature="0" />
    </g>
  </g>
</svg>
